<?xml version="1.0" encoding="UTF-8"?>
<svg version="1.1" width="64" height="64" viewBox="0 0 64 64" xmlns="http://www.w3.org/2000/svg" fill="#f2efe9">
  <circle cx="4.5" cy="4.5" r=".75"/>
  <circle cx="4.5" cy="12.5" r=".75"/>
  <circle cx="4.5" cy="20.5" r=".75"/>
  <circle cx="4.5" cy="28.5" r=".75"/>
  <circle cx="4.5" cy="36.5" r=".75"/>
  <circle cx="4.5" cy="44.5" r=".75"/>
  <circle cx="4.5" cy="52.5" r=".75"/>
  <circle cx="4.5" cy="60.5" r=".75"/>
  <circle cx="12.5" cy="4.5" r=".75"/>
  <circle cx="12.5" cy="12.5" r=".75"/>
  <circle cx="12.5" cy="20.5" r=".75"/>
  <circle cx="12.5" cy="28.5" r=".75"/>
  <circle cx="12.5" cy="36.5" r=".75"/>
  <circle cx="12.5" cy="44.5" r=".75"/>
  <circle cx="12.5" cy="52.5" r=".75"/>
  <circle cx="12.5" cy="60.5" r=".75"/>
  <circle cx="20.5" cy="4.5" r=".75"/>
  <circle cx="20.5" cy="12.5" r=".75"/>
  <circle cx="20.5" cy="20.5" r=".75"/>
  <circle cx="20.5" cy="28.5" r=".75"/>
  <circle cx="20.5" cy="36.5" r=".75"/>
  <circle cx="20.5" cy="44.5" r=".75"/>
  <circle cx="20.5" cy="52.5" r=".75"/>
  <circle cx="20.5" cy="60.5" r=".75"/>
  <circle cx="28.5" cy="4.5" r=".75"/>
  <circle cx="28.5" cy="12.5" r=".75"/>
  <circle cx="28.5" cy="20.5" r=".75"/>
  <circle cx="28.5" cy="28.5" r=".75"/>
  <circle cx="28.5" cy="36.5" r=".75"/>
  <circle cx="28.5" cy="44.5" r=".75"/>
  <circle cx="28.5" cy="52.5" r=".75"/>
  <circle cx="28.5" cy="60.5" r=".75"/>
  <circle cx="36.5" cy="4.5" r=".75"/>
  <circle cx="36.5" cy="12.5" r=".75"/>
  <circle cx="36.5" cy="20.5" r=".75"/>
  <circle cx="36.5" cy="28.5" r=".75"/>
  <circle cx="36.5" cy="36.5" r=".75"/>
  <circle cx="36.5" cy="44.5" r=".75"/>
  <circle cx="36.5" cy="52.5" r=".75"/>
  <circle cx="36.5" cy="60.5" r=".75"/>
  <circle cx="44.5" cy="4.5" r=".75"/>
  <circle cx="44.5" cy="12.5" r=".75"/>
  <circle cx="44.5" cy="20.5" r=".75"/>
  <circle cx="44.5" cy="28.5" r=".75"/>
  <circle cx="44.5" cy="36.5" r=".75"/>
  <circle cx="44.5" cy="44.5" r=".75"/>
  <circle cx="44.5" cy="52.5" r=".75"/>
  <circle cx="44.5" cy="60.5" r=".75"/>
  <circle cx="52.5" cy="4.5" r=".75"/>
  <circle cx="52.5" cy="12.5" r=".75"/>
  <circle cx="52.5" cy="20.5" r=".75"/>
  <circle cx="52.5" cy="28.5" r=".75"/>
  <circle cx="52.5" cy="36.5" r=".75"/>
  <circle cx="52.5" cy="44.5" r=".75"/>
  <circle cx="52.5" cy="52.5" r=".75"/>
  <circle cx="52.5" cy="60.5" r=".75"/>
  <circle cx="60.5" cy="4.5" r=".75"/>
  <circle cx="60.5" cy="12.5" r=".75"/>
  <circle cx="60.5" cy="20.5" r=".75"/>
  <circle cx="60.5" cy="28.5" r=".75"/>
  <circle cx="60.5" cy="36.5" r=".75"/>
  <circle cx="60.5" cy="44.5" r=".75"/>
  <circle cx="60.5" cy="52.5" r=".75"/>
  <circle cx="60.5" cy="60.5" r=".75"/>
</svg>
