<?xml version="1.0" encoding="UTF-8"?>
<svg version="1.1" width="200" height="200" viewBox="-10 -10 20 20" xmlns="http://www.w3.org/2000/svg">
  <path d="m-3.5,2.25 h8 v0.75 h-8 z m1,1.75 h8 v0.75 h-8 z m-2.25,-5.25 c0,.25 .25,.5 .5,1 .23629,.7 .22479,-.01 .25,1.75 .75,-.25 1,-.25 1.25,-.25 0,-1.25 -.5,-1.75 -1,-2.25 -.5,-.25 -.5,-.25 -1,-.25 z m2.25,-2.5 c-0.125,0 0,.5 .25,1.75 .25,1.75 .25,1.5 0,3.25 .5,0 1,-.25 1.5,-.25 0,-1.5 -.25,-1.75 -.75,-3.5 -.25,-1 -.875,-1.25 -1,-1.25 z m4.25,.75 c-0.25,0 -.5,0 -1,.5 -.75,1 -.75,1.5 -1,3.5 .5,0 1,.25 1.5,.25 -.0005,-1.6198 0,-3 .5,-4.25 z m2,2 c0,.25 -.25,.25 -.5,.75 -.25,1 -.25,.75 -.25,1.75 -.75,-.25 -1,-.25 -1.25,-.23 .011,-1.59 .75,-1.77 1,-2.02 .5,-.25 .5,-.25 1,-.25 z" stroke="#aaa" stroke-width="4" stroke-linejoin="round"/>
  <path d="m-3.5,2.25 h8 v0.75 h-8 z m1,1.75 h8 v0.75 h-8 z m-2.25,-5.25 c0,.25 .25,.5 .5,1 .23629,.7 .22479,-.01 .25,1.75 .75,-.25 1,-.25 1.25,-.25 0,-1.25 -.5,-1.75 -1,-2.25 -.5,-.25 -.5,-.25 -1,-.25 z m2.25,-2.5 c-0.125,0 0,.5 .25,1.75 .25,1.75 .25,1.5 0,3.25 .5,0 1,-.25 1.5,-.25 0,-1.5 -.25,-1.75 -.75,-3.5 -.25,-1 -.875,-1.25 -1,-1.25 z m4.25,.75 c-0.25,0 -.5,0 -1,.5 -.75,1 -.75,1.5 -1,3.5 .5,0 1,.25 1.5,.25 -.0005,-1.6198 0,-3 .5,-4.25 z m2,2 c0,.25 -.25,.25 -.5,.75 -.25,1 -.25,.75 -.25,1.75 -.75,-.25 -1,-.25 -1.25,-.23 .011,-1.59 .75,-1.77 1,-2.02 .5,-.25 .5,-.25 1,-.25 z"/>
  <path d="m-10,-10 v20 m1,0 v-20 m1,0 v20 m1,0 v-20 m1,0 v20 m1,0 v-20 m1,0 v20 m1,0 v-20 m1,0 v20 m1,0 v-20 m1,0 v20 m1,0 v-20 m1,0 v20 m1,0 v-20 m1,0 v20 m1,0 v-20 m1,0 v20 m1,0 v-20 m1,0 v20 m1,0 v-20 m1,0 v20" stroke-width=".05" stroke="#ccc" fill="none"/>
  <path d="m-10,-10 h20 m0,1 h-20 m0,1 h20 m0,1 h-20 m0,1 h20 m0,1 h-20 m0,1 h20 m0,1 h-20 m0,1 h20 m0,1 h-20 m0,1 h20 m0,1 h-20 m0,1 h20 m0,1 h-20 m0,1 h20 m0,1 h-20 m0,1 h20 m0,1 h-20 m0,1 h20 m0,1 h-20 m0,1 h20" stroke-width=".05" stroke="#ccc" fill="none"/>
  <path d="m0,-10 v20 m-10,-10 h20" stroke-width=".1" stroke="blue" fill="none"/>
  <path d="m-1,-6 v1 h4 v1 h1 v1 h1 v1 h1 v4 h1 v4 h-11 v-1 h-1 v-2 h-1 v-3 h-1 v-2 h1 v-1 h1 v-1 h1 v-2 z" stroke="black" stroke-width=".15" fill="none"/>
</svg>
