<?xml version="1.0" encoding="UTF-8"?>
<svg version="1.1" width="200" height="200" viewBox="-10 -10 20 20" xmlns="http://www.w3.org/2000/svg">
  <path d="m0,-5 c-2.2091,0 -4,1.7909 -4,4 0,1.0247 .39777,1.9241 1.0312,2.625 l0.5625,-.5 c-0.51563,-.5771 -.84375,-1.3469 -.84375,-2.375 0,-1.7949 1.4551,-3 3.25,-3 1.25,0 2.75,1.4551 2.75,3.25 0,.8715 -.25039,1.6242 -.71875,2.1875 l0.65625,.75 c0.80063,-.7244 1.3125,-1.7688 1.3125,-2.9375 0,-2.2091 -1.7909,-4 -4,-4 z m-1.25,5.5 c-0.25,2.25 -.75,3.25 -1.5,4.5 h-1.25 c1.5,-1.5 2.25,-3.25 2.75,-4.5 z m1.25,0 c0,2.25 .5,3.75 0,5 h-1.25 c1,-1.5 .5,-3.5 1.25,-5 z m0.75,0 c0.75,2 1.5,3 2.5,4.5 h-1.5 c-0.25,-1 -1.5,-3.25 -1,-4.5 z" stroke="#aaa" stroke-width="4" stroke-linejoin="round"/>
  <path d="m0,-5 c-2.2091,0 -4,1.7909 -4,4 0,1.0247 .39777,1.9241 1.0312,2.625 l0.5625,-.5 c-0.51563,-.5771 -.84375,-1.3469 -.84375,-2.375 0,-1.7949 1.4551,-3 3.25,-3 1.25,0 2.75,1.4551 2.75,3.25 0,.8715 -.25039,1.6242 -.71875,2.1875 l0.65625,.75 c0.80063,-.7244 1.3125,-1.7688 1.3125,-2.9375 0,-2.2091 -1.7909,-4 -4,-4 z m-1.25,5.5 c-0.25,2.25 -.75,3.25 -1.5,4.5 h-1.25 c1.5,-1.5 2.25,-3.25 2.75,-4.5 z m1.25,0 c0,2.25 .5,3.75 0,5 h-1.25 c1,-1.5 .5,-3.5 1.25,-5 z m0.75,0 c0.75,2 1.5,3 2.5,4.5 h-1.5 c-0.25,-1 -1.5,-3.25 -1,-4.5 z"/>
  <path d="m-10,-10 v20 m1,0 v-20 m1,0 v20 m1,0 v-20 m1,0 v20 m1,0 v-20 m1,0 v20 m1,0 v-20 m1,0 v20 m1,0 v-20 m1,0 v20 m1,0 v-20 m1,0 v20 m1,0 v-20 m1,0 v20 m1,0 v-20 m1,0 v20 m1,0 v-20 m1,0 v20 m1,0 v-20 m1,0 v20" stroke-width=".05" stroke="#ccc" fill="none"/>
  <path d="m-10,-10 h20 m0,1 h-20 m0,1 h20 m0,1 h-20 m0,1 h20 m0,1 h-20 m0,1 h20 m0,1 h-20 m0,1 h20 m0,1 h-20 m0,1 h20 m0,1 h-20 m0,1 h20 m0,1 h-20 m0,1 h20 m0,1 h-20 m0,1 h20 m0,1 h-20 m0,1 h20 m0,1 h-20 m0,1 h20" stroke-width=".05" stroke="#ccc" fill="none"/>
  <path d="m0,-10 v20 m-10,-10 h20" stroke-width=".1" stroke="blue" fill="none"/>
  <path d="m2,-7 v1 h2 v1 h1 v2 h1 v4 h-1 v5 h-1 v1 h-9 v-1 h-1 v-2 h1 v-3 h-1 v-4 h1 v-2 h1 v-1 h2 v-1 z" stroke="black" stroke-width=".15" fill="none"/>
</svg>
