<?xml version="1.0" encoding="UTF-8"?>
<svg version="1.1" width="200" height="200" viewBox="-10 -10 20 20" xmlns="http://www.w3.org/2000/svg">
  <path d="m4.75,-1.25 c0,.25 -.25,1.25 -.5,2.5 s-.25,1.75 0,3.25 c-.25,0 -.8662,-.17 -1.25,-.25 .5,-.5 -.25,-1.5 .75,-4 .25,-.75 .25,-1 1,-1.5 z m-8.5,.75 c0,.25 .25,.5 .5,1.25 .25,2 .22479,1.99 .25,3.75 .5,-.25 .8662,-.17 1.25,-.25 0,-1.25 0,-3.25 -1.25,-4.25 -.25,-.25 -.25,-.25 -.75,-.5 z m6.25,-1.75 c-.25,0 -.5,.25 -.75,.75 -.75,2 -.5,4.25 -.75,5.5 .5,0 1,.25 1.5,.25 -.5,-1 -.25,-1.5 -.25,-4.75 0,-1 0,-.75 .25,-1.75 z m-4,-1 c0,.75 0,1 .25,2.25 0,1 .75,3.75 0,5.25 .5,0 1,-.25 1.5,-.25 .25,-2.5 -.25,-4 -1,-6 -.25,-.75 -.25,-1 -.75,-1.25 z" stroke="#aaa" stroke-width="4" stroke-linejoin="round"/>
  <path d="m4.75,-1.25 c0,.25 -.25,1.25 -.5,2.5 s-.25,1.75 0,3.25 c-.25,0 -.8662,-.17 -1.25,-.25 .5,-.5 -.25,-1.5 .75,-4 .25,-.75 .25,-1 1,-1.5 z m-8.5,.75 c0,.25 .25,.5 .5,1.25 .25,2 .22479,1.99 .25,3.75 .5,-.25 .8662,-.17 1.25,-.25 0,-1.25 0,-3.25 -1.25,-4.25 -.25,-.25 -.25,-.25 -.75,-.5 z m6.25,-1.75 c-.25,0 -.5,.25 -.75,.75 -.75,2 -.5,4.25 -.75,5.5 .5,0 1,.25 1.5,.25 -.5,-1 -.25,-1.5 -.25,-4.75 0,-1 0,-.75 .25,-1.75 z m-4,-1 c0,.75 0,1 .25,2.25 0,1 .75,3.75 0,5.25 .5,0 1,-.25 1.5,-.25 .25,-2.5 -.25,-4 -1,-6 -.25,-.75 -.25,-1 -.75,-1.25 z"/>
  <path d="m-10,-10 v20 m1,0 v-20 m1,0 v20 m1,0 v-20 m1,0 v20 m1,0 v-20 m1,0 v20 m1,0 v-20 m1,0 v20 m1,0 v-20 m1,0 v20 m1,0 v-20 m1,0 v20 m1,0 v-20 m1,0 v20 m1,0 v-20 m1,0 v20 m1,0 v-20 m1,0 v20 m1,0 v-20 m1,0 v20" stroke-width=".05" stroke="#ccc" fill="none"/>
  <path d="m-10,-10 h20 m0,1 h-20 m0,1 h20 m0,1 h-20 m0,1 h20 m0,1 h-20 m0,1 h20 m0,1 h-20 m0,1 h20 m0,1 h-20 m0,1 h20 m0,1 h-20 m0,1 h20 m0,1 h-20 m0,1 h20 m0,1 h-20 m0,1 h20 m0,1 h-20 m0,1 h20 m0,1 h-20 m0,1 h20" stroke-width=".05" stroke="#ccc" fill="none"/>
  <path d="m0,-10 v20 m-10,-10 h20" stroke-width=".1" stroke="blue" fill="none"/>
  <path d="m0,-5 v1 h4 v1 h2 v1 h1 v2 h-1 v6 h-10 v-1 h-1 v-5 h-1 v-1 h1 v-1 h1 v-1 h1 v-2 z" stroke="black" stroke-width=".15" fill="none"/>
</svg>
