<?xml version="1.0" encoding="UTF-8"?>
<svg version="1.1" width="200" height="200" viewBox="-5 -5 20 20" xmlns="http://www.w3.org/2000/svg">
  <path d="m2.5,10 v-3.5 m-2,0 v-.4189 l1.8604,-5.5811 h.2792 l1.8604,5.5811 v.4189 z m7,3.5 v-4.5 a2,2.5 0 0 1 0,-5 2,2.5 0 0 1 0,5" stroke="#aaa" stroke-width="5" stroke-linejoin="round" stroke-linecap="round"/>
  <path d="m2.5,10 v-3.5 m-2,0 v-.4189 l1.8604,-5.5811 h.2792 l1.8604,5.5811 v.4189 z m7,3.5 v-4.5 a2,2.5 0 0 1 0,-5 2,2.5 0 0 1 0,5" stroke-width="1" stroke="black" fill="none"/>
  <path d="m-5,-5 v20 m1,0 v-20 m1,0 v20 m1,0 v-20 m1,0 v20 m1,0 v-20 m1,0 v20 m1,0 v-20 m1,0 v20 m1,0 v-20 m1,0 v20 m1,0 v-20 m1,0 v20 m1,0 v-20 m1,0 v20 m1,0 v-20 m1,0 v20 m1,0 v-20 m1,0 v20 m1,0 v-20 m1,0 v20" stroke-width=".05" stroke="#ccc" fill="none"/>
  <path d="m-5,-5 h20 m0,1 h-20 m0,1 h20 m0,1 h-20 m0,1 h20 m0,1 h-20 m0,1 h20 m0,1 h-20 m0,1 h20 m0,1 h-20 m0,1 h20 m0,1 h-20 m0,1 h20 m0,1 h-20 m0,1 h20 m0,1 h-20 m0,1 h20 m0,1 h-20 m0,1 h20 m0,1 h-20 m0,1 h20" stroke-width=".05" stroke="#ccc" fill="none"/>
  <path d="m0,-5 v20 m-5,-15 h20" stroke-width=".1" stroke="blue" fill="none"/>
  <path d="m9,-2 v1 h2 v2 h1 v4 h-1 v2 h-1 v4 h-1 v1 h-8 v-1 h-1 v-2 h-1 v-1 h-1 v-4 h1 v-3 h1 v-2 h1 v-1 z" stroke="black" stroke-width=".15" fill="none"/>
</svg>
