<?xml version="1.0" encoding="UTF-8"?>
<svg version="1.1" width="512" height="512" viewBox="0 0 512 512" xmlns="http://www.w3.org/2000/svg">
  <path d="M477,10m2 0-2 6v1h2v3h1v-3h2v-1l-2-6zm0.5 1 1.5 5h-3zm4.5 4h1v5h-1zm0.5-5a2.5 3 0 0 1 0 6v-1a1.5 2 0 0 0 0-4 1.5 2 0 1 0 0 4v1a2.5 3 0 1 1 0-6z" fill="#93b685"/>
  <path d="M111,67m2 0-2 6v1h2v3h1v-3h2v-1l-2-6zm0.5 1 1.5 5h-3zm4.5 4h1v5h-1zm0.5-5a2.5 3 0 0 1 0 6v-1a1.5 2 0 0 0 0-4 1.5 2 0 1 0 0 4v1a2.5 3 0 1 1 0-6z" fill="#93b685"/>
  <path d="M69,493m2 0-2 6v1h2v3h1v-3h2v-1l-2-6zm0.5 1 1.5 5h-3zm4.5 4h1v5h-1zm0.5-5a2.5 3 0 0 1 0 6v-1a1.5 2 0 0 0 0-4 1.5 2 0 1 0 0 4v1a2.5 3 0 1 1 0-6z" fill="#93b685"/>
  <path d="M268,275m2 0-2 6v1h2v3h1v-3h2v-1l-2-6zm0.5 1 1.5 5h-3zm4.5 4h1v5h-1zm0.5-5a2.5 3 0 0 1 0 6v-1a1.5 2 0 0 0 0-4 1.5 2 0 1 0 0 4v1a2.5 3 0 1 1 0-6z" fill="#93b685"/>
  <path d="M471,237m2 0-2 6v1h2v3h1v-3h2v-1l-2-6zm0.5 1 1.5 5h-3zm4.5 4h1v5h-1zm0.5-5a2.5 3 0 0 1 0 6v-1a1.5 2 0 0 0 0-4 1.5 2 0 1 0 0 4v1a2.5 3 0 1 1 0-6z" fill="#93b685"/>
  <path d="M193,448m2 0-2 6v1h2v3h1v-3h2v-1l-2-6zm0.5 1 1.5 5h-3zm4.5 4h1v5h-1zm0.5-5a2.5 3 0 0 1 0 6v-1a1.5 2 0 0 0 0-4 1.5 2 0 1 0 0 4v1a2.5 3 0 1 1 0-6z" fill="#93b685"/>
  <path d="M288,63m2 0-2 6v1h2v3h1v-3h2v-1l-2-6zm0.5 1 1.5 5h-3zm4.5 4h1v5h-1zm0.5-5a2.5 3 0 0 1 0 6v-1a1.5 2 0 0 0 0-4 1.5 2 0 1 0 0 4v1a2.5 3 0 1 1 0-6z" fill="#93b685"/>
  <path d="M476,474m2 0-2 6v1h2v3h1v-3h2v-1l-2-6zm0.5 1 1.5 5h-3zm4.5 4h1v5h-1zm0.5-5a2.5 3 0 0 1 0 6v-1a1.5 2 0 0 0 0-4 1.5 2 0 1 0 0 4v1a2.5 3 0 1 1 0-6z" fill="#93b685"/>
  <path d="M413,108m2 0-2 6v1h2v3h1v-3h2v-1l-2-6zm0.5 1 1.5 5h-3zm4.5 4h1v5h-1zm0.5-5a2.5 3 0 0 1 0 6v-1a1.5 2 0 0 0 0-4 1.5 2 0 1 0 0 4v1a2.5 3 0 1 1 0-6z" fill="#93b685"/>
  <path d="M456,89m2 0-2 6v1h2v3h1v-3h2v-1l-2-6zm0.5 1 1.5 5h-3zm4.5 4h1v5h-1zm0.5-5a2.5 3 0 0 1 0 6v-1a1.5 2 0 0 0 0-4 1.5 2 0 1 0 0 4v1a2.5 3 0 1 1 0-6z" fill="#93b685"/>
  <path d="M501,294m2 0-2 6v1h2v3h1v-3h2v-1l-2-6zm0.5 1 1.5 5h-3zm4.5 4h1v5h-1zm0.5-5a2.5 3 0 0 1 0 6v-1a1.5 2 0 0 0 0-4 1.5 2 0 1 0 0 4v1a2.5 3 0 1 1 0-6z" fill="#93b685"/>
  <path d="M478,31m2 0-2 6v1h2v3h1v-3h2v-1l-2-6zm0.5 1 1.5 5h-3zm4.5 4h1v5h-1zm0.5-5a2.5 3 0 0 1 0 6v-1a1.5 2 0 0 0 0-4 1.5 2 0 1 0 0 4v1a2.5 3 0 1 1 0-6z" fill="#93b685"/>
  <path d="M87,135m2 0-2 6v1h2v3h1v-3h2v-1l-2-6zm0.5 1 1.5 5h-3zm4.5 4h1v5h-1zm0.5-5a2.5 3 0 0 1 0 6v-1a1.5 2 0 0 0 0-4 1.5 2 0 1 0 0 4v1a2.5 3 0 1 1 0-6z" fill="#93b685"/>
  <path d="M34,167m2 0-2 6v1h2v3h1v-3h2v-1l-2-6zm0.5 1 1.5 5h-3zm4.5 4h1v5h-1zm0.5-5a2.5 3 0 0 1 0 6v-1a1.5 2 0 0 0 0-4 1.5 2 0 1 0 0 4v1a2.5 3 0 1 1 0-6z" fill="#93b685"/>
  <path d="M318,442m2 0-2 6v1h2v3h1v-3h2v-1l-2-6zm0.5 1 1.5 5h-3zm4.5 4h1v5h-1zm0.5-5a2.5 3 0 0 1 0 6v-1a1.5 2 0 0 0 0-4 1.5 2 0 1 0 0 4v1a2.5 3 0 1 1 0-6z" fill="#93b685"/>
  <path d="M294,496m2 0-2 6v1h2v3h1v-3h2v-1l-2-6zm0.5 1 1.5 5h-3zm4.5 4h1v5h-1zm0.5-5a2.5 3 0 0 1 0 6v-1a1.5 2 0 0 0 0-4 1.5 2 0 1 0 0 4v1a2.5 3 0 1 1 0-6z" fill="#93b685"/>
  <path d="M38,441m2 0-2 6v1h2v3h1v-3h2v-1l-2-6zm0.5 1 1.5 5h-3zm4.5 4h1v5h-1zm0.5-5a2.5 3 0 0 1 0 6v-1a1.5 2 0 0 0 0-4 1.5 2 0 1 0 0 4v1a2.5 3 0 1 1 0-6z" fill="#93b685"/>
  <path d="M378,340m2 0-2 6v1h2v3h1v-3h2v-1l-2-6zm0.5 1 1.5 5h-3zm4.5 4h1v5h-1zm0.5-5a2.5 3 0 0 1 0 6v-1a1.5 2 0 0 0 0-4 1.5 2 0 1 0 0 4v1a2.5 3 0 1 1 0-6z" fill="#93b685"/>
  <path d="M17,506m2 0-2 6v1h2v3h1v-3h2v-1l-2-6zm0.5 1 1.5 5h-3zm4.5 4h1v5h-1zm0.5-5a2.5 3 0 0 1 0 6v-1a1.5 2 0 0 0 0-4 1.5 2 0 1 0 0 4v1a2.5 3 0 1 1 0-6z" fill="#93b685"/>
  <path d="M17,-6m2 0-2 6v1h2v3h1v-3h2v-1l-2-6zm0.5 1 1.5 5h-3zm4.5 4h1v5h-1zm0.5-5a2.5 3 0 0 1 0 6v-1a1.5 2 0 0 0 0-4 1.5 2 0 1 0 0 4v1a2.5 3 0 1 1 0-6z" fill="#93b685"/>
  <path d="M457,194m2 0-2 6v1h2v3h1v-3h2v-1l-2-6zm0.5 1 1.5 5h-3zm4.5 4h1v5h-1zm0.5-5a2.5 3 0 0 1 0 6v-1a1.5 2 0 0 0 0-4 1.5 2 0 1 0 0 4v1a2.5 3 0 1 1 0-6z" fill="#93b685"/>
  <path d="M194,220m2 0-2 6v1h2v3h1v-3h2v-1l-2-6zm0.5 1 1.5 5h-3zm4.5 4h1v5h-1zm0.5-5a2.5 3 0 0 1 0 6v-1a1.5 2 0 0 0 0-4 1.5 2 0 1 0 0 4v1a2.5 3 0 1 1 0-6z" fill="#93b685"/>
  <path d="M290,236m2 0-2 6v1h2v3h1v-3h2v-1l-2-6zm0.5 1 1.5 5h-3zm4.5 4h1v5h-1zm0.5-5a2.5 3 0 0 1 0 6v-1a1.5 2 0 0 0 0-4 1.5 2 0 1 0 0 4v1a2.5 3 0 1 1 0-6z" fill="#93b685"/>
  <path d="M137,34m2 0-2 6v1h2v3h1v-3h2v-1l-2-6zm0.5 1 1.5 5h-3zm4.5 4h1v5h-1zm0.5-5a2.5 3 0 0 1 0 6v-1a1.5 2 0 0 0 0-4 1.5 2 0 1 0 0 4v1a2.5 3 0 1 1 0-6z" fill="#93b685"/>
  <path d="M263,316m2 0-2 6v1h2v3h1v-3h2v-1l-2-6zm0.5 1 1.5 5h-3zm4.5 4h1v5h-1zm0.5-5a2.5 3 0 0 1 0 6v-1a1.5 2 0 0 0 0-4 1.5 2 0 1 0 0 4v1a2.5 3 0 1 1 0-6z" fill="#93b685"/>
  <path d="M82,190m2 0-2 6v1h2v3h1v-3h2v-1l-2-6zm0.5 1 1.5 5h-3zm4.5 4h1v5h-1zm0.5-5a2.5 3 0 0 1 0 6v-1a1.5 2 0 0 0 0-4 1.5 2 0 1 0 0 4v1a2.5 3 0 1 1 0-6z" fill="#93b685"/>
  <path d="M159,58m2 0-2 6v1h2v3h1v-3h2v-1l-2-6zm0.5 1 1.5 5h-3zm4.5 4h1v5h-1zm0.5-5a2.5 3 0 0 1 0 6v-1a1.5 2 0 0 0 0-4 1.5 2 0 1 0 0 4v1a2.5 3 0 1 1 0-6z" fill="#93b685"/>
  <path d="M86,91m2 0-2 6v1h2v3h1v-3h2v-1l-2-6zm0.5 1 1.5 5h-3zm4.5 4h1v5h-1zm0.5-5a2.5 3 0 0 1 0 6v-1a1.5 2 0 0 0 0-4 1.5 2 0 1 0 0 4v1a2.5 3 0 1 1 0-6z" fill="#93b685"/>
  <path d="M392,375m2 0-2 6v1h2v3h1v-3h2v-1l-2-6zm0.5 1 1.5 5h-3zm4.5 4h1v5h-1zm0.5-5a2.5 3 0 0 1 0 6v-1a1.5 2 0 0 0 0-4 1.5 2 0 1 0 0 4v1a2.5 3 0 1 1 0-6z" fill="#93b685"/>
  <path d="M220,361m2 0-2 6v1h2v3h1v-3h2v-1l-2-6zm0.5 1 1.5 5h-3zm4.5 4h1v5h-1zm0.5-5a2.5 3 0 0 1 0 6v-1a1.5 2 0 0 0 0-4 1.5 2 0 1 0 0 4v1a2.5 3 0 1 1 0-6z" fill="#93b685"/>
  <path d="M496,377m2 0-2 6v1h2v3h1v-3h2v-1l-2-6zm0.5 1 1.5 5h-3zm4.5 4h1v5h-1zm0.5-5a2.5 3 0 0 1 0 6v-1a1.5 2 0 0 0 0-4 1.5 2 0 1 0 0 4v1a2.5 3 0 1 1 0-6z" fill="#93b685"/>
  <path d="M432,394m2 0-2 6v1h2v3h1v-3h2v-1l-2-6zm0.5 1 1.5 5h-3zm4.5 4h1v5h-1zm0.5-5a2.5 3 0 0 1 0 6v-1a1.5 2 0 0 0 0-4 1.5 2 0 1 0 0 4v1a2.5 3 0 1 1 0-6z" fill="#93b685"/>
  <path d="M349,474m2 0-2 6v1h2v3h1v-3h2v-1l-2-6zm0.5 1 1.5 5h-3zm4.5 4h1v5h-1zm0.5-5a2.5 3 0 0 1 0 6v-1a1.5 2 0 0 0 0-4 1.5 2 0 1 0 0 4v1a2.5 3 0 1 1 0-6z" fill="#93b685"/>
  <path d="M362,276m2 0-2 6v1h2v3h1v-3h2v-1l-2-6zm0.5 1 1.5 5h-3zm4.5 4h1v5h-1zm0.5-5a2.5 3 0 0 1 0 6v-1a1.5 2 0 0 0 0-4 1.5 2 0 1 0 0 4v1a2.5 3 0 1 1 0-6z" fill="#93b685"/>
  <path d="M190,370m2 0-2 6v1h2v3h1v-3h2v-1l-2-6zm0.5 1 1.5 5h-3zm4.5 4h1v5h-1zm0.5-5a2.5 3 0 0 1 0 6v-1a1.5 2 0 0 0 0-4 1.5 2 0 1 0 0 4v1a2.5 3 0 1 1 0-6z" fill="#93b685"/>
  <path d="M344,422m2 0-2 6v1h2v3h1v-3h2v-1l-2-6zm0.5 1 1.5 5h-3zm4.5 4h1v5h-1zm0.5-5a2.5 3 0 0 1 0 6v-1a1.5 2 0 0 0 0-4 1.5 2 0 1 0 0 4v1a2.5 3 0 1 1 0-6z" fill="#93b685"/>
  <path d="M504,57m2 0-2 6v1h2v3h1v-3h2v-1l-2-6zm0.5 1 1.5 5h-3zm4.5 4h1v5h-1zm0.5-5a2.5 3 0 0 1 0 6v-1a1.5 2 0 0 0 0-4 1.5 2 0 1 0 0 4v1a2.5 3 0 1 1 0-6z" fill="#93b685"/>
  <path d="M-8,57m2 0-2 6v1h2v3h1v-3h2v-1l-2-6zm0.5 1 1.5 5h-3zm4.5 4h1v5h-1zm0.5-5a2.5 3 0 0 1 0 6v-1a1.5 2 0 0 0 0-4 1.5 2 0 1 0 0 4v1a2.5 3 0 1 1 0-6z" fill="#93b685"/>
  <path d="M42,468m2 0-2 6v1h2v3h1v-3h2v-1l-2-6zm0.5 1 1.5 5h-3zm4.5 4h1v5h-1zm0.5-5a2.5 3 0 0 1 0 6v-1a1.5 2 0 0 0 0-4 1.5 2 0 1 0 0 4v1a2.5 3 0 1 1 0-6z" fill="#93b685"/>
  <path d="M240,118m2 0-2 6v1h2v3h1v-3h2v-1l-2-6zm0.5 1 1.5 5h-3zm4.5 4h1v5h-1zm0.5-5a2.5 3 0 0 1 0 6v-1a1.5 2 0 0 0 0-4 1.5 2 0 1 0 0 4v1a2.5 3 0 1 1 0-6z" fill="#93b685"/>
  <path d="M62,8m2 0-2 6v1h2v3h1v-3h2v-1l-2-6zm0.5 1 1.5 5h-3zm4.5 4h1v5h-1zm0.5-5a2.5 3 0 0 1 0 6v-1a1.5 2 0 0 0 0-4 1.5 2 0 1 0 0 4v1a2.5 3 0 1 1 0-6z" fill="#93b685"/>
  <path d="M43,393m2 0-2 6v1h2v3h1v-3h2v-1l-2-6zm0.5 1 1.5 5h-3zm4.5 4h1v5h-1zm0.5-5a2.5 3 0 0 1 0 6v-1a1.5 2 0 0 0 0-4 1.5 2 0 1 0 0 4v1a2.5 3 0 1 1 0-6z" fill="#93b685"/>
  <path d="M67,323m2 0-2 6v1h2v3h1v-3h2v-1l-2-6zm0.5 1 1.5 5h-3zm4.5 4h1v5h-1zm0.5-5a2.5 3 0 0 1 0 6v-1a1.5 2 0 0 0 0-4 1.5 2 0 1 0 0 4v1a2.5 3 0 1 1 0-6z" fill="#93b685"/>
  <path d="M313,83m2 0-2 6v1h2v3h1v-3h2v-1l-2-6zm0.5 1 1.5 5h-3zm4.5 4h1v5h-1zm0.5-5a2.5 3 0 0 1 0 6v-1a1.5 2 0 0 0 0-4 1.5 2 0 1 0 0 4v1a2.5 3 0 1 1 0-6z" fill="#93b685"/>
  <path d="M113,35m2 0-2 6v1h2v3h1v-3h2v-1l-2-6zm0.5 1 1.5 5h-3zm4.5 4h1v5h-1zm0.5-5a2.5 3 0 0 1 0 6v-1a1.5 2 0 0 0 0-4 1.5 2 0 1 0 0 4v1a2.5 3 0 1 1 0-6z" fill="#93b685"/>
  <path d="M453,394m2 0-2 6v1h2v3h1v-3h2v-1l-2-6zm0.5 1 1.5 5h-3zm4.5 4h1v5h-1zm0.5-5a2.5 3 0 0 1 0 6v-1a1.5 2 0 0 0 0-4 1.5 2 0 1 0 0 4v1a2.5 3 0 1 1 0-6z" fill="#93b685"/>
  <path d="M365,2m2 0-2 6v1h2v3h1v-3h2v-1l-2-6zm0.5 1 1.5 5h-3zm4.5 4h1v5h-1zm0.5-5a2.5 3 0 0 1 0 6v-1a1.5 2 0 0 0 0-4 1.5 2 0 1 0 0 4v1a2.5 3 0 1 1 0-6z" fill="#93b685"/>
  <path d="M93,60m2 0-2 6v1h2v3h1v-3h2v-1l-2-6zm0.5 1 1.5 5h-3zm4.5 4h1v5h-1zm0.5-5a2.5 3 0 0 1 0 6v-1a1.5 2 0 0 0 0-4 1.5 2 0 1 0 0 4v1a2.5 3 0 1 1 0-6z" fill="#93b685"/>
  <path d="M15,61m2 0-2 6v1h2v3h1v-3h2v-1l-2-6zm0.5 1 1.5 5h-3zm4.5 4h1v5h-1zm0.5-5a2.5 3 0 0 1 0 6v-1a1.5 2 0 0 0 0-4 1.5 2 0 1 0 0 4v1a2.5 3 0 1 1 0-6z" fill="#93b685"/>
  <path d="M501,186m2 0-2 6v1h2v3h1v-3h2v-1l-2-6zm0.5 1 1.5 5h-3zm4.5 4h1v5h-1zm0.5-5a2.5 3 0 0 1 0 6v-1a1.5 2 0 0 0 0-4 1.5 2 0 1 0 0 4v1a2.5 3 0 1 1 0-6z" fill="#93b685"/>
  <path d="M105,186m2 0-2 6v1h2v3h1v-3h2v-1l-2-6zm0.5 1 1.5 5h-3zm4.5 4h1v5h-1zm0.5-5a2.5 3 0 0 1 0 6v-1a1.5 2 0 0 0 0-4 1.5 2 0 1 0 0 4v1a2.5 3 0 1 1 0-6z" fill="#93b685"/>
  <path d="M295,16m2 0-2 6v1h2v3h1v-3h2v-1l-2-6zm0.5 1 1.5 5h-3zm4.5 4h1v5h-1zm0.5-5a2.5 3 0 0 1 0 6v-1a1.5 2 0 0 0 0-4 1.5 2 0 1 0 0 4v1a2.5 3 0 1 1 0-6z" fill="#93b685"/>
  <path d="M346,141m2 0-2 6v1h2v3h1v-3h2v-1l-2-6zm0.5 1 1.5 5h-3zm4.5 4h1v5h-1zm0.5-5a2.5 3 0 0 1 0 6v-1a1.5 2 0 0 0 0-4 1.5 2 0 1 0 0 4v1a2.5 3 0 1 1 0-6z" fill="#93b685"/>
  <path d="M238,375m2 0-2 6v1h2v3h1v-3h2v-1l-2-6zm0.5 1 1.5 5h-3zm4.5 4h1v5h-1zm0.5-5a2.5 3 0 0 1 0 6v-1a1.5 2 0 0 0 0-4 1.5 2 0 1 0 0 4v1a2.5 3 0 1 1 0-6z" fill="#93b685"/>
  <path d="M238,63m2 0-2 6v1h2v3h1v-3h2v-1l-2-6zm0.5 1 1.5 5h-3zm4.5 4h1v5h-1zm0.5-5a2.5 3 0 0 1 0 6v-1a1.5 2 0 0 0 0-4 1.5 2 0 1 0 0 4v1a2.5 3 0 1 1 0-6z" fill="#93b685"/>
  <path d="M60,353m2 0-2 6v1h2v3h1v-3h2v-1l-2-6zm0.5 1 1.5 5h-3zm4.5 4h1v5h-1zm0.5-5a2.5 3 0 0 1 0 6v-1a1.5 2 0 0 0 0-4 1.5 2 0 1 0 0 4v1a2.5 3 0 1 1 0-6z" fill="#93b685"/>
  <path d="M288,336m2 0-2 6v1h2v3h1v-3h2v-1l-2-6zm0.5 1 1.5 5h-3zm4.5 4h1v5h-1zm0.5-5a2.5 3 0 0 1 0 6v-1a1.5 2 0 0 0 0-4 1.5 2 0 1 0 0 4v1a2.5 3 0 1 1 0-6z" fill="#93b685"/>
  <path d="M342,453m2 0-2 6v1h2v3h1v-3h2v-1l-2-6zm0.5 1 1.5 5h-3zm4.5 4h1v5h-1zm0.5-5a2.5 3 0 0 1 0 6v-1a1.5 2 0 0 0 0-4 1.5 2 0 1 0 0 4v1a2.5 3 0 1 1 0-6z" fill="#93b685"/>
  <path d="M448,170m2 0-2 6v1h2v3h1v-3h2v-1l-2-6zm0.5 1 1.5 5h-3zm4.5 4h1v5h-1zm0.5-5a2.5 3 0 0 1 0 6v-1a1.5 2 0 0 0 0-4 1.5 2 0 1 0 0 4v1a2.5 3 0 1 1 0-6z" fill="#93b685"/>
  <path d="M501,9m2 0-2 6v1h2v3h1v-3h2v-1l-2-6zm0.5 1 1.5 5h-3zm4.5 4h1v5h-1zm0.5-5a2.5 3 0 0 1 0 6v-1a1.5 2 0 0 0 0-4 1.5 2 0 1 0 0 4v1a2.5 3 0 1 1 0-6z" fill="#93b685"/>
  <path d="M190,509m2 0-2 6v1h2v3h1v-3h2v-1l-2-6zm0.5 1 1.5 5h-3zm4.5 4h1v5h-1zm0.5-5a2.5 3 0 0 1 0 6v-1a1.5 2 0 0 0 0-4 1.5 2 0 1 0 0 4v1a2.5 3 0 1 1 0-6z" fill="#93b685"/>
  <path d="M190,-3m2 0-2 6v1h2v3h1v-3h2v-1l-2-6zm0.5 1 1.5 5h-3zm4.5 4h1v5h-1zm0.5-5a2.5 3 0 0 1 0 6v-1a1.5 2 0 0 0 0-4 1.5 2 0 1 0 0 4v1a2.5 3 0 1 1 0-6z" fill="#93b685"/>
  <path d="M110,401m2 0-2 6v1h2v3h1v-3h2v-1l-2-6zm0.5 1 1.5 5h-3zm4.5 4h1v5h-1zm0.5-5a2.5 3 0 0 1 0 6v-1a1.5 2 0 0 0 0-4 1.5 2 0 1 0 0 4v1a2.5 3 0 1 1 0-6z" fill="#93b685"/>
  <path d="M220,340m2 0-2 6v1h2v3h1v-3h2v-1l-2-6zm0.5 1 1.5 5h-3zm4.5 4h1v5h-1zm0.5-5a2.5 3 0 0 1 0 6v-1a1.5 2 0 0 0 0-4 1.5 2 0 1 0 0 4v1a2.5 3 0 1 1 0-6z" fill="#93b685"/>
  <path d="M64,114m2 0-2 6v1h2v3h1v-3h2v-1l-2-6zm0.5 1 1.5 5h-3zm4.5 4h1v5h-1zm0.5-5a2.5 3 0 0 1 0 6v-1a1.5 2 0 0 0 0-4 1.5 2 0 1 0 0 4v1a2.5 3 0 1 1 0-6z" fill="#93b685"/>
  <path d="M441,62m2 0-2 6v1h2v3h1v-3h2v-1l-2-6zm0.5 1 1.5 5h-3zm4.5 4h1v5h-1zm0.5-5a2.5 3 0 0 1 0 6v-1a1.5 2 0 0 0 0-4 1.5 2 0 1 0 0 4v1a2.5 3 0 1 1 0-6z" fill="#93b685"/>
  <path d="M346,160m2 0-2 6v1h2v3h1v-3h2v-1l-2-6zm0.5 1 1.5 5h-3zm4.5 4h1v5h-1zm0.5-5a2.5 3 0 0 1 0 6v-1a1.5 2 0 0 0 0-4 1.5 2 0 1 0 0 4v1a2.5 3 0 1 1 0-6z" fill="#93b685"/>
  <path d="M506,470m2 0-2 6v1h2v3h1v-3h2v-1l-2-6zm0.5 1 1.5 5h-3zm4.5 4h1v5h-1zm0.5-5a2.5 3 0 0 1 0 6v-1a1.5 2 0 0 0 0-4 1.5 2 0 1 0 0 4v1a2.5 3 0 1 1 0-6z" fill="#93b685"/>
  <path d="M-6,470m2 0-2 6v1h2v3h1v-3h2v-1l-2-6zm0.5 1 1.5 5h-3zm4.5 4h1v5h-1zm0.5-5a2.5 3 0 0 1 0 6v-1a1.5 2 0 0 0 0-4 1.5 2 0 1 0 0 4v1a2.5 3 0 1 1 0-6z" fill="#93b685"/>
  <path d="M504,420m2 0-2 6v1h2v3h1v-3h2v-1l-2-6zm0.5 1 1.5 5h-3zm4.5 4h1v5h-1zm0.5-5a2.5 3 0 0 1 0 6v-1a1.5 2 0 0 0 0-4 1.5 2 0 1 0 0 4v1a2.5 3 0 1 1 0-6z" fill="#93b685"/>
  <path d="M-8,420m2 0-2 6v1h2v3h1v-3h2v-1l-2-6zm0.5 1 1.5 5h-3zm4.5 4h1v5h-1zm0.5-5a2.5 3 0 0 1 0 6v-1a1.5 2 0 0 0 0-4 1.5 2 0 1 0 0 4v1a2.5 3 0 1 1 0-6z" fill="#93b685"/>
  <path d="M17,114m2 0-2 6v1h2v3h1v-3h2v-1l-2-6zm0.5 1 1.5 5h-3zm4.5 4h1v5h-1zm0.5-5a2.5 3 0 0 1 0 6v-1a1.5 2 0 0 0 0-4 1.5 2 0 1 0 0 4v1a2.5 3 0 1 1 0-6z" fill="#93b685"/>
  <path d="M373,461m2 0-2 6v1h2v3h1v-3h2v-1l-2-6zm0.5 1 1.5 5h-3zm4.5 4h1v5h-1zm0.5-5a2.5 3 0 0 1 0 6v-1a1.5 2 0 0 0 0-4 1.5 2 0 1 0 0 4v1a2.5 3 0 1 1 0-6z" fill="#93b685"/>
  <path d="M39,40m2 0-2 6v1h2v3h1v-3h2v-1l-2-6zm0.5 1 1.5 5h-3zm4.5 4h1v5h-1zm0.5-5a2.5 3 0 0 1 0 6v-1a1.5 2 0 0 0 0-4 1.5 2 0 1 0 0 4v1a2.5 3 0 1 1 0-6z" fill="#93b685"/>
  <path d="M230,427m2 0-2 6v1h2v3h1v-3h2v-1l-2-6zm0.5 1 1.5 5h-3zm4.5 4h1v5h-1zm0.5-5a2.5 3 0 0 1 0 6v-1a1.5 2 0 0 0 0-4 1.5 2 0 1 0 0 4v1a2.5 3 0 1 1 0-6z" fill="#93b685"/>
  <path d="M86,423m2 0-2 6v1h2v3h1v-3h2v-1l-2-6zm0.5 1 1.5 5h-3zm4.5 4h1v5h-1zm0.5-5a2.5 3 0 0 1 0 6v-1a1.5 2 0 0 0 0-4 1.5 2 0 1 0 0 4v1a2.5 3 0 1 1 0-6z" fill="#93b685"/>
  <path d="M37,291m2 0-2 6v1h2v3h1v-3h2v-1l-2-6zm0.5 1 1.5 5h-3zm4.5 4h1v5h-1zm0.5-5a2.5 3 0 0 1 0 6v-1a1.5 2 0 0 0 0-4 1.5 2 0 1 0 0 4v1a2.5 3 0 1 1 0-6z" fill="#93b685"/>
  <path d="M346,327m2 0-2 6v1h2v3h1v-3h2v-1l-2-6zm0.5 1 1.5 5h-3zm4.5 4h1v5h-1zm0.5-5a2.5 3 0 0 1 0 6v-1a1.5 2 0 0 0 0-4 1.5 2 0 1 0 0 4v1a2.5 3 0 1 1 0-6z" fill="#93b685"/>
  <path d="M496,273m2 0-2 6v1h2v3h1v-3h2v-1l-2-6zm0.5 1 1.5 5h-3zm4.5 4h1v5h-1zm0.5-5a2.5 3 0 0 1 0 6v-1a1.5 2 0 0 0 0-4 1.5 2 0 1 0 0 4v1a2.5 3 0 1 1 0-6z" fill="#93b685"/>
  <path d="M242,9m2 0-2 6v1h2v3h1v-3h2v-1l-2-6zm0.5 1 1.5 5h-3zm4.5 4h1v5h-1zm0.5-5a2.5 3 0 0 1 0 6v-1a1.5 2 0 0 0 0-4 1.5 2 0 1 0 0 4v1a2.5 3 0 1 1 0-6z" fill="#93b685"/>
  <path d="M371,293m2 0-2 6v1h2v3h1v-3h2v-1l-2-6zm0.5 1 1.5 5h-3zm4.5 4h1v5h-1zm0.5-5a2.5 3 0 0 1 0 6v-1a1.5 2 0 0 0 0-4 1.5 2 0 1 0 0 4v1a2.5 3 0 1 1 0-6z" fill="#93b685"/>
  <path d="M353,372m2 0-2 6v1h2v3h1v-3h2v-1l-2-6zm0.5 1 1.5 5h-3zm4.5 4h1v5h-1zm0.5-5a2.5 3 0 0 1 0 6v-1a1.5 2 0 0 0 0-4 1.5 2 0 1 0 0 4v1a2.5 3 0 1 1 0-6z" fill="#93b685"/>
  <path d="M4,322m2 0-2 6v1h2v3h1v-3h2v-1l-2-6zm0.5 1 1.5 5h-3zm4.5 4h1v5h-1zm0.5-5a2.5 3 0 0 1 0 6v-1a1.5 2 0 0 0 0-4 1.5 2 0 1 0 0 4v1a2.5 3 0 1 1 0-6z" fill="#93b685"/>
  <path d="M243,159m2 0-2 6v1h2v3h1v-3h2v-1l-2-6zm0.5 1 1.5 5h-3zm4.5 4h1v5h-1zm0.5-5a2.5 3 0 0 1 0 6v-1a1.5 2 0 0 0 0-4 1.5 2 0 1 0 0 4v1a2.5 3 0 1 1 0-6z" fill="#93b685"/>
  <path d="M373,367m2 0-2 6v1h2v3h1v-3h2v-1l-2-6zm0.5 1 1.5 5h-3zm4.5 4h1v5h-1zm0.5-5a2.5 3 0 0 1 0 6v-1a1.5 2 0 0 0 0-4 1.5 2 0 1 0 0 4v1a2.5 3 0 1 1 0-6z" fill="#93b685"/>
  <path d="M59,298m2 0-2 6v1h2v3h1v-3h2v-1l-2-6zm0.5 1 1.5 5h-3zm4.5 4h1v5h-1zm0.5-5a2.5 3 0 0 1 0 6v-1a1.5 2 0 0 0 0-4 1.5 2 0 1 0 0 4v1a2.5 3 0 1 1 0-6z" fill="#93b685"/>
  <path d="M32,142m2 0-2 6v1h2v3h1v-3h2v-1l-2-6zm0.5 1 1.5 5h-3zm4.5 4h1v5h-1zm0.5-5a2.5 3 0 0 1 0 6v-1a1.5 2 0 0 0 0-4 1.5 2 0 1 0 0 4v1a2.5 3 0 1 1 0-6z" fill="#93b685"/>
  <path d="M241,86m2 0-2 6v1h2v3h1v-3h2v-1l-2-6zm0.5 1 1.5 5h-3zm4.5 4h1v5h-1zm0.5-5a2.5 3 0 0 1 0 6v-1a1.5 2 0 0 0 0-4 1.5 2 0 1 0 0 4v1a2.5 3 0 1 1 0-6z" fill="#93b685"/>
  <path d="M218,241m2 0-2 6v1h2v3h1v-3h2v-1l-2-6zm0.5 1 1.5 5h-3zm4.5 4h1v5h-1zm0.5-5a2.5 3 0 0 1 0 6v-1a1.5 2 0 0 0 0-4 1.5 2 0 1 0 0 4v1a2.5 3 0 1 1 0-6z" fill="#93b685"/>
  <path d="M483,213m2 0-2 6v1h2v3h1v-3h2v-1l-2-6zm0.5 1 1.5 5h-3zm4.5 4h1v5h-1zm0.5-5a2.5 3 0 0 1 0 6v-1a1.5 2 0 0 0 0-4 1.5 2 0 1 0 0 4v1a2.5 3 0 1 1 0-6z" fill="#93b685"/>
  <path d="M433,34m2 0-2 6v1h2v3h1v-3h2v-1l-2-6zm0.5 1 1.5 5h-3zm4.5 4h1v5h-1zm0.5-5a2.5 3 0 0 1 0 6v-1a1.5 2 0 0 0 0-4 1.5 2 0 1 0 0 4v1a2.5 3 0 1 1 0-6z" fill="#93b685"/>
  <path d="M156,429m2 0-2 6v1h2v3h1v-3h2v-1l-2-6zm0.5 1 1.5 5h-3zm4.5 4h1v5h-1zm0.5-5a2.5 3 0 0 1 0 6v-1a1.5 2 0 0 0 0-4 1.5 2 0 1 0 0 4v1a2.5 3 0 1 1 0-6z" fill="#93b685"/>
  <path d="M38,83m2 0-2 6v1h2v3h1v-3h2v-1l-2-6zm0.5 1 1.5 5h-3zm4.5 4h1v5h-1zm0.5-5a2.5 3 0 0 1 0 6v-1a1.5 2 0 0 0 0-4 1.5 2 0 1 0 0 4v1a2.5 3 0 1 1 0-6z" fill="#93b685"/>
  <path d="M418,479m2 0-2 6v1h2v3h1v-3h2v-1l-2-6zm0.5 1 1.5 5h-3zm4.5 4h1v5h-1zm0.5-5a2.5 3 0 0 1 0 6v-1a1.5 2 0 0 0 0-4 1.5 2 0 1 0 0 4v1a2.5 3 0 1 1 0-6z" fill="#93b685"/>
  <path d="M396,509m2 0-2 6v1h2v3h1v-3h2v-1l-2-6zm0.5 1 1.5 5h-3zm4.5 4h1v5h-1zm0.5-5a2.5 3 0 0 1 0 6v-1a1.5 2 0 0 0 0-4 1.5 2 0 1 0 0 4v1a2.5 3 0 1 1 0-6z" fill="#93b685"/>
  <path d="M396,-3m2 0-2 6v1h2v3h1v-3h2v-1l-2-6zm0.5 1 1.5 5h-3zm4.5 4h1v5h-1zm0.5-5a2.5 3 0 0 1 0 6v-1a1.5 2 0 0 0 0-4 1.5 2 0 1 0 0 4v1a2.5 3 0 1 1 0-6z" fill="#93b685"/>
  <path d="M322,368m2 0-2 6v1h2v3h1v-3h2v-1l-2-6zm0.5 1 1.5 5h-3zm4.5 4h1v5h-1zm0.5-5a2.5 3 0 0 1 0 6v-1a1.5 2 0 0 0 0-4 1.5 2 0 1 0 0 4v1a2.5 3 0 1 1 0-6z" fill="#93b685"/>
  <path d="M467,161m2 0-2 6v1h2v3h1v-3h2v-1l-2-6zm0.5 1 1.5 5h-3zm4.5 4h1v5h-1zm0.5-5a2.5 3 0 0 1 0 6v-1a1.5 2 0 0 0 0-4 1.5 2 0 1 0 0 4v1a2.5 3 0 1 1 0-6z" fill="#93b685"/>
  <path d="M116,448m2 0-2 6v1h2v3h1v-3h2v-1l-2-6zm0.5 1 1.5 5h-3zm4.5 4h1v5h-1zm0.5-5a2.5 3 0 0 1 0 6v-1a1.5 2 0 0 0 0-4 1.5 2 0 1 0 0 4v1a2.5 3 0 1 1 0-6z" fill="#93b685"/>
  <path d="M370,399m2 0-2 6v1h2v3h1v-3h2v-1l-2-6zm0.5 1 1.5 5h-3zm4.5 4h1v5h-1zm0.5-5a2.5 3 0 0 1 0 6v-1a1.5 2 0 0 0 0-4 1.5 2 0 1 0 0 4v1a2.5 3 0 1 1 0-6z" fill="#93b685"/>
  <path d="M194,135m2 0-2 6v1h2v3h1v-3h2v-1l-2-6zm0.5 1 1.5 5h-3zm4.5 4h1v5h-1zm0.5-5a2.5 3 0 0 1 0 6v-1a1.5 2 0 0 0 0-4 1.5 2 0 1 0 0 4v1a2.5 3 0 1 1 0-6z" fill="#93b685"/>
  <path d="M492,401m2 0-2 6v1h2v3h1v-3h2v-1l-2-6zm0.5 1 1.5 5h-3zm4.5 4h1v5h-1zm0.5-5a2.5 3 0 0 1 0 6v-1a1.5 2 0 0 0 0-4 1.5 2 0 1 0 0 4v1a2.5 3 0 1 1 0-6z" fill="#93b685"/>
  <path d="M13,479m2 0-2 6v1h2v3h1v-3h2v-1l-2-6zm0.5 1 1.5 5h-3zm4.5 4h1v5h-1zm0.5-5a2.5 3 0 0 1 0 6v-1a1.5 2 0 0 0 0-4 1.5 2 0 1 0 0 4v1a2.5 3 0 1 1 0-6z" fill="#93b685"/>
  <path d="M476,114m2 0-2 6v1h2v3h1v-3h2v-1l-2-6zm0.5 1 1.5 5h-3zm4.5 4h1v5h-1zm0.5-5a2.5 3 0 0 1 0 6v-1a1.5 2 0 0 0 0-4 1.5 2 0 1 0 0 4v1a2.5 3 0 1 1 0-6z" fill="#93b685"/>
  <path d="M159,321m2 0-2 6v1h2v3h1v-3h2v-1l-2-6zm0.5 1 1.5 5h-3zm4.5 4h1v5h-1zm0.5-5a2.5 3 0 0 1 0 6v-1a1.5 2 0 0 0 0-4 1.5 2 0 1 0 0 4v1a2.5 3 0 1 1 0-6z" fill="#93b685"/>
  <path d="M135,475m2 0-2 6v1h2v3h1v-3h2v-1l-2-6zm0.5 1 1.5 5h-3zm4.5 4h1v5h-1zm0.5-5a2.5 3 0 0 1 0 6v-1a1.5 2 0 0 0 0-4 1.5 2 0 1 0 0 4v1a2.5 3 0 1 1 0-6z" fill="#93b685"/>
  <path d="M57,145m2 0-2 6v1h2v3h1v-3h2v-1l-2-6zm0.5 1 1.5 5h-3zm4.5 4h1v5h-1zm0.5-5a2.5 3 0 0 1 0 6v-1a1.5 2 0 0 0 0-4 1.5 2 0 1 0 0 4v1a2.5 3 0 1 1 0-6z" fill="#93b685"/>
  <path d="M120,124m2 0-2 6v1h2v3h1v-3h2v-1l-2-6zm0.5 1 1.5 5h-3zm4.5 4h1v5h-1zm0.5-5a2.5 3 0 0 1 0 6v-1a1.5 2 0 0 0 0-4 1.5 2 0 1 0 0 4v1a2.5 3 0 1 1 0-6z" fill="#93b685"/>
  <path d="M347,348m2 0-2 6v1h2v3h1v-3h2v-1l-2-6zm0.5 1 1.5 5h-3zm4.5 4h1v5h-1zm0.5-5a2.5 3 0 0 1 0 6v-1a1.5 2 0 0 0 0-4 1.5 2 0 1 0 0 4v1a2.5 3 0 1 1 0-6z" fill="#93b685"/>
  <path d="M196,14m2 0-2 6v1h2v3h1v-3h2v-1l-2-6zm0.5 1 1.5 5h-3zm4.5 4h1v5h-1zm0.5-5a2.5 3 0 0 1 0 6v-1a1.5 2 0 0 0 0-4 1.5 2 0 1 0 0 4v1a2.5 3 0 1 1 0-6z" fill="#93b685"/>
  <path d="M274,198m2 0-2 6v1h2v3h1v-3h2v-1l-2-6zm0.5 1 1.5 5h-3zm4.5 4h1v5h-1zm0.5-5a2.5 3 0 0 1 0 6v-1a1.5 2 0 0 0 0-4 1.5 2 0 1 0 0 4v1a2.5 3 0 1 1 0-6z" fill="#93b685"/>
  <path d="M66,371m2 0-2 6v1h2v3h1v-3h2v-1l-2-6zm0.5 1 1.5 5h-3zm4.5 4h1v5h-1zm0.5-5a2.5 3 0 0 1 0 6v-1a1.5 2 0 0 0 0-4 1.5 2 0 1 0 0 4v1a2.5 3 0 1 1 0-6z" fill="#93b685"/>
  <path d="M162,289m2 0-2 6v1h2v3h1v-3h2v-1l-2-6zm0.5 1 1.5 5h-3zm4.5 4h1v5h-1zm0.5-5a2.5 3 0 0 1 0 6v-1a1.5 2 0 0 0 0-4 1.5 2 0 1 0 0 4v1a2.5 3 0 1 1 0-6z" fill="#93b685"/>
  <path d="M399,349m2 0-2 6v1h2v3h1v-3h2v-1l-2-6zm0.5 1 1.5 5h-3zm4.5 4h1v5h-1zm0.5-5a2.5 3 0 0 1 0 6v-1a1.5 2 0 0 0 0-4 1.5 2 0 1 0 0 4v1a2.5 3 0 1 1 0-6z" fill="#93b685"/>
  <path d="M317,247m2 0-2 6v1h2v3h1v-3h2v-1l-2-6zm0.5 1 1.5 5h-3zm4.5 4h1v5h-1zm0.5-5a2.5 3 0 0 1 0 6v-1a1.5 2 0 0 0 0-4 1.5 2 0 1 0 0 4v1a2.5 3 0 1 1 0-6z" fill="#93b685"/>
  <path d="M70,39m2 0-2 6v1h2v3h1v-3h2v-1l-2-6zm0.5 1 1.5 5h-3zm4.5 4h1v5h-1zm0.5-5a2.5 3 0 0 1 0 6v-1a1.5 2 0 0 0 0-4 1.5 2 0 1 0 0 4v1a2.5 3 0 1 1 0-6z" fill="#93b685"/>
  <path d="M319,160m2 0-2 6v1h2v3h1v-3h2v-1l-2-6zm0.5 1 1.5 5h-3zm4.5 4h1v5h-1zm0.5-5a2.5 3 0 0 1 0 6v-1a1.5 2 0 0 0 0-4 1.5 2 0 1 0 0 4v1a2.5 3 0 1 1 0-6z" fill="#93b685"/>
  <path d="M274,8m2 0-2 6v1h2v3h1v-3h2v-1l-2-6zm0.5 1 1.5 5h-3zm4.5 4h1v5h-1zm0.5-5a2.5 3 0 0 1 0 6v-1a1.5 2 0 0 0 0-4 1.5 2 0 1 0 0 4v1a2.5 3 0 1 1 0-6z" fill="#93b685"/>
  <path d="M170,32m2 0-2 6v1h2v3h1v-3h2v-1l-2-6zm0.5 1 1.5 5h-3zm4.5 4h1v5h-1zm0.5-5a2.5 3 0 0 1 0 6v-1a1.5 2 0 0 0 0-4 1.5 2 0 1 0 0 4v1a2.5 3 0 1 1 0-6z" fill="#93b685"/>
  <path d="M8,20m2 0-2 6v1h2v3h1v-3h2v-1l-2-6zm0.5 1 1.5 5h-3zm4.5 4h1v5h-1zm0.5-5a2.5 3 0 0 1 0 6v-1a1.5 2 0 0 0 0-4 1.5 2 0 1 0 0 4v1a2.5 3 0 1 1 0-6z" fill="#93b685"/>
  <path d="M118,92m2 0-2 6v1h2v3h1v-3h2v-1l-2-6zm0.5 1 1.5 5h-3zm4.5 4h1v5h-1zm0.5-5a2.5 3 0 0 1 0 6v-1a1.5 2 0 0 0 0-4 1.5 2 0 1 0 0 4v1a2.5 3 0 1 1 0-6z" fill="#93b685"/>
  <path d="M136,454m2 0-2 6v1h2v3h1v-3h2v-1l-2-6zm0.5 1 1.5 5h-3zm4.5 4h1v5h-1zm0.5-5a2.5 3 0 0 1 0 6v-1a1.5 2 0 0 0 0-4 1.5 2 0 1 0 0 4v1a2.5 3 0 1 1 0-6z" fill="#93b685"/>
  <path d="M210,421m2 0-2 6v1h2v3h1v-3h2v-1l-2-6zm0.5 1 1.5 5h-3zm4.5 4h1v5h-1zm0.5-5a2.5 3 0 0 1 0 6v-1a1.5 2 0 0 0 0-4 1.5 2 0 1 0 0 4v1a2.5 3 0 1 1 0-6z" fill="#93b685"/>
  <path d="M465,264m2 0-2 6v1h2v3h1v-3h2v-1l-2-6zm0.5 1 1.5 5h-3zm4.5 4h1v5h-1zm0.5-5a2.5 3 0 0 1 0 6v-1a1.5 2 0 0 0 0-4 1.5 2 0 1 0 0 4v1a2.5 3 0 1 1 0-6z" fill="#93b685"/>
  <path d="M181,297m2 0-2 6v1h2v3h1v-3h2v-1l-2-6zm0.5 1 1.5 5h-3zm4.5 4h1v5h-1zm0.5-5a2.5 3 0 0 1 0 6v-1a1.5 2 0 0 0 0-4 1.5 2 0 1 0 0 4v1a2.5 3 0 1 1 0-6z" fill="#93b685"/>
  <path d="M166,466m2 0-2 6v1h2v3h1v-3h2v-1l-2-6zm0.5 1 1.5 5h-3zm4.5 4h1v5h-1zm0.5-5a2.5 3 0 0 1 0 6v-1a1.5 2 0 0 0 0-4 1.5 2 0 1 0 0 4v1a2.5 3 0 1 1 0-6z" fill="#93b685"/>
  <path d="M138,267m2 0-2 6v1h2v3h1v-3h2v-1l-2-6zm0.5 1 1.5 5h-3zm4.5 4h1v5h-1zm0.5-5a2.5 3 0 0 1 0 6v-1a1.5 2 0 0 0 0-4 1.5 2 0 1 0 0 4v1a2.5 3 0 1 1 0-6z" fill="#93b685"/>
  <path d="M40,341m2 0-2 6v1h2v3h1v-3h2v-1l-2-6zm0.5 1 1.5 5h-3zm4.5 4h1v5h-1zm0.5-5a2.5 3 0 0 1 0 6v-1a1.5 2 0 0 0 0-4 1.5 2 0 1 0 0 4v1a2.5 3 0 1 1 0-6z" fill="#93b685"/>
  <path d="M319,135m2 0-2 6v1h2v3h1v-3h2v-1l-2-6zm0.5 1 1.5 5h-3zm4.5 4h1v5h-1zm0.5-5a2.5 3 0 0 1 0 6v-1a1.5 2 0 0 0 0-4 1.5 2 0 1 0 0 4v1a2.5 3 0 1 1 0-6z" fill="#93b685"/>
  <path d="M424,263m2 0-2 6v1h2v3h1v-3h2v-1l-2-6zm0.5 1 1.5 5h-3zm4.5 4h1v5h-1zm0.5-5a2.5 3 0 0 1 0 6v-1a1.5 2 0 0 0 0-4 1.5 2 0 1 0 0 4v1a2.5 3 0 1 1 0-6z" fill="#93b685"/>
  <path d="M96,114m2 0-2 6v1h2v3h1v-3h2v-1l-2-6zm0.5 1 1.5 5h-3zm4.5 4h1v5h-1zm0.5-5a2.5 3 0 0 1 0 6v-1a1.5 2 0 0 0 0-4 1.5 2 0 1 0 0 4v1a2.5 3 0 1 1 0-6z" fill="#93b685"/>
  <path d="M438,299m2 0-2 6v1h2v3h1v-3h2v-1l-2-6zm0.5 1 1.5 5h-3zm4.5 4h1v5h-1zm0.5-5a2.5 3 0 0 1 0 6v-1a1.5 2 0 0 0 0-4 1.5 2 0 1 0 0 4v1a2.5 3 0 1 1 0-6z" fill="#93b685"/>
  <path d="M191,319m2 0-2 6v1h2v3h1v-3h2v-1l-2-6zm0.5 1 1.5 5h-3zm4.5 4h1v5h-1zm0.5-5a2.5 3 0 0 1 0 6v-1a1.5 2 0 0 0 0-4 1.5 2 0 1 0 0 4v1a2.5 3 0 1 1 0-6z" fill="#93b685"/>
  <path d="M35,122m2 0-2 6v1h2v3h1v-3h2v-1l-2-6zm0.5 1 1.5 5h-3zm4.5 4h1v5h-1zm0.5-5a2.5 3 0 0 1 0 6v-1a1.5 2 0 0 0 0-4 1.5 2 0 1 0 0 4v1a2.5 3 0 1 1 0-6z" fill="#93b685"/>
  <path d="M274,246m2 0-2 6v1h2v3h1v-3h2v-1l-2-6zm0.5 1 1.5 5h-3zm4.5 4h1v5h-1zm0.5-5a2.5 3 0 0 1 0 6v-1a1.5 2 0 0 0 0-4 1.5 2 0 1 0 0 4v1a2.5 3 0 1 1 0-6z" fill="#93b685"/>
  <path d="M67,70m2 0-2 6v1h2v3h1v-3h2v-1l-2-6zm0.5 1 1.5 5h-3zm4.5 4h1v5h-1zm0.5-5a2.5 3 0 0 1 0 6v-1a1.5 2 0 0 0 0-4 1.5 2 0 1 0 0 4v1a2.5 3 0 1 1 0-6z" fill="#93b685"/>
  <path d="M456,34m2 0-2 6v1h2v3h1v-3h2v-1l-2-6zm0.5 1 1.5 5h-3zm4.5 4h1v5h-1zm0.5-5a2.5 3 0 0 1 0 6v-1a1.5 2 0 0 0 0-4 1.5 2 0 1 0 0 4v1a2.5 3 0 1 1 0-6z" fill="#93b685"/>
  <path d="M260,60m2 0-2 6v1h2v3h1v-3h2v-1l-2-6zm0.5 1 1.5 5h-3zm4.5 4h1v5h-1zm0.5-5a2.5 3 0 0 1 0 6v-1a1.5 2 0 0 0 0-4 1.5 2 0 1 0 0 4v1a2.5 3 0 1 1 0-6z" fill="#93b685"/>
  <path d="M144,170m2 0-2 6v1h2v3h1v-3h2v-1l-2-6zm0.5 1 1.5 5h-3zm4.5 4h1v5h-1zm0.5-5a2.5 3 0 0 1 0 6v-1a1.5 2 0 0 0 0-4 1.5 2 0 1 0 0 4v1a2.5 3 0 1 1 0-6z" fill="#93b685"/>
  <path d="M289,147m2 0-2 6v1h2v3h1v-3h2v-1l-2-6zm0.5 1 1.5 5h-3zm4.5 4h1v5h-1zm0.5-5a2.5 3 0 0 1 0 6v-1a1.5 2 0 0 0 0-4 1.5 2 0 1 0 0 4v1a2.5 3 0 1 1 0-6z" fill="#93b685"/>
  <path d="M327,17m2 0-2 6v1h2v3h1v-3h2v-1l-2-6zm0.5 1 1.5 5h-3zm4.5 4h1v5h-1zm0.5-5a2.5 3 0 0 1 0 6v-1a1.5 2 0 0 0 0-4 1.5 2 0 1 0 0 4v1a2.5 3 0 1 1 0-6z" fill="#93b685"/>
  <path d="M191,190m2 0-2 6v1h2v3h1v-3h2v-1l-2-6zm0.5 1 1.5 5h-3zm4.5 4h1v5h-1zm0.5-5a2.5 3 0 0 1 0 6v-1a1.5 2 0 0 0 0-4 1.5 2 0 1 0 0 4v1a2.5 3 0 1 1 0-6z" fill="#93b685"/>
  <path d="M34,372m2 0-2 6v1h2v3h1v-3h2v-1l-2-6zm0.5 1 1.5 5h-3zm4.5 4h1v5h-1zm0.5-5a2.5 3 0 0 1 0 6v-1a1.5 2 0 0 0 0-4 1.5 2 0 1 0 0 4v1a2.5 3 0 1 1 0-6z" fill="#93b685"/>
  <path d="M437,323m2 0-2 6v1h2v3h1v-3h2v-1l-2-6zm0.5 1 1.5 5h-3zm4.5 4h1v5h-1zm0.5-5a2.5 3 0 0 1 0 6v-1a1.5 2 0 0 0 0-4 1.5 2 0 1 0 0 4v1a2.5 3 0 1 1 0-6z" fill="#93b685"/>
  <path d="M55,171m2 0-2 6v1h2v3h1v-3h2v-1l-2-6zm0.5 1 1.5 5h-3zm4.5 4h1v5h-1zm0.5-5a2.5 3 0 0 1 0 6v-1a1.5 2 0 0 0 0-4 1.5 2 0 1 0 0 4v1a2.5 3 0 1 1 0-6z" fill="#93b685"/>
  <path d="M317,109m2 0-2 6v1h2v3h1v-3h2v-1l-2-6zm0.5 1 1.5 5h-3zm4.5 4h1v5h-1zm0.5-5a2.5 3 0 0 1 0 6v-1a1.5 2 0 0 0 0-4 1.5 2 0 1 0 0 4v1a2.5 3 0 1 1 0-6z" fill="#93b685"/>
  <path d="M474,502m2 0-2 6v1h2v3h1v-3h2v-1l-2-6zm0.5 1 1.5 5h-3zm4.5 4h1v5h-1zm0.5-5a2.5 3 0 0 1 0 6v-1a1.5 2 0 0 0 0-4 1.5 2 0 1 0 0 4v1a2.5 3 0 1 1 0-6z" fill="#93b685"/>
  <path d="M196,114m2 0-2 6v1h2v3h1v-3h2v-1l-2-6zm0.5 1 1.5 5h-3zm4.5 4h1v5h-1zm0.5-5a2.5 3 0 0 1 0 6v-1a1.5 2 0 0 0 0-4 1.5 2 0 1 0 0 4v1a2.5 3 0 1 1 0-6z" fill="#93b685"/>
  <path d="M166,258m2 0-2 6v1h2v3h1v-3h2v-1l-2-6zm0.5 1 1.5 5h-3zm4.5 4h1v5h-1zm0.5-5a2.5 3 0 0 1 0 6v-1a1.5 2 0 0 0 0-4 1.5 2 0 1 0 0 4v1a2.5 3 0 1 1 0-6z" fill="#93b685"/>
  <path d="M402,396m2 0-2 6v1h2v3h1v-3h2v-1l-2-6zm0.5 1 1.5 5h-3zm4.5 4h1v5h-1zm0.5-5a2.5 3 0 0 1 0 6v-1a1.5 2 0 0 0 0-4 1.5 2 0 1 0 0 4v1a2.5 3 0 1 1 0-6z" fill="#93b685"/>
  <path d="M445,138m2 0-2 6v1h2v3h1v-3h2v-1l-2-6zm0.5 1 1.5 5h-3zm4.5 4h1v5h-1zm0.5-5a2.5 3 0 0 1 0 6v-1a1.5 2 0 0 0 0-4 1.5 2 0 1 0 0 4v1a2.5 3 0 1 1 0-6z" fill="#93b685"/>
  <path d="M341,402m2 0-2 6v1h2v3h1v-3h2v-1l-2-6zm0.5 1 1.5 5h-3zm4.5 4h1v5h-1zm0.5-5a2.5 3 0 0 1 0 6v-1a1.5 2 0 0 0 0-4 1.5 2 0 1 0 0 4v1a2.5 3 0 1 1 0-6z" fill="#93b685"/>
  <path d="M390,301m2 0-2 6v1h2v3h1v-3h2v-1l-2-6zm0.5 1 1.5 5h-3zm4.5 4h1v5h-1zm0.5-5a2.5 3 0 0 1 0 6v-1a1.5 2 0 0 0 0-4 1.5 2 0 1 0 0 4v1a2.5 3 0 1 1 0-6z" fill="#93b685"/>
  <path d="M106,321m2 0-2 6v1h2v3h1v-3h2v-1l-2-6zm0.5 1 1.5 5h-3zm4.5 4h1v5h-1zm0.5-5a2.5 3 0 0 1 0 6v-1a1.5 2 0 0 0 0-4 1.5 2 0 1 0 0 4v1a2.5 3 0 1 1 0-6z" fill="#93b685"/>
  <path d="M209,325m2 0-2 6v1h2v3h1v-3h2v-1l-2-6zm0.5 1 1.5 5h-3zm4.5 4h1v5h-1zm0.5-5a2.5 3 0 0 1 0 6v-1a1.5 2 0 0 0 0-4 1.5 2 0 1 0 0 4v1a2.5 3 0 1 1 0-6z" fill="#93b685"/>
  <path d="M369,325m2 0-2 6v1h2v3h1v-3h2v-1l-2-6zm0.5 1 1.5 5h-3zm4.5 4h1v5h-1zm0.5-5a2.5 3 0 0 1 0 6v-1a1.5 2 0 0 0 0-4 1.5 2 0 1 0 0 4v1a2.5 3 0 1 1 0-6z" fill="#93b685"/>
  <path d="M60,477m2 0-2 6v1h2v3h1v-3h2v-1l-2-6zm0.5 1 1.5 5h-3zm4.5 4h1v5h-1zm0.5-5a2.5 3 0 0 1 0 6v-1a1.5 2 0 0 0 0-4 1.5 2 0 1 0 0 4v1a2.5 3 0 1 1 0-6z" fill="#93b685"/>
  <path d="M343,92m2 0-2 6v1h2v3h1v-3h2v-1l-2-6zm0.5 1 1.5 5h-3zm4.5 4h1v5h-1zm0.5-5a2.5 3 0 0 1 0 6v-1a1.5 2 0 0 0 0-4 1.5 2 0 1 0 0 4v1a2.5 3 0 1 1 0-6z" fill="#93b685"/>
  <path d="M424,162m2 0-2 6v1h2v3h1v-3h2v-1l-2-6zm0.5 1 1.5 5h-3zm4.5 4h1v5h-1zm0.5-5a2.5 3 0 0 1 0 6v-1a1.5 2 0 0 0 0-4 1.5 2 0 1 0 0 4v1a2.5 3 0 1 1 0-6z" fill="#93b685"/>
  <path d="M189,164m2 0-2 6v1h2v3h1v-3h2v-1l-2-6zm0.5 1 1.5 5h-3zm4.5 4h1v5h-1zm0.5-5a2.5 3 0 0 1 0 6v-1a1.5 2 0 0 0 0-4 1.5 2 0 1 0 0 4v1a2.5 3 0 1 1 0-6z" fill="#93b685"/>
  <path d="M502,132m2 0-2 6v1h2v3h1v-3h2v-1l-2-6zm0.5 1 1.5 5h-3zm4.5 4h1v5h-1zm0.5-5a2.5 3 0 0 1 0 6v-1a1.5 2 0 0 0 0-4 1.5 2 0 1 0 0 4v1a2.5 3 0 1 1 0-6z" fill="#93b685"/>
  <path d="M63,199m2 0-2 6v1h2v3h1v-3h2v-1l-2-6zm0.5 1 1.5 5h-3zm4.5 4h1v5h-1zm0.5-5a2.5 3 0 0 1 0 6v-1a1.5 2 0 0 0 0-4 1.5 2 0 1 0 0 4v1a2.5 3 0 1 1 0-6z" fill="#93b685"/>
  <path d="M234,139m2 0-2 6v1h2v3h1v-3h2v-1l-2-6zm0.5 1 1.5 5h-3zm4.5 4h1v5h-1zm0.5-5a2.5 3 0 0 1 0 6v-1a1.5 2 0 0 0 0-4 1.5 2 0 1 0 0 4v1a2.5 3 0 1 1 0-6z" fill="#93b685"/>
  <path d="M388,30m2 0-2 6v1h2v3h1v-3h2v-1l-2-6zm0.5 1 1.5 5h-3zm4.5 4h1v5h-1zm0.5-5a2.5 3 0 0 1 0 6v-1a1.5 2 0 0 0 0-4 1.5 2 0 1 0 0 4v1a2.5 3 0 1 1 0-6z" fill="#93b685"/>
  <path d="M300,322m2 0-2 6v1h2v3h1v-3h2v-1l-2-6zm0.5 1 1.5 5h-3zm4.5 4h1v5h-1zm0.5-5a2.5 3 0 0 1 0 6v-1a1.5 2 0 0 0 0-4 1.5 2 0 1 0 0 4v1a2.5 3 0 1 1 0-6z" fill="#93b685"/>
  <path d="M160,90m2 0-2 6v1h2v3h1v-3h2v-1l-2-6zm0.5 1 1.5 5h-3zm4.5 4h1v5h-1zm0.5-5a2.5 3 0 0 1 0 6v-1a1.5 2 0 0 0 0-4 1.5 2 0 1 0 0 4v1a2.5 3 0 1 1 0-6z" fill="#93b685"/>
  <path d="M167,446m2 0-2 6v1h2v3h1v-3h2v-1l-2-6zm0.5 1 1.5 5h-3zm4.5 4h1v5h-1zm0.5-5a2.5 3 0 0 1 0 6v-1a1.5 2 0 0 0 0-4 1.5 2 0 1 0 0 4v1a2.5 3 0 1 1 0-6z" fill="#93b685"/>
  <path d="M117,165m2 0-2 6v1h2v3h1v-3h2v-1l-2-6zm0.5 1 1.5 5h-3zm4.5 4h1v5h-1zm0.5-5a2.5 3 0 0 1 0 6v-1a1.5 2 0 0 0 0-4 1.5 2 0 1 0 0 4v1a2.5 3 0 1 1 0-6z" fill="#93b685"/>
  <path d="M216,139m2 0-2 6v1h2v3h1v-3h2v-1l-2-6zm0.5 1 1.5 5h-3zm4.5 4h1v5h-1zm0.5-5a2.5 3 0 0 1 0 6v-1a1.5 2 0 0 0 0-4 1.5 2 0 1 0 0 4v1a2.5 3 0 1 1 0-6z" fill="#93b685"/>
  <path d="M137,246m2 0-2 6v1h2v3h1v-3h2v-1l-2-6zm0.5 1 1.5 5h-3zm4.5 4h1v5h-1zm0.5-5a2.5 3 0 0 1 0 6v-1a1.5 2 0 0 0 0-4 1.5 2 0 1 0 0 4v1a2.5 3 0 1 1 0-6z" fill="#93b685"/>
  <path d="M62,270m2 0-2 6v1h2v3h1v-3h2v-1l-2-6zm0.5 1 1.5 5h-3zm4.5 4h1v5h-1zm0.5-5a2.5 3 0 0 1 0 6v-1a1.5 2 0 0 0 0-4 1.5 2 0 1 0 0 4v1a2.5 3 0 1 1 0-6z" fill="#93b685"/>
  <path d="M266,370m2 0-2 6v1h2v3h1v-3h2v-1l-2-6zm0.5 1 1.5 5h-3zm4.5 4h1v5h-1zm0.5-5a2.5 3 0 0 1 0 6v-1a1.5 2 0 0 0 0-4 1.5 2 0 1 0 0 4v1a2.5 3 0 1 1 0-6z" fill="#93b685"/>
  <path d="M337,499m2 0-2 6v1h2v3h1v-3h2v-1l-2-6zm0.5 1 1.5 5h-3zm4.5 4h1v5h-1zm0.5-5a2.5 3 0 0 1 0 6v-1a1.5 2 0 0 0 0-4 1.5 2 0 1 0 0 4v1a2.5 3 0 1 1 0-6z" fill="#93b685"/>
  <path d="M39,242m2 0-2 6v1h2v3h1v-3h2v-1l-2-6zm0.5 1 1.5 5h-3zm4.5 4h1v5h-1zm0.5-5a2.5 3 0 0 1 0 6v-1a1.5 2 0 0 0 0-4 1.5 2 0 1 0 0 4v1a2.5 3 0 1 1 0-6z" fill="#93b685"/>
  <path d="M275,471m2 0-2 6v1h2v3h1v-3h2v-1l-2-6zm0.5 1 1.5 5h-3zm4.5 4h1v5h-1zm0.5-5a2.5 3 0 0 1 0 6v-1a1.5 2 0 0 0 0-4 1.5 2 0 1 0 0 4v1a2.5 3 0 1 1 0-6z" fill="#93b685"/>
  <path d="M498,497m2 0-2 6v1h2v3h1v-3h2v-1l-2-6zm0.5 1 1.5 5h-3zm4.5 4h1v5h-1zm0.5-5a2.5 3 0 0 1 0 6v-1a1.5 2 0 0 0 0-4 1.5 2 0 1 0 0 4v1a2.5 3 0 1 1 0-6z" fill="#93b685"/>
  <path d="M220,272m2 0-2 6v1h2v3h1v-3h2v-1l-2-6zm0.5 1 1.5 5h-3zm4.5 4h1v5h-1zm0.5-5a2.5 3 0 0 1 0 6v-1a1.5 2 0 0 0 0-4 1.5 2 0 1 0 0 4v1a2.5 3 0 1 1 0-6z" fill="#93b685"/>
  <path d="M114,12m2 0-2 6v1h2v3h1v-3h2v-1l-2-6zm0.5 1 1.5 5h-3zm4.5 4h1v5h-1zm0.5-5a2.5 3 0 0 1 0 6v-1a1.5 2 0 0 0 0-4 1.5 2 0 1 0 0 4v1a2.5 3 0 1 1 0-6z" fill="#93b685"/>
  <path d="M140,115m2 0-2 6v1h2v3h1v-3h2v-1l-2-6zm0.5 1 1.5 5h-3zm4.5 4h1v5h-1zm0.5-5a2.5 3 0 0 1 0 6v-1a1.5 2 0 0 0 0-4 1.5 2 0 1 0 0 4v1a2.5 3 0 1 1 0-6z" fill="#93b685"/>
  <path d="M468,443m2 0-2 6v1h2v3h1v-3h2v-1l-2-6zm0.5 1 1.5 5h-3zm4.5 4h1v5h-1zm0.5-5a2.5 3 0 0 1 0 6v-1a1.5 2 0 0 0 0-4 1.5 2 0 1 0 0 4v1a2.5 3 0 1 1 0-6z" fill="#93b685"/>
  <path d="M398,15m2 0-2 6v1h2v3h1v-3h2v-1l-2-6zm0.5 1 1.5 5h-3zm4.5 4h1v5h-1zm0.5-5a2.5 3 0 0 1 0 6v-1a1.5 2 0 0 0 0-4 1.5 2 0 1 0 0 4v1a2.5 3 0 1 1 0-6z" fill="#93b685"/>
  <path d="M3,265m2 0-2 6v1h2v3h1v-3h2v-1l-2-6zm0.5 1 1.5 5h-3zm4.5 4h1v5h-1zm0.5-5a2.5 3 0 0 1 0 6v-1a1.5 2 0 0 0 0-4 1.5 2 0 1 0 0 4v1a2.5 3 0 1 1 0-6z" fill="#93b685"/>
  <path d="M212,295m2 0-2 6v1h2v3h1v-3h2v-1l-2-6zm0.5 1 1.5 5h-3zm4.5 4h1v5h-1zm0.5-5a2.5 3 0 0 1 0 6v-1a1.5 2 0 0 0 0-4 1.5 2 0 1 0 0 4v1a2.5 3 0 1 1 0-6z" fill="#93b685"/>
  <path d="M86,315m2 0-2 6v1h2v3h1v-3h2v-1l-2-6zm0.5 1 1.5 5h-3zm4.5 4h1v5h-1zm0.5-5a2.5 3 0 0 1 0 6v-1a1.5 2 0 0 0 0-4 1.5 2 0 1 0 0 4v1a2.5 3 0 1 1 0-6z" fill="#93b685"/>
  <path d="M445,239m2 0-2 6v1h2v3h1v-3h2v-1l-2-6zm0.5 1 1.5 5h-3zm4.5 4h1v5h-1zm0.5-5a2.5 3 0 0 1 0 6v-1a1.5 2 0 0 0 0-4 1.5 2 0 1 0 0 4v1a2.5 3 0 1 1 0-6z" fill="#93b685"/>
  <path d="M146,491m2 0-2 6v1h2v3h1v-3h2v-1l-2-6zm0.5 1 1.5 5h-3zm4.5 4h1v5h-1zm0.5-5a2.5 3 0 0 1 0 6v-1a1.5 2 0 0 0 0-4 1.5 2 0 1 0 0 4v1a2.5 3 0 1 1 0-6z" fill="#93b685"/>
  <path d="M394,420m2 0-2 6v1h2v3h1v-3h2v-1l-2-6zm0.5 1 1.5 5h-3zm4.5 4h1v5h-1zm0.5-5a2.5 3 0 0 1 0 6v-1a1.5 2 0 0 0 0-4 1.5 2 0 1 0 0 4v1a2.5 3 0 1 1 0-6z" fill="#93b685"/>
  <path d="M241,442m2 0-2 6v1h2v3h1v-3h2v-1l-2-6zm0.5 1 1.5 5h-3zm4.5 4h1v5h-1zm0.5-5a2.5 3 0 0 1 0 6v-1a1.5 2 0 0 0 0-4 1.5 2 0 1 0 0 4v1a2.5 3 0 1 1 0-6z" fill="#93b685"/>
  <path d="M82,378m2 5h1v5h-1zm0.5-5a2.5 3 0 0 1 0 6v-1a1.5 2 0 0 0 0-4 1.5 2 0 1 0 0 4v1a2.5 3 0 1 1 0-6zm4.5 0-2 6v1h2v3h1v-3h2v-1l-2-6zm0.5 1 1.5 5h-3z" fill="#93b685"/>
  <path d="M167,498m2 5h1v5h-1zm0.5-5a2.5 3 0 0 1 0 6v-1a1.5 2 0 0 0 0-4 1.5 2 0 1 0 0 4v1a2.5 3 0 1 1 0-6zm4.5 0-2 6v1h2v3h1v-3h2v-1l-2-6zm0.5 1 1.5 5h-3z" fill="#93b685"/>
  <path d="M270,343m2 5h1v5h-1zm0.5-5a2.5 3 0 0 1 0 6v-1a1.5 2 0 0 0 0-4 1.5 2 0 1 0 0 4v1a2.5 3 0 1 1 0-6zm4.5 0-2 6v1h2v3h1v-3h2v-1l-2-6zm0.5 1 1.5 5h-3z" fill="#93b685"/>
  <path d="M11,394m2 5h1v5h-1zm0.5-5a2.5 3 0 0 1 0 6v-1a1.5 2 0 0 0 0-4 1.5 2 0 1 0 0 4v1a2.5 3 0 1 1 0-6zm4.5 0-2 6v1h2v3h1v-3h2v-1l-2-6zm0.5 1 1.5 5h-3z" fill="#93b685"/>
  <path d="M368,493m2 5h1v5h-1zm0.5-5a2.5 3 0 0 1 0 6v-1a1.5 2 0 0 0 0-4 1.5 2 0 1 0 0 4v1a2.5 3 0 1 1 0-6zm4.5 0-2 6v1h2v3h1v-3h2v-1l-2-6zm0.5 1 1.5 5h-3z" fill="#93b685"/>
  <path d="M91,7m2 5h1v5h-1zm0.5-5a2.5 3 0 0 1 0 6v-1a1.5 2 0 0 0 0-4 1.5 2 0 1 0 0 4v1a2.5 3 0 1 1 0-6zm4.5 0-2 6v1h2v3h1v-3h2v-1l-2-6zm0.5 1 1.5 5h-3z" fill="#93b685"/>
  <path d="M106,431m2 5h1v5h-1zm0.5-5a2.5 3 0 0 1 0 6v-1a1.5 2 0 0 0 0-4 1.5 2 0 1 0 0 4v1a2.5 3 0 1 1 0-6zm4.5 0-2 6v1h2v3h1v-3h2v-1l-2-6zm0.5 1 1.5 5h-3z" fill="#93b685"/>
  <path d="M243,191m2 5h1v5h-1zm0.5-5a2.5 3 0 0 1 0 6v-1a1.5 2 0 0 0 0-4 1.5 2 0 1 0 0 4v1a2.5 3 0 1 1 0-6zm4.5 0-2 6v1h2v3h1v-3h2v-1l-2-6zm0.5 1 1.5 5h-3z" fill="#93b685"/>
  <path d="M145,9m2 5h1v5h-1zm0.5-5a2.5 3 0 0 1 0 6v-1a1.5 2 0 0 0 0-4 1.5 2 0 1 0 0 4v1a2.5 3 0 1 1 0-6zm4.5 0-2 6v1h2v3h1v-3h2v-1l-2-6zm0.5 1 1.5 5h-3z" fill="#93b685"/>
  <path d="M318,65m2 5h1v5h-1zm0.5-5a2.5 3 0 0 1 0 6v-1a1.5 2 0 0 0 0-4 1.5 2 0 1 0 0 4v1a2.5 3 0 1 1 0-6zm4.5 0-2 6v1h2v3h1v-3h2v-1l-2-6zm0.5 1 1.5 5h-3z" fill="#93b685"/>
  <path d="M136,191m2 5h1v5h-1zm0.5-5a2.5 3 0 0 1 0 6v-1a1.5 2 0 0 0 0-4 1.5 2 0 1 0 0 4v1a2.5 3 0 1 1 0-6zm4.5 0-2 6v1h2v3h1v-3h2v-1l-2-6zm0.5 1 1.5 5h-3z" fill="#93b685"/>
  <path d="M214,64m2 5h1v5h-1zm0.5-5a2.5 3 0 0 1 0 6v-1a1.5 2 0 0 0 0-4 1.5 2 0 1 0 0 4v1a2.5 3 0 1 1 0-6zm4.5 0-2 6v1h2v3h1v-3h2v-1l-2-6zm0.5 1 1.5 5h-3z" fill="#93b685"/>
  <path d="M425,81m2 5h1v5h-1zm0.5-5a2.5 3 0 0 1 0 6v-1a1.5 2 0 0 0 0-4 1.5 2 0 1 0 0 4v1a2.5 3 0 1 1 0-6zm4.5 0-2 6v1h2v3h1v-3h2v-1l-2-6zm0.5 1 1.5 5h-3z" fill="#93b685"/>
  <path d="M410,52m2 5h1v5h-1zm0.5-5a2.5 3 0 0 1 0 6v-1a1.5 2 0 0 0 0-4 1.5 2 0 1 0 0 4v1a2.5 3 0 1 1 0-6zm4.5 0-2 6v1h2v3h1v-3h2v-1l-2-6zm0.5 1 1.5 5h-3z" fill="#93b685"/>
  <path d="M297,164m2 5h1v5h-1zm0.5-5a2.5 3 0 0 1 0 6v-1a1.5 2 0 0 0 0-4 1.5 2 0 1 0 0 4v1a2.5 3 0 1 1 0-6zm4.5 0-2 6v1h2v3h1v-3h2v-1l-2-6zm0.5 1 1.5 5h-3z" fill="#93b685"/>
  <path d="M497,451m2 5h1v5h-1zm0.5-5a2.5 3 0 0 1 0 6v-1a1.5 2 0 0 0 0-4 1.5 2 0 1 0 0 4v1a2.5 3 0 1 1 0-6zm4.5 0-2 6v1h2v3h1v-3h2v-1l-2-6zm0.5 1 1.5 5h-3z" fill="#93b685"/>
  <path d="M269,448m2 5h1v5h-1zm0.5-5a2.5 3 0 0 1 0 6v-1a1.5 2 0 0 0 0-4 1.5 2 0 1 0 0 4v1a2.5 3 0 1 1 0-6zm4.5 0-2 6v1h2v3h1v-3h2v-1l-2-6zm0.5 1 1.5 5h-3z" fill="#93b685"/>
  <path d="M267,502m2 5h1v5h-1zm0.5-5a2.5 3 0 0 1 0 6v-1a1.5 2 0 0 0 0-4 1.5 2 0 1 0 0 4v1a2.5 3 0 1 1 0-6zm4.5 0-2 6v1h2v3h1v-3h2v-1l-2-6zm0.5 1 1.5 5h-3z" fill="#93b685"/>
  <path d="M345,262m2 5h1v5h-1zm0.5-5a2.5 3 0 0 1 0 6v-1a1.5 2 0 0 0 0-4 1.5 2 0 1 0 0 4v1a2.5 3 0 1 1 0-6zm4.5 0-2 6v1h2v3h1v-3h2v-1l-2-6zm0.5 1 1.5 5h-3z" fill="#93b685"/>
  <path d="M403,451m2 5h1v5h-1zm0.5-5a2.5 3 0 0 1 0 6v-1a1.5 2 0 0 0 0-4 1.5 2 0 1 0 0 4v1a2.5 3 0 1 1 0-6zm4.5 0-2 6v1h2v3h1v-3h2v-1l-2-6zm0.5 1 1.5 5h-3z" fill="#93b685"/>
  <path d="M291,411m2 5h1v5h-1zm0.5-5a2.5 3 0 0 1 0 6v-1a1.5 2 0 0 0 0-4 1.5 2 0 1 0 0 4v1a2.5 3 0 1 1 0-6zm4.5 0-2 6v1h2v3h1v-3h2v-1l-2-6zm0.5 1 1.5 5h-3z" fill="#93b685"/>
  <path d="M85,455m2 5h1v5h-1zm0.5-5a2.5 3 0 0 1 0 6v-1a1.5 2 0 0 0 0-4 1.5 2 0 1 0 0 4v1a2.5 3 0 1 1 0-6zm4.5 0-2 6v1h2v3h1v-3h2v-1l-2-6zm0.5 1 1.5 5h-3z" fill="#93b685"/>
  <path d="M167,238m2 5h1v5h-1zm0.5-5a2.5 3 0 0 1 0 6v-1a1.5 2 0 0 0 0-4 1.5 2 0 1 0 0 4v1a2.5 3 0 1 1 0-6zm4.5 0-2 6v1h2v3h1v-3h2v-1l-2-6zm0.5 1 1.5 5h-3z" fill="#93b685"/>
  <path d="M393,270m2 5h1v5h-1zm0.5-5a2.5 3 0 0 1 0 6v-1a1.5 2 0 0 0 0-4 1.5 2 0 1 0 0 4v1a2.5 3 0 1 1 0-6zm4.5 0-2 6v1h2v3h1v-3h2v-1l-2-6zm0.5 1 1.5 5h-3z" fill="#93b685"/>
  <path d="M212,162m2 5h1v5h-1zm0.5-5a2.5 3 0 0 1 0 6v-1a1.5 2 0 0 0 0-4 1.5 2 0 1 0 0 4v1a2.5 3 0 1 1 0-6zm4.5 0-2 6v1h2v3h1v-3h2v-1l-2-6zm0.5 1 1.5 5h-3z" fill="#93b685"/>
  <path d="M320,292m2 5h1v5h-1zm0.5-5a2.5 3 0 0 1 0 6v-1a1.5 2 0 0 0 0-4 1.5 2 0 1 0 0 4v1a2.5 3 0 1 1 0-6zm4.5 0-2 6v1h2v3h1v-3h2v-1l-2-6zm0.5 1 1.5 5h-3z" fill="#93b685"/>
  <path d="M188,45m2 5h1v5h-1zm0.5-5a2.5 3 0 0 1 0 6v-1a1.5 2 0 0 0 0-4 1.5 2 0 1 0 0 4v1a2.5 3 0 1 1 0-6zm4.5 0-2 6v1h2v3h1v-3h2v-1l-2-6zm0.5 1 1.5 5h-3z" fill="#93b685"/>
  <path d="M349,15m2 5h1v5h-1zm0.5-5a2.5 3 0 0 1 0 6v-1a1.5 2 0 0 0 0-4 1.5 2 0 1 0 0 4v1a2.5 3 0 1 1 0-6zm4.5 0-2 6v1h2v3h1v-3h2v-1l-2-6zm0.5 1 1.5 5h-3z" fill="#93b685"/>
  <path d="M392,113m2 5h1v5h-1zm0.5-5a2.5 3 0 0 1 0 6v-1a1.5 2 0 0 0 0-4 1.5 2 0 1 0 0 4v1a2.5 3 0 1 1 0-6zm4.5 0-2 6v1h2v3h1v-3h2v-1l-2-6zm0.5 1 1.5 5h-3z" fill="#93b685"/>
  <path d="M343,45m2 5h1v5h-1zm0.5-5a2.5 3 0 0 1 0 6v-1a1.5 2 0 0 0 0-4 1.5 2 0 1 0 0 4v1a2.5 3 0 1 1 0-6zm4.5 0-2 6v1h2v3h1v-3h2v-1l-2-6zm0.5 1 1.5 5h-3z" fill="#93b685"/>
  <path d="M143,146m2 5h1v5h-1zm0.5-5a2.5 3 0 0 1 0 6v-1a1.5 2 0 0 0 0-4 1.5 2 0 1 0 0 4v1a2.5 3 0 1 1 0-6zm4.5 0-2 6v1h2v3h1v-3h2v-1l-2-6zm0.5 1 1.5 5h-3z" fill="#93b685"/>
  <path d="M164,16m2 5h1v5h-1zm0.5-5a2.5 3 0 0 1 0 6v-1a1.5 2 0 0 0 0-4 1.5 2 0 1 0 0 4v1a2.5 3 0 1 1 0-6zm4.5 0-2 6v1h2v3h1v-3h2v-1l-2-6zm0.5 1 1.5 5h-3z" fill="#93b685"/>
  <path d="M473,344m2 5h1v5h-1zm0.5-5a2.5 3 0 0 1 0 6v-1a1.5 2 0 0 0 0-4 1.5 2 0 1 0 0 4v1a2.5 3 0 1 1 0-6zm4.5 0-2 6v1h2v3h1v-3h2v-1l-2-6zm0.5 1 1.5 5h-3z" fill="#93b685"/>
  <path d="M403,170m2 5h1v5h-1zm0.5-5a2.5 3 0 0 1 0 6v-1a1.5 2 0 0 0 0-4 1.5 2 0 1 0 0 4v1a2.5 3 0 1 1 0-6zm4.5 0-2 6v1h2v3h1v-3h2v-1l-2-6zm0.5 1 1.5 5h-3z" fill="#93b685"/>
  <path d="M472,62m2 5h1v5h-1zm0.5-5a2.5 3 0 0 1 0 6v-1a1.5 2 0 0 0 0-4 1.5 2 0 1 0 0 4v1a2.5 3 0 1 1 0-6zm4.5 0-2 6v1h2v3h1v-3h2v-1l-2-6zm0.5 1 1.5 5h-3z" fill="#93b685"/>
  <path d="M290,368m2 5h1v5h-1zm0.5-5a2.5 3 0 0 1 0 6v-1a1.5 2 0 0 0 0-4 1.5 2 0 1 0 0 4v1a2.5 3 0 1 1 0-6zm4.5 0-2 6v1h2v3h1v-3h2v-1l-2-6zm0.5 1 1.5 5h-3z" fill="#93b685"/>
  <path d="M376,152m2 5h1v5h-1zm0.5-5a2.5 3 0 0 1 0 6v-1a1.5 2 0 0 0 0-4 1.5 2 0 1 0 0 4v1a2.5 3 0 1 1 0-6zm4.5 0-2 6v1h2v3h1v-3h2v-1l-2-6zm0.5 1 1.5 5h-3z" fill="#93b685"/>
  <path d="M85,241m2 5h1v5h-1zm0.5-5a2.5 3 0 0 1 0 6v-1a1.5 2 0 0 0 0-4 1.5 2 0 1 0 0 4v1a2.5 3 0 1 1 0-6zm4.5 0-2 6v1h2v3h1v-3h2v-1l-2-6zm0.5 1 1.5 5h-3z" fill="#93b685"/>
  <path d="M419,21m2 5h1v5h-1zm0.5-5a2.5 3 0 0 1 0 6v-1a1.5 2 0 0 0 0-4 1.5 2 0 1 0 0 4v1a2.5 3 0 1 1 0-6zm4.5 0-2 6v1h2v3h1v-3h2v-1l-2-6zm0.5 1 1.5 5h-3z" fill="#93b685"/>
  <path d="M497,113m2 5h1v5h-1zm0.5-5a2.5 3 0 0 1 0 6v-1a1.5 2 0 0 0 0-4 1.5 2 0 1 0 0 4v1a2.5 3 0 1 1 0-6zm4.5 0-2 6v1h2v3h1v-3h2v-1l-2-6zm0.5 1 1.5 5h-3z" fill="#93b685"/>
  <path d="M297,464m2 5h1v5h-1zm0.5-5a2.5 3 0 0 1 0 6v-1a1.5 2 0 0 0 0-4 1.5 2 0 1 0 0 4v1a2.5 3 0 1 1 0-6zm4.5 0-2 6v1h2v3h1v-3h2v-1l-2-6zm0.5 1 1.5 5h-3z" fill="#93b685"/>
  <path d="M317,318m2 5h1v5h-1zm0.5-5a2.5 3 0 0 1 0 6v-1a1.5 2 0 0 0 0-4 1.5 2 0 1 0 0 4v1a2.5 3 0 1 1 0-6zm4.5 0-2 6v1h2v3h1v-3h2v-1l-2-6zm0.5 1 1.5 5h-3z" fill="#93b685"/>
  <path d="M182,66m2 5h1v5h-1zm0.5-5a2.5 3 0 0 1 0 6v-1a1.5 2 0 0 0 0-4 1.5 2 0 1 0 0 4v1a2.5 3 0 1 1 0-6zm4.5 0-2 6v1h2v3h1v-3h2v-1l-2-6zm0.5 1 1.5 5h-3z" fill="#93b685"/>
  <path d="M298,219m2 5h1v5h-1zm0.5-5a2.5 3 0 0 1 0 6v-1a1.5 2 0 0 0 0-4 1.5 2 0 1 0 0 4v1a2.5 3 0 1 1 0-6zm4.5 0-2 6v1h2v3h1v-3h2v-1l-2-6zm0.5 1 1.5 5h-3z" fill="#93b685"/>
  <path d="M419,423m2 5h1v5h-1zm0.5-5a2.5 3 0 0 1 0 6v-1a1.5 2 0 0 0 0-4 1.5 2 0 1 0 0 4v1a2.5 3 0 1 1 0-6zm4.5 0-2 6v1h2v3h1v-3h2v-1l-2-6zm0.5 1 1.5 5h-3z" fill="#93b685"/>
  <path d="M61,402m2 5h1v5h-1zm0.5-5a2.5 3 0 0 1 0 6v-1a1.5 2 0 0 0 0-4 1.5 2 0 1 0 0 4v1a2.5 3 0 1 1 0-6zm4.5 0-2 6v1h2v3h1v-3h2v-1l-2-6zm0.5 1 1.5 5h-3z" fill="#93b685"/>
  <path d="M444,271m2 5h1v5h-1zm0.5-5a2.5 3 0 0 1 0 6v-1a1.5 2 0 0 0 0-4 1.5 2 0 1 0 0 4v1a2.5 3 0 1 1 0-6zm4.5 0-2 6v1h2v3h1v-3h2v-1l-2-6zm0.5 1 1.5 5h-3z" fill="#93b685"/>
  <path d="M47,61m2 5h1v5h-1zm0.5-5a2.5 3 0 0 1 0 6v-1a1.5 2 0 0 0 0-4 1.5 2 0 1 0 0 4v1a2.5 3 0 1 1 0-6zm4.5 0-2 6v1h2v3h1v-3h2v-1l-2-6zm0.5 1 1.5 5h-3z" fill="#93b685"/>
  <path d="M371,61m2 5h1v5h-1zm0.5-5a2.5 3 0 0 1 0 6v-1a1.5 2 0 0 0 0-4 1.5 2 0 1 0 0 4v1a2.5 3 0 1 1 0-6zm4.5 0-2 6v1h2v3h1v-3h2v-1l-2-6zm0.5 1 1.5 5h-3z" fill="#93b685"/>
  <path d="M17,448m2 5h1v5h-1zm0.5-5a2.5 3 0 0 1 0 6v-1a1.5 2 0 0 0 0-4 1.5 2 0 1 0 0 4v1a2.5 3 0 1 1 0-6zm4.5 0-2 6v1h2v3h1v-3h2v-1l-2-6zm0.5 1 1.5 5h-3z" fill="#93b685"/>
  <path d="M330,275m2 5h1v5h-1zm0.5-5a2.5 3 0 0 1 0 6v-1a1.5 2 0 0 0 0-4 1.5 2 0 1 0 0 4v1a2.5 3 0 1 1 0-6zm4.5 0-2 6v1h2v3h1v-3h2v-1l-2-6zm0.5 1 1.5 5h-3z" fill="#93b685"/>
  <path d="M345,303m2 5h1v5h-1zm0.5-5a2.5 3 0 0 1 0 6v-1a1.5 2 0 0 0 0-4 1.5 2 0 1 0 0 4v1a2.5 3 0 1 1 0-6zm4.5 0-2 6v1h2v3h1v-3h2v-1l-2-6zm0.5 1 1.5 5h-3z" fill="#93b685"/>
  <path d="M469,291m2 5h1v5h-1zm0.5-5a2.5 3 0 0 1 0 6v-1a1.5 2 0 0 0 0-4 1.5 2 0 1 0 0 4v1a2.5 3 0 1 1 0-6zm4.5 0-2 6v1h2v3h1v-3h2v-1l-2-6zm0.5 1 1.5 5h-3z" fill="#93b685"/>
  <path d="M193,480m2 5h1v5h-1zm0.5-5a2.5 3 0 0 1 0 6v-1a1.5 2 0 0 0 0-4 1.5 2 0 1 0 0 4v1a2.5 3 0 1 1 0-6zm4.5 0-2 6v1h2v3h1v-3h2v-1l-2-6zm0.5 1 1.5 5h-3z" fill="#93b685"/>
  <path d="M510,89m2 5h1v5h-1zm0.5-5a2.5 3 0 0 1 0 6v-1a1.5 2 0 0 0 0-4 1.5 2 0 1 0 0 4v1a2.5 3 0 1 1 0-6zm4.5 0-2 6v1h2v3h1v-3h2v-1l-2-6zm0.5 1 1.5 5h-3z" fill="#93b685"/>
  <path d="M-2,89m2 5h1v5h-1zm0.5-5a2.5 3 0 0 1 0 6v-1a1.5 2 0 0 0 0-4 1.5 2 0 1 0 0 4v1a2.5 3 0 1 1 0-6zm4.5 0-2 6v1h2v3h1v-3h2v-1l-2-6zm0.5 1 1.5 5h-3z" fill="#93b685"/>
  <path d="M424,130m2 5h1v5h-1zm0.5-5a2.5 3 0 0 1 0 6v-1a1.5 2 0 0 0 0-4 1.5 2 0 1 0 0 4v1a2.5 3 0 1 1 0-6zm4.5 0-2 6v1h2v3h1v-3h2v-1l-2-6zm0.5 1 1.5 5h-3z" fill="#93b685"/>
  <path d="M85,161m2 5h1v5h-1zm0.5-5a2.5 3 0 0 1 0 6v-1a1.5 2 0 0 0 0-4 1.5 2 0 1 0 0 4v1a2.5 3 0 1 1 0-6zm4.5 0-2 6v1h2v3h1v-3h2v-1l-2-6zm0.5 1 1.5 5h-3z" fill="#93b685"/>
  <path d="M367,93m2 5h1v5h-1zm0.5-5a2.5 3 0 0 1 0 6v-1a1.5 2 0 0 0 0-4 1.5 2 0 1 0 0 4v1a2.5 3 0 1 1 0-6zm4.5 0-2 6v1h2v3h1v-3h2v-1l-2-6zm0.5 1 1.5 5h-3z" fill="#93b685"/>
  <path d="M8,171m2 5h1v5h-1zm0.5-5a2.5 3 0 0 1 0 6v-1a1.5 2 0 0 0 0-4 1.5 2 0 1 0 0 4v1a2.5 3 0 1 1 0-6zm4.5 0-2 6v1h2v3h1v-3h2v-1l-2-6zm0.5 1 1.5 5h-3z" fill="#93b685"/>
  <path d="M235,401m2 5h1v5h-1zm0.5-5a2.5 3 0 0 1 0 6v-1a1.5 2 0 0 0 0-4 1.5 2 0 1 0 0 4v1a2.5 3 0 1 1 0-6zm4.5 0-2 6v1h2v3h1v-3h2v-1l-2-6zm0.5 1 1.5 5h-3z" fill="#93b685"/>
  <path d="M426,192m2 5h1v5h-1zm0.5-5a2.5 3 0 0 1 0 6v-1a1.5 2 0 0 0 0-4 1.5 2 0 1 0 0 4v1a2.5 3 0 1 1 0-6zm4.5 0-2 6v1h2v3h1v-3h2v-1l-2-6zm0.5 1 1.5 5h-3z" fill="#93b685"/>
  <path d="M314,45m2 5h1v5h-1zm0.5-5a2.5 3 0 0 1 0 6v-1a1.5 2 0 0 0 0-4 1.5 2 0 1 0 0 4v1a2.5 3 0 1 1 0-6zm4.5 0-2 6v1h2v3h1v-3h2v-1l-2-6zm0.5 1 1.5 5h-3z" fill="#93b685"/>
  <path d="M394,238m2 5h1v5h-1zm0.5-5a2.5 3 0 0 1 0 6v-1a1.5 2 0 0 0 0-4 1.5 2 0 1 0 0 4v1a2.5 3 0 1 1 0-6zm4.5 0-2 6v1h2v3h1v-3h2v-1l-2-6zm0.5 1 1.5 5h-3z" fill="#93b685"/>
  <path d="M134,422m2 5h1v5h-1zm0.5-5a2.5 3 0 0 1 0 6v-1a1.5 2 0 0 0 0-4 1.5 2 0 1 0 0 4v1a2.5 3 0 1 1 0-6zm4.5 0-2 6v1h2v3h1v-3h2v-1l-2-6zm0.5 1 1.5 5h-3z" fill="#93b685"/>
  <path d="M189,273m2 5h1v5h-1zm0.5-5a2.5 3 0 0 1 0 6v-1a1.5 2 0 0 0 0-4 1.5 2 0 1 0 0 4v1a2.5 3 0 1 1 0-6zm4.5 0-2 6v1h2v3h1v-3h2v-1l-2-6zm0.5 1 1.5 5h-3z" fill="#93b685"/>
  <path d="M62,220m2 5h1v5h-1zm0.5-5a2.5 3 0 0 1 0 6v-1a1.5 2 0 0 0 0-4 1.5 2 0 1 0 0 4v1a2.5 3 0 1 1 0-6zm4.5 0-2 6v1h2v3h1v-3h2v-1l-2-6zm0.5 1 1.5 5h-3z" fill="#93b685"/>
  <path d="M217,107m2 5h1v5h-1zm0.5-5a2.5 3 0 0 1 0 6v-1a1.5 2 0 0 0 0-4 1.5 2 0 1 0 0 4v1a2.5 3 0 1 1 0-6zm4.5 0-2 6v1h2v3h1v-3h2v-1l-2-6zm0.5 1 1.5 5h-3z" fill="#93b685"/>
  <path d="M22,92m2 5h1v5h-1zm0.5-5a2.5 3 0 0 1 0 6v-1a1.5 2 0 0 0 0-4 1.5 2 0 1 0 0 4v1a2.5 3 0 1 1 0-6zm4.5 0-2 6v1h2v3h1v-3h2v-1l-2-6zm0.5 1 1.5 5h-3z" fill="#93b685"/>
  <path d="M215,40m2 5h1v5h-1zm0.5-5a2.5 3 0 0 1 0 6v-1a1.5 2 0 0 0 0-4 1.5 2 0 1 0 0 4v1a2.5 3 0 1 1 0-6zm4.5 0-2 6v1h2v3h1v-3h2v-1l-2-6zm0.5 1 1.5 5h-3z" fill="#93b685"/>
  <path d="M388,218m2 5h1v5h-1zm0.5-5a2.5 3 0 0 1 0 6v-1a1.5 2 0 0 0 0-4 1.5 2 0 1 0 0 4v1a2.5 3 0 1 1 0-6zm4.5 0-2 6v1h2v3h1v-3h2v-1l-2-6zm0.5 1 1.5 5h-3z" fill="#93b685"/>
  <path d="M337,213m2 5h1v5h-1zm0.5-5a2.5 3 0 0 1 0 6v-1a1.5 2 0 0 0 0-4 1.5 2 0 1 0 0 4v1a2.5 3 0 1 1 0-6zm4.5 0-2 6v1h2v3h1v-3h2v-1l-2-6zm0.5 1 1.5 5h-3z" fill="#93b685"/>
  <path d="M55,423m2 5h1v5h-1zm0.5-5a2.5 3 0 0 1 0 6v-1a1.5 2 0 0 0 0-4 1.5 2 0 1 0 0 4v1a2.5 3 0 1 1 0-6zm4.5 0-2 6v1h2v3h1v-3h2v-1l-2-6zm0.5 1 1.5 5h-3z" fill="#93b685"/>
  <path d="M10,146m2 5h1v5h-1zm0.5-5a2.5 3 0 0 1 0 6v-1a1.5 2 0 0 0 0-4 1.5 2 0 1 0 0 4v1a2.5 3 0 1 1 0-6zm4.5 0-2 6v1h2v3h1v-3h2v-1l-2-6zm0.5 1 1.5 5h-3z" fill="#93b685"/>
  <path d="M34,266m2 5h1v5h-1zm0.5-5a2.5 3 0 0 1 0 6v-1a1.5 2 0 0 0 0-4 1.5 2 0 1 0 0 4v1a2.5 3 0 1 1 0-6zm4.5 0-2 6v1h2v3h1v-3h2v-1l-2-6zm0.5 1 1.5 5h-3z" fill="#93b685"/>
  <path d="M489,316m2 5h1v5h-1zm0.5-5a2.5 3 0 0 1 0 6v-1a1.5 2 0 0 0 0-4 1.5 2 0 1 0 0 4v1a2.5 3 0 1 1 0-6zm4.5 0-2 6v1h2v3h1v-3h2v-1l-2-6zm0.5 1 1.5 5h-3z" fill="#93b685"/>
  <path d="M496,40m2 5h1v5h-1zm0.5-5a2.5 3 0 0 1 0 6v-1a1.5 2 0 0 0 0-4 1.5 2 0 1 0 0 4v1a2.5 3 0 1 1 0-6zm4.5 0-2 6v1h2v3h1v-3h2v-1l-2-6zm0.5 1 1.5 5h-3z" fill="#93b685"/>
  <path d="M467,312m2 5h1v5h-1zm0.5-5a2.5 3 0 0 1 0 6v-1a1.5 2 0 0 0 0-4 1.5 2 0 1 0 0 4v1a2.5 3 0 1 1 0-6zm4.5 0-2 6v1h2v3h1v-3h2v-1l-2-6zm0.5 1 1.5 5h-3z" fill="#93b685"/>
  <path d="M10,366m2 5h1v5h-1zm0.5-5a2.5 3 0 0 1 0 6v-1a1.5 2 0 0 0 0-4 1.5 2 0 1 0 0 4v1a2.5 3 0 1 1 0-6zm4.5 0-2 6v1h2v3h1v-3h2v-1l-2-6zm0.5 1 1.5 5h-3z" fill="#93b685"/>
  <path d="M391,62m2 5h1v5h-1zm0.5-5a2.5 3 0 0 1 0 6v-1a1.5 2 0 0 0 0-4 1.5 2 0 1 0 0 4v1a2.5 3 0 1 1 0-6zm4.5 0-2 6v1h2v3h1v-3h2v-1l-2-6zm0.5 1 1.5 5h-3z" fill="#93b685"/>
  <path d="M139,223m2 5h1v5h-1zm0.5-5a2.5 3 0 0 1 0 6v-1a1.5 2 0 0 0 0-4 1.5 2 0 1 0 0 4v1a2.5 3 0 1 1 0-6zm4.5 0-2 6v1h2v3h1v-3h2v-1l-2-6zm0.5 1 1.5 5h-3z" fill="#93b685"/>
  <path d="M92,471m2 5h1v5h-1zm0.5-5a2.5 3 0 0 1 0 6v-1a1.5 2 0 0 0 0-4 1.5 2 0 1 0 0 4v1a2.5 3 0 1 1 0-6zm4.5 0-2 6v1h2v3h1v-3h2v-1l-2-6zm0.5 1 1.5 5h-3z" fill="#93b685"/>
  <path d="M424,352m2 5h1v5h-1zm0.5-5a2.5 3 0 0 1 0 6v-1a1.5 2 0 0 0 0-4 1.5 2 0 1 0 0 4v1a2.5 3 0 1 1 0-6zm4.5 0-2 6v1h2v3h1v-3h2v-1l-2-6zm0.5 1 1.5 5h-3z" fill="#93b685"/>
  <path d="M496,347m2 5h1v5h-1zm0.5-5a2.5 3 0 0 1 0 6v-1a1.5 2 0 0 0 0-4 1.5 2 0 1 0 0 4v1a2.5 3 0 1 1 0-6zm4.5 0-2 6v1h2v3h1v-3h2v-1l-2-6zm0.5 1 1.5 5h-3z" fill="#93b685"/>
  <path d="M363,426m2 5h1v5h-1zm0.5-5a2.5 3 0 0 1 0 6v-1a1.5 2 0 0 0 0-4 1.5 2 0 1 0 0 4v1a2.5 3 0 1 1 0-6zm4.5 0-2 6v1h2v3h1v-3h2v-1l-2-6zm0.5 1 1.5 5h-3z" fill="#93b685"/>
  <path d="M316,350m2 5h1v5h-1zm0.5-5a2.5 3 0 0 1 0 6v-1a1.5 2 0 0 0 0-4 1.5 2 0 1 0 0 4v1a2.5 3 0 1 1 0-6zm4.5 0-2 6v1h2v3h1v-3h2v-1l-2-6zm0.5 1 1.5 5h-3z" fill="#93b685"/>
  <path d="M16,346m2 5h1v5h-1zm0.5-5a2.5 3 0 0 1 0 6v-1a1.5 2 0 0 0 0-4 1.5 2 0 1 0 0 4v1a2.5 3 0 1 1 0-6zm4.5 0-2 6v1h2v3h1v-3h2v-1l-2-6zm0.5 1 1.5 5h-3z" fill="#93b685"/>
  <path d="M109,293m2 5h1v5h-1zm0.5-5a2.5 3 0 0 1 0 6v-1a1.5 2 0 0 0 0-4 1.5 2 0 1 0 0 4v1a2.5 3 0 1 1 0-6zm4.5 0-2 6v1h2v3h1v-3h2v-1l-2-6zm0.5 1 1.5 5h-3z" fill="#93b685"/>
  <path d="M211,391m2 5h1v5h-1zm0.5-5a2.5 3 0 0 1 0 6v-1a1.5 2 0 0 0 0-4 1.5 2 0 1 0 0 4v1a2.5 3 0 1 1 0-6zm4.5 0-2 6v1h2v3h1v-3h2v-1l-2-6zm0.5 1 1.5 5h-3z" fill="#93b685"/>
  <path d="M221,182m2 5h1v5h-1zm0.5-5a2.5 3 0 0 1 0 6v-1a1.5 2 0 0 0 0-4 1.5 2 0 1 0 0 4v1a2.5 3 0 1 1 0-6zm4.5 0-2 6v1h2v3h1v-3h2v-1l-2-6zm0.5 1 1.5 5h-3z" fill="#93b685"/>
  <path d="M134,60m2 5h1v5h-1zm0.5-5a2.5 3 0 0 1 0 6v-1a1.5 2 0 0 0 0-4 1.5 2 0 1 0 0 4v1a2.5 3 0 1 1 0-6zm4.5 0-2 6v1h2v3h1v-3h2v-1l-2-6zm0.5 1 1.5 5h-3z" fill="#93b685"/>
  <path d="M120,349m2 5h1v5h-1zm0.5-5a2.5 3 0 0 1 0 6v-1a1.5 2 0 0 0 0-4 1.5 2 0 1 0 0 4v1a2.5 3 0 1 1 0-6zm4.5 0-2 6v1h2v3h1v-3h2v-1l-2-6zm0.5 1 1.5 5h-3z" fill="#93b685"/>
  <path d="M270,36m2 5h1v5h-1zm0.5-5a2.5 3 0 0 1 0 6v-1a1.5 2 0 0 0 0-4 1.5 2 0 1 0 0 4v1a2.5 3 0 1 1 0-6zm4.5 0-2 6v1h2v3h1v-3h2v-1l-2-6zm0.5 1 1.5 5h-3z" fill="#93b685"/>
  <path d="M133,378m2 5h1v5h-1zm0.5-5a2.5 3 0 0 1 0 6v-1a1.5 2 0 0 0 0-4 1.5 2 0 1 0 0 4v1a2.5 3 0 1 1 0-6zm4.5 0-2 6v1h2v3h1v-3h2v-1l-2-6zm0.5 1 1.5 5h-3z" fill="#93b685"/>
  <path d="M35,320m2 5h1v5h-1zm0.5-5a2.5 3 0 0 1 0 6v-1a1.5 2 0 0 0 0-4 1.5 2 0 1 0 0 4v1a2.5 3 0 1 1 0-6zm4.5 0-2 6v1h2v3h1v-3h2v-1l-2-6zm0.5 1 1.5 5h-3z" fill="#93b685"/>
  <path d="M240,217m2 5h1v5h-1zm0.5-5a2.5 3 0 0 1 0 6v-1a1.5 2 0 0 0 0-4 1.5 2 0 1 0 0 4v1a2.5 3 0 1 1 0-6zm4.5 0-2 6v1h2v3h1v-3h2v-1l-2-6zm0.5 1 1.5 5h-3z" fill="#93b685"/>
  <path d="M314,192m2 5h1v5h-1zm0.5-5a2.5 3 0 0 1 0 6v-1a1.5 2 0 0 0 0-4 1.5 2 0 1 0 0 4v1a2.5 3 0 1 1 0-6zm4.5 0-2 6v1h2v3h1v-3h2v-1l-2-6zm0.5 1 1.5 5h-3z" fill="#93b685"/>
  <path d="M364,195m2 5h1v5h-1zm0.5-5a2.5 3 0 0 1 0 6v-1a1.5 2 0 0 0 0-4 1.5 2 0 1 0 0 4v1a2.5 3 0 1 1 0-6zm4.5 0-2 6v1h2v3h1v-3h2v-1l-2-6zm0.5 1 1.5 5h-3z" fill="#93b685"/>
  <path d="M248,344m2 5h1v5h-1zm0.5-5a2.5 3 0 0 1 0 6v-1a1.5 2 0 0 0 0-4 1.5 2 0 1 0 0 4v1a2.5 3 0 1 1 0-6zm4.5 0-2 6v1h2v3h1v-3h2v-1l-2-6zm0.5 1 1.5 5h-3z" fill="#93b685"/>
  <path d="M402,138m2 5h1v5h-1zm0.5-5a2.5 3 0 0 1 0 6v-1a1.5 2 0 0 0 0-4 1.5 2 0 1 0 0 4v1a2.5 3 0 1 1 0-6zm4.5 0-2 6v1h2v3h1v-3h2v-1l-2-6zm0.5 1 1.5 5h-3z" fill="#93b685"/>
  <path d="M265,392m2 5h1v5h-1zm0.5-5a2.5 3 0 0 1 0 6v-1a1.5 2 0 0 0 0-4 1.5 2 0 1 0 0 4v1a2.5 3 0 1 1 0-6zm4.5 0-2 6v1h2v3h1v-3h2v-1l-2-6zm0.5 1 1.5 5h-3z" fill="#93b685"/>
  <path d="M266,216m2 5h1v5h-1zm0.5-5a2.5 3 0 0 1 0 6v-1a1.5 2 0 0 0 0-4 1.5 2 0 1 0 0 4v1a2.5 3 0 1 1 0-6zm4.5 0-2 6v1h2v3h1v-3h2v-1l-2-6zm0.5 1 1.5 5h-3z" fill="#93b685"/>
  <path d="M165,171m2 5h1v5h-1zm0.5-5a2.5 3 0 0 1 0 6v-1a1.5 2 0 0 0 0-4 1.5 2 0 1 0 0 4v1a2.5 3 0 1 1 0-6zm4.5 0-2 6v1h2v3h1v-3h2v-1l-2-6zm0.5 1 1.5 5h-3z" fill="#93b685"/>
  <path d="M452,368m2 5h1v5h-1zm0.5-5a2.5 3 0 0 1 0 6v-1a1.5 2 0 0 0 0-4 1.5 2 0 1 0 0 4v1a2.5 3 0 1 1 0-6zm4.5 0-2 6v1h2v3h1v-3h2v-1l-2-6zm0.5 1 1.5 5h-3z" fill="#93b685"/>
  <path d="M317,474m2 5h1v5h-1zm0.5-5a2.5 3 0 0 1 0 6v-1a1.5 2 0 0 0 0-4 1.5 2 0 1 0 0 4v1a2.5 3 0 1 1 0-6zm4.5 0-2 6v1h2v3h1v-3h2v-1l-2-6zm0.5 1 1.5 5h-3z" fill="#93b685"/>
  <path d="M238,314m2 5h1v5h-1zm0.5-5a2.5 3 0 0 1 0 6v-1a1.5 2 0 0 0 0-4 1.5 2 0 1 0 0 4v1a2.5 3 0 1 1 0-6zm4.5 0-2 6v1h2v3h1v-3h2v-1l-2-6zm0.5 1 1.5 5h-3z" fill="#93b685"/>
  <path d="M266,136m2 5h1v5h-1zm0.5-5a2.5 3 0 0 1 0 6v-1a1.5 2 0 0 0 0-4 1.5 2 0 1 0 0 4v1a2.5 3 0 1 1 0-6zm4.5 0-2 6v1h2v3h1v-3h2v-1l-2-6zm0.5 1 1.5 5h-3z" fill="#93b685"/>
  <path d="M260,417m2 5h1v5h-1zm0.5-5a2.5 3 0 0 1 0 6v-1a1.5 2 0 0 0 0-4 1.5 2 0 1 0 0 4v1a2.5 3 0 1 1 0-6zm4.5 0-2 6v1h2v3h1v-3h2v-1l-2-6zm0.5 1 1.5 5h-3z" fill="#93b685"/>
  <path d="M373,246m2 5h1v5h-1zm0.5-5a2.5 3 0 0 1 0 6v-1a1.5 2 0 0 0 0-4 1.5 2 0 1 0 0 4v1a2.5 3 0 1 1 0-6zm4.5 0-2 6v1h2v3h1v-3h2v-1l-2-6zm0.5 1 1.5 5h-3z" fill="#93b685"/>
  <path d="M422,371m2 5h1v5h-1zm0.5-5a2.5 3 0 0 1 0 6v-1a1.5 2 0 0 0 0-4 1.5 2 0 1 0 0 4v1a2.5 3 0 1 1 0-6zm4.5 0-2 6v1h2v3h1v-3h2v-1l-2-6zm0.5 1 1.5 5h-3z" fill="#93b685"/>
  <path d="M185,96m2 5h1v5h-1zm0.5-5a2.5 3 0 0 1 0 6v-1a1.5 2 0 0 0 0-4 1.5 2 0 1 0 0 4v1a2.5 3 0 1 1 0-6zm4.5 0-2 6v1h2v3h1v-3h2v-1l-2-6zm0.5 1 1.5 5h-3z" fill="#93b685"/>
  <path d="M93,266m2 5h1v5h-1zm0.5-5a2.5 3 0 0 1 0 6v-1a1.5 2 0 0 0 0-4 1.5 2 0 1 0 0 4v1a2.5 3 0 1 1 0-6zm4.5 0-2 6v1h2v3h1v-3h2v-1l-2-6zm0.5 1 1.5 5h-3z" fill="#93b685"/>
  <path d="M88,347m2 5h1v5h-1zm0.5-5a2.5 3 0 0 1 0 6v-1a1.5 2 0 0 0 0-4 1.5 2 0 1 0 0 4v1a2.5 3 0 1 1 0-6zm4.5 0-2 6v1h2v3h1v-3h2v-1l-2-6zm0.5 1 1.5 5h-3z" fill="#93b685"/>
  <path d="M14,241m2 5h1v5h-1zm0.5-5a2.5 3 0 0 1 0 6v-1a1.5 2 0 0 0 0-4 1.5 2 0 1 0 0 4v1a2.5 3 0 1 1 0-6zm4.5 0-2 6v1h2v3h1v-3h2v-1l-2-6zm0.5 1 1.5 5h-3z" fill="#93b685"/>
  <path d="M119,502m2 5h1v5h-1zm0.5-5a2.5 3 0 0 1 0 6v-1a1.5 2 0 0 0 0-4 1.5 2 0 1 0 0 4v1a2.5 3 0 1 1 0-6zm4.5 0-2 6v1h2v3h1v-3h2v-1l-2-6zm0.5 1 1.5 5h-3z" fill="#93b685"/>
  <path d="M211,453m2 5h1v5h-1zm0.5-5a2.5 3 0 0 1 0 6v-1a1.5 2 0 0 0 0-4 1.5 2 0 1 0 0 4v1a2.5 3 0 1 1 0-6zm4.5 0-2 6v1h2v3h1v-3h2v-1l-2-6zm0.5 1 1.5 5h-3z" fill="#93b685"/>
  <path d="M142,400m2 5h1v5h-1zm0.5-5a2.5 3 0 0 1 0 6v-1a1.5 2 0 0 0 0-4 1.5 2 0 1 0 0 4v1a2.5 3 0 1 1 0-6zm4.5 0-2 6v1h2v3h1v-3h2v-1l-2-6zm0.5 1 1.5 5h-3z" fill="#93b685"/>
  <path d="M87,500m2 5h1v5h-1zm0.5-5a2.5 3 0 0 1 0 6v-1a1.5 2 0 0 0 0-4 1.5 2 0 1 0 0 4v1a2.5 3 0 1 1 0-6zm4.5 0-2 6v1h2v3h1v-3h2v-1l-2-6zm0.5 1 1.5 5h-3z" fill="#93b685"/>
  <path d="M86,29m2 5h1v5h-1zm0.5-5a2.5 3 0 0 1 0 6v-1a1.5 2 0 0 0 0-4 1.5 2 0 1 0 0 4v1a2.5 3 0 1 1 0-6zm4.5 0-2 6v1h2v3h1v-3h2v-1l-2-6zm0.5 1 1.5 5h-3z" fill="#93b685"/>
  <path d="M1,202m2 5h1v5h-1zm0.5-5a2.5 3 0 0 1 0 6v-1a1.5 2 0 0 0 0-4 1.5 2 0 1 0 0 4v1a2.5 3 0 1 1 0-6zm4.5 0-2 6v1h2v3h1v-3h2v-1l-2-6zm0.5 1 1.5 5h-3z" fill="#93b685"/>
  <path d="M170,214m2 5h1v5h-1zm0.5-5a2.5 3 0 0 1 0 6v-1a1.5 2 0 0 0 0-4 1.5 2 0 1 0 0 4v1a2.5 3 0 1 1 0-6zm4.5 0-2 6v1h2v3h1v-3h2v-1l-2-6zm0.5 1 1.5 5h-3z" fill="#93b685"/>
  <path d="M490,244m2 5h1v5h-1zm0.5-5a2.5 3 0 0 1 0 6v-1a1.5 2 0 0 0 0-4 1.5 2 0 1 0 0 4v1a2.5 3 0 1 1 0-6zm4.5 0-2 6v1h2v3h1v-3h2v-1l-2-6zm0.5 1 1.5 5h-3z" fill="#93b685"/>
  <path d="M8,428m2 5h1v5h-1zm0.5-5a2.5 3 0 0 1 0 6v-1a1.5 2 0 0 0 0-4 1.5 2 0 1 0 0 4v1a2.5 3 0 1 1 0-6zm4.5 0-2 6v1h2v3h1v-3h2v-1l-2-6zm0.5 1 1.5 5h-3z" fill="#93b685"/>
  <path d="M290,188m2 5h1v5h-1zm0.5-5a2.5 3 0 0 1 0 6v-1a1.5 2 0 0 0 0-4 1.5 2 0 1 0 0 4v1a2.5 3 0 1 1 0-6zm4.5 0-2 6v1h2v3h1v-3h2v-1l-2-6zm0.5 1 1.5 5h-3z" fill="#93b685"/>
  <path d="M342,182m2 5h1v5h-1zm0.5-5a2.5 3 0 0 1 0 6v-1a1.5 2 0 0 0 0-4 1.5 2 0 1 0 0 4v1a2.5 3 0 1 1 0-6zm4.5 0-2 6v1h2v3h1v-3h2v-1l-2-6zm0.5 1 1.5 5h-3z" fill="#93b685"/>
  <path d="M396,81m2 5h1v5h-1zm0.5-5a2.5 3 0 0 1 0 6v-1a1.5 2 0 0 0 0-4 1.5 2 0 1 0 0 4v1a2.5 3 0 1 1 0-6zm4.5 0-2 6v1h2v3h1v-3h2v-1l-2-6zm0.5 1 1.5 5h-3z" fill="#93b685"/>
  <path d="M24,414m2 5h1v5h-1zm0.5-5a2.5 3 0 0 1 0 6v-1a1.5 2 0 0 0 0-4 1.5 2 0 1 0 0 4v1a2.5 3 0 1 1 0-6zm4.5 0-2 6v1h2v3h1v-3h2v-1l-2-6zm0.5 1 1.5 5h-3z" fill="#93b685"/>
  <path d="M297,388m2 5h1v5h-1zm0.5-5a2.5 3 0 0 1 0 6v-1a1.5 2 0 0 0 0-4 1.5 2 0 1 0 0 4v1a2.5 3 0 1 1 0-6zm4.5 0-2 6v1h2v3h1v-3h2v-1l-2-6zm0.5 1 1.5 5h-3z" fill="#93b685"/>
  <path d="M260,111m2 5h1v5h-1zm0.5-5a2.5 3 0 0 1 0 6v-1a1.5 2 0 0 0 0-4 1.5 2 0 1 0 0 4v1a2.5 3 0 1 1 0-6zm4.5 0-2 6v1h2v3h1v-3h2v-1l-2-6zm0.5 1 1.5 5h-3z" fill="#93b685"/>
  <path d="M41,223m2 5h1v5h-1zm0.5-5a2.5 3 0 0 1 0 6v-1a1.5 2 0 0 0 0-4 1.5 2 0 1 0 0 4v1a2.5 3 0 1 1 0-6zm4.5 0-2 6v1h2v3h1v-3h2v-1l-2-6zm0.5 1 1.5 5h-3z" fill="#93b685"/>
  <path d="M396,199m2 5h1v5h-1zm0.5-5a2.5 3 0 0 1 0 6v-1a1.5 2 0 0 0 0-4 1.5 2 0 1 0 0 4v1a2.5 3 0 1 1 0-6zm4.5 0-2 6v1h2v3h1v-3h2v-1l-2-6zm0.5 1 1.5 5h-3z" fill="#93b685"/>
  <path d="M247,241m2 5h1v5h-1zm0.5-5a2.5 3 0 0 1 0 6v-1a1.5 2 0 0 0 0-4 1.5 2 0 1 0 0 4v1a2.5 3 0 1 1 0-6zm4.5 0-2 6v1h2v3h1v-3h2v-1l-2-6zm0.5 1 1.5 5h-3z" fill="#93b685"/>
  <path d="M477,373m2 5h1v5h-1zm0.5-5a2.5 3 0 0 1 0 6v-1a1.5 2 0 0 0 0-4 1.5 2 0 1 0 0 4v1a2.5 3 0 1 1 0-6zm4.5 0-2 6v1h2v3h1v-3h2v-1l-2-6zm0.5 1 1.5 5h-3z" fill="#93b685"/>
  <path d="M485,83m2 5h1v5h-1zm0.5-5a2.5 3 0 0 1 0 6v-1a1.5 2 0 0 0 0-4 1.5 2 0 1 0 0 4v1a2.5 3 0 1 1 0-6zm4.5 0-2 6v1h2v3h1v-3h2v-1l-2-6zm0.5 1 1.5 5h-3z" fill="#93b685"/>
  <path d="M245,259m2 5h1v5h-1zm0.5-5a2.5 3 0 0 1 0 6v-1a1.5 2 0 0 0 0-4 1.5 2 0 1 0 0 4v1a2.5 3 0 1 1 0-6zm4.5 0-2 6v1h2v3h1v-3h2v-1l-2-6zm0.5 1 1.5 5h-3z" fill="#93b685"/>
  <path d="M221,11m2 5h1v5h-1zm0.5-5a2.5 3 0 0 1 0 6v-1a1.5 2 0 0 0 0-4 1.5 2 0 1 0 0 4v1a2.5 3 0 1 1 0-6zm4.5 0-2 6v1h2v3h1v-3h2v-1l-2-6zm0.5 1 1.5 5h-3z" fill="#93b685"/>
  <path d="M326,389m2 5h1v5h-1zm0.5-5a2.5 3 0 0 1 0 6v-1a1.5 2 0 0 0 0-4 1.5 2 0 1 0 0 4v1a2.5 3 0 1 1 0-6zm4.5 0-2 6v1h2v3h1v-3h2v-1l-2-6zm0.5 1 1.5 5h-3z" fill="#93b685"/>
  <path d="M164,144m2 5h1v5h-1zm0.5-5a2.5 3 0 0 1 0 6v-1a1.5 2 0 0 0 0-4 1.5 2 0 1 0 0 4v1a2.5 3 0 1 1 0-6zm4.5 0-2 6v1h2v3h1v-3h2v-1l-2-6zm0.5 1 1.5 5h-3z" fill="#93b685"/>
  <path d="M288,95m2 5h1v5h-1zm0.5-5a2.5 3 0 0 1 0 6v-1a1.5 2 0 0 0 0-4 1.5 2 0 1 0 0 4v1a2.5 3 0 1 1 0-6zm4.5 0-2 6v1h2v3h1v-3h2v-1l-2-6zm0.5 1 1.5 5h-3z" fill="#93b685"/>
  <path d="M414,246m2 5h1v5h-1zm0.5-5a2.5 3 0 0 1 0 6v-1a1.5 2 0 0 0 0-4 1.5 2 0 1 0 0 4v1a2.5 3 0 1 1 0-6zm4.5 0-2 6v1h2v3h1v-3h2v-1l-2-6zm0.5 1 1.5 5h-3z" fill="#93b685"/>
  <path d="M129,318m2 5h1v5h-1zm0.5-5a2.5 3 0 0 1 0 6v-1a1.5 2 0 0 0 0-4 1.5 2 0 1 0 0 4v1a2.5 3 0 1 1 0-6zm4.5 0-2 6v1h2v3h1v-3h2v-1l-2-6zm0.5 1 1.5 5h-3z" fill="#93b685"/>
  <path d="M421,447m2 5h1v5h-1zm0.5-5a2.5 3 0 0 1 0 6v-1a1.5 2 0 0 0 0-4 1.5 2 0 1 0 0 4v1a2.5 3 0 1 1 0-6zm4.5 0-2 6v1h2v3h1v-3h2v-1l-2-6zm0.5 1 1.5 5h-3z" fill="#93b685"/>
  <path d="M93,216m2 5h1v5h-1zm0.5-5a2.5 3 0 0 1 0 6v-1a1.5 2 0 0 0 0-4 1.5 2 0 1 0 0 4v1a2.5 3 0 1 1 0-6zm4.5 0-2 6v1h2v3h1v-3h2v-1l-2-6zm0.5 1 1.5 5h-3z" fill="#93b685"/>
  <path d="M345,116m2 5h1v5h-1zm0.5-5a2.5 3 0 0 1 0 6v-1a1.5 2 0 0 0 0-4 1.5 2 0 1 0 0 4v1a2.5 3 0 1 1 0-6zm4.5 0-2 6v1h2v3h1v-3h2v-1l-2-6zm0.5 1 1.5 5h-3z" fill="#93b685"/>
  <path d="M400,317m2 5h1v5h-1zm0.5-5a2.5 3 0 0 1 0 6v-1a1.5 2 0 0 0 0-4 1.5 2 0 1 0 0 4v1a2.5 3 0 1 1 0-6zm4.5 0-2 6v1h2v3h1v-3h2v-1l-2-6zm0.5 1 1.5 5h-3z" fill="#93b685"/>
  <path d="M449,339m2 5h1v5h-1zm0.5-5a2.5 3 0 0 1 0 6v-1a1.5 2 0 0 0 0-4 1.5 2 0 1 0 0 4v1a2.5 3 0 1 1 0-6zm4.5 0-2 6v1h2v3h1v-3h2v-1l-2-6zm0.5 1 1.5 5h-3z" fill="#93b685"/>
  <path d="M479,185m2 5h1v5h-1zm0.5-5a2.5 3 0 0 1 0 6v-1a1.5 2 0 0 0 0-4 1.5 2 0 1 0 0 4v1a2.5 3 0 1 1 0-6zm4.5 0-2 6v1h2v3h1v-3h2v-1l-2-6zm0.5 1 1.5 5h-3z" fill="#93b685"/>
  <path d="M197,249m2 5h1v5h-1zm0.5-5a2.5 3 0 0 1 0 6v-1a1.5 2 0 0 0 0-4 1.5 2 0 1 0 0 4v1a2.5 3 0 1 1 0-6zm4.5 0-2 6v1h2v3h1v-3h2v-1l-2-6zm0.5 1 1.5 5h-3z" fill="#93b685"/>
  <path d="M161,374m2 5h1v5h-1zm0.5-5a2.5 3 0 0 1 0 6v-1a1.5 2 0 0 0 0-4 1.5 2 0 1 0 0 4v1a2.5 3 0 1 1 0-6zm4.5 0-2 6v1h2v3h1v-3h2v-1l-2-6zm0.5 1 1.5 5h-3z" fill="#93b685"/>
  <path d="M113,241m2 5h1v5h-1zm0.5-5a2.5 3 0 0 1 0 6v-1a1.5 2 0 0 0 0-4 1.5 2 0 1 0 0 4v1a2.5 3 0 1 1 0-6zm4.5 0-2 6v1h2v3h1v-3h2v-1l-2-6zm0.5 1 1.5 5h-3z" fill="#93b685"/>
  <path d="M368,215m2 5h1v5h-1zm0.5-5a2.5 3 0 0 1 0 6v-1a1.5 2 0 0 0 0-4 1.5 2 0 1 0 0 4v1a2.5 3 0 1 1 0-6zm4.5 0-2 6v1h2v3h1v-3h2v-1l-2-6zm0.5 1 1.5 5h-3z" fill="#93b685"/>
  <path d="M445,106m2 5h1v5h-1zm0.5-5a2.5 3 0 0 1 0 6v-1a1.5 2 0 0 0 0-4 1.5 2 0 1 0 0 4v1a2.5 3 0 1 1 0-6zm4.5 0-2 6v1h2v3h1v-3h2v-1l-2-6zm0.5 1 1.5 5h-3z" fill="#93b685"/>
  <path d="M54,96m2 5h1v5h-1zm0.5-5a2.5 3 0 0 1 0 6v-1a1.5 2 0 0 0 0-4 1.5 2 0 1 0 0 4v1a2.5 3 0 1 1 0-6zm4.5 0-2 6v1h2v3h1v-3h2v-1l-2-6zm0.5 1 1.5 5h-3z" fill="#93b685"/>
  <path d="M18,212m2 5h1v5h-1zm0.5-5a2.5 3 0 0 1 0 6v-1a1.5 2 0 0 0 0-4 1.5 2 0 1 0 0 4v1a2.5 3 0 1 1 0-6zm4.5 0-2 6v1h2v3h1v-3h2v-1l-2-6zm0.5 1 1.5 5h-3z" fill="#93b685"/>
  <path d="M31,192m2 5h1v5h-1zm0.5-5a2.5 3 0 0 1 0 6v-1a1.5 2 0 0 0 0-4 1.5 2 0 1 0 0 4v1a2.5 3 0 1 1 0-6zm4.5 0-2 6v1h2v3h1v-3h2v-1l-2-6zm0.5 1 1.5 5h-3z" fill="#93b685"/>
  <path d="M276,305m2 5h1v5h-1zm0.5-5a2.5 3 0 0 1 0 6v-1a1.5 2 0 0 0 0-4 1.5 2 0 1 0 0 4v1a2.5 3 0 1 1 0-6zm4.5 0-2 6v1h2v3h1v-3h2v-1l-2-6zm0.5 1 1.5 5h-3z" fill="#93b685"/>
  <path d="M68,449m2 5h1v5h-1zm0.5-5a2.5 3 0 0 1 0 6v-1a1.5 2 0 0 0 0-4 1.5 2 0 1 0 0 4v1a2.5 3 0 1 1 0-6zm4.5 0-2 6v1h2v3h1v-3h2v-1l-2-6zm0.5 1 1.5 5h-3z" fill="#93b685"/>
  <path d="M452,453m2 5h1v5h-1zm0.5-5a2.5 3 0 0 1 0 6v-1a1.5 2 0 0 0 0-4 1.5 2 0 1 0 0 4v1a2.5 3 0 1 1 0-6zm4.5 0-2 6v1h2v3h1v-3h2v-1l-2-6zm0.5 1 1.5 5h-3z" fill="#93b685"/>
  <path d="M224,472m2 5h1v5h-1zm0.5-5a2.5 3 0 0 1 0 6v-1a1.5 2 0 0 0 0-4 1.5 2 0 1 0 0 4v1a2.5 3 0 1 1 0-6zm4.5 0-2 6v1h2v3h1v-3h2v-1l-2-6zm0.5 1 1.5 5h-3z" fill="#93b685"/>
  <path d="M419,290m2 5h1v5h-1zm0.5-5a2.5 3 0 0 1 0 6v-1a1.5 2 0 0 0 0-4 1.5 2 0 1 0 0 4v1a2.5 3 0 1 1 0-6zm4.5 0-2 6v1h2v3h1v-3h2v-1l-2-6zm0.5 1 1.5 5h-3z" fill="#93b685"/>
  <path d="M245,31m2 5h1v5h-1zm0.5-5a2.5 3 0 0 1 0 6v-1a1.5 2 0 0 0 0-4 1.5 2 0 1 0 0 4v1a2.5 3 0 1 1 0-6zm4.5 0-2 6v1h2v3h1v-3h2v-1l-2-6zm0.5 1 1.5 5h-3z" fill="#93b685"/>
  <path d="M160,198m2 5h1v5h-1zm0.5-5a2.5 3 0 0 1 0 6v-1a1.5 2 0 0 0 0-4 1.5 2 0 1 0 0 4v1a2.5 3 0 1 1 0-6zm4.5 0-2 6v1h2v3h1v-3h2v-1l-2-6zm0.5 1 1.5 5h-3z" fill="#93b685"/>
  <path d="M446,4m2 5h1v5h-1zm0.5-5a2.5 3 0 0 1 0 6v-1a1.5 2 0 0 0 0-4 1.5 2 0 1 0 0 4v1a2.5 3 0 1 1 0-6zm4.5 0-2 6v1h2v3h1v-3h2v-1l-2-6zm0.5 1 1.5 5h-3z" fill="#93b685"/>
  <path d="M250,491m2 5h1v5h-1zm0.5-5a2.5 3 0 0 1 0 6v-1a1.5 2 0 0 0 0-4 1.5 2 0 1 0 0 4v1a2.5 3 0 1 1 0-6zm4.5 0-2 6v1h2v3h1v-3h2v-1l-2-6zm0.5 1 1.5 5h-3z" fill="#93b685"/>
  <path d="M216,209m2 5h1v5h-1zm0.5-5a2.5 3 0 0 1 0 6v-1a1.5 2 0 0 0 0-4 1.5 2 0 1 0 0 4v1a2.5 3 0 1 1 0-6zm4.5 0-2 6v1h2v3h1v-3h2v-1l-2-6zm0.5 1 1.5 5h-3z" fill="#93b685"/>
  <path d="M163,398m2 5h1v5h-1zm0.5-5a2.5 3 0 0 1 0 6v-1a1.5 2 0 0 0 0-4 1.5 2 0 1 0 0 4v1a2.5 3 0 1 1 0-6zm4.5 0-2 6v1h2v3h1v-3h2v-1l-2-6zm0.5 1 1.5 5h-3z" fill="#93b685"/>
  <path d="M270,90m2 5h1v5h-1zm0.5-5a2.5 3 0 0 1 0 6v-1a1.5 2 0 0 0 0-4 1.5 2 0 1 0 0 4v1a2.5 3 0 1 1 0-6zm4.5 0-2 6v1h2v3h1v-3h2v-1l-2-6zm0.5 1 1.5 5h-3z" fill="#93b685"/>
  <path d="M15,36m2 5h1v5h-1zm0.5-5a2.5 3 0 0 1 0 6v-1a1.5 2 0 0 0 0-4 1.5 2 0 1 0 0 4v1a2.5 3 0 1 1 0-6zm4.5 0-2 6v1h2v3h1v-3h2v-1l-2-6zm0.5 1 1.5 5h-3z" fill="#93b685"/>
  <path d="M420,220m2 5h1v5h-1zm0.5-5a2.5 3 0 0 1 0 6v-1a1.5 2 0 0 0 0-4 1.5 2 0 1 0 0 4v1a2.5 3 0 1 1 0-6zm4.5 0-2 6v1h2v3h1v-3h2v-1l-2-6zm0.5 1 1.5 5h-3z" fill="#93b685"/>
  <path d="M64,252m2 5h1v5h-1zm0.5-5a2.5 3 0 0 1 0 6v-1a1.5 2 0 0 0 0-4 1.5 2 0 1 0 0 4v1a2.5 3 0 1 1 0-6zm4.5 0-2 6v1h2v3h1v-3h2v-1l-2-6zm0.5 1 1.5 5h-3z" fill="#93b685"/>
  <path d="M343,72m2 5h1v5h-1zm0.5-5a2.5 3 0 0 1 0 6v-1a1.5 2 0 0 0 0-4 1.5 2 0 1 0 0 4v1a2.5 3 0 1 1 0-6zm4.5 0-2 6v1h2v3h1v-3h2v-1l-2-6zm0.5 1 1.5 5h-3z" fill="#93b685"/>
  <path d="M109,477m2 5h1v5h-1zm0.5-5a2.5 3 0 0 1 0 6v-1a1.5 2 0 0 0 0-4 1.5 2 0 1 0 0 4v1a2.5 3 0 1 1 0-6zm4.5 0-2 6v1h2v3h1v-3h2v-1l-2-6zm0.5 1 1.5 5h-3z" fill="#93b685"/>
  <path d="M244,291m2 5h1v5h-1zm0.5-5a2.5 3 0 0 1 0 6v-1a1.5 2 0 0 0 0-4 1.5 2 0 1 0 0 4v1a2.5 3 0 1 1 0-6zm4.5 0-2 6v1h2v3h1v-3h2v-1l-2-6zm0.5 1 1.5 5h-3z" fill="#93b685"/>
  <path d="M287,435m2 5h1v5h-1zm0.5-5a2.5 3 0 0 1 0 6v-1a1.5 2 0 0 0 0-4 1.5 2 0 1 0 0 4v1a2.5 3 0 1 1 0-6zm4.5 0-2 6v1h2v3h1v-3h2v-1l-2-6zm0.5 1 1.5 5h-3z" fill="#93b685"/>
  <path d="M86,292m2 5h1v5h-1zm0.5-5a2.5 3 0 0 1 0 6v-1a1.5 2 0 0 0 0-4 1.5 2 0 1 0 0 4v1a2.5 3 0 1 1 0-6zm4.5 0-2 6v1h2v3h1v-3h2v-1l-2-6zm0.5 1 1.5 5h-3z" fill="#93b685"/>
  <path d="M372,443m2 5h1v5h-1zm0.5-5a2.5 3 0 0 1 0 6v-1a1.5 2 0 0 0 0-4 1.5 2 0 1 0 0 4v1a2.5 3 0 1 1 0-6zm4.5 0-2 6v1h2v3h1v-3h2v-1l-2-6zm0.5 1 1.5 5h-3z" fill="#93b685"/>
  <path d="M320,223m2 5h1v5h-1zm0.5-5a2.5 3 0 0 1 0 6v-1a1.5 2 0 0 0 0-4 1.5 2 0 1 0 0 4v1a2.5 3 0 1 1 0-6zm4.5 0-2 6v1h2v3h1v-3h2v-1l-2-6zm0.5 1 1.5 5h-3z" fill="#93b685"/>
  <path d="M141,295m2 5h1v5h-1zm0.5-5a2.5 3 0 0 1 0 6v-1a1.5 2 0 0 0 0-4 1.5 2 0 1 0 0 4v1a2.5 3 0 1 1 0-6zm4.5 0-2 6v1h2v3h1v-3h2v-1l-2-6zm0.5 1 1.5 5h-3z" fill="#93b685"/>
  <path d="M451,212m2 5h1v5h-1zm0.5-5a2.5 3 0 0 1 0 6v-1a1.5 2 0 0 0 0-4 1.5 2 0 1 0 0 4v1a2.5 3 0 1 1 0-6zm4.5 0-2 6v1h2v3h1v-3h2v-1l-2-6zm0.5 1 1.5 5h-3z" fill="#93b685"/>
  <path d="M417,322m2 5h1v5h-1zm0.5-5a2.5 3 0 0 1 0 6v-1a1.5 2 0 0 0 0-4 1.5 2 0 1 0 0 4v1a2.5 3 0 1 1 0-6zm4.5 0-2 6v1h2v3h1v-3h2v-1l-2-6zm0.5 1 1.5 5h-3z" fill="#93b685"/>
  <path d="M118,214m2 5h1v5h-1zm0.5-5a2.5 3 0 0 1 0 6v-1a1.5 2 0 0 0 0-4 1.5 2 0 1 0 0 4v1a2.5 3 0 1 1 0-6zm4.5 0-2 6v1h2v3h1v-3h2v-1l-2-6zm0.5 1 1.5 5h-3z" fill="#93b685"/>
  <path d="M243,466m2 5h1v5h-1zm0.5-5a2.5 3 0 0 1 0 6v-1a1.5 2 0 0 0 0-4 1.5 2 0 1 0 0 4v1a2.5 3 0 1 1 0-6zm4.5 0-2 6v1h2v3h1v-3h2v-1l-2-6zm0.5 1 1.5 5h-3z" fill="#93b685"/>
  <path d="M393,481m2 5h1v5h-1zm0.5-5a2.5 3 0 0 1 0 6v-1a1.5 2 0 0 0 0-4 1.5 2 0 1 0 0 4v1a2.5 3 0 1 1 0-6zm4.5 0-2 6v1h2v3h1v-3h2v-1l-2-6zm0.5 1 1.5 5h-3z" fill="#93b685"/>
  <path d="M348,239m2 5h1v5h-1zm0.5-5a2.5 3 0 0 1 0 6v-1a1.5 2 0 0 0 0-4 1.5 2 0 1 0 0 4v1a2.5 3 0 1 1 0-6zm4.5 0-2 6v1h2v3h1v-3h2v-1l-2-6zm0.5 1 1.5 5h-3z" fill="#93b685"/>
  <path d="M299,267m2 5h1v5h-1zm0.5-5a2.5 3 0 0 1 0 6v-1a1.5 2 0 0 0 0-4 1.5 2 0 1 0 0 4v1a2.5 3 0 1 1 0-6zm4.5 0-2 6v1h2v3h1v-3h2v-1l-2-6zm0.5 1 1.5 5h-3z" fill="#93b685"/>
  <path d="M219,499m2 5h1v5h-1zm0.5-5a2.5 3 0 0 1 0 6v-1a1.5 2 0 0 0 0-4 1.5 2 0 1 0 0 4v1a2.5 3 0 1 1 0-6zm4.5 0-2 6v1h2v3h1v-3h2v-1l-2-6zm0.5 1 1.5 5h-3z" fill="#93b685"/>
  <path d="M171,344m2 5h1v5h-1zm0.5-5a2.5 3 0 0 1 0 6v-1a1.5 2 0 0 0 0-4 1.5 2 0 1 0 0 4v1a2.5 3 0 1 1 0-6zm4.5 0-2 6v1h2v3h1v-3h2v-1l-2-6zm0.5 1 1.5 5h-3z" fill="#93b685"/>
  <path d="M265,168m2 5h1v5h-1zm0.5-5a2.5 3 0 0 1 0 6v-1a1.5 2 0 0 0 0-4 1.5 2 0 1 0 0 4v1a2.5 3 0 1 1 0-6zm4.5 0-2 6v1h2v3h1v-3h2v-1l-2-6zm0.5 1 1.5 5h-3z" fill="#93b685"/>
  <path d="M292,118m2 5h1v5h-1zm0.5-5a2.5 3 0 0 1 0 6v-1a1.5 2 0 0 0 0-4 1.5 2 0 1 0 0 4v1a2.5 3 0 1 1 0-6zm4.5 0-2 6v1h2v3h1v-3h2v-1l-2-6zm0.5 1 1.5 5h-3z" fill="#93b685"/>
  <path d="M300,33m2 5h1v5h-1zm0.5-5a2.5 3 0 0 1 0 6v-1a1.5 2 0 0 0 0-4 1.5 2 0 1 0 0 4v1a2.5 3 0 1 1 0-6zm4.5 0-2 6v1h2v3h1v-3h2v-1l-2-6zm0.5 1 1.5 5h-3z" fill="#93b685"/>
  <path d="M317,505m2 5h1v5h-1zm0.5-5a2.5 3 0 0 1 0 6v-1a1.5 2 0 0 0 0-4 1.5 2 0 1 0 0 4v1a2.5 3 0 1 1 0-6zm4.5 0-2 6v1h2v3h1v-3h2v-1l-2-6zm0.5 1 1.5 5h-3z" fill="#93b685"/>
  <path d="M317,-7m2 5h1v5h-1zm0.5-5a2.5 3 0 0 1 0 6v-1a1.5 2 0 0 0 0-4 1.5 2 0 1 0 0 4v1a2.5 3 0 1 1 0-6zm4.5 0-2 6v1h2v3h1v-3h2v-1l-2-6zm0.5 1 1.5 5h-3z" fill="#93b685"/>
  <path d="M38,499m2 5h1v5h-1zm0.5-5a2.5 3 0 0 1 0 6v-1a1.5 2 0 0 0 0-4 1.5 2 0 1 0 0 4v1a2.5 3 0 1 1 0-6zm4.5 0-2 6v1h2v3h1v-3h2v-1l-2-6zm0.5 1 1.5 5h-3z" fill="#93b685"/>
  <path d="M295,291m2 5h1v5h-1zm0.5-5a2.5 3 0 0 1 0 6v-1a1.5 2 0 0 0 0-4 1.5 2 0 1 0 0 4v1a2.5 3 0 1 1 0-6zm4.5 0-2 6v1h2v3h1v-3h2v-1l-2-6zm0.5 1 1.5 5h-3z" fill="#93b685"/>
  <path d="M186,420m2 5h1v5h-1zm0.5-5a2.5 3 0 0 1 0 6v-1a1.5 2 0 0 0 0-4 1.5 2 0 1 0 0 4v1a2.5 3 0 1 1 0-6zm4.5 0-2 6v1h2v3h1v-3h2v-1l-2-6zm0.5 1 1.5 5h-3z" fill="#93b685"/>
  <path d="M444,469m2 5h1v5h-1zm0.5-5a2.5 3 0 0 1 0 6v-1a1.5 2 0 0 0 0-4 1.5 2 0 1 0 0 4v1a2.5 3 0 1 1 0-6zm4.5 0-2 6v1h2v3h1v-3h2v-1l-2-6zm0.5 1 1.5 5h-3z" fill="#93b685"/>
  <path d="M165,121m2 5h1v5h-1zm0.5-5a2.5 3 0 0 1 0 6v-1a1.5 2 0 0 0 0-4 1.5 2 0 1 0 0 4v1a2.5 3 0 1 1 0-6zm4.5 0-2 6v1h2v3h1v-3h2v-1l-2-6zm0.5 1 1.5 5h-3z" fill="#93b685"/>
  <path d="M475,428m2 5h1v5h-1zm0.5-5a2.5 3 0 0 1 0 6v-1a1.5 2 0 0 0 0-4 1.5 2 0 1 0 0 4v1a2.5 3 0 1 1 0-6zm4.5 0-2 6v1h2v3h1v-3h2v-1l-2-6zm0.5 1 1.5 5h-3z" fill="#93b685"/>
  <path d="M112,143m2 5h1v5h-1zm0.5-5a2.5 3 0 0 1 0 6v-1a1.5 2 0 0 0 0-4 1.5 2 0 1 0 0 4v1a2.5 3 0 1 1 0-6zm4.5 0-2 6v1h2v3h1v-3h2v-1l-2-6zm0.5 1 1.5 5h-3z" fill="#93b685"/>
  <path d="M418,502m2 5h1v5h-1zm0.5-5a2.5 3 0 0 1 0 6v-1a1.5 2 0 0 0 0-4 1.5 2 0 1 0 0 4v1a2.5 3 0 1 1 0-6zm4.5 0-2 6v1h2v3h1v-3h2v-1l-2-6zm0.5 1 1.5 5h-3z" fill="#93b685"/>
  <path d="M139,83m2 5h1v5h-1zm0.5-5a2.5 3 0 0 1 0 6v-1a1.5 2 0 0 0 0-4 1.5 2 0 1 0 0 4v1a2.5 3 0 1 1 0-6zm4.5 0-2 6v1h2v3h1v-3h2v-1l-2-6zm0.5 1 1.5 5h-3z" fill="#93b685"/>
  <path d="M186,399m2 5h1v5h-1zm0.5-5a2.5 3 0 0 1 0 6v-1a1.5 2 0 0 0 0-4 1.5 2 0 1 0 0 4v1a2.5 3 0 1 1 0-6zm4.5 0-2 6v1h2v3h1v-3h2v-1l-2-6zm0.5 1 1.5 5h-3z" fill="#93b685"/>
  <path d="M492,156m2 5h1v5h-1zm0.5-5a2.5 3 0 0 1 0 6v-1a1.5 2 0 0 0 0-4 1.5 2 0 1 0 0 4v1a2.5 3 0 1 1 0-6zm4.5 0-2 6v1h2v3h1v-3h2v-1l-2-6zm0.5 1 1.5 5h-3z" fill="#93b685"/>
  <path d="M111,369m2 5h1v5h-1zm0.5-5a2.5 3 0 0 1 0 6v-1a1.5 2 0 0 0 0-4 1.5 2 0 1 0 0 4v1a2.5 3 0 1 1 0-6zm4.5 0-2 6v1h2v3h1v-3h2v-1l-2-6zm0.5 1 1.5 5h-3z" fill="#93b685"/>
  <path d="M369,34m2 5h1v5h-1zm0.5-5a2.5 3 0 0 1 0 6v-1a1.5 2 0 0 0 0-4 1.5 2 0 1 0 0 4v1a2.5 3 0 1 1 0-6zm4.5 0-2 6v1h2v3h1v-3h2v-1l-2-6zm0.5 1 1.5 5h-3z" fill="#93b685"/>
  <path d="M209,83m2 5h1v5h-1zm0.5-5a2.5 3 0 0 1 0 6v-1a1.5 2 0 0 0 0-4 1.5 2 0 1 0 0 4v1a2.5 3 0 1 1 0-6zm4.5 0-2 6v1h2v3h1v-3h2v-1l-2-6zm0.5 1 1.5 5h-3z" fill="#93b685"/>
  <path d="M118,272m2 5h1v5h-1zm0.5-5a2.5 3 0 0 1 0 6v-1a1.5 2 0 0 0 0-4 1.5 2 0 1 0 0 4v1a2.5 3 0 1 1 0-6zm4.5 0-2 6v1h2v3h1v-3h2v-1l-2-6zm0.5 1 1.5 5h-3z" fill="#93b685"/>
  <path d="M312,416m2 5h1v5h-1zm0.5-5a2.5 3 0 0 1 0 6v-1a1.5 2 0 0 0 0-4 1.5 2 0 1 0 0 4v1a2.5 3 0 1 1 0-6zm4.5 0-2 6v1h2v3h1v-3h2v-1l-2-6zm0.5 1 1.5 5h-3z" fill="#93b685"/>
  <path d="M448,491m2 5h1v5h-1zm0.5-5a2.5 3 0 0 1 0 6v-1a1.5 2 0 0 0 0-4 1.5 2 0 1 0 0 4v1a2.5 3 0 1 1 0-6zm4.5 0-2 6v1h2v3h1v-3h2v-1l-2-6zm0.5 1 1.5 5h-3z" fill="#93b685"/>
  <path d="M468,404m2 5h1v5h-1zm0.5-5a2.5 3 0 0 1 0 6v-1a1.5 2 0 0 0 0-4 1.5 2 0 1 0 0 4v1a2.5 3 0 1 1 0-6zm4.5 0-2 6v1h2v3h1v-3h2v-1l-2-6zm0.5 1 1.5 5h-3z" fill="#93b685"/>
  <path d="M17,293m2 5h1v5h-1zm0.5-5a2.5 3 0 0 1 0 6v-1a1.5 2 0 0 0 0-4 1.5 2 0 1 0 0 4v1a2.5 3 0 1 1 0-6zm4.5 0-2 6v1h2v3h1v-3h2v-1l-2-6zm0.5 1 1.5 5h-3z" fill="#93b685"/>
  <path d="M374,124m2 5h1v5h-1zm0.5-5a2.5 3 0 0 1 0 6v-1a1.5 2 0 0 0 0-4 1.5 2 0 1 0 0 4v1a2.5 3 0 1 1 0-6zm4.5 0-2 6v1h2v3h1v-3h2v-1l-2-6zm0.5 1 1.5 5h-3z" fill="#93b685"/>
  <path d="M470,132m2 5h1v5h-1zm0.5-5a2.5 3 0 0 1 0 6v-1a1.5 2 0 0 0 0-4 1.5 2 0 1 0 0 4v1a2.5 3 0 1 1 0-6zm4.5 0-2 6v1h2v3h1v-3h2v-1l-2-6zm0.5 1 1.5 5h-3z" fill="#93b685"/>
  <path d="M443,424m2 5h1v5h-1zm0.5-5a2.5 3 0 0 1 0 6v-1a1.5 2 0 0 0 0-4 1.5 2 0 1 0 0 4v1a2.5 3 0 1 1 0-6zm4.5 0-2 6v1h2v3h1v-3h2v-1l-2-6zm0.5 1 1.5 5h-3z" fill="#93b685"/>
  <path d="M40,16m2 5h1v5h-1zm0.5-5a2.5 3 0 0 1 0 6v-1a1.5 2 0 0 0 0-4 1.5 2 0 1 0 0 4v1a2.5 3 0 1 1 0-6zm4.5 0-2 6v1h2v3h1v-3h2v-1l-2-6zm0.5 1 1.5 5h-3z" fill="#93b685"/>
  <path d="M142,348m2 5h1v5h-1zm0.5-5a2.5 3 0 0 1 0 6v-1a1.5 2 0 0 0 0-4 1.5 2 0 1 0 0 4v1a2.5 3 0 1 1 0-6zm4.5 0-2 6v1h2v3h1v-3h2v-1l-2-6zm0.5 1 1.5 5h-3z" fill="#93b685"/>
  <path d="M373,176m2 5h1v5h-1zm0.5-5a2.5 3 0 0 1 0 6v-1a1.5 2 0 0 0 0-4 1.5 2 0 1 0 0 4v1a2.5 3 0 1 1 0-6zm4.5 0-2 6v1h2v3h1v-3h2v-1l-2-6zm0.5 1 1.5 5h-3z" fill="#93b685"/>
  <path d="M190,351m2 5h1v5h-1zm0.5-5a2.5 3 0 0 1 0 6v-1a1.5 2 0 0 0 0-4 1.5 2 0 1 0 0 4v1a2.5 3 0 1 1 0-6zm4.5 0-2 6v1h2v3h1v-3h2v-1l-2-6zm0.5 1 1.5 5h-3z" fill="#93b685"/>
  <path d="M507,234m2 5h1v5h-1zm0.5-5a2.5 3 0 0 1 0 6v-1a1.5 2 0 0 0 0-4 1.5 2 0 1 0 0 4v1a2.5 3 0 1 1 0-6zm4.5 0-2 6v1h2v3h1v-3h2v-1l-2-6zm0.5 1 1.5 5h-3z" fill="#93b685"/>
  <path d="M-5,234m2 5h1v5h-1zm0.5-5a2.5 3 0 0 1 0 6v-1a1.5 2 0 0 0 0-4 1.5 2 0 1 0 0 4v1a2.5 3 0 1 1 0-6zm4.5 0-2 6v1h2v3h1v-3h2v-1l-2-6zm0.5 1 1.5 5h-3z" fill="#93b685"/>
  <path d="M92,395m2 5h1v5h-1zm0.5-5a2.5 3 0 0 1 0 6v-1a1.5 2 0 0 0 0-4 1.5 2 0 1 0 0 4v1a2.5 3 0 1 1 0-6zm4.5 0-2 6v1h2v3h1v-3h2v-1l-2-6zm0.5 1 1.5 5h-3z" fill="#93b685"/>
</svg>
