<?xml version="1.0" encoding="UTF-8"?>
<svg version="1.1" width="256" height="256" viewBox="0 0 256 256" xmlns="http://www.w3.org/2000/svg">
  <path d="M8,5.5h7 M16,7.5h7 M24,3.5h7 M23,255.5h7 M36,3.5h7 M36,10.5h7 M48,5.5h7 M56,8.5h7 M63,4.5h7 M66,0.5h7 M81,4.5h7 M96,5.5h7 M94,9.5h7 M104,255.5h7 M115,3.5h7 M113,251.5h7 M123,0.5h7 M137,1.5h7 M138,7.5h7 M148,5.5h7 M158,4.5h7 M170,4.5h7 M179,6.5h7 M189,2.5h7 M197,6.5h7 M201,1.5h7 M210,255.5h7 M215,4.5h7 M222,1.5h7 M232,5.5h7 M240,2.5h7 M247,5.5h7 M-2,9.5h7 M254,9.5h7 M4,13.5h7 M16,12.5h7 M26,16.5h7 M38,15.5h7 M27,10.5h7 M48,12.5h7 M58,14.5h7 M67,9.5h7 M73,13.5h7 M80,9.5h7 M88,13.5h7 M105,13.5h7 M107,6.5h7 M113,10.5h7 M126,8.5h7 M124,14.5h7 M135,14.5h7 M142,11.5h7 M155,10.5h7 M160,14.5h7 M169,11.5h7 M178,13.5h7 M191,15.5h7 M188,9.5h7 M207,8.5h7 M205,14.5h7 M214,11.5h7 M223,15.5h7 M226,9.5h7 M237,14.5h7 M244,11.5h7 M250,18.5h7 M-6,18.5h7 M5,18.5h7 M15,18.5h7 M24,23.5h7 M33,21.5h7 M44,18.5h7 M51,22.5h7 M61,18.5h7 M64,23.5h7 M73,20.5h7 M81,18.5h7 M93,17.5h7 M105,19.5h7 M97,22.5h7 M112,22.5h7 M116,17.5h7 M128,19.5h7 M139,21.5h7 M149,23.5h7 M147,17.5h7 M158,18.5h7 M170,18.5h7 M183,17.5h7 M173,22.5h7 M189,22.5h7 M198,18.5h7 M205,22.5h7 M215,18.5h7 M221,23.5h7 M230,18.5h7 M237,22.5h7 M-3,23.5h7 M253,23.5h7 M5,27.5h7 M10,31.5h7 M14,24.5h7 M25,30.5h7 M34,26.5h7 M42,28.5h7 M54,31.5h7 M54,26.5h7 M65,30.5h7 M74,26.5h7 M82,29.5h7 M89,25.5h7 M95,30.5h7 M104,28.5h7 M114,29.5h7 M121,24.5h7 M128,28.5h7 M139,27.5h7 M145,31.5h7 M160,30.5h7 M159,24.5h7 M168,27.5h7 M177,31.5h7 M182,26.5h7 M190,29.5h7 M200,28.5h7 M212,25.5h7 M210,31.5h7 M222,30.5h7 M231,27.5h7 M244,25.5h7 M251,29.5h7 M-5,29.5h7 M252,39.5h7 M-4,39.5h7 M9,37.5h7 M17,34.5h7 M27,38.5h7 M31,34.5h7 M41,37.5h7 M42,32.5h7 M61,40.5h7 M59,35.5h7 M74,32.5h7 M73,37.5h7 M86,36.5h7 M98,35.5h7 M106,38.5h7 M113,35.5h7 M123,33.5h7 M129,38.5h7 M134,33.5h7 M144,37.5h7 M154,34.5h7 M161,38.5h7 M169,35.5h7 M179,39.5h7 M185,34.5h7 M193,38.5h7 M208,38.5h7 M201,34.5h7 M217,35.5h7 M232,35.5h7 M240,31.5h7 M240,38.5h7 M252,34.5h7 M-4,34.5h7 M4,42.5h7 M11,45.5h7 M17,41.5h7 M24,44.5h7 M36,45.5h7 M41,42.5h7 M51,41.5h7 M53,46.5h7 M67,45.5h7 M74,42.5h7 M84,42.5h7 M91,45.5h7 M97,41.5h7 M106,45.5h7 M115,48.5h7 M116,41.5h7 M127,43.5h7 M138,41.5h7 M146,45.5h7 M154,42.5h7 M160,46.5h7 M170,42.5h7 M176,46.5h7 M186,44.5h7 M194,48.5h7 M197,42.5h7 M211,43.5h7 M220,46.5h7 M221,39.5h7 M228,43.5h7 M237,46.5h7 M242,42.5h7 M-1,47.5h7 M255,47.5h7 M9,51.5h7 M18,55.5h7 M22,50.5h7 M38,50.5h7 M32,55.5h7 M50,52.5h7 M61,54.5h7 M62,49.5h7 M74,51.5h7 M84,50.5h7 M93,54.5h7 M98,49.5h7 M106,52.5h7 M106,58.5h7 M119,51.5h7 M130,47.5h7 M133,53.5h7 M142,49.5h7 M149,53.5h7 M161,53.5h7 M166,49.5h7 M175,53.5h7 M183,50.5h7 M192,53.5h7 M206,47.5h7 M208,54.5h7 M215,50.5h7 M224,53.5h7 M234,52.5h7 M243,55.5h7 M245,50.5h7 M252,59.5h7 M-4,59.5h7 M9,58.5h7 M14,63.5h7 M23,58.5h7 M35,61.5h7 M46,62.5h7 M44,55.5h7 M53,58.5h7 M67,59.5h7 M76,56.5h7 M80,61.5h7 M89,58.5h7 M96,61.5h7 M110,63.5h7 M121,56.5h7 M120,61.5h7 M130,61.5h7 M141,63.5h7 M139,56.5h7 M151,58.5h7 M160,61.5h7 M168,57.5h7 M176,61.5h7 M184,57.5h7 M192,61.5h7 M200,57.5h7 M207,61.5h7 M219,59.5h7 M224,63.5h7 M231,58.5h7 M239,60.5h7 M0,54.5h7 M250,64.5h7 M-6,64.5h7 M6,66.5h7 M18,69.5h7 M26,64.5h7 M29,70.5h7 M38,66.5h7 M51,67.5h7 M58,63.5h7 M67,65.5h7 M70,70.5h7 M80,65.5h7 M84,69.5h7 M97,70.5h7 M100,65.5h7 M111,70.5h7 M118,67.5h7 M130,67.5h7 M139,70.5h7 M148,66.5h7 M153,71.5h7 M160,67.5h7 M169,65.5h7 M181,70.5h7 M184,65.5h7 M195,67.5h7 M196,72.5h7 M206,68.5h7 M213,64.5h7 M224,68.5h7 M237,71.5h7 M238,66.5h7 M-3,69.5h7 M253,69.5h7 M9,72.5h7 M11,79.5h7 M17,75.5h7 M26,78.5h7 M34,75.5h7 M41,72.5h7 M47,76.5h7 M58,77.5h7 M58,72.5h7 M68,76.5h7 M79,74.5h7 M90,75.5h7 M102,74.5h7 M104,79.5h7 M113,76.5h7 M120,80.5h7 M123,74.5h7 M133,74.5h7 M144,75.5h7 M153,79.5h7 M160,75.5h7 M168,71.5h7 M177,75.5h7 M188,76.5h7 M201,80.5h7 M206,75.5h7 M215,78.5h7 M213,72.5h7 M228,78.5h7 M228,72.5h7 M246,73.5h7 M-2,76.5h7 M254,76.5h7 M251,86.5h7 M-5,86.5h7 M2,81.5h7 M17,82.5h7 M26,85.5h7 M34,82.5h7 M43,85.5h7 M49,81.5h7 M58,86.5h7 M64,82.5h7 M75,84.5h7 M76,79.5h7 M89,81.5h7 M90,87.5h7 M98,84.5h7 M111,84.5h7 M131,81.5h7 M122,86.5h7 M139,85.5h7 M144,81.5h7 M159,83.5h7 M164,86.5h7 M169,79.5h7 M176,83.5h7 M189,87.5h7 M189,81.5h7 M198,85.5h7 M204,88.5h7 M214,85.5h7 M221,82.5h7 M231,84.5h7 M241,79.5h7 M245,83.5h7 M5,87.5h7 M9,91.5h7 M20,89.5h7 M28,94.5h7 M34,89.5h7 M41,92.5h7 M49,95.5h7 M56,91.5h7 M66,89.5h7 M72,93.5h7 M87,93.5h7 M81,88.5h7 M97,90.5h7 M106,92.5h7 M113,89.5h7 M121,93.5h7 M137,93.5h7 M130,88.5h7 M144,89.5h7 M151,92.5h7 M160,91.5h7 M170,93.5h7 M175,88.5h7 M184,92.5h7 M192,95.5h7 M202,93.5h7 M212,96.5h7 M213,90.5h7 M224,91.5h7 M234,89.5h7 M241,93.5h7 M248,91.5h7 M2,95.5h7 M16,95.5h7 M13,100.5h7 M21,103.5h7 M31,99.5h7 M41,98.5h7 M45,102.5h7 M59,103.5h7 M62,96.5h7 M71,100.5h7 M79,97.5h7 M96,97.5h7 M89,100.5h7 M110,97.5h7 M105,101.5h7 M121,99.5h7 M128,102.5h7 M136,99.5h7 M145,102.5h7 M148,97.5h7 M158,100.5h7 M168,98.5h7 M180,97.5h7 M178,103.5h7 M190,100.5h7 M203,99.5h7 M214,104.5h7 M222,102.5h7 M225,98.5h7 M233,96.5h7 M240,100.5h7 M-3,100.5h7 M253,100.5h7 M4,104.5h7 M2,109.5h7 M13,107.5h7 M22,109.5h7 M31,106.5h7 M41,107.5h7 M51,108.5h7 M62,108.5h7 M69,113.5h7 M71,105.5h7 M79,108.5h7 M91,105.5h7 M89,110.5h7 M104,106.5h7 M119,106.5h7 M116,110.5h7 M132,107.5h7 M137,110.5h7 M151,106.5h7 M155,110.5h7 M165,104.5h7 M168,110.5h7 M179,111.5h7 M184,107.5h7 M195,110.5h7 M196,104.5h7 M207,106.5h7 M215,110.5h7 M227,108.5h7 M234,104.5h7 M246,109.5h7 M246,104.5h7 M0,114.5h7 M10,118.5h7 M13,113.5h7 M21,116.5h7 M31,113.5h7 M42,118.5h7 M45,113.5h7 M53,116.5h7 M62,117.5h7 M74,118.5h7 M81,114.5h7 M89,117.5h7 M101,111.5h7 M105,115.5h7 M111,118.5h7 M120,116.5h7 M128,113.5h7 M138,116.5h7 M146,119.5h7 M147,113.5h7 M159,114.5h7 M164,118.5h7 M175,115.5h7 M188,114.5h7 M194,118.5h7 M204,113.5h7 M207,118.5h7 M219,114.5h7 M226,117.5h7 M235,118.5h7 M236,112.5h7 M246,117.5h7 M2,122.5h7 M10,126.5h7 M18,121.5h7 M30,120.5h7 M34,124.5h7 M40,127.5h7 M50,121.5h7 M54,126.5h7 M71,127.5h7 M65,123.5h7 M79,123.5h7 M90,124.5h7 M98,119.5h7 M99,126.5h7 M109,124.5h7 M122,123.5h7 M133,127.5h7 M130,120.5h7 M140,124.5h7 M153,125.5h7 M158,122.5h7 M170,125.5h7 M176,121.5h7 M187,122.5h7 M192,128.5h7 M202,122.5h7 M206,127.5h7 M218,120.5h7 M219,125.5h7 M234,124.5h7 M245,128.5h7 M246,123.5h7 M2,128.5h7 M11,132.5h7 M22,133.5h7 M22,127.5h7 M30,130.5h7 M43,135.5h7 M48,131.5h7 M62,130.5h7 M59,135.5h7 M76,130.5h7 M84,134.5h7 M91,130.5h7 M99,134.5h7 M106,129.5h7 M116,136.5h7 M117,132.5h7 M122,129.5h7 M138,130.5h7 M144,135.5h7 M152,130.5h7 M162,134.5h7 M167,130.5h7 M177,133.5h7 M180,128.5h7 M196,135.5h7 M199,131.5h7 M213,129.5h7 M212,134.5h7 M227,134.5h7 M227,128.5h7 M237,132.5h7 M252,133.5h7 M-4,133.5h7 M-1,141.5h7 M255,141.5h7 M11,141.5h7 M14,137.5h7 M26,141.5h7 M31,137.5h7 M39,140.5h7 M46,142.5h7 M61,143.5h7 M63,138.5h7 M75,137.5h7 M82,141.5h7 M90,138.5h7 M95,143.5h7 M106,145.5h7 M106,138.5h7 M114,142.5h7 M128,139.5h7 M130,135.5h7 M146,141.5h7 M155,137.5h7 M160,141.5h7 M171,143.5h7 M173,138.5h7 M184,142.5h7 M185,136.5h7 M203,138.5h7 M204,144.5h7 M212,141.5h7 M223,139.5h7 M235,138.5h7 M242,141.5h7 M251,137.5h7 M-5,137.5h7 M-1,146.5h7 M255,146.5h7 M8,150.5h7 M14,146.5h7 M23,147.5h7 M31,150.5h7 M39,147.5h7 M50,145.5h7 M54,149.5h7 M68,148.5h7 M74,143.5h7 M77,151.5h7 M84,148.5h7 M98,148.5h7 M107,151.5h7 M116,148.5h7 M129,149.5h7 M127,144.5h7 M138,143.5h7 M141,149.5h7 M150,147.5h7 M160,151.5h7 M164,147.5h7 M178,147.5h7 M190,145.5h7 M187,151.5h7 M197,149.5h7 M219,152.5h7 M212,148.5h7 M222,144.5h7 M227,148.5h7 M238,145.5h7 M245,149.5h7 M250,153.5h7 M-6,153.5h7 M7,155.5h7 M17,157.5h7 M25,154.5h7 M33,158.5h7 M39,154.5h7 M48,156.5h7 M61,157.5h7 M61,152.5h7 M73,157.5h7 M89,158.5h7 M82,155.5h7 M96,154.5h7 M104,159.5h7 M111,155.5h7 M121,153.5h7 M127,156.5h7 M136,159.5h7 M143,156.5h7 M151,153.5h7 M155,158.5h7 M167,156.5h7 M173,152.5h7 M182,156.5h7 M198,156.5h7 M207,159.5h7 M205,152.5h7 M216,157.5h7 M230,155.5h7 M236,152.5h7 M241,158.5h7 M-1,158.5h7 M255,158.5h7 M0,165.5h7 M13,166.5h7 M10,160.5h7 M23,162.5h7 M31,165.5h7 M43,162.5h7 M52,167.5h7 M55,161.5h7 M62,165.5h7 M72,164.5h7 M82,162.5h7 M89,166.5h7 M101,167.5h7 M97,162.5h7 M113,162.5h7 M123,167.5h7 M125,162.5h7 M134,165.5h7 M145,163.5h7 M156,165.5h7 M163,162.5h7 M171,165.5h7 M177,160.5h7 M186,165.5h7 M190,160.5h7 M199,164.5h7 M209,165.5h7 M221,166.5h7 M223,160.5h7 M233,162.5h7 M249,162.5h7 M238,166.5h7 M1,173.5h7 M9,170.5h7 M19,174.5h7 M23,169.5h7 M32,172.5h7 M40,168.5h7 M46,172.5h7 M62,173.5h7 M69,170.5h7 M78,172.5h7 M90,171.5h7 M86,176.5h7 M99,175.5h7 M112,168.5h7 M108,173.5h7 M124,172.5h7 M133,176.5h7 M138,171.5h7 M146,168.5h7 M148,175.5h7 M156,172.5h7 M167,170.5h7 M173,173.5h7 M184,172.5h7 M189,169.5h7 M200,170.5h7 M208,173.5h7 M218,171.5h7 M228,170.5h7 M231,175.5h7 M240,172.5h7 M248,169.5h7 M0,179.5h7 M9,183.5h7 M16,178.5h7 M25,183.5h7 M31,179.5h7 M38,176.5h7 M47,180.5h7 M54,175.5h7 M69,182.5h7 M61,179.5h7 M75,178.5h7 M85,183.5h7 M94,179.5h7 M108,180.5h7 M117,175.5h7 M117,183.5h7 M126,180.5h7 M139,179.5h7 M148,183.5h7 M156,179.5h7 M171,183.5h7 M167,177.5h7 M179,179.5h7 M186,177.5h7 M193,180.5h7 M201,177.5h7 M208,181.5h7 M217,177.5h7 M224,180.5h7 M233,184.5h7 M240,180.5h7 M248,176.5h7 M-1,185.5h7 M255,185.5h7 M7,190.5h7 M17,187.5h7 M28,191.5h7 M32,186.5h7 M39,190.5h7 M46,185.5h7 M54,189.5h7 M62,186.5h7 M71,189.5h7 M78,186.5h7 M91,191.5h7 M94,185.5h7 M102,189.5h7 M110,186.5h7 M118,189.5h7 M132,189.5h7 M138,185.5h7 M142,192.5h7 M150,188.5h7 M162,185.5h7 M169,190.5h7 M179,186.5h7 M185,190.5h7 M194,185.5h7 M200,189.5h7 M210,186.5h7 M222,185.5h7 M216,190.5h7 M232,190.5h7 M242,185.5h7 M247,189.5h7 M0,193.5h7 M15,192.5h7 M15,197.5h7 M27,196.5h7 M32,199.5h7 M45,193.5h7 M54,196.5h7 M62,193.5h7 M63,199.5h7 M72,196.5h7 M79,192.5h7 M85,197.5h7 M95,199.5h7 M103,194.5h7 M109,197.5h7 M127,198.5h7 M123,192.5h7 M133,195.5h7 M146,196.5h7 M157,192.5h7 M156,198.5h7 M165,196.5h7 M176,193.5h7 M186,197.5h7 M192,194.5h7 M201,198.5h7 M208,193.5h7 M218,197.5h7 M224,194.5h7 M234,198.5h7 M240,194.5h7 M249,196.5h7 M3,201.5h7 M9,204.5h7 M18,207.5h7 M21,202.5h7 M29,205.5h7 M43,204.5h7 M45,200.5h7 M55,203.5h7 M61,207.5h7 M73,202.5h7 M82,205.5h7 M89,202.5h7 M96,207.5h7 M104,204.5h7 M116,199.5h7 M118,204.5h7 M125,206.5h7 M136,203.5h7 M146,201.5h7 M152,206.5h7 M163,202.5h7 M170,205.5h7 M177,200.5h7 M184,205.5h7 M194,202.5h7 M203,204.5h7 M212,201.5h7 M217,205.5h7 M226,202.5h7 M234,205.5h7 M246,206.5h7 M248,201.5h7 M5,209.5h7 M3,214.5h7 M15,214.5h7 M26,211.5h7 M38,209.5h7 M44,214.5h7 M53,210.5h7 M56,216.5h7 M65,213.5h7 M74,215.5h7 M72,209.5h7 M86,215.5h7 M89,210.5h7 M104,210.5h7 M114,213.5h7 M121,210.5h7 M130,214.5h7 M135,209.5h7 M146,210.5h7 M161,209.5h7 M158,215.5h7 M167,213.5h7 M176,209.5h7 M183,213.5h7 M192,208.5h7 M197,213.5h7 M207,215.5h7 M207,210.5h7 M221,210.5h7 M229,213.5h7 M237,211.5h7 M250,211.5h7 M-6,211.5h7 M251,217.5h7 M-5,217.5h7 M9,221.5h7 M19,218.5h7 M31,216.5h7 M30,222.5h7 M40,218.5h7 M45,224.5h7 M52,221.5h7 M65,220.5h7 M76,223.5h7 M80,219.5h7 M95,216.5h7 M92,222.5h7 M107,222.5h7 M106,217.5h7 M118,218.5h7 M129,221.5h7 M137,217.5h7 M147,215.5h7 M148,222.5h7 M161,222.5h7 M168,218.5h7 M177,221.5h7 M185,219.5h7 M199,218.5h7 M192,222.5h7 M219,216.5h7 M213,220.5h7 M228,221.5h7 M236,217.5h7 M243,220.5h7 M-2,223.5h7 M254,223.5h7 M-3,229.5h7 M253,229.5h7 M6,227.5h7 M16,230.5h7 M17,224.5h7 M26,228.5h7 M38,228.5h7 M47,229.5h7 M57,227.5h7 M68,232.5h7 M69,226.5h7 M79,229.5h7 M91,228.5h7 M103,231.5h7 M100,225.5h7 M114,227.5h7 M122,224.5h7 M128,228.5h7 M138,223.5h7 M145,228.5h7 M155,231.5h7 M157,226.5h7 M168,227.5h7 M179,227.5h7 M188,229.5h7 M197,227.5h7 M204,230.5h7 M207,224.5h7 M219,230.5h7 M222,224.5h7 M230,227.5h7 M242,225.5h7 M239,230.5h7 M1,237.5h7 M9,234.5h7 M17,238.5h7 M25,234.5h7 M33,237.5h7 M40,234.5h7 M49,238.5h7 M56,234.5h7 M63,236.5h7 M69,240.5h7 M79,237.5h7 M86,233.5h7 M94,235.5h7 M108,236.5h7 M118,232.5h7 M119,238.5h7 M129,235.5h7 M137,231.5h7 M143,235.5h7 M155,237.5h7 M164,240.5h7 M165,233.5h7 M175,234.5h7 M185,233.5h7 M192,236.5h7 M203,238.5h7 M212,233.5h7 M215,239.5h7 M223,236.5h7 M233,234.5h7 M241,238.5h7 M249,234.5h7 M2,244.5h7 M3,248.5h7 M16,244.5h7 M25,241.5h7 M33,245.5h7 M44,248.5h7 M40,241.5h7 M50,244.5h7 M64,245.5h7 M76,242.5h7 M79,247.5h7 M90,242.5h7 M99,245.5h7 M100,239.5h7 M109,243.5h7 M122,243.5h7 M131,245.5h7 M132,240.5h7 M142,243.5h7 M153,242.5h7 M160,247.5h7 M170,246.5h7 M175,242.5h7 M183,239.5h7 M191,243.5h7 M201,245.5h7 M209,243.5h7 M219,246.5h7 M226,241.5h7 M232,245.5h7 M242,244.5h7 M249,241.5h7 M2,253.5h7 M11,0.5h7 M14,250.5h7 M24,248.5h7 M34,252.5h7 M43,0.5h7 M51,253.5h7 M65,251.5h7 M57,248.5h7 M74,254.5h7 M81,251.5h7 M89,0.5h7 M91,249.5h7 M98,253.5h7 M107,248.5h7 M123,249.5h7 M130,253.5h7 M147,254.5h7 M139,249.5h7 M151,249.5h7 M159,254.5h7 M170,253.5h7 M181,248.5h7 M178,255.5h7 M187,252.5h7 M194,249.5h7 M204,251.5h7 M218,252.5h7 M229,250.5h7 M233,254.5h7 M243,250.5h7 M249,255.5h7" stroke-width="1" stroke="#4aa5fa"/>
</svg>