<?xml version="1.0" encoding="UTF-8"?>
<svg version="1.1" width="512" height="512" viewBox="0 0 512 512" xmlns="http://www.w3.org/2000/svg">
  <path d="M8,5.5h7 M16,7.5h7 M24,3.5h7 M23,255.5h7 M36,3.5h7 M36,10.5h7 M48,5.5h7 M56,8.5h7 M63,4.5h7 M66,0.5h7 M81,4.5h7 M96,5.5h7 M94,9.5h7 M104,255.5h7 M115,3.5h7 M113,251.5h7 M123,0.5h7 M137,1.5h7 M138,7.5h7 M148,5.5h7 M158,4.5h7 M170,4.5h7 M179,6.5h7 M189,2.5h7 M197,6.5h7 M201,1.5h7 M210,255.5h7 M215,4.5h7 M222,1.5h7 M232,5.5h7 M240,2.5h7 M247,5.5h7 M-2,9.5h7 M254,9.5h7 M4,13.5h7 M16,12.5h7 M26,16.5h7 M38,15.5h7 M27,10.5h7 M48,12.5h7 M58,14.5h7 M67,9.5h7 M73,13.5h7 M80,9.5h7 M88,13.5h7 M105,13.5h7 M107,6.5h7 M113,10.5h7 M126,8.5h7 M124,14.5h7 M135,14.5h7 M142,11.5h7 M155,10.5h7 M160,14.5h7 M169,11.5h7 M178,13.5h7 M191,15.5h7 M188,9.5h7 M207,8.5h7 M205,14.5h7 M214,11.5h7 M223,15.5h7 M226,9.5h7 M237,14.5h7 M244,11.5h7 M250,18.5h7 M-6,18.5h7 M5,18.5h7 M15,18.5h7 M24,23.5h7 M33,21.5h7 M44,18.5h7 M51,22.5h7 M61,18.5h7 M64,23.5h7 M73,20.5h7 M81,18.5h7 M93,17.5h7 M105,19.5h7 M97,22.5h7 M112,22.5h7 M116,17.5h7 M128,19.5h7 M139,21.5h7 M149,23.5h7 M147,17.5h7 M158,18.5h7 M170,18.5h7 M183,17.5h7 M173,22.5h7 M189,22.5h7 M198,18.5h7 M205,22.5h7 M215,18.5h7 M221,23.5h7 M230,18.5h7 M237,22.5h7 M-3,23.5h7 M253,23.5h7 M5,27.5h7 M10,31.5h7 M14,24.5h7 M25,30.5h7 M34,26.5h7 M42,28.5h7 M54,31.5h7 M54,26.5h7 M65,30.5h7 M74,26.5h7 M82,29.5h7 M89,25.5h7 M95,30.5h7 M104,28.5h7 M114,29.5h7 M121,24.5h7 M128,28.5h7 M139,27.5h7 M145,31.5h7 M160,30.5h7 M159,24.5h7 M168,27.5h7 M177,31.5h7 M182,26.5h7 M190,29.5h7 M200,28.5h7 M212,25.5h7 M210,31.5h7 M222,30.5h7 M231,27.5h7 M244,25.5h7 M251,29.5h7 M-5,29.5h7 M252,39.5h7 M-4,39.5h7 M9,37.5h7 M17,34.5h7 M27,38.5h7 M31,34.5h7 M41,37.5h7 M42,32.5h7 M61,40.5h7 M59,35.5h7 M74,32.5h7 M73,37.5h7 M86,36.5h7 M98,35.5h7 M106,38.5h7 M113,35.5h7 M123,33.5h7 M129,38.5h7 M134,33.5h7 M144,37.5h7 M154,34.5h7 M161,38.5h7 M169,35.5h7 M179,39.5h7 M185,34.5h7 M193,38.5h7 M208,38.5h7 M201,34.5h7 M217,35.5h7 M232,35.5h7 M240,31.5h7 M240,38.5h7 M252,34.5h7 M-4,34.5h7 M4,42.5h7 M11,45.5h7 M17,41.5h7 M24,44.5h7 M36,45.5h7 M41,42.5h7 M51,41.5h7 M53,46.5h7 M67,45.5h7 M74,42.5h7 M84,42.5h7 M91,45.5h7 M97,41.5h7 M106,45.5h7 M115,48.5h7 M116,41.5h7 M127,43.5h7 M138,41.5h7 M146,45.5h7 M154,42.5h7 M160,46.5h7 M170,42.5h7 M176,46.5h7 M186,44.5h7 M194,48.5h7 M197,42.5h7 M211,43.5h7 M220,46.5h7 M221,39.5h7 M228,43.5h7 M237,46.5h7 M242,42.5h7 M-1,47.5h7 M255,47.5h7 M9,51.5h7 M18,55.5h7 M22,50.5h7 M38,50.5h7 M32,55.5h7 M50,52.5h7 M61,54.5h7 M62,49.5h7 M74,51.5h7 M84,50.5h7 M93,54.5h7 M98,49.5h7 M106,52.5h7 M106,58.5h7 M119,51.5h7 M130,47.5h7 M133,53.5h7 M142,49.5h7 M149,53.5h7 M161,53.5h7 M166,49.5h7 M175,53.5h7 M183,50.5h7 M192,53.5h7 M206,47.5h7 M208,54.5h7 M215,50.5h7 M224,53.5h7 M234,52.5h7 M243,55.5h7 M245,50.5h7 M252,59.5h7 M-4,59.5h7 M9,58.5h7 M14,63.5h7 M23,58.5h7 M35,61.5h7 M46,62.5h7 M44,55.5h7 M53,58.5h7 M67,59.5h7 M76,56.5h7 M80,61.5h7 M89,58.5h7 M96,61.5h7 M110,63.5h7 M121,56.5h7 M120,61.5h7 M130,61.5h7 M141,63.5h7 M139,56.5h7 M151,58.5h7 M160,61.5h7 M168,57.5h7 M176,61.5h7 M184,57.5h7 M192,61.5h7 M200,57.5h7 M207,61.5h7 M219,59.5h7 M224,63.5h7 M231,58.5h7 M239,60.5h7 M0,54.5h7 M250,64.5h7 M-6,64.5h7 M6,66.5h7 M18,69.5h7 M26,64.5h7 M29,70.5h7 M38,66.5h7 M51,67.5h7 M58,63.5h7 M67,65.5h7 M70,70.5h7 M80,65.5h7 M84,69.5h7 M97,70.5h7 M100,65.5h7 M111,70.5h7 M118,67.5h7 M130,67.5h7 M139,70.5h7 M148,66.5h7 M153,71.5h7 M160,67.5h7 M169,65.5h7 M181,70.5h7 M184,65.5h7 M195,67.5h7 M196,72.5h7 M206,68.5h7 M213,64.5h7 M224,68.5h7 M237,71.5h7 M238,66.5h7 M-3,69.5h7 M253,69.5h7 M9,72.5h7 M11,79.5h7 M17,75.5h7 M26,78.5h7 M34,75.5h7 M41,72.5h7 M47,76.5h7 M58,77.5h7 M58,72.5h7 M68,76.5h7 M79,74.5h7 M90,75.5h7 M102,74.5h7 M104,79.5h7 M113,76.5h7 M120,80.5h7 M123,74.5h7 M133,74.5h7 M144,75.5h7 M153,79.5h7 M160,75.5h7 M168,71.5h7 M177,75.5h7 M188,76.5h7 M201,80.5h7 M206,75.5h7 M215,78.5h7 M213,72.5h7 M228,78.5h7 M228,72.5h7 M246,73.5h7 M-2,76.5h7 M254,76.5h7 M251,86.5h7 M-5,86.5h7 M2,81.5h7 M17,82.5h7 M26,85.5h7 M34,82.5h7 M43,85.5h7 M49,81.5h7 M58,86.5h7 M64,82.5h7 M75,84.5h7 M76,79.5h7 M89,81.5h7 M90,87.5h7 M98,84.5h7 M111,84.5h7 M131,81.5h7 M122,86.5h7 M139,85.5h7 M144,81.5h7 M159,83.5h7 M164,86.5h7 M169,79.5h7 M176,83.5h7 M189,87.5h7 M189,81.5h7 M198,85.5h7 M204,88.5h7 M214,85.5h7 M221,82.5h7 M231,84.5h7 M241,79.5h7 M245,83.5h7 M5,87.5h7 M9,91.5h7 M20,89.5h7 M28,94.5h7 M34,89.5h7 M41,92.5h7 M49,95.5h7 M56,91.5h7 M66,89.5h7 M72,93.5h7 M87,93.5h7 M81,88.5h7 M97,90.5h7 M106,92.5h7 M113,89.5h7 M121,93.5h7 M137,93.5h7 M130,88.5h7 M144,89.5h7 M151,92.5h7 M160,91.5h7 M170,93.5h7 M175,88.5h7 M184,92.5h7 M192,95.5h7 M202,93.5h7 M212,96.5h7 M213,90.5h7 M224,91.5h7 M234,89.5h7 M241,93.5h7 M248,91.5h7 M2,95.5h7 M16,95.5h7 M13,100.5h7 M21,103.5h7 M31,99.5h7 M41,98.5h7 M45,102.5h7 M59,103.5h7 M62,96.5h7 M71,100.5h7 M79,97.5h7 M96,97.5h7 M89,100.5h7 M110,97.5h7 M105,101.5h7 M121,99.5h7 M128,102.5h7 M136,99.5h7 M145,102.5h7 M148,97.5h7 M158,100.5h7 M168,98.5h7 M180,97.5h7 M178,103.5h7 M190,100.5h7 M203,99.5h7 M214,104.5h7 M222,102.5h7 M225,98.5h7 M233,96.5h7 M240,100.5h7 M-3,100.5h7 M253,100.5h7 M4,104.5h7 M2,109.5h7 M13,107.5h7 M22,109.5h7 M31,106.5h7 M41,107.5h7 M51,108.5h7 M62,108.5h7 M69,113.5h7 M71,105.5h7 M79,108.5h7 M91,105.5h7 M89,110.5h7 M104,106.5h7 M119,106.5h7 M116,110.5h7 M132,107.5h7 M137,110.5h7 M151,106.5h7 M155,110.5h7 M165,104.5h7 M168,110.5h7 M179,111.5h7 M184,107.5h7 M195,110.5h7 M196,104.5h7 M207,106.5h7 M215,110.5h7 M227,108.5h7 M234,104.5h7 M246,109.5h7 M246,104.5h7 M0,114.5h7 M10,118.5h7 M13,113.5h7 M21,116.5h7 M31,113.5h7 M42,118.5h7 M45,113.5h7 M53,116.5h7 M62,117.5h7 M74,118.5h7 M81,114.5h7 M89,117.5h7 M101,111.5h7 M105,115.5h7 M111,118.5h7 M120,116.5h7 M128,113.5h7 M138,116.5h7 M146,119.5h7 M147,113.5h7 M159,114.5h7 M164,118.5h7 M175,115.5h7 M188,114.5h7 M194,118.5h7 M204,113.5h7 M207,118.5h7 M219,114.5h7 M226,117.5h7 M235,118.5h7 M236,112.5h7 M246,117.5h7 M2,122.5h7 M10,126.5h7 M18,121.5h7 M30,120.5h7 M34,124.5h7 M40,127.5h7 M50,121.5h7 M54,126.5h7 M71,127.5h7 M65,123.5h7 M79,123.5h7 M90,124.5h7 M98,119.5h7 M99,126.5h7 M109,124.5h7 M122,123.5h7 M133,127.5h7 M130,120.5h7 M140,124.5h7 M153,125.5h7 M158,122.5h7 M170,125.5h7 M176,121.5h7 M187,122.5h7 M192,128.5h7 M202,122.5h7 M206,127.5h7 M218,120.5h7 M219,125.5h7 M234,124.5h7 M245,128.5h7 M246,123.5h7 M2,128.5h7 M11,132.5h7 M22,133.5h7 M22,127.5h7 M30,130.5h7 M43,135.5h7 M48,131.5h7 M62,130.5h7 M59,135.5h7 M76,130.5h7 M84,134.5h7 M91,130.5h7 M99,134.5h7 M106,129.5h7 M116,136.5h7 M117,132.5h7 M122,129.5h7 M138,130.5h7 M144,135.5h7 M152,130.5h7 M162,134.5h7 M167,130.5h7 M177,133.5h7 M180,128.5h7 M196,135.5h7 M199,131.5h7 M213,129.5h7 M212,134.5h7 M227,134.5h7 M227,128.5h7 M237,132.5h7 M252,133.5h7 M-4,133.5h7 M-1,141.5h7 M255,141.5h7 M11,141.5h7 M14,137.5h7 M26,141.5h7 M31,137.5h7 M39,140.5h7 M46,142.5h7 M61,143.5h7 M63,138.5h7 M75,137.5h7 M82,141.5h7 M90,138.5h7 M95,143.5h7 M106,145.5h7 M106,138.5h7 M114,142.5h7 M128,139.5h7 M130,135.5h7 M146,141.5h7 M155,137.5h7 M160,141.5h7 M171,143.5h7 M173,138.5h7 M184,142.5h7 M185,136.5h7 M203,138.5h7 M204,144.5h7 M212,141.5h7 M223,139.5h7 M235,138.5h7 M242,141.5h7 M251,137.5h7 M-5,137.5h7 M-1,146.5h7 M255,146.5h7 M8,150.5h7 M14,146.5h7 M23,147.5h7 M31,150.5h7 M39,147.5h7 M50,145.5h7 M54,149.5h7 M68,148.5h7 M74,143.5h7 M77,151.5h7 M84,148.5h7 M98,148.5h7 M107,151.5h7 M116,148.5h7 M129,149.5h7 M127,144.5h7 M138,143.5h7 M141,149.5h7 M150,147.5h7 M160,151.5h7 M164,147.5h7 M178,147.5h7 M190,145.5h7 M187,151.5h7 M197,149.5h7 M219,152.5h7 M212,148.5h7 M222,144.5h7 M227,148.5h7 M238,145.5h7 M245,149.5h7 M250,153.5h7 M-6,153.5h7 M7,155.5h7 M17,157.5h7 M25,154.5h7 M33,158.5h7 M39,154.5h7 M48,156.5h7 M61,157.5h7 M61,152.5h7 M73,157.5h7 M89,158.5h7 M82,155.5h7 M96,154.5h7 M104,159.5h7 M111,155.5h7 M121,153.5h7 M127,156.5h7 M136,159.5h7 M143,156.5h7 M151,153.5h7 M155,158.5h7 M167,156.5h7 M173,152.5h7 M182,156.5h7 M198,156.5h7 M207,159.5h7 M205,152.5h7 M216,157.5h7 M230,155.5h7 M236,152.5h7 M241,158.5h7 M-1,158.5h7 M255,158.5h7 M0,165.5h7 M13,166.5h7 M10,160.5h7 M23,162.5h7 M31,165.5h7 M43,162.5h7 M52,167.5h7 M55,161.5h7 M62,165.5h7 M72,164.5h7 M82,162.5h7 M89,166.5h7 M101,167.5h7 M97,162.5h7 M113,162.5h7 M123,167.5h7 M125,162.5h7 M134,165.5h7 M145,163.5h7 M156,165.5h7 M163,162.5h7 M171,165.5h7 M177,160.5h7 M186,165.5h7 M190,160.5h7 M199,164.5h7 M209,165.5h7 M221,166.5h7 M223,160.5h7 M233,162.5h7 M249,162.5h7 M238,166.5h7 M1,173.5h7 M9,170.5h7 M19,174.5h7 M23,169.5h7 M32,172.5h7 M40,168.5h7 M46,172.5h7 M62,173.5h7 M69,170.5h7 M78,172.5h7 M90,171.5h7 M86,176.5h7 M99,175.5h7 M112,168.5h7 M108,173.5h7 M124,172.5h7 M133,176.5h7 M138,171.5h7 M146,168.5h7 M148,175.5h7 M156,172.5h7 M167,170.5h7 M173,173.5h7 M184,172.5h7 M189,169.5h7 M200,170.5h7 M208,173.5h7 M218,171.5h7 M228,170.5h7 M231,175.5h7 M240,172.5h7 M248,169.5h7 M0,179.5h7 M9,183.5h7 M16,178.5h7 M25,183.5h7 M31,179.5h7 M38,176.5h7 M47,180.5h7 M54,175.5h7 M69,182.5h7 M61,179.5h7 M75,178.5h7 M85,183.5h7 M94,179.5h7 M108,180.5h7 M117,175.5h7 M117,183.5h7 M126,180.5h7 M139,179.5h7 M148,183.5h7 M156,179.5h7 M171,183.5h7 M167,177.5h7 M179,179.5h7 M186,177.5h7 M193,180.5h7 M201,177.5h7 M208,181.5h7 M217,177.5h7 M224,180.5h7 M233,184.5h7 M240,180.5h7 M248,176.5h7 M-1,185.5h7 M255,185.5h7 M7,190.5h7 M17,187.5h7 M28,191.5h7 M32,186.5h7 M39,190.5h7 M46,185.5h7 M54,189.5h7 M62,186.5h7 M71,189.5h7 M78,186.5h7 M91,191.5h7 M94,185.5h7 M102,189.5h7 M110,186.5h7 M118,189.5h7 M132,189.5h7 M138,185.5h7 M142,192.5h7 M150,188.5h7 M162,185.5h7 M169,190.5h7 M179,186.5h7 M185,190.5h7 M194,185.5h7 M200,189.5h7 M210,186.5h7 M222,185.5h7 M216,190.5h7 M232,190.5h7 M242,185.5h7 M247,189.5h7 M0,193.5h7 M15,192.5h7 M15,197.5h7 M27,196.5h7 M32,199.5h7 M45,193.5h7 M54,196.5h7 M62,193.5h7 M63,199.5h7 M72,196.5h7 M79,192.5h7 M85,197.5h7 M95,199.5h7 M103,194.5h7 M109,197.5h7 M127,198.5h7 M123,192.5h7 M133,195.5h7 M146,196.5h7 M157,192.5h7 M156,198.5h7 M165,196.5h7 M176,193.5h7 M186,197.5h7 M192,194.5h7 M201,198.5h7 M208,193.5h7 M218,197.5h7 M224,194.5h7 M234,198.5h7 M240,194.5h7 M249,196.5h7 M3,201.5h7 M9,204.5h7 M18,207.5h7 M21,202.5h7 M29,205.5h7 M43,204.5h7 M45,200.5h7 M55,203.5h7 M61,207.5h7 M73,202.5h7 M82,205.5h7 M89,202.5h7 M96,207.5h7 M104,204.5h7 M116,199.5h7 M118,204.5h7 M125,206.5h7 M136,203.5h7 M146,201.5h7 M152,206.5h7 M163,202.5h7 M170,205.5h7 M177,200.5h7 M184,205.5h7 M194,202.5h7 M203,204.5h7 M212,201.5h7 M217,205.5h7 M226,202.5h7 M234,205.5h7 M246,206.5h7 M248,201.5h7 M5,209.5h7 M3,214.5h7 M15,214.5h7 M26,211.5h7 M38,209.5h7 M44,214.5h7 M53,210.5h7 M56,216.5h7 M65,213.5h7 M74,215.5h7 M72,209.5h7 M86,215.5h7 M89,210.5h7 M104,210.5h7 M114,213.5h7 M121,210.5h7 M130,214.5h7 M135,209.5h7 M146,210.5h7 M161,209.5h7 M158,215.5h7 M167,213.5h7 M176,209.5h7 M183,213.5h7 M192,208.5h7 M197,213.5h7 M207,215.5h7 M207,210.5h7 M221,210.5h7 M229,213.5h7 M237,211.5h7 M250,211.5h7 M-6,211.5h7 M251,217.5h7 M-5,217.5h7 M9,221.5h7 M19,218.5h7 M31,216.5h7 M30,222.5h7 M40,218.5h7 M45,224.5h7 M52,221.5h7 M65,220.5h7 M76,223.5h7 M80,219.5h7 M95,216.5h7 M92,222.5h7 M107,222.5h7 M106,217.5h7 M118,218.5h7 M129,221.5h7 M137,217.5h7 M147,215.5h7 M148,222.5h7 M161,222.5h7 M168,218.5h7 M177,221.5h7 M185,219.5h7 M199,218.5h7 M192,222.5h7 M219,216.5h7 M213,220.5h7 M228,221.5h7 M236,217.5h7 M243,220.5h7 M-2,223.5h7 M254,223.5h7 M-3,229.5h7 M253,229.5h7 M6,227.5h7 M16,230.5h7 M17,224.5h7 M26,228.5h7 M38,228.5h7 M47,229.5h7 M57,227.5h7 M68,232.5h7 M69,226.5h7 M79,229.5h7 M91,228.5h7 M103,231.5h7 M100,225.5h7 M114,227.5h7 M122,224.5h7 M128,228.5h7 M138,223.5h7 M145,228.5h7 M155,231.5h7 M157,226.5h7 M168,227.5h7 M179,227.5h7 M188,229.5h7 M197,227.5h7 M204,230.5h7 M207,224.5h7 M219,230.5h7 M222,224.5h7 M230,227.5h7 M242,225.5h7 M239,230.5h7 M1,237.5h7 M9,234.5h7 M17,238.5h7 M25,234.5h7 M33,237.5h7 M40,234.5h7 M49,238.5h7 M56,234.5h7 M63,236.5h7 M69,240.5h7 M79,237.5h7 M86,233.5h7 M94,235.5h7 M108,236.5h7 M118,232.5h7 M119,238.5h7 M129,235.5h7 M137,231.5h7 M143,235.5h7 M155,237.5h7 M164,240.5h7 M165,233.5h7 M175,234.5h7 M185,233.5h7 M192,236.5h7 M203,238.5h7 M212,233.5h7 M215,239.5h7 M223,236.5h7 M233,234.5h7 M241,238.5h7 M249,234.5h7 M2,244.5h7 M3,248.5h7 M16,244.5h7 M25,241.5h7 M33,245.5h7 M44,248.5h7 M40,241.5h7 M50,244.5h7 M64,245.5h7 M76,242.5h7 M79,247.5h7 M90,242.5h7 M99,245.5h7 M100,239.5h7 M109,243.5h7 M122,243.5h7 M131,245.5h7 M132,240.5h7 M142,243.5h7 M153,242.5h7 M160,247.5h7 M170,246.5h7 M175,242.5h7 M183,239.5h7 M191,243.5h7 M201,245.5h7 M209,243.5h7 M219,246.5h7 M226,241.5h7 M232,245.5h7 M242,244.5h7 M249,241.5h7 M2,253.5h7 M11,0.5h7 M14,250.5h7 M24,248.5h7 M34,252.5h7 M43,0.5h7 M51,253.5h7 M65,251.5h7 M57,248.5h7 M74,254.5h7 M81,251.5h7 M89,0.5h7 M91,249.5h7 M98,253.5h7 M107,248.5h7 M123,249.5h7 M130,253.5h7 M147,254.5h7 M139,249.5h7 M151,249.5h7 M159,254.5h7 M170,253.5h7 M181,248.5h7 M178,255.5h7 M187,252.5h7 M194,249.5h7 M204,251.5h7 M218,252.5h7 M229,250.5h7 M233,254.5h7 M243,250.5h7 M249,255.5h7 M264,5.5h7 M272,7.5h7 M280,3.5h7 M279,255.5h7 M292,3.5h7 M292,10.5h7 M304,5.5h7 M312,8.5h7 M319,4.5h7 M322,0.5h7 M337,4.5h7 M352,5.5h7 M350,9.5h7 M360,255.5h7 M371,3.5h7 M369,251.5h7 M379,0.5h7 M393,1.5h7 M394,7.5h7 M404,5.5h7 M414,4.5h7 M426,4.5h7 M435,6.5h7 M445,2.5h7 M453,6.5h7 M457,1.5h7 M466,255.5h7 M471,4.5h7 M478,1.5h7 M488,5.5h7 M496,2.5h7 M503,5.5h7 M510,9.5h7 M260,13.5h7 M272,12.5h7 M282,16.5h7 M294,15.5h7 M283,10.5h7 M304,12.5h7 M314,14.5h7 M323,9.5h7 M329,13.5h7 M336,9.5h7 M344,13.5h7 M361,13.5h7 M363,6.5h7 M369,10.5h7 M382,8.5h7 M380,14.5h7 M391,14.5h7 M398,11.5h7 M411,10.5h7 M416,14.5h7 M425,11.5h7 M434,13.5h7 M447,15.5h7 M444,9.5h7 M463,8.5h7 M461,14.5h7 M470,11.5h7 M479,15.5h7 M482,9.5h7 M493,14.5h7 M500,11.5h7 M506,18.5h7 M261,18.5h7 M271,18.5h7 M280,23.5h7 M289,21.5h7 M300,18.5h7 M307,22.5h7 M317,18.5h7 M320,23.5h7 M329,20.5h7 M337,18.5h7 M349,17.5h7 M361,19.5h7 M353,22.5h7 M368,22.5h7 M372,17.5h7 M384,19.5h7 M395,21.5h7 M405,23.5h7 M403,17.5h7 M414,18.5h7 M426,18.5h7 M439,17.5h7 M429,22.5h7 M445,22.5h7 M454,18.5h7 M461,22.5h7 M471,18.5h7 M477,23.5h7 M486,18.5h7 M493,22.5h7 M509,23.5h7 M261,27.5h7 M266,31.5h7 M270,24.5h7 M281,30.5h7 M290,26.5h7 M298,28.5h7 M310,31.5h7 M310,26.5h7 M321,30.5h7 M330,26.5h7 M338,29.5h7 M345,25.5h7 M351,30.5h7 M360,28.5h7 M370,29.5h7 M377,24.5h7 M384,28.5h7 M395,27.5h7 M401,31.5h7 M416,30.5h7 M415,24.5h7 M424,27.5h7 M433,31.5h7 M438,26.5h7 M446,29.5h7 M456,28.5h7 M468,25.5h7 M466,31.5h7 M478,30.5h7 M487,27.5h7 M500,25.5h7 M507,29.5h7 M508,39.5h7 M265,37.5h7 M273,34.5h7 M283,38.5h7 M287,34.5h7 M297,37.5h7 M298,32.5h7 M317,40.5h7 M315,35.5h7 M330,32.5h7 M329,37.5h7 M342,36.5h7 M354,35.5h7 M362,38.5h7 M369,35.5h7 M379,33.5h7 M385,38.5h7 M390,33.5h7 M400,37.5h7 M410,34.5h7 M417,38.5h7 M425,35.5h7 M435,39.5h7 M441,34.5h7 M449,38.5h7 M464,38.5h7 M457,34.5h7 M473,35.5h7 M488,35.5h7 M496,31.5h7 M496,38.5h7 M508,34.5h7 M260,42.5h7 M267,45.5h7 M273,41.5h7 M280,44.5h7 M292,45.5h7 M297,42.5h7 M307,41.5h7 M309,46.5h7 M323,45.5h7 M330,42.5h7 M340,42.5h7 M347,45.5h7 M353,41.5h7 M362,45.5h7 M371,48.5h7 M372,41.5h7 M383,43.5h7 M394,41.5h7 M402,45.5h7 M410,42.5h7 M416,46.5h7 M426,42.5h7 M432,46.5h7 M442,44.5h7 M450,48.5h7 M453,42.5h7 M467,43.5h7 M476,46.5h7 M477,39.5h7 M484,43.5h7 M493,46.5h7 M498,42.5h7 M511,47.5h7 M265,51.5h7 M274,55.5h7 M278,50.5h7 M294,50.5h7 M288,55.5h7 M306,52.5h7 M317,54.5h7 M318,49.5h7 M330,51.5h7 M340,50.5h7 M349,54.5h7 M354,49.5h7 M362,52.5h7 M362,58.5h7 M375,51.5h7 M386,47.5h7 M389,53.5h7 M398,49.5h7 M405,53.5h7 M417,53.5h7 M422,49.5h7 M431,53.5h7 M439,50.5h7 M448,53.5h7 M462,47.5h7 M464,54.5h7 M471,50.5h7 M480,53.5h7 M490,52.5h7 M499,55.5h7 M501,50.5h7 M508,59.5h7 M265,58.5h7 M270,63.5h7 M279,58.5h7 M291,61.5h7 M302,62.5h7 M300,55.5h7 M309,58.5h7 M323,59.5h7 M332,56.5h7 M336,61.5h7 M345,58.5h7 M352,61.5h7 M366,63.5h7 M377,56.5h7 M376,61.5h7 M386,61.5h7 M397,63.5h7 M395,56.5h7 M407,58.5h7 M416,61.5h7 M424,57.5h7 M432,61.5h7 M440,57.5h7 M448,61.5h7 M456,57.5h7 M463,61.5h7 M475,59.5h7 M480,63.5h7 M487,58.5h7 M495,60.5h7 M506,64.5h7 M262,66.5h7 M274,69.5h7 M282,64.5h7 M285,70.5h7 M294,66.5h7 M307,67.5h7 M314,63.5h7 M323,65.5h7 M326,70.5h7 M336,65.5h7 M340,69.5h7 M353,70.5h7 M356,65.5h7 M367,70.5h7 M374,67.5h7 M386,67.5h7 M395,70.5h7 M404,66.5h7 M409,71.5h7 M416,67.5h7 M425,65.5h7 M437,70.5h7 M440,65.5h7 M451,67.5h7 M452,72.5h7 M462,68.5h7 M469,64.5h7 M480,68.5h7 M493,71.5h7 M494,66.5h7 M509,69.5h7 M265,72.5h7 M267,79.5h7 M273,75.5h7 M282,78.5h7 M290,75.5h7 M297,72.5h7 M303,76.5h7 M314,77.5h7 M314,72.5h7 M324,76.5h7 M335,74.5h7 M346,75.5h7 M358,74.5h7 M360,79.5h7 M369,76.5h7 M376,80.5h7 M379,74.5h7 M389,74.5h7 M400,75.5h7 M409,79.5h7 M416,75.5h7 M424,71.5h7 M433,75.5h7 M444,76.5h7 M457,80.5h7 M462,75.5h7 M471,78.5h7 M469,72.5h7 M484,78.5h7 M484,72.5h7 M502,73.5h7 M510,76.5h7 M507,86.5h7 M258,81.5h7 M273,82.5h7 M282,85.5h7 M290,82.5h7 M299,85.5h7 M305,81.5h7 M314,86.5h7 M320,82.5h7 M331,84.5h7 M332,79.5h7 M345,81.5h7 M346,87.5h7 M354,84.5h7 M367,84.5h7 M387,81.5h7 M378,86.5h7 M395,85.5h7 M400,81.5h7 M415,83.5h7 M420,86.5h7 M425,79.5h7 M432,83.5h7 M445,87.5h7 M445,81.5h7 M454,85.5h7 M460,88.5h7 M470,85.5h7 M477,82.5h7 M487,84.5h7 M497,79.5h7 M501,83.5h7 M261,87.5h7 M265,91.5h7 M276,89.5h7 M284,94.5h7 M290,89.5h7 M297,92.5h7 M305,95.5h7 M312,91.5h7 M322,89.5h7 M328,93.5h7 M343,93.5h7 M337,88.5h7 M353,90.5h7 M362,92.5h7 M369,89.5h7 M377,93.5h7 M393,93.5h7 M386,88.5h7 M400,89.5h7 M407,92.5h7 M416,91.5h7 M426,93.5h7 M431,88.5h7 M440,92.5h7 M448,95.5h7 M458,93.5h7 M468,96.5h7 M469,90.5h7 M480,91.5h7 M490,89.5h7 M497,93.5h7 M504,91.5h7 M258,95.5h7 M272,95.5h7 M269,100.5h7 M277,103.5h7 M287,99.5h7 M297,98.5h7 M301,102.5h7 M315,103.5h7 M318,96.5h7 M327,100.5h7 M335,97.5h7 M352,97.5h7 M345,100.5h7 M366,97.5h7 M361,101.5h7 M377,99.5h7 M384,102.5h7 M392,99.5h7 M401,102.5h7 M404,97.5h7 M414,100.5h7 M424,98.5h7 M436,97.5h7 M434,103.5h7 M446,100.5h7 M459,99.5h7 M470,104.5h7 M478,102.5h7 M481,98.5h7 M489,96.5h7 M496,100.5h7 M509,100.5h7 M260,104.5h7 M258,109.5h7 M269,107.5h7 M278,109.5h7 M287,106.5h7 M297,107.5h7 M307,108.5h7 M318,108.5h7 M325,113.5h7 M327,105.5h7 M335,108.5h7 M347,105.5h7 M345,110.5h7 M360,106.5h7 M375,106.5h7 M372,110.5h7 M388,107.5h7 M393,110.5h7 M407,106.5h7 M411,110.5h7 M421,104.5h7 M424,110.5h7 M435,111.5h7 M440,107.5h7 M451,110.5h7 M452,104.5h7 M463,106.5h7 M471,110.5h7 M483,108.5h7 M490,104.5h7 M502,109.5h7 M502,104.5h7 M266,118.5h7 M269,113.5h7 M277,116.5h7 M287,113.5h7 M298,118.5h7 M301,113.5h7 M309,116.5h7 M318,117.5h7 M330,118.5h7 M337,114.5h7 M345,117.5h7 M357,111.5h7 M361,115.5h7 M367,118.5h7 M376,116.5h7 M384,113.5h7 M394,116.5h7 M402,119.5h7 M403,113.5h7 M415,114.5h7 M420,118.5h7 M431,115.5h7 M444,114.5h7 M450,118.5h7 M460,113.5h7 M463,118.5h7 M475,114.5h7 M482,117.5h7 M491,118.5h7 M492,112.5h7 M502,117.5h7 M258,122.5h7 M266,126.5h7 M274,121.5h7 M286,120.5h7 M290,124.5h7 M296,127.5h7 M306,121.5h7 M310,126.5h7 M327,127.5h7 M321,123.5h7 M335,123.5h7 M346,124.5h7 M354,119.5h7 M355,126.5h7 M365,124.5h7 M378,123.5h7 M389,127.5h7 M386,120.5h7 M396,124.5h7 M409,125.5h7 M414,122.5h7 M426,125.5h7 M432,121.5h7 M443,122.5h7 M448,128.5h7 M458,122.5h7 M462,127.5h7 M474,120.5h7 M475,125.5h7 M490,124.5h7 M501,128.5h7 M502,123.5h7 M258,128.5h7 M267,132.5h7 M278,133.5h7 M278,127.5h7 M286,130.5h7 M299,135.5h7 M304,131.5h7 M318,130.5h7 M315,135.5h7 M332,130.5h7 M340,134.5h7 M347,130.5h7 M355,134.5h7 M362,129.5h7 M372,136.5h7 M373,132.5h7 M378,129.5h7 M394,130.5h7 M400,135.5h7 M408,130.5h7 M418,134.5h7 M423,130.5h7 M433,133.5h7 M436,128.5h7 M452,135.5h7 M455,131.5h7 M469,129.5h7 M468,134.5h7 M483,134.5h7 M483,128.5h7 M493,132.5h7 M508,133.5h7 M511,141.5h7 M267,141.5h7 M270,137.5h7 M282,141.5h7 M287,137.5h7 M295,140.5h7 M302,142.5h7 M317,143.5h7 M319,138.5h7 M331,137.5h7 M338,141.5h7 M346,138.5h7 M351,143.5h7 M362,145.5h7 M362,138.5h7 M370,142.5h7 M384,139.5h7 M386,135.5h7 M402,141.5h7 M411,137.5h7 M416,141.5h7 M427,143.5h7 M429,138.5h7 M440,142.5h7 M441,136.5h7 M459,138.5h7 M460,144.5h7 M468,141.5h7 M479,139.5h7 M491,138.5h7 M498,141.5h7 M507,137.5h7 M511,146.5h7 M264,150.5h7 M270,146.5h7 M279,147.5h7 M287,150.5h7 M295,147.5h7 M306,145.5h7 M310,149.5h7 M324,148.5h7 M330,143.5h7 M333,151.5h7 M340,148.5h7 M354,148.5h7 M363,151.5h7 M372,148.5h7 M385,149.5h7 M383,144.5h7 M394,143.5h7 M397,149.5h7 M406,147.5h7 M416,151.5h7 M420,147.5h7 M434,147.5h7 M446,145.5h7 M443,151.5h7 M453,149.5h7 M475,152.5h7 M468,148.5h7 M478,144.5h7 M483,148.5h7 M494,145.5h7 M501,149.5h7 M506,153.5h7 M263,155.5h7 M273,157.5h7 M281,154.5h7 M289,158.5h7 M295,154.5h7 M304,156.5h7 M317,157.5h7 M317,152.5h7 M329,157.5h7 M345,158.5h7 M338,155.5h7 M352,154.5h7 M360,159.5h7 M367,155.5h7 M377,153.5h7 M383,156.5h7 M392,159.5h7 M399,156.5h7 M407,153.5h7 M411,158.5h7 M423,156.5h7 M429,152.5h7 M438,156.5h7 M454,156.5h7 M463,159.5h7 M461,152.5h7 M472,157.5h7 M486,155.5h7 M492,152.5h7 M497,158.5h7 M511,158.5h7 M269,166.5h7 M266,160.5h7 M279,162.5h7 M287,165.5h7 M299,162.5h7 M308,167.5h7 M311,161.5h7 M318,165.5h7 M328,164.5h7 M338,162.5h7 M345,166.5h7 M357,167.5h7 M353,162.5h7 M369,162.5h7 M379,167.5h7 M381,162.5h7 M390,165.5h7 M401,163.5h7 M412,165.5h7 M419,162.5h7 M427,165.5h7 M433,160.5h7 M442,165.5h7 M446,160.5h7 M455,164.5h7 M465,165.5h7 M477,166.5h7 M479,160.5h7 M489,162.5h7 M505,162.5h7 M494,166.5h7 M257,173.5h7 M265,170.5h7 M275,174.5h7 M279,169.5h7 M288,172.5h7 M296,168.5h7 M302,172.5h7 M318,173.5h7 M325,170.5h7 M334,172.5h7 M346,171.5h7 M342,176.5h7 M355,175.5h7 M368,168.5h7 M364,173.5h7 M380,172.5h7 M389,176.5h7 M394,171.5h7 M402,168.5h7 M404,175.5h7 M412,172.5h7 M423,170.5h7 M429,173.5h7 M440,172.5h7 M445,169.5h7 M456,170.5h7 M464,173.5h7 M474,171.5h7 M484,170.5h7 M487,175.5h7 M496,172.5h7 M504,169.5h7 M265,183.5h7 M272,178.5h7 M281,183.5h7 M287,179.5h7 M294,176.5h7 M303,180.5h7 M310,175.5h7 M325,182.5h7 M317,179.5h7 M331,178.5h7 M341,183.5h7 M350,179.5h7 M364,180.5h7 M373,175.5h7 M373,183.5h7 M382,180.5h7 M395,179.5h7 M404,183.5h7 M412,179.5h7 M427,183.5h7 M423,177.5h7 M435,179.5h7 M442,177.5h7 M449,180.5h7 M457,177.5h7 M464,181.5h7 M473,177.5h7 M480,180.5h7 M489,184.5h7 M496,180.5h7 M504,176.5h7 M511,185.5h7 M263,190.5h7 M273,187.5h7 M284,191.5h7 M288,186.5h7 M295,190.5h7 M302,185.5h7 M310,189.5h7 M318,186.5h7 M327,189.5h7 M334,186.5h7 M347,191.5h7 M350,185.5h7 M358,189.5h7 M366,186.5h7 M374,189.5h7 M388,189.5h7 M394,185.5h7 M398,192.5h7 M406,188.5h7 M418,185.5h7 M425,190.5h7 M435,186.5h7 M441,190.5h7 M450,185.5h7 M456,189.5h7 M466,186.5h7 M478,185.5h7 M472,190.5h7 M488,190.5h7 M498,185.5h7 M503,189.5h7 M271,192.5h7 M271,197.5h7 M283,196.5h7 M288,199.5h7 M301,193.5h7 M310,196.5h7 M318,193.5h7 M319,199.5h7 M328,196.5h7 M335,192.5h7 M341,197.5h7 M351,199.5h7 M359,194.5h7 M365,197.5h7 M383,198.5h7 M379,192.5h7 M389,195.5h7 M402,196.5h7 M413,192.5h7 M412,198.5h7 M421,196.5h7 M432,193.5h7 M442,197.5h7 M448,194.5h7 M457,198.5h7 M464,193.5h7 M474,197.5h7 M480,194.5h7 M490,198.5h7 M496,194.5h7 M505,196.5h7 M259,201.5h7 M265,204.5h7 M274,207.5h7 M277,202.5h7 M285,205.5h7 M299,204.5h7 M301,200.5h7 M311,203.5h7 M317,207.5h7 M329,202.5h7 M338,205.5h7 M345,202.5h7 M352,207.5h7 M360,204.5h7 M372,199.5h7 M374,204.5h7 M381,206.5h7 M392,203.5h7 M402,201.5h7 M408,206.5h7 M419,202.5h7 M426,205.5h7 M433,200.5h7 M440,205.5h7 M450,202.5h7 M459,204.5h7 M468,201.5h7 M473,205.5h7 M482,202.5h7 M490,205.5h7 M502,206.5h7 M504,201.5h7 M261,209.5h7 M259,214.5h7 M271,214.5h7 M282,211.5h7 M294,209.5h7 M300,214.5h7 M309,210.5h7 M312,216.5h7 M321,213.5h7 M330,215.5h7 M328,209.5h7 M342,215.5h7 M345,210.5h7 M360,210.5h7 M370,213.5h7 M377,210.5h7 M386,214.5h7 M391,209.5h7 M402,210.5h7 M417,209.5h7 M414,215.5h7 M423,213.5h7 M432,209.5h7 M439,213.5h7 M448,208.5h7 M453,213.5h7 M463,215.5h7 M463,210.5h7 M477,210.5h7 M485,213.5h7 M493,211.5h7 M506,211.5h7 M507,217.5h7 M265,221.5h7 M275,218.5h7 M287,216.5h7 M286,222.5h7 M296,218.5h7 M301,224.5h7 M308,221.5h7 M321,220.5h7 M332,223.5h7 M336,219.5h7 M351,216.5h7 M348,222.5h7 M363,222.5h7 M362,217.5h7 M374,218.5h7 M385,221.5h7 M393,217.5h7 M403,215.5h7 M404,222.5h7 M417,222.5h7 M424,218.5h7 M433,221.5h7 M441,219.5h7 M455,218.5h7 M448,222.5h7 M475,216.5h7 M469,220.5h7 M484,221.5h7 M492,217.5h7 M499,220.5h7 M510,223.5h7 M509,229.5h7 M262,227.5h7 M272,230.5h7 M273,224.5h7 M282,228.5h7 M294,228.5h7 M303,229.5h7 M313,227.5h7 M324,232.5h7 M325,226.5h7 M335,229.5h7 M347,228.5h7 M359,231.5h7 M356,225.5h7 M370,227.5h7 M378,224.5h7 M384,228.5h7 M394,223.5h7 M401,228.5h7 M411,231.5h7 M413,226.5h7 M424,227.5h7 M435,227.5h7 M444,229.5h7 M453,227.5h7 M460,230.5h7 M463,224.5h7 M475,230.5h7 M478,224.5h7 M486,227.5h7 M498,225.5h7 M495,230.5h7 M257,237.5h7 M265,234.5h7 M273,238.5h7 M281,234.5h7 M289,237.5h7 M296,234.5h7 M305,238.5h7 M312,234.5h7 M319,236.5h7 M325,240.5h7 M335,237.5h7 M342,233.5h7 M350,235.5h7 M364,236.5h7 M374,232.5h7 M375,238.5h7 M385,235.5h7 M393,231.5h7 M399,235.5h7 M411,237.5h7 M420,240.5h7 M421,233.5h7 M431,234.5h7 M441,233.5h7 M448,236.5h7 M459,238.5h7 M468,233.5h7 M471,239.5h7 M479,236.5h7 M489,234.5h7 M497,238.5h7 M505,234.5h7 M258,244.5h7 M259,248.5h7 M272,244.5h7 M281,241.5h7 M289,245.5h7 M300,248.5h7 M296,241.5h7 M306,244.5h7 M320,245.5h7 M332,242.5h7 M335,247.5h7 M346,242.5h7 M355,245.5h7 M356,239.5h7 M365,243.5h7 M378,243.5h7 M387,245.5h7 M388,240.5h7 M398,243.5h7 M409,242.5h7 M416,247.5h7 M426,246.5h7 M431,242.5h7 M439,239.5h7 M447,243.5h7 M457,245.5h7 M465,243.5h7 M475,246.5h7 M482,241.5h7 M488,245.5h7 M498,244.5h7 M505,241.5h7 M258,253.5h7 M267,0.5h7 M270,250.5h7 M280,248.5h7 M290,252.5h7 M299,0.5h7 M307,253.5h7 M321,251.5h7 M313,248.5h7 M330,254.5h7 M337,251.5h7 M345,0.5h7 M347,249.5h7 M354,253.5h7 M363,248.5h7 M379,249.5h7 M386,253.5h7 M403,254.5h7 M395,249.5h7 M407,249.5h7 M415,254.5h7 M426,253.5h7 M437,248.5h7 M434,255.5h7 M443,252.5h7 M450,249.5h7 M460,251.5h7 M474,252.5h7 M485,250.5h7 M489,254.5h7 M499,250.5h7 M505,255.5h7 M8,261.5h7 M16,263.5h7 M24,259.5h7 M23,511.5h7 M36,259.5h7 M36,266.5h7 M48,261.5h7 M56,264.5h7 M63,260.5h7 M66,256.5h7 M81,260.5h7 M96,261.5h7 M94,265.5h7 M104,511.5h7 M115,259.5h7 M113,507.5h7 M123,256.5h7 M137,257.5h7 M138,263.5h7 M148,261.5h7 M158,260.5h7 M170,260.5h7 M179,262.5h7 M189,258.5h7 M197,262.5h7 M201,257.5h7 M210,511.5h7 M215,260.5h7 M222,257.5h7 M232,261.5h7 M240,258.5h7 M247,261.5h7 M-2,265.5h7 M254,265.5h7 M4,269.5h7 M16,268.5h7 M26,272.5h7 M38,271.5h7 M27,266.5h7 M48,268.5h7 M58,270.5h7 M67,265.5h7 M73,269.5h7 M80,265.5h7 M88,269.5h7 M105,269.5h7 M107,262.5h7 M113,266.5h7 M126,264.5h7 M124,270.5h7 M135,270.5h7 M142,267.5h7 M155,266.5h7 M160,270.5h7 M169,267.5h7 M178,269.5h7 M191,271.5h7 M188,265.5h7 M207,264.5h7 M205,270.5h7 M214,267.5h7 M223,271.5h7 M226,265.5h7 M237,270.5h7 M244,267.5h7 M250,274.5h7 M-6,274.5h7 M5,274.5h7 M15,274.5h7 M24,279.5h7 M33,277.5h7 M44,274.5h7 M51,278.5h7 M61,274.5h7 M64,279.5h7 M73,276.5h7 M81,274.5h7 M93,273.5h7 M105,275.5h7 M97,278.5h7 M112,278.5h7 M116,273.5h7 M128,275.5h7 M139,277.5h7 M149,279.5h7 M147,273.5h7 M158,274.5h7 M170,274.5h7 M183,273.5h7 M173,278.5h7 M189,278.5h7 M198,274.5h7 M205,278.5h7 M215,274.5h7 M221,279.5h7 M230,274.5h7 M237,278.5h7 M-3,279.5h7 M253,279.5h7 M5,283.5h7 M10,287.5h7 M14,280.5h7 M25,286.5h7 M34,282.5h7 M42,284.5h7 M54,287.5h7 M54,282.5h7 M65,286.5h7 M74,282.5h7 M82,285.5h7 M89,281.5h7 M95,286.5h7 M104,284.5h7 M114,285.5h7 M121,280.5h7 M128,284.5h7 M139,283.5h7 M145,287.5h7 M160,286.5h7 M159,280.5h7 M168,283.5h7 M177,287.5h7 M182,282.5h7 M190,285.5h7 M200,284.5h7 M212,281.5h7 M210,287.5h7 M222,286.5h7 M231,283.5h7 M244,281.5h7 M251,285.5h7 M-5,285.5h7 M252,295.5h7 M-4,295.5h7 M9,293.5h7 M17,290.5h7 M27,294.5h7 M31,290.5h7 M41,293.5h7 M42,288.5h7 M61,296.5h7 M59,291.5h7 M74,288.5h7 M73,293.5h7 M86,292.5h7 M98,291.5h7 M106,294.5h7 M113,291.5h7 M123,289.5h7 M129,294.5h7 M134,289.5h7 M144,293.5h7 M154,290.5h7 M161,294.5h7 M169,291.5h7 M179,295.5h7 M185,290.5h7 M193,294.5h7 M208,294.5h7 M201,290.5h7 M217,291.5h7 M232,291.5h7 M240,287.5h7 M240,294.5h7 M252,290.5h7 M-4,290.5h7 M4,298.5h7 M11,301.5h7 M17,297.5h7 M24,300.5h7 M36,301.5h7 M41,298.5h7 M51,297.5h7 M53,302.5h7 M67,301.5h7 M74,298.5h7 M84,298.5h7 M91,301.5h7 M97,297.5h7 M106,301.5h7 M115,304.5h7 M116,297.5h7 M127,299.5h7 M138,297.5h7 M146,301.5h7 M154,298.5h7 M160,302.5h7 M170,298.5h7 M176,302.5h7 M186,300.5h7 M194,304.5h7 M197,298.5h7 M211,299.5h7 M220,302.5h7 M221,295.5h7 M228,299.5h7 M237,302.5h7 M242,298.5h7 M-1,303.5h7 M255,303.5h7 M9,307.5h7 M18,311.5h7 M22,306.5h7 M38,306.5h7 M32,311.5h7 M50,308.5h7 M61,310.5h7 M62,305.5h7 M74,307.5h7 M84,306.5h7 M93,310.5h7 M98,305.5h7 M106,308.5h7 M106,314.5h7 M119,307.5h7 M130,303.5h7 M133,309.5h7 M142,305.5h7 M149,309.5h7 M161,309.5h7 M166,305.5h7 M175,309.5h7 M183,306.5h7 M192,309.5h7 M206,303.5h7 M208,310.5h7 M215,306.5h7 M224,309.5h7 M234,308.5h7 M243,311.5h7 M245,306.5h7 M252,315.5h7 M-4,315.5h7 M9,314.5h7 M14,319.5h7 M23,314.5h7 M35,317.5h7 M46,318.5h7 M44,311.5h7 M53,314.5h7 M67,315.5h7 M76,312.5h7 M80,317.5h7 M89,314.5h7 M96,317.5h7 M110,319.5h7 M121,312.5h7 M120,317.5h7 M130,317.5h7 M141,319.5h7 M139,312.5h7 M151,314.5h7 M160,317.5h7 M168,313.5h7 M176,317.5h7 M184,313.5h7 M192,317.5h7 M200,313.5h7 M207,317.5h7 M219,315.5h7 M224,319.5h7 M231,314.5h7 M239,316.5h7 M0,310.5h7 M250,320.5h7 M-6,320.5h7 M6,322.5h7 M18,325.5h7 M26,320.5h7 M29,326.5h7 M38,322.5h7 M51,323.5h7 M58,319.5h7 M67,321.5h7 M70,326.5h7 M80,321.5h7 M84,325.5h7 M97,326.5h7 M100,321.5h7 M111,326.5h7 M118,323.5h7 M130,323.5h7 M139,326.5h7 M148,322.5h7 M153,327.5h7 M160,323.5h7 M169,321.5h7 M181,326.5h7 M184,321.5h7 M195,323.5h7 M196,328.5h7 M206,324.5h7 M213,320.5h7 M224,324.5h7 M237,327.5h7 M238,322.5h7 M-3,325.5h7 M253,325.5h7 M9,328.5h7 M11,335.5h7 M17,331.5h7 M26,334.5h7 M34,331.5h7 M41,328.5h7 M47,332.5h7 M58,333.5h7 M58,328.5h7 M68,332.5h7 M79,330.5h7 M90,331.5h7 M102,330.5h7 M104,335.5h7 M113,332.5h7 M120,336.5h7 M123,330.5h7 M133,330.5h7 M144,331.5h7 M153,335.5h7 M160,331.5h7 M168,327.5h7 M177,331.5h7 M188,332.5h7 M201,336.5h7 M206,331.5h7 M215,334.5h7 M213,328.5h7 M228,334.5h7 M228,328.5h7 M246,329.5h7 M-2,332.5h7 M254,332.5h7 M251,342.5h7 M-5,342.5h7 M2,337.5h7 M17,338.5h7 M26,341.5h7 M34,338.5h7 M43,341.5h7 M49,337.5h7 M58,342.5h7 M64,338.5h7 M75,340.5h7 M76,335.5h7 M89,337.5h7 M90,343.5h7 M98,340.5h7 M111,340.5h7 M131,337.5h7 M122,342.5h7 M139,341.5h7 M144,337.5h7 M159,339.5h7 M164,342.5h7 M169,335.5h7 M176,339.5h7 M189,343.5h7 M189,337.5h7 M198,341.5h7 M204,344.5h7 M214,341.5h7 M221,338.5h7 M231,340.5h7 M241,335.5h7 M245,339.5h7 M5,343.5h7 M9,347.5h7 M20,345.5h7 M28,350.5h7 M34,345.5h7 M41,348.5h7 M49,351.5h7 M56,347.5h7 M66,345.5h7 M72,349.5h7 M87,349.5h7 M81,344.5h7 M97,346.5h7 M106,348.5h7 M113,345.5h7 M121,349.5h7 M137,349.5h7 M130,344.5h7 M144,345.5h7 M151,348.5h7 M160,347.5h7 M170,349.5h7 M175,344.5h7 M184,348.5h7 M192,351.5h7 M202,349.5h7 M212,352.5h7 M213,346.5h7 M224,347.5h7 M234,345.5h7 M241,349.5h7 M248,347.5h7 M2,351.5h7 M16,351.5h7 M13,356.5h7 M21,359.5h7 M31,355.5h7 M41,354.5h7 M45,358.5h7 M59,359.5h7 M62,352.5h7 M71,356.5h7 M79,353.5h7 M96,353.5h7 M89,356.5h7 M110,353.5h7 M105,357.5h7 M121,355.5h7 M128,358.5h7 M136,355.5h7 M145,358.5h7 M148,353.5h7 M158,356.5h7 M168,354.5h7 M180,353.5h7 M178,359.5h7 M190,356.5h7 M203,355.5h7 M214,360.5h7 M222,358.5h7 M225,354.5h7 M233,352.5h7 M240,356.5h7 M-3,356.5h7 M253,356.5h7 M4,360.5h7 M2,365.5h7 M13,363.5h7 M22,365.5h7 M31,362.5h7 M41,363.5h7 M51,364.5h7 M62,364.5h7 M69,369.5h7 M71,361.5h7 M79,364.5h7 M91,361.5h7 M89,366.5h7 M104,362.5h7 M119,362.5h7 M116,366.5h7 M132,363.5h7 M137,366.5h7 M151,362.5h7 M155,366.5h7 M165,360.5h7 M168,366.5h7 M179,367.5h7 M184,363.5h7 M195,366.5h7 M196,360.5h7 M207,362.5h7 M215,366.5h7 M227,364.5h7 M234,360.5h7 M246,365.5h7 M246,360.5h7 M0,370.5h7 M10,374.5h7 M13,369.5h7 M21,372.5h7 M31,369.5h7 M42,374.5h7 M45,369.5h7 M53,372.5h7 M62,373.5h7 M74,374.5h7 M81,370.5h7 M89,373.5h7 M101,367.5h7 M105,371.5h7 M111,374.5h7 M120,372.5h7 M128,369.5h7 M138,372.5h7 M146,375.5h7 M147,369.5h7 M159,370.5h7 M164,374.5h7 M175,371.5h7 M188,370.5h7 M194,374.5h7 M204,369.5h7 M207,374.5h7 M219,370.5h7 M226,373.5h7 M235,374.5h7 M236,368.5h7 M246,373.5h7 M2,378.5h7 M10,382.5h7 M18,377.5h7 M30,376.5h7 M34,380.5h7 M40,383.5h7 M50,377.5h7 M54,382.5h7 M71,383.5h7 M65,379.5h7 M79,379.5h7 M90,380.5h7 M98,375.5h7 M99,382.5h7 M109,380.5h7 M122,379.5h7 M133,383.5h7 M130,376.5h7 M140,380.5h7 M153,381.5h7 M158,378.5h7 M170,381.5h7 M176,377.5h7 M187,378.5h7 M192,384.5h7 M202,378.5h7 M206,383.5h7 M218,376.5h7 M219,381.5h7 M234,380.5h7 M245,384.5h7 M246,379.5h7 M2,384.5h7 M11,388.5h7 M22,389.5h7 M22,383.5h7 M30,386.5h7 M43,391.5h7 M48,387.5h7 M62,386.5h7 M59,391.5h7 M76,386.5h7 M84,390.5h7 M91,386.5h7 M99,390.5h7 M106,385.5h7 M116,392.5h7 M117,388.5h7 M122,385.5h7 M138,386.5h7 M144,391.5h7 M152,386.5h7 M162,390.5h7 M167,386.5h7 M177,389.5h7 M180,384.5h7 M196,391.5h7 M199,387.5h7 M213,385.5h7 M212,390.5h7 M227,390.5h7 M227,384.5h7 M237,388.5h7 M252,389.5h7 M-4,389.5h7 M-1,397.5h7 M255,397.5h7 M11,397.5h7 M14,393.5h7 M26,397.5h7 M31,393.5h7 M39,396.5h7 M46,398.5h7 M61,399.5h7 M63,394.5h7 M75,393.5h7 M82,397.5h7 M90,394.5h7 M95,399.5h7 M106,401.5h7 M106,394.5h7 M114,398.5h7 M128,395.5h7 M130,391.5h7 M146,397.5h7 M155,393.5h7 M160,397.5h7 M171,399.5h7 M173,394.5h7 M184,398.5h7 M185,392.5h7 M203,394.5h7 M204,400.5h7 M212,397.5h7 M223,395.5h7 M235,394.5h7 M242,397.5h7 M251,393.5h7 M-5,393.5h7 M-1,402.5h7 M255,402.5h7 M8,406.5h7 M14,402.5h7 M23,403.5h7 M31,406.5h7 M39,403.5h7 M50,401.5h7 M54,405.5h7 M68,404.5h7 M74,399.5h7 M77,407.5h7 M84,404.5h7 M98,404.5h7 M107,407.5h7 M116,404.5h7 M129,405.5h7 M127,400.5h7 M138,399.5h7 M141,405.5h7 M150,403.5h7 M160,407.5h7 M164,403.5h7 M178,403.5h7 M190,401.5h7 M187,407.5h7 M197,405.5h7 M219,408.5h7 M212,404.5h7 M222,400.5h7 M227,404.5h7 M238,401.5h7 M245,405.5h7 M250,409.5h7 M-6,409.5h7 M7,411.5h7 M17,413.5h7 M25,410.5h7 M33,414.5h7 M39,410.5h7 M48,412.5h7 M61,413.5h7 M61,408.5h7 M73,413.5h7 M89,414.5h7 M82,411.5h7 M96,410.5h7 M104,415.5h7 M111,411.5h7 M121,409.5h7 M127,412.5h7 M136,415.5h7 M143,412.5h7 M151,409.5h7 M155,414.5h7 M167,412.5h7 M173,408.5h7 M182,412.5h7 M198,412.5h7 M207,415.5h7 M205,408.5h7 M216,413.5h7 M230,411.5h7 M236,408.5h7 M241,414.5h7 M-1,414.5h7 M255,414.5h7 M0,421.5h7 M13,422.5h7 M10,416.5h7 M23,418.5h7 M31,421.5h7 M43,418.5h7 M52,423.5h7 M55,417.5h7 M62,421.5h7 M72,420.5h7 M82,418.5h7 M89,422.5h7 M101,423.5h7 M97,418.5h7 M113,418.5h7 M123,423.5h7 M125,418.5h7 M134,421.5h7 M145,419.5h7 M156,421.5h7 M163,418.5h7 M171,421.5h7 M177,416.5h7 M186,421.5h7 M190,416.5h7 M199,420.5h7 M209,421.5h7 M221,422.5h7 M223,416.5h7 M233,418.5h7 M249,418.5h7 M238,422.5h7 M1,429.5h7 M9,426.5h7 M19,430.5h7 M23,425.5h7 M32,428.5h7 M40,424.5h7 M46,428.5h7 M62,429.5h7 M69,426.5h7 M78,428.5h7 M90,427.5h7 M86,432.5h7 M99,431.5h7 M112,424.5h7 M108,429.5h7 M124,428.5h7 M133,432.5h7 M138,427.5h7 M146,424.5h7 M148,431.5h7 M156,428.5h7 M167,426.5h7 M173,429.5h7 M184,428.5h7 M189,425.5h7 M200,426.5h7 M208,429.5h7 M218,427.5h7 M228,426.5h7 M231,431.5h7 M240,428.5h7 M248,425.5h7 M0,435.5h7 M9,439.5h7 M16,434.5h7 M25,439.5h7 M31,435.5h7 M38,432.5h7 M47,436.5h7 M54,431.5h7 M69,438.5h7 M61,435.5h7 M75,434.5h7 M85,439.5h7 M94,435.5h7 M108,436.5h7 M117,431.5h7 M117,439.5h7 M126,436.5h7 M139,435.5h7 M148,439.5h7 M156,435.5h7 M171,439.5h7 M167,433.5h7 M179,435.5h7 M186,433.5h7 M193,436.5h7 M201,433.5h7 M208,437.5h7 M217,433.5h7 M224,436.5h7 M233,440.5h7 M240,436.5h7 M248,432.5h7 M-1,441.5h7 M255,441.5h7 M7,446.5h7 M17,443.5h7 M28,447.5h7 M32,442.5h7 M39,446.5h7 M46,441.5h7 M54,445.5h7 M62,442.5h7 M71,445.5h7 M78,442.5h7 M91,447.5h7 M94,441.5h7 M102,445.5h7 M110,442.5h7 M118,445.5h7 M132,445.5h7 M138,441.5h7 M142,448.5h7 M150,444.5h7 M162,441.5h7 M169,446.5h7 M179,442.5h7 M185,446.5h7 M194,441.5h7 M200,445.5h7 M210,442.5h7 M222,441.5h7 M216,446.5h7 M232,446.5h7 M242,441.5h7 M247,445.5h7 M0,449.5h7 M15,448.5h7 M15,453.5h7 M27,452.5h7 M32,455.5h7 M45,449.5h7 M54,452.5h7 M62,449.5h7 M63,455.5h7 M72,452.5h7 M79,448.5h7 M85,453.5h7 M95,455.5h7 M103,450.5h7 M109,453.5h7 M127,454.5h7 M123,448.5h7 M133,451.5h7 M146,452.5h7 M157,448.5h7 M156,454.5h7 M165,452.5h7 M176,449.5h7 M186,453.5h7 M192,450.5h7 M201,454.5h7 M208,449.5h7 M218,453.5h7 M224,450.5h7 M234,454.5h7 M240,450.5h7 M249,452.5h7 M3,457.5h7 M9,460.5h7 M18,463.5h7 M21,458.5h7 M29,461.5h7 M43,460.5h7 M45,456.5h7 M55,459.5h7 M61,463.5h7 M73,458.5h7 M82,461.5h7 M89,458.5h7 M96,463.5h7 M104,460.5h7 M116,455.5h7 M118,460.5h7 M125,462.5h7 M136,459.5h7 M146,457.5h7 M152,462.5h7 M163,458.5h7 M170,461.5h7 M177,456.5h7 M184,461.5h7 M194,458.5h7 M203,460.5h7 M212,457.5h7 M217,461.5h7 M226,458.5h7 M234,461.5h7 M246,462.5h7 M248,457.5h7 M5,465.5h7 M3,470.5h7 M15,470.5h7 M26,467.5h7 M38,465.5h7 M44,470.5h7 M53,466.5h7 M56,472.5h7 M65,469.5h7 M74,471.5h7 M72,465.5h7 M86,471.5h7 M89,466.5h7 M104,466.5h7 M114,469.5h7 M121,466.5h7 M130,470.5h7 M135,465.5h7 M146,466.5h7 M161,465.5h7 M158,471.5h7 M167,469.5h7 M176,465.5h7 M183,469.5h7 M192,464.5h7 M197,469.5h7 M207,471.5h7 M207,466.5h7 M221,466.5h7 M229,469.5h7 M237,467.5h7 M250,467.5h7 M-6,467.5h7 M251,473.5h7 M-5,473.5h7 M9,477.5h7 M19,474.5h7 M31,472.5h7 M30,478.5h7 M40,474.5h7 M45,480.5h7 M52,477.5h7 M65,476.5h7 M76,479.5h7 M80,475.5h7 M95,472.5h7 M92,478.5h7 M107,478.5h7 M106,473.5h7 M118,474.5h7 M129,477.5h7 M137,473.5h7 M147,471.5h7 M148,478.5h7 M161,478.5h7 M168,474.5h7 M177,477.5h7 M185,475.5h7 M199,474.5h7 M192,478.5h7 M219,472.5h7 M213,476.5h7 M228,477.5h7 M236,473.5h7 M243,476.5h7 M-2,479.5h7 M254,479.5h7 M-3,485.5h7 M253,485.5h7 M6,483.5h7 M16,486.5h7 M17,480.5h7 M26,484.5h7 M38,484.5h7 M47,485.5h7 M57,483.5h7 M68,488.5h7 M69,482.5h7 M79,485.5h7 M91,484.5h7 M103,487.5h7 M100,481.5h7 M114,483.5h7 M122,480.5h7 M128,484.5h7 M138,479.5h7 M145,484.5h7 M155,487.5h7 M157,482.5h7 M168,483.5h7 M179,483.5h7 M188,485.5h7 M197,483.5h7 M204,486.5h7 M207,480.5h7 M219,486.5h7 M222,480.5h7 M230,483.5h7 M242,481.5h7 M239,486.5h7 M1,493.5h7 M9,490.5h7 M17,494.5h7 M25,490.5h7 M33,493.5h7 M40,490.5h7 M49,494.5h7 M56,490.5h7 M63,492.5h7 M69,496.5h7 M79,493.5h7 M86,489.5h7 M94,491.5h7 M108,492.5h7 M118,488.5h7 M119,494.5h7 M129,491.5h7 M137,487.5h7 M143,491.5h7 M155,493.5h7 M164,496.5h7 M165,489.5h7 M175,490.5h7 M185,489.5h7 M192,492.5h7 M203,494.5h7 M212,489.5h7 M215,495.5h7 M223,492.5h7 M233,490.5h7 M241,494.5h7 M249,490.5h7 M2,500.5h7 M3,504.5h7 M16,500.5h7 M25,497.5h7 M33,501.5h7 M44,504.5h7 M40,497.5h7 M50,500.5h7 M64,501.5h7 M76,498.5h7 M79,503.5h7 M90,498.5h7 M99,501.5h7 M100,495.5h7 M109,499.5h7 M122,499.5h7 M131,501.5h7 M132,496.5h7 M142,499.5h7 M153,498.5h7 M160,503.5h7 M170,502.5h7 M175,498.5h7 M183,495.5h7 M191,499.5h7 M201,501.5h7 M209,499.5h7 M219,502.5h7 M226,497.5h7 M232,501.5h7 M242,500.5h7 M249,497.5h7 M2,509.5h7 M11,256.5h7 M14,506.5h7 M24,504.5h7 M34,508.5h7 M43,256.5h7 M51,509.5h7 M65,507.5h7 M57,504.5h7 M74,510.5h7 M81,507.5h7 M89,256.5h7 M91,505.5h7 M98,509.5h7 M107,504.5h7 M123,505.5h7 M130,509.5h7 M147,510.5h7 M139,505.5h7 M151,505.5h7 M159,510.5h7 M170,509.5h7 M181,504.5h7 M178,511.5h7 M187,508.5h7 M194,505.5h7 M204,507.5h7 M218,508.5h7 M229,506.5h7 M233,510.5h7 M243,506.5h7 M249,511.5h7 M264,261.5h7 M272,263.5h7 M280,259.5h7 M279,511.5h7 M292,259.5h7 M292,266.5h7 M304,261.5h7 M312,264.5h7 M319,260.5h7 M322,256.5h7 M337,260.5h7 M352,261.5h7 M350,265.5h7 M360,511.5h7 M371,259.5h7 M369,507.5h7 M379,256.5h7 M393,257.5h7 M394,263.5h7 M404,261.5h7 M414,260.5h7 M426,260.5h7 M435,262.5h7 M445,258.5h7 M453,262.5h7 M457,257.5h7 M466,511.5h7 M471,260.5h7 M478,257.5h7 M488,261.5h7 M496,258.5h7 M503,261.5h7 M510,265.5h7 M260,269.5h7 M272,268.5h7 M282,272.5h7 M294,271.5h7 M283,266.5h7 M304,268.5h7 M314,270.5h7 M323,265.5h7 M329,269.5h7 M336,265.5h7 M344,269.5h7 M361,269.5h7 M363,262.5h7 M369,266.5h7 M382,264.5h7 M380,270.5h7 M391,270.5h7 M398,267.5h7 M411,266.5h7 M416,270.5h7 M425,267.5h7 M434,269.5h7 M447,271.5h7 M444,265.5h7 M463,264.5h7 M461,270.5h7 M470,267.5h7 M479,271.5h7 M482,265.5h7 M493,270.5h7 M500,267.5h7 M506,274.5h7 M261,274.5h7 M271,274.5h7 M280,279.5h7 M289,277.5h7 M300,274.5h7 M307,278.5h7 M317,274.5h7 M320,279.5h7 M329,276.5h7 M337,274.5h7 M349,273.5h7 M361,275.5h7 M353,278.5h7 M368,278.5h7 M372,273.5h7 M384,275.5h7 M395,277.5h7 M405,279.5h7 M403,273.5h7 M414,274.5h7 M426,274.5h7 M439,273.5h7 M429,278.5h7 M445,278.5h7 M454,274.5h7 M461,278.5h7 M471,274.5h7 M477,279.5h7 M486,274.5h7 M493,278.5h7 M509,279.5h7 M261,283.5h7 M266,287.5h7 M270,280.5h7 M281,286.5h7 M290,282.5h7 M298,284.5h7 M310,287.5h7 M310,282.5h7 M321,286.5h7 M330,282.5h7 M338,285.5h7 M345,281.5h7 M351,286.5h7 M360,284.5h7 M370,285.5h7 M377,280.5h7 M384,284.5h7 M395,283.5h7 M401,287.5h7 M416,286.5h7 M415,280.5h7 M424,283.5h7 M433,287.5h7 M438,282.5h7 M446,285.5h7 M456,284.5h7 M468,281.5h7 M466,287.5h7 M478,286.5h7 M487,283.5h7 M500,281.5h7 M507,285.5h7 M508,295.5h7 M265,293.5h7 M273,290.5h7 M283,294.5h7 M287,290.5h7 M297,293.5h7 M298,288.5h7 M317,296.5h7 M315,291.5h7 M330,288.5h7 M329,293.5h7 M342,292.5h7 M354,291.5h7 M362,294.5h7 M369,291.5h7 M379,289.5h7 M385,294.5h7 M390,289.5h7 M400,293.5h7 M410,290.5h7 M417,294.5h7 M425,291.5h7 M435,295.5h7 M441,290.5h7 M449,294.5h7 M464,294.5h7 M457,290.5h7 M473,291.5h7 M488,291.5h7 M496,287.5h7 M496,294.5h7 M508,290.5h7 M260,298.5h7 M267,301.5h7 M273,297.5h7 M280,300.5h7 M292,301.5h7 M297,298.5h7 M307,297.5h7 M309,302.5h7 M323,301.5h7 M330,298.5h7 M340,298.5h7 M347,301.5h7 M353,297.5h7 M362,301.5h7 M371,304.5h7 M372,297.5h7 M383,299.5h7 M394,297.5h7 M402,301.5h7 M410,298.5h7 M416,302.5h7 M426,298.5h7 M432,302.5h7 M442,300.5h7 M450,304.5h7 M453,298.5h7 M467,299.5h7 M476,302.5h7 M477,295.5h7 M484,299.5h7 M493,302.5h7 M498,298.5h7 M511,303.5h7 M265,307.5h7 M274,311.5h7 M278,306.5h7 M294,306.5h7 M288,311.5h7 M306,308.5h7 M317,310.5h7 M318,305.5h7 M330,307.5h7 M340,306.5h7 M349,310.5h7 M354,305.5h7 M362,308.5h7 M362,314.5h7 M375,307.5h7 M386,303.5h7 M389,309.5h7 M398,305.5h7 M405,309.5h7 M417,309.5h7 M422,305.5h7 M431,309.5h7 M439,306.5h7 M448,309.5h7 M462,303.5h7 M464,310.5h7 M471,306.5h7 M480,309.5h7 M490,308.5h7 M499,311.5h7 M501,306.5h7 M508,315.5h7 M265,314.5h7 M270,319.5h7 M279,314.5h7 M291,317.5h7 M302,318.5h7 M300,311.5h7 M309,314.5h7 M323,315.5h7 M332,312.5h7 M336,317.5h7 M345,314.5h7 M352,317.5h7 M366,319.5h7 M377,312.5h7 M376,317.5h7 M386,317.5h7 M397,319.5h7 M395,312.5h7 M407,314.5h7 M416,317.5h7 M424,313.5h7 M432,317.5h7 M440,313.5h7 M448,317.5h7 M456,313.5h7 M463,317.5h7 M475,315.5h7 M480,319.5h7 M487,314.5h7 M495,316.5h7 M506,320.5h7 M262,322.5h7 M274,325.5h7 M282,320.5h7 M285,326.5h7 M294,322.5h7 M307,323.5h7 M314,319.5h7 M323,321.5h7 M326,326.5h7 M336,321.5h7 M340,325.5h7 M353,326.5h7 M356,321.5h7 M367,326.5h7 M374,323.5h7 M386,323.5h7 M395,326.5h7 M404,322.5h7 M409,327.5h7 M416,323.5h7 M425,321.5h7 M437,326.5h7 M440,321.5h7 M451,323.5h7 M452,328.5h7 M462,324.5h7 M469,320.5h7 M480,324.5h7 M493,327.5h7 M494,322.5h7 M509,325.5h7 M265,328.5h7 M267,335.5h7 M273,331.5h7 M282,334.5h7 M290,331.5h7 M297,328.5h7 M303,332.5h7 M314,333.5h7 M314,328.5h7 M324,332.5h7 M335,330.5h7 M346,331.5h7 M358,330.5h7 M360,335.5h7 M369,332.5h7 M376,336.5h7 M379,330.5h7 M389,330.5h7 M400,331.5h7 M409,335.5h7 M416,331.5h7 M424,327.5h7 M433,331.5h7 M444,332.5h7 M457,336.5h7 M462,331.5h7 M471,334.5h7 M469,328.5h7 M484,334.5h7 M484,328.5h7 M502,329.5h7 M510,332.5h7 M507,342.5h7 M258,337.5h7 M273,338.5h7 M282,341.5h7 M290,338.5h7 M299,341.5h7 M305,337.5h7 M314,342.5h7 M320,338.5h7 M331,340.5h7 M332,335.5h7 M345,337.5h7 M346,343.5h7 M354,340.5h7 M367,340.5h7 M387,337.5h7 M378,342.5h7 M395,341.5h7 M400,337.5h7 M415,339.5h7 M420,342.5h7 M425,335.5h7 M432,339.5h7 M445,343.5h7 M445,337.5h7 M454,341.5h7 M460,344.5h7 M470,341.5h7 M477,338.5h7 M487,340.5h7 M497,335.5h7 M501,339.5h7 M261,343.5h7 M265,347.5h7 M276,345.5h7 M284,350.5h7 M290,345.5h7 M297,348.5h7 M305,351.5h7 M312,347.5h7 M322,345.5h7 M328,349.5h7 M343,349.5h7 M337,344.5h7 M353,346.5h7 M362,348.5h7 M369,345.5h7 M377,349.5h7 M393,349.5h7 M386,344.5h7 M400,345.5h7 M407,348.5h7 M416,347.5h7 M426,349.5h7 M431,344.5h7 M440,348.5h7 M448,351.5h7 M458,349.5h7 M468,352.5h7 M469,346.5h7 M480,347.5h7 M490,345.5h7 M497,349.5h7 M504,347.5h7 M258,351.5h7 M272,351.5h7 M269,356.5h7 M277,359.5h7 M287,355.5h7 M297,354.5h7 M301,358.5h7 M315,359.5h7 M318,352.5h7 M327,356.5h7 M335,353.5h7 M352,353.5h7 M345,356.5h7 M366,353.5h7 M361,357.5h7 M377,355.5h7 M384,358.5h7 M392,355.5h7 M401,358.5h7 M404,353.5h7 M414,356.5h7 M424,354.5h7 M436,353.5h7 M434,359.5h7 M446,356.5h7 M459,355.5h7 M470,360.5h7 M478,358.5h7 M481,354.5h7 M489,352.5h7 M496,356.5h7 M509,356.5h7 M260,360.5h7 M258,365.5h7 M269,363.5h7 M278,365.5h7 M287,362.5h7 M297,363.5h7 M307,364.5h7 M318,364.5h7 M325,369.5h7 M327,361.5h7 M335,364.5h7 M347,361.5h7 M345,366.5h7 M360,362.5h7 M375,362.5h7 M372,366.5h7 M388,363.5h7 M393,366.5h7 M407,362.5h7 M411,366.5h7 M421,360.5h7 M424,366.5h7 M435,367.5h7 M440,363.5h7 M451,366.5h7 M452,360.5h7 M463,362.5h7 M471,366.5h7 M483,364.5h7 M490,360.5h7 M502,365.5h7 M502,360.5h7 M266,374.5h7 M269,369.5h7 M277,372.5h7 M287,369.5h7 M298,374.5h7 M301,369.5h7 M309,372.5h7 M318,373.5h7 M330,374.5h7 M337,370.5h7 M345,373.5h7 M357,367.5h7 M361,371.5h7 M367,374.5h7 M376,372.5h7 M384,369.5h7 M394,372.5h7 M402,375.5h7 M403,369.5h7 M415,370.5h7 M420,374.5h7 M431,371.5h7 M444,370.5h7 M450,374.5h7 M460,369.5h7 M463,374.5h7 M475,370.5h7 M482,373.5h7 M491,374.5h7 M492,368.5h7 M502,373.5h7 M258,378.5h7 M266,382.5h7 M274,377.5h7 M286,376.5h7 M290,380.5h7 M296,383.5h7 M306,377.5h7 M310,382.5h7 M327,383.5h7 M321,379.5h7 M335,379.5h7 M346,380.5h7 M354,375.5h7 M355,382.5h7 M365,380.5h7 M378,379.5h7 M389,383.5h7 M386,376.5h7 M396,380.5h7 M409,381.5h7 M414,378.5h7 M426,381.5h7 M432,377.5h7 M443,378.5h7 M448,384.5h7 M458,378.5h7 M462,383.5h7 M474,376.5h7 M475,381.5h7 M490,380.5h7 M501,384.5h7 M502,379.5h7 M258,384.5h7 M267,388.5h7 M278,389.5h7 M278,383.5h7 M286,386.5h7 M299,391.5h7 M304,387.5h7 M318,386.5h7 M315,391.5h7 M332,386.5h7 M340,390.5h7 M347,386.5h7 M355,390.5h7 M362,385.5h7 M372,392.5h7 M373,388.5h7 M378,385.5h7 M394,386.5h7 M400,391.5h7 M408,386.5h7 M418,390.5h7 M423,386.5h7 M433,389.5h7 M436,384.5h7 M452,391.5h7 M455,387.5h7 M469,385.5h7 M468,390.5h7 M483,390.5h7 M483,384.5h7 M493,388.5h7 M508,389.5h7 M511,397.5h7 M267,397.5h7 M270,393.5h7 M282,397.5h7 M287,393.5h7 M295,396.5h7 M302,398.5h7 M317,399.5h7 M319,394.5h7 M331,393.5h7 M338,397.5h7 M346,394.5h7 M351,399.5h7 M362,401.5h7 M362,394.5h7 M370,398.5h7 M384,395.5h7 M386,391.5h7 M402,397.5h7 M411,393.5h7 M416,397.5h7 M427,399.5h7 M429,394.5h7 M440,398.5h7 M441,392.5h7 M459,394.5h7 M460,400.5h7 M468,397.5h7 M479,395.5h7 M491,394.5h7 M498,397.5h7 M507,393.5h7 M511,402.5h7 M264,406.5h7 M270,402.5h7 M279,403.5h7 M287,406.5h7 M295,403.5h7 M306,401.5h7 M310,405.5h7 M324,404.5h7 M330,399.5h7 M333,407.5h7 M340,404.5h7 M354,404.5h7 M363,407.5h7 M372,404.5h7 M385,405.5h7 M383,400.5h7 M394,399.5h7 M397,405.5h7 M406,403.5h7 M416,407.5h7 M420,403.5h7 M434,403.5h7 M446,401.5h7 M443,407.5h7 M453,405.5h7 M475,408.5h7 M468,404.5h7 M478,400.5h7 M483,404.5h7 M494,401.5h7 M501,405.5h7 M506,409.5h7 M263,411.5h7 M273,413.5h7 M281,410.5h7 M289,414.5h7 M295,410.5h7 M304,412.5h7 M317,413.5h7 M317,408.5h7 M329,413.5h7 M345,414.5h7 M338,411.5h7 M352,410.5h7 M360,415.5h7 M367,411.5h7 M377,409.5h7 M383,412.5h7 M392,415.5h7 M399,412.5h7 M407,409.5h7 M411,414.5h7 M423,412.5h7 M429,408.5h7 M438,412.5h7 M454,412.5h7 M463,415.5h7 M461,408.5h7 M472,413.5h7 M486,411.5h7 M492,408.5h7 M497,414.5h7 M511,414.5h7 M269,422.5h7 M266,416.5h7 M279,418.5h7 M287,421.5h7 M299,418.5h7 M308,423.5h7 M311,417.5h7 M318,421.5h7 M328,420.5h7 M338,418.5h7 M345,422.5h7 M357,423.5h7 M353,418.5h7 M369,418.5h7 M379,423.5h7 M381,418.5h7 M390,421.5h7 M401,419.5h7 M412,421.5h7 M419,418.5h7 M427,421.5h7 M433,416.5h7 M442,421.5h7 M446,416.5h7 M455,420.5h7 M465,421.5h7 M477,422.5h7 M479,416.5h7 M489,418.5h7 M505,418.5h7 M494,422.5h7 M257,429.5h7 M265,426.5h7 M275,430.5h7 M279,425.5h7 M288,428.5h7 M296,424.5h7 M302,428.5h7 M318,429.5h7 M325,426.5h7 M334,428.5h7 M346,427.5h7 M342,432.5h7 M355,431.5h7 M368,424.5h7 M364,429.5h7 M380,428.5h7 M389,432.5h7 M394,427.5h7 M402,424.5h7 M404,431.5h7 M412,428.5h7 M423,426.5h7 M429,429.5h7 M440,428.5h7 M445,425.5h7 M456,426.5h7 M464,429.5h7 M474,427.5h7 M484,426.5h7 M487,431.5h7 M496,428.5h7 M504,425.5h7 M265,439.5h7 M272,434.5h7 M281,439.5h7 M287,435.5h7 M294,432.5h7 M303,436.5h7 M310,431.5h7 M325,438.5h7 M317,435.5h7 M331,434.5h7 M341,439.5h7 M350,435.5h7 M364,436.5h7 M373,431.5h7 M373,439.5h7 M382,436.5h7 M395,435.5h7 M404,439.5h7 M412,435.5h7 M427,439.5h7 M423,433.5h7 M435,435.5h7 M442,433.5h7 M449,436.5h7 M457,433.5h7 M464,437.5h7 M473,433.5h7 M480,436.5h7 M489,440.5h7 M496,436.5h7 M504,432.5h7 M511,441.5h7 M263,446.5h7 M273,443.5h7 M284,447.5h7 M288,442.5h7 M295,446.5h7 M302,441.5h7 M310,445.5h7 M318,442.5h7 M327,445.5h7 M334,442.5h7 M347,447.5h7 M350,441.5h7 M358,445.5h7 M366,442.5h7 M374,445.5h7 M388,445.5h7 M394,441.5h7 M398,448.5h7 M406,444.5h7 M418,441.5h7 M425,446.5h7 M435,442.5h7 M441,446.5h7 M450,441.5h7 M456,445.5h7 M466,442.5h7 M478,441.5h7 M472,446.5h7 M488,446.5h7 M498,441.5h7 M503,445.5h7 M271,448.5h7 M271,453.5h7 M283,452.5h7 M288,455.5h7 M301,449.5h7 M310,452.5h7 M318,449.5h7 M319,455.5h7 M328,452.5h7 M335,448.5h7 M341,453.5h7 M351,455.5h7 M359,450.5h7 M365,453.5h7 M383,454.5h7 M379,448.5h7 M389,451.5h7 M402,452.5h7 M413,448.5h7 M412,454.5h7 M421,452.5h7 M432,449.5h7 M442,453.5h7 M448,450.5h7 M457,454.5h7 M464,449.5h7 M474,453.5h7 M480,450.5h7 M490,454.5h7 M496,450.5h7 M505,452.5h7 M259,457.5h7 M265,460.5h7 M274,463.5h7 M277,458.5h7 M285,461.5h7 M299,460.5h7 M301,456.5h7 M311,459.5h7 M317,463.5h7 M329,458.5h7 M338,461.5h7 M345,458.5h7 M352,463.5h7 M360,460.5h7 M372,455.5h7 M374,460.5h7 M381,462.5h7 M392,459.5h7 M402,457.5h7 M408,462.5h7 M419,458.5h7 M426,461.5h7 M433,456.5h7 M440,461.5h7 M450,458.5h7 M459,460.5h7 M468,457.5h7 M473,461.5h7 M482,458.5h7 M490,461.5h7 M502,462.5h7 M504,457.5h7 M261,465.5h7 M259,470.5h7 M271,470.5h7 M282,467.5h7 M294,465.5h7 M300,470.5h7 M309,466.5h7 M312,472.5h7 M321,469.5h7 M330,471.5h7 M328,465.5h7 M342,471.5h7 M345,466.5h7 M360,466.5h7 M370,469.5h7 M377,466.5h7 M386,470.5h7 M391,465.5h7 M402,466.5h7 M417,465.5h7 M414,471.5h7 M423,469.5h7 M432,465.5h7 M439,469.5h7 M448,464.5h7 M453,469.5h7 M463,471.5h7 M463,466.5h7 M477,466.5h7 M485,469.5h7 M493,467.5h7 M506,467.5h7 M507,473.5h7 M265,477.5h7 M275,474.5h7 M287,472.5h7 M286,478.5h7 M296,474.5h7 M301,480.5h7 M308,477.5h7 M321,476.5h7 M332,479.5h7 M336,475.5h7 M351,472.5h7 M348,478.5h7 M363,478.5h7 M362,473.5h7 M374,474.5h7 M385,477.5h7 M393,473.5h7 M403,471.5h7 M404,478.5h7 M417,478.5h7 M424,474.5h7 M433,477.5h7 M441,475.5h7 M455,474.5h7 M448,478.5h7 M475,472.5h7 M469,476.5h7 M484,477.5h7 M492,473.5h7 M499,476.5h7 M510,479.5h7 M509,485.5h7 M262,483.5h7 M272,486.5h7 M273,480.5h7 M282,484.5h7 M294,484.5h7 M303,485.5h7 M313,483.5h7 M324,488.5h7 M325,482.5h7 M335,485.5h7 M347,484.5h7 M359,487.5h7 M356,481.5h7 M370,483.5h7 M378,480.5h7 M384,484.5h7 M394,479.5h7 M401,484.5h7 M411,487.5h7 M413,482.5h7 M424,483.5h7 M435,483.5h7 M444,485.5h7 M453,483.5h7 M460,486.5h7 M463,480.5h7 M475,486.5h7 M478,480.5h7 M486,483.5h7 M498,481.5h7 M495,486.5h7 M257,493.5h7 M265,490.5h7 M273,494.5h7 M281,490.5h7 M289,493.5h7 M296,490.5h7 M305,494.5h7 M312,490.5h7 M319,492.5h7 M325,496.5h7 M335,493.5h7 M342,489.5h7 M350,491.5h7 M364,492.5h7 M374,488.5h7 M375,494.5h7 M385,491.5h7 M393,487.5h7 M399,491.5h7 M411,493.5h7 M420,496.5h7 M421,489.5h7 M431,490.5h7 M441,489.5h7 M448,492.5h7 M459,494.5h7 M468,489.5h7 M471,495.5h7 M479,492.5h7 M489,490.5h7 M497,494.5h7 M505,490.5h7 M258,500.5h7 M259,504.5h7 M272,500.5h7 M281,497.5h7 M289,501.5h7 M300,504.5h7 M296,497.5h7 M306,500.5h7 M320,501.5h7 M332,498.5h7 M335,503.5h7 M346,498.5h7 M355,501.5h7 M356,495.5h7 M365,499.5h7 M378,499.5h7 M387,501.5h7 M388,496.5h7 M398,499.5h7 M409,498.5h7 M416,503.5h7 M426,502.5h7 M431,498.5h7 M439,495.5h7 M447,499.5h7 M457,501.5h7 M465,499.5h7 M475,502.5h7 M482,497.5h7 M488,501.5h7 M498,500.5h7 M505,497.5h7 M258,509.5h7 M267,256.5h7 M270,506.5h7 M280,504.5h7 M290,508.5h7 M299,256.5h7 M307,509.5h7 M321,507.5h7 M313,504.5h7 M330,510.5h7 M337,507.5h7 M345,256.5h7 M347,505.5h7 M354,509.5h7 M363,504.5h7 M379,505.5h7 M386,509.5h7 M403,510.5h7 M395,505.5h7 M407,505.5h7 M415,510.5h7 M426,509.5h7 M437,504.5h7 M434,511.5h7 M443,508.5h7 M450,505.5h7 M460,507.5h7 M474,508.5h7 M485,506.5h7 M489,510.5h7 M499,506.5h7 M505,511.5h7" stroke-width="1" stroke="#4aa5fa"/>
</svg>