<?xml version="1.0" encoding="UTF-8"?>
<svg xmlns="http://www.w3.org/2000/svg" xmlns:xlink="http://www.w3.org/1999/xlink" width="512" height="512" viewBox="0 0 512 512">
  <defs>
    <path id="bog1" fill="#73b386" d="m-2.5,2.25 h8 v0.75 h-8 z m1,1.75 h8 v0.75 h-8 z m-2.25,-5.25 c0,.25 .25,.5 .5,1 .23629,.7 .22479,-.01 .25,1.75 .75,-.25 1,-.25 1.25,-.25 0,-1.25 -.5,-1.75 -1,-2.25 -.5,-.25 -.5,-.25 -1,-.25 z m2.25,-2.5 c-0.125,0 0,.5 .25,1.75 .25,1.75 .25,1.5 0,3.25 .5,0 1,-.25 1.5,-.25 0,-1.5 -.25,-1.75 -.75,-3.5 -.25,-1 -.875,-1.25 -1,-1.25 z m4.25,.75 c-0.25,0 -.5,0 -1,.5 -.75,1 -.75,1.5 -1,3.5 .5,0 1,.25 1.5,.25 -.0005,-1.6198 0,-3 .5,-4.25 z m2,2 c0,.25 -.25,.25 -.5,.75 -.25,1 -.25,.75 -.25,1.75 -.75,-.25 -1,-.25 -1.25,-.23 .011,-1.59 .75,-1.77 1,-2.02 .5,-.25 .5,-.25 1,-.25 z"/>
  </defs>
  <rect id="mapnik_workaround" width="512" height="512" fill="none"/>
  <use x="411" y="70" xlink:href="#bog1"/>
  <use x="433" y="64" xlink:href="#bog1"/>
  <use x="476" y="70" xlink:href="#bog1"/>
  <use x="15" y="68" xlink:href="#bog1"/>
  <use x="84" y="50" xlink:href="#bog1"/>
  <use x="84" y="50" xlink:href="#bog1"/>
  <use x="127" y="54" xlink:href="#bog1"/>
  <use x="144" y="69" xlink:href="#bog1"/>
  <use x="175" y="49" xlink:href="#bog1"/>
  <use x="175" y="49" xlink:href="#bog1"/>
  <use x="247" y="61" xlink:href="#bog1"/>
  <use x="310" y="69" xlink:href="#bog1"/>
  <use x="340" y="50" xlink:href="#bog1"/>
  <use x="340" y="50" xlink:href="#bog1"/>
  <use x="392" y="46" xlink:href="#bog1"/>
  <use x="395" y="72" xlink:href="#bog1"/>
  <use x="455" y="83" xlink:href="#bog1"/>
  <use x="38" y="89" xlink:href="#bog1"/>
  <use x="56" y="80" xlink:href="#bog1"/>
  <use x="79" y="75" xlink:href="#bog1"/>
  <use x="102" y="89" xlink:href="#bog1"/>
  <use x="120" y="81" xlink:href="#bog1"/>
  <use x="235" y="82" xlink:href="#bog1"/>
  <use x="282" y="76" xlink:href="#bog1"/>
  <use x="317" y="88" xlink:href="#bog1"/>
  <use x="371" y="82" xlink:href="#bog1"/>
  <use x="400" y="95" xlink:href="#bog1"/>
  <use x="400" y="95" xlink:href="#bog1"/>
  <use x="453" y="106" xlink:href="#bog1"/>
  <use x="19" y="99" xlink:href="#bog1"/>
  <use x="64" y="110" xlink:href="#bog1"/>
  <use x="82" y="100" xlink:href="#bog1"/>
  <use x="240" y="108" xlink:href="#bog1"/>
  <use x="265" y="102" xlink:href="#bog1"/>
  <use x="307" y="110" xlink:href="#bog1"/>
  <use x="380" y="100" xlink:href="#bog1"/>
  <use x="417" y="134" xlink:href="#bog1"/>
  <use x="440" y="123" xlink:href="#bog1"/>
  <use x="478" y="134" xlink:href="#bog1"/>
  <use x="500" y="129" xlink:href="#bog1"/>
  <use x="5" y="124" xlink:href="#bog1"/>
  <use x="84" y="134" xlink:href="#bog1"/>
  <use x="109" y="129" xlink:href="#bog1"/>
  <use x="175" y="125" xlink:href="#bog1"/>
  <use x="196" y="133" xlink:href="#bog1"/>
  <use x="258" y="124" xlink:href="#bog1"/>
  <use x="295" y="129" xlink:href="#bog1"/>
  <use x="322" y="127" xlink:href="#bog1"/>
  <use x="339" y="136" xlink:href="#bog1"/>
  <use x="369" y="131" xlink:href="#bog1"/>
  <use x="412" y="155" xlink:href="#bog1"/>
  <use x="481" y="153" xlink:href="#bog1"/>
  <use x="49" y="155" xlink:href="#bog1"/>
  <use x="75" y="152" xlink:href="#bog1"/>
  <use x="99" y="154" xlink:href="#bog1"/>
  <use x="141" y="159" xlink:href="#bog1"/>
  <use x="195" y="153" xlink:href="#bog1"/>
  <use x="231" y="156" xlink:href="#bog1"/>
  <use x="238" y="140" xlink:href="#bog1"/>
  <use x="295" y="155" xlink:href="#bog1"/>
  <use x="311" y="152" xlink:href="#bog1"/>
  <use x="366" y="150" xlink:href="#bog1"/>
  <use x="449" y="177" xlink:href="#bog1"/>
  <use x="469" y="180" xlink:href="#bog1"/>
  <use x="53" y="177" xlink:href="#bog1"/>
  <use x="128" y="181" xlink:href="#bog1"/>
  <use x="151" y="178" xlink:href="#bog1"/>
  <use x="176" y="171" xlink:href="#bog1"/>
  <use x="212" y="165" xlink:href="#bog1"/>
  <use x="247" y="172" xlink:href="#bog1"/>
  <use x="276" y="166" xlink:href="#bog1"/>
  <use x="290" y="180" xlink:href="#bog1"/>
  <use x="366" y="173" xlink:href="#bog1"/>
  <use x="385" y="184" xlink:href="#bog1"/>
  <use x="426" y="197" xlink:href="#bog1"/>
  <use x="482" y="195" xlink:href="#bog1"/>
  <use x="109" y="192" xlink:href="#bog1"/>
  <use x="180" y="193" xlink:href="#bog1"/>
  <use x="209" y="205" xlink:href="#bog1"/>
  <use x="223" y="188" xlink:href="#bog1"/>
  <use x="244" y="193" xlink:href="#bog1"/>
  <use x="263" y="203" xlink:href="#bog1"/>
  <use x="281" y="200" xlink:href="#bog1"/>
  <use x="308" y="191" xlink:href="#bog1"/>
  <use x="384" y="207" xlink:href="#bog1"/>
  <use x="427" y="229" xlink:href="#bog1"/>
  <use x="448" y="215" xlink:href="#bog1"/>
  <use x="10" y="224" xlink:href="#bog1"/>
  <use x="70" y="216" xlink:href="#bog1"/>
  <use x="105" y="224" xlink:href="#bog1"/>
  <use x="126" y="222" xlink:href="#bog1"/>
  <use x="175" y="214" xlink:href="#bog1"/>
  <use x="191" y="228" xlink:href="#bog1"/>
  <use x="239" y="219" xlink:href="#bog1"/>
  <use x="419" y="252" xlink:href="#bog1"/>
  <use x="442" y="240" xlink:href="#bog1"/>
  <use x="483" y="251" xlink:href="#bog1"/>
  <use x="505" y="243" xlink:href="#bog1"/>
  <use x="15" y="247" xlink:href="#bog1"/>
  <use x="70" y="243" xlink:href="#bog1"/>
  <use x="104" y="248" xlink:href="#bog1"/>
  <use x="129" y="246" xlink:href="#bog1"/>
  <use x="193" y="252" xlink:href="#bog1"/>
  <use x="215" y="246" xlink:href="#bog1"/>
  <use x="342" y="232" xlink:href="#bog1"/>
  <use x="355" y="243" xlink:href="#bog1"/>
  <use x="393" y="248" xlink:href="#bog1"/>
  <use x="393" y="248" xlink:href="#bog1"/>
  <use x="413" y="271" xlink:href="#bog1"/>
  <use x="437" y="266" xlink:href="#bog1"/>
  <use x="455" y="264" xlink:href="#bog1"/>
  <use x="479" y="271" xlink:href="#bog1"/>
  <use x="48" y="276" xlink:href="#bog1"/>
  <use x="106" y="269" xlink:href="#bog1"/>
  <use x="139" y="265" xlink:href="#bog1"/>
  <use x="159" y="276" xlink:href="#bog1"/>
  <use x="251" y="266" xlink:href="#bog1"/>
  <use x="284" y="264" xlink:href="#bog1"/>
  <use x="329" y="259" xlink:href="#bog1"/>
  <use x="376" y="263" xlink:href="#bog1"/>
  <use x="413" y="295" xlink:href="#bog1"/>
  <use x="435" y="292" xlink:href="#bog1"/>
  <use x="461" y="292" xlink:href="#bog1"/>
  <use x="500" y="295" xlink:href="#bog1"/>
  <use x="12" y="300" xlink:href="#bog1"/>
  <use x="168" y="293" xlink:href="#bog1"/>
  <use x="196" y="297" xlink:href="#bog1"/>
  <use x="359" y="291" xlink:href="#bog1"/>
  <use x="447" y="309" xlink:href="#bog1"/>
  <use x="5" y="323" xlink:href="#bog1"/>
  <use x="31" y="315" xlink:href="#bog1"/>
  <use x="65" y="318" xlink:href="#bog1"/>
  <use x="88" y="304" xlink:href="#bog1"/>
  <use x="109" y="316" xlink:href="#bog1"/>
  <use x="133" y="315" xlink:href="#bog1"/>
  <use x="176" y="313" xlink:href="#bog1"/>
  <use x="221" y="310" xlink:href="#bog1"/>
  <use x="284" y="322" xlink:href="#bog1"/>
  <use x="296" y="303" xlink:href="#bog1"/>
  <use x="315" y="320" xlink:href="#bog1"/>
  <use x="338" y="317" xlink:href="#bog1"/>
  <use x="360" y="307" xlink:href="#bog1"/>
  <use x="384" y="301" xlink:href="#bog1"/>
  <use x="396" y="343" xlink:href="#bog1"/>
  <use x="396" y="343" xlink:href="#bog1"/>
  <use x="428" y="342" xlink:href="#bog1"/>
  <use x="445" y="330" xlink:href="#bog1"/>
  <use x="491" y="349" xlink:href="#bog1"/>
  <use x="58" y="345" xlink:href="#bog1"/>
  <use x="121" y="335" xlink:href="#bog1"/>
  <use x="148" y="339" xlink:href="#bog1"/>
  <use x="201" y="342" xlink:href="#bog1"/>
  <use x="220" y="331" xlink:href="#bog1"/>
  <use x="265" y="329" xlink:href="#bog1"/>
  <use x="342" y="344" xlink:href="#bog1"/>
  <use x="359" y="330" xlink:href="#bog1"/>
  <use x="411" y="359" xlink:href="#bog1"/>
  <use x="472" y="368" xlink:href="#bog1"/>
  <use x="507" y="357" xlink:href="#bog1"/>
  <use x="31" y="362" xlink:href="#bog1"/>
  <use x="64" y="364" xlink:href="#bog1"/>
  <use x="82" y="354" xlink:href="#bog1"/>
  <use x="182" y="360" xlink:href="#bog1"/>
  <use x="220" y="359" xlink:href="#bog1"/>
  <use x="242" y="360" xlink:href="#bog1"/>
  <use x="263" y="357" xlink:href="#bog1"/>
  <use x="306" y="365" xlink:href="#bog1"/>
  <use x="326" y="360" xlink:href="#bog1"/>
  <use x="385" y="360" xlink:href="#bog1"/>
  <use x="439" y="394" xlink:href="#bog1"/>
  <use x="450" y="373" xlink:href="#bog1"/>
  <use x="480" y="383" xlink:href="#bog1"/>
  <use x="499" y="384" xlink:href="#bog1"/>
  <use x="35" y="389" xlink:href="#bog1"/>
  <use x="79" y="383" xlink:href="#bog1"/>
  <use x="103" y="390" xlink:href="#bog1"/>
  <use x="173" y="377" xlink:href="#bog1"/>
  <use x="226" y="380" xlink:href="#bog1"/>
  <use x="324" y="383" xlink:href="#bog1"/>
  <use x="345" y="379" xlink:href="#bog1"/>
  <use x="364" y="375" xlink:href="#bog1"/>
  <use x="388" y="387" xlink:href="#bog1"/>
  <use x="403" y="416" xlink:href="#bog1"/>
  <use x="501" y="412" xlink:href="#bog1"/>
  <use x="18" y="407" xlink:href="#bog1"/>
  <use x="83" y="407" xlink:href="#bog1"/>
  <use x="106" y="412" xlink:href="#bog1"/>
  <use x="129" y="400" xlink:href="#bog1"/>
  <use x="153" y="413" xlink:href="#bog1"/>
  <use x="168" y="400" xlink:href="#bog1"/>
  <use x="229" y="404" xlink:href="#bog1"/>
  <use x="251" y="415" xlink:href="#bog1"/>
  <use x="313" y="401" xlink:href="#bog1"/>
  <use x="377" y="410" xlink:href="#bog1"/>
  <use x="407" y="437" xlink:href="#bog1"/>
  <use x="440" y="419" xlink:href="#bog1"/>
  <use x="11" y="430" xlink:href="#bog1"/>
  <use x="114" y="436" xlink:href="#bog1"/>
  <use x="195" y="425" xlink:href="#bog1"/>
  <use x="242" y="431" xlink:href="#bog1"/>
  <use x="345" y="421" xlink:href="#bog1"/>
  <use x="429" y="437" xlink:href="#bog1"/>
  <use x="452" y="457" xlink:href="#bog1"/>
  <use x="14" y="452" xlink:href="#bog1"/>
  <use x="72" y="445" xlink:href="#bog1"/>
  <use x="77" y="462" xlink:href="#bog1"/>
  <use x="184" y="453" xlink:href="#bog1"/>
  <use x="202" y="458" xlink:href="#bog1"/>
  <use x="219" y="457" xlink:href="#bog1"/>
  <use x="238" y="451" xlink:href="#bog1"/>
  <use x="261" y="444" xlink:href="#bog1"/>
  <use x="298" y="461" xlink:href="#bog1"/>
  <use x="323" y="447" xlink:href="#bog1"/>
  <use x="339" y="461" xlink:href="#bog1"/>
  <use x="349" y="443" xlink:href="#bog1"/>
  <use x="388" y="456" xlink:href="#bog1"/>
  <use x="405" y="474" xlink:href="#bog1"/>
  <use x="430" y="474" xlink:href="#bog1"/>
  <use x="504" y="476" xlink:href="#bog1"/>
  <use x="13" y="471" xlink:href="#bog1"/>
  <use x="50" y="489" xlink:href="#bog1"/>
  <use x="108" y="479" xlink:href="#bog1"/>
  <use x="149" y="485" xlink:href="#bog1"/>
  <use x="173" y="471" xlink:href="#bog1"/>
  <use x="213" y="483" xlink:href="#bog1"/>
  <use x="244" y="477" xlink:href="#bog1"/>
  <use x="264" y="469" xlink:href="#bog1"/>
  <use x="314" y="477" xlink:href="#bog1"/>
  <use x="377" y="474" xlink:href="#bog1"/>
  <use x="414" y="499" xlink:href="#bog1"/>
  <use x="435" y="500" xlink:href="#bog1"/>
  <use x="455" y="498" xlink:href="#bog1"/>
  <use x="477" y="502" xlink:href="#bog1"/>
  <use x="499" y="501" xlink:href="#bog1"/>
  <use x="10" y="499" xlink:href="#bog1"/>
  <use x="103" y="501" xlink:href="#bog1"/>
  <use x="122" y="500" xlink:href="#bog1"/>
  <use x="169" y="497" xlink:href="#bog1"/>
  <use x="206" y="506" xlink:href="#bog1"/>
  <use x="229" y="499" xlink:href="#bog1"/>
  <use x="290" y="502" xlink:href="#bog1"/>
  <use x="318" y="499" xlink:href="#bog1"/>
  <use x="392" y="494" xlink:href="#bog1"/>
  <use x="412" y="11" xlink:href="#bog1"/>
  <use x="436" y="11" xlink:href="#bog1"/>
  <use x="84" y="7" xlink:href="#bog1"/>
  <use x="136" y="11" xlink:href="#bog1"/>
  <use x="163" y="13" xlink:href="#bog1"/>
  <use x="334" y="9" xlink:href="#bog1"/>
  <use x="352" y="21" xlink:href="#bog1"/>
  <use x="390" y="9" xlink:href="#bog1"/>
  <use x="413" y="34" xlink:href="#bog1"/>
  <use x="429" y="44" xlink:href="#bog1"/>
  <use x="449" y="40" xlink:href="#bog1"/>
  <use x="495" y="36" xlink:href="#bog1"/>
  <use x="5" y="40" xlink:href="#bog1"/>
  <use x="28" y="37" xlink:href="#bog1"/>
  <use x="51" y="36" xlink:href="#bog1"/>
  <use x="75" y="31" xlink:href="#bog1"/>
  <use x="166" y="35" xlink:href="#bog1"/>
  <use x="201" y="40" xlink:href="#bog1"/>
  <use x="250" y="40" xlink:href="#bog1"/>
  <use x="278" y="36" xlink:href="#bog1"/>
  <use x="329" y="33" xlink:href="#bog1"/>
  <use x="365" y="40" xlink:href="#bog1"/>
  <use x="463" y="53" xlink:href="#bog1"/>
  <use x="463" y="53" xlink:href="#bog1"/>
  <use x="502" y="62" xlink:href="#bog1"/>
  <use x="41" y="64" xlink:href="#bog1"/>
  <use x="61" y="55" xlink:href="#bog1"/>
  <use x="109" y="64" xlink:href="#bog1"/>
  <use x="190" y="62" xlink:href="#bog1"/>
  <use x="221" y="56" xlink:href="#bog1"/>
  <use x="269" y="54" xlink:href="#bog1"/>
  <use x="293" y="57" xlink:href="#bog1"/>
  <use x="370" y="59" xlink:href="#bog1"/>
  <use x="437" y="84" xlink:href="#bog1"/>
  <use x="473" y="89" xlink:href="#bog1"/>
  <use x="493" y="87" xlink:href="#bog1"/>
  <use x="5" y="83" xlink:href="#bog1"/>
  <use x="157" y="87" xlink:href="#bog1"/>
  <use x="172" y="74" xlink:href="#bog1"/>
  <use x="197" y="78" xlink:href="#bog1"/>
  <use x="217" y="80" xlink:href="#bog1"/>
  <use x="259" y="80" xlink:href="#bog1"/>
  <use x="346" y="91" xlink:href="#bog1"/>
  <use x="345" y="72" xlink:href="#bog1"/>
  <use x="422" y="102" xlink:href="#bog1"/>
  <use x="470" y="116" xlink:href="#bog1"/>
  <use x="501" y="102" xlink:href="#bog1"/>
  <use x="23" y="117" xlink:href="#bog1"/>
  <use x="97" y="112" xlink:href="#bog1"/>
  <use x="135" y="96" xlink:href="#bog1"/>
  <use x="149" y="114" xlink:href="#bog1"/>
  <use x="176" y="102" xlink:href="#bog1"/>
  <use x="199" y="103" xlink:href="#bog1"/>
  <use x="223" y="112" xlink:href="#bog1"/>
  <use x="288" y="100" xlink:href="#bog1"/>
  <use x="332" y="108" xlink:href="#bog1"/>
  <use x="357" y="112" xlink:href="#bog1"/>
  <use x="403" y="121" xlink:href="#bog1"/>
  <use x="46" y="117" xlink:href="#bog1"/>
  <use x="57" y="135" xlink:href="#bog1"/>
  <use x="127" y="118" xlink:href="#bog1"/>
  <use x="153" y="135" xlink:href="#bog1"/>
  <use x="212" y="124" xlink:href="#bog1"/>
  <use x="275" y="136" xlink:href="#bog1"/>
  <use x="385" y="122" xlink:href="#bog1"/>
  <use x="438" y="144" xlink:href="#bog1"/>
  <use x="458" y="149" xlink:href="#bog1"/>
  <use x="507" y="159" xlink:href="#bog1"/>
  <use x="12" y="147" xlink:href="#bog1"/>
  <use x="32" y="142" xlink:href="#bog1"/>
  <use x="128" y="144" xlink:href="#bog1"/>
  <use x="170" y="150" xlink:href="#bog1"/>
  <use x="259" y="154" xlink:href="#bog1"/>
  <use x="346" y="155" xlink:href="#bog1"/>
  <use x="387" y="158" xlink:href="#bog1"/>
  <use x="406" y="177" xlink:href="#bog1"/>
  <use x="430" y="166" xlink:href="#bog1"/>
  <use x="495" y="172" xlink:href="#bog1"/>
  <use x="15" y="183" xlink:href="#bog1"/>
  <use x="31" y="176" xlink:href="#bog1"/>
  <use x="79" y="173" xlink:href="#bog1"/>
  <use x="112" y="168" xlink:href="#bog1"/>
  <use x="197" y="185" xlink:href="#bog1"/>
  <use x="320" y="172" xlink:href="#bog1"/>
  <use x="340" y="174" xlink:href="#bog1"/>
  <use x="407" y="199" xlink:href="#bog1"/>
  <use x="448" y="197" xlink:href="#bog1"/>
  <use x="505" y="192" xlink:href="#bog1"/>
  <use x="8" y="204" xlink:href="#bog1"/>
  <use x="45" y="202" xlink:href="#bog1"/>
  <use x="68" y="196" xlink:href="#bog1"/>
  <use x="91" y="199" xlink:href="#bog1"/>
  <use x="132" y="202" xlink:href="#bog1"/>
  <use x="156" y="200" xlink:href="#bog1"/>
  <use x="344" y="206" xlink:href="#bog1"/>
  <use x="358" y="194" xlink:href="#bog1"/>
  <use x="405" y="224" xlink:href="#bog1"/>
  <use x="472" y="214" xlink:href="#bog1"/>
  <use x="495" y="221" xlink:href="#bog1"/>
  <use x="30" y="215" xlink:href="#bog1"/>
  <use x="87" y="230" xlink:href="#bog1"/>
  <use x="150" y="223" xlink:href="#bog1"/>
  <use x="216" y="222" xlink:href="#bog1"/>
  <use x="272" y="230" xlink:href="#bog1"/>
  <use x="294" y="219" xlink:href="#bog1"/>
  <use x="312" y="220" xlink:href="#bog1"/>
  <use x="326" y="210" xlink:href="#bog1"/>
  <use x="365" y="218" xlink:href="#bog1"/>
  <use x="381" y="234" xlink:href="#bog1"/>
  <use x="466" y="238" xlink:href="#bog1"/>
  <use x="42" y="234" xlink:href="#bog1"/>
  <use x="52" y="251" xlink:href="#bog1"/>
  <use x="155" y="239" xlink:href="#bog1"/>
  <use x="168" y="255" xlink:href="#bog1"/>
  <use x="240" y="249" xlink:href="#bog1"/>
  <use x="254" y="233" xlink:href="#bog1"/>
  <use x="286" y="244" xlink:href="#bog1"/>
  <use x="316" y="242" xlink:href="#bog1"/>
  <use x="503" y="266" xlink:href="#bog1"/>
  <use x="14" y="277" xlink:href="#bog1"/>
  <use x="30" y="264" xlink:href="#bog1"/>
  <use x="76" y="261" xlink:href="#bog1"/>
  <use x="184" y="277" xlink:href="#bog1"/>
  <use x="203" y="272" xlink:href="#bog1"/>
  <use x="226" y="267" xlink:href="#bog1"/>
  <use x="267" y="277" xlink:href="#bog1"/>
  <use x="304" y="262" xlink:href="#bog1"/>
  <use x="357" y="266" xlink:href="#bog1"/>
  <use x="481" y="291" xlink:href="#bog1"/>
  <use x="32" y="297" xlink:href="#bog1"/>
  <use x="56" y="296" xlink:href="#bog1"/>
  <use x="77" y="284" xlink:href="#bog1"/>
  <use x="101" y="292" xlink:href="#bog1"/>
  <use x="119" y="285" xlink:href="#bog1"/>
  <use x="141" y="292" xlink:href="#bog1"/>
  <use x="224" y="286" xlink:href="#bog1"/>
  <use x="245" y="296" xlink:href="#bog1"/>
  <use x="276" y="294" xlink:href="#bog1"/>
  <use x="306" y="284" xlink:href="#bog1"/>
  <use x="323" y="299" xlink:href="#bog1"/>
  <use x="337" y="280" xlink:href="#bog1"/>
  <use x="390" y="280" xlink:href="#bog1"/>
  <use x="403" y="321" xlink:href="#bog1"/>
  <use x="422" y="316" xlink:href="#bog1"/>
  <use x="474" y="314" xlink:href="#bog1"/>
  <use x="494" y="320" xlink:href="#bog1"/>
  <use x="152" y="317" xlink:href="#bog1"/>
  <use x="198" y="318" xlink:href="#bog1"/>
  <use x="252" y="313" xlink:href="#bog1"/>
  <use x="470" y="335" xlink:href="#bog1"/>
  <use x="18" y="343" xlink:href="#bog1"/>
  <use x="38" y="334" xlink:href="#bog1"/>
  <use x="84" y="329" xlink:href="#bog1"/>
  <use x="97" y="345" xlink:href="#bog1"/>
  <use x="178" y="338" xlink:href="#bog1"/>
  <use x="242" y="336" xlink:href="#bog1"/>
  <use x="283" y="345" xlink:href="#bog1"/>
  <use x="311" y="338" xlink:href="#bog1"/>
  <use x="381" y="326" xlink:href="#bog1"/>
  <use x="428" y="371" xlink:href="#bog1"/>
  <use x="460" y="351" xlink:href="#bog1"/>
  <use x="13" y="367" xlink:href="#bog1"/>
  <use x="110" y="366" xlink:href="#bog1"/>
  <use x="127" y="355" xlink:href="#bog1"/>
  <use x="156" y="357" xlink:href="#bog1"/>
  <use x="202" y="371" xlink:href="#bog1"/>
  <use x="283" y="369" xlink:href="#bog1"/>
  <use x="364" y="356" xlink:href="#bog1"/>
  <use x="409" y="384" xlink:href="#bog1"/>
  <use x="5" y="389" xlink:href="#bog1"/>
  <use x="51" y="380" xlink:href="#bog1"/>
  <use x="129" y="379" xlink:href="#bog1"/>
  <use x="149" y="380" xlink:href="#bog1"/>
  <use x="208" y="394" xlink:href="#bog1"/>
  <use x="246" y="387" xlink:href="#bog1"/>
  <use x="265" y="383" xlink:href="#bog1"/>
  <use x="291" y="388" xlink:href="#bog1"/>
  <use x="419" y="403" xlink:href="#bog1"/>
  <use x="460" y="400" xlink:href="#bog1"/>
  <use x="480" y="412" xlink:href="#bog1"/>
  <use x="44" y="407" xlink:href="#bog1"/>
  <use x="64" y="408" xlink:href="#bog1"/>
  <use x="189" y="403" xlink:href="#bog1"/>
  <use x="271" y="408" xlink:href="#bog1"/>
  <use x="292" y="414" xlink:href="#bog1"/>
  <use x="335" y="407" xlink:href="#bog1"/>
  <use x="360" y="399" xlink:href="#bog1"/>
  <use x="453" y="433" xlink:href="#bog1"/>
  <use x="473" y="435" xlink:href="#bog1"/>
  <use x="506" y="438" xlink:href="#bog1"/>
  <use x="34" y="428" xlink:href="#bog1"/>
  <use x="57" y="434" xlink:href="#bog1"/>
  <use x="92" y="429" xlink:href="#bog1"/>
  <use x="130" y="424" xlink:href="#bog1"/>
  <use x="156" y="437" xlink:href="#bog1"/>
  <use x="177" y="430" xlink:href="#bog1"/>
  <use x="217" y="425" xlink:href="#bog1"/>
  <use x="279" y="439" xlink:href="#bog1"/>
  <use x="298" y="438" xlink:href="#bog1"/>
  <use x="314" y="425" xlink:href="#bog1"/>
  <use x="365" y="439" xlink:href="#bog1"/>
  <use x="384" y="430" xlink:href="#bog1"/>
  <use x="418" y="457" xlink:href="#bog1"/>
  <use x="487" y="462" xlink:href="#bog1"/>
  <use x="487" y="445" xlink:href="#bog1"/>
  <use x="39" y="452" xlink:href="#bog1"/>
  <use x="103" y="457" xlink:href="#bog1"/>
  <use x="134" y="445" xlink:href="#bog1"/>
  <use x="153" y="461" xlink:href="#bog1"/>
  <use x="456" y="478" xlink:href="#bog1"/>
  <use x="477" y="479" xlink:href="#bog1"/>
  <use x="43" y="469" xlink:href="#bog1"/>
  <use x="71" y="479" xlink:href="#bog1"/>
  <use x="129" y="472" xlink:href="#bog1"/>
  <use x="191" y="489" xlink:href="#bog1"/>
  <use x="287" y="478" xlink:href="#bog1"/>
  <use x="337" y="486" xlink:href="#bog1"/>
  <use x="356" y="474" xlink:href="#bog1"/>
  <use x="28" y="492" xlink:href="#bog1"/>
  <use x="51" y="507" xlink:href="#bog1"/>
  <use x="84" y="493" xlink:href="#bog1"/>
  <use x="146" y="505" xlink:href="#bog1"/>
  <use x="251" y="500" xlink:href="#bog1"/>
  <use x="270" y="496" xlink:href="#bog1"/>
  <use x="350" y="506" xlink:href="#bog1"/>
  <use x="372" y="502" xlink:href="#bog1"/>
  <use x="453" y="21" xlink:href="#bog1"/>
  <use x="474" y="9" xlink:href="#bog1"/>
  <use x="506" y="20" xlink:href="#bog1"/>
  <use x="8" y="9" xlink:href="#bog1"/>
  <use x="30" y="15" xlink:href="#bog1"/>
  <use x="63" y="13" xlink:href="#bog1"/>
  <use x="104" y="19" xlink:href="#bog1"/>
  <use x="182" y="7" xlink:href="#bog1"/>
  <use x="201" y="17" xlink:href="#bog1"/>
  <use x="224" y="8" xlink:href="#bog1"/>
  <use x="245" y="18" xlink:href="#bog1"/>
  <use x="265" y="10" xlink:href="#bog1"/>
  <use x="288" y="12" xlink:href="#bog1"/>
  <use x="311" y="7" xlink:href="#bog1"/>
  <use x="477" y="31" xlink:href="#bog1"/>
  <use x="103" y="41" xlink:href="#bog1"/>
  <use x="125" y="30" xlink:href="#bog1"/>
  <use x="145" y="38" xlink:href="#bog1"/>
  <use x="228" y="33" xlink:href="#bog1"/>
  <use x="302" y="28" xlink:href="#bog1"/>
  <use x="314" y="47" xlink:href="#bog1"/>
  <use x="314" y="47" xlink:href="#bog1"/>
  <use x="378" y="22" xlink:href="#bog1"/>
  <path stroke="#4aa5fa" stroke-width=".8" d="
M298,47.5 h7 m50,0 h7 m-119,0 h7 m25,0 h7 m39,0 h7 m-286,0 h7 m50,0 h7 m393,0 h7 m-487,0 h7 m39,0 h7
M369,48.5 h7 m61,0 h3 m14,0 h6 m-347,0 h7 m62,0 h2 m14,0 h7
M421,49.5 h5 m46,0 h7 m-314,0 h5 m46,0 h7
M256,50.5 h7 m84,0 h7 m-354,0 h7 m5,0 h7 m72,0 h7
M295,51.5 h7 m100,0 h7 m38,0 h7 m-415,0 h7 m88,0 h7 m5,0 h7 m38,0 h7
M240,52.5 h7 m33,0 h7 m41,0 h7 m45,0 h7 m92,0 h7 m10,0 h7 m-479,0 h7 m41,0 h7 m129,0 h7 m11,0 h4
M411,53.5 h7 m11,0 h7 m-281,0 h7
M248,54.5 h7 m119,0 h3 m127,0 h7 m-397,0 h7
M358,55.5 h7 m74,0 h7 m-414,0 h7 m63,0 h7 m74,0 h7
M326,56.5 h7 m153,0 h7 m-193,0 h6 m6,0 h7 m101,0 h7 m-357,0 h7 m153,0 h7 m-194,0 h7 m114,0 h7 m31,0 h7
M259,57.5 h6 m80,0 h7 m35,0 h7 m-382,0 h7 m-16,0 h7 m79,0 h7 m39,0 h3
M377,58.5 h4 m20,0 h7 m38,0 h7 m23,0 h7 m-365,0 h5 m22,0 h7 m43,0 h2
M280,59.5 h7 m221,0 h3 m-487,0 h7
M236,60.5 h5 m64,0 h7 m8,0 h7 m10,0 h7 m66,0 h7 m75,0 h4 m-447,0 h7 m13,0 h2 m10,0 h7 m66,0 h7
M356,61.5 h7 m29,0 h7 m40,0 h5 m25,0 h7 m-442,0 h2 m64,0 h4 m11,0 h3 m18,0 h7 m38,0 h3 m29,0 h5
M270,62.5 h7 m146,0 h4 m28,0 h7 m-447,0 h6 m146,0 h7 m25,0 h7
M258,63.5 h7 m-263,0 h7
M325,64.5 h7 m16,0 h7 m24,0 h7 m29,0 h7 m-353,0 h7 m16,0 h7 m24,0 h7 m29,0 h7
M482,65.5 h7 m-252,0 h6 m33,0 h7 m10,0 h7 m15,0 h5 m70,0 h7 m5,0 h6 m39,0 h7 m8,0 h7 m-243,0 h7 m260,0 h5 m-477,0 h6 m30,0 h7 m70,0 h6 m9,0 h4 m21,0 h7 m25,0 h7
M337,66.5 h5 m18,0 h7 m-286,0 h7
M49,67.5 h7
M265,68.5 h7 m99,0 h7 m-261,0 h5
M283,69.5 h7 m39,0 h7 m85,0 h7 m13,0 h3 m-417,0 h7 m39,0 h3 m12,0 h7 m56,0 h5 m9,0 h4 m12,0 h7 m25,0 h7
M256,70.5 h7 m33,0 h7 m78,0 h7 m65,0 h7 m25,0 h7 m-492,0 h7 m33,0 h7 m78,0 h7 m65,0 h7 m25,0 h7
M246,71.5 h7 m100,0 h7 m142,0 h7 m-412,0 h7 m31,0 h4
M321,72.5 h7 m116,0 h7 m-386,0 h7 m116,0 h6 m26,0 h7
M266,73.5 h7 m15,0 h5 m126,0 h2 m-411,0 h2 m18,0 h7 m13,0 h7 m101,0 h7
M237,74.5 h7 m127,0 h7 m25,0 h4 m56,0 h7 m23,0 h7 m-385,0 h7 m85,0 h7
M274,75.5 h2 m60,0 h5 m19,0 h7 m65,0 h7 m-421,0 h7 m79,0 h7 m67,0 h5
M314,76.5 h7 m101,0 h7 m54,0 h7 m-429,0 h4 m25,0 h7 m130,0 h5
M297,77.5 h7 m23,0 h7 m121,0 h6 m-456,0 h3 m33,0 h7 m23,0 h3 m62,0 h7
M242,78.5 h7 m41,0 h3 m84,0 h7 m25,0 h7 m26,0 h7 m23,0 h7 m19,0 h7 m-475,0 h7 m89,0 h2 m25,0 h7 m26,0 h6
M274,79.5 h4 m28,0 h7 m-295,0 h7
M355,80.5 h7 m-263,0 h7 m4,0 h4
M249,81.5 h5 m11,0 h5 m116,0 h7 m24,0 h7 m60,0 h6 m15,0 h6 m-499,0 h2 m116,0 h7 m24,0 h7 m9,0 h7
M291,82.5 h7 m32,0 h7 m8,0 h7 m49,0 h7 m56,0 h7 m-436,0 h7 m32,0 h7 m8,0 h7 m49,0 h7 m56,0 h4
M321,83.5 h4 m-261,0 h5
M243,84.5 h5 m25,0 h7 m25,0 h7 m67,0 h4 m116,0 h5 m-487,0 h7 m25,0 h3
M338,85.5 h5 m18,0 h6 m26,0 h7 m25,0 h7 m11,0 h4 m-365,0 h7 m18,0 h5 m25,0 h7 m25,0 h7 m8,0 h7
M484,86.5 h3 m-76,0 h7 m-190,0 h3 m-34,0 h7
M293,87.5 h7
M249,88.5 h7 m27,0 h7 m39,0 h7 m16,0 h3 m15,0 h7 m128,0 h7 m-485,0 h5 m41,0 h7 m12,0 h4 m18,0 h7
M236,89.5 h7 m30,0 h7 m26,0 h6 m74,0 h7 m9,0 h7 m20,0 h5 m-417,0 h7 m26,0 h7 m3,0 h7 m63,0 h7 m9,0 h6 m21,0 h7 m38,0 h7
M359,90.5 h7 m77,0 h7 m10,0 h7 m-359,0 h2 m77,0 h7 m10,0 h7
M256,91.5 h7 m155,0 h7 m-425,0 h7 m158,0 h4
M243,92.5 h7 m18,0 h7 m24,0 h7 m19,0 h5 m8,0 h3 m37,0 h7 m116,0 h5 m-494,0 h7 m27,0 h4 m17,0 h7 m8,0 h7 m33,0 h7
M285,93.5 h7 m100,0 h2 m14,0 h7 m37,0 h7 m-430,0 h5 m107,0 h2 m9,0 h7 m37,0 h7 m10,0 h7
M487,94.5 h7 m-132,0 h7 m69,0 h7 m-214,0 h7 m-128,0 h3 m69,0 h7
M426,95.5 h7 m-342,0 h7 m72,0 h7
M294,96.5 h7 m29,0 h7 m37,0 h2 m-338,0 h7 m29,0 h4 m40,0 h7 m17,0 h7
M254,97.5 h7 m9,0 h7 m39,0 h7 m92,0 h4 m28,0 h7 m23,0 h7 m26,0 h2 m-512,0 h5 m55,0 h7 m92,0 h7 m25,0 h5 m25,0 h7
M241,98.5 h7 m58,0 h7 m38,0 h7 m-308,0 h7 m38,0 h7
M338,99.5 h7 m121,0 h7 m-447,0 h7 m177,0 h7
M365,100.5 h7 m21,0 h4 m11,0 h6 m15,0 h2 m25,0 h7 m-354,0 h7 m9,0 h6 m20,0 h7 m10,0 h2 m35,0 h2
M294,101.5 h6 m25,0 h7 m108,0 h7 m-215,0 h7 m-202,0 h7 m25,0 h7 m108,0 h7 m297,0 h7
M250,102.5 h7 m218,0 h7 m-206,0 h7 m225,0 h4 m-512,0 h1 m7,0 h7 m204,0 h7
M308,103.5 h7 m38,0 h7 m11,0 h5 m-324,0 h7 m38,0 h7 m11,0 h7
M400,104.5 h7 m25,0 h7 m-295,0 h7 m9,0 h7
M338,105.5 h7 m-99,0 h2 m7,0 h6 m60,0 h6 m61,0 h2 m73,0 h7 m41,0 h1 m-512,0 h6 m23,0 h7 m32,0 h4 m55,0 h7 m73,0 h7
M484,106.5 h7 m-192,0 h4 m-75,0 h6 m-191,0 h7
M471,107.5 h7 m-263,0 h5
M267,108.5 h7 m40,0 h5 m43,0 h7 m23,0 h7 m9,0 h7 m9,0 h7 m8,0 h7 m-435,0 h7 m38,0 h2 m14,0 h7 m27,0 h7 m23,0 h7 m9,0 h7 m9,0 h7 m8,0 h7
M278,109.5 h7 m-263,0 h7
M248,110.5 h5 m89,0 h7 m24,0 h7 m81,0 h2 m-173,0 h7 m205,0 h7 m-423,0 h5 m26,0 h7 m76,0 h7 m-173,0 h7
M482,111.5 h7 m-231,0 h7 m180,0 h5 m-220,0 h3 m-231,0 h7 m180,0 h7
M299,112.5 h3 m13,0 h4 m82,0 h7 m8,0 h7 m-367,0 h3 m17,0 h7 m77,0 h7
M270,113.5 h7 m103,0 h7 m107,0 h7 m-487,0 h5 m195,0 h4
M283,114.5 h7 m60,0 h2 m13,0 h4 m23,0 h7 m28,0 h7 m-405,0 h5 m72,0 h7 m23,0 h7 m28,0 h7
M438,115.5 h7 m11,0 h7 m-281,0 h7 m11,0 h7
M250,116.5 h7 m59,0 h7 m162,0 h7 m14,0 h6 m-512,0 h1 m59,0 h7 m164,0 h5
M261,117.5 h7 m34,0 h7 m20,0 h7 m7,0 h7 m21,0 h7 m35,0 h7 m-415,0 h7 m61,0 h7 m7,0 h7 m21,0 h6 m36,0 h7
M390,118.5 h2 m-258,0 h2 m77,0 h7
M428,119.5 h7 m-194,0 h7 m25,0 h7 m10,0 h7 m148,0 h7 m8,0 h6 m-291,0 h4 m318,0 h7 m-470,0 h7 m148,0 h7 m8,0 h5
M478,120.5 h7 m-263,0 h7
M311,121.5 h7 m16,0 h7 m14,0 h7 m3,0 h7 m-317,0 h7 m16,0 h7 m14,0 h7 m3,0 h7
M249,122.5 h3 m14,0 h7 m53,0 h3 m47,0 h4 m12,0 h6 m11,0 h7 m89,0 h6 m-499,0 h5 m49,0 h7 m47,0 h3 m13,0 h7 m10,0 h7 m22,0 h7
M279,123.5 h7 m14,0 h7 m38,0 h7 m68,0 h7 m59,0 h7 m-470,0 h7 m14,0 h7 m38,0 h7 m68,0 h5 m61,0 h7
M290,124.5 h2 m-258,0 h7
M448,125.5 h6 m6,0 h7 m-276,0 h7 m6,0 h3
M243,126.5 h7 m86,0 h7 m-35,0 h7 m158,0 h7 m-400,0 h7 m42,0 h7 m-84,0 h7 m86,0 h7 m68,0 h4
M352,127.5 h7 m74,0 h3 m-340,0 h7
M234,128.5 h7 m40,0 h7 m88,0 h7 m38,0 h7 m62,0 h4 m-469,0 h7 m33,0 h7 m48,0 h7 m38,0 h6
M249,129.5 h6 m11,0 h7 m180,0 h7 m47,0 h5 m-499,0 h4 m23,0 h7 m154,0 h3
M391,130.5 h7 m10,0 h5 m-278,0 h7 m15,0 h2 m62,0 h7
M307,131.5 h7 m16,0 h6 m7,0 h7 m113,0 h7 m-419,0 h2 m21,0 h5 m11,0 h4 m113,0 h7
M258,132.5 h7 m15,0 h2 m93,0 h3 m52,0 h7 m9,0 h7 m-451,0 h7 m10,0 h7 m91,0 h5 m52,0 h7
M485,133.5 h5 m-136,0 h7 m35,0 h7 m-176,0 h7 m-200,0 h7 m57,0 h7 m35,0 h7
M322,134.5 h7 m95,0 h4 m-190,0 h6 m-178,0 h7 m92,0 h7 m321,0 h4
M436,135.5 h7 m-130,0 h7 m42,0 h3 m42,0 h5 m-232,0 h7 m-81,0 h7
M252,136.5 h7 m7,0 h4 m28,0 h7 m41,0 h6 m25,0 h6 m83,0 h7 m35,0 h4 m-512,0 h3 m7,0 h7 m25,0 h7 m43,0 h4 m24,0 h7 m83,0 h7
M329,137.5 h5 m111,0 h7 m-379,0 h7 m109,0 h3
M245,138.5 h3 m40,0 h7 m97,0 h7 m57,0 h7 m34,0 h7 m-467,0 h2 m97,0 h7 m61,0 h3 m17,0 h7
M383,139.5 h7 m-373,0 h7 m108,0 h2 m27,0 h6
M304,140.5 h7 m8,0 h7 m27,0 h7 m9,0 h7 m26,0 h7 m64,0 h7 m-432,0 h6 m11,0 h5 m27,0 h7 m9,0 h7 m26,0 h4 m28,0 h7 m32,0 h7
M260,141.5 h7 m-263,0 h5
M281,142.5 h7 m136,0 h7 m-183,0 h7 m-230,0 h2 m141,0 h7 m315,0 h7 m7,0 h7
M445,143.5 h6 m-157,0 h7 m164,0 h7 m-284,0 h7 m-157,0 h7 m164,0 h7
M311,144.5 h7 m10,0 h7 m7,0 h7 m31,0 h7 m25,0 h7 m-364,0 h7 m10,0 h7 m7,0 h7 m63,0 h7
M273,145.5 h7 m120,0 h7 m-388,0 h5 m120,0 h7 m50,0 h7
M263,146.5 h7 m83,0 h7 m11,0 h4 m-278,0 h7 m8,0 h7 m60,0 h7
M245,147.5 h7 m51,0 h5 m13,0 h7 m62,0 h7 m25,0 h7 m43,0 h6 m7,0 h7 m9,0 h7 m-461,0 h7 m11,0 h7 m64,0 h5 m75,0 h7 m6,0 h7
M337,148.5 h7 m-263,0 h7
M277,149.5 h7 m93,0 h7 m-363,0 h7 m76,0 h7 m10,0 h4 m75,0 h5
M253,150.5 h2 m254,0 h3 m-512,0 h4 m31,0 h7 m112,0 h7
M446,151.5 h7 m-217,0 h7 m154,0 h7 m24,0 h7 m31,0 h7 m19,0 h7 m-358,0 h7 m28,0 h3 m31,0 h7 m5,0 h6
M303,152.5 h3 m17,0 h7 m-263,0 h3
M266,153.5 h4 m66,0 h4 m13,0 h5 m81,0 h7 m-439,0 h7 m67,0 h6 m40,0 h7 m49,0 h7
M245,154.5 h7 m21,0 h7 m139,0 h4 m78,0 h3 m-487,0 h7 m84,0 h7 m45,0 h6
M283,155.5 h7 m169,0 h7 m-439,0 h7 m4,0 h6 m12,0 h6 m141,0 h7
M238,156.5 h3 m249,0 h7 m16,0 h-1 m-512,0 h5 m217,0 h4
M321,157.5 h7 m41,0 h7 m24,0 h7 m20,0 h7 m13,0 h7 m-389,0 h7 m20,0 h3 m18,0 h7 m11,0 h4 m13,0 h3 m20,0 h7
M333,158.5 h7 m-185,0 h7 m-85,0 h7
M468,159.5 h7 m-263,0 h7
M303,160.5 h5 m-63,0 h7 m11,0 h7 m7,0 h7 m76,0 h7 m12,0 h3 m54,0 h7 m-436,0 h7 m7,0 h7 m76,0 h7 m12,0 h7 m50,0 h7
M313,161.5 h7 m75,0 h3 m22,0 h7 m24,0 h7 m30,0 h7 m-438,0 h7 m100,0 h7 m24,0 h7
M337,162.5 h7 m63,0 h7 m-333,0 h7 m63,0 h7
M253,163.5 h7 m25,0 h7 m60,0 h7 m11,0 h7 m-348,0 h7 m60,0 h7 m13,0 h5
M294,164.5 h7 m20,0 h7 m130,0 h7 m13,0 h7 m-447,0 h7 m20,0 h7 m130,0 h4 m16,0 h7
M242,165.5 h7 m57,0 h7 m30,0 h7 m46,0 h7 m36,0 h7 m21,0 h7 m24,0 h7 m-487,0 h7 m25,0 h7 m30,0 h7 m46,0 h7 m23,0 h3 m10,0 h7
M378,166.5 h7 m-55,0 h7 m-215,0 h7 m-55,0 h7
M262,167.5 h7 m97,0 h3 m81,0 h7 m-451,0 h7 m181,0 h7
M252,168.5 h5 m27,0 h5 m119,0 h7 m91,0 h6 m-512,0 h1 m25,0 h7 m119,0 h7
M234,169.5 h7 m149,0 h7 m22,0 h7 m12,0 h3 m-307,0 h7 m22,0 h7 m13,0 h2
M297,170.5 h7 m7,0 h3 m40,0 h7 m117,0 h7 m-444,0 h7 m7,0 h7 m36,0 h7 m117,0 h7
M266,171.5 h7 m54,0 h2 m17,0 h2 m25,0 h6 m87,0 h7 m-463,0 h7 m49,0 h7 m13,0 h6 m28,0 h3 m87,0 h7
M385,172.5 h7 m61,0 h5 m-329,0 h7 m10,0 h2 m3,0 h2 m42,0 h7
M286,173.5 h7 m38,0 h3 m167,0 h4
M272,174.5 h7 m24,0 h7 m128,0 h6 m-189,0 h6 m-245,0 h7 m86,0 h7 m68,0 h5 m321,0 h2 m-512,0 h5
M424,175.5 h7 m46,0 h7 m-250,0 h7 m172,0 h6 m40,0 h7 m-298,0 h4 m49,0 h7 m-71,0 h6 m40,0 h7
M354,176.5 h7 m-274,0 h2 m9,0 h7 m84,0 h7
M262,177.5 h7 m27,0 h5 m7,0 h7 m13,0 h2 m44,0 h3 m7,0 h7 m8,0 h2 m-395,0 h6 m26,0 h7 m22,0 h7 m40,0 h7 m12,0 h2 m8,0 h2
M280,178.5 h4 m147,0 h7 m-414,0 h2 m149,0 h7
M243,179.5 h7 m99,0 h7 m143,0 h7 m-413,0 h7 m113,0 h7
M254,180.5 h7 m153,0 h2 m68,0 h7 m19,0 h2 m-512,0 h5 m223,0 h7
M316,181.5 h7 m8,0 h7 m56,0 h7 m58,0 h5 m-403,0 h6 m8,0 h7 m56,0 h7 m43,0 h5 m10,0 h7
M275,182.5 h7 m94,0 h3 m49,0 h7 m-73,0 h7 m-347,0 h4 m9,0 h7 m78,0 h3 m49,0 h7 m-73,0 h7
M348,183.5 h7 m62,0 h7 m-332,0 h7 m62,0 h7
M246,184.5 h7 m10,0 h7 m37,0 h7 m78,0 h2 m89,0 h7 m12,0 h7 m-502,0 h3 m41,0 h7 m78,0 h2 m90,0 h6
M298,185.5 h4 m20,0 h7 m9,0 h7 m60,0 h7 m23,0 h7 m-403,0 h7 m20,0 h7 m9,0 h7 m60,0 h7 m23,0 h7 m25,0 h7
M360,186.5 h7 m88,0 h7 m-358,0 h2 m3,0 h2 m92,0 h3
M271,187.5 h7
M487,188.5 h7 m-246,0 h2 m8,0 h7 m49,0 h7 m57,0 h3 m12,0 h6 m45,0 h7 m23,0 h7 m-250,0 h7 m261,0 h2 m-499,0 h7 m49,0 h7 m57,0 h7 m7,0 h7 m45,0 h5
M278,189.5 h7 m61,0 h7 m63,0 h7 m-401,0 h7 m61,0 h7 m63,0 h7
M293,190.5 h7 m27,0 h7 m69,0 h7 m-40,0 h7 m-340,0 h7 m27,0 h7 m69,0 h7 m-104,0 h7 m59,0 h5
M436,191.5 h7 m-79,0 h2 m88,0 h7 m-263,0 h7
M338,192.5 h7 m-63,0 h7 m181,0 h7 m-395,0 h7 m-63,0 h7 m133,0 h7 m41,0 h5
M489,193.5 h5 m-243,0 h2 m-22,0 h7
M255,194.5 h7 m9,0 h7 m104,0 h7 m7,0 h7 m8,0 h6 m96,0 h-1 m-512,0 h6 m9,0 h7 m104,0 h7 m7,0 h7 m9,0 h5
M300,195.5 h4 m12,0 h7 m7,0 h7 m11,0 h5 m106,0 h7 m-422,0 h7 m9,0 h2 m13,0 h6 m15,0 h3 m89,0 h7 m8,0 h7
M286,196.5 h7 m73,0 h2 m5,0 h7 m53,0 h3 m-406,0 h7 m80,0 h7 m49,0 h3 m45,0 h7
M263,197.5 h7 m226,0 h6 m-495,0 h7
M309,198.5 h7 m23,0 h7 m46,0 h7 m20,0 h2 m-368,0 h7 m23,0 h2 m52,0 h6 m20,0 h7
M456,199.5 h2 m-165,0 h7 m137,0 h6 m25,0 h7 m-280,0 h7 m-165,0 h3 m141,0 h7 m24,0 h7
M353,200.5 h7 m23,0 h7 m-164,0 h7 m-136,0 h7
M271,201.5 h5 m52,0 h7 m-334,0 h2 m12,0 h7 m54,0 h3
M239,202.5 h7 m68,0 h7 m141,0 h7 m26,0 h7 m-444,0 h7
M359,203.5 h7 m9,0 h5 m19,0 h4 m12,0 h6 m9,0 h7 m-413,0 h7 m72,0 h7 m9,0 h7 m17,0 h7 m24,0 h7
M249,204.5 h7 m37,0 h7 m5,0 h7 m136,0 h7 m50,0 h7 m-475,0 h3 m13,0 h3 m136,0 h7
M321,205.5 h2 m68,0 h3 m79,0 h7 m7,0 h7 m-480,0 h2 m49,0 h7 m145,0 h7 m7,0 h7
M336,206.5 h3 m29,0 h7 m64,0 h7 m-366,0 h7 m25,0 h7 m64,0 h7
M242,207.5 h7 m160,0 h7 m6,0 h7 m26,0 h7 m36,0 h7 m-352,0 h7 m6,0 h7 m26,0 h5
M287,208.5 h7 m-263,0 h7
M255,209.5 h7 m13,0 h7 m32,0 h6 m13,0 h3 m21,0 h7 m31,0 h7 m63,0 h4 m12,0 h7 m23,0 h1 m-512,0 h5 m14,0 h7 m32,0 h7 m8,0 h7 m9,0 h7 m5,0 h7 m31,0 h7 m79,0 h7
M377,210.5 h3 m-259,0 h7
M304,211.5 h7 m120,0 h7 m-390,0 h7
M232,212.5 h7 m24,0 h7 m24,0 h7 m65,0 h7 m19,0 h3 m8,0 h7 m8,0 h7 m16,0 h2 m45,0 h7 m-488,0 h7 m24,0 h7 m65,0 h7 m15,0 h7 m8,0 h7 m8,0 h7 m16,0 h7
M245,213.5 h7 m203,0 h5 m41,0 h7 m-311,0 h7 m10,0 h7
M284,214.5 h7 m43,0 h6 m15,0 h6 m-284,0 h7 m15,0 h7
M272,215.5 h7 m65,0 h7 m27,0 h7 m-369,0 h7 m65,0 h7 m27,0 h7
M255,216.5 h7 m159,0 h7 m52,0 h7 m24,0 h1 m-512,0 h6 m159,0 h5 m54,0 h7
M246,217.5 h2 m53,0 h6 m92,0 h7 m26,0 h7 m21,0 h7 m33,0 h4 m-459,0 h7 m91,0 h4 m57,0 h7
M322,218.5 h7 m43,0 h5 m-263,0 h7 m73,0 h7
M264,219.5 h7 m7,0 h7 m71,0 h4 m28,0 h7 m21,0 h7 m-401,0 h4 m28,0 h7 m39,0 h2 m30,0 h7 m21,0 h7
M340,220.5 h7 m63,0 h2 m28,0 h5 m-407,0 h7 m39,0 h7 m93,0 h7
M251,221.5 h7 m249,0 h5 m-512,0 h2
M331,222.5 h7 m42,0 h7 m76,0 h7 m-184,0 h4 m59,0 h7 m-281,0 h7 m125,0 h4 m-181,0 h7 m56,0 h6
M320,223.5 h5 m-55,0 h7 m203,0 h7 m-425,0 h7 m43,0 h4 m-99,0 h4 m203,0 h7
M418,224.5 h6 m9,0 h7 m9,0 h7 m-313,0 h2 m17,0 h7 m8,0 h7 m12,0 h4
M248,225.5 h7 m52,0 h2 m195,0 h7 m-460,0 h7
M232,226.5 h7 m24,0 h5 m25,0 h7 m26,0 h7 m38,0 h7 m10,0 h7 m18,0 h5 m70,0 h4 m-455,0 h7 m26,0 h7 m38,0 h7 m12,0 h5 m19,0 h4
M279,227.5 h7 m72,0 h7 m91,0 h7 m9,0 h7 m-456,0 h7 m139,0 h7 m24,0 h7
M440,228.5 h7 m-263,0 h2
M301,229.5 h7 m-262,0 h6
M241,230.5 h7 m12,0 h4 m53,0 h7 m25,0 h7 m47,0 h7 m87,0 h7 m-503,0 h7 m53,0 h7 m26,0 h6 m24,0 h7 m16,0 h7
M465,231.5 h7 m-263,0 h7
M487,232.5 h7 m-214,0 h5 m41,0 h7 m37,0 h5 m19,0 h7 m53,0 h7 m13,0 h7 m-250,0 h7 m-216,0 h7 m41,0 h7 m37,0 h7 m17,0 h7 m25,0 h7 m22,0 h6 m13,0 h7
M264,233.5 h4 m26,0 h7 m9,0 h7 m94,0 h7 m24,0 h7 m-441,0 h7 m39,0 h7 m94,0 h7 m24,0 h2
M505,234.5 h7
M387,235.5 h2 m-263,0 h7
M286,236.5 h7 m10,0 h7 m24,0 h4 m12,0 h7 m7,0 h7 m61,0 h6 m41,0 h7 m-456,0 h7 m13,0 h4 m24,0 h7 m9,0 h7 m7,0 h7 m61,0 h7 m40,0 h7
M239,237.5 h7 m25,0 h7 m123,0 h7 m9,0 h7 m24,0 h7 m40,0 h7 m-487,0 h7 m123,0 h4 m13,0 h6 m24,0 h7 m9,0 h7
M262,238.5 h5 m56,0 h7 m-326,0 h7
M374,239.5 h4 m-131,0 h7 m106,0 h2 m27,0 h7 m-278,0 h7 m-70,0 h7 m37,0 h7 m27,0 h7
M232,240.5 h7 m38,0 h5 m12,0 h7 m107,0 h7 m73,0 h7 m-474,0 h7 m10,0 h7 m139,0 h7
M335,241.5 h7 m82,0 h7 m25,0 h6 m12,0 h5 m-400,0 h7 m82,0 h7 m25,0 h7 m12,0 h4
M365,242.5 h7 m-263,0 h7
M259,243.5 h7 m38,0 h7 m67,0 h7 m12,0 h7 m77,0 h7 m-485,0 h7 m20,0 h7 m11,0 h7 m67,0 h2 m17,0 h7 m77,0 h7
M247,244.5 h7 m87,0 h7 m70,0 h7 m25,0 h7 m-396,0 h4 m20,0 h7 m71,0 h6 m25,0 h7
M363,245.5 h3 m67,0 h6 m27,0 h7 m-337,0 h3 m38,0 h7
M264,246.5 h7 m24,0 h7 m25,0 h7 m14,0 h3 m-312,0 h7 m46,0 h6
M277,247.5 h5 m127,0 h7 m-394,0 h6 m125,0 h7
M378,248.5 h7 m59,0 h7 m40,0 h7 m-376,0 h2 m100,0 h7
M253,249.5 h7 m45,0 h7 m9,0 h7 m71,0 h3 m24,0 h7 m25,0 h7 m44,0 h3 m-512,0 h4 m61,0 h7 m67,0 h7 m24,0 h7 m25,0 h7
M287,250.5 h7 m74,0 h7 m-344,0 h7 m74,0 h7
M275,251.5 h7 m54,0 h7 m7,0 h7 m78,0 h7 m55,0 h7 m-481,0 h3 m54,0 h7 m7,0 h6 m79,0 h7
M261,252.5 h7 m46,0 h7 m81,0 h7 m40,0 h7 m10,0 h7 m-468,0 h7 m46,0 h7 m81,0 h7 m7,0 h3 m47,0 h7
M357,253.5 h7 m20,0 h6 m-262,0 h7 m87,0 h7
M250,254.5 h7 m36,0 h7 m33,0 h2 m171,0 h6 m-512,0 h1 m36,0 h7 m28,0 h7
M427,255.5 h4
M237,256.5 h7 m26,0 h7 m27,0 h7 m56,0 h7 m19,0 h7 m8,0 h7 m78,0 h7 m-486,0 h7 m90,0 h7 m19,0 h7 m8,0 h7
M285,257.5 h7 m29,0 h2 m13,0 h7 m10,0 h7 m18,0 h7 m54,0 h7 m7,0 h7 m-431,0 h7 m29,0 h7 m9,0 h6 m10,0 h7 m18,0 h7 m54,0 h7 m11,0 h3
M258,258.5 h7 m204,0 h7 m6,0 h7 m-487,0 h7 m204,0 h7 m6,0 h7
M346,260.5 h7 m46,0 h7 m9,0 h7 m7,0 h5 m27,0 h7 m-427,0 h7 m42,0 h7 m46,0 h7 m9,0 h6 m11,0 h4 m25,0 h7
M235,261.5 h7 m34,0 h3 m83,0 h7 m122,0 h7 m9,0 h3 m-490,0 h5 m81,0 h7
M311,262.5 h2 m5,0 h7 m65,0 h7 m45,0 h4 m-63,0 h3 m-336,0 h7 m5,0 h7 m114,0 h7 m-67,0 h7
M291,263.5 h4 m-32,0 h7 m-233,0 h2 m-32,0 h7 m181,0 h7
M483,264.5 h7 m-152,0 h7 m24,0 h2 m97,0 h7 m-243,0 h2 m-150,0 h5 m24,0 h7 m92,0 h7
M272,265.5 h7 m121,0 h7 m103,0 h2 m-512,0 h2 m14,0 h7 m71,0 h7 m45,0 h5 m24,0 h7
M312,266.5 h7 m98,0 h7 m-368,0 h7 m98,0 h7
M297,267.5 h4 m144,0 h6 m-410,0 h7 m141,0 h7 m23,0 h2
M241,268.5 h5 m119,0 h3 m95,0 h4 m-314,0 h7 m48,0 h3
M262,269.5 h7 m55,0 h7 m8,0 h7 m34,0 h7 m6,0 h7 m24,0 h7 m-425,0 h7 m55,0 h7 m8,0 h7 m34,0 h7 m37,0 h7
M308,270.5 h7 m171,0 h7 m-123,0 h7 m-325,0 h7 m175,0 h3 m-123,0 h7
M277,271.5 h7 m170,0 h7 m-440,0 h7 m70,0 h3 m83,0 h6
M332,272.5 h7 m-263,0 h7 m135,0 h5
M301,273.5 h7 m81,0 h7 m-263,0 h7
M238,274.5 h7 m44,0 h7 m50,0 h7 m47,0 h7 m22,0 h7 m26,0 h7 m25,0 h7 m-468,0 h7 m50,0 h7 m47,0 h7 m22,0 h6 m32,0 h2
M258,275.5 h3 m13,0 h3 m46,0 h7 m30,0 h7 m10,0 h7 m-382,0 h6 m59,0 h7 m30,0 h7 m10,0 h7
M487,276.5 h5 m-213,0 h7 m25,0 h7 m103,0 h6 m-198,0 h7 m-213,0 h7 m25,0 h7 m104,0 h5
M248,277.5 h7 m181,0 h7 m8,0 h7 m13,0 h7 m26,0 h7 m-316,0 h5 m15,0 h7
M369,278.5 h7 m-297,0 h7 m45,0 h7 m-25,0 h7
M300,279.5 h3 m47,0 h7 m-263,0 h7
M318,280.5 h7 m72,0 h7 m13,0 h7 m20,0 h7 m-389,0 h7 m72,0 h7 m44,0 h3
M241,281.5 h7 m9,0 h6 m12,0 h4 m9,0 h7 m112,0 h7 m51,0 h7 m9,0 h7 m9,0 h7 m-503,0 h7 m24,0 h7 m112,0 h5 m53,0 h7 m12,0 h4
M326,282.5 h6 m29,0 h7 m7,0 h7 m-277,0 h7
M295,283.5 h5 m45,0 h2 m77,0 h7 m24,0 h7 m-423,0 h7 m38,0 h7 m77,0 h7 m24,0 h7
M233,284.5 h7 m25,0 h7 m41,0 h5 m171,0 h7 m-487,0 h7 m39,0 h7 m69,0 h7
M249,285.5 h7 m25,0 h7 m63,0 h5 m79,0 h7 m31,0 h5 m27,0 h7 m-487,0 h7 m63,0 h7 m77,0 h7
M447,286.5 h7 m-122,0 h7 m76,0 h7 m-231,0 h7 m-39,0 h7
M396,287.5 h7 m-39,0 h7 m-326,0 h7 m93,0 h2 m-39,0 h6
M257,288.5 h7 m12,0 h3 m-278,0 h7 m8,0 h7 m179,0 h7
M322,289.5 h7 m56,0 h7 m15,0 h3 m-358,0 h7 m7,0 h7 m56,0 h7 m15,0 h7
M341,290.5 h7 m26,0 h7 m42,0 h6 m13,0 h6 m-363,0 h7 m93,0 h7
M234,291.5 h7 m8,0 h6 m27,0 h7 m185,0 h2 m14,0 h6 m9,0 h6 m-485,0 h3 m189,0 h3
M265,292.5 h5 m26,0 h7 m28,0 h7 m27,0 h5 m98,0 h3 m-462,0 h7 m24,0 h7 m28,0 h7 m26,0 h6 m63,0 h7 m24,0 h7
M402,293.5 h5 m44,0 h5 m-309,0 h6
M311,294.5 h7 m74,0 h7
M235,295.5 h4 m17,0 h7 m26,0 h7 m43,0 h7 m145,0 h4 m-475,0 h6 m-26,0 h7 m76,0 h7 m67,0 h6
M371,296.5 h7 m10,0 h2 m36,0 h5 m-364,0 h7 m41,0 h7 m5,0 h7
M251,297.5 h2 m222,0 h7 m-277,0 h7 m7,0 h7
M345,298.5 h7 m-52,0 h4 m9,0 h4 m119,0 h7 m-354,0 h7 m-55,0 h7 m132,0 h7
M266,299.5 h7 m148,0 h5 m24,0 h7 m-294,0 h7
M234,300.5 h7 m42,0 h7 m40,0 h7 m25,0 h7 m33,0 h7 m81,0 h7 m-423,0 h7 m25,0 h7 m33,0 h7
M306,301.5 h7 m78,0 h7 m67,0 h7 m-422,0 h3 m70,0 h7 m5,0 h7 m67,0 h7
M255,302.5 h7 m74,0 h7 m99,0 h7 m-39,0 h7 m64,0 h7 m23,0 h1 m-512,0 h6 m74,0 h2 m104,0 h7 m-39,0 h7 m64,0 h7
M303,303.5 h2 m-62,0 h7 m25,0 h7 m-240,0 h7 m50,0 h7 m393,0 h7 m-486,0 h6 m39,0 h7
M369,304.5 h7 m57,0 h7 m14,0 h7 m-348,0 h7 m57,0 h7 m14,0 h7
M421,305.5 h7 m44,0 h7 m-314,0 h7 m44,0 h2
M256,306.5 h7 m5,0 h7 m72,0 h7 m-354,0 h7 m5,0 h7 m77,0 h2
M313,307.5 h7 m70,0 h7 m5,0 h7 m-370,0 h7 m11,0 h7 m70,0 h7 m5,0 h7 m38,0 h7
M240,308.5 h7 m33,0 h7 m41,0 h7 m45,0 h7 m77,0 h7 m8,0 h7 m10,0 h7 m-479,0 h7 m41,0 h7 m45,0 h7 m77,0 h7 m13,0 h2
M411,309.5 h7 m11,0 h7 m-97,0 h7 m-191,0 h7 m-79,0 h2
M370,310.5 h7 m127,0 h7 m-397,0 h7
M288,311.5 h7 m144,0 h3 m-406,0 h3 m63,0 h4 m77,0 h7
M326,312.5 h7 m153,0 h7 m-194,0 h7 m6,0 h7 m139,0 h7 m-395,0 h7 m153,0 h7 m-194,0 h7 m6,0 h6 m102,0 h6 m32,0 h7
M268,313.5 h7 m-16,0 h7 m79,0 h7 m35,0 h7 m-382,0 h7 m-16,0 h7 m79,0 h7
M374,314.5 h7 m20,0 h7 m73,0 h2 m-365,0 h7 m20,0 h2 m43,0 h4
M280,315.5 h7 m217,0 h7 m-487,0 h2
M236,316.5 h7 m62,0 h6 m9,0 h7 m83,0 h7 m-368,0 h7 m25,0 h7 m71,0 h2
M290,317.5 h7 m59,0 h7 m4,0 h7 m18,0 h7 m38,0 h7 m-405,0 h2 m59,0 h4 m11,0 h3 m23,0 h2 m41,0 h4 m25,0 h7
M270,318.5 h7 m178,0 h7 m-448,0 h7 m146,0 h6
M258,319.5 h7
M325,320.5 h7 m16,0 h7 m26,0 h5 m29,0 h3 m-345,0 h3 m16,0 h7 m24,0 h7 m30,0 h6
M482,321.5 h7 m-252,0 h7 m3,0 h7 m22,0 h2 m15,0 h7 m90,0 h7 m33,0 h7 m10,0 h7 m8,0 h7 m-243,0 h7 m270,0 h7 m-490,0 h7 m10,0 h7 m13,0 h4 m73,0 h7 m5,0 h2 m26,0 h7 m10,0 h3 m12,0 h7
M360,322.5 h7 m-286,0 h7 m16,0 h7
M305,323.5 h6 m-262,0 h7
M269,324.5 h3 m99,0 h4 m-364,0 h5 m99,0 h7
M329,325.5 h7 m8,0 h7 m70,0 h7 m9,0 h5 m27,0 h7 m-449,0 h7 m39,0 h7 m9,0 h6 m54,0 h7 m9,0 h7 m9,0 h7 m25,0 h4
M256,326.5 h4 m36,0 h7 m150,0 h7 m25,0 h7 m-452,0 h7 m78,0 h7 m65,0 h7 m25,0 h7
M246,327.5 h7 m138,0 h7 m104,0 h7 m-412,0 h7 m31,0 h7
M321,328.5 h7 m148,0 h7 m-418,0 h7 m116,0 h7
M286,329.5 h7 m13,0 h7 m101,0 h7 m-411,0 h7 m13,0 h5 m15,0 h7 m101,0 h7
M237,330.5 h2 m3,0 h2 m127,0 h6 m23,0 h7 m56,0 h4 m26,0 h7 m-385,0 h3 m26,0 h7 m56,0 h7
M274,331.5 h7 m55,0 h7 m22,0 h2 m65,0 h7 m-421,0 h7 m79,0 h7 m65,0 h7
M314,332.5 h7 m25,0 h7 m69,0 h7 m54,0 h7 m-432,0 h7 m27,0 h5 m69,0 h7 m54,0 h7
M257,333.5 h4 m36,0 h7 m23,0 h7 m58,0 h7 m55,0 h7 m-460,0 h7 m37,0 h3 m23,0 h7 m58,0 h7 m55,0 h7
M286,334.5 h7 m84,0 h7 m25,0 h7 m61,0 h2 m19,0 h7 m-475,0 h3 m120,0 h7 m26,0 h7
M274,335.5 h7 m-263,0 h7 m25,0 h7
M355,336.5 h7 m4,0 h7 m-274,0 h7 m4,0 h6
M249,337.5 h7 m7,0 h7 m116,0 h7 m24,0 h7 m9,0 h7 m44,0 h7 m14,0 h7 m-505,0 h7 m116,0 h7 m24,0 h7 m60,0 h7
M291,338.5 h7 m32,0 h7 m8,0 h7 m49,0 h7 m41,0 h7 m8,0 h2 m-392,0 h7 m8,0 h7 m97,0 h4 m11,0 h7
M318,339.5 h7 m-263,0 h7
M273,340.5 h7 m96,0 h7 m114,0 h7 m-455,0 h6
M259,341.5 h7 m95,0 h7 m72,0 h7 m25,0 h7 m-476,0 h7 m72,0 h7 m16,0 h7 m25,0 h6 m26,0 h5 m12,0 h5 m25,0 h7
M484,342.5 h7 m-80,0 h7 m35,0 h7 m-232,0 h7 m-79,0 h6
M293,343.5 h7 m-263,0 h7
M249,344.5 h7 m73,0 h7 m13,0 h6 m15,0 h7 m128,0 h7 m-485,0 h7 m39,0 h7 m34,0 h7
M236,345.5 h7 m30,0 h5 m28,0 h7 m3,0 h7 m63,0 h5 m13,0 h5 m65,0 h7 m15,0 h3 m-449,0 h3 m12,0 h2 m63,0 h7 m9,0 h7 m20,0 h7 m38,0 h7
M359,346.5 h7 m77,0 h7 m14,0 h3 m-364,0 h7 m77,0 h7 m15,0 h2
M256,347.5 h7 m155,0 h7 m-425,0 h7 m155,0 h7
M243,348.5 h7 m18,0 h7 m24,0 h7 m17,0 h7 m48,0 h7 m114,0 h7 m-494,0 h3 m28,0 h7 m17,0 h7 m8,0 h7 m33,0 h7
M392,349.5 h7 m9,0 h7 m37,0 h2 m15,0 h7 m-447,0 h7 m100,0 h7 m9,0 h7 m37,0 h7 m10,0 h7
M364,350.5 h5 m69,0 h7 m-214,0 h7 m-132,0 h7 m69,0 h7
M347,351.5 h7 m72,0 h7 m-342,0 h7 m72,0 h7
M294,352.5 h7 m29,0 h7 m37,0 h7 m17,0 h7 m-367,0 h7 m29,0 h2 m42,0 h4 m20,0 h7
M254,353.5 h5 m11,0 h7 m39,0 h7 m92,0 h7 m25,0 h7 m23,0 h7 m28,0 h0 m-512,0 h5 m9,0 h7 m39,0 h7 m94,0 h5 m25,0 h7 m23,0 h7
M242,354.5 h6 m58,0 h7 m38,0 h7 m141,0 h3 m-452,0 h7 m38,0 h7
M282,355.5 h7 m49,0 h7 m123,0 h5 m-447,0 h7 m177,0 h6
M393,356.5 h7 m24,0 h7 m-322,0 h7 m21,0 h7 m24,0 h7 m25,0 h7
M293,357.5 h7 m140,0 h7 m-215,0 h5 m-200,0 h7 m25,0 h7 m112,0 h3 m297,0 h7
M250,358.5 h7 m12,0 h2 m204,0 h7 m-206,0 h7 m-275,0 h7 m5,0 h7
M308,359.5 h7 m38,0 h7 m12,0 h6 m-326,0 h7 m38,0 h7 m11,0 h7
M400,360.5 h6 m11,0 h6 m9,0 h7 m-295,0 h7 m13,0 h3
M338,361.5 h7 m-90,0 h4 m26,0 h7 m171,0 h7 m-388,0 h7 m408,0 h6 m12,0 h-3 m-512,0 h6 m64,0 h2 m55,0 h7 m73,0 h7
M484,362.5 h7 m-192,0 h2 m150,0 h7 m-230,0 h7 m-192,0 h7 m145,0 h7
M476,363.5 h2
M267,364.5 h7 m39,0 h6 m33,0 h7 m3,0 h7 m24,0 h6 m25,0 h7 m8,0 h7 m-390,0 h3 m13,0 h7 m17,0 h7 m33,0 h7 m9,0 h7 m9,0 h7
M22,365.5 h5
M246,366.5 h7 m89,0 h7 m24,0 h7 m76,0 h7 m-173,0 h7 m205,0 h7 m-423,0 h7 m24,0 h7 m-85,0 h2
M482,367.5 h7 m-231,0 h7 m180,0 h2 m3,0 h2 m-226,0 h7 m-231,0 h6 m181,0 h7
M299,368.5 h3 m12,0 h5 m13,0 h7 m62,0 h7 m8,0 h7 m-380,0 h7 m6,0 h4 m16,0 h7 m62,0 h7 m8,0 h7
M238,369.5 h7 m25,0 h7 m103,0 h7 m107,0 h7 m-377,0 h7 m83,0 h7
M350,370.5 h7 m35,0 h7 m-372,0 h7 m60,0 h7 m35,0 h7 m28,0 h7
M438,371.5 h6 m13,0 h6 m-281,0 h7
M250,372.5 h7 m59,0 h7 m162,0 h7 m14,0 h6 m-512,0 h1 m59,0 h7 m162,0 h7
M261,373.5 h7 m34,0 h7 m20,0 h7 m9,0 h5 m21,0 h7 m35,0 h7 m-415,0 h7 m34,0 h7 m20,0 h7 m7,0 h7 m21,0 h7 m35,0 h7
M385,374.5 h7 m77,0 h7 m-76,0 h7 m-274,0 h3 m77,0 h7 m-76,0 h2 m3,0 h2
M241,375.5 h7 m25,0 h7 m10,0 h7 m163,0 h7 m30,0 h7 m-487,0 h7 m10,0 h7 m148,0 h7
M478,376.5 h7
M311,377.5 h7 m16,0 h5 m16,0 h4 m-302,0 h5 m17,0 h6 m14,0 h7 m3,0 h7
M249,378.5 h7 m13,0 h4 m103,0 h7 m9,0 h7 m10,0 h7 m22,0 h7 m60,0 h7 m-502,0 h7 m49,0 h7 m47,0 h3 m13,0 h7 m13,0 h4 m22,0 h7
M279,379.5 h7 m14,0 h7 m113,0 h7 m59,0 h7 m-470,0 h7 m59,0 h7 m68,0 h4 m65,0 h4
M290,380.5 h7 m-263,0 h7
M447,381.5 h7 m6,0 h7 m-465,0 h7 m182,0 h7 m6,0 h7
M336,382.5 h5 m-33,0 h7 m86,0 h2 m-186,0 h4
M353,383.5 h6 m74,0 h7 m-344,0 h7 m74,0 h7
M234,384.5 h7 m40,0 h6 m76,0 h7 m6,0 h7 m38,0 h7 m62,0 h4 m-469,0 h7 m33,0 h7 m35,0 h7 m6,0 h6 m39,0 h7
M253,385.5 h3 m41,0 h6 m150,0 h7 m45,0 h7 m-502,0 h7 m23,0 h7 m150,0 h7
M395,386.5 h3 m-263,0 h7 m10,0 h7 m62,0 h7
M307,387.5 h7 m18,0 h5 m6,0 h7 m113,0 h7 m-419,0 h7 m29,0 h7 m113,0 h7
M258,388.5 h4 m13,0 h7 m89,0 h7 m52,0 h6 m10,0 h7 m-434,0 h7 m89,0 h7 m52,0 h7 m9,0 h7
M483,389.5 h7 m-136,0 h7 m35,0 h7 m-176,0 h7 m-94,0 h7
M322,390.5 h7 m92,0 h7 m-191,0 h5 m-176,0 h7 m92,0 h7 m321,0 h7
M313,391.5 h7 m42,0 h7 m38,0 h7 m-234,0 h7 m-130,0 h7 m45,0 h4 m38,0 h7
M254,392.5 h5 m7,0 h7 m26,0 h6 m40,0 h7 m24,0 h7 m83,0 h7 m35,0 h4 m-512,0 h1 m12,0 h4 m26,0 h6 m40,0 h7 m24,0 h7 m88,0 h2
M329,393.5 h7 m110,0 h6 m-379,0 h7 m109,0 h7
M241,394.5 h7 m40,0 h7 m97,0 h7 m61,0 h3 m17,0 h7 m10,0 h7 m-368,0 h7 m57,0 h3 m21,0 h7
M273,395.5 h7 m58,0 h7 m38,0 h7 m26,0 h7 m-406,0 h7 m58,0 h7 m71,0 h5
M304,396.5 h6 m9,0 h7 m27,0 h2 m14,0 h7 m26,0 h7 m64,0 h7 m-432,0 h7 m8,0 h7 m27,0 h7 m9,0 h7 m26,0 h7 m25,0 h7 m32,0 h7
M260,397.5 h7 m-263,0 h7
M281,398.5 h7 m136,0 h7 m-197,0 h7 m7,0 h7 m-230,0 h7 m458,0 h7 m7,0 h7
M447,399.5 h4 m-157,0 h7 m166,0 h5 m-434,0 h7
M328,400.5 h7 m7,0 h7 m31,0 h7 m25,0 h2 m-359,0 h7 m10,0 h7 m7,0 h7 m63,0 h7
M273,401.5 h7 m120,0 h7 m-389,0 h6 m120,0 h7 m50,0 h7
M263,402.5 h5 m85,0 h3 m12,0 h7 m60,0 h7 m-435,0 h7 m83,0 h7 m8,0 h7 m60,0 h4
M245,403.5 h7 m51,0 h5 m13,0 h7 m62,0 h7 m29,0 h3 m43,0 h7 m6,0 h7 m9,0 h7 m-459,0 h5 m14,0 h4 m65,0 h4 m75,0 h7
M341,404.5 h3
M277,405.5 h7 m76,0 h7 m14,0 h3 m70,0 h3 m-432,0 h3 m76,0 h7 m10,0 h5 m72,0 h7
M253,406.5 h7 m31,0 h7 m112,0 h5 m94,0 h3 m-512,0 h4 m31,0 h3 m116,0 h7
M446,407.5 h7 m-216,0 h6 m154,0 h7 m24,0 h7 m31,0 h7 m19,0 h6 m-357,0 h7 m24,0 h7 m31,0 h7 m5,0 h3
M303,408.5 h7 m13,0 h7 m-280,0 h4 m17,0 h3
M263,409.5 h3 m85,0 h7 m26,0 h6 m49,0 h7 m-439,0 h6 m82,0 h6 m26,0 h7 m49,0 h7
M245,410.5 h3 m116,0 h7 m45,0 h7 m-310,0 h2 m45,0 h7
M283,411.5 h4 m11,0 h3 m10,0 h7 m141,0 h7 m-439,0 h7 m4,0 h2 m15,0 h5 m143,0 h7
M234,412.5 h7 m16,0 h4 m229,0 h6 m14,0 h2 m-512,0 h5 m217,0 h7
M321,413.5 h7 m20,0 h7 m14,0 h4 m14,0 h7 m33,0 h7 m13,0 h7 m-362,0 h7 m14,0 h7 m11,0 h7 m6,0 h4 m23,0 h7 m13,0 h7
M411,414.5 h7 m-85,0 h7 m-181,0 h3 m-85,0 h7
M468,415.5 h7 m-263,0 h7
M301,416.5 h7 m-45,0 h7 m7,0 h7 m76,0 h7 m12,0 h7 m-341,0 h7 m-45,0 h7 m7,0 h7 m95,0 h7 m50,0 h7
M232,417.5 h7 m74,0 h7 m71,0 h7 m22,0 h7 m24,0 h7 m30,0 h7 m-438,0 h7 m71,0 h7 m22,0 h7 m24,0 h7
M337,418.5 h3 m71,0 h3 m-333,0 h7
M285,419.5 h4 m63,0 h7 m11,0 h7 m132,0 h3 m-512,0 h4 m25,0 h7 m60,0 h7 m11,0 h7
M294,420.5 h7 m20,0 h7 m130,0 h7 m13,0 h7 m-447,0 h7 m20,0 h7 m130,0 h7 m13,0 h7
M242,421.5 h7 m25,0 h7 m25,0 h4 m86,0 h4 m26,0 h7 m34,0 h7 m24,0 h7 m-487,0 h7 m25,0 h7 m30,0 h7 m46,0 h7 m23,0 h7 m6,0 h7 m21,0 h2
M378,422.5 h7 m-55,0 h7 m-215,0 h2 m-50,0 h7
M262,423.5 h7 m93,0 h7 m81,0 h7 m-451,0 h7 m93,0 h7
M250,424.5 h7 m25,0 h7 m119,0 h7 m91,0 h6 m-512,0 h1 m25,0 h4 m122,0 h7
M234,425.5 h5 m151,0 h7 m22,0 h7 m8,0 h7 m49,0 h7 m-361,0 h5 m22,0 h7 m11,0 h4
M297,426.5 h7 m50,0 h7 m117,0 h7 m-444,0 h7 m7,0 h7 m36,0 h7 m118,0 h6
M266,427.5 h7 m49,0 h7 m12,0 h7 m24,0 h7 m87,0 h7 m-407,0 h7 m43,0 h7 m87,0 h2
M402,428.5 h7 m-263,0 h7
M286,429.5 h7 m38,0 h7 m160,0 h7 m-430,0 h7
M272,430.5 h7 m24,0 h7 m55,0 h7 m66,0 h7 m-191,0 h7 m-243,0 h5 m24,0 h6 m56,0 h2 m3,0 h2 m68,0 h5 m321,0 h2 m-512,0 h5
M424,431.5 h2 m3,0 h2 m47,0 h6 m-250,0 h3 m175,0 h7 m41,0 h6 m-298,0 h4 m49,0 h7 m262,0 h7 m-341,0 h7 m40,0 h7
M338,432.5 h7 m9,0 h7 m84,0 h2 m-365,0 h6 m12,0 h5 m84,0 h7
M262,433.5 h7 m39,0 h7 m8,0 h7 m40,0 h7 m22,0 h4 m-361,0 h3 m22,0 h7 m54,0 h7 m8,0 h7
M283,434.5 h4 m148,0 h3 m-414,0 h7
M349,435.5 h7 m143,0 h2 m-408,0 h7 m113,0 h7
M254,436.5 h7 m153,0 h2 m68,0 h7 m22,0 h-1 m-512,0 h5 m223,0 h7
M316,437.5 h7 m8,0 h7 m56,0 h7 m43,0 h5 m12,0 h5 m-401,0 h2 m8,0 h7 m56,0 h7 m43,0 h7 m8,0 h7
M291,438.5 h2 m83,0 h7 m-364,0 h7 m9,0 h7 m80,0 h5 m45,0 h7 m-73,0 h3
M417,439.5 h7 m-332,0 h7 m65,0 h4
M246,440.5 h7 m13,0 h4 m37,0 h7 m73,0 h7 m-387,0 h7 m37,0 h7 m169,0 h7
M323,441.5 h6 m9,0 h5 m94,0 h5 m25,0 h7 m-435,0 h7 m20,0 h2 m14,0 h7 m60,0 h3 m27,0 h7 m25,0 h7
M455,442.5 h7 m-358,0 h7 m88,0 h7
M271,443.5 h4 m-260,0 h7
M243,444.5 h7 m64,0 h4 m60,0 h7 m7,0 h7 m45,0 h7 m23,0 h7 m-250,0 h7 m261,0 h7 m-504,0 h7 m49,0 h7 m57,0 h6 m13,0 h2 m45,0 h7 m23,0 h7
M278,445.5 h7 m131,0 h7 m-401,0 h7 m61,0 h7 m63,0 h7
M293,446.5 h7 m30,0 h4 m69,0 h7 m-104,0 h7 m57,0 h7 m-338,0 h5 m103,0 h7 m-104,0 h7 m57,0 h7
M436,447.5 h7 m-84,0 h7 m88,0 h7 m-277,0 h3 m-84,0 h7 m88,0 h7
M338,448.5 h7 m-63,0 h7 m133,0 h7 m41,0 h7 m-395,0 h7 m-63,0 h7 m133,0 h7 m41,0 h7
M246,449.5 h7 m249,0 h7
M255,450.5 h7 m9,0 h7 m104,0 h3 m11,0 h7 m7,0 h7 m94,0 h1 m-512,0 h6 m120,0 h5 m11,0 h5 m7,0 h7
M300,451.5 h7 m9,0 h3 m12,0 h6 m11,0 h7 m89,0 h5 m10,0 h7 m-420,0 h5 m9,0 h7 m7,0 h7 m11,0 h7 m92,0 h4 m8,0 h7
M286,452.5 h7 m68,0 h7 m5,0 h7 m49,0 h7 m41,0 h7 m-454,0 h4 m73,0 h5 m5,0 h7 m49,0 h5 m45,0 h5
M263,453.5 h7 m226,0 h7 m-496,0 h2
M309,454.5 h7 m23,0 h7 m49,0 h4 m25,0 h2 m-373,0 h7 m23,0 h7 m46,0 h7 m20,0 h7
M293,455.5 h2 m3,0 h2 m105,0 h7 m25,0 h7 m24,0 h7 m-280,0 h2 m-44,0 h3
M482,456.5 h2 m3,0 h2 m-136,0 h7 m-134,0 h7 m-106,0 h7
M257,457.5 h7 m7,0 h7 m50,0 h7 m-334,0 h7 m64,0 h2
M239,458.5 h7 m68,0 h7 m24,0 h5 m112,0 h7 m26,0 h7 m-444,0 h7 m22,0 h7 m115,0 h4
M280,459.5 h7 m72,0 h7 m9,0 h7 m17,0 h7 m24,0 h7 m-413,0 h7 m88,0 h7 m17,0 h4 m13,0 h5 m9,0 h7
M249,460.5 h7 m49,0 h7 m193,0 h7 m-475,0 h7 m5,0 h7 m136,0 h5
M265,461.5 h7 m49,0 h7 m145,0 h7 m-471,0 h7 m49,0 h6 m60,0 h7 m93,0 h7
M368,462.5 h7 m64,0 h7 m-362,0 h3 m25,0 h7 m64,0 h7
M242,463.5 h7 m160,0 h7 m6,0 h7 m26,0 h7 m36,0 h7 m-339,0 h7
M287,464.5 h7 m-263,0 h7
M255,465.5 h5 m15,0 h7 m32,0 h7 m8,0 h6 m12,0 h5 m5,0 h7 m31,0 h7 m63,0 h7 m9,0 h2 m28,0 h1 m-512,0 h6 m13,0 h7 m32,0 h7 m24,0 h7 m5,0 h7 m31,0 h7 m63,0 h7 m9,0 h7
M377,466.5 h7 m-263,0 h5
M304,467.5 h7 m120,0 h7 m-388,0 h5 m123,0 h4
M232,468.5 h7 m55,0 h7 m65,0 h7 m15,0 h7 m10,0 h5 m8,0 h7 m16,0 h7 m40,0 h7 m-385,0 h7 m17,0 h5 m8,0 h7 m8,0 h6 m17,0 h7
M245,469.5 h7 m69,0 h7 m125,0 h7 m10,0 h7 m24,0 h7 m-443,0 h7 m125,0 h7 m10,0 h7
M284,470.5 h7 m42,0 h7 m-312,0 h7 m42,0 h7 m15,0 h7
M272,471.5 h7 m65,0 h7 m32,0 h2 m-365,0 h3 m65,0 h7
M255,472.5 h5 m161,0 h3 m56,0 h7 m24,0 h1 m-512,0 h6 m159,0 h3 m56,0 h7
M301,473.5 h7 m129,0 h2 m21,0 h7 m30,0 h2 m-356,0 h7 m31,0 h2 m21,0 h7
M322,474.5 h7 m41,0 h2 m78,0 h2 m-386,0 h2 m46,0 h7 m73,0 h7
M264,475.5 h7 m7,0 h4 m106,0 h7 m21,0 h7 m-401,0 h7 m25,0 h7 m39,0 h4 m33,0 h2 m21,0 h7 m49,0 h7
M233,476.5 h5 m56,0 h7 m39,0 h7 m93,0 h7 m42,0 h7 m-458,0 h7 m39,0 h7 m58,0 h7 m28,0 h7
M251,477.5 h7 m252,0 h2 m-512,0 h2
M331,478.5 h7 m47,0 h2 m76,0 h7 m-121,0 h3 m-274,0 h4 m42,0 h7 m76,0 h3 m-180,0 h7 m56,0 h7
M322,479.5 h3 m40,0 h7 m-102,0 h7 m207,0 h3 m-425,0 h4 m-52,0 h7 m203,0 h7
M399,480.5 h7 m12,0 h7 m8,0 h7 m9,0 h2 m-308,0 h3 m16,0 h7 m8,0 h7 m9,0 h7
M252,481.5 h3 m52,0 h3 m-259,0 h7
M232,482.5 h7 m24,0 h7 m25,0 h5 m26,0 h7 m38,0 h7 m10,0 h7 m16,0 h7 m70,0 h7 m-488,0 h7 m23,0 h7 m72,0 h6 m10,0 h7 m16,0 h7
M279,483.5 h5 m59,0 h4 m11,0 h7 m60,0 h7 m-409,0 h7 m54,0 h7 m11,0 h2 m65,0 h7 m24,0 h7 m13,0 h3
M440,484.5 h7 m-263,0 h4
M301,485.5 h7
M241,486.5 h7 m9,0 h7 m53,0 h7 m25,0 h7 m24,0 h7 m16,0 h7 m87,0 h7 m-503,0 h7 m53,0 h7 m25,0 h7 m24,0 h7
M465,487.5 h7
M487,488.5 h7 m-216,0 h7 m41,0 h6 m38,0 h7 m17,0 h7 m25,0 h7 m21,0 h7 m13,0 h7 m-250,0 h7 m-216,0 h2 m46,0 h7 m37,0 h7 m17,0 h7 m25,0 h7 m21,0 h7 m16,0 h4
M264,489.5 h7 m23,0 h7 m9,0 h7 m28,0 h4 m62,0 h7 m24,0 h7 m-441,0 h7 m23,0 h7 m12,0 h4 m28,0 h4 m64,0 h5
M249,490.5 h7 m249,0 h7
M382,491.5 h5 m-261,0 h7
M286,492.5 h7 m10,0 h7 m24,0 h7 m9,0 h7 m7,0 h7 m61,0 h7 m40,0 h7 m-451,0 h2 m57,0 h7 m7,0 h7 m61,0 h7 m40,0 h7
M239,493.5 h7 m30,0 h2 m123,0 h7 m9,0 h7 m24,0 h4 m12,0 h7 m24,0 h7 m-487,0 h7 m123,0 h7 m9,0 h4 m43,0 h7
M260,494.5 h4 m59,0 h7 m-326,0 h3 m60,0 h7
M374,495.5 h7 m-70,0 h3 m41,0 h7 m141,0 h7 m-455,0 h7 m41,0 h3 m27,0 h7
M235,496.5 h4 m38,0 h7 m10,0 h7 m139,0 h7 m41,0 h7 m-474,0 h3 m14,0 h7 m107,0 h7 m25,0 h7
M335,497.5 h7 m82,0 h6 m42,0 h2 m-274,0 h7 m9,0 h7
M365,498.5 h3 m-259,0 h7
M259,499.5 h7 m38,0 h7 m67,0 h7 m15,0 h4 m79,0 h5 m-485,0 h2 m25,0 h7 m11,0 h7 m86,0 h2 m3,0 h2
M341,500.5 h6 m73,0 h5 m81,0 h4 m-449,0 h7 m17,0 h7 m70,0 h3 m29,0 h7
M359,501.5 h7 m22,0 h7 m71,0 h5 m-339,0 h7 m38,0 h7 m26,0 h7
M264,502.5 h7 m26,0 h5 m25,0 h7 m-295,0 h7 m25,0 h7 m14,0 h6
M277,503.5 h7 m-263,0 h7 m125,0 h7
M237,504.5 h5 m138,0 h5 m59,0 h7 m34,0 h2 m4,0 h4 m-307,0 h7 m29,0 h2
M305,505.5 h7 m9,0 h7 m67,0 h7 m24,0 h6 m26,0 h7 m44,0 h3 m-512,0 h4 m61,0 h7 m67,0 h2 m29,0 h7
M31,506.5 h7 m74,0 h7
M241,507.5 h7 m27,0 h7 m54,0 h7 m92,0 h7 m55,0 h7 m-485,0 h7 m54,0 h7 m7,0 h7 m78,0 h7
M261,508.5 h7 m46,0 h7 m81,0 h7 m7,0 h7 m26,0 h7 m10,0 h7 m-468,0 h7 m46,0 h7 m95,0 h7 m26,0 h7 m14,0 h3
M358,509.5 h6 m20,0 h7 m87,0 h7 m-384,0 h7 m20,0 h7 m87,0 h7
M250,510.5 h7 m36,0 h7 m28,0 h7 m171,0 h6 m-512,0 h1 m36,0 h7 m28,0 h7
M424,511.5 h7 m-263,0 h7
M237,0.5 h7 m26,0 h7 m27,0 h7 m56,0 h7 m19,0 h7 m8,0 h7 m78,0 h7 m-486,0 h7 m90,0 h7 m19,0 h7 m8,0 h7
M285,1.5 h7 m29,0 h7 m8,0 h7 m10,0 h7 m18,0 h7 m54,0 h7 m7,0 h7 m-431,0 h7 m29,0 h7 m12,0 h3 m10,0 h7 m18,0 h7 m54,0 h7 m7,0 h7
M258,2.5 h7 m204,0 h7 m6,0 h7 m-487,0 h7 m204,0 h7 m6,0 h7
M297,4.5 h7 m42,0 h7 m46,0 h7 m9,0 h7 m7,0 h7 m25,0 h7 m-427,0 h7 m42,0 h7 m46,0 h7 m9,0 h7 m7,0 h4 m28,0 h7
M235,5.5 h7 m5,0 h7 m22,0 h7 m79,0 h7 m122,0 h7 m5,0 h7 m-490,0 h7 m79,0 h7
M318,6.5 h7 m115,0 h6 m-67,0 h6 m-335,0 h7 m5,0 h7 m54,0 h7
M292,7.5 h3 m156,0 h7 m-426,0 h7 m32,0 h7 m117,0 h7
M483,8.5 h7 m-149,0 h4 m24,0 h7 m-145,0 h3 m-121,0 h7 m92,0 h7
M251,9.5 h7 m14,0 h7 m71,0 h7 m43,0 h6 m101,0 h5 m-512,0 h2 m14,0 h7 m71,0 h7 m43,0 h7 m24,0 h2
M419,10.5 h5 m-368,0 h2
M297,11.5 h7 m141,0 h7 m-411,0 h7 m142,0 h6
M245,12.5 h3 m113,0 h7 m92,0 h7 m30,0 h7 m-399,0 h7 m41,0 h4 m48,0 h6
M324,13.5 h6 m12,0 h4 m34,0 h6 m12,0 h2 m24,0 h7 m-361,0 h5 m8,0 h7 m34,0 h7 m39,0 h5
M308,14.5 h7 m171,0 h7 m-123,0 h7 m-325,0 h6 m172,0 h7 m-123,0 h7
M277,15.5 h7 m-33,0 h5 m98,0 h7 m83,0 h2 m8,0 h7 m-440,0 h4 m485,0 h2 m-414,0 h2 m83,0 h7
M332,16.5 h7 m135,0 h7 m-405,0 h7 m135,0 h7
M301,17.5 h7 m81,0 h7 m-351,0 h7 m81,0 h7
M238,18.5 h2 m49,0 h7 m104,0 h7 m4,0 h7 m11,0 h7 m26,0 h7 m25,0 h6 m-462,0 h2 m50,0 h7 m47,0 h7 m4,0 h5 m13,0 h7 m27,0 h6
M258,19.5 h7 m5,0 h7 m46,0 h7 m30,0 h7 m-365,0 h7 m5,0 h7 m46,0 h7 m47,0 h7
M485,20.5 h7 m-213,0 h7 m25,0 h7 m102,0 h7 m-198,0 h7 m-213,0 h4 m28,0 h7 m102,0 h7
M253,21.5 h2 m181,0 h7 m28,0 h7 m-298,0 h7 m8,0 h2 m18,0 h7
M335,22.5 h7 m45,0 h7 m-25,0 h4 m-294,0 h7 m45,0 h7 m-25,0 h7
M44,23.5 h7 m43,0 h6
M318,24.5 h7 m72,0 h7 m13,0 h7 m20,0 h5 m-387,0 h7 m72,0 h7 m13,0 h7 m20,0 h7
M241,25.5 h7 m9,0 h7 m8,0 h7 m9,0 h7 m112,0 h7 m51,0 h7 m9,0 h7 m9,0 h6 m-501,0 h6 m8,0 h7 m9,0 h7 m112,0 h7 m51,0 h7 m9,0 h7
M326,26.5 h7 m28,0 h7 m-298,0 h2 m33,0 h7 m7,0 h2
M340,27.5 h7 m77,0 h7 m24,0 h7 m-423,0 h7 m38,0 h7 m77,0 h7 m24,0 h7
M233,28.5 h7 m25,0 h7 m39,0 h7 m69,0 h7 m95,0 h7 m-487,0 h7 m39,0 h7 m70,0 h6
M249,29.5 h7 m25,0 h7 m63,0 h7 m77,0 h7 m63,0 h7 m-487,0 h7 m63,0 h7 m77,0 h7 m31,0 h7
M447,30.5 h7 m-119,0 h4 m79,0 h4 m-231,0 h7 m-39,0 h4
M396,31.5 h7 m-39,0 h7 m-326,0 h3 m92,0 h7 m-39,0 h7
M257,32.5 h7 m8,0 h2 m184,0 h7 m18,0 h5 m-487,0 h7 m8,0 h7 m179,0 h7
M310,33.5 h5 m7,0 h2 m61,0 h7 m-335,0 h2 m7,0 h4 m63,0 h3 m15,0 h7
M341,34.5 h7 m6,0 h7 m13,0 h7 m42,0 h7 m11,0 h5 m-361,0 h7 m6,0 h7 m13,0 h3 m64,0 h7
M236,35.5 h5 m44,0 h4 m215,0 h7 m-293,0 h5
M265,36.5 h7 m24,0 h7 m130,0 h7 m24,0 h7 m-461,0 h6 m24,0 h6 m61,0 h7 m63,0 h7 m24,0 h7
M402,37.5 h7 m46,0 h3
M311,38.5 h7 m74,0 h7 m-340,0 h3 m74,0 h4
M235,39.5 h7 m15,0 h6 m26,0 h7 m43,0 h7 m-326,0 h3 m13,0 h4 m43,0 h7 m67,0 h5
M323,40.5 h7 m25,0 h5 m12,0 h6 m5,0 h6 m-322,0 h7 m41,0 h7 m5,0 h7 m40,0 h3
M461,41.5 h7 m7,0 h7 m21,0 h6 m-302,0 h5 m7,0 h7
M345,42.5 h7 m-55,0 h7 m14,0 h2 m116,0 h7 m-354,0 h7 m-55,0 h7 m9,0 h7 m116,0 h7
M266,43.5 h7 m146,0 h4 m-410,0 h4 m146,0 h7 m24,0 h3
M234,44.5 h7 m42,0 h7 m40,0 h7 m65,0 h7 m81,0 h7 m-470,0 h7 m40,0 h7 m30,0 h2 m33,0 h7
M306,45.5 h2 m71,0 h7 m79,0 h7 m-422,0 h7 m66,0 h7 m5,0 h7 m67,0 h7
M255,46.5 h7 m180,0 h7 m-39,0 h7 m64,0 h7 m23,0 h1 m-512,0 h6 m180,0 h7 m-39,0 h7 m64,0 h7"/>
</svg>
