<?xml version="1.0" encoding="UTF-8"?>
<svg xmlns="http://www.w3.org/2000/svg" width="256" height="256" viewBox="0 0 256 256">
  <path stroke="#4aa5fa" stroke-width=".8" d="
M243,47.5 h7 m-231,0 h7 m16,0 h7 m16,0 h7 m27,0 h7
M113,48.5 h7 m57,0 h7 m14,0 h7
M165,49.5 h7 m44,0 h7
M0,50.5 h7 m5,0 h7 m72,0 h7
M39,51.5 h7 m11,0 h7 m70,0 h7 m5,0 h7 m38,0 h7
M240,52.5 h7 m-223,0 h7 m41,0 h7 m45,0 h7 m77,0 h7 m8,0 h7
M83,53.5 h7 m65,0 h7 m11,0 h7
M248,54.5 h7 m-141,0 h7
M32,55.5 h7 m63,0 h7 m74,0 h7
M43,56.5 h7 m6,0 h7 m7,0 h7 m87,0 h7 m31,0 h7 m21,0 h7
M3,57.5 h7 m2,0 h7 m70,0 h7 m35,0 h7
M118,58.5 h7 m20,0 h7 m38,0 h7 m23,0 h7
M248,59.5 h7 m-231,0 h7
M236,60.5 h7 m-194,0 h7 m8,0 h7 m10,0 h7 m66,0 h7
M34,61.5 h7 m59,0 h7 m4,0 h7 m18,0 h7 m38,0 h7 m25,0 h7
M14,62.5 h7 m146,0 h7 m25,0 h7
M2,63.5 h7
M69,64.5 h7 m16,0 h7 m24,0 h7 m29,0 h7
M237,65.5 h7 m3,0 h7 m-234,0 h7 m10,0 h7 m13,0 h7 m70,0 h7 m5,0 h7 m21,0 h7 m10,0 h7 m8,0 h7 m13,0 h7
M81,66.5 h7 m16,0 h7
M49,67.5 h7
M9,68.5 h7 m99,0 h7
M27,69.5 h7 m39,0 h7 m8,0 h7 m54,0 h7 m9,0 h7 m9,0 h7 m25,0 h7
M0,70.5 h7 m33,0 h7 m78,0 h7 m65,0 h7 m25,0 h7
M246,71.5 h7 m-156,0 h7 m31,0 h7
M65,72.5 h7 m116,0 h7 m25,0 h7
M10,73.5 h7 m13,0 h7 m13,0 h7 m101,0 h7
M237,74.5 h7 m-129,0 h7 m22,0 h7 m56,0 h7
M18,75.5 h7 m55,0 h7 m17,0 h7 m65,0 h7
M58,76.5 h7 m25,0 h7 m69,0 h7 m54,0 h7
M1,77.5 h7 m33,0 h7 m23,0 h7 m58,0 h7 m55,0 h7
M242,78.5 h7 m-219,0 h7 m84,0 h7 m25,0 h7 m26,0 h7 m23,0 h7
M18,79.5 h7 m25,0 h7
M99,80.5 h7 m4,0 h7
M249,81.5 h7 m-249,0 h7 m116,0 h7 m24,0 h7 m9,0 h7 m44,0 h7
M35,82.5 h7 m32,0 h7 m8,0 h7 m49,0 h7 m41,0 h7 m8,0 h7
M62,83.5 h7
M241,84.5 h7 m-231,0 h7 m25,0 h7 m64,0 h7
M3,85.5 h7 m72,0 h7 m16,0 h7 m25,0 h7 m25,0 h7 m8,0 h7 m25,0 h7
M155,86.5 h7 m35,0 h7 m24,0 h7
M37,87.5 h7
M249,88.5 h7 m-229,0 h7 m39,0 h7 m12,0 h7 m15,0 h7
M236,89.5 h7 m-226,0 h7 m26,0 h7 m3,0 h7 m63,0 h7 m9,0 h7 m20,0 h7 m38,0 h7
M103,90.5 h7 m77,0 h7 m10,0 h7
M0,91.5 h7 m155,0 h7
M243,92.5 h7 m-238,0 h7 m24,0 h7 m17,0 h7 m8,0 h7 m33,0 h7
M29,93.5 h7 m100,0 h7 m9,0 h7 m37,0 h7 m10,0 h7
M106,94.5 h7 m69,0 h7 m42,0 h7
M91,95.5 h7 m72,0 h7
M38,96.5 h7 m29,0 h7 m37,0 h7 m17,0 h7
M254,97.5 h2 m-256,0 h5 m9,0 h7 m39,0 h7 m92,0 h7 m25,0 h7 m23,0 h7
M241,98.5 h7 m-198,0 h7 m38,0 h7
M26,99.5 h7 m49,0 h7 m121,0 h7
M109,100.5 h7 m9,0 h7 m5,0 h7 m7,0 h7 m10,0 h7 m25,0 h7
M232,101.5 h7 m-202,0 h7 m25,0 h7 m108,0 h7
M250,102.5 h6 m-256,0 h1 m7,0 h7 m5,0 h7 m192,0 h7
M52,103.5 h7 m38,0 h7 m11,0 h7
M144,104.5 h7 m9,0 h7 m9,0 h7
M241,105.5 h7 m7,0 h1 m-256,0 h6 m23,0 h7 m29,0 h7 m10,0 h7 m38,0 h7 m73,0 h7
M43,106.5 h7 m145,0 h7 m26,0 h7
M215,107.5 h7
M11,108.5 h7 m38,0 h7 m9,0 h7 m17,0 h7 m3,0 h7 m23,0 h7 m9,0 h7 m9,0 h7 m8,0 h7
M22,109.5 h7
M246,110.5 h7 m-219,0 h7 m45,0 h7 m24,0 h7 m76,0 h7
M2,111.5 h7 m180,0 h7 m30,0 h7
M43,112.5 h7 m6,0 h7 m13,0 h7 m62,0 h7 m8,0 h7
M238,113.5 h7 m-231,0 h7 m103,0 h7 m83,0 h7
M27,114.5 h7 m60,0 h7 m5,0 h7 m23,0 h7 m28,0 h7
M182,115.5 h7 m11,0 h7
M250,116.5 h6 m-256,0 h1 m59,0 h7 m162,0 h7
M5,117.5 h7 m34,0 h7 m20,0 h7 m7,0 h7 m21,0 h7 m35,0 h7
M129,118.5 h7 m8,0 h7 m62,0 h7
M241,119.5 h7 m-231,0 h7 m10,0 h7 m131,0 h7 m10,0 h7 m8,0 h7
M222,120.5 h7
M55,121.5 h7 m16,0 h7 m14,0 h7 m3,0 h7
M249,122.5 h7 m-246,0 h7 m49,0 h7 m47,0 h7 m9,0 h7 m10,0 h7 m22,0 h7
M23,123.5 h7 m14,0 h7 m38,0 h7 m68,0 h7 m59,0 h7
M34,124.5 h7
M2,125.5 h7 m182,0 h7 m6,0 h7
M243,126.5 h7 m-198,0 h7 m21,0 h7 m42,0 h7 m9,0 h7 m65,0 h7
M96,127.5 h7 m74,0 h7
M234,128.5 h7 m-216,0 h7 m33,0 h7 m35,0 h7 m6,0 h7 m38,0 h7
M249,129.5 h7 m-246,0 h7 m23,0 h7 m150,0 h7
M135,130.5 h7 m10,0 h7 m62,0 h7
M51,131.5 h7 m16,0 h7 m6,0 h7 m113,0 h7
M2,132.5 h7 m10,0 h7 m89,0 h7 m52,0 h7 m9,0 h7
M34,133.5 h7 m57,0 h7 m35,0 h7 m80,0 h7
M237,134.5 h7 m-178,0 h7 m92,0 h7
M57,135.5 h7 m42,0 h7 m38,0 h7 m22,0 h7
M252,136.5 h4 m-256,0 h3 m7,0 h7 m25,0 h7 m40,0 h7 m24,0 h7 m83,0 h7
M73,137.5 h7 m109,0 h7
M241,138.5 h7 m-216,0 h7 m97,0 h7 m57,0 h7 m17,0 h7
M17,139.5 h7 m58,0 h7 m38,0 h7 m26,0 h7
M48,140.5 h7 m8,0 h7 m27,0 h7 m9,0 h7 m26,0 h7 m25,0 h7 m32,0 h7
M4,141.5 h7
M234,142.5 h7 m7,0 h7 m-230,0 h7 m136,0 h7
M38,143.5 h7 m143,0 h7 m14,0 h7
M55,144.5 h7 m10,0 h7 m7,0 h7 m31,0 h7 m25,0 h7
M17,145.5 h7 m120,0 h7 m50,0 h7
M7,146.5 h7 m83,0 h7 m8,0 h7 m60,0 h7
M245,147.5 h7 m-205,0 h7 m11,0 h7 m62,0 h7 m25,0 h7 m43,0 h7 m6,0 h7
M81,148.5 h7
M21,149.5 h7 m76,0 h7 m10,0 h7 m70,0 h7
M253,150.5 h3 m-256,0 h4 m31,0 h7 m112,0 h7
M236,151.5 h7 m-102,0 h7 m24,0 h7 m11,0 h7 m13,0 h7 m5,0 h7
M47,152.5 h7 m13,0 h7
M7,153.5 h7 m66,0 h7 m8,0 h7 m25,0 h7 m49,0 h7
M245,154.5 h7 m-235,0 h7 m84,0 h7 m45,0 h7
M27,155.5 h7 m4,0 h7 m10,0 h7 m141,0 h7
M234,156.5 h7 m13,0 h2 m-256,0 h5 m217,0 h7
M65,157.5 h7 m20,0 h7 m14,0 h7 m11,0 h7 m6,0 h7 m20,0 h7 m13,0 h7
M77,158.5 h7 m71,0 h7
M212,159.5 h7
M245,160.5 h7 m-245,0 h7 m7,0 h7 m17,0 h7 m52,0 h7 m12,0 h7 m50,0 h7
M232,161.5 h7 m-182,0 h7 m71,0 h7 m22,0 h7 m24,0 h7
M81,162.5 h7 m63,0 h7
M253,163.5 h3 m-256,0 h4 m25,0 h7 m60,0 h7 m11,0 h7
M38,164.5 h7 m20,0 h7 m130,0 h7 m13,0 h7
M242,165.5 h7 m-231,0 h7 m25,0 h7 m30,0 h7 m46,0 h7 m23,0 h7 m6,0 h7 m21,0 h7
M74,166.5 h7 m41,0 h7
M6,167.5 h7 m93,0 h7 m81,0 h7
M250,168.5 h6 m-256,0 h1 m25,0 h7 m119,0 h7
M234,169.5 h7 m-107,0 h7 m22,0 h7 m8,0 h7
M41,170.5 h7 m7,0 h7 m36,0 h7 m117,0 h7
M10,171.5 h7 m49,0 h7 m12,0 h7 m24,0 h7 m87,0 h7
M129,172.5 h7 m10,0 h7 m42,0 h7
M242,173.5 h7 m-219,0 h7 m38,0 h7
M254,174.5 h2 m-256,0 h5 m11,0 h7 m24,0 h7 m55,0 h7 m66,0 h7
M234,175.5 h7 m-85,0 h7 m5,0 h7 m28,0 h7 m11,0 h7
M82,176.5 h7 m9,0 h7 m84,0 h7
M6,177.5 h7 m25,0 h7 m7,0 h7 m8,0 h7 m40,0 h7 m7,0 h7 m8,0 h7
M24,178.5 h7 m144,0 h7
M243,179.5 h7 m-157,0 h7 m113,0 h7
M254,180.5 h2 m-256,0 h5 m148,0 h7 m68,0 h7
M60,181.5 h7 m8,0 h7 m56,0 h7 m43,0 h7 m8,0 h7
M19,182.5 h7 m9,0 h7 m64,0 h7 m7,0 h7 m45,0 h7
M92,183.5 h7 m62,0 h7
M246,184.5 h7 m-246,0 h7 m37,0 h7 m73,0 h7 m89,0 h7
M39,185.5 h7 m20,0 h7 m9,0 h7 m60,0 h7 m23,0 h7 m25,0 h7
M104,186.5 h7 m88,0 h7
M15,187.5 h7
M243,188.5 h7 m-248,0 h7 m49,0 h7 m57,0 h7 m7,0 h7 m45,0 h7 m23,0 h7 m6,0 h7
M22,189.5 h7 m61,0 h7 m63,0 h7
M37,190.5 h7 m6,0 h7 m14,0 h7 m36,0 h7 m26,0 h7
M103,191.5 h7 m70,0 h7 m11,0 h7
M26,192.5 h7 m49,0 h7 m77,0 h7 m41,0 h7
M246,193.5 h7 m-22,0 h7
M255,194.5 h1 m-256,0 h6 m9,0 h7 m104,0 h7 m7,0 h7 m7,0 h7
M44,195.5 h7 m9,0 h7 m7,0 h7 m11,0 h7 m89,0 h7 m8,0 h7
M30,196.5 h7 m68,0 h7 m5,0 h7 m49,0 h7 m41,0 h7
M240,197.5 h7 m-240,0 h7
M53,198.5 h7 m23,0 h7 m46,0 h7 m20,0 h7
M37,199.5 h7 m105,0 h7 m25,0 h7 m7,0 h7 m10,0 h7
M97,200.5 h7 m23,0 h7 m92,0 h7
M1,201.5 h7 m7,0 h7 m50,0 h7
M239,202.5 h7 m-188,0 h7 m22,0 h7 m112,0 h7
M24,203.5 h7 m72,0 h7 m9,0 h7 m17,0 h7 m8,0 h7 m9,0 h7
M249,204.5 h7 m-219,0 h7 m5,0 h7 m136,0 h7
M9,205.5 h7 m49,0 h7 m59,0 h7 m79,0 h7 m7,0 h7
M80,206.5 h7 m25,0 h7 m64,0 h7
M242,207.5 h7 m-96,0 h7 m6,0 h7 m26,0 h7
M31,208.5 h7
M255,209.5 h1 m-256,0 h6 m13,0 h7 m32,0 h7 m8,0 h7 m9,0 h7 m5,0 h7 m31,0 h7 m63,0 h7 m9,0 h7
M121,210.5 h7
M48,211.5 h7 m120,0 h7
M232,212.5 h7 m-232,0 h7 m24,0 h7 m65,0 h7 m15,0 h7 m8,0 h7 m8,0 h7 m16,0 h7
M245,213.5 h7 m-187,0 h7 m125,0 h7 m10,0 h7
M28,214.5 h7 m42,0 h7 m15,0 h7
M16,215.5 h7 m65,0 h7 m27,0 h7
M255,216.5 h1 m-256,0 h6 m159,0 h7 m52,0 h7
M241,217.5 h7 m-203,0 h7 m91,0 h7 m26,0 h7 m21,0 h7
M66,218.5 h7 m41,0 h7 m73,0 h7
M8,219.5 h7 m7,0 h7 m25,0 h7 m39,0 h7 m25,0 h7 m21,0 h7 m49,0 h7
M233,220.5 h7 m-202,0 h7 m39,0 h7 m58,0 h7 m28,0 h7
M251,221.5 h5 m-256,0 h2
M30,222.5 h7 m38,0 h7 m11,0 h7 m24,0 h7 m76,0 h7
M14,223.5 h7 m41,0 h7 m40,0 h7 m108,0 h7
M143,224.5 h7 m12,0 h7 m8,0 h7 m9,0 h7
M248,225.5 h7 m-204,0 h7
M232,226.5 h7 m-232,0 h7 m23,0 h7 m26,0 h7 m38,0 h7 m10,0 h7 m16,0 h7
M23,227.5 h7 m54,0 h7 m11,0 h7 m60,0 h7 m24,0 h7 m9,0 h7
M184,228.5 h7
M45,229.5 h7
M241,230.5 h7 m-247,0 h7 m53,0 h7 m25,0 h7 m24,0 h7 m16,0 h7
M209,231.5 h7
M22,232.5 h7 m41,0 h7 m37,0 h7 m17,0 h7 m25,0 h7 m21,0 h7 m13,0 h7 m6,0 h7
M8,233.5 h7 m23,0 h7 m9,0 h7 m25,0 h7 m62,0 h7 m24,0 h7
M249,234.5 h7
M126,235.5 h7
M30,236.5 h7 m10,0 h7 m24,0 h7 m9,0 h7 m7,0 h7 m61,0 h7 m40,0 h7
M239,237.5 h7 m-231,0 h7 m123,0 h7 m9,0 h7 m24,0 h7 m9,0 h7
M4,238.5 h7 m56,0 h7
M247,239.5 h7 m-199,0 h7 m37,0 h7 m12,0 h7 m8,0 h7
M232,240.5 h7 m-218,0 h7 m10,0 h7 m107,0 h7 m25,0 h7
M79,241.5 h7 m82,0 h7 m25,0 h7 m9,0 h7
M109,242.5 h7
M3,243.5 h7 m20,0 h7 m11,0 h7 m67,0 h7 m12,0 h7 m77,0 h7
M247,244.5 h7 m-193,0 h7 m17,0 h7 m70,0 h7 m25,0 h7
M103,245.5 h7 m22,0 h7 m38,0 h7 m26,0 h7
M8,246.5 h7 m24,0 h7 m25,0 h7 m14,0 h7
M21,247.5 h7 m125,0 h7
M235,248.5 h7 m-120,0 h7 m59,0 h7 m29,0 h7
M253,249.5 h3 m-256,0 h4 m45,0 h7 m9,0 h7 m67,0 h7 m24,0 h7 m25,0 h7
M31,250.5 h7 m74,0 h7
M241,251.5 h7 m-229,0 h7 m54,0 h7 m7,0 h7 m78,0 h7
M5,252.5 h7 m46,0 h7 m81,0 h7 m7,0 h7 m26,0 h7 m10,0 h7
M101,253.5 h7 m20,0 h7 m87,0 h7
M250,254.5 h6 m-256,0 h1 m36,0 h7 m28,0 h7
M168,255.5 h7
M237,0.5 h7 m-230,0 h7 m27,0 h7 m56,0 h7 m19,0 h7 m8,0 h7
M29,1.5 h7 m29,0 h7 m8,0 h7 m10,0 h7 m18,0 h7 m54,0 h7 m7,0 h7
M2,2.5 h7 m204,0 h7 m6,0 h7
M41,4.5 h7 m42,0 h7 m46,0 h7 m9,0 h7 m7,0 h7 m25,0 h7
M235,5.5 h7 m5,0 h7 m-234,0 h7 m79,0 h7
M50,6.5 h7 m5,0 h7 m54,0 h7 m4,0 h7 m42,0 h7
M7,7.5 h7 m18,0 h7 m32,0 h7 m117,0 h7
M82,8.5 h7 m24,0 h7 m92,0 h7 m8,0 h7
M251,9.5 h5 m-256,0 h2 m14,0 h7 m71,0 h7 m43,0 h7 m24,0 h7
M56,10.5 h7 m98,0 h7
M41,11.5 h7 m141,0 h7 m23,0 h7
M241,12.5 h7 m-220,0 h7 m70,0 h7 m41,0 h7 m44,0 h7
M6,13.5 h7 m55,0 h7 m8,0 h7 m34,0 h7 m6,0 h7 m24,0 h7
M52,14.5 h7 m55,0 h7 m109,0 h7
M249,15.5 h7 m-235,0 h7 m70,0 h7 m78,0 h7 m8,0 h7
M76,16.5 h7 m135,0 h7
M45,17.5 h7 m81,0 h7
M238,18.5 h7 m-212,0 h7 m50,0 h7 m47,0 h7 m4,0 h7 m11,0 h7 m26,0 h7
M2,19.5 h7 m5,0 h7 m46,0 h7 m30,0 h7 m10,0 h7
M23,20.5 h7 m25,0 h7 m102,0 h7 m58,0 h7
M248,21.5 h7 m-75,0 h7 m8,0 h7 m13,0 h7
M79,22.5 h7 m27,0 h7 m11,0 h7
M44,23.5 h7 m43,0 h7
M62,24.5 h7 m72,0 h7 m13,0 h7 m20,0 h7
M241,25.5 h7 m-247,0 h7 m8,0 h7 m9,0 h7 m112,0 h7 m51,0 h7 m9,0 h7
M70,26.5 h7 m28,0 h7 m7,0 h7
M39,27.5 h7 m38,0 h7 m77,0 h7 m24,0 h7
M233,28.5 h7 m-231,0 h7 m39,0 h7 m69,0 h7
M249,29.5 h7 m-231,0 h7 m63,0 h7 m77,0 h7 m31,0 h7
M76,30.5 h7 m76,0 h7 m25,0 h7
M45,31.5 h7 m56,0 h7 m25,0 h7
M1,32.5 h7 m8,0 h7 m179,0 h7 m16,0 h7
M52,33.5 h7 m7,0 h7 m56,0 h7 m15,0 h7
M85,34.5 h7 m6,0 h7 m13,0 h7 m42,0 h7 m11,0 h7
M234,35.5 h7 m7,0 h7 m-229,0 h7 m185,0 h7
M9,36.5 h7 m24,0 h7 m28,0 h7 m25,0 h7 m63,0 h7 m24,0 h7
M146,37.5 h7 m42,0 h7
M55,38.5 h7 m74,0 h7
M235,39.5 h7 m-242,0 h7 m13,0 h7 m6,0 h7 m43,0 h7 m67,0 h7
M67,40.5 h7 m25,0 h7 m9,0 h7 m5,0 h7 m36,0 h7
M246,41.5 h7 m-48,0 h7 m7,0 h7
M41,42.5 h7 m9,0 h7 m25,0 h7 m84,0 h7
M10,43.5 h7 m146,0 h7 m24,0 h7
M234,44.5 h7 m-214,0 h7 m40,0 h7 m25,0 h7 m33,0 h7
M50,45.5 h7 m66,0 h7 m5,0 h7 m67,0 h7
M255,46.5 h1 m-256,0 h6 m74,0 h7 m67,0 h7 m25,0 h7 m32,0 h7"/>
</svg>
