<?xml version="1.0" encoding="UTF-8"?>
<svg xmlns="http://www.w3.org/2000/svg" xmlns:xlink="http://www.w3.org/1999/xlink" width="512" height="512" viewBox="0 0 512 512">
  <defs>
    <path id="reed1" fill="#73b386" d="m-1.5,-7 c-.25,0 -.75,.75 -1,1.25 0,.5 .77771,1.6666 1,2 .12087,.30218 .19913,.57882 .25,.84375 -.13737,-.13509 -.29688,-.24219 -.5,-.34375 0,.75 .25,1 .5,2.25 0,1 .75,3.75 0,5.25 .5,0 1,-.25 1.5,-.25 .25,-2.5 -.25,-4 -1,-6 -.0625,-.1875 -.12109,-.33594 -.1875,-.46875 -.00703,-.01406 -.02413,-.0177 -.03125,-.03125 -.04385,-.41161 -.10086,-.86865 -.28125,-1.5 -.13348,-.5339 .75,-1.5 .75,-2 -.25,-.5 -.75,-1 -1,-1 z m3.75,.75 c-.25,0 -1,.75 -1,1.25 0,.25 .5,1 .5,1.5 0,.60436 -.37509,2.0397 -.3125,3.0625 .0006,.01 -.00068,.021 0,.031 -.35997,1.6812 -.23245,3.3813 -.4375,4.4065 .5,0 1,.25 1.5,.25 -.5,-1 -.25,-1.5 -.25,-4.75 0,-1 0,-.75 .25,-1.75 -.25,0 -.5,.25 -.75,.75 .10434,-.87712 .34222,-1.842 .5,-2 .5,-.5 1,-1 1,-1.5 s-.75,-1.25 -1,-1.25 z m-6,5.75 c0,.25 .25,.5 .5,1.25 .25,2 .22479,1.99 .25,3.75 .5,-.25 .8662,-.17 1.25,-.25 0,-1.25 0,-3.25 -1.25,-4.25 -.25,-.25 -.25,-.25 -.75,-.5z m8.5,-.75 c0,.25 -.25,1.25 -.5,2.5 s-.25,1.75 0,3.25 c-.25,0 -.8662,-.17 -1.25,-.25 .5,-.5 -.25,-1.5 .75,-4 .25,-.75 .25,-1 1,-1.5 z"/>
    <path id="reed2" fill="#73b386" d="m2.5,-7 c.25,0 .75,.75 1,1.25 0,.5 -.77771,1.6666 -1,2 -.12087,.30218 -.19913,.57882 -.25,.84375 .13737,-.13509 .29688,-.24219 .5,-.34375 0,.75 -.25,1 -.5,2.25 0,1 -.75,3.75 0,5.25 -.5,0 -1,-.25 -1.5,-.25 -.25,-2.5 .25,-4 1,-6 .0625,-.1875 .12109,-.33594 .1875,-.46875 .00703,-.01406 .02413,-.0177 .03125,-.03125 .04385,-.41161 .10086,-.86865 .28125,-1.5 .13348,-.5339 -.75,-1.5 -.75,-2 .25,-.5 .75,-1 1,-1 z m-3.75,.75 c.25,0 1,.75 1,1.25 0,.25 -.5,1 -.5,1.5 0,.60436 .37509,2.0397 .3125,3.0625 .0006,.01 .00068,.021 0,.031 .35997,1.6812 .23245,3.3813 .4375,4.4065 -.5,0 -1,.25 -1.5,.25 .5,-1 .25,-1.5 .25,-4.75 0,-1 0,-.75 -.25,-1.75 .25,0 .5,.25 .75,.75 -.10434,-.87712 -.34222,-1.842 -.5,-2 -.5,-.5 -1,-1 -1,-1.5 s.75,-1.25 1,-1.25 z m6,5.75 c0,.25 -.25,.5 -.5,1.25 -.25,2 -.22479,1.99 -.25,3.75 -.5,-.25 -.8662,-.17 -1.25,-.25 0,-1.25 0,-3.25 1.25,-4.25 .25,-.25 .25,-.25 .75,-.5 z m-8.5,-.75 c0,.25 .25,1.25 .5,2.5 s.25,1.75 0,3.25 c.25,0 .8662,-.17 1.25,-.25 -.5,-.5 .25,-1.5 -.75,-4 -.25,-.75 -.25,-1 -1,-1.5 z"/>
  </defs>
  <use x="247" y="70" xlink:href="#reed1"/>
  <use x="269" y="64" xlink:href="#reed1"/>
  <use x="312" y="70" xlink:href="#reed1"/>
  <use x="363" y="68" xlink:href="#reed1"/>
  <use x="432" y="50" xlink:href="#reed1"/>
  <use x="432" y="50" xlink:href="#reed1"/>
  <use x="475" y="54" xlink:href="#reed1"/>
  <use x="492" y="69" xlink:href="#reed1"/>
  <use x="11" y="49" xlink:href="#reed1"/>
  <use x="11" y="49" xlink:href="#reed1"/>
  <use x="83" y="61" xlink:href="#reed1"/>
  <use x="146" y="69" xlink:href="#reed1"/>
  <use x="176" y="50" xlink:href="#reed1"/>
  <use x="176" y="50" xlink:href="#reed1"/>
  <use x="228" y="46" xlink:href="#reed1"/>
  <use x="231" y="72" xlink:href="#reed1"/>
  <use x="291" y="83" xlink:href="#reed1"/>
  <use x="386" y="89" xlink:href="#reed1"/>
  <use x="404" y="80" xlink:href="#reed1"/>
  <use x="427" y="75" xlink:href="#reed1"/>
  <use x="450" y="89" xlink:href="#reed1"/>
  <use x="468" y="81" xlink:href="#reed1"/>
  <use x="71" y="82" xlink:href="#reed1"/>
  <use x="118" y="76" xlink:href="#reed1"/>
  <use x="153" y="88" xlink:href="#reed1"/>
  <use x="207" y="82" xlink:href="#reed1"/>
  <use x="236" y="95" xlink:href="#reed1"/>
  <use x="236" y="95" xlink:href="#reed1"/>
  <use x="289" y="106" xlink:href="#reed1"/>
  <use x="367" y="99" xlink:href="#reed1"/>
  <use x="412" y="110" xlink:href="#reed1"/>
  <use x="430" y="100" xlink:href="#reed1"/>
  <use x="76" y="108" xlink:href="#reed1"/>
  <use x="101" y="102" xlink:href="#reed1"/>
  <use x="143" y="110" xlink:href="#reed1"/>
  <use x="216" y="100" xlink:href="#reed1"/>
  <use x="253" y="134" xlink:href="#reed1"/>
  <use x="276" y="123" xlink:href="#reed1"/>
  <use x="314" y="134" xlink:href="#reed1"/>
  <use x="336" y="129" xlink:href="#reed1"/>
  <use x="353" y="124" xlink:href="#reed1"/>
  <use x="432" y="134" xlink:href="#reed1"/>
  <use x="457" y="129" xlink:href="#reed1"/>
  <use x="11" y="125" xlink:href="#reed1"/>
  <use x="32" y="133" xlink:href="#reed1"/>
  <use x="94" y="124" xlink:href="#reed1"/>
  <use x="131" y="129" xlink:href="#reed1"/>
  <use x="158" y="127" xlink:href="#reed1"/>
  <use x="175" y="136" xlink:href="#reed1"/>
  <use x="205" y="131" xlink:href="#reed1"/>
  <use x="248" y="155" xlink:href="#reed1"/>
  <use x="317" y="153" xlink:href="#reed1"/>
  <use x="397" y="155" xlink:href="#reed1"/>
  <use x="423" y="152" xlink:href="#reed1"/>
  <use x="447" y="154" xlink:href="#reed1"/>
  <use x="489" y="159" xlink:href="#reed1"/>
  <use x="31" y="153" xlink:href="#reed1"/>
  <use x="67" y="156" xlink:href="#reed1"/>
  <use x="74" y="140" xlink:href="#reed1"/>
  <use x="131" y="155" xlink:href="#reed1"/>
  <use x="147" y="152" xlink:href="#reed1"/>
  <use x="202" y="150" xlink:href="#reed1"/>
  <use x="285" y="177" xlink:href="#reed1"/>
  <use x="305" y="180" xlink:href="#reed1"/>
  <use x="401" y="177" xlink:href="#reed1"/>
  <use x="476" y="181" xlink:href="#reed1"/>
  <use x="499" y="178" xlink:href="#reed1"/>
  <use x="12" y="171" xlink:href="#reed1"/>
  <use x="48" y="165" xlink:href="#reed1"/>
  <use x="83" y="172" xlink:href="#reed1"/>
  <use x="112" y="166" xlink:href="#reed1"/>
  <use x="126" y="180" xlink:href="#reed1"/>
  <use x="202" y="173" xlink:href="#reed1"/>
  <use x="221" y="184" xlink:href="#reed1"/>
  <use x="262" y="197" xlink:href="#reed1"/>
  <use x="318" y="195" xlink:href="#reed1"/>
  <use x="457" y="192" xlink:href="#reed1"/>
  <use x="16" y="193" xlink:href="#reed1"/>
  <use x="45" y="205" xlink:href="#reed1"/>
  <use x="59" y="188" xlink:href="#reed1"/>
  <use x="80" y="193" xlink:href="#reed1"/>
  <use x="99" y="203" xlink:href="#reed1"/>
  <use x="117" y="200" xlink:href="#reed1"/>
  <use x="144" y="191" xlink:href="#reed1"/>
  <use x="220" y="207" xlink:href="#reed1"/>
  <use x="263" y="229" xlink:href="#reed1"/>
  <use x="284" y="215" xlink:href="#reed1"/>
  <use x="358" y="224" xlink:href="#reed1"/>
  <use x="418" y="216" xlink:href="#reed1"/>
  <use x="453" y="224" xlink:href="#reed1"/>
  <use x="474" y="222" xlink:href="#reed1"/>
  <use x="11" y="214" xlink:href="#reed1"/>
  <use x="27" y="228" xlink:href="#reed1"/>
  <use x="75" y="219" xlink:href="#reed1"/>
  <use x="255" y="252" xlink:href="#reed1"/>
  <use x="278" y="240" xlink:href="#reed1"/>
  <use x="319" y="251" xlink:href="#reed1"/>
  <use x="341" y="243" xlink:href="#reed1"/>
  <use x="363" y="247" xlink:href="#reed1"/>
  <use x="418" y="243" xlink:href="#reed1"/>
  <use x="452" y="248" xlink:href="#reed1"/>
  <use x="477" y="246" xlink:href="#reed1"/>
  <use x="29" y="252" xlink:href="#reed1"/>
  <use x="51" y="246" xlink:href="#reed1"/>
  <use x="178" y="232" xlink:href="#reed1"/>
  <use x="191" y="243" xlink:href="#reed1"/>
  <use x="229" y="248" xlink:href="#reed1"/>
  <use x="229" y="248" xlink:href="#reed1"/>
  <use x="249" y="271" xlink:href="#reed1"/>
  <use x="273" y="266" xlink:href="#reed1"/>
  <use x="291" y="264" xlink:href="#reed1"/>
  <use x="315" y="271" xlink:href="#reed1"/>
  <use x="396" y="276" xlink:href="#reed1"/>
  <use x="454" y="269" xlink:href="#reed1"/>
  <use x="487" y="265" xlink:href="#reed1"/>
  <use x="507" y="276" xlink:href="#reed1"/>
  <use x="87" y="266" xlink:href="#reed1"/>
  <use x="120" y="264" xlink:href="#reed1"/>
  <use x="165" y="259" xlink:href="#reed1"/>
  <use x="212" y="263" xlink:href="#reed1"/>
  <use x="249" y="295" xlink:href="#reed1"/>
  <use x="271" y="292" xlink:href="#reed1"/>
  <use x="297" y="292" xlink:href="#reed1"/>
  <use x="336" y="295" xlink:href="#reed1"/>
  <use x="360" y="300" xlink:href="#reed1"/>
  <use x="4" y="293" xlink:href="#reed1"/>
  <use x="32" y="297" xlink:href="#reed1"/>
  <use x="195" y="291" xlink:href="#reed1"/>
  <use x="283" y="309" xlink:href="#reed1"/>
  <use x="352" y="323" xlink:href="#reed1"/>
  <use x="379" y="315" xlink:href="#reed1"/>
  <use x="413" y="318" xlink:href="#reed1"/>
  <use x="436" y="304" xlink:href="#reed1"/>
  <use x="457" y="316" xlink:href="#reed1"/>
  <use x="481" y="315" xlink:href="#reed1"/>
  <use x="12" y="313" xlink:href="#reed1"/>
  <use x="57" y="310" xlink:href="#reed1"/>
  <use x="120" y="322" xlink:href="#reed1"/>
  <use x="132" y="303" xlink:href="#reed1"/>
  <use x="151" y="320" xlink:href="#reed1"/>
  <use x="174" y="317" xlink:href="#reed1"/>
  <use x="196" y="307" xlink:href="#reed1"/>
  <use x="220" y="301" xlink:href="#reed1"/>
  <use x="232" y="343" xlink:href="#reed1"/>
  <use x="232" y="343" xlink:href="#reed1"/>
  <use x="264" y="342" xlink:href="#reed1"/>
  <use x="281" y="330" xlink:href="#reed1"/>
  <use x="327" y="349" xlink:href="#reed1"/>
  <use x="406" y="345" xlink:href="#reed1"/>
  <use x="469" y="335" xlink:href="#reed1"/>
  <use x="496" y="339" xlink:href="#reed1"/>
  <use x="37" y="342" xlink:href="#reed1"/>
  <use x="56" y="331" xlink:href="#reed1"/>
  <use x="101" y="329" xlink:href="#reed1"/>
  <use x="178" y="344" xlink:href="#reed1"/>
  <use x="195" y="330" xlink:href="#reed1"/>
  <use x="247" y="359" xlink:href="#reed1"/>
  <use x="308" y="368" xlink:href="#reed1"/>
  <use x="343" y="357" xlink:href="#reed1"/>
  <use x="379" y="362" xlink:href="#reed1"/>
  <use x="412" y="364" xlink:href="#reed1"/>
  <use x="430" y="354" xlink:href="#reed1"/>
  <use x="18" y="360" xlink:href="#reed1"/>
  <use x="56" y="359" xlink:href="#reed1"/>
  <use x="78" y="360" xlink:href="#reed1"/>
  <use x="99" y="357" xlink:href="#reed1"/>
  <use x="142" y="365" xlink:href="#reed1"/>
  <use x="162" y="360" xlink:href="#reed1"/>
  <use x="221" y="360" xlink:href="#reed1"/>
  <use x="275" y="394" xlink:href="#reed1"/>
  <use x="286" y="373" xlink:href="#reed1"/>
  <use x="316" y="383" xlink:href="#reed1"/>
  <use x="335" y="384" xlink:href="#reed1"/>
  <use x="383" y="389" xlink:href="#reed1"/>
  <use x="427" y="383" xlink:href="#reed1"/>
  <use x="451" y="390" xlink:href="#reed1"/>
  <use x="9" y="377" xlink:href="#reed1"/>
  <use x="62" y="380" xlink:href="#reed1"/>
  <use x="160" y="383" xlink:href="#reed1"/>
  <use x="181" y="379" xlink:href="#reed1"/>
  <use x="200" y="375" xlink:href="#reed1"/>
  <use x="224" y="387" xlink:href="#reed1"/>
  <use x="239" y="416" xlink:href="#reed1"/>
  <use x="337" y="412" xlink:href="#reed1"/>
  <use x="366" y="407" xlink:href="#reed1"/>
  <use x="431" y="407" xlink:href="#reed1"/>
  <use x="454" y="412" xlink:href="#reed1"/>
  <use x="477" y="400" xlink:href="#reed1"/>
  <use x="501" y="413" xlink:href="#reed1"/>
  <use x="4" y="400" xlink:href="#reed1"/>
  <use x="65" y="404" xlink:href="#reed1"/>
  <use x="87" y="415" xlink:href="#reed1"/>
  <use x="149" y="401" xlink:href="#reed1"/>
  <use x="213" y="410" xlink:href="#reed1"/>
  <use x="243" y="437" xlink:href="#reed1"/>
  <use x="276" y="419" xlink:href="#reed1"/>
  <use x="359" y="430" xlink:href="#reed1"/>
  <use x="462" y="436" xlink:href="#reed1"/>
  <use x="31" y="425" xlink:href="#reed1"/>
  <use x="78" y="431" xlink:href="#reed1"/>
  <use x="181" y="421" xlink:href="#reed1"/>
  <use x="265" y="437" xlink:href="#reed1"/>
  <use x="288" y="457" xlink:href="#reed1"/>
  <use x="362" y="452" xlink:href="#reed1"/>
  <use x="420" y="445" xlink:href="#reed1"/>
  <use x="425" y="462" xlink:href="#reed1"/>
  <use x="20" y="453" xlink:href="#reed1"/>
  <use x="38" y="458" xlink:href="#reed1"/>
  <use x="55" y="457" xlink:href="#reed1"/>
  <use x="74" y="451" xlink:href="#reed1"/>
  <use x="97" y="444" xlink:href="#reed1"/>
  <use x="134" y="461" xlink:href="#reed1"/>
  <use x="159" y="447" xlink:href="#reed1"/>
  <use x="175" y="461" xlink:href="#reed1"/>
  <use x="185" y="443" xlink:href="#reed1"/>
  <use x="224" y="456" xlink:href="#reed1"/>
  <use x="241" y="474" xlink:href="#reed1"/>
  <use x="266" y="474" xlink:href="#reed1"/>
  <use x="340" y="476" xlink:href="#reed1"/>
  <use x="361" y="471" xlink:href="#reed1"/>
  <use x="398" y="489" xlink:href="#reed1"/>
  <use x="456" y="479" xlink:href="#reed1"/>
  <use x="497" y="485" xlink:href="#reed1"/>
  <use x="9" y="471" xlink:href="#reed1"/>
  <use x="49" y="483" xlink:href="#reed1"/>
  <use x="80" y="477" xlink:href="#reed1"/>
  <use x="100" y="469" xlink:href="#reed1"/>
  <use x="150" y="477" xlink:href="#reed1"/>
  <use x="213" y="474" xlink:href="#reed1"/>
  <use x="250" y="499" xlink:href="#reed1"/>
  <use x="271" y="500" xlink:href="#reed1"/>
  <use x="291" y="498" xlink:href="#reed1"/>
  <use x="313" y="502" xlink:href="#reed1"/>
  <use x="335" y="501" xlink:href="#reed1"/>
  <use x="358" y="499" xlink:href="#reed1"/>
  <use x="451" y="501" xlink:href="#reed1"/>
  <use x="470" y="500" xlink:href="#reed1"/>
  <use x="5" y="497" xlink:href="#reed1"/>
  <use x="42" y="506" xlink:href="#reed1"/>
  <use x="65" y="499" xlink:href="#reed1"/>
  <use x="126" y="502" xlink:href="#reed1"/>
  <use x="154" y="499" xlink:href="#reed1"/>
  <use x="228" y="494" xlink:href="#reed1"/>
  <use x="248" y="11" xlink:href="#reed1"/>
  <use x="272" y="11" xlink:href="#reed1"/>
  <use x="432" y="6" xlink:href="#reed1"/>
  <use x="484" y="11" xlink:href="#reed1"/>
  <use x="506" y="13" xlink:href="#reed1"/>
  <use x="170" y="9" xlink:href="#reed1"/>
  <use x="188" y="21" xlink:href="#reed1"/>
  <use x="226" y="9" xlink:href="#reed1"/>
  <use x="249" y="34" xlink:href="#reed1"/>
  <use x="265" y="44" xlink:href="#reed1"/>
  <use x="285" y="40" xlink:href="#reed1"/>
  <use x="331" y="36" xlink:href="#reed1"/>
  <use x="353" y="40" xlink:href="#reed1"/>
  <use x="376" y="37" xlink:href="#reed1"/>
  <use x="399" y="36" xlink:href="#reed1"/>
  <use x="423" y="31" xlink:href="#reed1"/>
  <use x="4" y="34" xlink:href="#reed1"/>
  <use x="37" y="40" xlink:href="#reed1"/>
  <use x="86" y="40" xlink:href="#reed1"/>
  <use x="114" y="36" xlink:href="#reed1"/>
  <use x="165" y="33" xlink:href="#reed1"/>
  <use x="201" y="40" xlink:href="#reed1"/>
  <use x="299" y="53" xlink:href="#reed2"/>
  <use x="299" y="53" xlink:href="#reed2"/>
  <use x="338" y="62" xlink:href="#reed2"/>
  <use x="389" y="64" xlink:href="#reed2"/>
  <use x="409" y="55" xlink:href="#reed2"/>
  <use x="457" y="64" xlink:href="#reed2"/>
  <use x="26" y="62" xlink:href="#reed2"/>
  <use x="57" y="56" xlink:href="#reed2"/>
  <use x="105" y="54" xlink:href="#reed2"/>
  <use x="129" y="57" xlink:href="#reed2"/>
  <use x="206" y="59" xlink:href="#reed2"/>
  <use x="273" y="84" xlink:href="#reed2"/>
  <use x="309" y="89" xlink:href="#reed2"/>
  <use x="329" y="87" xlink:href="#reed2"/>
  <use x="353" y="83" xlink:href="#reed2"/>
  <use x="505" y="87" xlink:href="#reed2"/>
  <use x="8" y="74" xlink:href="#reed2"/>
  <use x="33" y="78" xlink:href="#reed2"/>
  <use x="53" y="80" xlink:href="#reed2"/>
  <use x="95" y="80" xlink:href="#reed2"/>
  <use x="182" y="91" xlink:href="#reed2"/>
  <use x="181" y="72" xlink:href="#reed2"/>
  <use x="258" y="102" xlink:href="#reed2"/>
  <use x="306" y="116" xlink:href="#reed2"/>
  <use x="337" y="102" xlink:href="#reed2"/>
  <use x="371" y="117" xlink:href="#reed2"/>
  <use x="445" y="112" xlink:href="#reed2"/>
  <use x="483" y="96" xlink:href="#reed2"/>
  <use x="497" y="114" xlink:href="#reed2"/>
  <use x="12" y="102" xlink:href="#reed2"/>
  <use x="35" y="103" xlink:href="#reed2"/>
  <use x="59" y="112" xlink:href="#reed2"/>
  <use x="124" y="100" xlink:href="#reed2"/>
  <use x="168" y="108" xlink:href="#reed2"/>
  <use x="193" y="112" xlink:href="#reed2"/>
  <use x="239" y="121" xlink:href="#reed2"/>
  <use x="394" y="117" xlink:href="#reed2"/>
  <use x="405" y="135" xlink:href="#reed2"/>
  <use x="475" y="118" xlink:href="#reed2"/>
  <use x="501" y="135" xlink:href="#reed2"/>
  <use x="48" y="124" xlink:href="#reed2"/>
  <use x="111" y="136" xlink:href="#reed2"/>
  <use x="221" y="122" xlink:href="#reed2"/>
  <use x="274" y="144" xlink:href="#reed2"/>
  <use x="294" y="149" xlink:href="#reed2"/>
  <use x="346" y="159" xlink:href="#reed2"/>
  <use x="360" y="147" xlink:href="#reed2"/>
  <use x="380" y="142" xlink:href="#reed2"/>
  <use x="476" y="144" xlink:href="#reed2"/>
  <use x="6" y="150" xlink:href="#reed2"/>
  <use x="95" y="154" xlink:href="#reed2"/>
  <use x="182" y="155" xlink:href="#reed2"/>
  <use x="223" y="158" xlink:href="#reed2"/>
  <use x="242" y="177" xlink:href="#reed2"/>
  <use x="266" y="166" xlink:href="#reed2"/>
  <use x="331" y="172" xlink:href="#reed2"/>
  <use x="363" y="183" xlink:href="#reed2"/>
  <use x="379" y="176" xlink:href="#reed2"/>
  <use x="427" y="173" xlink:href="#reed2"/>
  <use x="460" y="168" xlink:href="#reed2"/>
  <use x="33" y="185" xlink:href="#reed2"/>
  <use x="156" y="172" xlink:href="#reed2"/>
  <use x="176" y="174" xlink:href="#reed2"/>
  <use x="243" y="199" xlink:href="#reed2"/>
  <use x="284" y="197" xlink:href="#reed2"/>
  <use x="341" y="192" xlink:href="#reed2"/>
  <use x="356" y="204" xlink:href="#reed2"/>
  <use x="393" y="202" xlink:href="#reed2"/>
  <use x="416" y="196" xlink:href="#reed2"/>
  <use x="439" y="199" xlink:href="#reed2"/>
  <use x="480" y="202" xlink:href="#reed2"/>
  <use x="504" y="200" xlink:href="#reed2"/>
  <use x="180" y="206" xlink:href="#reed2"/>
  <use x="194" y="194" xlink:href="#reed2"/>
  <use x="241" y="224" xlink:href="#reed2"/>
  <use x="308" y="214" xlink:href="#reed2"/>
  <use x="331" y="221" xlink:href="#reed2"/>
  <use x="378" y="215" xlink:href="#reed2"/>
  <use x="435" y="230" xlink:href="#reed2"/>
  <use x="498" y="223" xlink:href="#reed2"/>
  <use x="52" y="222" xlink:href="#reed2"/>
  <use x="108" y="230" xlink:href="#reed2"/>
  <use x="130" y="219" xlink:href="#reed2"/>
  <use x="148" y="220" xlink:href="#reed2"/>
  <use x="162" y="210" xlink:href="#reed2"/>
  <use x="201" y="218" xlink:href="#reed2"/>
  <use x="217" y="234" xlink:href="#reed2"/>
  <use x="302" y="238" xlink:href="#reed2"/>
  <use x="390" y="234" xlink:href="#reed2"/>
  <use x="400" y="251" xlink:href="#reed2"/>
  <use x="503" y="239" xlink:href="#reed2"/>
  <use x="4" y="255" xlink:href="#reed2"/>
  <use x="76" y="249" xlink:href="#reed2"/>
  <use x="90" y="233" xlink:href="#reed2"/>
  <use x="122" y="244" xlink:href="#reed2"/>
  <use x="152" y="242" xlink:href="#reed2"/>
  <use x="339" y="266" xlink:href="#reed2"/>
  <use x="362" y="277" xlink:href="#reed2"/>
  <use x="378" y="264" xlink:href="#reed2"/>
  <use x="424" y="261" xlink:href="#reed2"/>
  <use x="20" y="277" xlink:href="#reed2"/>
  <use x="39" y="272" xlink:href="#reed2"/>
  <use x="62" y="267" xlink:href="#reed2"/>
  <use x="103" y="277" xlink:href="#reed2"/>
  <use x="140" y="262" xlink:href="#reed2"/>
  <use x="193" y="266" xlink:href="#reed2"/>
  <use x="317" y="291" xlink:href="#reed2"/>
  <use x="380" y="297" xlink:href="#reed2"/>
  <use x="404" y="296" xlink:href="#reed2"/>
  <use x="425" y="284" xlink:href="#reed2"/>
  <use x="449" y="292" xlink:href="#reed2"/>
  <use x="467" y="285" xlink:href="#reed2"/>
  <use x="489" y="292" xlink:href="#reed2"/>
  <use x="60" y="286" xlink:href="#reed2"/>
  <use x="81" y="296" xlink:href="#reed2"/>
  <use x="112" y="294" xlink:href="#reed2"/>
  <use x="142" y="284" xlink:href="#reed2"/>
  <use x="159" y="299" xlink:href="#reed2"/>
  <use x="173" y="280" xlink:href="#reed2"/>
  <use x="226" y="280" xlink:href="#reed2"/>
  <use x="239" y="321" xlink:href="#reed2"/>
  <use x="258" y="316" xlink:href="#reed2"/>
  <use x="310" y="314" xlink:href="#reed2"/>
  <use x="330" y="320" xlink:href="#reed2"/>
  <use x="500" y="317" xlink:href="#reed2"/>
  <use x="34" y="318" xlink:href="#reed2"/>
  <use x="88" y="313" xlink:href="#reed2"/>
  <use x="306" y="335" xlink:href="#reed2"/>
  <use x="366" y="343" xlink:href="#reed2"/>
  <use x="386" y="334" xlink:href="#reed2"/>
  <use x="432" y="329" xlink:href="#reed2"/>
  <use x="445" y="345" xlink:href="#reed2"/>
  <use x="14" y="338" xlink:href="#reed2"/>
  <use x="78" y="336" xlink:href="#reed2"/>
  <use x="119" y="345" xlink:href="#reed2"/>
  <use x="147" y="338" xlink:href="#reed2"/>
  <use x="217" y="326" xlink:href="#reed2"/>
  <use x="264" y="371" xlink:href="#reed2"/>
  <use x="296" y="351" xlink:href="#reed2"/>
  <use x="361" y="367" xlink:href="#reed2"/>
  <use x="458" y="366" xlink:href="#reed2"/>
  <use x="475" y="355" xlink:href="#reed2"/>
  <use x="504" y="357" xlink:href="#reed2"/>
  <use x="38" y="371" xlink:href="#reed2"/>
  <use x="119" y="369" xlink:href="#reed2"/>
  <use x="200" y="356" xlink:href="#reed2"/>
  <use x="245" y="384" xlink:href="#reed2"/>
  <use x="353" y="389" xlink:href="#reed2"/>
  <use x="399" y="380" xlink:href="#reed2"/>
  <use x="477" y="379" xlink:href="#reed2"/>
  <use x="497" y="380" xlink:href="#reed2"/>
  <use x="44" y="394" xlink:href="#reed2"/>
  <use x="82" y="387" xlink:href="#reed2"/>
  <use x="101" y="383" xlink:href="#reed2"/>
  <use x="127" y="388" xlink:href="#reed2"/>
  <use x="255" y="403" xlink:href="#reed2"/>
  <use x="296" y="400" xlink:href="#reed2"/>
  <use x="316" y="412" xlink:href="#reed2"/>
  <use x="392" y="407" xlink:href="#reed2"/>
  <use x="412" y="408" xlink:href="#reed2"/>
  <use x="25" y="403" xlink:href="#reed2"/>
  <use x="107" y="408" xlink:href="#reed2"/>
  <use x="128" y="414" xlink:href="#reed2"/>
  <use x="171" y="407" xlink:href="#reed2"/>
  <use x="196" y="399" xlink:href="#reed2"/>
  <use x="289" y="433" xlink:href="#reed2"/>
  <use x="309" y="435" xlink:href="#reed2"/>
  <use x="342" y="438" xlink:href="#reed2"/>
  <use x="382" y="428" xlink:href="#reed2"/>
  <use x="405" y="434" xlink:href="#reed2"/>
  <use x="440" y="429" xlink:href="#reed2"/>
  <use x="478" y="424" xlink:href="#reed2"/>
  <use x="504" y="437" xlink:href="#reed2"/>
  <use x="13" y="430" xlink:href="#reed2"/>
  <use x="53" y="425" xlink:href="#reed2"/>
  <use x="115" y="439" xlink:href="#reed2"/>
  <use x="134" y="438" xlink:href="#reed2"/>
  <use x="150" y="425" xlink:href="#reed2"/>
  <use x="201" y="439" xlink:href="#reed2"/>
  <use x="220" y="430" xlink:href="#reed2"/>
  <use x="254" y="457" xlink:href="#reed2"/>
  <use x="323" y="462" xlink:href="#reed2"/>
  <use x="323" y="445" xlink:href="#reed2"/>
  <use x="387" y="452" xlink:href="#reed2"/>
  <use x="451" y="457" xlink:href="#reed2"/>
  <use x="482" y="445" xlink:href="#reed2"/>
  <use x="501" y="461" xlink:href="#reed2"/>
  <use x="292" y="478" xlink:href="#reed2"/>
  <use x="313" y="479" xlink:href="#reed2"/>
  <use x="391" y="469" xlink:href="#reed2"/>
  <use x="419" y="479" xlink:href="#reed2"/>
  <use x="477" y="472" xlink:href="#reed2"/>
  <use x="27" y="489" xlink:href="#reed2"/>
  <use x="123" y="478" xlink:href="#reed2"/>
  <use x="173" y="486" xlink:href="#reed2"/>
  <use x="192" y="474" xlink:href="#reed2"/>
  <use x="376" y="492" xlink:href="#reed2"/>
  <use x="399" y="507" xlink:href="#reed2"/>
  <use x="432" y="493" xlink:href="#reed2"/>
  <use x="494" y="505" xlink:href="#reed2"/>
  <use x="87" y="500" xlink:href="#reed2"/>
  <use x="106" y="496" xlink:href="#reed2"/>
  <use x="186" y="506" xlink:href="#reed2"/>
  <use x="208" y="502" xlink:href="#reed2"/>
  <use x="289" y="21" xlink:href="#reed2"/>
  <use x="310" y="9" xlink:href="#reed2"/>
  <use x="342" y="20" xlink:href="#reed2"/>
  <use x="356" y="9" xlink:href="#reed2"/>
  <use x="378" y="15" xlink:href="#reed2"/>
  <use x="411" y="13" xlink:href="#reed2"/>
  <use x="452" y="19" xlink:href="#reed2"/>
  <use x="18" y="7" xlink:href="#reed2"/>
  <use x="37" y="17" xlink:href="#reed2"/>
  <use x="60" y="8" xlink:href="#reed2"/>
  <use x="81" y="18" xlink:href="#reed2"/>
  <use x="101" y="10" xlink:href="#reed2"/>
  <use x="124" y="12" xlink:href="#reed2"/>
  <use x="147" y="7" xlink:href="#reed2"/>
  <use x="313" y="31" xlink:href="#reed2"/>
  <use x="451" y="41" xlink:href="#reed2"/>
  <use x="473" y="30" xlink:href="#reed2"/>
  <use x="493" y="38" xlink:href="#reed2"/>
  <use x="64" y="33" xlink:href="#reed2"/>
  <use x="138" y="28" xlink:href="#reed2"/>
  <use x="150" y="47" xlink:href="#reed2"/>
  <use x="150" y="47" xlink:href="#reed2"/>
  <use x="214" y="22" xlink:href="#reed2"/>
  <path stroke="#4aa5fa" stroke-width=".8" d="
M355,47.5 h7 m-119,0 h7 m25,0 h7 m39,0 h7 m-286,0 h7 m50,0 h2 m398,0 h7 m-487,0 h7 m39,0 h7
M369,48.5 h7 m78,0 h7 m-348,0 h7 m78,0 h7
M421,49.5 h5 m-261,0 h5 m46,0 h7
M256,50.5 h7 m5,0 h7 m72,0 h7 m-354,0 h6 m11,0 h2 m72,0 h7
M313,51.5 h7 m70,0 h7 m5,0 h3 m42,0 h7 m-415,0 h7 m16,0 h2 m70,0 h7 m50,0 h7
M240,52.5 h7 m33,0 h7 m41,0 h7 m45,0 h7 m77,0 h6 m12,0 h4 m10,0 h7 m-479,0 h7 m41,0 h7 m132,0 h4 m8,0 h7
M415,53.5 h3 m-76,0 h4 m-191,0 h7 m-75,0 h3
M248,54.5 h7 m115,0 h7 m127,0 h7 m-397,0 h7
M288,55.5 h6 m64,0 h7 m74,0 h7 m-414,0 h7 m144,0 h7
M326,56.5 h7 m153,0 h7 m-181,0 h7 m101,0 h7 m35,0 h3 m-395,0 h7 m153,0 h7 m-194,0 h7 m114,0 h7
M259,57.5 h6 m80,0 h7 m-340,0 h7 m-16,0 h7 m79,0 h7 m39,0 h3
M374,58.5 h7 m20,0 h3 m42,0 h7 m28,0 h2 m-365,0 h6 m21,0 h7 m38,0 h7 m23,0 h7
M248,59.5 h7 m25,0 h7 m217,0 h7
M236,60.5 h7 m62,0 h7 m8,0 h7 m88,0 h2 m75,0 h7 m-450,0 h3 m12,0 h7 m83,0 h7
M290,61.5 h7 m59,0 h3 m9,0 h6 m20,0 h5 m38,0 h7 m25,0 h7 m-442,0 h7 m59,0 h7 m4,0 h7 m18,0 h6 m39,0 h7 m25,0 h7
M423,62.5 h7 m-416,0 h7 m146,0 h7 m25,0 h2
M258,63.5 h5 m-261,0 h7
M325,64.5 h7 m16,0 h7 m24,0 h5 m31,0 h7 m-353,0 h7 m16,0 h7 m24,0 h7 m29,0 h7
M482,65.5 h6 m-251,0 h6 m9,0 h2 m22,0 h7 m10,0 h7 m17,0 h3 m75,0 h2 m5,0 h7 m21,0 h7 m10,0 h5 m11,0 h6 m28,0 h3 m3,0 h7 m-473,0 h7 m13,0 h7 m70,0 h7 m10,0 h2 m21,0 h3 m14,0 h7 m8,0 h7
M104,66.5 h7
M305,67.5 h3 m-259,0 h7
M371,68.5 h7 m-365,0 h3
M283,69.5 h7 m39,0 h7 m8,0 h7 m54,0 h7 m9,0 h2 m14,0 h7 m25,0 h7 m-449,0 h7 m39,0 h7 m8,0 h7 m57,0 h4 m9,0 h7 m14,0 h2 m25,0 h7
M256,70.5 h7 m33,0 h7 m78,0 h7 m65,0 h7 m25,0 h2 m-487,0 h4 m36,0 h7 m78,0 h7 m65,0 h7
M353,71.5 h5 m33,0 h7 m104,0 h7 m-410,0 h5 m31,0 h6
M321,72.5 h7 m116,0 h7 m25,0 h7 m-418,0 h7 m116,0 h7 m25,0 h6
M266,73.5 h7 m13,0 h7 m121,0 h7 m-406,0 h2 m141,0 h7
M237,74.5 h5 m129,0 h7 m120,0 h2 m-289,0 h3
M277,75.5 h4 m55,0 h7 m17,0 h7 m66,0 h6 m-421,0 h7 m55,0 h7 m17,0 h7
M314,76.5 h7 m25,0 h3 m134,0 h7 m-432,0 h7 m101,0 h7
M257,77.5 h7 m33,0 h7 m23,0 h7 m58,0 h7 m55,0 h7 m-460,0 h2 m38,0 h7 m28,0 h2 m58,0 h7 m55,0 h5
M242,78.5 h7 m128,0 h7 m27,0 h5 m26,0 h7 m25,0 h5 m19,0 h7 m-381,0 h4 m25,0 h7 m26,0 h7 m23,0 h7
M278,79.5 h3 m25,0 h7 m-295,0 h7
M358,80.5 h4 m4,0 h7 m-272,0 h5 m4,0 h3
M249,81.5 h7 m7,0 h5 m122,0 h3 m24,0 h7 m9,0 h7 m44,0 h7 m19,0 h2 m-505,0 h7 m116,0 h7 m24,0 h7 m9,0 h7 m44,0 h7
M334,82.5 h3 m8,0 h2 m-308,0 h3 m35,0 h4 m64,0 h4 m44,0 h7 m13,0 h2
M318,83.5 h7 m-263,0 h4
M241,84.5 h7 m128,0 h6 m115,0 h3 m-483,0 h7 m96,0 h7
M259,85.5 h7 m72,0 h7 m16,0 h7 m25,0 h6 m26,0 h7 m8,0 h6 m28,0 h5 m-476,0 h7 m72,0 h7 m16,0 h7 m25,0 h7 m25,0 h7 m11,0 h4 m25,0 h7
M484,86.5 h7 m-80,0 h7 m38,0 h4 m-232,0 h5 m-73,0 h2 m35,0 h5
M297,87.5 h3 m-263,0 h7
M249,88.5 h7 m27,0 h3 m84,0 h7 m-350,0 h7 m39,0 h7 m12,0 h7 m15,0 h7
M241,89.5 h2 m73,0 h7 m79,0 h7 m20,0 h7 m38,0 h5 m13,0 h7 m-482,0 h7 m26,0 h7 m3,0 h7 m63,0 h7 m9,0 h2 m25,0 h3 m42,0 h7
M359,90.5 h5 m79,0 h2 m15,0 h7 m-364,0 h7 m79,0 h5 m10,0 h7
M256,91.5 h7 m155,0 h7 m-425,0 h7 m155,0 h7
M243,92.5 h7 m18,0 h7 m24,0 h5 m34,0 h7 m33,0 h3 m-369,0 h7 m24,0 h7 m17,0 h7 m8,0 h7
M285,93.5 h7 m100,0 h7 m9,0 h7 m41,0 h3 m10,0 h7 m-447,0 h7 m100,0 h7 m53,0 h7
M489,94.5 h5 m-56,0 h7 m-339,0 h7
M347,95.5 h7 m-263,0 h6 m73,0 h7
M294,96.5 h7 m29,0 h3 m41,0 h7 m17,0 h7 m-365,0 h5 m29,0 h7 m37,0 h2 m22,0 h7
M270,97.5 h7 m39,0 h7 m92,0 h7 m25,0 h7 m56,0 h2 m-512,0 h5 m12,0 h4 m39,0 h7 m92,0 h7 m25,0 h7 m24,0 h6
M242,98.5 h6 m58,0 h7 m38,0 h7 m139,0 h7 m-454,0 h7 m38,0 h2
M282,99.5 h3 m57,0 h3 m121,0 h7 m-447,0 h5 m51,0 h7
M381,100.5 h7 m5,0 h7 m7,0 h7 m42,0 h7 m-354,0 h7 m14,0 h2 m5,0 h7 m7,0 h7 m15,0 h2 m25,0 h7
M294,101.5 h6 m25,0 h6 m109,0 h7 m-215,0 h7 m-198,0 h3 m25,0 h3 m112,0 h7 m298,0 h6
M250,102.5 h3 m11,0 h7 m204,0 h7 m-206,0 h7 m223,0 h6 m-512,0 h1 m221,0 h4 m-206,0 h7
M308,103.5 h7 m38,0 h7 m13,0 h5 m-326,0 h7 m56,0 h4
M400,104.5 h7 m10,0 h6 m13,0 h3 m-291,0 h3 m9,0 h4 m12,0 h7
M343,105.5 h2 m-104,0 h7 m73,0 h7 m55,0 h7 m73,0 h7 m-388,0 h7 m412,0 h3 m7,0 h1 m-512,0 h6 m59,0 h7 m58,0 h4 m73,0 h4
M484,106.5 h7 m-192,0 h7 m145,0 h7 m-230,0 h7 m-192,0 h7 m148,0 h4
M471,107.5 h7 m-263,0 h7
M267,108.5 h7 m38,0 h7 m9,0 h7 m17,0 h7 m3,0 h7 m23,0 h3 m29,0 h7 m8,0 h2 m-430,0 h7 m78,0 h7 m3,0 h7 m23,0 h2 m14,0 h7 m24,0 h6
M278,109.5 h6 m-262,0 h7
M246,110.5 h7 m89,0 h7 m27,0 h4 m76,0 h7 m-168,0 h2 m205,0 h7 m-423,0 h7 m24,0 h7 m76,0 h7 m-173,0 h7
M482,111.5 h7 m-231,0 h7 m-39,0 h7 m-231,0 h7
M299,112.5 h3 m10,0 h7 m13,0 h7 m62,0 h6 m11,0 h5 m-380,0 h7 m99,0 h3 m8,0 h3
M270,113.5 h7 m103,0 h7 m-373,0 h7 m103,0 h7 m83,0 h7
M283,114.5 h7 m60,0 h7 m5,0 h4 m61,0 h7 m-407,0 h7 m60,0 h7 m5,0 h7 m23,0 h2 m33,0 h7
M438,115.5 h2 m16,0 h7 m-281,0 h6 m12,0 h7
M250,116.5 h7 m59,0 h7 m162,0 h7 m14,0 h6 m-512,0 h1 m64,0 h2 m162,0 h6
M261,117.5 h7 m61,0 h7 m7,0 h6 m64,0 h7 m-415,0 h2 m66,0 h7 m7,0 h3 m25,0 h7 m35,0 h7
M385,118.5 h4 m11,0 h7 m-278,0 h7 m77,0 h4 m-73,0 h7
M428,119.5 h7 m-190,0 h3 m42,0 h7 m148,0 h7 m8,0 h7 m-295,0 h7 m-162,0 h7 m10,0 h7 m148,0 h7 m8,0 h7
M481,120.5 h4 m-258,0 h2
M312,121.5 h6 m41,0 h3 m-307,0 h7 m16,0 h7 m15,0 h6 m3,0 h7
M249,122.5 h7 m10,0 h4 m52,0 h7 m48,0 h6 m26,0 h7 m22,0 h7 m60,0 h7 m-446,0 h7 m47,0 h7 m9,0 h7 m39,0 h7
M282,123.5 h4 m14,0 h7 m38,0 h2 m73,0 h7 m59,0 h7 m-470,0 h7 m134,0 h7 m59,0 h4
M290,124.5 h7 m-263,0 h7
M258,125.5 h7 m182,0 h6 m9,0 h5 m-465,0 h4 m185,0 h7
M245,126.5 h4 m136,0 h7 m-84,0 h2 m91,0 h5 m67,0 h7 m19,0 h3 m-422,0 h7 m-33,0 h5 m86,0 h7
M437,127.5 h3 m-340,0 h3 m74,0 h7
M234,128.5 h7 m41,0 h6 m33,0 h7 m35,0 h7 m6,0 h7 m38,0 h7 m62,0 h7 m-472,0 h3 m37,0 h7 m48,0 h5 m40,0 h6
M266,129.5 h7 m23,0 h7 m203,0 h6 m-472,0 h3 m154,0 h3
M391,130.5 h7 m12,0 h5 m62,0 h7 m-347,0 h5 m79,0 h7
M307,131.5 h3 m33,0 h7 m113,0 h7 m-419,0 h7 m16,0 h7 m6,0 h7 m117,0 h3
M260,132.5 h5 m10,0 h7 m89,0 h7 m68,0 h6 m-450,0 h7 m10,0 h7 m90,0 h6 m68,0 h7
M483,133.5 h7 m-200,0 h7 m57,0 h7 m35,0 h3 m-172,0 h7 m-196,0 h3 m57,0 h7 m35,0 h7
M322,134.5 h7 m92,0 h6 m-190,0 h7 m-178,0 h4 m95,0 h5 m323,0 h2
M438,135.5 h5 m-81,0 h7 m42,0 h3 m-232,0 h5 m-130,0 h7 m87,0 h7
M266,136.5 h5 m27,0 h7 m40,0 h7 m114,0 h7 m35,0 h4 m-512,0 h3 m7,0 h7 m25,0 h7 m40,0 h7 m24,0 h7 m84,0 h6
M329,137.5 h7 m109,0 h7 m-263,0 h7
M241,138.5 h7 m40,0 h7 m97,0 h7 m57,0 h7 m18,0 h6 m-351,0 h7 m57,0 h7 m17,0 h7
M338,139.5 h7 m40,0 h5 m26,0 h7 m-406,0 h7 m58,0 h7 m38,0 h7 m26,0 h7
M304,140.5 h7 m8,0 h7 m27,0 h3 m13,0 h5 m60,0 h7 m-393,0 h7 m8,0 h6 m28,0 h7 m13,0 h3 m26,0 h7 m28,0 h4 m32,0 h7
M260,141.5 h7 m-263,0 h3
M281,142.5 h7 m136,0 h7 m-197,0 h7 m7,0 h7 m-230,0 h7 m136,0 h7 m315,0 h7 m7,0 h7
M444,143.5 h7 m-152,0 h2 m164,0 h5 m-282,0 h7 m-157,0 h7 m164,0 h7
M311,144.5 h3 m14,0 h7 m7,0 h7 m63,0 h7 m-364,0 h7 m24,0 h7 m31,0 h7 m25,0 h7
M400,145.5 h7 m50,0 h7 m-447,0 h7
M263,146.5 h6 m99,0 h7 m60,0 h7 m-431,0 h3 m86,0 h4 m8,0 h7 m60,0 h4
M303,147.5 h7 m12,0 h6 m62,0 h3 m92,0 h7 m9,0 h7 m-461,0 h7 m13,0 h5 m63,0 h6 m25,0 h7 m43,0 h7 m6,0 h7
M337,148.5 h7 m-263,0 h7
M280,149.5 h4 m93,0 h7 m70,0 h7 m-440,0 h6 m77,0 h7 m10,0 h6
M253,150.5 h7 m150,0 h7 m92,0 h3 m-512,0 h1 m36,0 h5 m112,0 h7
M236,151.5 h7 m159,0 h2 m26,0 h5 m31,0 h7 m5,0 h7 m-295,0 h7 m296,0 h6 m-327,0 h6 m32,0 h7
M303,152.5 h7 m14,0 h6 m-283,0 h7 m18,0 h2
M263,153.5 h7 m66,0 h6 m9,0 h7 m25,0 h7 m49,0 h2 m-429,0 h2 m66,0 h7 m101,0 h2
M273,154.5 h7 m84,0 h7 m45,0 h2 m83,0 h7 m-491,0 h7 m84,0 h7 m45,0 h7
M283,155.5 h7 m4,0 h7 m158,0 h7 m-428,0 h7 m10,0 h6 m147,0 h2
M234,156.5 h7 m13,0 h7 m217,0 h7 m10,0 h2 m13,0 h2 m-512,0 h5
M323,157.5 h5 m24,0 h3 m14,0 h7 m11,0 h5 m11,0 h4 m22,0 h5 m-321,0 h7 m51,0 h6 m14,0 h7
M411,158.5 h7 m-85,0 h7 m-185,0 h7 m-85,0 h7
M468,159.5 h7 m-263,0 h6
M301,160.5 h7 m-31,0 h7 m76,0 h7 m12,0 h7 m50,0 h7 m58,0 h7 m-501,0 h7 m7,0 h7 m76,0 h4 m15,0 h3
M232,161.5 h7 m74,0 h7 m71,0 h7 m22,0 h7 m24,0 h5 m-399,0 h5 m73,0 h7 m22,0 h7 m24,0 h7
M337,162.5 h4 m66,0 h7 m-333,0 h7 m63,0 h7
M253,163.5 h7 m25,0 h7 m60,0 h7 m11,0 h7 m132,0 h3 m-512,0 h4 m25,0 h7 m60,0 h7 m15,0 h3
M294,164.5 h7 m20,0 h7 m150,0 h6 m-446,0 h4 m23,0 h7 m130,0 h7 m13,0 h7
M242,165.5 h7 m25,0 h7 m25,0 h7 m30,0 h7 m46,0 h7 m36,0 h7 m21,0 h7 m24,0 h7 m-487,0 h7 m29,0 h3 m31,0 h6 m46,0 h7 m23,0 h7 m6,0 h7 m21,0 h7
M378,166.5 h7 m-263,0 h7 m-55,0 h5
M362,167.5 h7 m81,0 h4 m-448,0 h2 m186,0 h4
M250,168.5 h7 m28,0 h4 m119,0 h7 m91,0 h6 m-512,0 h1 m25,0 h7
M234,169.5 h5 m151,0 h7 m22,0 h4 m11,0 h7 m49,0 h6 m-362,0 h7 m22,0 h7 m11,0 h4
M297,170.5 h7 m7,0 h7 m36,0 h7 m117,0 h7 m-444,0 h2 m12,0 h7 m36,0 h7 m117,0 h7
M322,171.5 h3 m16,0 h7 m24,0 h3 m91,0 h7 m-407,0 h7 m17,0 h2 m26,0 h5 m87,0 h7
M385,172.5 h7 m14,0 h3 m42,0 h4 m-325,0 h6 m10,0 h5
M247,173.5 h2 m41,0 h3 m-263,0 h7 m38,0 h3
M272,174.5 h7 m88,0 h5 m66,0 h7 m-191,0 h7 m-243,0 h5 m24,0 h7 m55,0 h7 m66,0 h7 m321,0 h2 m-512,0 h5
M481,175.5 h3 m-250,0 h2 m176,0 h7 m40,0 h7 m-298,0 h3 m50,0 h7 m262,0 h5 m-287,0 h2
M338,176.5 h7 m9,0 h5 m86,0 h7 m-354,0 h7 m84,0 h7
M262,177.5 h7 m25,0 h7 m10,0 h4 m8,0 h3 m44,0 h4 m11,0 h6 m-385,0 h7 m25,0 h7 m7,0 h7 m8,0 h7 m40,0 h7 m11,0 h3 m8,0 h7
M433,178.5 h5 m-414,0 h5
M248,179.5 h2 m99,0 h7 m113,0 h2 m-378,0 h7 m113,0 h4
M254,180.5 h7 m148,0 h7 m68,0 h7 m19,0 h2 m-512,0 h5 m148,0 h7 m68,0 h7
M316,181.5 h7 m8,0 h7 m56,0 h2 m48,0 h7 m8,0 h7 m-402,0 h3 m8,0 h7 m56,0 h7 m43,0 h7 m8,0 h7
M275,182.5 h5 m11,0 h7 m78,0 h7 m45,0 h7 m-416,0 h7 m12,0 h4 m130,0 h7 m-73,0 h7
M348,183.5 h7 m62,0 h7 m-332,0 h7 m62,0 h7
M246,184.5 h7 m10,0 h7 m41,0 h3 m73,0 h7 m89,0 h7 m12,0 h7 m-502,0 h6 m38,0 h4 m77,0 h6 m89,0 h7
M295,185.5 h5 m22,0 h7 m76,0 h7 m23,0 h7 m25,0 h4 m-432,0 h7 m20,0 h7 m11,0 h5 m60,0 h7 m23,0 h7 m25,0 h5
M104,186.5 h7 m88,0 h7
M271,187.5 h7
M487,188.5 h7 m-251,0 h7 m12,0 h3 m113,0 h7 m7,0 h7 m45,0 h7 m23,0 h7 m-250,0 h7 m261,0 h7 m-504,0 h7 m113,0 h7 m7,0 h4 m48,0 h2
M278,189.5 h3 m65,0 h7 m68,0 h2 m-401,0 h6 m62,0 h7 m63,0 h7
M293,190.5 h7 m27,0 h7 m69,0 h7 m-104,0 h7 m57,0 h7 m-338,0 h5 m27,0 h5 m75,0 h3 m-104,0 h4 m60,0 h7
M359,191.5 h7 m-186,0 h7 m-84,0 h7 m89,0 h6
M422,192.5 h7 m41,0 h7 m-390,0 h2 m-63,0 h7 m133,0 h7 m41,0 h7
M487,193.5 h7 m-246,0 h5 m-22,0 h7
M255,194.5 h3 m13,0 h7 m104,0 h7 m9,0 h5 m108,0 h1 m-512,0 h6 m120,0 h7 m21,0 h7
M300,195.5 h7 m23,0 h6 m12,0 h7 m89,0 h7 m12,0 h3 m-422,0 h7 m9,0 h7 m25,0 h3 m108,0 h7
M291,196.5 h2 m68,0 h7 m5,0 h7 m49,0 h5 m-404,0 h7 m68,0 h7 m10,0 h2 m49,0 h7 m41,0 h7
M268,197.5 h2 m226,0 h3 m-492,0 h4
M309,198.5 h4 m26,0 h7 m76,0 h4 m-373,0 h7 m26,0 h4 m46,0 h7 m20,0 h7
M451,199.5 h7 m-165,0 h7 m105,0 h6 m57,0 h7 m-275,0 h2 m-165,0 h4 m108,0 h7 m29,0 h3 m24,0 h4
M486,200.5 h3 m-106,0 h4 m-161,0 h7 m-106,0 h7
M271,201.5 h7 m50,0 h7 m-334,0 h7 m7,0 h7 m50,0 h7
M314,202.5 h7 m22,0 h7 m112,0 h7 m26,0 h4 m-441,0 h7 m22,0 h6 m113,0 h7
M280,203.5 h7 m76,0 h3 m9,0 h7 m17,0 h7 m8,0 h7 m9,0 h4 m-410,0 h7 m74,0 h5 m13,0 h3 m17,0 h7
M249,204.5 h7 m37,0 h7 m5,0 h7 m136,0 h7 m55,0 h2 m-475,0 h2 m13,0 h4 m136,0 h7
M265,205.5 h7 m49,0 h7 m145,0 h2 m12,0 h7 m-483,0 h5 m49,0 h7 m59,0 h7 m93,0 h7
M336,206.5 h7 m25,0 h7 m64,0 h7 m-366,0 h7 m25,0 h7 m67,0 h4
M242,207.5 h7 m160,0 h6 m7,0 h7 m26,0 h7 m36,0 h7 m-352,0 h4 m10,0 h6 m26,0 h7
M289,208.5 h5 m-263,0 h7
M255,209.5 h7 m13,0 h5 m34,0 h7 m8,0 h7 m9,0 h6 m11,0 h2 m31,0 h7 m63,0 h7 m9,0 h7 m23,0 h1 m-512,0 h6 m13,0 h7 m32,0 h7 m8,0 h7 m9,0 h7 m5,0 h7 m31,0 h7 m63,0 h6 m11,0 h6
M121,210.5 h7
M431,211.5 h7 m-390,0 h7
M232,212.5 h7 m24,0 h7 m24,0 h7 m65,0 h7 m15,0 h7 m8,0 h7 m13,0 h2 m16,0 h7 m40,0 h7 m-457,0 h7 m65,0 h7 m18,0 h4 m46,0 h7
M245,213.5 h7 m69,0 h7 m125,0 h7 m14,0 h3 m24,0 h7 m-443,0 h6 m143,0 h7
M336,214.5 h4 m15,0 h7 m-334,0 h7 m45,0 h4 m15,0 h7
M272,215.5 h7 m65,0 h7 m-334,0 h6 m65,0 h7 m27,0 h4
M255,216.5 h7 m162,0 h4 m52,0 h7 m24,0 h1 m-512,0 h6 m159,0 h7 m52,0 h7
M246,217.5 h2 m53,0 h2 m96,0 h7 m26,0 h7 m21,0 h7 m-422,0 h3 m128,0 h7 m25,0 h3
M322,218.5 h4 m44,0 h3 m-307,0 h3 m45,0 h7 m73,0 h2
M264,219.5 h7 m43,0 h3 m71,0 h7 m-373,0 h2 m3,0 h2 m28,0 h4 m39,0 h7 m29,0 h3 m21,0 h7 m49,0 h7
M233,220.5 h4 m57,0 h7 m39,0 h7 m58,0 h7 m28,0 h7 m42,0 h4 m-455,0 h7 m39,0 h7 m63,0 h2 m28,0 h7
M251,221.5 h7 m249,0 h5 m-512,0 h2
M380,222.5 h7 m76,0 h6 m-183,0 h7 m56,0 h4 m-146,0 h7 m-182,0 h5 m56,0 h7
M318,223.5 h7 m40,0 h7 m-102,0 h7 m203,0 h7 m-425,0 h7 m44,0 h3 m-102,0 h7 m203,0 h7
M399,224.5 h7 m12,0 h7 m-263,0 h7 m13,0 h2 m9,0 h7
M248,225.5 h7 m52,0 h7 m190,0 h7
M232,226.5 h4 m57,0 h7 m71,0 h7 m33,0 h7 m70,0 h5 m-486,0 h7 m23,0 h7 m26,0 h7 m38,0 h7 m10,0 h7 m16,0 h7
M279,227.5 h7 m54,0 h7 m78,0 h5 m29,0 h4 m-379,0 h2 m83,0 h5 m26,0 h7
M441,228.5 h6 m-263,0 h7
M301,229.5 h2 m3,0 h2 m-263,0 h7
M241,230.5 h7 m69,0 h7 m25,0 h7 m24,0 h6 m17,0 h7 m87,0 h7 m-503,0 h7 m53,0 h7 m27,0 h5 m24,0 h7 m16,0 h7
M465,231.5 h7 m-263,0 h3
M487,232.5 h7 m-212,0 h3 m41,0 h7 m37,0 h7 m19,0 h5 m25,0 h4 m24,0 h7 m13,0 h7 m-250,0 h7 m-168,0 h7 m37,0 h7 m17,0 h7 m25,0 h3 m25,0 h7 m18,0 h2
M269,233.5 h2 m23,0 h4 m12,0 h7 m25,0 h7 m62,0 h7 m24,0 h7 m-441,0 h7 m23,0 h7 m9,0 h7 m95,0 h6 m24,0 h7
M249,234.5 h7 m252,0 h4
M382,235.5 h3 m-259,0 h7
M286,236.5 h7 m15,0 h2 m24,0 h3 m13,0 h7 m7,0 h7 m61,0 h7 m40,0 h7 m-456,0 h7 m10,0 h7 m24,0 h7 m11,0 h5 m7,0 h7 m108,0 h7
M239,237.5 h7 m25,0 h3 m127,0 h7 m40,0 h7 m9,0 h7 m24,0 h2 m-482,0 h7 m123,0 h3 m13,0 h7 m28,0 h3 m9,0 h4
M260,238.5 h7 m56,0 h7 m-326,0 h7 m56,0 h7
M374,239.5 h7 m-134,0 h7 m57,0 h7 m37,0 h4 m-303,0 h6 m37,0 h7 m27,0 h7
M233,240.5 h6 m55,0 h3 m111,0 h6 m26,0 h7 m41,0 h7 m-474,0 h7 m10,0 h7 m139,0 h3
M425,241.5 h6 m26,0 h6 m-382,0 h5 m82,0 h7 m25,0 h7 m9,0 h7
M368,242.5 h4 m-263,0 h7
M259,243.5 h7 m20,0 h7 m15,0 h3 m67,0 h7 m98,0 h5 m-485,0 h7 m20,0 h7 m104,0 h6
M247,244.5 h4 m-190,0 h7 m17,0 h7 m70,0 h7 m28,0 h4
M388,245.5 h7 m38,0 h7 m26,0 h5 m-368,0 h7 m22,0 h7 m38,0 h7 m26,0 h7
M264,246.5 h7 m24,0 h7 m25,0 h7 m14,0 h7 m-347,0 h7 m24,0 h7 m46,0 h7
M277,247.5 h7 m125,0 h4 m-392,0 h4 m133,0 h2
M235,248.5 h7 m136,0 h7 m59,0 h3 m36,0 h4 m4,0 h7
M305,249.5 h7 m14,0 h2 m98,0 h7 m25,0 h7 m44,0 h3 m-447,0 h6 m68,0 h7 m24,0 h7 m25,0 h7
M287,250.5 h7 m75,0 h6 m-339,0 h2 m74,0 h7
M241,251.5 h7 m27,0 h7 m54,0 h7 m7,0 h7 m78,0 h7 m55,0 h7 m-485,0 h4 m59,0 h5 m7,0 h7 m78,0 h7
M261,252.5 h7 m138,0 h3 m7,0 h7 m43,0 h7 m-464,0 h3 m46,0 h7 m81,0 h7 m40,0 h7 m10,0 h7
M357,253.5 h7 m20,0 h7 m87,0 h7 m-384,0 h7 m20,0 h7 m87,0 h2
M293,254.5 h7 m28,0 h7 m171,0 h4 m-473,0 h7
M429,255.5 h2 m-261,0 h5
M237,256.5 h7 m26,0 h7 m27,0 h7 m56,0 h7 m19,0 h2 m13,0 h7 m78,0 h7 m-486,0 h7 m27,0 h7 m56,0 h5 m36,0 h7
M285,257.5 h2 m34,0 h7 m8,0 h4 m13,0 h7 m23,0 h2 m54,0 h7 m7,0 h7 m-395,0 h7 m8,0 h4 m13,0 h7 m21,0 h4 m54,0 h7 m7,0 h7
M258,258.5 h7 m204,0 h7 m-259,0 h3 m6,0 h7
M297,260.5 h7 m42,0 h7 m46,0 h7 m9,0 h3 m13,0 h5 m25,0 h7 m-427,0 h7 m44,0 h5 m49,0 h4 m23,0 h7 m25,0 h3
M235,261.5 h7 m5,0 h7 m24,0 h5 m79,0 h7 m123,0 h6 m5,0 h7 m-490,0 h7 m79,0 h7
M306,262.5 h6 m6,0 h7 m65,0 h7 m42,0 h7 m-62,0 h2 m-336,0 h7 m10,0 h2 m114,0 h6 m-62,0 h3
M263,263.5 h6 m58,0 h7 m-302,0 h7 m-32,0 h7 m57,0 h7 m120,0 h4
M369,264.5 h4 m95,0 h7 m-248,0 h7 m-121,0 h2
M254,265.5 h4 m92,0 h7 m43,0 h7 m24,0 h7 m69,0 h5 m-512,0 h2 m14,0 h7 m71,0 h7 m45,0 h5 m24,0 h7
M417,266.5 h2 m-258,0 h7
M297,267.5 h7 m141,0 h4 m26,0 h7 m-438,0 h4 m171,0 h7
M241,268.5 h4 m39,0 h2 m75,0 h2 m3,0 h2 m41,0 h7 m45,0 h6 m30,0 h6 m-475,0 h7 m72,0 h5 m41,0 h7 m44,0 h3
M262,269.5 h6 m56,0 h7 m53,0 h3 m37,0 h7 m-425,0 h7 m55,0 h7 m51,0 h5 m6,0 h7 m24,0 h7
M370,270.5 h7 m-325,0 h5 m173,0 h7 m-123,0 h7
M279,271.5 h5 m70,0 h4 m81,0 h7 m-421,0 h3 m155,0 h5 m11,0 h6
M332,272.5 h7 m135,0 h7 m-405,0 h7 m135,0 h5
M301,273.5 h7 m81,0 h3 m-347,0 h7 m81,0 h7
M238,274.5 h6 m45,0 h7 m50,0 h7 m50,0 h4 m4,0 h7 m11,0 h7 m26,0 h7 m25,0 h7 m-411,0 h7 m47,0 h7 m4,0 h7 m16,0 h2 m26,0 h7
M258,275.5 h7 m5,0 h7 m46,0 h7 m47,0 h7 m-382,0 h7 m58,0 h7 m35,0 h2 m10,0 h7
M485,276.5 h7 m-213,0 h7 m134,0 h2 m-191,0 h5 m-209,0 h3 m25,0 h7 m102,0 h5
M248,277.5 h7 m181,0 h7 m8,0 h7 m14,0 h6 m-298,0 h7 m8,0 h7 m13,0 h6
M335,278.5 h7 m45,0 h4 m-22,0 h7 m-297,0 h7 m45,0 h7 m-25,0 h7
M300,279.5 h7 m43,0 h7 m-313,0 h7 m43,0 h4
M318,280.5 h7 m77,0 h2 m13,0 h4 m23,0 h7 m-386,0 h4 m92,0 h7 m20,0 h7
M241,281.5 h7 m9,0 h7 m8,0 h7 m9,0 h7 m112,0 h7 m67,0 h7 m9,0 h5 m-501,0 h7 m24,0 h7 m112,0 h7 m51,0 h7
M326,282.5 h7 m42,0 h7 m-312,0 h7 m32,0 h3 m7,0 h7
M297,283.5 h5 m38,0 h7 m108,0 h6 m-422,0 h7 m38,0 h7 m108,0 h7
M233,284.5 h7 m25,0 h2 m44,0 h2 m74,0 h7 m100,0 h2 m-487,0 h7 m115,0 h6
M249,285.5 h7 m25,0 h7 m63,0 h7 m77,0 h7 m31,0 h7 m25,0 h7 m-487,0 h7 m63,0 h7 m77,0 h7 m31,0 h4
M336,286.5 h3 m76,0 h5 m-344,0 h7 m76,0 h7
M302,287.5 h6 m88,0 h7 m-39,0 h7 m-326,0 h7
M257,288.5 h7 m12,0 h3 m179,0 h4 m19,0 h4 m-469,0 h7 m179,0 h7 m16,0 h7
M308,289.5 h3 m12,0 h6 m56,0 h7 m17,0 h5 m-362,0 h3 m11,0 h7 m56,0 h7 m15,0 h7
M341,290.5 h7 m6,0 h7 m13,0 h2 m47,0 h7 m11,0 h2 m-357,0 h6 m6,0 h7 m13,0 h7 m42,0 h7 m11,0 h4
M234,291.5 h7 m41,0 h7 m185,0 h7 m23,0 h7 m-485,0 h2 m190,0 h7
M364,292.5 h6 m63,0 h7 m24,0 h7 m-460,0 h5 m24,0 h7 m28,0 h2 m100,0 h7 m24,0 h7
M455,293.5 h3 m-312,0 h7
M392,294.5 h6 m-343,0 h7 m74,0 h7
M235,295.5 h7 m35,0 h6 m-27,0 h7 m26,0 h3 m50,0 h4 m67,0 h7 m75,0 h3 m-478,0 h7 m61,0 h2
M323,296.5 h7 m41,0 h3 m13,0 h3 m36,0 h6 m-365,0 h7 m25,0 h7 m12,0 h4 m48,0 h7
M461,297.5 h7 m7,0 h7 m20,0 h7 m-304,0 h7
M345,298.5 h7 m-55,0 h7 m9,0 h7 m121,0 h2 m-354,0 h7 m-55,0 h7 m9,0 h7 m116,0 h7
M266,299.5 h7 m146,0 h7 m24,0 h7 m-447,0 h7 m148,0 h5
M234,300.5 h7 m42,0 h7 m76,0 h3 m121,0 h7 m-423,0 h2 m30,0 h7 m33,0 h7
M306,301.5 h7 m78,0 h7 m67,0 h7 m-422,0 h4 m69,0 h4 m12,0 h3 m67,0 h6
M255,302.5 h7 m74,0 h7 m100,0 h6 m-39,0 h7 m64,0 h7 m23,0 h1 m-512,0 h6 m74,0 h7 m99,0 h6 m34,0 h6
M298,303.5 h7 m-62,0 h7 m25,0 h4 m42,0 h7 m-286,0 h7 m50,0 h7 m393,0 h7 m-487,0 h7 m39,0 h7
M369,304.5 h7 m78,0 h7 m-348,0 h7 m57,0 h7 m18,0 h3
M421,305.5 h7 m44,0 h7 m-314,0 h7
M256,306.5 h7 m5,0 h7 m72,0 h7 m-354,0 h7 m10,0 h2 m74,0 h5
M295,307.5 h7 m13,0 h5 m70,0 h7 m5,0 h7 m38,0 h7 m-415,0 h7 m92,0 h3 m5,0 h7
M240,308.5 h7 m81,0 h7 m49,0 h3 m77,0 h7 m25,0 h5 m-477,0 h7 m41,0 h7 m45,0 h3 m81,0 h7 m8,0 h7
M413,309.5 h5 m11,0 h2 m-92,0 h7 m-191,0 h7 m16,0 h2
M248,310.5 h6 m116,0 h5 m130,0 h6 m-397,0 h7
M289,311.5 h6 m63,0 h7 m74,0 h7 m-344,0 h7 m74,0 h7
M487,312.5 h6 m-194,0 h5 m12,0 h3 m101,0 h7 m35,0 h3 m-395,0 h7 m153,0 h7 m-194,0 h7 m114,0 h6 m32,0 h7
M268,313.5 h7 m-12,0 h3 m79,0 h7 m35,0 h7 m-391,0 h4 m87,0 h2 m35,0 h7
M401,314.5 h7 m38,0 h6 m-307,0 h2 m43,0 h7 m23,0 h7
M248,315.5 h4 m28,0 h7 m219,0 h5 m-487,0 h5
M320,316.5 h6 m11,0 h7 m148,0 h2 m-445,0 h7 m8,0 h7 m10,0 h2 m73,0 h5
M290,317.5 h7 m60,0 h6 m4,0 h7 m18,0 h7 m38,0 h7 m25,0 h7 m-376,0 h7 m4,0 h5 m20,0 h7 m38,0 h7 m25,0 h5
M270,318.5 h7 m146,0 h7 m-412,0 h3 m146,0 h2 m30,0 h7
M2,319.5 h7
M419,320.5 h3 m-353,0 h7 m16,0 h6 m29,0 h3 m29,0 h7
M482,321.5 h7 m-242,0 h6 m23,0 h2 m3,0 h2 m10,0 h7 m13,0 h7 m70,0 h7 m5,0 h6 m39,0 h5 m11,0 h6 m-243,0 h7 m260,0 h2 m11,0 h4 m-490,0 h7 m13,0 h4 m13,0 h7 m70,0 h7 m54,0 h3 m8,0 h7
M337,322.5 h7 m16,0 h7 m-286,0 h7 m18,0 h5
M305,323.5 h7 m-263,0 h3
M265,324.5 h7 m99,0 h7 m-369,0 h7
M286,325.5 h4 m54,0 h3 m58,0 h7 m9,0 h7 m9,0 h7 m25,0 h7 m-449,0 h7 m39,0 h7 m8,0 h7 m70,0 h7 m9,0 h7
M256,326.5 h7 m33,0 h7 m78,0 h2 m70,0 h7 m25,0 h7 m-492,0 h7 m33,0 h7 m79,0 h6 m68,0 h4 m25,0 h5
M246,327.5 h7 m105,0 h2 m31,0 h7 m104,0 h7 m-374,0 h7
M321,328.5 h7 m116,0 h7 m25,0 h7 m-418,0 h7 m116,0 h2 m33,0 h4
M266,329.5 h7 m15,0 h5 m18,0 h2 m101,0 h7 m-411,0 h5 m15,0 h7 m121,0 h7
M237,330.5 h7 m127,0 h7 m22,0 h7 m56,0 h2 m31,0 h4 m-385,0 h7 m85,0 h5
M274,331.5 h2 m60,0 h7 m17,0 h7 m-348,0 h6 m58,0 h4 m20,0 h4 m65,0 h7
M314,332.5 h7 m25,0 h7 m69,0 h5 m56,0 h7 m-428,0 h3 m25,0 h6 m70,0 h7 m54,0 h7
M257,333.5 h4 m36,0 h3 m27,0 h7 m59,0 h6 m55,0 h7 m-460,0 h7 m33,0 h7 m23,0 h2 m63,0 h7 m58,0 h4
M242,334.5 h7 m38,0 h6 m84,0 h4 m28,0 h7 m26,0 h7 m27,0 h3 m22,0 h4 m-475,0 h3 m88,0 h7 m25,0 h7 m26,0 h4 m26,0 h7
M274,335.5 h2 m-257,0 h6
M355,336.5 h7 m9,0 h2 m-274,0 h7 m4,0 h7
M249,337.5 h7 m161,0 h7 m9,0 h7 m44,0 h7 m14,0 h7 m-382,0 h7 m24,0 h7
M291,338.5 h7 m32,0 h7 m8,0 h7 m98,0 h6 m-367,0 h7 m97,0 h7 m8,0 h7
M318,339.5 h7 m-263,0 h7
M241,340.5 h7 m25,0 h7 m96,0 h7 m119,0 h2 m-484,0 h4 m25,0 h7 m68,0 h3
M338,341.5 h7 m48,0 h7 m25,0 h7 m40,0 h7 m-476,0 h6 m75,0 h5 m16,0 h7 m25,0 h5 m27,0 h5 m10,0 h7 m25,0 h7
M484,342.5 h7 m-79,0 h6 m35,0 h7 m-305,0 h7 m35,0 h7
M249,344.5 h7 m27,0 h7 m42,0 h4 m12,0 h7 m17,0 h5 m128,0 h7 m-485,0 h5 m41,0 h7 m12,0 h7
M238,345.5 h5 m30,0 h7 m26,0 h7 m3,0 h7 m63,0 h7 m37,0 h6 m38,0 h7 m11,0 h7 m-482,0 h7 m26,0 h7 m3,0 h7 m63,0 h7 m9,0 h7 m65,0 h7
M359,346.5 h2 m99,0 h7 m-364,0 h7 m77,0 h7 m10,0 h7
M256,347.5 h3 m159,0 h7 m-425,0 h7 m155,0 h7
M243,348.5 h7 m18,0 h7 m26,0 h5 m32,0 h2 m3,0 h2 m33,0 h7 m114,0 h6 m-493,0 h7 m24,0 h7 m17,0 h7 m8,0 h7 m36,0 h4
M285,349.5 h5 m102,0 h7 m13,0 h3 m37,0 h7 m10,0 h2 m-442,0 h7 m100,0 h7 m9,0 h7 m54,0 h7
M487,350.5 h7 m-132,0 h7 m69,0 h2 m-209,0 h7 m-132,0 h7 m69,0 h7
M348,351.5 h6 m-263,0 h4 m75,0 h7
M333,352.5 h4 m37,0 h7 m17,0 h7 m-367,0 h7 m73,0 h7 m17,0 h7
M254,353.5 h7 m9,0 h7 m39,0 h6 m93,0 h7 m25,0 h7 m27,0 h3 m26,0 h2 m-512,0 h5 m56,0 h6 m124,0 h4 m31,0 h2
M241,354.5 h2 m63,0 h7 m38,0 h7 m139,0 h2 m-449,0 h2
M282,355.5 h7 m177,0 h4 m-444,0 h7 m50,0 h6 m121,0 h7
M365,356.5 h7 m12,0 h4 m5,0 h7 m56,0 h7 m-354,0 h7 m9,0 h7 m5,0 h2 m3,0 h2 m7,0 h7 m10,0 h7
M293,357.5 h7 m25,0 h7 m108,0 h7 m-215,0 h7 m-202,0 h7 m25,0 h5 m110,0 h7 m297,0 h7
M254,358.5 h3 m7,0 h7 m5,0 h7 m227,0 h2 m-512,0 h1 m7,0 h5 m12,0 h2
M308,359.5 h7 m38,0 h5 m13,0 h4 m-260,0 h7
M400,360.5 h7 m10,0 h6 m9,0 h7 m-292,0 h4 m25,0 h7
M255,361.5 h7 m23,0 h7 m29,0 h7 m58,0 h4 m73,0 h7 m-386,0 h5 m408,0 h2 m12,0 h1 m-512,0 h6 m23,0 h7 m29,0 h7 m55,0 h7 m73,0 h7
M484,362.5 h7 m-192,0 h5 m147,0 h3 m-226,0 h7 m-192,0 h7 m145,0 h7
M471,363.5 h7
M269,364.5 h5 m39,0 h6 m9,0 h7 m17,0 h4 m10,0 h3 m23,0 h7 m25,0 h7 m8,0 h7 m-435,0 h2 m83,0 h7 m3,0 h7 m39,0 h5 m11,0 h7 m8,0 h7
M278,365.5 h4 m-258,0 h5
M246,366.5 h7 m89,0 h7 m-58,0 h6 m205,0 h7 m-423,0 h7 m107,0 h7
M482,367.5 h7 m-231,0 h2 m185,0 h7 m-226,0 h7 m-231,0 h7 m180,0 h7
M299,368.5 h4 m11,0 h5 m13,0 h7 m62,0 h6 m11,0 h5 m-380,0 h7 m6,0 h7 m13,0 h7 m65,0 h4 m8,0 h7
M238,369.5 h7 m25,0 h7 m103,0 h7 m83,0 h7 m17,0 h7 m-487,0 h7 m104,0 h6 m83,0 h7
M350,370.5 h6 m11,0 h2 m23,0 h7 m28,0 h7 m-407,0 h5 m62,0 h7 m5,0 h7 m58,0 h7
M438,371.5 h7 m-260,0 h4 m16,0 h2
M250,372.5 h7 m59,0 h7 m162,0 h7 m14,0 h6 m-512,0 h1 m228,0 h7
M329,373.5 h7 m7,0 h7 m21,0 h7 m35,0 h7 m-374,0 h7 m20,0 h7 m7,0 h7 m63,0 h7
M385,374.5 h7 m77,0 h4 m-69,0 h3 m-278,0 h7 m77,0 h7 m-76,0 h7
M431,375.5 h4 m-194,0 h5 m27,0 h7 m12,0 h5 m148,0 h7 m8,0 h7 m-295,0 h5 m325,0 h2 m-487,0 h7 m165,0 h6 m11,0 h5
M482,376.5 h3 m-263,0 h7
M355,377.5 h7 m3,0 h7 m-317,0 h3 m20,0 h7 m24,0 h7
M250,378.5 h6 m10,0 h7 m49,0 h7 m47,0 h7 m26,0 h7 m22,0 h7 m60,0 h7 m-497,0 h2 m52,0 h4 m47,0 h7 m9,0 h7 m10,0 h3
M279,379.5 h7 m14,0 h7 m38,0 h7 m68,0 h3 m63,0 h5 m-468,0 h7 m14,0 h7 m38,0 h7 m69,0 h6 m59,0 h7
M290,380.5 h7 m-263,0 h7
M258,381.5 h7 m186,0 h3 m6,0 h7 m-465,0 h2 m187,0 h7 m6,0 h7
M388,382.5 h4 m-84,0 h2 m95,0 h3 m95,0 h3 m-374,0 h4 m-84,0 h5 m88,0 h7 m65,0 h3
M433,383.5 h7
M234,384.5 h6 m41,0 h7 m34,0 h6 m35,0 h7 m6,0 h3 m111,0 h2 m-467,0 h7 m36,0 h4 m35,0 h7 m6,0 h3 m43,0 h6
M251,385.5 h5 m10,0 h6 m24,0 h7 m153,0 h4 m45,0 h7 m-502,0 h7 m23,0 h5 m152,0 h7
M391,386.5 h7 m10,0 h7 m62,0 h7 m-349,0 h7 m10,0 h3
M307,387.5 h4 m32,0 h4 m116,0 h7 m-419,0 h7 m16,0 h3 m11,0 h6 m113,0 h7
M258,388.5 h7 m15,0 h2 m89,0 h6 m56,0 h4 m-435,0 h7 m10,0 h7 m89,0 h7 m52,0 h7 m9,0 h7
M483,389.5 h7 m-200,0 h7 m62,0 h2 m35,0 h7 m-173,0 h4 m-200,0 h6 m58,0 h7 m35,0 h7
M322,390.5 h7 m92,0 h7 m-191,0 h7 m-178,0 h7 m92,0 h7 m321,0 h7
M436,391.5 h7 m-130,0 h7 m42,0 h7 m38,0 h7 m-234,0 h7 m-130,0 h7 m42,0 h7 m38,0 h7
M252,392.5 h7 m7,0 h4 m31,0 h4 m40,0 h3 m28,0 h2 m88,0 h7 m35,0 h4 m-502,0 h7 m72,0 h7 m24,0 h2 m88,0 h7
M329,393.5 h7 m-263,0 h7 m109,0 h3
M241,394.5 h7 m40,0 h4 m100,0 h7 m58,0 h6 m19,0 h5 m10,0 h7 m-472,0 h7 m97,0 h7 m58,0 h6 m17,0 h7
M338,395.5 h7 m38,0 h7 m26,0 h7 m-406,0 h5 m60,0 h7 m38,0 h7 m26,0 h7
M304,396.5 h7 m8,0 h7 m27,0 h7 m9,0 h7 m26,0 h7 m25,0 h7 m-391,0 h5 m42,0 h7 m9,0 h7 m58,0 h7 m32,0 h7
M260,397.5 h7
M281,398.5 h7 m136,0 h4 m-194,0 h7 m7,0 h3 m-221,0 h2 m136,0 h4 m318,0 h7 m7,0 h7
M444,399.5 h7 m14,0 h6 m-283,0 h3 m18,0 h7
M311,400.5 h7 m10,0 h7 m7,0 h7 m31,0 h7 m30,0 h2 m-364,0 h6 m11,0 h7 m7,0 h7 m31,0 h7 m25,0 h7
M273,401.5 h7 m120,0 h7 m50,0 h7 m-447,0 h2 m183,0 h6
M263,402.5 h7 m83,0 h7 m11,0 h4 m61,0 h6 m-432,0 h4 m83,0 h6 m9,0 h7 m60,0 h7
M245,403.5 h5 m53,0 h7 m11,0 h7 m94,0 h5 m58,0 h7 m9,0 h7 m-461,0 h7 m80,0 h7 m77,0 h5 m6,0 h7
M341,404.5 h3 m-263,0 h7
M277,405.5 h7 m93,0 h7 m75,0 h2 m-340,0 h7 m70,0 h7
M291,406.5 h7 m211,0 h3 m-512,0 h4 m31,0 h7 m113,0 h6
M446,407.5 h4 m-211,0 h4 m155,0 h6 m62,0 h7 m5,0 h7 m-295,0 h7 m295,0 h5 m-356,0 h7 m29,0 h2 m43,0 h7
M303,408.5 h7 m13,0 h7 m-283,0 h7 m17,0 h3
M263,409.5 h7 m81,0 h7 m25,0 h4 m52,0 h7 m-439,0 h7 m66,0 h3 m12,0 h7 m81,0 h7
M245,410.5 h7 m24,0 h4 m138,0 h5 m-406,0 h7 m89,0 h2 m45,0 h6
M283,411.5 h7 m4,0 h7 m160,0 h5 m-439,0 h7 m4,0 h7 m10,0 h7 m141,0 h5
M254,412.5 h7 m217,0 h7 m5,0 h5 m15,0 h2 m-512,0 h5 m217,0 h7
M322,413.5 h6 m20,0 h7 m14,0 h7 m11,0 h7 m6,0 h7 m20,0 h7 m13,0 h2 m-384,0 h7 m22,0 h5 m14,0 h7 m15,0 h3 m6,0 h7 m20,0 h6 m14,0 h7
M411,414.5 h7 m-263,0 h7 m-85,0 h4
M468,415.5 h7
M301,416.5 h7 m-63,0 h7 m11,0 h7 m12,0 h2 m76,0 h7 m12,0 h7 m50,0 h7 m-398,0 h7 m-45,0 h7 m7,0 h7 m76,0 h7
M232,417.5 h2 m157,0 h7 m22,0 h7 m61,0 h7 m-437,0 h6 m71,0 h7 m22,0 h7 m24,0 h7
M337,418.5 h7 m63,0 h7 m-259,0 h3
M253,419.5 h7 m25,0 h7 m60,0 h7 m11,0 h7 m132,0 h3 m-512,0 h4 m92,0 h7 m11,0 h7
M294,420.5 h7 m20,0 h7 m130,0 h7 m18,0 h2 m-447,0 h7 m20,0 h7 m130,0 h7 m13,0 h7
M245,421.5 h4 m57,0 h7 m30,0 h7 m46,0 h7 m23,0 h7 m34,0 h6 m25,0 h7 m-487,0 h7 m62,0 h7 m46,0 h6 m24,0 h6 m11,0 h3 m21,0 h7
M330,422.5 h7 m-215,0 h7 m-51,0 h3
M262,423.5 h7 m95,0 h5 m81,0 h7 m-451,0 h3 m97,0 h7 m81,0 h7
M250,424.5 h7 m25,0 h7 m119,0 h7 m91,0 h6 m-512,0 h1 m156,0 h2
M234,425.5 h7 m149,0 h7 m22,0 h7 m8,0 h2 m54,0 h7 m-363,0 h7 m22,0 h7
M297,426.5 h7 m9,0 h5 m-277,0 h7 m11,0 h3 m36,0 h7 m120,0 h4
M266,427.5 h7 m49,0 h7 m12,0 h7 m24,0 h4 m90,0 h7 m-407,0 h7 m12,0 h7 m24,0 h7 m87,0 h5
M388,428.5 h4 m59,0 h7 m-329,0 h7 m59,0 h7
M247,429.5 h2 m82,0 h7 m160,0 h3
M272,430.5 h7 m24,0 h2 m60,0 h7 m-118,0 h7 m-242,0 h4 m86,0 h7 m66,0 h7 m321,0 h2 m-512,0 h5
M424,431.5 h7 m46,0 h7 m-250,0 h5 m173,0 h7 m-251,0 h7 m51,0 h2 m262,0 h7 m-341,0 h7 m43,0 h4
M446,432.5 h6 m-368,0 h5 m9,0 h7 m84,0 h7
M295,433.5 h6 m22,0 h7 m40,0 h7 m11,0 h3 m-385,0 h2 m30,0 h7 m7,0 h7 m8,0 h6 m55,0 h2 m13,0 h7
M280,434.5 h4 m147,0 h4 m-411,0 h7 m144,0 h7
M349,435.5 h5 m115,0 h7 m-379,0 h3 m113,0 h2
M254,436.5 h5 m152,0 h5 m70,0 h5 m20,0 h1 m-512,0 h5 m148,0 h7 m68,0 h7
M316,437.5 h4 m11,0 h5 m58,0 h6 m44,0 h7 m-391,0 h7 m8,0 h7 m59,0 h4 m45,0 h5 m12,0 h3
M275,438.5 h7 m13,0 h3 m78,0 h7 m45,0 h7 m-73,0 h7 m-350,0 h7 m9,0 h7 m80,0 h5 m45,0 h7 m-73,0 h3
M348,439.5 h7 m-192,0 h5
M249,440.5 h4 m134,0 h7 m93,0 h3 m-483,0 h7 m37,0 h7 m169,0 h7
M295,441.5 h7 m103,0 h7 m23,0 h7 m26,0 h6 m-435,0 h7 m20,0 h7 m9,0 h7 m60,0 h6 m56,0 h7
M360,442.5 h7 m88,0 h7 m-358,0 h6
M271,443.5 h7 m-263,0 h7
M489,444.5 h5 m-251,0 h7 m8,0 h7 m49,0 h3 m61,0 h6 m8,0 h7 m45,0 h7 m23,0 h2 m-245,0 h7 m261,0 h7 m-504,0 h7 m49,0 h7 m57,0 h7 m7,0 h7 m48,0 h4 m23,0 h7
M278,445.5 h7 m61,0 h7 m-329,0 h5 m61,0 h2
M293,446.5 h7 m29,0 h5 m69,0 h7 m-104,0 h7 m57,0 h7 m-340,0 h7 m103,0 h6 m-103,0 h7 m57,0 h7
M436,447.5 h7 m11,0 h7 m-358,0 h7 m88,0 h7
M338,448.5 h7 m-63,0 h3 m141,0 h3 m41,0 h7 m-395,0 h7 m-63,0 h7 m133,0 h7 m41,0 h6
M488,449.5 h6 m-248,0 h5 m-20,0 h7 m264,0 h7
M259,450.5 h3 m9,0 h7 m118,0 h7 m7,0 h5 m96,0 h1 m-512,0 h6 m120,0 h7 m7,0 h7
M300,451.5 h7 m9,0 h7 m7,0 h7 m11,0 h7 m89,0 h3 m12,0 h7 m-422,0 h7 m9,0 h7 m25,0 h7 m89,0 h7 m8,0 h7
M373,452.5 h7 m49,0 h7 m41,0 h7 m-454,0 h4 m71,0 h7 m5,0 h7 m51,0 h5
M240,453.5 h7 m16,0 h7 m226,0 h2 m-491,0 h7
M309,454.5 h7 m23,0 h7 m47,0 h6 m20,0 h2 m-338,0 h7 m49,0 h4 m20,0 h7
M295,455.5 h5 m105,0 h7 m25,0 h7 m24,0 h7 m-280,0 h7 m-53,0 h7 m25,0 h7 m24,0 h6
M482,456.5 h7 m-136,0 h4 m-127,0 h3 m-136,0 h7 m23,0 h3
M260,457.5 h4 m7,0 h7 m50,0 h7 m-334,0 h7 m64,0 h7
M239,458.5 h7 m68,0 h5 m24,0 h7 m112,0 h7 m-408,0 h4 m22,0 h7 m112,0 h7
M280,459.5 h3 m76,0 h7 m9,0 h7 m17,0 h7 m8,0 h7 m10,0 h6 m-413,0 h7 m72,0 h7 m9,0 h7 m17,0 h7 m8,0 h7
M294,460.5 h6 m5,0 h7 m196,0 h4 m-320,0 h7
M265,461.5 h7 m201,0 h7 m7,0 h7 m-485,0 h7 m49,0 h7 m145,0 h2 m12,0 h7
M336,462.5 h7 m25,0 h7 m64,0 h7 m-366,0 h7 m25,0 h7 m64,0 h7
M242,463.5 h7 m160,0 h7 m39,0 h7 m-309,0 h7 m6,0 h4 m29,0 h7
M287,464.5 h7 m-263,0 h7
M255,465.5 h7 m13,0 h7 m32,0 h4 m11,0 h7 m9,0 h7 m44,0 h6 m63,0 h7 m10,0 h6 m23,0 h1 m-512,0 h5 m14,0 h7 m32,0 h7 m8,0 h7 m9,0 h7 m9,0 h3 m32,0 h6 m67,0 h3 m9,0 h7
M377,466.5 h7 m-263,0 h7
M304,467.5 h7 m120,0 h7 m-390,0 h7 m120,0 h7
M232,468.5 h5 m57,0 h7 m66,0 h6 m30,0 h7 m8,0 h7 m16,0 h7 m40,0 h7 m-457,0 h7 m65,0 h7 m15,0 h7 m11,0 h4 m8,0 h7 m16,0 h3
M246,469.5 h6 m69,0 h7 m125,0 h7 m10,0 h2 m29,0 h7 m-443,0 h7 m125,0 h7 m14,0 h3
M284,470.5 h5 m44,0 h3 m-308,0 h7
M272,471.5 h7 m66,0 h6 m27,0 h7 m-369,0 h7 m65,0 h7
M255,472.5 h6 m163,0 h4 m55,0 h4 m24,0 h1 m-512,0 h4 m161,0 h7 m52,0 h7
M301,473.5 h7 m91,0 h7 m26,0 h7 m22,0 h6 m30,0 h7 m-459,0 h7 m91,0 h3 m30,0 h7 m21,0 h3
M322,474.5 h7 m41,0 h7 m73,0 h2 m-386,0 h7 m41,0 h5 m79,0 h3
M278,475.5 h7 m103,0 h7 m-373,0 h7 m25,0 h7 m39,0 h7 m25,0 h7 m21,0 h7 m52,0 h4
M233,476.5 h3 m62,0 h3 m104,0 h7 m28,0 h7 m42,0 h5 m-456,0 h7 m42,0 h4 m93,0 h3
M251,477.5 h7 m249,0 h5 m-512,0 h2
M331,478.5 h4 m45,0 h7 m76,0 h7 m-121,0 h7 m-227,0 h2 m-101,0 h7 m56,0 h7
M319,479.5 h6 m40,0 h7 m-100,0 h5 m203,0 h7 m-425,0 h7 m40,0 h7 m-102,0 h7 m203,0 h7
M399,480.5 h7 m27,0 h7 m9,0 h2 m-308,0 h2 m17,0 h7 m9,0 h6 m9,0 h7
M248,481.5 h7 m249,0 h7 m-455,0 h2
M232,482.5 h7 m24,0 h7 m28,0 h2 m26,0 h7 m38,0 h7 m10,0 h6 m17,0 h3 m74,0 h5 m-486,0 h7 m23,0 h6 m27,0 h5 m40,0 h3 m14,0 h7 m17,0 h6
M279,483.5 h7 m54,0 h7 m11,0 h7 m60,0 h7 m40,0 h7 m-395,0 h7 m11,0 h7 m91,0 h7 m9,0 h7
M440,484.5 h7 m-263,0 h7
M301,485.5 h7
M241,486.5 h7 m9,0 h7 m53,0 h7 m25,0 h7 m25,0 h6 m17,0 h6 m-409,0 h7 m53,0 h7 m25,0 h7 m24,0 h7 m16,0 h7
M465,487.5 h7 m-263,0 h7
M487,488.5 h5 m-214,0 h7 m41,0 h7 m37,0 h2 m54,0 h2 m26,0 h7 m13,0 h7 m-248,0 h5 m-168,0 h7 m37,0 h7 m17,0 h7 m53,0 h7 m13,0 h6
M264,489.5 h7 m23,0 h7 m9,0 h7 m25,0 h7 m62,0 h7 m24,0 h7 m-440,0 h6 m23,0 h7 m9,0 h7 m25,0 h7 m62,0 h7 m24,0 h7
M250,490.5 h6 m249,0 h7
M383,491.5 h6 m-263,0 h7
M303,492.5 h7 m25,0 h6 m9,0 h4 m10,0 h7 m108,0 h7 m-453,0 h4 m10,0 h7 m24,0 h6 m10,0 h7 m10,0 h4 m61,0 h7
M239,493.5 h7 m30,0 h2 m126,0 h4 m9,0 h7 m40,0 h2 m29,0 h7 m-487,0 h7 m123,0 h5 m11,0 h7 m24,0 h7 m13,0 h3
M260,494.5 h7 m56,0 h7 m-260,0 h4
M389,495.5 h7 m-278,0 h4 m381,0 h7 m-455,0 h6 m72,0 h7
M234,496.5 h5 m38,0 h7 m14,0 h3 m107,0 h7 m25,0 h7 m41,0 h7 m-474,0 h7 m10,0 h7 m139,0 h7
M340,497.5 h2 m82,0 h3 m29,0 h7 m13,0 h3 m-400,0 h3 m86,0 h7 m25,0 h4 m12,0 h7
M365,498.5 h7 m-260,0 h4
M259,499.5 h6 m39,0 h5 m69,0 h7 m96,0 h7 m-458,0 h7 m11,0 h7 m86,0 h7
M320,500.5 h4 m18,0 h6 m70,0 h7 m78,0 h7 m-348,0 h7 m25,0 h7
M364,501.5 h2 m22,0 h7 m38,0 h7 m-307,0 h6 m38,0 h5 m33,0 h2
M264,502.5 h2 m31,0 h5 m25,0 h3 m18,0 h5 m-342,0 h4 m56,0 h7 m15,0 h6
M277,503.5 h7 m125,0 h7 m-395,0 h7
M235,504.5 h7 m136,0 h7 m59,0 h2 m34,0 h7 m-295,0 h3 m29,0 h7
M253,505.5 h7 m45,0 h3 m13,0 h7 m98,0 h7 m25,0 h7 m44,0 h3 m-512,0 h4 m45,0 h7 m9,0 h7 m67,0 h7 m24,0 h7
M287,506.5 h7 m74,0 h7 m-344,0 h6 m75,0 h7
M241,507.5 h7 m27,0 h7 m54,0 h7 m7,0 h7 m78,0 h7 m58,0 h4 m-485,0 h7 m54,0 h7 m7,0 h7 m78,0 h2
M261,508.5 h7 m46,0 h7 m84,0 h4 m7,0 h7 m26,0 h7 m10,0 h7 m-468,0 h7 m46,0 h7 m81,0 h7 m7,0 h7 m26,0 h7 m10,0 h7
M357,509.5 h7 m20,0 h7 m87,0 h7 m-384,0 h7 m20,0 h7 m87,0 h7
M250,510.5 h7 m36,0 h7 m28,0 h7 m171,0 h6 m-512,0 h1 m71,0 h7
M424,511.5 h4 m-260,0 h7
M237,0.5 h7 m26,0 h7 m27,0 h7 m56,0 h7 m34,0 h7 m78,0 h7 m-452,0 h7 m56,0 h7 m19,0 h6 m9,0 h7
M285,1.5 h7 m29,0 h7 m8,0 h7 m35,0 h7 m54,0 h7 m7,0 h7 m-431,0 h7 m29,0 h7 m8,0 h7 m10,0 h5 m20,0 h7 m54,0 h7 m7,0 h7
M258,2.5 h7 m204,0 h7 m8,0 h5 m-487,0 h7 m204,0 h7 m11,0 h2
M297,4.5 h7 m42,0 h6 m47,0 h7 m9,0 h7 m39,0 h7 m-427,0 h7 m42,0 h7 m62,0 h7 m9,0 h5 m25,0 h7
M235,5.5 h7 m35,0 h6 m79,0 h7 m122,0 h7 m-474,0 h3 m79,0 h7
M318,6.5 h7 m65,0 h7 m42,0 h7 m-64,0 h4 m-336,0 h4 m12,0 h3 m65,0 h7 m42,0 h7
M288,7.5 h7 m-32,0 h5 m59,0 h7 m117,0 h7 m-426,0 h7 m-32,0 h6 m58,0 h7 m117,0 h7
M338,8.5 h7 m24,0 h5 m94,0 h7 m-393,0 h7 m24,0 h7 m92,0 h7
M255,9.5 h3 m142,0 h7 m104,0 h1 m-512,0 h2 m174,0 h6
M316,10.5 h3 m98,0 h7 m-263,0 h4
M297,11.5 h7 m141,0 h4 m26,0 h4 m-437,0 h6 m141,0 h7 m23,0 h2
M241,12.5 h2 m41,0 h6 m72,0 h6 m92,0 h7 m30,0 h3 m-472,0 h5 m74,0 h5 m41,0 h7 m44,0 h7
M262,13.5 h5 m57,0 h7 m53,0 h3 m6,0 h7 m24,0 h7 m-425,0 h7 m55,0 h7 m11,0 h4 m47,0 h7
M490,14.5 h3 m-123,0 h2 m-320,0 h7 m173,0 h5 m-123,0 h5
M278,15.5 h6 m-30,0 h2 m98,0 h7 m78,0 h7 m11,0 h4 m-440,0 h7 m170,0 h7
M332,16.5 h6 m136,0 h5 m-260,0 h6
M301,17.5 h7 m81,0 h7 m-351,0 h7 m81,0 h7
M238,18.5 h7 m49,0 h2 m52,0 h5 m47,0 h6 m23,0 h7 m26,0 h7 m25,0 h7 m-411,0 h7 m47,0 h7 m4,0 h7 m11,0 h7 m26,0 h4
M258,19.5 h7 m5,0 h7 m46,0 h7 m30,0 h7 m-365,0 h7 m5,0 h7 m46,0 h7 m30,0 h7 m10,0 h7
M485,20.5 h7 m-213,0 h4 m28,0 h7 m102,0 h7 m-198,0 h7 m-213,0 h7 m25,0 h7 m102,0 h7
M248,21.5 h7 m181,0 h7 m28,0 h3 m30,0 h7 m-331,0 h3 m12,0 h7
M335,22.5 h2 m50,0 h7 m-25,0 h7 m-245,0 h3 m-21,0 h7
M300,23.5 h7 m43,0 h7 m-313,0 h7 m43,0 h7
M318,24.5 h7 m72,0 h7 m13,0 h2 m25,0 h3 m-385,0 h3 m78,0 h5 m17,0 h3
M241,25.5 h5 m11,0 h7 m8,0 h7 m128,0 h7 m51,0 h4 m12,0 h7 m9,0 h7 m-500,0 h4 m8,0 h7 m9,0 h7 m112,0 h7 m67,0 h7
M326,26.5 h7 m28,0 h7 m7,0 h7 m-312,0 h7 m28,0 h7 m7,0 h7
M295,27.5 h7 m38,0 h7 m81,0 h3 m24,0 h7 m-423,0 h7 m38,0 h7 m79,0 h5 m24,0 h7
M233,28.5 h7 m25,0 h7 m115,0 h7 m95,0 h7 m-487,0 h7 m39,0 h5 m71,0 h2
M254,29.5 h2 m25,0 h7 m63,0 h7 m77,0 h7 m63,0 h7 m-487,0 h7 m63,0 h7 m77,0 h7 m31,0 h7
M447,30.5 h7 m-118,0 h3 m76,0 h2 m-226,0 h7 m-122,0 h7 m76,0 h2
M301,31.5 h7 m56,0 h7 m-326,0 h7 m92,0 h3 m-39,0 h2
M257,32.5 h7 m8,0 h7 m179,0 h7 m16,0 h7 m-472,0 h7 m182,0 h4 m16,0 h7
M322,33.5 h5 m58,0 h7 m15,0 h7 m-362,0 h7 m11,0 h3 m56,0 h4 m18,0 h7
M341,34.5 h7 m10,0 h3 m80,0 h6 m-349,0 h7 m16,0 h4 m46,0 h3 m11,0 h7
M234,35.5 h7 m238,0 h2 m23,0 h7 m-485,0 h7 m185,0 h7
M269,36.5 h3 m24,0 h7 m60,0 h7 m63,0 h7 m24,0 h7 m-461,0 h6 m26,0 h5 m28,0 h7 m25,0 h2 m68,0 h7 m24,0 h7
M405,37.5 h4 m47,0 h2 m-312,0 h7 m42,0 h2
M311,38.5 h7 m74,0 h2 m-339,0 h4 m77,0 h7
M235,39.5 h7 m34,0 h3 m-23,0 h5 m31,0 h4 m43,0 h7 m67,0 h7 m-400,0 h7 m130,0 h7
M323,40.5 h3 m33,0 h3 m21,0 h7 m36,0 h7 m-366,0 h7 m25,0 h7 m14,0 h2 m5,0 h7 m36,0 h7
M246,41.5 h7 m208,0 h7 m7,0 h7 m20,0 h7 m-302,0 h5 m7,0 h5
M345,42.5 h3 m-51,0 h7 m9,0 h7 m116,0 h7 m-351,0 h4 m-53,0 h5 m9,0 h7 m116,0 h7
M419,43.5 h7 m-263,0 h7 m24,0 h2
M235,44.5 h6 m89,0 h7 m25,0 h7 m33,0 h7 m81,0 h7 m-470,0 h5 m42,0 h7 m25,0 h7
M306,45.5 h7 m66,0 h7 m5,0 h7 m67,0 h7 m-422,0 h7 m66,0 h7 m5,0 h7 m67,0 h7
M255,46.5 h5 m76,0 h7 m99,0 h4 m-33,0 h4 m64,0 h7 m23,0 h1 m-512,0 h6 m74,0 h7 m99,0 h7 m-36,0 h4"/>
</svg>
