<?xml version="1.0" encoding="UTF-8"?>
<svg xmlns="http://www.w3.org/2000/svg" xmlns:xlink="http://www.w3.org/1999/xlink" width="512" height="512" viewBox="0 0 512 512">
  <defs>
    <path id="bog1" fill="#73b386" d="m-3.75,-1.25 c0,.25 .25,.5 .5,1 .23629,.7 .22479,-.01 .25,1.75 .75,-.25 1,-.25 1.25,-.25 0,-1.25 -.5,-1.75 -1,-2.25 -.5,-.25 -.5,-.25 -1,-.25 z m2.25,-2.5 c-0.125,0 0,.5 .25,1.75 .25,1.75 .25,1.5 0,3.25 .5,0 1,-.25 1.5,-.25 0,-1.5 -.25,-1.75 -.75,-3.5 -.25,-1 -.875,-1.25 -1,-1.25 z m4.25,.75 c-0.25,0 -.5,0 -1,.5 -.75,1 -.75,1.5 -1,3.5 .5,0 1,.25 1.5,.25 -.0005,-1.6198 0,-3 .5,-4.25 z m2,2 c0,.25 -.25,.25 -.5,.75 -.25,1 -.25,.75 -.25,1.75 -.75,-.25 -1,-.25 -1.25,-.23 .011,-1.59 .75,-1.77 1,-2.02 .5,-.25 .5,-.25 1,-.25 z"/>
  </defs>
  <use x="247" y="70" xlink:href="#bog1"/>
  <use x="269" y="64" xlink:href="#bog1"/>
  <use x="312" y="70" xlink:href="#bog1"/>
  <use x="363" y="68" xlink:href="#bog1"/>
  <use x="432" y="50" xlink:href="#bog1"/>
  <use x="432" y="50" xlink:href="#bog1"/>
  <use x="475" y="54" xlink:href="#bog1"/>
  <use x="492" y="69" xlink:href="#bog1"/>
  <use x="11" y="49" xlink:href="#bog1"/>
  <use x="11" y="49" xlink:href="#bog1"/>
  <use x="83" y="61" xlink:href="#bog1"/>
  <use x="146" y="69" xlink:href="#bog1"/>
  <use x="176" y="50" xlink:href="#bog1"/>
  <use x="176" y="50" xlink:href="#bog1"/>
  <use x="228" y="46" xlink:href="#bog1"/>
  <use x="231" y="72" xlink:href="#bog1"/>
  <use x="291" y="83" xlink:href="#bog1"/>
  <use x="386" y="89" xlink:href="#bog1"/>
  <use x="404" y="80" xlink:href="#bog1"/>
  <use x="427" y="75" xlink:href="#bog1"/>
  <use x="450" y="89" xlink:href="#bog1"/>
  <use x="468" y="81" xlink:href="#bog1"/>
  <use x="71" y="82" xlink:href="#bog1"/>
  <use x="118" y="76" xlink:href="#bog1"/>
  <use x="153" y="88" xlink:href="#bog1"/>
  <use x="207" y="82" xlink:href="#bog1"/>
  <use x="236" y="95" xlink:href="#bog1"/>
  <use x="236" y="95" xlink:href="#bog1"/>
  <use x="289" y="106" xlink:href="#bog1"/>
  <use x="367" y="99" xlink:href="#bog1"/>
  <use x="412" y="110" xlink:href="#bog1"/>
  <use x="430" y="100" xlink:href="#bog1"/>
  <use x="76" y="108" xlink:href="#bog1"/>
  <use x="101" y="102" xlink:href="#bog1"/>
  <use x="143" y="110" xlink:href="#bog1"/>
  <use x="216" y="100" xlink:href="#bog1"/>
  <use x="253" y="134" xlink:href="#bog1"/>
  <use x="276" y="123" xlink:href="#bog1"/>
  <use x="314" y="134" xlink:href="#bog1"/>
  <use x="336" y="129" xlink:href="#bog1"/>
  <use x="353" y="124" xlink:href="#bog1"/>
  <use x="432" y="134" xlink:href="#bog1"/>
  <use x="457" y="129" xlink:href="#bog1"/>
  <use x="11" y="125" xlink:href="#bog1"/>
  <use x="32" y="133" xlink:href="#bog1"/>
  <use x="94" y="124" xlink:href="#bog1"/>
  <use x="131" y="129" xlink:href="#bog1"/>
  <use x="158" y="127" xlink:href="#bog1"/>
  <use x="175" y="136" xlink:href="#bog1"/>
  <use x="205" y="131" xlink:href="#bog1"/>
  <use x="248" y="155" xlink:href="#bog1"/>
  <use x="317" y="153" xlink:href="#bog1"/>
  <use x="397" y="155" xlink:href="#bog1"/>
  <use x="423" y="152" xlink:href="#bog1"/>
  <use x="447" y="154" xlink:href="#bog1"/>
  <use x="489" y="159" xlink:href="#bog1"/>
  <use x="31" y="153" xlink:href="#bog1"/>
  <use x="67" y="156" xlink:href="#bog1"/>
  <use x="74" y="140" xlink:href="#bog1"/>
  <use x="131" y="155" xlink:href="#bog1"/>
  <use x="147" y="152" xlink:href="#bog1"/>
  <use x="202" y="150" xlink:href="#bog1"/>
  <use x="285" y="177" xlink:href="#bog1"/>
  <use x="305" y="180" xlink:href="#bog1"/>
  <use x="401" y="177" xlink:href="#bog1"/>
  <use x="476" y="181" xlink:href="#bog1"/>
  <use x="499" y="178" xlink:href="#bog1"/>
  <use x="12" y="171" xlink:href="#bog1"/>
  <use x="48" y="165" xlink:href="#bog1"/>
  <use x="83" y="172" xlink:href="#bog1"/>
  <use x="112" y="166" xlink:href="#bog1"/>
  <use x="126" y="180" xlink:href="#bog1"/>
  <use x="202" y="173" xlink:href="#bog1"/>
  <use x="221" y="184" xlink:href="#bog1"/>
  <use x="262" y="197" xlink:href="#bog1"/>
  <use x="318" y="195" xlink:href="#bog1"/>
  <use x="457" y="192" xlink:href="#bog1"/>
  <use x="16" y="193" xlink:href="#bog1"/>
  <use x="45" y="205" xlink:href="#bog1"/>
  <use x="59" y="188" xlink:href="#bog1"/>
  <use x="80" y="193" xlink:href="#bog1"/>
  <use x="99" y="203" xlink:href="#bog1"/>
  <use x="117" y="200" xlink:href="#bog1"/>
  <use x="144" y="191" xlink:href="#bog1"/>
  <use x="220" y="207" xlink:href="#bog1"/>
  <use x="263" y="229" xlink:href="#bog1"/>
  <use x="284" y="215" xlink:href="#bog1"/>
  <use x="358" y="224" xlink:href="#bog1"/>
  <use x="418" y="216" xlink:href="#bog1"/>
  <use x="453" y="224" xlink:href="#bog1"/>
  <use x="474" y="222" xlink:href="#bog1"/>
  <use x="11" y="214" xlink:href="#bog1"/>
  <use x="27" y="228" xlink:href="#bog1"/>
  <use x="75" y="219" xlink:href="#bog1"/>
  <use x="255" y="252" xlink:href="#bog1"/>
  <use x="278" y="240" xlink:href="#bog1"/>
  <use x="319" y="251" xlink:href="#bog1"/>
  <use x="341" y="243" xlink:href="#bog1"/>
  <use x="363" y="247" xlink:href="#bog1"/>
  <use x="418" y="243" xlink:href="#bog1"/>
  <use x="452" y="248" xlink:href="#bog1"/>
  <use x="477" y="246" xlink:href="#bog1"/>
  <use x="29" y="252" xlink:href="#bog1"/>
  <use x="51" y="246" xlink:href="#bog1"/>
  <use x="178" y="232" xlink:href="#bog1"/>
  <use x="191" y="243" xlink:href="#bog1"/>
  <use x="229" y="248" xlink:href="#bog1"/>
  <use x="229" y="248" xlink:href="#bog1"/>
  <use x="249" y="271" xlink:href="#bog1"/>
  <use x="273" y="266" xlink:href="#bog1"/>
  <use x="291" y="264" xlink:href="#bog1"/>
  <use x="315" y="271" xlink:href="#bog1"/>
  <use x="396" y="276" xlink:href="#bog1"/>
  <use x="454" y="269" xlink:href="#bog1"/>
  <use x="487" y="265" xlink:href="#bog1"/>
  <use x="507" y="276" xlink:href="#bog1"/>
  <use x="87" y="266" xlink:href="#bog1"/>
  <use x="120" y="264" xlink:href="#bog1"/>
  <use x="165" y="259" xlink:href="#bog1"/>
  <use x="212" y="263" xlink:href="#bog1"/>
  <use x="249" y="295" xlink:href="#bog1"/>
  <use x="271" y="292" xlink:href="#bog1"/>
  <use x="297" y="292" xlink:href="#bog1"/>
  <use x="336" y="295" xlink:href="#bog1"/>
  <use x="360" y="300" xlink:href="#bog1"/>
  <use x="4" y="293" xlink:href="#bog1"/>
  <use x="32" y="297" xlink:href="#bog1"/>
  <use x="195" y="291" xlink:href="#bog1"/>
  <use x="283" y="309" xlink:href="#bog1"/>
  <use x="352" y="323" xlink:href="#bog1"/>
  <use x="379" y="315" xlink:href="#bog1"/>
  <use x="413" y="318" xlink:href="#bog1"/>
  <use x="436" y="304" xlink:href="#bog1"/>
  <use x="457" y="316" xlink:href="#bog1"/>
  <use x="481" y="315" xlink:href="#bog1"/>
  <use x="12" y="313" xlink:href="#bog1"/>
  <use x="57" y="310" xlink:href="#bog1"/>
  <use x="120" y="322" xlink:href="#bog1"/>
  <use x="132" y="303" xlink:href="#bog1"/>
  <use x="151" y="320" xlink:href="#bog1"/>
  <use x="174" y="317" xlink:href="#bog1"/>
  <use x="196" y="307" xlink:href="#bog1"/>
  <use x="220" y="301" xlink:href="#bog1"/>
  <use x="232" y="343" xlink:href="#bog1"/>
  <use x="232" y="343" xlink:href="#bog1"/>
  <use x="264" y="342" xlink:href="#bog1"/>
  <use x="281" y="330" xlink:href="#bog1"/>
  <use x="327" y="349" xlink:href="#bog1"/>
  <use x="406" y="345" xlink:href="#bog1"/>
  <use x="469" y="335" xlink:href="#bog1"/>
  <use x="496" y="339" xlink:href="#bog1"/>
  <use x="37" y="342" xlink:href="#bog1"/>
  <use x="56" y="331" xlink:href="#bog1"/>
  <use x="101" y="329" xlink:href="#bog1"/>
  <use x="178" y="344" xlink:href="#bog1"/>
  <use x="195" y="330" xlink:href="#bog1"/>
  <use x="247" y="359" xlink:href="#bog1"/>
  <use x="308" y="368" xlink:href="#bog1"/>
  <use x="343" y="357" xlink:href="#bog1"/>
  <use x="379" y="362" xlink:href="#bog1"/>
  <use x="412" y="364" xlink:href="#bog1"/>
  <use x="430" y="354" xlink:href="#bog1"/>
  <use x="18" y="360" xlink:href="#bog1"/>
  <use x="56" y="359" xlink:href="#bog1"/>
  <use x="78" y="360" xlink:href="#bog1"/>
  <use x="99" y="357" xlink:href="#bog1"/>
  <use x="142" y="365" xlink:href="#bog1"/>
  <use x="162" y="360" xlink:href="#bog1"/>
  <use x="221" y="360" xlink:href="#bog1"/>
  <use x="275" y="394" xlink:href="#bog1"/>
  <use x="286" y="373" xlink:href="#bog1"/>
  <use x="316" y="383" xlink:href="#bog1"/>
  <use x="335" y="384" xlink:href="#bog1"/>
  <use x="383" y="389" xlink:href="#bog1"/>
  <use x="427" y="383" xlink:href="#bog1"/>
  <use x="451" y="390" xlink:href="#bog1"/>
  <use x="9" y="377" xlink:href="#bog1"/>
  <use x="62" y="380" xlink:href="#bog1"/>
  <use x="160" y="383" xlink:href="#bog1"/>
  <use x="181" y="379" xlink:href="#bog1"/>
  <use x="200" y="375" xlink:href="#bog1"/>
  <use x="224" y="387" xlink:href="#bog1"/>
  <use x="239" y="416" xlink:href="#bog1"/>
  <use x="337" y="412" xlink:href="#bog1"/>
  <use x="366" y="407" xlink:href="#bog1"/>
  <use x="431" y="407" xlink:href="#bog1"/>
  <use x="454" y="412" xlink:href="#bog1"/>
  <use x="477" y="400" xlink:href="#bog1"/>
  <use x="501" y="413" xlink:href="#bog1"/>
  <use x="4" y="400" xlink:href="#bog1"/>
  <use x="65" y="404" xlink:href="#bog1"/>
  <use x="87" y="415" xlink:href="#bog1"/>
  <use x="149" y="401" xlink:href="#bog1"/>
  <use x="213" y="410" xlink:href="#bog1"/>
  <use x="243" y="437" xlink:href="#bog1"/>
  <use x="276" y="419" xlink:href="#bog1"/>
  <use x="359" y="430" xlink:href="#bog1"/>
  <use x="462" y="436" xlink:href="#bog1"/>
  <use x="31" y="425" xlink:href="#bog1"/>
  <use x="78" y="431" xlink:href="#bog1"/>
  <use x="181" y="421" xlink:href="#bog1"/>
  <use x="265" y="437" xlink:href="#bog1"/>
  <use x="288" y="457" xlink:href="#bog1"/>
  <use x="362" y="452" xlink:href="#bog1"/>
  <use x="420" y="445" xlink:href="#bog1"/>
  <use x="425" y="462" xlink:href="#bog1"/>
  <use x="20" y="453" xlink:href="#bog1"/>
  <use x="38" y="458" xlink:href="#bog1"/>
  <use x="55" y="457" xlink:href="#bog1"/>
  <use x="74" y="451" xlink:href="#bog1"/>
  <use x="97" y="444" xlink:href="#bog1"/>
  <use x="134" y="461" xlink:href="#bog1"/>
  <use x="159" y="447" xlink:href="#bog1"/>
  <use x="175" y="461" xlink:href="#bog1"/>
  <use x="185" y="443" xlink:href="#bog1"/>
  <use x="224" y="456" xlink:href="#bog1"/>
  <use x="241" y="474" xlink:href="#bog1"/>
  <use x="266" y="474" xlink:href="#bog1"/>
  <use x="340" y="476" xlink:href="#bog1"/>
  <use x="361" y="471" xlink:href="#bog1"/>
  <use x="398" y="489" xlink:href="#bog1"/>
  <use x="456" y="479" xlink:href="#bog1"/>
  <use x="497" y="485" xlink:href="#bog1"/>
  <use x="9" y="471" xlink:href="#bog1"/>
  <use x="49" y="483" xlink:href="#bog1"/>
  <use x="80" y="477" xlink:href="#bog1"/>
  <use x="100" y="469" xlink:href="#bog1"/>
  <use x="150" y="477" xlink:href="#bog1"/>
  <use x="213" y="474" xlink:href="#bog1"/>
  <use x="250" y="499" xlink:href="#bog1"/>
  <use x="271" y="500" xlink:href="#bog1"/>
  <use x="291" y="498" xlink:href="#bog1"/>
  <use x="313" y="502" xlink:href="#bog1"/>
  <use x="335" y="501" xlink:href="#bog1"/>
  <use x="358" y="499" xlink:href="#bog1"/>
  <use x="451" y="501" xlink:href="#bog1"/>
  <use x="470" y="500" xlink:href="#bog1"/>
  <use x="5" y="497" xlink:href="#bog1"/>
  <use x="42" y="506" xlink:href="#bog1"/>
  <use x="65" y="499" xlink:href="#bog1"/>
  <use x="126" y="502" xlink:href="#bog1"/>
  <use x="154" y="499" xlink:href="#bog1"/>
  <use x="228" y="494" xlink:href="#bog1"/>
  <use x="248" y="11" xlink:href="#bog1"/>
  <use x="272" y="11" xlink:href="#bog1"/>
  <use x="432" y="6" xlink:href="#bog1"/>
  <use x="484" y="11" xlink:href="#bog1"/>
  <use x="506" y="13" xlink:href="#bog1"/>
  <use x="170" y="9" xlink:href="#bog1"/>
  <use x="188" y="21" xlink:href="#bog1"/>
  <use x="226" y="9" xlink:href="#bog1"/>
  <use x="249" y="34" xlink:href="#bog1"/>
  <use x="265" y="44" xlink:href="#bog1"/>
  <use x="285" y="40" xlink:href="#bog1"/>
  <use x="331" y="36" xlink:href="#bog1"/>
  <use x="353" y="40" xlink:href="#bog1"/>
  <use x="376" y="37" xlink:href="#bog1"/>
  <use x="399" y="36" xlink:href="#bog1"/>
  <use x="423" y="31" xlink:href="#bog1"/>
  <use x="4" y="34" xlink:href="#bog1"/>
  <use x="37" y="40" xlink:href="#bog1"/>
  <use x="86" y="40" xlink:href="#bog1"/>
  <use x="114" y="36" xlink:href="#bog1"/>
  <use x="165" y="33" xlink:href="#bog1"/>
  <use x="201" y="40" xlink:href="#bog1"/>
  <use x="299" y="53" xlink:href="#bog1"/>
  <use x="299" y="53" xlink:href="#bog1"/>
  <use x="338" y="62" xlink:href="#bog1"/>
  <use x="389" y="64" xlink:href="#bog1"/>
  <use x="409" y="55" xlink:href="#bog1"/>
  <use x="457" y="64" xlink:href="#bog1"/>
  <use x="26" y="62" xlink:href="#bog1"/>
  <use x="57" y="56" xlink:href="#bog1"/>
  <use x="105" y="54" xlink:href="#bog1"/>
  <use x="129" y="57" xlink:href="#bog1"/>
  <use x="206" y="59" xlink:href="#bog1"/>
  <use x="273" y="84" xlink:href="#bog1"/>
  <use x="309" y="89" xlink:href="#bog1"/>
  <use x="329" y="87" xlink:href="#bog1"/>
  <use x="353" y="83" xlink:href="#bog1"/>
  <use x="505" y="87" xlink:href="#bog1"/>
  <use x="8" y="74" xlink:href="#bog1"/>
  <use x="33" y="78" xlink:href="#bog1"/>
  <use x="53" y="80" xlink:href="#bog1"/>
  <use x="95" y="80" xlink:href="#bog1"/>
  <use x="182" y="91" xlink:href="#bog1"/>
  <use x="181" y="72" xlink:href="#bog1"/>
  <use x="258" y="102" xlink:href="#bog1"/>
  <use x="306" y="116" xlink:href="#bog1"/>
  <use x="337" y="102" xlink:href="#bog1"/>
  <use x="371" y="117" xlink:href="#bog1"/>
  <use x="445" y="112" xlink:href="#bog1"/>
  <use x="483" y="96" xlink:href="#bog1"/>
  <use x="497" y="114" xlink:href="#bog1"/>
  <use x="12" y="102" xlink:href="#bog1"/>
  <use x="35" y="103" xlink:href="#bog1"/>
  <use x="59" y="112" xlink:href="#bog1"/>
  <use x="124" y="100" xlink:href="#bog1"/>
  <use x="168" y="108" xlink:href="#bog1"/>
  <use x="193" y="112" xlink:href="#bog1"/>
  <use x="239" y="121" xlink:href="#bog1"/>
  <use x="394" y="117" xlink:href="#bog1"/>
  <use x="405" y="135" xlink:href="#bog1"/>
  <use x="475" y="118" xlink:href="#bog1"/>
  <use x="501" y="135" xlink:href="#bog1"/>
  <use x="48" y="124" xlink:href="#bog1"/>
  <use x="111" y="136" xlink:href="#bog1"/>
  <use x="221" y="122" xlink:href="#bog1"/>
  <use x="274" y="144" xlink:href="#bog1"/>
  <use x="294" y="149" xlink:href="#bog1"/>
  <use x="346" y="159" xlink:href="#bog1"/>
  <use x="360" y="147" xlink:href="#bog1"/>
  <use x="380" y="142" xlink:href="#bog1"/>
  <use x="476" y="144" xlink:href="#bog1"/>
  <use x="6" y="150" xlink:href="#bog1"/>
  <use x="95" y="154" xlink:href="#bog1"/>
  <use x="182" y="155" xlink:href="#bog1"/>
  <use x="223" y="158" xlink:href="#bog1"/>
  <use x="242" y="177" xlink:href="#bog1"/>
  <use x="266" y="166" xlink:href="#bog1"/>
  <use x="331" y="172" xlink:href="#bog1"/>
  <use x="363" y="183" xlink:href="#bog1"/>
  <use x="379" y="176" xlink:href="#bog1"/>
  <use x="427" y="173" xlink:href="#bog1"/>
  <use x="460" y="168" xlink:href="#bog1"/>
  <use x="33" y="185" xlink:href="#bog1"/>
  <use x="156" y="172" xlink:href="#bog1"/>
  <use x="176" y="174" xlink:href="#bog1"/>
  <use x="243" y="199" xlink:href="#bog1"/>
  <use x="284" y="197" xlink:href="#bog1"/>
  <use x="341" y="192" xlink:href="#bog1"/>
  <use x="356" y="204" xlink:href="#bog1"/>
  <use x="393" y="202" xlink:href="#bog1"/>
  <use x="416" y="196" xlink:href="#bog1"/>
  <use x="439" y="199" xlink:href="#bog1"/>
  <use x="480" y="202" xlink:href="#bog1"/>
  <use x="504" y="200" xlink:href="#bog1"/>
  <use x="180" y="206" xlink:href="#bog1"/>
  <use x="194" y="194" xlink:href="#bog1"/>
  <use x="241" y="224" xlink:href="#bog1"/>
  <use x="308" y="214" xlink:href="#bog1"/>
  <use x="331" y="221" xlink:href="#bog1"/>
  <use x="378" y="215" xlink:href="#bog1"/>
  <use x="435" y="230" xlink:href="#bog1"/>
  <use x="498" y="223" xlink:href="#bog1"/>
  <use x="52" y="222" xlink:href="#bog1"/>
  <use x="108" y="230" xlink:href="#bog1"/>
  <use x="130" y="219" xlink:href="#bog1"/>
  <use x="148" y="220" xlink:href="#bog1"/>
  <use x="162" y="210" xlink:href="#bog1"/>
  <use x="201" y="218" xlink:href="#bog1"/>
  <use x="217" y="234" xlink:href="#bog1"/>
  <use x="302" y="238" xlink:href="#bog1"/>
  <use x="390" y="234" xlink:href="#bog1"/>
  <use x="400" y="251" xlink:href="#bog1"/>
  <use x="503" y="239" xlink:href="#bog1"/>
  <use x="4" y="255" xlink:href="#bog1"/>
  <use x="76" y="249" xlink:href="#bog1"/>
  <use x="90" y="233" xlink:href="#bog1"/>
  <use x="122" y="244" xlink:href="#bog1"/>
  <use x="152" y="242" xlink:href="#bog1"/>
  <use x="339" y="266" xlink:href="#bog1"/>
  <use x="362" y="277" xlink:href="#bog1"/>
  <use x="378" y="264" xlink:href="#bog1"/>
  <use x="424" y="261" xlink:href="#bog1"/>
  <use x="20" y="277" xlink:href="#bog1"/>
  <use x="39" y="272" xlink:href="#bog1"/>
  <use x="62" y="267" xlink:href="#bog1"/>
  <use x="103" y="277" xlink:href="#bog1"/>
  <use x="140" y="262" xlink:href="#bog1"/>
  <use x="193" y="266" xlink:href="#bog1"/>
  <use x="317" y="291" xlink:href="#bog1"/>
  <use x="380" y="297" xlink:href="#bog1"/>
  <use x="404" y="296" xlink:href="#bog1"/>
  <use x="425" y="284" xlink:href="#bog1"/>
  <use x="449" y="292" xlink:href="#bog1"/>
  <use x="467" y="285" xlink:href="#bog1"/>
  <use x="489" y="292" xlink:href="#bog1"/>
  <use x="60" y="286" xlink:href="#bog1"/>
  <use x="81" y="296" xlink:href="#bog1"/>
  <use x="112" y="294" xlink:href="#bog1"/>
  <use x="142" y="284" xlink:href="#bog1"/>
  <use x="159" y="299" xlink:href="#bog1"/>
  <use x="173" y="280" xlink:href="#bog1"/>
  <use x="226" y="280" xlink:href="#bog1"/>
  <use x="239" y="321" xlink:href="#bog1"/>
  <use x="258" y="316" xlink:href="#bog1"/>
  <use x="310" y="314" xlink:href="#bog1"/>
  <use x="330" y="320" xlink:href="#bog1"/>
  <use x="500" y="317" xlink:href="#bog1"/>
  <use x="34" y="318" xlink:href="#bog1"/>
  <use x="88" y="313" xlink:href="#bog1"/>
  <use x="306" y="335" xlink:href="#bog1"/>
  <use x="366" y="343" xlink:href="#bog1"/>
  <use x="386" y="334" xlink:href="#bog1"/>
  <use x="432" y="329" xlink:href="#bog1"/>
  <use x="445" y="345" xlink:href="#bog1"/>
  <use x="14" y="338" xlink:href="#bog1"/>
  <use x="78" y="336" xlink:href="#bog1"/>
  <use x="119" y="345" xlink:href="#bog1"/>
  <use x="147" y="338" xlink:href="#bog1"/>
  <use x="217" y="326" xlink:href="#bog1"/>
  <use x="264" y="371" xlink:href="#bog1"/>
  <use x="296" y="351" xlink:href="#bog1"/>
  <use x="361" y="367" xlink:href="#bog1"/>
  <use x="458" y="366" xlink:href="#bog1"/>
  <use x="475" y="355" xlink:href="#bog1"/>
  <use x="504" y="357" xlink:href="#bog1"/>
  <use x="38" y="371" xlink:href="#bog1"/>
  <use x="119" y="369" xlink:href="#bog1"/>
  <use x="200" y="356" xlink:href="#bog1"/>
  <use x="245" y="384" xlink:href="#bog1"/>
  <use x="353" y="389" xlink:href="#bog1"/>
  <use x="399" y="380" xlink:href="#bog1"/>
  <use x="477" y="379" xlink:href="#bog1"/>
  <use x="497" y="380" xlink:href="#bog1"/>
  <use x="44" y="394" xlink:href="#bog1"/>
  <use x="82" y="387" xlink:href="#bog1"/>
  <use x="101" y="383" xlink:href="#bog1"/>
  <use x="127" y="388" xlink:href="#bog1"/>
  <use x="255" y="403" xlink:href="#bog1"/>
  <use x="296" y="400" xlink:href="#bog1"/>
  <use x="316" y="412" xlink:href="#bog1"/>
  <use x="392" y="407" xlink:href="#bog1"/>
  <use x="412" y="408" xlink:href="#bog1"/>
  <use x="25" y="403" xlink:href="#bog1"/>
  <use x="107" y="408" xlink:href="#bog1"/>
  <use x="128" y="414" xlink:href="#bog1"/>
  <use x="171" y="407" xlink:href="#bog1"/>
  <use x="196" y="399" xlink:href="#bog1"/>
  <use x="289" y="433" xlink:href="#bog1"/>
  <use x="309" y="435" xlink:href="#bog1"/>
  <use x="342" y="438" xlink:href="#bog1"/>
  <use x="382" y="428" xlink:href="#bog1"/>
  <use x="405" y="434" xlink:href="#bog1"/>
  <use x="440" y="429" xlink:href="#bog1"/>
  <use x="478" y="424" xlink:href="#bog1"/>
  <use x="504" y="437" xlink:href="#bog1"/>
  <use x="13" y="430" xlink:href="#bog1"/>
  <use x="53" y="425" xlink:href="#bog1"/>
  <use x="115" y="439" xlink:href="#bog1"/>
  <use x="134" y="438" xlink:href="#bog1"/>
  <use x="150" y="425" xlink:href="#bog1"/>
  <use x="201" y="439" xlink:href="#bog1"/>
  <use x="220" y="430" xlink:href="#bog1"/>
  <use x="254" y="457" xlink:href="#bog1"/>
  <use x="323" y="462" xlink:href="#bog1"/>
  <use x="323" y="445" xlink:href="#bog1"/>
  <use x="387" y="452" xlink:href="#bog1"/>
  <use x="451" y="457" xlink:href="#bog1"/>
  <use x="482" y="445" xlink:href="#bog1"/>
  <use x="501" y="461" xlink:href="#bog1"/>
  <use x="292" y="478" xlink:href="#bog1"/>
  <use x="313" y="479" xlink:href="#bog1"/>
  <use x="391" y="469" xlink:href="#bog1"/>
  <use x="419" y="479" xlink:href="#bog1"/>
  <use x="477" y="472" xlink:href="#bog1"/>
  <use x="27" y="489" xlink:href="#bog1"/>
  <use x="123" y="478" xlink:href="#bog1"/>
  <use x="173" y="486" xlink:href="#bog1"/>
  <use x="192" y="474" xlink:href="#bog1"/>
  <use x="376" y="492" xlink:href="#bog1"/>
  <use x="399" y="507" xlink:href="#bog1"/>
  <use x="432" y="493" xlink:href="#bog1"/>
  <use x="494" y="505" xlink:href="#bog1"/>
  <use x="87" y="500" xlink:href="#bog1"/>
  <use x="106" y="496" xlink:href="#bog1"/>
  <use x="186" y="506" xlink:href="#bog1"/>
  <use x="208" y="502" xlink:href="#bog1"/>
  <use x="289" y="21" xlink:href="#bog1"/>
  <use x="310" y="9" xlink:href="#bog1"/>
  <use x="342" y="20" xlink:href="#bog1"/>
  <use x="356" y="9" xlink:href="#bog1"/>
  <use x="378" y="15" xlink:href="#bog1"/>
  <use x="411" y="13" xlink:href="#bog1"/>
  <use x="452" y="19" xlink:href="#bog1"/>
  <use x="18" y="7" xlink:href="#bog1"/>
  <use x="37" y="17" xlink:href="#bog1"/>
  <use x="60" y="8" xlink:href="#bog1"/>
  <use x="81" y="18" xlink:href="#bog1"/>
  <use x="101" y="10" xlink:href="#bog1"/>
  <use x="124" y="12" xlink:href="#bog1"/>
  <use x="147" y="7" xlink:href="#bog1"/>
  <use x="313" y="31" xlink:href="#bog1"/>
  <use x="451" y="41" xlink:href="#bog1"/>
  <use x="473" y="30" xlink:href="#bog1"/>
  <use x="493" y="38" xlink:href="#bog1"/>
  <use x="64" y="33" xlink:href="#bog1"/>
  <use x="138" y="28" xlink:href="#bog1"/>
  <use x="150" y="47" xlink:href="#bog1"/>
  <use x="150" y="47" xlink:href="#bog1"/>
  <use x="214" y="22" xlink:href="#bog1"/>
  <path stroke="#73b386" stroke-width=".75" d="
M245.5,72.625 h8
M267.5,66.625 h8
M310.5,72.625 h8
M361.5,70.625 h8
M430.5,52.625 h8 m-8,0 h8
M473.5,56.625 h8
M490.5,71.625 h8
M9.5,51.625 h8 m-8,0 h8
M81.5,63.625 h8
M144.5,71.625 h8
M174.5,52.625 h8 m-8,0 h8
M226.5,48.625 h8
M229.5,74.625 h8
M289.5,85.625 h8
M384.5,91.625 h8
M402.5,82.625 h8
M425.5,77.625 h8
M448.5,91.625 h8
M466.5,83.625 h8
M69.5,84.625 h8
M116.5,78.625 h8
M151.5,90.625 h8
M205.5,84.625 h8
M234.5,97.625 h8 m-8,0 h8
M287.5,108.625 h8
M365.5,101.625 h8
M410.5,112.625 h8
M428.5,102.625 h8
M74.5,110.625 h8
M99.5,104.625 h8
M141.5,112.625 h8
M214.5,102.625 h8
M251.5,136.625 h8
M274.5,125.625 h8
M312.5,136.625 h8
M334.5,131.625 h8
M351.5,126.625 h8
M430.5,136.625 h8
M455.5,131.625 h8
M9.5,127.625 h8
M30.5,135.625 h8
M92.5,126.625 h8
M129.5,131.625 h8
M156.5,129.625 h8
M173.5,138.625 h8
M203.5,133.625 h8
M246.5,157.625 h8
M315.5,155.625 h8
M395.5,157.625 h8
M421.5,154.625 h8
M445.5,156.625 h8
M487.5,161.625 h8
M29.5,155.625 h8
M65.5,158.625 h8
M72.5,142.625 h8
M129.5,157.625 h8
M145.5,154.625 h8
M200.5,152.625 h8
M283.5,179.625 h8
M303.5,182.625 h8
M399.5,179.625 h8
M474.5,183.625 h8
M497.5,180.625 h8
M10.5,173.625 h8
M46.5,167.625 h8
M81.5,174.625 h8
M110.5,168.625 h8
M124.5,182.625 h8
M200.5,175.625 h8
M219.5,186.625 h8
M260.5,199.625 h8
M316.5,197.625 h8
M455.5,194.625 h8
M14.5,195.625 h8
M43.5,207.625 h8
M57.5,190.625 h8
M78.5,195.625 h8
M97.5,205.625 h8
M115.5,202.625 h8
M142.5,193.625 h8
M218.5,209.625 h8
M261.5,231.625 h8
M282.5,217.625 h8
M356.5,226.625 h8
M416.5,218.625 h8
M451.5,226.625 h8
M472.5,224.625 h8
M9.5,216.625 h8
M25.5,230.625 h8
M73.5,221.625 h8
M253.5,254.625 h8
M276.5,242.625 h8
M317.5,253.625 h8
M339.5,245.625 h8
M361.5,249.625 h8
M416.5,245.625 h8
M450.5,250.625 h8
M475.5,248.625 h8
M27.5,254.625 h8
M49.5,248.625 h8
M176.5,234.625 h8
M189.5,245.625 h8
M227.5,250.625 h8 m-8,0 h8
M247.5,273.625 h8
M271.5,268.625 h8
M289.5,266.625 h8
M313.5,273.625 h8
M394.5,278.625 h8
M452.5,271.625 h8
M485.5,267.625 h8
M505.5,278.625 h6.5 m-512,0 h1.5
M85.5,268.625 h8
M118.5,266.625 h8
M163.5,261.625 h8
M210.5,265.625 h8
M247.5,297.625 h8
M269.5,294.625 h8 m18,0 h8
M334.5,297.625 h8
M358.5,302.625 h8
M2.5,295.625 h8
M30.5,299.625 h8
M193.5,293.625 h8
M281.5,311.625 h8
M350.5,325.625 h8
M377.5,317.625 h8
M411.5,320.625 h8
M434.5,306.625 h8
M455.5,318.625 h8
M479.5,317.625 h8
M10.5,315.625 h8
M55.5,312.625 h8
M118.5,324.625 h8
M130.5,305.625 h8
M149.5,322.625 h8
M172.5,319.625 h8
M194.5,309.625 h8
M218.5,303.625 h8
M230.5,345.625 h8 m-8,0 h8
M262.5,344.625 h8
M279.5,332.625 h8
M325.5,351.625 h8
M404.5,347.625 h8
M467.5,337.625 h8
M494.5,341.625 h8
M35.5,344.625 h8
M54.5,333.625 h8
M99.5,331.625 h8
M176.5,346.625 h8
M193.5,332.625 h8
M245.5,361.625 h8
M306.5,370.625 h8
M341.5,359.625 h8
M377.5,364.625 h8
M410.5,366.625 h8
M428.5,356.625 h8
M16.5,362.625 h8
M54.5,361.625 h8
M76.5,362.625 h8
M97.5,359.625 h8
M140.5,367.625 h8
M160.5,362.625 h8 m51,0 h8
M273.5,396.625 h8
M284.5,375.625 h8
M314.5,385.625 h8
M333.5,386.625 h8
M381.5,391.625 h8
M425.5,385.625 h8
M449.5,392.625 h8
M7.5,379.625 h8
M60.5,382.625 h8
M158.5,385.625 h8
M179.5,381.625 h8
M198.5,377.625 h8
M222.5,389.625 h8
M237.5,418.625 h8
M335.5,414.625 h8
M364.5,409.625 h8 m57,0 h8
M452.5,414.625 h8
M475.5,402.625 h8
M499.5,415.625 h8
M2.5,402.625 h8
M63.5,406.625 h8
M85.5,417.625 h8
M147.5,403.625 h8
M211.5,412.625 h8
M241.5,439.625 h8
M274.5,421.625 h8
M357.5,432.625 h8
M460.5,438.625 h8
M29.5,427.625 h8
M76.5,433.625 h8
M179.5,423.625 h8
M263.5,439.625 h8
M286.5,459.625 h8
M360.5,454.625 h8
M418.5,447.625 h8
M423.5,464.625 h8
M18.5,455.625 h8
M36.5,460.625 h8
M53.5,459.625 h8
M72.5,453.625 h8
M95.5,446.625 h8
M132.5,463.625 h8
M157.5,449.625 h8
M173.5,463.625 h8
M183.5,445.625 h8
M222.5,458.625 h8
M239.5,476.625 h8 m17,0 h8
M338.5,478.625 h8
M359.5,473.625 h8
M396.5,491.625 h8
M454.5,481.625 h8
M495.5,487.625 h8
M7.5,473.625 h8
M47.5,485.625 h8
M78.5,479.625 h8
M98.5,471.625 h8
M148.5,479.625 h8
M211.5,476.625 h8
M248.5,501.625 h8
M269.5,502.625 h8
M289.5,500.625 h8
M311.5,504.625 h8
M333.5,503.625 h8
M356.5,501.625 h8
M449.5,503.625 h8
M468.5,502.625 h8
M3.5,499.625 h8
M40.5,508.625 h8
M63.5,501.625 h8
M124.5,504.625 h8
M152.5,501.625 h8
M226.5,496.625 h8
M246.5,13.625 h8 m16,0 h8
M430.5,8.625 h8
M482.5,13.625 h8
M504.5,15.625 h7.5 m-512,0 h0.5
M168.5,11.625 h8
M186.5,23.625 h8
M224.5,11.625 h8
M247.5,36.625 h8
M263.5,46.625 h8
M283.5,42.625 h8
M329.5,38.625 h8
M351.5,42.625 h8
M374.5,39.625 h8
M397.5,38.625 h8
M421.5,33.625 h8
M2.5,36.625 h8
M35.5,42.625 h8 m41,0 h8
M112.5,38.625 h8
M163.5,35.625 h8
M199.5,42.625 h8
M297.5,55.625 h8 m-8,0 h8
M336.5,64.625 h8
M387.5,66.625 h8
M407.5,57.625 h8
M455.5,66.625 h8
M24.5,64.625 h8
M55.5,58.625 h8
M103.5,56.625 h8
M127.5,59.625 h8
M204.5,61.625 h8
M271.5,86.625 h8
M307.5,91.625 h8
M327.5,89.625 h8
M351.5,85.625 h8
M503.5,89.625 h8
M6.5,76.625 h8
M31.5,80.625 h8
M51.5,82.625 h8 m34,0 h8
M180.5,93.625 h8
M179.5,74.625 h8
M256.5,104.625 h8
M304.5,118.625 h8
M335.5,104.625 h8
M369.5,119.625 h8
M443.5,114.625 h8
M481.5,98.625 h8
M495.5,116.625 h8
M10.5,104.625 h8
M33.5,105.625 h8
M57.5,114.625 h8
M122.5,102.625 h8
M166.5,110.625 h8
M191.5,114.625 h8
M237.5,123.625 h8
M392.5,119.625 h8
M403.5,137.625 h8
M473.5,120.625 h8
M499.5,137.625 h8
M46.5,126.625 h8
M109.5,138.625 h8
M219.5,124.625 h8
M272.5,146.625 h8
M292.5,151.625 h8
M344.5,161.625 h8
M358.5,149.625 h8
M378.5,144.625 h8
M474.5,146.625 h8
M4.5,152.625 h8
M93.5,156.625 h8
M180.5,157.625 h8
M221.5,160.625 h8
M240.5,179.625 h8
M264.5,168.625 h8
M329.5,174.625 h8
M361.5,185.625 h8
M377.5,178.625 h8
M425.5,175.625 h8
M458.5,170.625 h8
M31.5,187.625 h8
M154.5,174.625 h8
M174.5,176.625 h8
M241.5,201.625 h8
M282.5,199.625 h8
M339.5,194.625 h8
M354.5,206.625 h8
M391.5,204.625 h8
M414.5,198.625 h8
M437.5,201.625 h8
M478.5,204.625 h8
M502.5,202.625 h8
M178.5,208.625 h8
M192.5,196.625 h8
M239.5,226.625 h8
M306.5,216.625 h8
M329.5,223.625 h8
M376.5,217.625 h8
M433.5,232.625 h8
M496.5,225.625 h8
M50.5,224.625 h8
M106.5,232.625 h8
M128.5,221.625 h8
M146.5,222.625 h8
M160.5,212.625 h8
M199.5,220.625 h8
M215.5,236.625 h8
M300.5,240.625 h8
M388.5,236.625 h8
M398.5,253.625 h8
M501.5,241.625 h8
M2.5,257.625 h8
M74.5,251.625 h8
M88.5,235.625 h8
M120.5,246.625 h8
M150.5,244.625 h8
M337.5,268.625 h8
M360.5,279.625 h8
M376.5,266.625 h8
M422.5,263.625 h8
M18.5,279.625 h8
M37.5,274.625 h8
M60.5,269.625 h8
M101.5,279.625 h8
M138.5,264.625 h8
M191.5,268.625 h8
M315.5,293.625 h8
M378.5,299.625 h8
M402.5,298.625 h8
M423.5,286.625 h8
M447.5,294.625 h8
M465.5,287.625 h8
M487.5,294.625 h8
M58.5,288.625 h8
M79.5,298.625 h8
M110.5,296.625 h8
M140.5,286.625 h8
M157.5,301.625 h8
M171.5,282.625 h8 m45,0 h8
M237.5,323.625 h8
M256.5,318.625 h8
M308.5,316.625 h8
M328.5,322.625 h8
M498.5,319.625 h8
M32.5,320.625 h8
M86.5,315.625 h8
M304.5,337.625 h8
M364.5,345.625 h8
M384.5,336.625 h8
M430.5,331.625 h8
M443.5,347.625 h8
M12.5,340.625 h8
M76.5,338.625 h8
M117.5,347.625 h8
M145.5,340.625 h8
M215.5,328.625 h8
M262.5,373.625 h8
M294.5,353.625 h8
M359.5,369.625 h8
M456.5,368.625 h8
M473.5,357.625 h8
M502.5,359.625 h8
M36.5,373.625 h8
M117.5,371.625 h8
M198.5,358.625 h8
M243.5,386.625 h8
M351.5,391.625 h8
M397.5,382.625 h8
M475.5,381.625 h8
M495.5,382.625 h8
M42.5,396.625 h8
M80.5,389.625 h8
M99.5,385.625 h8
M125.5,390.625 h8
M253.5,405.625 h8
M294.5,402.625 h8
M314.5,414.625 h8
M390.5,409.625 h8
M410.5,410.625 h8
M23.5,405.625 h8
M105.5,410.625 h8
M126.5,416.625 h8
M169.5,409.625 h8
M194.5,401.625 h8
M287.5,435.625 h8
M307.5,437.625 h8
M340.5,440.625 h8
M380.5,430.625 h8
M403.5,436.625 h8
M438.5,431.625 h8
M476.5,426.625 h8
M502.5,439.625 h8
M11.5,432.625 h8
M51.5,427.625 h8
M113.5,441.625 h8
M132.5,440.625 h8
M148.5,427.625 h8
M199.5,441.625 h8
M218.5,432.625 h8
M252.5,459.625 h8
M321.5,464.625 h8
M321.5,447.625 h8
M385.5,454.625 h8
M449.5,459.625 h8
M480.5,447.625 h8
M499.5,463.625 h8
M290.5,480.625 h8
M311.5,481.625 h8
M389.5,471.625 h8
M417.5,481.625 h8
M475.5,474.625 h8
M25.5,491.625 h8
M121.5,480.625 h8
M171.5,488.625 h8
M190.5,476.625 h8
M374.5,494.625 h8
M397.5,509.625 h8
M430.5,495.625 h8
M492.5,507.625 h8
M85.5,502.625 h8
M104.5,498.625 h8
M184.5,508.625 h8
M206.5,504.625 h8
M287.5,23.625 h8
M308.5,11.625 h8
M340.5,22.625 h8
M354.5,11.625 h8
M376.5,17.625 h8
M409.5,15.625 h8
M450.5,21.625 h8
M16.5,9.625 h8
M35.5,19.625 h8
M58.5,10.625 h8
M79.5,20.625 h8
M99.5,12.625 h8
M122.5,14.625 h8
M145.5,9.625 h8
M311.5,33.625 h8
M449.5,43.625 h8
M471.5,32.625 h8
M491.5,40.625 h8
M62.5,35.625 h8
M136.5,30.625 h8
M148.5,49.625 h8 m-8,0 h8
M212.5,24.625 h8"/>
  <path stroke="#73b386" stroke-width=".75" d="
M246.5,74.375 h8
M268.5,68.375 h8
M311.5,74.375 h8
M362.5,72.375 h8
M431.5,54.375 h8 m-8,0 h8
M474.5,58.375 h8
M491.5,73.375 h8
M10.5,53.375 h8 m-8,0 h8
M82.5,65.375 h8
M145.5,73.375 h8
M175.5,54.375 h8 m-8,0 h8
M227.5,50.375 h8
M230.5,76.375 h8
M290.5,87.375 h8
M385.5,93.375 h8
M403.5,84.375 h8
M426.5,79.375 h8
M449.5,93.375 h8
M467.5,85.375 h8
M70.5,86.375 h8
M117.5,80.375 h8
M152.5,92.375 h8
M206.5,86.375 h8
M235.5,99.375 h8 m-8,0 h8
M288.5,110.375 h8
M366.5,103.375 h8
M411.5,114.375 h8
M429.5,104.375 h8
M75.5,112.375 h8
M100.5,106.375 h8
M142.5,114.375 h8
M215.5,104.375 h8
M252.5,138.375 h8
M275.5,127.375 h8
M313.5,138.375 h8
M335.5,133.375 h8
M352.5,128.375 h8
M431.5,138.375 h8
M456.5,133.375 h8
M10.5,129.375 h8
M31.5,137.375 h8
M93.5,128.375 h8
M130.5,133.375 h8
M157.5,131.375 h8
M174.5,140.375 h8
M204.5,135.375 h8
M247.5,159.375 h8
M316.5,157.375 h8
M396.5,159.375 h8
M422.5,156.375 h8
M446.5,158.375 h8
M488.5,163.375 h8
M30.5,157.375 h8
M66.5,160.375 h8
M73.5,144.375 h8
M130.5,159.375 h8
M146.5,156.375 h8
M201.5,154.375 h8
M284.5,181.375 h8
M304.5,184.375 h8
M400.5,181.375 h8
M475.5,185.375 h8
M498.5,182.375 h8
M11.5,175.375 h8
M47.5,169.375 h8
M82.5,176.375 h8
M111.5,170.375 h8
M125.5,184.375 h8
M201.5,177.375 h8
M220.5,188.375 h8
M261.5,201.375 h8
M317.5,199.375 h8
M456.5,196.375 h8
M15.5,197.375 h8
M44.5,209.375 h8
M58.5,192.375 h8
M79.5,197.375 h8
M98.5,207.375 h8
M116.5,204.375 h8
M143.5,195.375 h8
M219.5,211.375 h8
M262.5,233.375 h8
M283.5,219.375 h8
M357.5,228.375 h8
M417.5,220.375 h8
M452.5,228.375 h8
M473.5,226.375 h8
M10.5,218.375 h8
M26.5,232.375 h8
M74.5,223.375 h8
M254.5,256.375 h8
M277.5,244.375 h8
M318.5,255.375 h8
M340.5,247.375 h8
M362.5,251.375 h8
M417.5,247.375 h8
M451.5,252.375 h8
M476.5,250.375 h8
M28.5,256.375 h8
M50.5,250.375 h8
M177.5,236.375 h8
M190.5,247.375 h8
M228.5,252.375 h8 m-8,0 h8
M248.5,275.375 h8
M272.5,270.375 h8
M290.5,268.375 h8
M314.5,275.375 h8
M395.5,280.375 h8
M453.5,273.375 h8
M486.5,269.375 h8
M506.5,280.375 h5.5 m-512,0 h2.5
M86.5,270.375 h8
M119.5,268.375 h8
M164.5,263.375 h8
M211.5,267.375 h8
M248.5,299.375 h8
M270.5,296.375 h8 m18,0 h8
M335.5,299.375 h8
M359.5,304.375 h8
M3.5,297.375 h8
M31.5,301.375 h8
M194.5,295.375 h8
M282.5,313.375 h8
M351.5,327.375 h8
M378.5,319.375 h8
M412.5,322.375 h8
M435.5,308.375 h8
M456.5,320.375 h8
M480.5,319.375 h8
M11.5,317.375 h8
M56.5,314.375 h8
M119.5,326.375 h8
M131.5,307.375 h8
M150.5,324.375 h8
M173.5,321.375 h8
M195.5,311.375 h8
M219.5,305.375 h8
M231.5,347.375 h8 m-8,0 h8
M263.5,346.375 h8
M280.5,334.375 h8
M326.5,353.375 h8
M405.5,349.375 h8
M468.5,339.375 h8
M495.5,343.375 h8
M36.5,346.375 h8
M55.5,335.375 h8
M100.5,333.375 h8
M177.5,348.375 h8
M194.5,334.375 h8
M246.5,363.375 h8
M307.5,372.375 h8
M342.5,361.375 h8
M378.5,366.375 h8
M411.5,368.375 h8
M429.5,358.375 h8
M17.5,364.375 h8
M55.5,363.375 h8
M77.5,364.375 h8
M98.5,361.375 h8
M141.5,369.375 h8
M161.5,364.375 h8 m51,0 h8
M274.5,398.375 h8
M285.5,377.375 h8
M315.5,387.375 h8
M334.5,388.375 h8
M382.5,393.375 h8
M426.5,387.375 h8
M450.5,394.375 h8
M8.5,381.375 h8
M61.5,384.375 h8
M159.5,387.375 h8
M180.5,383.375 h8
M199.5,379.375 h8
M223.5,391.375 h8
M238.5,420.375 h8
M336.5,416.375 h8
M365.5,411.375 h8 m57,0 h8
M453.5,416.375 h8
M476.5,404.375 h8
M500.5,417.375 h8
M3.5,404.375 h8
M64.5,408.375 h8
M86.5,419.375 h8
M148.5,405.375 h8
M212.5,414.375 h8
M242.5,441.375 h8
M275.5,423.375 h8
M358.5,434.375 h8
M461.5,440.375 h8
M30.5,429.375 h8
M77.5,435.375 h8
M180.5,425.375 h8
M264.5,441.375 h8
M287.5,461.375 h8
M361.5,456.375 h8
M419.5,449.375 h8
M424.5,466.375 h8
M19.5,457.375 h8
M37.5,462.375 h8
M54.5,461.375 h8
M73.5,455.375 h8
M96.5,448.375 h8
M133.5,465.375 h8
M158.5,451.375 h8
M174.5,465.375 h8
M184.5,447.375 h8
M223.5,460.375 h8
M240.5,478.375 h8 m17,0 h8
M339.5,480.375 h8
M360.5,475.375 h8
M397.5,493.375 h8
M455.5,483.375 h8
M496.5,489.375 h8
M8.5,475.375 h8
M48.5,487.375 h8
M79.5,481.375 h8
M99.5,473.375 h8
M149.5,481.375 h8
M212.5,478.375 h8
M249.5,503.375 h8
M270.5,504.375 h8
M290.5,502.375 h8
M312.5,506.375 h8
M334.5,505.375 h8
M357.5,503.375 h8
M450.5,505.375 h8
M469.5,504.375 h8
M4.5,501.375 h8
M41.5,510.375 h8
M64.5,503.375 h8
M125.5,506.375 h8
M153.5,503.375 h8
M227.5,498.375 h8
M247.5,15.375 h8 m16,0 h8
M431.5,10.375 h8
M483.5,15.375 h8
M505.5,17.375 h6.5 m-512,0 h1.5
M169.5,13.375 h8
M187.5,25.375 h8
M225.5,13.375 h8
M248.5,38.375 h8
M264.5,48.375 h8
M284.5,44.375 h8
M330.5,40.375 h8
M352.5,44.375 h8
M375.5,41.375 h8
M398.5,40.375 h8
M422.5,35.375 h8
M3.5,38.375 h8
M36.5,44.375 h8 m41,0 h8
M113.5,40.375 h8
M164.5,37.375 h8
M200.5,44.375 h8
M298.5,57.375 h8 m-8,0 h8
M337.5,66.375 h8
M388.5,68.375 h8
M408.5,59.375 h8
M456.5,68.375 h8
M25.5,66.375 h8
M56.5,60.375 h8
M104.5,58.375 h8
M128.5,61.375 h8
M205.5,63.375 h8
M272.5,88.375 h8
M308.5,93.375 h8
M328.5,91.375 h8
M352.5,87.375 h8
M504.5,91.375 h7.5 m-512,0 h0.5
M7.5,78.375 h8
M32.5,82.375 h8
M52.5,84.375 h8 m34,0 h8
M181.5,95.375 h8
M180.5,76.375 h8
M257.5,106.375 h8
M305.5,120.375 h8
M336.5,106.375 h8
M370.5,121.375 h8
M444.5,116.375 h8
M482.5,100.375 h8
M496.5,118.375 h8
M11.5,106.375 h8
M34.5,107.375 h8
M58.5,116.375 h8
M123.5,104.375 h8
M167.5,112.375 h8
M192.5,116.375 h8
M238.5,125.375 h8
M393.5,121.375 h8
M404.5,139.375 h8
M474.5,122.375 h8
M500.5,139.375 h8
M47.5,128.375 h8
M110.5,140.375 h8
M220.5,126.375 h8
M273.5,148.375 h8
M293.5,153.375 h8
M345.5,163.375 h8
M359.5,151.375 h8
M379.5,146.375 h8
M475.5,148.375 h8
M5.5,154.375 h8
M94.5,158.375 h8
M181.5,159.375 h8
M222.5,162.375 h8
M241.5,181.375 h8
M265.5,170.375 h8
M330.5,176.375 h8
M362.5,187.375 h8
M378.5,180.375 h8
M426.5,177.375 h8
M459.5,172.375 h8
M32.5,189.375 h8
M155.5,176.375 h8
M175.5,178.375 h8
M242.5,203.375 h8
M283.5,201.375 h8
M340.5,196.375 h8
M355.5,208.375 h8
M392.5,206.375 h8
M415.5,200.375 h8
M438.5,203.375 h8
M479.5,206.375 h8
M503.5,204.375 h8
M179.5,210.375 h8
M193.5,198.375 h8
M240.5,228.375 h8
M307.5,218.375 h8
M330.5,225.375 h8
M377.5,219.375 h8
M434.5,234.375 h8
M497.5,227.375 h8
M51.5,226.375 h8
M107.5,234.375 h8
M129.5,223.375 h8
M147.5,224.375 h8
M161.5,214.375 h8
M200.5,222.375 h8
M216.5,238.375 h8
M301.5,242.375 h8
M389.5,238.375 h8
M399.5,255.375 h8
M502.5,243.375 h8
M3.5,259.375 h8
M75.5,253.375 h8
M89.5,237.375 h8
M121.5,248.375 h8
M151.5,246.375 h8
M338.5,270.375 h8
M361.5,281.375 h8
M377.5,268.375 h8
M423.5,265.375 h8
M19.5,281.375 h8
M38.5,276.375 h8
M61.5,271.375 h8
M102.5,281.375 h8
M139.5,266.375 h8
M192.5,270.375 h8
M316.5,295.375 h8
M379.5,301.375 h8
M403.5,300.375 h8
M424.5,288.375 h8
M448.5,296.375 h8
M466.5,289.375 h8
M488.5,296.375 h8
M59.5,290.375 h8
M80.5,300.375 h8
M111.5,298.375 h8
M141.5,288.375 h8
M158.5,303.375 h8
M172.5,284.375 h8 m45,0 h8
M238.5,325.375 h8
M257.5,320.375 h8
M309.5,318.375 h8
M329.5,324.375 h8
M499.5,321.375 h8
M33.5,322.375 h8
M87.5,317.375 h8
M305.5,339.375 h8
M365.5,347.375 h8
M385.5,338.375 h8
M431.5,333.375 h8
M444.5,349.375 h8
M13.5,342.375 h8
M77.5,340.375 h8
M118.5,349.375 h8
M146.5,342.375 h8
M216.5,330.375 h8
M263.5,375.375 h8
M295.5,355.375 h8
M360.5,371.375 h8
M457.5,370.375 h8
M474.5,359.375 h8
M503.5,361.375 h8
M37.5,375.375 h8
M118.5,373.375 h8
M199.5,360.375 h8
M244.5,388.375 h8
M352.5,393.375 h8
M398.5,384.375 h8
M476.5,383.375 h8
M496.5,384.375 h8
M43.5,398.375 h8
M81.5,391.375 h8
M100.5,387.375 h8
M126.5,392.375 h8
M254.5,407.375 h8
M295.5,404.375 h8
M315.5,416.375 h8
M391.5,411.375 h8
M411.5,412.375 h8
M24.5,407.375 h8
M106.5,412.375 h8
M127.5,418.375 h8
M170.5,411.375 h8
M195.5,403.375 h8
M288.5,437.375 h8
M308.5,439.375 h8
M341.5,442.375 h8
M381.5,432.375 h8
M404.5,438.375 h8
M439.5,433.375 h8
M477.5,428.375 h8
M503.5,441.375 h8
M12.5,434.375 h8
M52.5,429.375 h8
M114.5,443.375 h8
M133.5,442.375 h8
M149.5,429.375 h8
M200.5,443.375 h8
M219.5,434.375 h8
M253.5,461.375 h8
M322.5,466.375 h8
M322.5,449.375 h8
M386.5,456.375 h8
M450.5,461.375 h8
M481.5,449.375 h8
M500.5,465.375 h8
M291.5,482.375 h8
M312.5,483.375 h8
M390.5,473.375 h8
M418.5,483.375 h8
M476.5,476.375 h8
M26.5,493.375 h8
M122.5,482.375 h8
M172.5,490.375 h8
M191.5,478.375 h8
M375.5,496.375 h8
M398.5,511.375 h8
M431.5,497.375 h8
M493.5,509.375 h8
M86.5,504.375 h8
M105.5,500.375 h8
M185.5,510.375 h8
M207.5,506.375 h8
M288.5,25.375 h8
M309.5,13.375 h8
M341.5,24.375 h8
M355.5,13.375 h8
M377.5,19.375 h8
M410.5,17.375 h8
M451.5,23.375 h8
M17.5,11.375 h8
M36.5,21.375 h8
M59.5,12.375 h8
M80.5,22.375 h8
M100.5,14.375 h8
M123.5,16.375 h8
M146.5,11.375 h8
M312.5,35.375 h8
M450.5,45.375 h8
M472.5,34.375 h8
M492.5,42.375 h8
M63.5,37.375 h8
M137.5,32.375 h8
M149.5,51.375 h8 m-8,0 h8
M213.5,26.375 h8"/>
  <path stroke="#4aa5fa" stroke-width=".8" d="
M299,47.5 h6 m50,0 h7 m-119,0 h7 m25,0 h7 m39,0 h7 m-286,0 h7 m50,0 h7 m393,0 h7 m-487,0 h7 m39,0 h7
M369,48.5 h7 m78,0 h7 m-348,0 h7 m78,0 h7
M421,49.5 h5 m-261,0 h5 m46,0 h7
M256,50.5 h7 m5,0 h7 m72,0 h7 m-354,0 h6 m11,0 h2 m72,0 h7
M313,51.5 h7 m70,0 h7 m5,0 h3 m42,0 h7 m-415,0 h7 m15,0 h3 m70,0 h7 m50,0 h7
M240,52.5 h7 m33,0 h7 m41,0 h7 m45,0 h7 m77,0 h5 m13,0 h4 m10,0 h7 m-479,0 h7 m41,0 h7 m45,0 h2 m82,0 h7 m8,0 h7
M416,53.5 h2 m-79,0 h7 m-191,0 h7 m-79,0 h7
M248,54.5 h7 m115,0 h7 m127,0 h7 m-397,0 h7
M288,55.5 h6 m64,0 h7 m75,0 h6 m-414,0 h7 m145,0 h6
M326,56.5 h7 m153,0 h7 m-181,0 h7 m101,0 h7 m31,0 h7 m-395,0 h7 m153,0 h7 m-194,0 h7 m114,0 h7
M268,57.5 h7 m-16,0 h7 m79,0 h7 m35,0 h7 m-382,0 h7 m-16,0 h7 m79,0 h7 m40,0 h2
M374,58.5 h7 m20,0 h4 m41,0 h7 m-335,0 h6 m21,0 h7 m38,0 h7 m23,0 h7
M248,59.5 h7 m25,0 h7 m217,0 h7
M236,60.5 h7 m62,0 h7 m8,0 h7 m165,0 h7 m-450,0 h4 m12,0 h6 m83,0 h7
M290,61.5 h7 m59,0 h7 m4,0 h7 m21,0 h4 m38,0 h7 m25,0 h7 m-442,0 h7 m59,0 h7 m4,0 h7 m19,0 h6 m38,0 h7 m26,0 h6
M423,62.5 h7 m-416,0 h7 m146,0 h7 m25,0 h3
M258,63.5 h5 m-261,0 h7
M325,64.5 h7 m16,0 h7 m24,0 h5 m31,0 h7 m-353,0 h7 m16,0 h7 m24,0 h7 m29,0 h7
M482,65.5 h6 m-251,0 h7 m7,0 h3 m22,0 h7 m10,0 h7 m16,0 h4 m75,0 h2 m5,0 h7 m21,0 h7 m10,0 h5 m11,0 h6 m-243,0 h7 m264,0 h3 m3,0 h7 m-490,0 h2 m15,0 h7 m13,0 h7 m70,0 h7 m10,0 h2 m21,0 h7 m10,0 h7 m8,0 h7
M104,66.5 h7
M305,67.5 h2 m-258,0 h7
M371,68.5 h7 m-369,0 h7 m99,0 h7
M283,69.5 h7 m39,0 h7 m8,0 h7 m54,0 h7 m9,0 h3 m13,0 h7 m25,0 h7 m-449,0 h7 m39,0 h7 m8,0 h7 m58,0 h3 m9,0 h7 m41,0 h7
M256,70.5 h7 m33,0 h7 m78,0 h7 m65,0 h7 m25,0 h2 m-487,0 h4 m36,0 h7 m78,0 h7 m65,0 h7
M353,71.5 h6 m32,0 h7 m104,0 h7 m-412,0 h7 m31,0 h6
M321,72.5 h7 m116,0 h7 m25,0 h7 m-418,0 h7 m116,0 h7 m25,0 h6
M266,73.5 h7 m13,0 h7 m13,0 h2 m106,0 h7 m-406,0 h2 m33,0 h7 m101,0 h7
M239,74.5 h4 m128,0 h7 m26,0 h3 m56,0 h7 m-263,0 h7
M274,75.5 h7 m55,0 h7 m17,0 h7 m67,0 h5 m-421,0 h7 m55,0 h7 m17,0 h7
M314,76.5 h7 m25,0 h7 m130,0 h7 m-432,0 h7 m101,0 h7
M257,77.5 h7 m33,0 h7 m23,0 h7 m58,0 h7 m55,0 h7 m-460,0 h3 m37,0 h7 m27,0 h3 m58,0 h7 m55,0 h6
M242,78.5 h7 m37,0 h2 m89,0 h7 m27,0 h5 m26,0 h7 m25,0 h5 m19,0 h7 m-379,0 h2 m25,0 h7 m26,0 h7 m23,0 h7
M277,79.5 h4 m25,0 h7 m-295,0 h7
M359,80.5 h3 m4,0 h7 m-271,0 h4 m4,0 h4
M249,81.5 h7 m7,0 h5 m118,0 h7 m24,0 h7 m9,0 h7 m44,0 h7 m14,0 h7 m-505,0 h7 m116,0 h7 m24,0 h7 m9,0 h7 m44,0 h7
M333,82.5 h4 m8,0 h2 m102,0 h7 m-378,0 h3 m64,0 h5 m43,0 h7
M318,83.5 h7 m-263,0 h4
M241,84.5 h7 m128,0 h7 m114,0 h3 m-483,0 h7 m96,0 h7
M259,85.5 h7 m72,0 h7 m16,0 h7 m25,0 h7 m25,0 h7 m8,0 h6 m30,0 h3 m-476,0 h7 m72,0 h7 m16,0 h7 m25,0 h7 m25,0 h7 m8,0 h7 m25,0 h7
M484,86.5 h7 m-80,0 h7 m38,0 h4 m-232,0 h7 m-75,0 h2 m35,0 h6
M37,87.5 h7
M249,88.5 h7 m27,0 h5 m60,0 h2 m20,0 h7 m-350,0 h7 m39,0 h7 m12,0 h7 m15,0 h7
M236,89.5 h7 m73,0 h7 m79,0 h7 m20,0 h7 m38,0 h7 m11,0 h7 m-482,0 h7 m26,0 h7 m3,0 h7 m63,0 h7 m9,0 h2 m25,0 h3 m42,0 h7
M359,90.5 h7 m77,0 h2 m15,0 h7 m-364,0 h7 m79,0 h5 m10,0 h7
M256,91.5 h7 m155,0 h7 m-424,0 h6 m155,0 h7
M243,92.5 h7 m18,0 h7 m24,0 h6 m18,0 h3 m12,0 h7 m33,0 h4 m117,0 h3 m-490,0 h7 m24,0 h7 m17,0 h7 m8,0 h7 m33,0 h7
M285,93.5 h7 m102,0 h5 m9,0 h7 m54,0 h7 m-447,0 h7 m100,0 h7 m53,0 h7 m10,0 h7
M490,94.5 h4 m-132,0 h2 m74,0 h7 m-339,0 h7
M347,95.5 h7 m-263,0 h7 m72,0 h7
M294,96.5 h7 m29,0 h4 m40,0 h7 m17,0 h7 m-367,0 h7 m29,0 h7 m37,0 h2 m22,0 h7
M270,97.5 h7 m39,0 h7 m92,0 h7 m25,0 h7 m56,0 h2 m-512,0 h5 m11,0 h5 m39,0 h7 m92,0 h7 m25,0 h7 m24,0 h6
M244,98.5 h4 m58,0 h7 m38,0 h7 m139,0 h7 m-454,0 h7 m38,0 h2
M282,99.5 h7 m54,0 h2 m121,0 h7 m-447,0 h5 m51,0 h7
M381,100.5 h7 m5,0 h7 m7,0 h7 m42,0 h7 m-354,0 h7 m21,0 h7 m7,0 h7 m10,0 h7 m25,0 h7
M293,101.5 h7 m25,0 h6 m109,0 h7 m-215,0 h7 m-197,0 h2 m25,0 h7 m108,0 h7 m300,0 h4
M250,102.5 h3 m12,0 h6 m204,0 h7 m-206,0 h7 m223,0 h6 m-512,0 h1 m223,0 h2 m-206,0 h7
M308,103.5 h7 m38,0 h7 m15,0 h3 m-326,0 h7 m56,0 h5
M400,104.5 h7 m9,0 h7 m-279,0 h7 m9,0 h4 m12,0 h7
M241,105.5 h7 m73,0 h7 m55,0 h7 m73,0 h7 m-388,0 h7 m408,0 h7 m7,0 h1 m-512,0 h6 m59,0 h6 m61,0 h2 m73,0 h6
M484,106.5 h7 m-192,0 h7 m145,0 h7 m-230,0 h7 m-192,0 h7 m145,0 h7
M471,107.5 h7 m-263,0 h7
M267,108.5 h7 m38,0 h7 m9,0 h7 m17,0 h7 m3,0 h7 m23,0 h7 m25,0 h7 m8,0 h2 m-430,0 h7 m78,0 h7 m3,0 h7 m39,0 h7 m24,0 h6
M278,109.5 h7 m-263,0 h7
M246,110.5 h7 m89,0 h7 m24,0 h7 m76,0 h7 m39,0 h7 m-423,0 h7 m24,0 h7 m76,0 h7 m-173,0 h7
M482,111.5 h7 m-231,0 h7 m-39,0 h7 m-231,0 h7
M299,112.5 h3 m10,0 h7 m13,0 h7 m62,0 h6 m13,0 h3 m-380,0 h7 m110,0 h4
M238,113.5 h7 m25,0 h7 m103,0 h7 m83,0 h2 m-458,0 h7 m103,0 h7 m83,0 h7
M283,114.5 h7 m60,0 h7 m5,0 h4 m61,0 h7 m-407,0 h7 m60,0 h7 m5,0 h7 m23,0 h3 m32,0 h7
M438,115.5 h3 m15,0 h7 m-281,0 h7 m12,0 h6
M250,116.5 h7 m59,0 h7 m162,0 h7 m14,0 h6 m-512,0 h1 m228,0 h7
M261,117.5 h7 m61,0 h7 m7,0 h7 m63,0 h7 m-415,0 h7 m34,0 h7 m20,0 h7 m7,0 h7 m21,0 h7 m35,0 h7
M385,118.5 h4 m11,0 h7 m-278,0 h7 m77,0 h4 m-73,0 h7
M428,119.5 h7 m-189,0 h2 m42,0 h7 m148,0 h7 m8,0 h7 m-295,0 h7 m-162,0 h7 m10,0 h7 m148,0 h7 m8,0 h7
M483,120.5 h2
M314,121.5 h4 m16,0 h7 m18,0 h3 m3,0 h2 m-312,0 h7 m16,0 h7 m15,0 h6 m3,0 h7
M249,122.5 h7 m10,0 h4 m52,0 h7 m50,0 h4 m26,0 h7 m22,0 h7 m60,0 h7 m-446,0 h7 m47,0 h7 m9,0 h7 m10,0 h2 m27,0 h7
M283,123.5 h3 m14,0 h7 m38,0 h2 m73,0 h7 m59,0 h7 m-470,0 h7 m134,0 h7 m59,0 h4
M290,124.5 h7 m-263,0 h7
M258,125.5 h7 m182,0 h6 m9,0 h5 m-465,0 h4 m185,0 h7 m7,0 h6
M247,126.5 h3 m135,0 h7 m-84,0 h7 m86,0 h7 m65,0 h7 m19,0 h7 m-426,0 h7 m-31,0 h3 m86,0 h7
M433,127.5 h7 m-263,0 h7
M234,128.5 h7 m43,0 h4 m33,0 h7 m35,0 h7 m6,0 h7 m38,0 h7 m62,0 h7 m-472,0 h4 m36,0 h7 m35,0 h7 m6,0 h5 m40,0 h7
M266,129.5 h7 m23,0 h7 m202,0 h7 m-472,0 h5 m152,0 h2
M391,130.5 h7 m11,0 h6 m62,0 h7 m-347,0 h5 m10,0 h2 m67,0 h7
M307,131.5 h2 m35,0 h6 m115,0 h5 m-419,0 h7 m16,0 h7 m6,0 h7 m118,0 h2
M260,132.5 h5 m10,0 h7 m89,0 h7 m68,0 h7 m-451,0 h7 m10,0 h7 m90,0 h6 m68,0 h7
M483,133.5 h7 m-200,0 h7 m57,0 h7 m35,0 h3 m-172,0 h7 m-195,0 h2 m57,0 h7 m35,0 h7
M322,134.5 h7 m92,0 h6 m-190,0 h7 m-178,0 h5 m94,0 h4 m324,0 h2
M438,135.5 h5 m-81,0 h7 m43,0 h2 m-232,0 h5 m-130,0 h7 m87,0 h7
M266,136.5 h7 m25,0 h7 m40,0 h7 m28,0 h3 m83,0 h7 m35,0 h4 m-512,0 h3 m7,0 h7 m25,0 h7 m40,0 h7 m24,0 h7 m86,0 h4
M329,137.5 h7 m109,0 h7 m-263,0 h7
M241,138.5 h7 m40,0 h7 m97,0 h7 m57,0 h7 m17,0 h7 m-351,0 h7 m57,0 h7 m17,0 h7
M278,139.5 h2 m58,0 h7 m41,0 h4 m26,0 h7 m-406,0 h7 m58,0 h7 m38,0 h7 m26,0 h7
M304,140.5 h7 m8,0 h7 m27,0 h7 m9,0 h5 m60,0 h7 m-393,0 h7 m8,0 h6 m28,0 h7 m42,0 h7 m30,0 h2 m32,0 h7
M260,141.5 h7 m-263,0 h7
M281,142.5 h7 m136,0 h7 m-197,0 h7 m7,0 h7 m-230,0 h7 m136,0 h7 m315,0 h7 m7,0 h7
M444,143.5 h7 m-157,0 h7 m164,0 h5 m-282,0 h7 m-157,0 h7 m164,0 h7
M311,144.5 h7 m10,0 h7 m7,0 h7 m63,0 h7 m-364,0 h7 m24,0 h7 m31,0 h7 m25,0 h7
M400,145.5 h7 m50,0 h7 m-447,0 h7 m120,0 h7 m55,0 h2
M263,146.5 h6 m99,0 h7 m60,0 h7 m-431,0 h3 m83,0 h7 m8,0 h7 m60,0 h7
M245,147.5 h7 m51,0 h7 m11,0 h7 m62,0 h7 m30,0 h2 m56,0 h7 m9,0 h7 m-461,0 h7 m11,0 h7 m62,0 h7 m25,0 h7 m43,0 h7 m6,0 h7
M337,148.5 h7 m-263,0 h7
M282,149.5 h2 m93,0 h7 m70,0 h7 m-440,0 h6 m77,0 h7 m10,0 h7
M253,150.5 h7 m150,0 h7 m92,0 h3 m-512,0 h1 m36,0 h5 m112,0 h7
M236,151.5 h7 m159,0 h2 m26,0 h5 m31,0 h7 m5,0 h7 m-295,0 h7 m295,0 h7 m-327,0 h6 m32,0 h7 m5,0 h7
M303,152.5 h7 m14,0 h6 m-283,0 h7 m18,0 h2
M263,153.5 h7 m66,0 h7 m8,0 h7 m25,0 h7 m49,0 h2 m-361,0 h7
M273,154.5 h7 m84,0 h7 m45,0 h2 m83,0 h7 m-491,0 h7 m84,0 h7 m45,0 h7
M283,155.5 h7 m4,0 h7 m158,0 h7 m-427,0 h6 m10,0 h6
M234,156.5 h7 m13,0 h7 m217,0 h6 m11,0 h2 m13,0 h2 m-512,0 h5
M325,157.5 h3 m25,0 h2 m14,0 h7 m11,0 h5 m13,0 h2 m24,0 h3 m-321,0 h7 m51,0 h6 m14,0 h7
M411,158.5 h7 m-85,0 h7 m-185,0 h7 m-85,0 h7
M468,159.5 h7 m-263,0 h6
M301,160.5 h7 m-42,0 h4 m7,0 h7 m76,0 h7 m12,0 h7 m50,0 h7 m58,0 h7 m-501,0 h7 m7,0 h7 m76,0 h5 m14,0 h5
M232,161.5 h7 m74,0 h7 m71,0 h7 m22,0 h7 m24,0 h7 m-401,0 h7 m71,0 h7 m22,0 h7 m24,0 h7
M337,162.5 h5 m65,0 h7 m-333,0 h7 m63,0 h7
M253,163.5 h7 m25,0 h7 m62,0 h5 m11,0 h7 m132,0 h3 m-512,0 h4 m25,0 h7 m60,0 h7 m15,0 h3
M294,164.5 h7 m20,0 h7 m150,0 h7 m-447,0 h4 m23,0 h7 m130,0 h7 m13,0 h7
M242,165.5 h7 m25,0 h7 m25,0 h7 m30,0 h7 m46,0 h7 m23,0 h7 m6,0 h7 m21,0 h7 m24,0 h7 m-487,0 h7 m30,0 h2 m30,0 h7 m46,0 h7 m23,0 h7 m6,0 h7 m21,0 h7
M378,166.5 h7 m-54,0 h6 m-215,0 h7 m-55,0 h6
M362,167.5 h7 m81,0 h4 m-448,0 h2 m186,0 h5
M250,168.5 h7 m25,0 h7 m119,0 h7 m91,0 h6 m-512,0 h1 m25,0 h7
M234,169.5 h7 m149,0 h7 m22,0 h4 m11,0 h7 m49,0 h7 m-363,0 h7 m22,0 h7 m10,0 h5
M297,170.5 h7 m7,0 h7 m36,0 h7 m117,0 h7 m-444,0 h4 m11,0 h6 m36,0 h7 m117,0 h7
M322,171.5 h3 m16,0 h7 m24,0 h4 m92,0 h5 m-407,0 h7 m17,0 h2 m28,0 h3 m87,0 h7
M385,172.5 h7 m13,0 h4 m42,0 h5 m-327,0 h7 m10,0 h5
M247,173.5 h2 m41,0 h3 m210,0 h2 m-475,0 h7 m38,0 h3
M272,174.5 h7 m26,0 h5 m55,0 h7 m66,0 h7 m-191,0 h7 m-241,0 h3 m24,0 h7 m55,0 h7 m67,0 h6 m321,0 h2 m-512,0 h5
M477,175.5 h7 m-250,0 h2 m176,0 h7 m40,0 h7 m-298,0 h3 m50,0 h7 m262,0 h4
M339,176.5 h6 m9,0 h7 m84,0 h7 m-354,0 h7 m84,0 h7
M262,177.5 h7 m25,0 h6 m11,0 h4 m8,0 h5 m42,0 h4 m11,0 h6 m-385,0 h7 m25,0 h7 m7,0 h7 m8,0 h7 m40,0 h7 m11,0 h3 m8,0 h7
M435,178.5 h3 m-414,0 h7
M349,179.5 h7 m-263,0 h7 m113,0 h5
M254,180.5 h7 m148,0 h7 m68,0 h7 m19,0 h2 m-512,0 h5 m148,0 h7 m68,0 h7
M316,181.5 h7 m8,0 h7 m56,0 h3 m47,0 h7 m8,0 h7 m-406,0 h7 m8,0 h7 m56,0 h7 m43,0 h7 m8,0 h7
M275,182.5 h7 m11,0 h5 m78,0 h7 m45,0 h7 m-416,0 h7 m13,0 h3 m130,0 h7 m-73,0 h7
M348,183.5 h7 m62,0 h7 m-332,0 h7 m62,0 h7
M246,184.5 h7 m10,0 h7 m117,0 h7 m90,0 h6 m12,0 h7 m-502,0 h7 m37,0 h4 m79,0 h4 m90,0 h6
M295,185.5 h7 m20,0 h7 m9,0 h7 m60,0 h7 m23,0 h7 m25,0 h5 m-432,0 h6 m20,0 h7 m9,0 h7 m60,0 h7 m23,0 h7 m25,0 h5
M457,186.5 h5 m-358,0 h7 m88,0 h7
M271,187.5 h7 m-262,0 h6
M487,188.5 h7 m-251,0 h7 m8,0 h7 m49,0 h7 m57,0 h7 m7,0 h7 m45,0 h7 m23,0 h7 m-250,0 h7 m261,0 h7 m-504,0 h7 m113,0 h7 m7,0 h3 m49,0 h3
M278,189.5 h7 m62,0 h6 m63,0 h7 m-401,0 h7 m61,0 h7 m63,0 h7
M293,190.5 h7 m27,0 h7 m69,0 h7 m-104,0 h7 m57,0 h7 m-336,0 h3 m27,0 h4 m76,0 h3 m-104,0 h4 m60,0 h7
M436,191.5 h7 m-84,0 h7 m-186,0 h7 m-84,0 h7 m90,0 h5
M422,192.5 h7 m41,0 h7 m-390,0 h2 m-63,0 h7 m133,0 h7 m41,0 h7
M487,193.5 h7 m-248,0 h7 m-22,0 h7 m264,0 h7
M255,194.5 h2 m14,0 h7 m104,0 h7 m7,0 h7 m108,0 h1 m-512,0 h6 m120,0 h7 m21,0 h7
M300,195.5 h7 m23,0 h7 m12,0 h6 m89,0 h7 m-407,0 h7 m9,0 h7 m25,0 h7 m104,0 h7
M291,196.5 h2 m68,0 h7 m5,0 h7 m49,0 h5 m46,0 h4 m-454,0 h7 m68,0 h7 m10,0 h2 m49,0 h7 m41,0 h7
M496,197.5 h3 m-492,0 h5
M309,198.5 h5 m25,0 h7 m78,0 h2 m-373,0 h7 m28,0 h2 m46,0 h7 m20,0 h7
M451,199.5 h7 m-165,0 h7 m105,0 h7 m56,0 h7 m-438,0 h5 m107,0 h7 m25,0 h7 m24,0 h7
M487,200.5 h2 m-106,0 h4 m-161,0 h7 m-106,0 h7
M271,201.5 h7 m50,0 h7 m-334,0 h7 m7,0 h7 m50,0 h7
M314,202.5 h7 m22,0 h7 m112,0 h7 m26,0 h4 m-441,0 h7 m22,0 h6 m113,0 h7
M280,203.5 h7 m76,0 h3 m9,0 h7 m17,0 h7 m8,0 h7 m9,0 h5 m-411,0 h7 m75,0 h4 m33,0 h7 m8,0 h7
M251,204.5 h5 m37,0 h7 m5,0 h7 m136,0 h7 m-418,0 h2 m13,0 h4 m136,0 h7
M265,205.5 h7 m49,0 h7 m59,0 h2 m84,0 h3 m12,0 h6 m-485,0 h7 m49,0 h7 m59,0 h7 m93,0 h7
M336,206.5 h7 m25,0 h7 m64,0 h7 m-366,0 h7 m25,0 h7 m68,0 h3
M242,207.5 h7 m160,0 h7 m6,0 h7 m26,0 h7 m36,0 h7 m-352,0 h4 m11,0 h5 m26,0 h7
M287,208.5 h7 m-263,0 h7
M255,209.5 h7 m13,0 h6 m33,0 h7 m8,0 h7 m9,0 h7 m43,0 h7 m63,0 h7 m9,0 h7 m23,0 h1 m-512,0 h6 m13,0 h7 m32,0 h7 m8,0 h7 m9,0 h7 m5,0 h7 m31,0 h7 m63,0 h6 m13,0 h4
M382,210.5 h2 m-263,0 h7
M431,211.5 h7 m-390,0 h7 m120,0 h2
M232,212.5 h7 m24,0 h7 m24,0 h7 m65,0 h7 m15,0 h7 m8,0 h7 m13,0 h2 m16,0 h7 m40,0 h7 m-457,0 h7 m65,0 h7 m15,0 h7 m8,0 h7 m31,0 h7
M245,213.5 h7 m69,0 h7 m125,0 h7 m10,0 h7 m24,0 h7 m-443,0 h7 m142,0 h7
M333,214.5 h7 m15,0 h7 m-334,0 h7 m44,0 h5 m15,0 h7
M272,215.5 h7 m65,0 h7 m-334,0 h6 m65,0 h7 m27,0 h4
M255,216.5 h7 m163,0 h3 m52,0 h7 m24,0 h1 m-512,0 h6 m159,0 h7 m52,0 h7
M241,217.5 h7 m53,0 h3 m95,0 h7 m26,0 h7 m21,0 h7 m31,0 h6 m-459,0 h4 m127,0 h7 m25,0 h3
M322,218.5 h4 m44,0 h4 m79,0 h4 m-391,0 h3 m45,0 h7 m73,0 h2
M264,219.5 h7 m7,0 h2 m108,0 h7 m-373,0 h7 m29,0 h3 m39,0 h7 m30,0 h2 m21,0 h7 m49,0 h7
M233,220.5 h4 m57,0 h7 m39,0 h7 m58,0 h7 m28,0 h7 m42,0 h4 m-455,0 h7 m39,0 h7 m93,0 h7
M251,221.5 h7 m249,0 h5 m-512,0 h2
M380,222.5 h7 m76,0 h6 m-183,0 h7 m56,0 h3 m-228,0 h2 m83,0 h5 m-184,0 h7 m56,0 h7
M318,223.5 h7 m40,0 h7 m-102,0 h7 m203,0 h7 m-425,0 h7 m40,0 h7 m-102,0 h7 m203,0 h7
M399,224.5 h7 m12,0 h7 m10,0 h5 m-278,0 h7 m8,0 h7 m9,0 h7
M248,225.5 h7 m52,0 h7 m192,0 h5
M232,226.5 h4 m57,0 h7 m26,0 h2 m43,0 h7 m10,0 h7 m16,0 h7 m70,0 h6 m-487,0 h7 m23,0 h7 m26,0 h7 m38,0 h7 m10,0 h7 m16,0 h7
M279,227.5 h7 m54,0 h7 m78,0 h5 m31,0 h2 m-379,0 h3 m82,0 h6 m25,0 h7 m9,0 h7
M442,228.5 h5 m-263,0 h7
M301,229.5 h7 m-263,0 h7
M241,230.5 h7 m69,0 h7 m25,0 h7 m24,0 h6 m17,0 h7 m87,0 h7 m-503,0 h7 m53,0 h7 m28,0 h4 m24,0 h7 m16,0 h7
M465,231.5 h7 m-263,0 h3
M487,232.5 h7 m-216,0 h7 m41,0 h7 m37,0 h7 m20,0 h4 m25,0 h4 m24,0 h7 m13,0 h7 m-250,0 h7 m-168,0 h7 m39,0 h5 m17,0 h7 m25,0 h3 m25,0 h7
M294,233.5 h5 m11,0 h7 m25,0 h7 m62,0 h7 m25,0 h6 m-441,0 h7 m23,0 h7 m9,0 h7 m94,0 h7 m24,0 h7
M249,234.5 h7 m251,0 h5
M382,235.5 h3 m-259,0 h7
M286,236.5 h7 m41,0 h7 m9,0 h7 m7,0 h7 m61,0 h7 m40,0 h7 m-456,0 h7 m10,0 h7 m24,0 h7 m13,0 h3 m7,0 h7 m110,0 h5
M239,237.5 h7 m25,0 h2 m128,0 h7 m10,0 h6 m24,0 h7 m9,0 h7 m24,0 h2 m-482,0 h7 m123,0 h4 m12,0 h7 m24,0 h7 m9,0 h5
M260,238.5 h7 m56,0 h7 m-326,0 h7 m56,0 h7
M374,239.5 h7 m-134,0 h7 m57,0 h7 m37,0 h7 m-307,0 h7 m37,0 h7 m27,0 h7
M232,240.5 h7 m55,0 h3 m111,0 h5 m27,0 h7 m41,0 h7 m-474,0 h7 m10,0 h7 m139,0 h2
M425,241.5 h6 m25,0 h7 m9,0 h2 m-395,0 h7 m82,0 h7 m25,0 h7 m9,0 h7
M367,242.5 h5 m-263,0 h7
M259,243.5 h7 m20,0 h7 m85,0 h7 m12,0 h7 m79,0 h5 m-485,0 h7 m20,0 h7 m104,0 h6
M247,244.5 h7 m63,0 h7 m-263,0 h7 m17,0 h7 m70,0 h7 m28,0 h4
M388,245.5 h7 m38,0 h7 m26,0 h5 m-368,0 h7 m22,0 h7 m38,0 h7 m26,0 h7
M264,246.5 h7 m24,0 h7 m25,0 h7 m15,0 h6 m-347,0 h7 m24,0 h7 m46,0 h7
M277,247.5 h7 m125,0 h5 m-393,0 h5
M236,248.5 h6 m136,0 h7 m59,0 h3 m38,0 h2 m4,0 h7
M305,249.5 h7 m14,0 h2 m98,0 h7 m25,0 h7 m44,0 h3 m-512,0 h1 m64,0 h6 m68,0 h7 m24,0 h7 m25,0 h7
M287,250.5 h7 m77,0 h4 m-339,0 h2 m74,0 h7
M241,251.5 h7 m27,0 h7 m54,0 h7 m7,0 h7 m78,0 h7 m55,0 h7 m-485,0 h4 m61,0 h3 m7,0 h7 m78,0 h7
M262,252.5 h6 m138,0 h3 m7,0 h7 m43,0 h7 m-463,0 h2 m46,0 h7 m81,0 h7 m7,0 h7 m26,0 h7 m10,0 h7
M357,253.5 h7 m20,0 h7 m87,0 h7 m-384,0 h7 m20,0 h7 m87,0 h4
M293,254.5 h7 m28,0 h7 m171,0 h4 m-473,0 h7
M424,255.5 h7 m-261,0 h5
M237,256.5 h7 m26,0 h7 m27,0 h7 m56,0 h7 m19,0 h4 m11,0 h7 m78,0 h7 m-486,0 h7 m27,0 h7 m56,0 h7 m22,0 h4 m8,0 h7
M285,257.5 h7 m29,0 h7 m8,0 h7 m10,0 h7 m18,0 h7 m54,0 h7 m7,0 h7 m-395,0 h7 m8,0 h7 m10,0 h7 m18,0 h7 m54,0 h7 m7,0 h7
M258,258.5 h7 m204,0 h7 m6,0 h7 m-273,0 h4 m6,0 h7
M297,260.5 h7 m42,0 h7 m46,0 h7 m9,0 h3 m13,0 h5 m25,0 h7 m-427,0 h7 m42,0 h7 m50,0 h3 m23,0 h7 m25,0 h2
M235,261.5 h7 m5,0 h7 m23,0 h6 m79,0 h7 m123,0 h6 m5,0 h7 m-490,0 h7 m79,0 h7
M306,262.5 h7 m5,0 h7 m65,0 h7 m42,0 h7 m-396,0 h7 m9,0 h3 m114,0 h6 m-62,0 h3
M263,263.5 h5 m59,0 h7 m120,0 h4 m-426,0 h7 m-32,0 h7 m57,0 h7 m121,0 h3
M369,264.5 h4 m95,0 h7 m-248,0 h7 m-121,0 h2
M251,265.5 h7 m92,0 h7 m43,0 h7 m25,0 h6 m69,0 h5 m-512,0 h2 m14,0 h7 m71,0 h7 m47,0 h3 m24,0 h7
M417,266.5 h4 m-260,0 h7
M299,267.5 h5 m141,0 h3 m27,0 h7 m-439,0 h5 m172,0 h6
M241,268.5 h3 m40,0 h3 m74,0 h7 m41,0 h7 m45,0 h6 m30,0 h7 m-476,0 h7 m70,0 h7 m41,0 h7 m44,0 h5
M262,269.5 h7 m55,0 h7 m62,0 h7 m24,0 h7 m-425,0 h7 m57,0 h5 m53,0 h3 m6,0 h7 m24,0 h7
M370,270.5 h7 m-325,0 h6 m172,0 h7 m-123,0 h7
M281,271.5 h3 m70,0 h5 m80,0 h7 m-425,0 h7 m70,0 h2 m3,0 h2 m78,0 h7 m11,0 h4
M332,272.5 h7 m135,0 h7 m-405,0 h7 m135,0 h7
M301,273.5 h7 m81,0 h2 m-346,0 h7 m81,0 h7
M238,274.5 h7 m44,0 h7 m50,0 h7 m50,0 h4 m4,0 h7 m11,0 h7 m26,0 h7 m25,0 h7 m-411,0 h7 m47,0 h7 m4,0 h7 m11,0 h7 m26,0 h7
M258,275.5 h7 m5,0 h7 m46,0 h7 m47,0 h7 m-382,0 h7 m58,0 h7 m47,0 h7
M485,276.5 h7 m-213,0 h7 m134,0 h7 m-196,0 h5 m-209,0 h3 m25,0 h7 m102,0 h5
M248,277.5 h7 m181,0 h7 m8,0 h7 m13,0 h7 m-298,0 h7 m8,0 h7 m13,0 h6
M335,278.5 h7 m45,0 h4 m-22,0 h7 m-297,0 h7 m45,0 h7 m-25,0 h7
M300,279.5 h7 m43,0 h7 m-313,0 h7 m43,0 h4
M318,280.5 h7 m92,0 h4 m23,0 h7 m-389,0 h7 m92,0 h7 m20,0 h7
M241,281.5 h7 m9,0 h7 m8,0 h7 m9,0 h7 m112,0 h7 m67,0 h7 m9,0 h7 m-501,0 h5 m24,0 h7 m112,0 h7 m51,0 h7
M326,282.5 h7 m42,0 h7 m-312,0 h7 m42,0 h7
M295,283.5 h7 m38,0 h7 m108,0 h6 m-422,0 h7 m38,0 h7 m108,0 h7
M234,284.5 h6 m25,0 h7 m39,0 h7 m69,0 h7 m95,0 h7 m-487,0 h7 m115,0 h6
M249,285.5 h7 m25,0 h7 m63,0 h7 m77,0 h7 m32,0 h6 m25,0 h7 m-487,0 h7 m63,0 h7 m79,0 h5 m31,0 h6
M449,286.5 h5 m-122,0 h7 m76,0 h5 m-344,0 h7 m76,0 h7
M301,287.5 h7 m88,0 h7 m-39,0 h7 m-326,0 h7 m56,0 h7
M257,288.5 h7 m12,0 h3 m179,0 h5 m18,0 h4 m-469,0 h7 m179,0 h7 m16,0 h7
M308,289.5 h3 m13,0 h5 m56,0 h7 m15,0 h7 m-362,0 h4 m12,0 h5 m56,0 h7 m15,0 h7
M341,290.5 h7 m6,0 h7 m13,0 h7 m42,0 h7 m11,0 h2 m-358,0 h7 m6,0 h7 m13,0 h7 m42,0 h7 m11,0 h4
M234,291.5 h7 m41,0 h7 m185,0 h7 m23,0 h6 m-484,0 h3 m189,0 h7
M363,292.5 h7 m63,0 h7 m24,0 h7 m-460,0 h5 m24,0 h7 m28,0 h2 m100,0 h7 m24,0 h7
M455,293.5 h3 m-312,0 h7
M311,294.5 h2 m79,0 h6 m-343,0 h7 m74,0 h7
M235,295.5 h7 m37,0 h4 m-27,0 h7 m26,0 h4 m50,0 h3 m67,0 h7 m-400,0 h6 m62,0 h2
M325,296.5 h5 m41,0 h3 m13,0 h3 m36,0 h7 m-366,0 h7 m25,0 h7 m14,0 h2 m5,0 h7 m36,0 h7
M461,297.5 h7 m7,0 h7 m20,0 h7 m-304,0 h7
M345,298.5 h7 m-55,0 h7 m9,0 h7 m116,0 h7 m-354,0 h7 m-55,0 h7 m9,0 h7 m116,0 h7
M266,299.5 h7 m146,0 h7 m24,0 h7 m-447,0 h7 m149,0 h4 m24,0 h7
M234,300.5 h7 m42,0 h7 m40,0 h3 m34,0 h2 m121,0 h7 m-423,0 h3 m29,0 h7 m33,0 h7
M306,301.5 h7 m78,0 h7 m67,0 h7 m-422,0 h7 m66,0 h3 m13,0 h3 m67,0 h6
M255,302.5 h7 m74,0 h7 m100,0 h6 m-39,0 h7 m64,0 h7 m23,0 h1 m-512,0 h6 m74,0 h7 m99,0 h7 m33,0 h6
M298,303.5 h7 m-62,0 h7 m25,0 h5 m41,0 h7 m-286,0 h7 m50,0 h7 m393,0 h7 m-487,0 h7 m39,0 h7
M369,304.5 h7 m78,0 h7 m-348,0 h7 m57,0 h7 m18,0 h3
M421,305.5 h7 m44,0 h7 m-314,0 h7
M256,306.5 h7 m5,0 h7 m72,0 h7 m-354,0 h7 m5,0 h7 m72,0 h7
M295,307.5 h7 m11,0 h7 m70,0 h7 m5,0 h7 m38,0 h7 m-415,0 h7 m100,0 h7
M240,308.5 h7 m81,0 h7 m45,0 h7 m77,0 h7 m8,0 h7 m10,0 h7 m-479,0 h7 m41,0 h7 m45,0 h5 m79,0 h7 m8,0 h7
M411,309.5 h7 m11,0 h4 m-94,0 h7 m-191,0 h7 m11,0 h7
M248,310.5 h7 m115,0 h6 m128,0 h7 m-397,0 h7
M291,311.5 h4 m63,0 h7 m74,0 h7 m-414,0 h7 m63,0 h7 m74,0 h7
M326,312.5 h7 m154,0 h6 m-194,0 h5 m13,0 h2 m101,0 h7 m35,0 h3 m-395,0 h7 m153,0 h7 m-194,0 h7 m114,0 h7 m33,0 h5
M268,313.5 h7 m-11,0 h2 m79,0 h7 m35,0 h7 m-391,0 h4 m124,0 h7
M401,314.5 h7 m38,0 h5 m-333,0 h7 m20,0 h3 m42,0 h7 m23,0 h7
M248,315.5 h4 m28,0 h7 m220,0 h4 m-487,0 h5
M320,316.5 h6 m11,0 h7 m148,0 h2 m-445,0 h7 m8,0 h7 m10,0 h3 m72,0 h5
M290,317.5 h7 m59,0 h7 m4,0 h7 m18,0 h7 m38,0 h7 m25,0 h7 m-376,0 h7 m4,0 h6 m19,0 h7 m38,0 h7 m25,0 h7
M270,318.5 h7 m146,0 h7 m-263,0 h2 m30,0 h7
M2,319.5 h7
M69,320.5 h7 m16,0 h7 m28,0 h3 m29,0 h7
M482,321.5 h7 m-242,0 h7 m22,0 h7 m10,0 h7 m13,0 h7 m70,0 h7 m5,0 h7 m21,0 h7 m10,0 h7 m11,0 h4 m-243,0 h7 m260,0 h3 m12,0 h2 m-490,0 h7 m15,0 h2 m13,0 h7 m70,0 h7 m50,0 h7 m8,0 h7
M338,322.5 h6 m16,0 h7 m-286,0 h7 m16,0 h7
M305,323.5 h7 m-263,0 h7
M265,324.5 h7 m99,0 h7 m-369,0 h7
M285,325.5 h5 m54,0 h3 m58,0 h7 m9,0 h7 m9,0 h7 m25,0 h7 m-449,0 h7 m39,0 h7 m8,0 h7 m70,0 h7 m9,0 h7
M256,326.5 h7 m33,0 h7 m78,0 h7 m65,0 h7 m25,0 h7 m-492,0 h7 m33,0 h7 m81,0 h4 m68,0 h4 m25,0 h7
M246,327.5 h7 m138,0 h7 m104,0 h7 m-374,0 h7
M321,328.5 h7 m116,0 h7 m25,0 h7 m-418,0 h7 m153,0 h2
M266,329.5 h7 m15,0 h5 m13,0 h7 m101,0 h7 m-411,0 h7 m13,0 h7 m121,0 h7
M237,330.5 h7 m127,0 h7 m22,0 h7 m56,0 h3 m27,0 h7 m-385,0 h7 m22,0 h7 m56,0 h6
M274,331.5 h2 m60,0 h7 m17,0 h7 m-349,0 h7 m57,0 h5 m22,0 h2 m65,0 h7
M314,332.5 h7 m25,0 h7 m69,0 h6 m55,0 h7 m-428,0 h3 m25,0 h7 m69,0 h7 m54,0 h7
M257,333.5 h7 m33,0 h3 m27,0 h7 m59,0 h6 m55,0 h7 m-460,0 h7 m33,0 h7 m23,0 h2 m63,0 h7 m60,0 h2
M242,334.5 h7 m40,0 h4 m84,0 h4 m28,0 h7 m26,0 h7 m27,0 h3 m21,0 h5 m-475,0 h7 m84,0 h7 m25,0 h7 m26,0 h5 m25,0 h7
M274,335.5 h4 m-258,0 h5 m25,0 h2
M355,336.5 h7 m4,0 h7 m-274,0 h7 m4,0 h7
M249,337.5 h7 m12,0 h2 m147,0 h7 m9,0 h7 m44,0 h6 m15,0 h7 m-382,0 h7 m24,0 h7 m9,0 h7 m48,0 h3
M291,338.5 h7 m32,0 h7 m8,0 h7 m49,0 h7 m41,0 h7 m-367,0 h7 m97,0 h7 m8,0 h7
M318,339.5 h7 m-263,0 h7
M241,340.5 h7 m25,0 h7 m96,0 h7 m119,0 h2 m-482,0 h2 m25,0 h7 m67,0 h4
M338,341.5 h7 m48,0 h7 m25,0 h7 m40,0 h7 m-476,0 h7 m76,0 h3 m16,0 h7 m25,0 h6 m26,0 h4 m11,0 h7 m25,0 h7
M484,342.5 h7 m-79,0 h6 m35,0 h7 m-305,0 h7 m35,0 h7
M293,343.5 h7
M249,344.5 h7 m27,0 h7 m41,0 h5 m12,0 h7 m17,0 h5 m128,0 h7 m-485,0 h5 m41,0 h7 m12,0 h7
M240,345.5 h3 m30,0 h7 m26,0 h7 m3,0 h7 m63,0 h7 m36,0 h7 m38,0 h7 m11,0 h7 m-482,0 h7 m26,0 h7 m3,0 h7 m63,0 h7 m9,0 h7 m65,0 h7
M359,346.5 h3 m98,0 h7 m-364,0 h7 m77,0 h7 m10,0 h7
M256,347.5 h5 m157,0 h7 m-425,0 h7 m155,0 h7
M243,348.5 h7 m18,0 h7 m27,0 h4 m32,0 h7 m33,0 h7 m114,0 h7 m-494,0 h7 m24,0 h7 m17,0 h7 m8,0 h7 m38,0 h2
M285,349.5 h5 m102,0 h7 m54,0 h6 m10,0 h3 m-443,0 h7 m100,0 h7 m9,0 h7 m37,0 h7 m10,0 h7
M487,350.5 h7 m-132,0 h7 m69,0 h4 m-211,0 h7 m-132,0 h7 m69,0 h7
M347,351.5 h7 m-263,0 h5 m74,0 h7
M335,352.5 h2 m37,0 h7 m17,0 h7 m-367,0 h7 m29,0 h7 m37,0 h7 m17,0 h7
M254,353.5 h7 m9,0 h7 m39,0 h7 m92,0 h7 m25,0 h7 m28,0 h2 m26,0 h2 m-512,0 h5 m9,0 h7 m39,0 h7 m92,0 h7 m25,0 h4 m26,0 h7
M241,354.5 h3 m62,0 h7 m38,0 h7 m139,0 h2 m-449,0 h3
M282,355.5 h7 m177,0 h4 m-444,0 h7 m49,0 h7 m121,0 h7
M365,356.5 h7 m9,0 h7 m5,0 h7 m7,0 h7 m42,0 h7 m-354,0 h7 m9,0 h7 m5,0 h7 m7,0 h7 m10,0 h7
M293,357.5 h7 m25,0 h7 m108,0 h7 m-215,0 h7 m-202,0 h7 m25,0 h4 m111,0 h7 m297,0 h7
M254,358.5 h3 m7,0 h7 m5,0 h7 m227,0 h2 m-512,0 h1 m7,0 h4 m13,0 h2
M308,359.5 h7 m38,0 h7 m11,0 h3 m-259,0 h7
M400,360.5 h7 m10,0 h6 m9,0 h7 m-293,0 h5 m25,0 h7
M255,361.5 h7 m23,0 h7 m29,0 h7 m58,0 h4 m73,0 h7 m-386,0 h5 m408,0 h3 m12,0 h0 m-512,0 h6 m23,0 h7 m29,0 h7 m55,0 h7 m74,0 h6
M484,362.5 h7 m-192,0 h6 m146,0 h3 m-225,0 h6 m-192,0 h7 m145,0 h7
M471,363.5 h7 m-263,0 h2
M267,364.5 h7 m39,0 h6 m9,0 h7 m17,0 h4 m11,0 h2 m23,0 h7 m25,0 h7 m8,0 h7 m-435,0 h3 m58,0 h2 m22,0 h7 m3,0 h7 m39,0 h6 m12,0 h5 m8,0 h7
M278,365.5 h7 m-259,0 h3
M246,366.5 h7 m89,0 h7 m24,0 h2 m-85,0 h7 m205,0 h7 m-423,0 h7 m107,0 h7
M482,367.5 h7 m-231,0 h2 m185,0 h7 m-226,0 h7 m-231,0 h7 m180,0 h7
M299,368.5 h4 m12,0 h4 m13,0 h7 m62,0 h7 m12,0 h3 m-379,0 h6 m6,0 h7 m13,0 h7 m67,0 h2 m8,0 h7
M238,369.5 h7 m26,0 h6 m103,0 h7 m83,0 h7 m17,0 h7 m-487,0 h7 m105,0 h5 m83,0 h7
M350,370.5 h7 m35,0 h7 m28,0 h7 m-407,0 h5 m62,0 h7 m5,0 h7 m23,0 h3 m32,0 h7
M438,371.5 h7 m-263,0 h7 m16,0 h2
M250,372.5 h7 m59,0 h7 m162,0 h7 m14,0 h6 m-512,0 h1 m59,0 h7 m162,0 h7
M302,373.5 h3 m24,0 h7 m7,0 h7 m21,0 h7 m35,0 h7 m-374,0 h7 m20,0 h7 m7,0 h7 m63,0 h7
M385,374.5 h7 m77,0 h5 m-74,0 h7 m-278,0 h7 m77,0 h7 m-76,0 h7
M428,375.5 h7 m-194,0 h7 m25,0 h7 m14,0 h3 m148,0 h7 m8,0 h7 m-295,0 h5 m324,0 h3 m-487,0 h7 m165,0 h6 m12,0 h4
M483,376.5 h2 m-263,0 h7
M311,377.5 h2 m3,0 h2 m16,0 h7 m14,0 h7 m3,0 h7 m-317,0 h2 m21,0 h7 m16,0 h5 m3,0 h7
M249,378.5 h7 m10,0 h7 m49,0 h7 m47,0 h7 m26,0 h7 m22,0 h7 m60,0 h7 m-497,0 h2 m52,0 h4 m47,0 h7 m9,0 h7 m10,0 h4
M279,379.5 h7 m14,0 h7 m38,0 h7 m68,0 h3 m63,0 h5 m-468,0 h7 m14,0 h7 m38,0 h7 m69,0 h6 m59,0 h7
M290,380.5 h7 m-263,0 h7
M258,381.5 h7 m182,0 h7 m6,0 h7 m-465,0 h3 m186,0 h7 m6,0 h7
M385,382.5 h7 m-84,0 h2 m-181,0 h7 m-84,0 h5 m88,0 h7 m65,0 h4
M353,383.5 h6 m75,0 h6
M234,384.5 h6 m41,0 h7 m34,0 h6 m35,0 h7 m6,0 h4 m110,0 h3 m-468,0 h7 m38,0 h2 m35,0 h7 m6,0 h3 m43,0 h6
M251,385.5 h5 m10,0 h7 m23,0 h7 m152,0 h5 m45,0 h7 m-502,0 h7 m23,0 h7 m150,0 h7
M391,386.5 h7 m10,0 h7 m62,0 h7 m-349,0 h7 m10,0 h4
M307,387.5 h5 m31,0 h4 m116,0 h7 m-419,0 h7 m16,0 h3 m12,0 h5 m113,0 h7
M258,388.5 h7 m10,0 h7 m89,0 h6 m58,0 h2 m-435,0 h7 m10,0 h7 m89,0 h7 m52,0 h7 m9,0 h7
M483,389.5 h7 m-200,0 h7 m99,0 h7 m-171,0 h2 m-200,0 h7 m57,0 h7 m35,0 h7
M322,390.5 h7 m92,0 h7 m-191,0 h7 m-178,0 h7 m92,0 h7 m321,0 h7
M436,391.5 h7 m-130,0 h7 m42,0 h7 m38,0 h7 m-234,0 h7 m-130,0 h7 m42,0 h7 m38,0 h7
M252,392.5 h7 m7,0 h3 m29,0 h7 m40,0 h4 m27,0 h3 m87,0 h7 m35,0 h4 m-512,0 h3 m7,0 h7 m73,0 h6 m24,0 h3 m87,0 h7
M329,393.5 h7 m109,0 h2 m-374,0 h7 m109,0 h4
M241,394.5 h7 m40,0 h5 m99,0 h7 m60,0 h4 m17,0 h7 m10,0 h7 m-472,0 h7 m97,0 h7 m57,0 h7 m17,0 h7
M338,395.5 h7 m38,0 h7 m26,0 h7 m-406,0 h7 m58,0 h7 m38,0 h7 m26,0 h7
M304,396.5 h7 m8,0 h7 m27,0 h7 m9,0 h7 m26,0 h7 m25,0 h7 m-389,0 h3 m8,0 h7 m27,0 h7 m9,0 h7 m58,0 h7 m32,0 h7
M260,397.5 h7
M283,398.5 h5 m136,0 h7 m-197,0 h7 m7,0 h4 m-223,0 h3 m136,0 h7 m315,0 h7 m7,0 h6
M444,399.5 h7 m14,0 h6 m-283,0 h3 m-153,0 h3 m168,0 h7
M311,400.5 h7 m10,0 h7 m7,0 h7 m31,0 h7 m25,0 h7 m-364,0 h6 m11,0 h7 m7,0 h7 m31,0 h7 m25,0 h7
M273,401.5 h7 m120,0 h7 m50,0 h7 m-447,0 h2 m185,0 h4
M263,402.5 h7 m83,0 h7 m10,0 h5 m60,0 h7 m-430,0 h2 m83,0 h7 m8,0 h7 m60,0 h7
M245,403.5 h5 m54,0 h6 m11,0 h7 m94,0 h5 m58,0 h7 m9,0 h7 m-461,0 h7 m80,0 h7 m75,0 h7 m6,0 h7
M337,404.5 h7 m-263,0 h7
M277,405.5 h7 m93,0 h7 m70,0 h7 m-340,0 h7 m70,0 h7
M291,406.5 h7 m211,0 h3 m-512,0 h4 m31,0 h7 m115,0 h4
M446,407.5 h5 m-215,0 h7 m156,0 h5 m62,0 h7 m5,0 h7 m-295,0 h7 m295,0 h6 m-357,0 h7 m74,0 h7
M303,408.5 h7 m13,0 h7 m-283,0 h7
M263,409.5 h7 m81,0 h7 m25,0 h4 m52,0 h7 m-439,0 h7 m66,0 h4 m11,0 h7 m30,0 h2 m49,0 h7
M245,410.5 h7 m21,0 h7 m140,0 h3 m-406,0 h7 m136,0 h7
M283,411.5 h7 m4,0 h7 m160,0 h5 m-439,0 h7 m4,0 h7 m10,0 h7 m141,0 h5
M254,412.5 h7 m217,0 h7 m5,0 h5 m15,0 h2 m-512,0 h5 m217,0 h7
M322,413.5 h6 m20,0 h7 m14,0 h7 m11,0 h7 m6,0 h7 m20,0 h7 m13,0 h2 m-384,0 h7 m22,0 h5 m16,0 h5 m15,0 h3 m6,0 h7 m20,0 h7 m13,0 h7
M411,414.5 h7 m-263,0 h7 m-85,0 h4
M468,415.5 h7
M301,416.5 h7 m-62,0 h6 m11,0 h7 m12,0 h2 m76,0 h7 m12,0 h7 m50,0 h7 m-398,0 h7 m-45,0 h7 m7,0 h7 m76,0 h7 m74,0 h2
M232,417.5 h2 m157,0 h7 m22,0 h7 m61,0 h7 m-438,0 h7 m72,0 h6 m22,0 h7 m24,0 h7
M337,418.5 h7 m63,0 h7 m-333,0 h2 m68,0 h7
M253,419.5 h7 m25,0 h7 m60,0 h7 m11,0 h7 m132,0 h3 m-512,0 h4 m27,0 h5 m60,0 h7 m11,0 h7
M294,420.5 h7 m20,0 h7 m130,0 h7 m18,0 h2 m-447,0 h7 m20,0 h7 m130,0 h7 m13,0 h7
M247,421.5 h2 m57,0 h7 m30,0 h7 m46,0 h7 m23,0 h7 m6,0 h7 m21,0 h6 m25,0 h7 m-487,0 h7 m62,0 h7 m46,0 h6 m24,0 h6 m12,0 h2 m21,0 h7
M382,422.5 h3 m-55,0 h7 m-215,0 h7 m-55,0 h7
M262,423.5 h7 m93,0 h7 m81,0 h7 m-451,0 h7 m93,0 h7 m81,0 h7
M250,424.5 h7 m27,0 h5 m119,0 h7 m91,0 h6 m-512,0 h1 m156,0 h2
M234,425.5 h7 m149,0 h7 m22,0 h7 m8,0 h2 m54,0 h7 m-363,0 h7 m22,0 h7
M297,426.5 h7 m7,0 h7 m-277,0 h7 m11,0 h3 m36,0 h7 m120,0 h4
M266,427.5 h7 m49,0 h7 m12,0 h7 m24,0 h4 m90,0 h7 m-407,0 h7 m12,0 h7 m24,0 h7 m87,0 h5
M389,428.5 h3 m13,0 h4 m42,0 h7 m-329,0 h7 m59,0 h7
M242,429.5 h7 m82,0 h7 m160,0 h7
M272,430.5 h7 m24,0 h3 m60,0 h6 m-118,0 h7 m-241,0 h3 m24,0 h3 m59,0 h7 m66,0 h7 m321,0 h2 m-512,0 h5
M424,431.5 h7 m46,0 h7 m-250,0 h6 m172,0 h7 m-251,0 h7 m51,0 h2 m262,0 h7 m-341,0 h7 m40,0 h7
M342,432.5 h3 m103,0 h4 m-368,0 h5 m9,0 h7 m84,0 h7
M296,433.5 h5 m22,0 h7 m40,0 h7 m-371,0 h3 m29,0 h7 m7,0 h7 m8,0 h6 m42,0 h6 m7,0 h3 m12,0 h7
M280,434.5 h4 m147,0 h6 m-413,0 h7 m144,0 h7
M349,435.5 h7 m113,0 h7 m-383,0 h7 m113,0 h4
M254,436.5 h5 m154,0 h3 m68,0 h7 m20,0 h1 m-512,0 h5 m148,0 h7 m68,0 h7
M317,437.5 h6 m8,0 h5 m58,0 h7 m43,0 h7 m-391,0 h7 m8,0 h7 m59,0 h4 m43,0 h7 m13,0 h2
M275,438.5 h7 m94,0 h7 m45,0 h7 m-73,0 h7 m-350,0 h7 m9,0 h7 m80,0 h5 m45,0 h7 m-73,0 h3
M348,439.5 h7 m65,0 h4 m-332,0 h2 m67,0 h7
M251,440.5 h2 m134,0 h7 m92,0 h4 m-483,0 h7 m37,0 h7 m169,0 h7
M295,441.5 h7 m103,0 h7 m23,0 h7 m28,0 h4 m-435,0 h7 m20,0 h7 m9,0 h7 m60,0 h7 m55,0 h7
M360,442.5 h7 m88,0 h7 m-358,0 h7
M271,443.5 h7 m-263,0 h7
M489,444.5 h5 m-251,0 h7 m8,0 h7 m49,0 h3 m61,0 h7 m7,0 h7 m45,0 h7 m23,0 h2 m-245,0 h7 m261,0 h7 m-504,0 h7 m49,0 h7 m58,0 h6 m7,0 h7 m48,0 h4 m23,0 h7
M278,445.5 h7 m61,0 h7 m-331,0 h7 m61,0 h2
M293,446.5 h7 m29,0 h5 m69,0 h7 m-104,0 h7 m57,0 h7 m-340,0 h7 m103,0 h6 m-103,0 h7 m57,0 h7
M436,447.5 h7 m11,0 h7 m-356,0 h5 m88,0 h7
M338,448.5 h7 m-63,0 h7 m181,0 h7 m-395,0 h7 m-63,0 h7 m133,0 h7 m41,0 h7
M490,449.5 h4 m-248,0 h7 m-22,0 h7 m264,0 h7
M255,450.5 h7 m9,0 h7 m118,0 h7 m7,0 h7 m94,0 h1 m-512,0 h6 m120,0 h7 m7,0 h7
M300,451.5 h7 m9,0 h7 m7,0 h7 m11,0 h7 m89,0 h4 m11,0 h7 m-422,0 h7 m9,0 h7 m25,0 h7 m89,0 h7 m8,0 h7
M373,452.5 h7 m49,0 h7 m41,0 h7 m-454,0 h5 m70,0 h7 m5,0 h7 m49,0 h7
M240,453.5 h7 m16,0 h7 m226,0 h7 m-496,0 h7
M309,454.5 h7 m23,0 h7 m49,0 h4 m20,0 h7 m-343,0 h7 m46,0 h7 m20,0 h7
M295,455.5 h5 m105,0 h7 m25,0 h7 m24,0 h7 m-280,0 h7 m-53,0 h7 m25,0 h7 m24,0 h6
M482,456.5 h7 m-136,0 h5 m-127,0 h2 m-136,0 h7 m23,0 h4
M261,457.5 h3 m7,0 h7 m50,0 h7 m-334,0 h7 m64,0 h7
M239,458.5 h7 m68,0 h5 m24,0 h7 m112,0 h7 m-408,0 h4 m22,0 h7 m112,0 h7
M280,459.5 h3 m76,0 h7 m9,0 h7 m17,0 h7 m8,0 h6 m11,0 h6 m-413,0 h7 m72,0 h7 m9,0 h7 m17,0 h7 m8,0 h7
M296,460.5 h4 m5,0 h7 m196,0 h4 m-463,0 h2 m141,0 h7
M265,461.5 h7 m115,0 h7 m79,0 h7 m7,0 h7 m-485,0 h7 m49,0 h7 m145,0 h4 m11,0 h6
M336,462.5 h7 m25,0 h7 m64,0 h7 m-366,0 h7 m25,0 h7 m64,0 h7
M242,463.5 h7 m160,0 h7 m39,0 h7 m-309,0 h7 m6,0 h4 m29,0 h7
M287,464.5 h7 m-263,0 h7
M255,465.5 h7 m13,0 h7 m32,0 h5 m12,0 h5 m9,0 h7 m9,0 h3 m32,0 h6 m63,0 h7 m9,0 h7 m23,0 h1 m-512,0 h6 m13,0 h7 m32,0 h7 m8,0 h7 m9,0 h7 m9,0 h3 m34,0 h4 m63,0 h7 m9,0 h7
M377,466.5 h7 m-263,0 h7
M304,467.5 h7 m122,0 h5 m-390,0 h7 m120,0 h7
M232,468.5 h6 m28,0 h4 m24,0 h7 m66,0 h6 m30,0 h7 m8,0 h7 m16,0 h7 m40,0 h7 m-457,0 h7 m65,0 h7 m15,0 h7 m8,0 h7 m8,0 h7 m16,0 h4
M245,469.5 h7 m69,0 h7 m125,0 h7 m10,0 h2 m29,0 h7 m-443,0 h7 m125,0 h7 m13,0 h4
M284,470.5 h7 m42,0 h4 m-309,0 h7 m42,0 h7
M272,471.5 h7 m65,0 h7 m27,0 h7 m-369,0 h7 m65,0 h7 m27,0 h7
M255,472.5 h5 m161,0 h7 m56,0 h3 m24,0 h1 m-512,0 h4 m161,0 h7 m52,0 h7
M301,473.5 h7 m91,0 h7 m26,0 h7 m21,0 h7 m30,0 h7 m-459,0 h7 m91,0 h3 m30,0 h7 m21,0 h3
M322,474.5 h7 m41,0 h7 m73,0 h3 m-387,0 h7 m41,0 h5 m80,0 h2
M278,475.5 h7 m103,0 h7 m-373,0 h7 m25,0 h7 m39,0 h7 m25,0 h7 m21,0 h7 m52,0 h4
M233,476.5 h3 m63,0 h2 m104,0 h7 m28,0 h7 m42,0 h7 m-458,0 h7 m42,0 h4 m93,0 h3
M251,477.5 h7 m249,0 h5 m-512,0 h2
M331,478.5 h4 m45,0 h7 m76,0 h7 m-121,0 h7 m-149,0 h2 m-179,0 h7 m56,0 h7
M320,479.5 h5 m40,0 h7 m-98,0 h3 m203,0 h7 m-425,0 h7 m40,0 h7 m-102,0 h7 m203,0 h7
M399,480.5 h7 m27,0 h7 m9,0 h2 m-308,0 h3 m16,0 h7 m8,0 h7 m9,0 h7
M248,481.5 h7 m249,0 h7 m-455,0 h2
M232,482.5 h7 m24,0 h7 m56,0 h7 m38,0 h7 m10,0 h7 m16,0 h4 m73,0 h4 m-485,0 h7 m23,0 h6 m27,0 h7 m38,0 h4 m13,0 h7 m19,0 h4
M279,483.5 h7 m54,0 h7 m11,0 h7 m62,0 h5 m40,0 h7 m-452,0 h3 m54,0 h7 m11,0 h7 m91,0 h7 m9,0 h7
M440,484.5 h7 m-263,0 h7
M301,485.5 h7
M241,486.5 h7 m9,0 h7 m53,0 h7 m25,0 h7 m24,0 h7 m17,0 h6 m-409,0 h7 m53,0 h7 m25,0 h7 m24,0 h7 m16,0 h7
M465,487.5 h7 m-263,0 h7
M487,488.5 h6 m-215,0 h7 m41,0 h7 m37,0 h2 m54,0 h3 m25,0 h7 m13,0 h7 m-250,0 h7 m-168,0 h7 m37,0 h7 m17,0 h7 m53,0 h7 m13,0 h7
M264,489.5 h7 m23,0 h7 m9,0 h7 m25,0 h7 m62,0 h7 m24,0 h7 m-441,0 h7 m23,0 h7 m9,0 h7 m25,0 h7 m62,0 h7 m24,0 h7
M249,490.5 h7 m249,0 h7
M383,491.5 h6 m-263,0 h7
M286,492.5 h2 m3,0 h2 m10,0 h7 m24,0 h7 m9,0 h7 m7,0 h7 m108,0 h7 m-451,0 h2 m10,0 h7 m24,0 h7 m9,0 h7 m10,0 h4 m61,0 h7
M239,493.5 h7 m25,0 h7 m128,0 h2 m9,0 h7 m24,0 h7 m9,0 h7 m24,0 h7 m-487,0 h7 m123,0 h6 m10,0 h7 m24,0 h7 m9,0 h7
M260,494.5 h7 m56,0 h7 m-261,0 h5
M311,495.5 h7 m71,0 h7 m-278,0 h7 m378,0 h7 m-455,0 h6 m72,0 h7
M236,496.5 h3 m38,0 h7 m14,0 h3 m107,0 h7 m25,0 h7 m41,0 h7 m-474,0 h7 m10,0 h7 m139,0 h7
M340,497.5 h2 m82,0 h4 m28,0 h7 m13,0 h3 m-400,0 h3 m86,0 h7 m25,0 h5 m11,0 h7
M365,498.5 h7 m-258,0 h2
M259,499.5 h6 m39,0 h4 m70,0 h7 m12,0 h7 m77,0 h7 m-458,0 h7 m11,0 h7 m86,0 h7
M320,500.5 h4 m18,0 h6 m70,0 h7 m78,0 h7 m-348,0 h7 m25,0 h7
M388,501.5 h7 m38,0 h7 m-307,0 h6 m38,0 h6 m32,0 h2
M264,502.5 h2 m33,0 h3 m25,0 h3 m18,0 h6 m-341,0 h2 m58,0 h5 m17,0 h4
M279,503.5 h5 m125,0 h7 m-395,0 h7
M235,504.5 h7 m136,0 h7 m59,0 h3 m33,0 h7 m-294,0 h2 m29,0 h7
M253,505.5 h7 m45,0 h4 m12,0 h7 m98,0 h7 m26,0 h6 m44,0 h3 m-512,0 h4 m45,0 h7 m9,0 h7 m67,0 h7 m24,0 h7 m25,0 h2
M287,506.5 h7 m74,0 h7 m-344,0 h6 m75,0 h7
M241,507.5 h7 m27,0 h7 m54,0 h7 m7,0 h7 m78,0 h7 m60,0 h2 m-485,0 h7 m54,0 h7 m7,0 h7 m78,0 h2
M261,508.5 h7 m46,0 h7 m84,0 h4 m7,0 h7 m26,0 h7 m10,0 h7 m-468,0 h7 m46,0 h7 m81,0 h7 m7,0 h7 m27,0 h6 m10,0 h7
M357,509.5 h7 m20,0 h7 m87,0 h7 m-384,0 h7 m20,0 h7 m87,0 h7
M250,510.5 h7 m36,0 h7 m28,0 h7 m171,0 h6 m-512,0 h1 m71,0 h7
M424,511.5 h7 m-263,0 h7
M237,0.5 h7 m26,0 h7 m27,0 h7 m56,0 h7 m19,0 h3 m12,0 h7 m78,0 h7 m-486,0 h7 m27,0 h7 m56,0 h7 m19,0 h7 m8,0 h7
M285,1.5 h7 m29,0 h7 m8,0 h7 m10,0 h7 m18,0 h7 m54,0 h7 m7,0 h7 m-431,0 h7 m29,0 h7 m8,0 h7 m10,0 h7 m18,0 h7 m54,0 h7 m7,0 h7
M258,2.5 h7 m204,0 h7 m6,0 h7 m-487,0 h7 m204,0 h7 m6,0 h7
M297,4.5 h7 m42,0 h7 m46,0 h7 m9,0 h7 m39,0 h7 m-427,0 h7 m42,0 h7 m62,0 h7 m8,0 h6 m25,0 h7
M235,5.5 h7 m6,0 h6 m22,0 h7 m79,0 h7 m122,0 h7 m5,0 h7 m-485,0 h2 m79,0 h7
M318,6.5 h7 m65,0 h7 m42,0 h7 m-67,0 h7 m-336,0 h4 m13,0 h2 m65,0 h7 m42,0 h7 m-66,0 h6
M288,7.5 h7 m-32,0 h5 m59,0 h7 m117,0 h7 m-426,0 h7 m-32,0 h6 m58,0 h7 m117,0 h7
M338,8.5 h7 m24,0 h7 m92,0 h7 m-393,0 h7 m24,0 h7 m92,0 h7
M255,9.5 h3 m142,0 h7 m104,0 h1 m-512,0 h2 m175,0 h5
M316,10.5 h3 m98,0 h7 m-263,0 h4
M297,11.5 h7 m141,0 h7 m23,0 h4 m-438,0 h7 m141,0 h7 m23,0 h2
M241,12.5 h2 m41,0 h7 m73,0 h4 m92,0 h7 m30,0 h3 m-472,0 h6 m75,0 h3 m43,0 h5 m44,0 h7
M262,13.5 h5 m57,0 h7 m8,0 h7 m39,0 h2 m6,0 h7 m24,0 h7 m-425,0 h7 m55,0 h7 m10,0 h5 m47,0 h7
M370,14.5 h2 m-320,0 h7 m175,0 h3 m-123,0 h5
M280,15.5 h4 m70,0 h7 m78,0 h7 m11,0 h4 m-440,0 h7 m155,0 h2 m3,0 h2 m8,0 h7
M332,16.5 h6 m136,0 h7 m-263,0 h7
M301,17.5 h7 m81,0 h7 m-351,0 h7 m81,0 h7
M238,18.5 h7 m104,0 h4 m47,0 h7 m22,0 h7 m26,0 h7 m25,0 h7 m-411,0 h7 m47,0 h7 m4,0 h7 m11,0 h7 m26,0 h4
M258,19.5 h7 m5,0 h7 m46,0 h7 m30,0 h7 m-365,0 h7 m5,0 h7 m46,0 h7 m30,0 h7 m10,0 h7
M485,20.5 h7 m-213,0 h4 m28,0 h7 m102,0 h7 m-198,0 h7 m-213,0 h7 m25,0 h7 m102,0 h7
M248,21.5 h7 m181,0 h7 m28,0 h7 m26,0 h7 m-331,0 h3 m12,0 h7
M335,22.5 h2 m50,0 h7 m-25,0 h7 m-245,0 h4 m-22,0 h7
M300,23.5 h7 m43,0 h7 m-313,0 h7 m43,0 h7
M318,24.5 h7 m72,0 h7 m13,0 h7 m20,0 h5 m-387,0 h7 m74,0 h5 m13,0 h7
M241,25.5 h7 m9,0 h7 m8,0 h7 m128,0 h7 m51,0 h5 m11,0 h7 m9,0 h7 m-503,0 h7 m8,0 h7 m9,0 h7 m112,0 h7 m67,0 h7
M326,26.5 h7 m28,0 h7 m7,0 h7 m-312,0 h7 m28,0 h7 m7,0 h7
M295,27.5 h7 m38,0 h7 m81,0 h3 m24,0 h7 m-423,0 h7 m38,0 h7 m77,0 h7 m24,0 h7
M233,28.5 h7 m25,0 h7 m115,0 h7 m95,0 h7 m-487,0 h7 m39,0 h6 m70,0 h2
M253,29.5 h3 m25,0 h7 m63,0 h7 m77,0 h7 m63,0 h7 m-487,0 h7 m63,0 h7 m77,0 h7 m31,0 h7
M447,30.5 h7 m-122,0 h7 m76,0 h2 m-226,0 h7 m-122,0 h7
M301,31.5 h7 m56,0 h7 m-326,0 h7 m56,0 h3
M257,32.5 h7 m8,0 h7 m179,0 h7 m16,0 h7 m-472,0 h7 m179,0 h7 m16,0 h7
M322,33.5 h4 m59,0 h7 m15,0 h7 m-362,0 h7 m12,0 h2 m56,0 h6 m16,0 h7
M341,34.5 h7 m6,0 h7 m80,0 h7 m-362,0 h6 m6,0 h7 m16,0 h4 m46,0 h3 m11,0 h7
M234,35.5 h7 m263,0 h7 m-485,0 h7 m185,0 h7
M265,36.5 h7 m24,0 h7 m60,0 h7 m63,0 h7 m24,0 h7 m-459,0 h4 m26,0 h5 m28,0 h7 m25,0 h2 m68,0 h7 m24,0 h7
M405,37.5 h4 m47,0 h2 m-312,0 h7
M311,38.5 h7 m74,0 h2 m-339,0 h6 m75,0 h7
M235,39.5 h7 m34,0 h3 m-22,0 h5 m30,0 h4 m43,0 h7 m67,0 h7 m-400,0 h7 m130,0 h7
M323,40.5 h4 m33,0 h2 m22,0 h6 m36,0 h7 m-366,0 h7 m25,0 h7 m21,0 h7 m36,0 h7
M246,41.5 h7 m208,0 h7 m7,0 h7 m20,0 h7 m-302,0 h5 m7,0 h6
M345,42.5 h3 m-51,0 h7 m9,0 h7 m116,0 h7 m-349,0 h2 m-51,0 h3 m9,0 h7 m116,0 h7
M419,43.5 h7 m-415,0 h6 m146,0 h7 m24,0 h3
M235,44.5 h6 m89,0 h7 m25,0 h7 m33,0 h7 m81,0 h7 m-470,0 h6 m41,0 h7 m25,0 h7
M306,45.5 h7 m66,0 h7 m5,0 h7 m67,0 h7 m-422,0 h7 m66,0 h7 m5,0 h7 m67,0 h7
M255,46.5 h5 m76,0 h7 m99,0 h6 m-38,0 h7 m64,0 h7 m23,0 h1 m-512,0 h6 m74,0 h7 m99,0 h7 m-36,0 h4"/>
</svg>
