<?xml version="1.0" encoding="UTF-8"?>
<svg version="1.1" width="256" height="256" viewBox="0 0 256 256" xmlns="http://www.w3.org/2000/svg">
  <path d="M245,-12 m3.5,13 v-5.5 a3,3.5 0 0 1 0,-7 3,3.5 0 0 1 0,7" stroke-width="1" stroke="#6b8d5e" fill="none"/>
  <path d="M187,-10 m3.5,13 v-5.5 a3,3.5 0 0 1 0,-7 3,3.5 0 0 1 0,7" stroke-width="1" stroke="#6b8d5e" fill="none"/>
  <path d="M151,-8 m3.5,13 v-5.5 a3,3.5 0 0 1 0,-7 3,3.5 0 0 1 0,7" stroke-width="1" stroke="#6b8d5e" fill="none"/>
  <path d="M113,4 m3.5,13 v-5.5 a3,3.5 0 0 1 0,-7 3,3.5 0 0 1 0,7" stroke-width="1" stroke="#6b8d5e" fill="none"/>
  <path d="M47,6 m3.5,13 v-5.5 a3,3.5 0 0 1 0,-7 3,3.5 0 0 1 0,7" stroke-width="1" stroke="#6b8d5e" fill="none"/>
  <path d="M10,11 m3.5,13 v-5.5 a3,3.5 0 0 1 0,-7 3,3.5 0 0 1 0,7" stroke-width="1" stroke="#6b8d5e" fill="none"/>
  <path d="M73,19 m3.5,13 v-5.5 a3,3.5 0 0 1 0,-7 3,3.5 0 0 1 0,7" stroke-width="1" stroke="#6b8d5e" fill="none"/>
  <path d="M153,44 m3.5,13 v-5.5 a3,3.5 0 0 1 0,-7 3,3.5 0 0 1 0,7" stroke-width="1" stroke="#6b8d5e" fill="none"/>
  <path d="M71,48 m3.5,13 v-5.5 a3,3.5 0 0 1 0,-7 3,3.5 0 0 1 0,7" stroke-width="1" stroke="#6b8d5e" fill="none"/>
  <path d="M7,49 m3.5,13 v-5.5 a3,3.5 0 0 1 0,-7 3,3.5 0 0 1 0,7" stroke-width="1" stroke="#6b8d5e" fill="none"/>
  <path d="M179,53 m3.5,13 v-5.5 a3,3.5 0 0 1 0,-7 3,3.5 0 0 1 0,7" stroke-width="1" stroke="#6b8d5e" fill="none"/>
  <path d="M32,68 m3.5,13 v-5.5 a3,3.5 0 0 1 0,-7 3,3.5 0 0 1 0,7" stroke-width="1" stroke="#6b8d5e" fill="none"/>
  <path d="M98,69 m3.5,13 v-5.5 a3,3.5 0 0 1 0,-7 3,3.5 0 0 1 0,7" stroke-width="1" stroke="#6b8d5e" fill="none"/>
  <path d="M204,75 m3.5,13 v-5.5 a3,3.5 0 0 1 0,-7 3,3.5 0 0 1 0,7" stroke-width="1" stroke="#6b8d5e" fill="none"/>
  <path d="M161,79 m3.5,13 v-5.5 a3,3.5 0 0 1 0,-7 3,3.5 0 0 1 0,7" stroke-width="1" stroke="#6b8d5e" fill="none"/>
  <path d="M71,82 m3.5,13 v-5.5 a3,3.5 0 0 1 0,-7 3,3.5 0 0 1 0,7" stroke-width="1" stroke="#6b8d5e" fill="none"/>
  <path d="M45,101 m3.5,13 v-5.5 a3,3.5 0 0 1 0,-7 3,3.5 0 0 1 0,7" stroke-width="1" stroke="#6b8d5e" fill="none"/>
  <path d="M143,150 m3.5,13 v-5.5 a3,3.5 0 0 1 0,-7 3,3.5 0 0 1 0,7" stroke-width="1" stroke="#6b8d5e" fill="none"/>
  <path d="M206,174 m3.5,13 v-5.5 a3,3.5 0 0 1 0,-7 3,3.5 0 0 1 0,7" stroke-width="1" stroke="#6b8d5e" fill="none"/>
  <path d="M84,175 m3.5,13 v-5.5 a3,3.5 0 0 1 0,-7 3,3.5 0 0 1 0,7" stroke-width="1" stroke="#6b8d5e" fill="none"/>
  <path d="M143,185 m3.5,13 v-5.5 a3,3.5 0 0 1 0,-7 3,3.5 0 0 1 0,7" stroke-width="1" stroke="#6b8d5e" fill="none"/>
  <path d="M231,205 m3.5,13 v-5.5 a3,3.5 0 0 1 0,-7 3,3.5 0 0 1 0,7" stroke-width="1" stroke="#6b8d5e" fill="none"/>
  <path d="M42,220 m3.5,13 v-5.5 a3,3.5 0 0 1 0,-7 3,3.5 0 0 1 0,7" stroke-width="1" stroke="#6b8d5e" fill="none"/>
  <path d="M104,234 m3.5,13 v-5.5 a3,3.5 0 0 1 0,-7 3,3.5 0 0 1 0,7" stroke-width="1" stroke="#6b8d5e" fill="none"/>
  <path d="M245,244 m3.5,13 v-5.5 a3,3.5 0 0 1 0,-7 3,3.5 0 0 1 0,7" stroke-width="1" stroke="#6b8d5e" fill="none"/>
  <path d="M187,246 m3.5,13 v-5.5 a3,3.5 0 0 1 0,-7 3,3.5 0 0 1 0,7" stroke-width="1" stroke="#6b8d5e" fill="none"/>
  <path d="M151,248 m3.5,13 v-5.5 a3,3.5 0 0 1 0,-7 3,3.5 0 0 1 0,7" stroke-width="1" stroke="#6b8d5e" fill="none"/>
  <path d="M212,12 m3.5,13 v-5.5 a3,3.5 0 0 1 0,-7 3,3.5 0 0 1 0,7" stroke-width="1" stroke="#6b8d5e" fill="none"/>
  <path d="M175,18 m3.5,13 v-5.5 a3,3.5 0 0 1 0,-7 3,3.5 0 0 1 0,7" stroke-width="1" stroke="#6b8d5e" fill="none"/>
  <path d="M134,22 m3.5,13 v-5.5 a3,3.5 0 0 1 0,-7 3,3.5 0 0 1 0,7" stroke-width="1" stroke="#6b8d5e" fill="none"/>
  <path d="M238,28 m3.5,13 v-5.5 a3,3.5 0 0 1 0,-7 3,3.5 0 0 1 0,7" stroke-width="1" stroke="#6b8d5e" fill="none"/>
  <path d="M42,39 m3.5,13 v-5.5 a3,3.5 0 0 1 0,-7 3,3.5 0 0 1 0,7" stroke-width="1" stroke="#6b8d5e" fill="none"/>
  <path d="M110,41 m3.5,13 v-5.5 a3,3.5 0 0 1 0,-7 3,3.5 0 0 1 0,7" stroke-width="1" stroke="#6b8d5e" fill="none"/>
  <path d="M217,46 m3.5,13 v-5.5 a3,3.5 0 0 1 0,-7 3,3.5 0 0 1 0,7" stroke-width="1" stroke="#6b8d5e" fill="none"/>
  <path d="M131,71 m3.5,13 v-5.5 a3,3.5 0 0 1 0,-7 3,3.5 0 0 1 0,7" stroke-width="1" stroke="#6b8d5e" fill="none"/>
  <path d="M234,85 m3.5,13 v-5.5 a3,3.5 0 0 1 0,-7 3,3.5 0 0 1 0,7" stroke-width="1" stroke="#6b8d5e" fill="none"/>
  <path d="M8,86 m3.5,13 v-5.5 a3,3.5 0 0 1 0,-7 3,3.5 0 0 1 0,7" stroke-width="1" stroke="#6b8d5e" fill="none"/>
  <path d="M183,100 m3.5,13 v-5.5 a3,3.5 0 0 1 0,-7 3,3.5 0 0 1 0,7" stroke-width="1" stroke="#6b8d5e" fill="none"/>
  <path d="M107,101 m3.5,13 v-5.5 a3,3.5 0 0 1 0,-7 3,3.5 0 0 1 0,7" stroke-width="1" stroke="#6b8d5e" fill="none"/>
  <path d="M143,107 m3.5,13 v-5.5 a3,3.5 0 0 1 0,-7 3,3.5 0 0 1 0,7" stroke-width="1" stroke="#6b8d5e" fill="none"/>
  <path d="M213,110 m3.5,13 v-5.5 a3,3.5 0 0 1 0,-7 3,3.5 0 0 1 0,7" stroke-width="1" stroke="#6b8d5e" fill="none"/>
  <path d="M79,111 m3.5,13 v-5.5 a3,3.5 0 0 1 0,-7 3,3.5 0 0 1 0,7" stroke-width="1" stroke="#6b8d5e" fill="none"/>
  <path d="M15,113 m3.5,13 v-5.5 a3,3.5 0 0 1 0,-7 3,3.5 0 0 1 0,7" stroke-width="1" stroke="#6b8d5e" fill="none"/>
  <path d="M242,123 m3.5,13 v-5.5 a3,3.5 0 0 1 0,-7 3,3.5 0 0 1 0,7" stroke-width="1" stroke="#6b8d5e" fill="none"/>
  <path d="M165,125 m3.5,13 v-5.5 a3,3.5 0 0 1 0,-7 3,3.5 0 0 1 0,7" stroke-width="1" stroke="#6b8d5e" fill="none"/>
  <path d="M111,132 m3.5,13 v-5.5 a3,3.5 0 0 1 0,-7 3,3.5 0 0 1 0,7" stroke-width="1" stroke="#6b8d5e" fill="none"/>
  <path d="M36,133 m3.5,13 v-5.5 a3,3.5 0 0 1 0,-7 3,3.5 0 0 1 0,7" stroke-width="1" stroke="#6b8d5e" fill="none"/>
  <path d="M199,139 m3.5,13 v-5.5 a3,3.5 0 0 1 0,-7 3,3.5 0 0 1 0,7" stroke-width="1" stroke="#6b8d5e" fill="none"/>
  <path d="M79,145 m3.5,13 v-5.5 a3,3.5 0 0 1 0,-7 3,3.5 0 0 1 0,7" stroke-width="1" stroke="#6b8d5e" fill="none"/>
  <path d="M225,149 m3.5,13 v-5.5 a3,3.5 0 0 1 0,-7 3,3.5 0 0 1 0,7" stroke-width="1" stroke="#6b8d5e" fill="none"/>
  <path d="M8,150 m3.5,13 v-5.5 a3,3.5 0 0 1 0,-7 3,3.5 0 0 1 0,7" stroke-width="1" stroke="#6b8d5e" fill="none"/>
  <path d="M51,156 m3.5,13 v-5.5 a3,3.5 0 0 1 0,-7 3,3.5 0 0 1 0,7" stroke-width="1" stroke="#6b8d5e" fill="none"/>
  <path d="M173,160 m3.5,13 v-5.5 a3,3.5 0 0 1 0,-7 3,3.5 0 0 1 0,7" stroke-width="1" stroke="#6b8d5e" fill="none"/>
  <path d="M114,164 m3.5,13 v-5.5 a3,3.5 0 0 1 0,-7 3,3.5 0 0 1 0,7" stroke-width="1" stroke="#6b8d5e" fill="none"/>
  <path d="M23,176 m3.5,13 v-5.5 a3,3.5 0 0 1 0,-7 3,3.5 0 0 1 0,7" stroke-width="1" stroke="#6b8d5e" fill="none"/>
  <path d="M248,180 m3.5,13 v-5.5 a3,3.5 0 0 1 0,-7 3,3.5 0 0 1 0,7" stroke-width="1" stroke="#6b8d5e" fill="none"/>
  <path d="M174,189 m3.5,13 v-5.5 a3,3.5 0 0 1 0,-7 3,3.5 0 0 1 0,7" stroke-width="1" stroke="#6b8d5e" fill="none"/>
  <path d="M54,194 m3.5,13 v-5.5 a3,3.5 0 0 1 0,-7 3,3.5 0 0 1 0,7" stroke-width="1" stroke="#6b8d5e" fill="none"/>
  <path d="M110,196 m3.5,13 v-5.5 a3,3.5 0 0 1 0,-7 3,3.5 0 0 1 0,7" stroke-width="1" stroke="#6b8d5e" fill="none"/>
  <path d="M12,207 m3.5,13 v-5.5 a3,3.5 0 0 1 0,-7 3,3.5 0 0 1 0,7" stroke-width="1" stroke="#6b8d5e" fill="none"/>
  <path d="M200,208 m3.5,13 v-5.5 a3,3.5 0 0 1 0,-7 3,3.5 0 0 1 0,7" stroke-width="1" stroke="#6b8d5e" fill="none"/>
  <path d="M76,211 m3.5,13 v-5.5 a3,3.5 0 0 1 0,-7 3,3.5 0 0 1 0,7" stroke-width="1" stroke="#6b8d5e" fill="none"/>
  <path d="M136,214 m3.5,13 v-5.5 a3,3.5 0 0 1 0,-7 3,3.5 0 0 1 0,7" stroke-width="1" stroke="#6b8d5e" fill="none"/>
  <path d="M166,223 m3.5,13 v-5.5 a3,3.5 0 0 1 0,-7 3,3.5 0 0 1 0,7" stroke-width="1" stroke="#6b8d5e" fill="none"/>
  <path d="M215,238 m3.5,13 v-5.5 a3,3.5 0 0 1 0,-7 3,3.5 0 0 1 0,7" stroke-width="1" stroke="#6b8d5e" fill="none"/>
  <path d="M19,240 m3.5,13 v-5.5 a3,3.5 0 0 1 0,-7 3,3.5 0 0 1 0,7" stroke-width="1" stroke="#6b8d5e" fill="none"/>
  <path d="M78,242 m3.5,13 v-5.5 a3,3.5 0 0 1 0,-7 3,3.5 0 0 1 0,7" stroke-width="1" stroke="#6b8d5e" fill="none"/>
</svg>