<?xml version="1.0" encoding="UTF-8"?>
<svg version="1.1" width="256" height="256" viewBox="0 0 256 256" xmlns="http://www.w3.org/2000/svg">
  <path d="M245,-12 m2.5,10 v-3.5 m-2,0 v-.4189 l1.8604,-5.5811 h.2792 l1.8604,5.5811 v.4189 z m7,3.5 v-4.5 a2,2.5 0 0 1 0,-5 2,2.5 0 0 1 0,5" stroke-width="1" stroke="#6b8d5e" fill="none"/>
  <path d="M187,-10 m2.5,10 v-3.5 m-2,0 v-.4189 l1.8604,-5.5811 h.2792 l1.8604,5.5811 v.4189 z m7,3.5 v-4.5 a2,2.5 0 0 1 0,-5 2,2.5 0 0 1 0,5" stroke-width="1" stroke="#6b8d5e" fill="none"/>
  <path d="M151,-8 m2.5,10 v-3.5 m-2,0 v-.4189 l1.8604,-5.5811 h.2792 l1.8604,5.5811 v.4189 z m7,3.5 v-4.5 a2,2.5 0 0 1 0,-5 2,2.5 0 0 1 0,5" stroke-width="1" stroke="#6b8d5e" fill="none"/>
  <path d="M113,4 m2.5,10 v-3.5 m-2,0 v-.4189 l1.8604,-5.5811 h.2792 l1.8604,5.5811 v.4189 z m7,3.5 v-4.5 a2,2.5 0 0 1 0,-5 2,2.5 0 0 1 0,5" stroke-width="1" stroke="#6b8d5e" fill="none"/>
  <path d="M47,6 m2.5,10 v-3.5 m-2,0 v-.4189 l1.8604,-5.5811 h.2792 l1.8604,5.5811 v.4189 z m7,3.5 v-4.5 a2,2.5 0 0 1 0,-5 2,2.5 0 0 1 0,5" stroke-width="1" stroke="#6b8d5e" fill="none"/>
  <path d="M10,11 m2.5,10 v-3.5 m-2,0 v-.4189 l1.8604,-5.5811 h.2792 l1.8604,5.5811 v.4189 z m7,3.5 v-4.5 a2,2.5 0 0 1 0,-5 2,2.5 0 0 1 0,5" stroke-width="1" stroke="#6b8d5e" fill="none"/>
  <path d="M73,19 m2.5,10 v-3.5 m-2,0 v-.4189 l1.8604,-5.5811 h.2792 l1.8604,5.5811 v.4189 z m7,3.5 v-4.5 a2,2.5 0 0 1 0,-5 2,2.5 0 0 1 0,5" stroke-width="1" stroke="#6b8d5e" fill="none"/>
  <path d="M153,44 m2.5,10 v-3.5 m-2,0 v-.4189 l1.8604,-5.5811 h.2792 l1.8604,5.5811 v.4189 z m7,3.5 v-4.5 a2,2.5 0 0 1 0,-5 2,2.5 0 0 1 0,5" stroke-width="1" stroke="#6b8d5e" fill="none"/>
  <path d="M71,48 m2.5,10 v-3.5 m-2,0 v-.4189 l1.8604,-5.5811 h.2792 l1.8604,5.5811 v.4189 z m7,3.5 v-4.5 a2,2.5 0 0 1 0,-5 2,2.5 0 0 1 0,5" stroke-width="1" stroke="#6b8d5e" fill="none"/>
  <path d="M7,49 m2.5,10 v-3.5 m-2,0 v-.4189 l1.8604,-5.5811 h.2792 l1.8604,5.5811 v.4189 z m7,3.5 v-4.5 a2,2.5 0 0 1 0,-5 2,2.5 0 0 1 0,5" stroke-width="1" stroke="#6b8d5e" fill="none"/>
  <path d="M179,53 m2.5,10 v-3.5 m-2,0 v-.4189 l1.8604,-5.5811 h.2792 l1.8604,5.5811 v.4189 z m7,3.5 v-4.5 a2,2.5 0 0 1 0,-5 2,2.5 0 0 1 0,5" stroke-width="1" stroke="#6b8d5e" fill="none"/>
  <path d="M32,68 m2.5,10 v-3.5 m-2,0 v-.4189 l1.8604,-5.5811 h.2792 l1.8604,5.5811 v.4189 z m7,3.5 v-4.5 a2,2.5 0 0 1 0,-5 2,2.5 0 0 1 0,5" stroke-width="1" stroke="#6b8d5e" fill="none"/>
  <path d="M98,69 m2.5,10 v-3.5 m-2,0 v-.4189 l1.8604,-5.5811 h.2792 l1.8604,5.5811 v.4189 z m7,3.5 v-4.5 a2,2.5 0 0 1 0,-5 2,2.5 0 0 1 0,5" stroke-width="1" stroke="#6b8d5e" fill="none"/>
  <path d="M204,75 m2.5,10 v-3.5 m-2,0 v-.4189 l1.8604,-5.5811 h.2792 l1.8604,5.5811 v.4189 z m7,3.5 v-4.5 a2,2.5 0 0 1 0,-5 2,2.5 0 0 1 0,5" stroke-width="1" stroke="#6b8d5e" fill="none"/>
  <path d="M161,79 m2.5,10 v-3.5 m-2,0 v-.4189 l1.8604,-5.5811 h.2792 l1.8604,5.5811 v.4189 z m7,3.5 v-4.5 a2,2.5 0 0 1 0,-5 2,2.5 0 0 1 0,5" stroke-width="1" stroke="#6b8d5e" fill="none"/>
  <path d="M71,82 m2.5,10 v-3.5 m-2,0 v-.4189 l1.8604,-5.5811 h.2792 l1.8604,5.5811 v.4189 z m7,3.5 v-4.5 a2,2.5 0 0 1 0,-5 2,2.5 0 0 1 0,5" stroke-width="1" stroke="#6b8d5e" fill="none"/>
  <path d="M45,101 m2.5,10 v-3.5 m-2,0 v-.4189 l1.8604,-5.5811 h.2792 l1.8604,5.5811 v.4189 z m7,3.5 v-4.5 a2,2.5 0 0 1 0,-5 2,2.5 0 0 1 0,5" stroke-width="1" stroke="#6b8d5e" fill="none"/>
  <path d="M143,150 m2.5,10 v-3.5 m-2,0 v-.4189 l1.8604,-5.5811 h.2792 l1.8604,5.5811 v.4189 z m7,3.5 v-4.5 a2,2.5 0 0 1 0,-5 2,2.5 0 0 1 0,5" stroke-width="1" stroke="#6b8d5e" fill="none"/>
  <path d="M206,174 m2.5,10 v-3.5 m-2,0 v-.4189 l1.8604,-5.5811 h.2792 l1.8604,5.5811 v.4189 z m7,3.5 v-4.5 a2,2.5 0 0 1 0,-5 2,2.5 0 0 1 0,5" stroke-width="1" stroke="#6b8d5e" fill="none"/>
  <path d="M84,175 m2.5,10 v-3.5 m-2,0 v-.4189 l1.8604,-5.5811 h.2792 l1.8604,5.5811 v.4189 z m7,3.5 v-4.5 a2,2.5 0 0 1 0,-5 2,2.5 0 0 1 0,5" stroke-width="1" stroke="#6b8d5e" fill="none"/>
  <path d="M143,185 m2.5,10 v-3.5 m-2,0 v-.4189 l1.8604,-5.5811 h.2792 l1.8604,5.5811 v.4189 z m7,3.5 v-4.5 a2,2.5 0 0 1 0,-5 2,2.5 0 0 1 0,5" stroke-width="1" stroke="#6b8d5e" fill="none"/>
  <path d="M231,205 m2.5,10 v-3.5 m-2,0 v-.4189 l1.8604,-5.5811 h.2792 l1.8604,5.5811 v.4189 z m7,3.5 v-4.5 a2,2.5 0 0 1 0,-5 2,2.5 0 0 1 0,5" stroke-width="1" stroke="#6b8d5e" fill="none"/>
  <path d="M42,220 m2.5,10 v-3.5 m-2,0 v-.4189 l1.8604,-5.5811 h.2792 l1.8604,5.5811 v.4189 z m7,3.5 v-4.5 a2,2.5 0 0 1 0,-5 2,2.5 0 0 1 0,5" stroke-width="1" stroke="#6b8d5e" fill="none"/>
  <path d="M104,234 m2.5,10 v-3.5 m-2,0 v-.4189 l1.8604,-5.5811 h.2792 l1.8604,5.5811 v.4189 z m7,3.5 v-4.5 a2,2.5 0 0 1 0,-5 2,2.5 0 0 1 0,5" stroke-width="1" stroke="#6b8d5e" fill="none"/>
  <path d="M245,244 m2.5,10 v-3.5 m-2,0 v-.4189 l1.8604,-5.5811 h.2792 l1.8604,5.5811 v.4189 z m7,3.5 v-4.5 a2,2.5 0 0 1 0,-5 2,2.5 0 0 1 0,5" stroke-width="1" stroke="#6b8d5e" fill="none"/>
  <path d="M187,246 m2.5,10 v-3.5 m-2,0 v-.4189 l1.8604,-5.5811 h.2792 l1.8604,5.5811 v.4189 z m7,3.5 v-4.5 a2,2.5 0 0 1 0,-5 2,2.5 0 0 1 0,5" stroke-width="1" stroke="#6b8d5e" fill="none"/>
  <path d="M151,248 m2.5,10 v-3.5 m-2,0 v-.4189 l1.8604,-5.5811 h.2792 l1.8604,5.5811 v.4189 z m7,3.5 v-4.5 a2,2.5 0 0 1 0,-5 2,2.5 0 0 1 0,5" stroke-width="1" stroke="#6b8d5e" fill="none"/>
  <path d="M212,12 m7.5,10 v-3.5 m-2,0 v-.4189 l1.8604,-5.5811 h.2792 l1.8604,5.5811 v.4189 z m-3,3.5 v-4.5 a2,2.5 0 0 1 0,-5 2,2.5 0 0 1 0,5" stroke-width="1" stroke="#6b8d5e" fill="none"/>
  <path d="M175,18 m7.5,10 v-3.5 m-2,0 v-.4189 l1.8604,-5.5811 h.2792 l1.8604,5.5811 v.4189 z m-3,3.5 v-4.5 a2,2.5 0 0 1 0,-5 2,2.5 0 0 1 0,5" stroke-width="1" stroke="#6b8d5e" fill="none"/>
  <path d="M134,22 m7.5,10 v-3.5 m-2,0 v-.4189 l1.8604,-5.5811 h.2792 l1.8604,5.5811 v.4189 z m-3,3.5 v-4.5 a2,2.5 0 0 1 0,-5 2,2.5 0 0 1 0,5" stroke-width="1" stroke="#6b8d5e" fill="none"/>
  <path d="M238,28 m7.5,10 v-3.5 m-2,0 v-.4189 l1.8604,-5.5811 h.2792 l1.8604,5.5811 v.4189 z m-3,3.5 v-4.5 a2,2.5 0 0 1 0,-5 2,2.5 0 0 1 0,5" stroke-width="1" stroke="#6b8d5e" fill="none"/>
  <path d="M42,39 m7.5,10 v-3.5 m-2,0 v-.4189 l1.8604,-5.5811 h.2792 l1.8604,5.5811 v.4189 z m-3,3.5 v-4.5 a2,2.5 0 0 1 0,-5 2,2.5 0 0 1 0,5" stroke-width="1" stroke="#6b8d5e" fill="none"/>
  <path d="M110,41 m7.5,10 v-3.5 m-2,0 v-.4189 l1.8604,-5.5811 h.2792 l1.8604,5.5811 v.4189 z m-3,3.5 v-4.5 a2,2.5 0 0 1 0,-5 2,2.5 0 0 1 0,5" stroke-width="1" stroke="#6b8d5e" fill="none"/>
  <path d="M217,46 m7.5,10 v-3.5 m-2,0 v-.4189 l1.8604,-5.5811 h.2792 l1.8604,5.5811 v.4189 z m-3,3.5 v-4.5 a2,2.5 0 0 1 0,-5 2,2.5 0 0 1 0,5" stroke-width="1" stroke="#6b8d5e" fill="none"/>
  <path d="M131,71 m7.5,10 v-3.5 m-2,0 v-.4189 l1.8604,-5.5811 h.2792 l1.8604,5.5811 v.4189 z m-3,3.5 v-4.5 a2,2.5 0 0 1 0,-5 2,2.5 0 0 1 0,5" stroke-width="1" stroke="#6b8d5e" fill="none"/>
  <path d="M234,85 m7.5,10 v-3.5 m-2,0 v-.4189 l1.8604,-5.5811 h.2792 l1.8604,5.5811 v.4189 z m-3,3.5 v-4.5 a2,2.5 0 0 1 0,-5 2,2.5 0 0 1 0,5" stroke-width="1" stroke="#6b8d5e" fill="none"/>
  <path d="M8,86 m7.5,10 v-3.5 m-2,0 v-.4189 l1.8604,-5.5811 h.2792 l1.8604,5.5811 v.4189 z m-3,3.5 v-4.5 a2,2.5 0 0 1 0,-5 2,2.5 0 0 1 0,5" stroke-width="1" stroke="#6b8d5e" fill="none"/>
  <path d="M183,100 m7.5,10 v-3.5 m-2,0 v-.4189 l1.8604,-5.5811 h.2792 l1.8604,5.5811 v.4189 z m-3,3.5 v-4.5 a2,2.5 0 0 1 0,-5 2,2.5 0 0 1 0,5" stroke-width="1" stroke="#6b8d5e" fill="none"/>
  <path d="M107,101 m7.5,10 v-3.5 m-2,0 v-.4189 l1.8604,-5.5811 h.2792 l1.8604,5.5811 v.4189 z m-3,3.5 v-4.5 a2,2.5 0 0 1 0,-5 2,2.5 0 0 1 0,5" stroke-width="1" stroke="#6b8d5e" fill="none"/>
  <path d="M143,107 m7.5,10 v-3.5 m-2,0 v-.4189 l1.8604,-5.5811 h.2792 l1.8604,5.5811 v.4189 z m-3,3.5 v-4.5 a2,2.5 0 0 1 0,-5 2,2.5 0 0 1 0,5" stroke-width="1" stroke="#6b8d5e" fill="none"/>
  <path d="M213,110 m7.5,10 v-3.5 m-2,0 v-.4189 l1.8604,-5.5811 h.2792 l1.8604,5.5811 v.4189 z m-3,3.5 v-4.5 a2,2.5 0 0 1 0,-5 2,2.5 0 0 1 0,5" stroke-width="1" stroke="#6b8d5e" fill="none"/>
  <path d="M79,111 m7.5,10 v-3.5 m-2,0 v-.4189 l1.8604,-5.5811 h.2792 l1.8604,5.5811 v.4189 z m-3,3.5 v-4.5 a2,2.5 0 0 1 0,-5 2,2.5 0 0 1 0,5" stroke-width="1" stroke="#6b8d5e" fill="none"/>
  <path d="M15,113 m7.5,10 v-3.5 m-2,0 v-.4189 l1.8604,-5.5811 h.2792 l1.8604,5.5811 v.4189 z m-3,3.5 v-4.5 a2,2.5 0 0 1 0,-5 2,2.5 0 0 1 0,5" stroke-width="1" stroke="#6b8d5e" fill="none"/>
  <path d="M242,123 m7.5,10 v-3.5 m-2,0 v-.4189 l1.8604,-5.5811 h.2792 l1.8604,5.5811 v.4189 z m-3,3.5 v-4.5 a2,2.5 0 0 1 0,-5 2,2.5 0 0 1 0,5" stroke-width="1" stroke="#6b8d5e" fill="none"/>
  <path d="M165,125 m7.5,10 v-3.5 m-2,0 v-.4189 l1.8604,-5.5811 h.2792 l1.8604,5.5811 v.4189 z m-3,3.5 v-4.5 a2,2.5 0 0 1 0,-5 2,2.5 0 0 1 0,5" stroke-width="1" stroke="#6b8d5e" fill="none"/>
  <path d="M111,132 m7.5,10 v-3.5 m-2,0 v-.4189 l1.8604,-5.5811 h.2792 l1.8604,5.5811 v.4189 z m-3,3.5 v-4.5 a2,2.5 0 0 1 0,-5 2,2.5 0 0 1 0,5" stroke-width="1" stroke="#6b8d5e" fill="none"/>
  <path d="M36,133 m7.5,10 v-3.5 m-2,0 v-.4189 l1.8604,-5.5811 h.2792 l1.8604,5.5811 v.4189 z m-3,3.5 v-4.5 a2,2.5 0 0 1 0,-5 2,2.5 0 0 1 0,5" stroke-width="1" stroke="#6b8d5e" fill="none"/>
  <path d="M199,139 m7.5,10 v-3.5 m-2,0 v-.4189 l1.8604,-5.5811 h.2792 l1.8604,5.5811 v.4189 z m-3,3.5 v-4.5 a2,2.5 0 0 1 0,-5 2,2.5 0 0 1 0,5" stroke-width="1" stroke="#6b8d5e" fill="none"/>
  <path d="M79,145 m7.5,10 v-3.5 m-2,0 v-.4189 l1.8604,-5.5811 h.2792 l1.8604,5.5811 v.4189 z m-3,3.5 v-4.5 a2,2.5 0 0 1 0,-5 2,2.5 0 0 1 0,5" stroke-width="1" stroke="#6b8d5e" fill="none"/>
  <path d="M225,149 m7.5,10 v-3.5 m-2,0 v-.4189 l1.8604,-5.5811 h.2792 l1.8604,5.5811 v.4189 z m-3,3.5 v-4.5 a2,2.5 0 0 1 0,-5 2,2.5 0 0 1 0,5" stroke-width="1" stroke="#6b8d5e" fill="none"/>
  <path d="M8,150 m7.5,10 v-3.5 m-2,0 v-.4189 l1.8604,-5.5811 h.2792 l1.8604,5.5811 v.4189 z m-3,3.5 v-4.5 a2,2.5 0 0 1 0,-5 2,2.5 0 0 1 0,5" stroke-width="1" stroke="#6b8d5e" fill="none"/>
  <path d="M51,156 m7.5,10 v-3.5 m-2,0 v-.4189 l1.8604,-5.5811 h.2792 l1.8604,5.5811 v.4189 z m-3,3.5 v-4.5 a2,2.5 0 0 1 0,-5 2,2.5 0 0 1 0,5" stroke-width="1" stroke="#6b8d5e" fill="none"/>
  <path d="M173,160 m7.5,10 v-3.5 m-2,0 v-.4189 l1.8604,-5.5811 h.2792 l1.8604,5.5811 v.4189 z m-3,3.5 v-4.5 a2,2.5 0 0 1 0,-5 2,2.5 0 0 1 0,5" stroke-width="1" stroke="#6b8d5e" fill="none"/>
  <path d="M114,164 m7.5,10 v-3.5 m-2,0 v-.4189 l1.8604,-5.5811 h.2792 l1.8604,5.5811 v.4189 z m-3,3.5 v-4.5 a2,2.5 0 0 1 0,-5 2,2.5 0 0 1 0,5" stroke-width="1" stroke="#6b8d5e" fill="none"/>
  <path d="M23,176 m7.5,10 v-3.5 m-2,0 v-.4189 l1.8604,-5.5811 h.2792 l1.8604,5.5811 v.4189 z m-3,3.5 v-4.5 a2,2.5 0 0 1 0,-5 2,2.5 0 0 1 0,5" stroke-width="1" stroke="#6b8d5e" fill="none"/>
  <path d="M248,180 m7.5,10 v-3.5 m-2,0 v-.4189 l1.8604,-5.5811 h.2792 l1.8604,5.5811 v.4189 z m-3,3.5 v-4.5 a2,2.5 0 0 1 0,-5 2,2.5 0 0 1 0,5" stroke-width="1" stroke="#6b8d5e" fill="none"/>
  <path d="M174,189 m7.5,10 v-3.5 m-2,0 v-.4189 l1.8604,-5.5811 h.2792 l1.8604,5.5811 v.4189 z m-3,3.5 v-4.5 a2,2.5 0 0 1 0,-5 2,2.5 0 0 1 0,5" stroke-width="1" stroke="#6b8d5e" fill="none"/>
  <path d="M54,194 m7.5,10 v-3.5 m-2,0 v-.4189 l1.8604,-5.5811 h.2792 l1.8604,5.5811 v.4189 z m-3,3.5 v-4.5 a2,2.5 0 0 1 0,-5 2,2.5 0 0 1 0,5" stroke-width="1" stroke="#6b8d5e" fill="none"/>
  <path d="M110,196 m7.5,10 v-3.5 m-2,0 v-.4189 l1.8604,-5.5811 h.2792 l1.8604,5.5811 v.4189 z m-3,3.5 v-4.5 a2,2.5 0 0 1 0,-5 2,2.5 0 0 1 0,5" stroke-width="1" stroke="#6b8d5e" fill="none"/>
  <path d="M12,207 m7.5,10 v-3.5 m-2,0 v-.4189 l1.8604,-5.5811 h.2792 l1.8604,5.5811 v.4189 z m-3,3.5 v-4.5 a2,2.5 0 0 1 0,-5 2,2.5 0 0 1 0,5" stroke-width="1" stroke="#6b8d5e" fill="none"/>
  <path d="M200,208 m7.5,10 v-3.5 m-2,0 v-.4189 l1.8604,-5.5811 h.2792 l1.8604,5.5811 v.4189 z m-3,3.5 v-4.5 a2,2.5 0 0 1 0,-5 2,2.5 0 0 1 0,5" stroke-width="1" stroke="#6b8d5e" fill="none"/>
  <path d="M76,211 m7.5,10 v-3.5 m-2,0 v-.4189 l1.8604,-5.5811 h.2792 l1.8604,5.5811 v.4189 z m-3,3.5 v-4.5 a2,2.5 0 0 1 0,-5 2,2.5 0 0 1 0,5" stroke-width="1" stroke="#6b8d5e" fill="none"/>
  <path d="M136,214 m7.5,10 v-3.5 m-2,0 v-.4189 l1.8604,-5.5811 h.2792 l1.8604,5.5811 v.4189 z m-3,3.5 v-4.5 a2,2.5 0 0 1 0,-5 2,2.5 0 0 1 0,5" stroke-width="1" stroke="#6b8d5e" fill="none"/>
  <path d="M166,223 m7.5,10 v-3.5 m-2,0 v-.4189 l1.8604,-5.5811 h.2792 l1.8604,5.5811 v.4189 z m-3,3.5 v-4.5 a2,2.5 0 0 1 0,-5 2,2.5 0 0 1 0,5" stroke-width="1" stroke="#6b8d5e" fill="none"/>
  <path d="M215,238 m7.5,10 v-3.5 m-2,0 v-.4189 l1.8604,-5.5811 h.2792 l1.8604,5.5811 v.4189 z m-3,3.5 v-4.5 a2,2.5 0 0 1 0,-5 2,2.5 0 0 1 0,5" stroke-width="1" stroke="#6b8d5e" fill="none"/>
  <path d="M19,240 m7.5,10 v-3.5 m-2,0 v-.4189 l1.8604,-5.5811 h.2792 l1.8604,5.5811 v.4189 z m-3,3.5 v-4.5 a2,2.5 0 0 1 0,-5 2,2.5 0 0 1 0,5" stroke-width="1" stroke="#6b8d5e" fill="none"/>
  <path d="M78,242 m7.5,10 v-3.5 m-2,0 v-.4189 l1.8604,-5.5811 h.2792 l1.8604,5.5811 v.4189 z m-3,3.5 v-4.5 a2,2.5 0 0 1 0,-5 2,2.5 0 0 1 0,5" stroke-width="1" stroke="#6b8d5e" fill="none"/>
</svg>