<?xml version="1.0" encoding="UTF-8"?>
<svg version="1.1" width="256" height="256" viewBox="0 0 256 256" xmlns="http://www.w3.org/2000/svg">
  <path d="M245,-12 m.5,1.5 v4 m0,0 h3 m0,0 v6.5 v-11.5 m0,8 h3 m0,0 v-5" stroke-width="1" stroke="#6b8d5e" stroke-linecap="round"/>
  <path d="M187,-10 m.5,1.5 v4 m0,0 h3 m0,0 v6.5 v-11.5 m0,8 h3 m0,0 v-5" stroke-width="1" stroke="#6b8d5e" stroke-linecap="round"/>
  <path d="M151,-8 m.5,1.5 v4 m0,0 h3 m0,0 v6.5 v-11.5 m0,8 h3 m0,0 v-5" stroke-width="1" stroke="#6b8d5e" stroke-linecap="round"/>
  <path d="M113,4 m.5,1.5 v4 m0,0 h3 m0,0 v6.5 v-11.5 m0,8 h3 m0,0 v-5" stroke-width="1" stroke="#6b8d5e" stroke-linecap="round"/>
  <path d="M47,6 m.5,1.5 v4 m0,0 h3 m0,0 v6.5 v-11.5 m0,8 h3 m0,0 v-5" stroke-width="1" stroke="#6b8d5e" stroke-linecap="round"/>
  <path d="M10,11 m.5,1.5 v4 m0,0 h3 m0,0 v6.5 v-11.5 m0,8 h3 m0,0 v-5" stroke-width="1" stroke="#6b8d5e" stroke-linecap="round"/>
  <path d="M73,19 m.5,1.5 v4 m0,0 h3 m0,0 v6.5 v-11.5 m0,8 h3 m0,0 v-5" stroke-width="1" stroke="#6b8d5e" stroke-linecap="round"/>
  <path d="M153,44 m.5,1.5 v4 m0,0 h3 m0,0 v6.5 v-11.5 m0,8 h3 m0,0 v-5" stroke-width="1" stroke="#6b8d5e" stroke-linecap="round"/>
  <path d="M71,48 m.5,1.5 v4 m0,0 h3 m0,0 v6.5 v-11.5 m0,8 h3 m0,0 v-5" stroke-width="1" stroke="#6b8d5e" stroke-linecap="round"/>
  <path d="M7,49 m.5,1.5 v4 m0,0 h3 m0,0 v6.5 v-11.5 m0,8 h3 m0,0 v-5" stroke-width="1" stroke="#6b8d5e" stroke-linecap="round"/>
  <path d="M179,53 m.5,1.5 v4 m0,0 h3 m0,0 v6.5 v-11.5 m0,8 h3 m0,0 v-5" stroke-width="1" stroke="#6b8d5e" stroke-linecap="round"/>
  <path d="M32,68 m.5,1.5 v4 m0,0 h3 m0,0 v6.5 v-11.5 m0,8 h3 m0,0 v-5" stroke-width="1" stroke="#6b8d5e" stroke-linecap="round"/>
  <path d="M98,69 m.5,1.5 v4 m0,0 h3 m0,0 v6.5 v-11.5 m0,8 h3 m0,0 v-5" stroke-width="1" stroke="#6b8d5e" stroke-linecap="round"/>
  <path d="M204,75 m.5,1.5 v4 m0,0 h3 m0,0 v6.5 v-11.5 m0,8 h3 m0,0 v-5" stroke-width="1" stroke="#6b8d5e" stroke-linecap="round"/>
  <path d="M161,79 m.5,1.5 v4 m0,0 h3 m0,0 v6.5 v-11.5 m0,8 h3 m0,0 v-5" stroke-width="1" stroke="#6b8d5e" stroke-linecap="round"/>
  <path d="M71,82 m.5,1.5 v4 m0,0 h3 m0,0 v6.5 v-11.5 m0,8 h3 m0,0 v-5" stroke-width="1" stroke="#6b8d5e" stroke-linecap="round"/>
  <path d="M45,101 m.5,1.5 v4 m0,0 h3 m0,0 v6.5 v-11.5 m0,8 h3 m0,0 v-5" stroke-width="1" stroke="#6b8d5e" stroke-linecap="round"/>
  <path d="M143,150 m.5,1.5 v4 m0,0 h3 m0,0 v6.5 v-11.5 m0,8 h3 m0,0 v-5" stroke-width="1" stroke="#6b8d5e" stroke-linecap="round"/>
  <path d="M206,174 m.5,1.5 v4 m0,0 h3 m0,0 v6.5 v-11.5 m0,8 h3 m0,0 v-5" stroke-width="1" stroke="#6b8d5e" stroke-linecap="round"/>
  <path d="M84,175 m.5,1.5 v4 m0,0 h3 m0,0 v6.5 v-11.5 m0,8 h3 m0,0 v-5" stroke-width="1" stroke="#6b8d5e" stroke-linecap="round"/>
  <path d="M143,185 m.5,1.5 v4 m0,0 h3 m0,0 v6.5 v-11.5 m0,8 h3 m0,0 v-5" stroke-width="1" stroke="#6b8d5e" stroke-linecap="round"/>
  <path d="M231,205 m.5,1.5 v4 m0,0 h3 m0,0 v6.5 v-11.5 m0,8 h3 m0,0 v-5" stroke-width="1" stroke="#6b8d5e" stroke-linecap="round"/>
  <path d="M42,220 m.5,1.5 v4 m0,0 h3 m0,0 v6.5 v-11.5 m0,8 h3 m0,0 v-5" stroke-width="1" stroke="#6b8d5e" stroke-linecap="round"/>
  <path d="M104,234 m.5,1.5 v4 m0,0 h3 m0,0 v6.5 v-11.5 m0,8 h3 m0,0 v-5" stroke-width="1" stroke="#6b8d5e" stroke-linecap="round"/>
  <path d="M245,244 m.5,1.5 v4 m0,0 h3 m0,0 v6.5 v-11.5 m0,8 h3 m0,0 v-5" stroke-width="1" stroke="#6b8d5e" stroke-linecap="round"/>
  <path d="M187,246 m.5,1.5 v4 m0,0 h3 m0,0 v6.5 v-11.5 m0,8 h3 m0,0 v-5" stroke-width="1" stroke="#6b8d5e" stroke-linecap="round"/>
  <path d="M151,248 m.5,1.5 v4 m0,0 h3 m0,0 v6.5 v-11.5 m0,8 h3 m0,0 v-5" stroke-width="1" stroke="#6b8d5e" stroke-linecap="round"/>
  <path d="M212,12 m.5,3.5 v5 m0,0 h3 m0,0 v3.5 v-11.5 m0,5 h3 m0,0 v-4" stroke-width="1" stroke="#6b8d5e" stroke-linecap="round"/>
  <path d="M175,18 m.5,3.5 v5 m0,0 h3 m0,0 v3.5 v-11.5 m0,5 h3 m0,0 v-4" stroke-width="1" stroke="#6b8d5e" stroke-linecap="round"/>
  <path d="M134,22 m.5,3.5 v5 m0,0 h3 m0,0 v3.5 v-11.5 m0,5 h3 m0,0 v-4" stroke-width="1" stroke="#6b8d5e" stroke-linecap="round"/>
  <path d="M238,28 m.5,3.5 v5 m0,0 h3 m0,0 v3.5 v-11.5 m0,5 h3 m0,0 v-4" stroke-width="1" stroke="#6b8d5e" stroke-linecap="round"/>
  <path d="M42,39 m.5,3.5 v5 m0,0 h3 m0,0 v3.5 v-11.5 m0,5 h3 m0,0 v-4" stroke-width="1" stroke="#6b8d5e" stroke-linecap="round"/>
  <path d="M110,41 m.5,3.5 v5 m0,0 h3 m0,0 v3.5 v-11.5 m0,5 h3 m0,0 v-4" stroke-width="1" stroke="#6b8d5e" stroke-linecap="round"/>
  <path d="M217,46 m.5,3.5 v5 m0,0 h3 m0,0 v3.5 v-11.5 m0,5 h3 m0,0 v-4" stroke-width="1" stroke="#6b8d5e" stroke-linecap="round"/>
  <path d="M131,71 m.5,3.5 v5 m0,0 h3 m0,0 v3.5 v-11.5 m0,5 h3 m0,0 v-4" stroke-width="1" stroke="#6b8d5e" stroke-linecap="round"/>
  <path d="M234,85 m.5,3.5 v5 m0,0 h3 m0,0 v3.5 v-11.5 m0,5 h3 m0,0 v-4" stroke-width="1" stroke="#6b8d5e" stroke-linecap="round"/>
  <path d="M8,86 m.5,3.5 v5 m0,0 h3 m0,0 v3.5 v-11.5 m0,5 h3 m0,0 v-4" stroke-width="1" stroke="#6b8d5e" stroke-linecap="round"/>
  <path d="M183,100 m.5,3.5 v5 m0,0 h3 m0,0 v3.5 v-11.5 m0,5 h3 m0,0 v-4" stroke-width="1" stroke="#6b8d5e" stroke-linecap="round"/>
  <path d="M107,101 m.5,3.5 v5 m0,0 h3 m0,0 v3.5 v-11.5 m0,5 h3 m0,0 v-4" stroke-width="1" stroke="#6b8d5e" stroke-linecap="round"/>
  <path d="M143,107 m.5,3.5 v5 m0,0 h3 m0,0 v3.5 v-11.5 m0,5 h3 m0,0 v-4" stroke-width="1" stroke="#6b8d5e" stroke-linecap="round"/>
  <path d="M213,110 m.5,3.5 v5 m0,0 h3 m0,0 v3.5 v-11.5 m0,5 h3 m0,0 v-4" stroke-width="1" stroke="#6b8d5e" stroke-linecap="round"/>
  <path d="M79,111 m.5,3.5 v5 m0,0 h3 m0,0 v3.5 v-11.5 m0,5 h3 m0,0 v-4" stroke-width="1" stroke="#6b8d5e" stroke-linecap="round"/>
  <path d="M15,113 m.5,3.5 v5 m0,0 h3 m0,0 v3.5 v-11.5 m0,5 h3 m0,0 v-4" stroke-width="1" stroke="#6b8d5e" stroke-linecap="round"/>
  <path d="M242,123 m.5,3.5 v5 m0,0 h3 m0,0 v3.5 v-11.5 m0,5 h3 m0,0 v-4" stroke-width="1" stroke="#6b8d5e" stroke-linecap="round"/>
  <path d="M165,125 m.5,3.5 v5 m0,0 h3 m0,0 v3.5 v-11.5 m0,5 h3 m0,0 v-4" stroke-width="1" stroke="#6b8d5e" stroke-linecap="round"/>
  <path d="M111,132 m.5,3.5 v5 m0,0 h3 m0,0 v3.5 v-11.5 m0,5 h3 m0,0 v-4" stroke-width="1" stroke="#6b8d5e" stroke-linecap="round"/>
  <path d="M36,133 m.5,3.5 v5 m0,0 h3 m0,0 v3.5 v-11.5 m0,5 h3 m0,0 v-4" stroke-width="1" stroke="#6b8d5e" stroke-linecap="round"/>
  <path d="M199,139 m.5,3.5 v5 m0,0 h3 m0,0 v3.5 v-11.5 m0,5 h3 m0,0 v-4" stroke-width="1" stroke="#6b8d5e" stroke-linecap="round"/>
  <path d="M79,145 m.5,3.5 v5 m0,0 h3 m0,0 v3.5 v-11.5 m0,5 h3 m0,0 v-4" stroke-width="1" stroke="#6b8d5e" stroke-linecap="round"/>
  <path d="M225,149 m.5,3.5 v5 m0,0 h3 m0,0 v3.5 v-11.5 m0,5 h3 m0,0 v-4" stroke-width="1" stroke="#6b8d5e" stroke-linecap="round"/>
  <path d="M8,150 m.5,3.5 v5 m0,0 h3 m0,0 v3.5 v-11.5 m0,5 h3 m0,0 v-4" stroke-width="1" stroke="#6b8d5e" stroke-linecap="round"/>
  <path d="M51,156 m.5,3.5 v5 m0,0 h3 m0,0 v3.5 v-11.5 m0,5 h3 m0,0 v-4" stroke-width="1" stroke="#6b8d5e" stroke-linecap="round"/>
  <path d="M173,160 m.5,3.5 v5 m0,0 h3 m0,0 v3.5 v-11.5 m0,5 h3 m0,0 v-4" stroke-width="1" stroke="#6b8d5e" stroke-linecap="round"/>
  <path d="M114,164 m.5,3.5 v5 m0,0 h3 m0,0 v3.5 v-11.5 m0,5 h3 m0,0 v-4" stroke-width="1" stroke="#6b8d5e" stroke-linecap="round"/>
  <path d="M23,176 m.5,3.5 v5 m0,0 h3 m0,0 v3.5 v-11.5 m0,5 h3 m0,0 v-4" stroke-width="1" stroke="#6b8d5e" stroke-linecap="round"/>
  <path d="M248,180 m.5,3.5 v5 m0,0 h3 m0,0 v3.5 v-11.5 m0,5 h3 m0,0 v-4" stroke-width="1" stroke="#6b8d5e" stroke-linecap="round"/>
  <path d="M174,189 m.5,3.5 v5 m0,0 h3 m0,0 v3.5 v-11.5 m0,5 h3 m0,0 v-4" stroke-width="1" stroke="#6b8d5e" stroke-linecap="round"/>
  <path d="M54,194 m.5,3.5 v5 m0,0 h3 m0,0 v3.5 v-11.5 m0,5 h3 m0,0 v-4" stroke-width="1" stroke="#6b8d5e" stroke-linecap="round"/>
  <path d="M110,196 m.5,3.5 v5 m0,0 h3 m0,0 v3.5 v-11.5 m0,5 h3 m0,0 v-4" stroke-width="1" stroke="#6b8d5e" stroke-linecap="round"/>
  <path d="M12,207 m.5,3.5 v5 m0,0 h3 m0,0 v3.5 v-11.5 m0,5 h3 m0,0 v-4" stroke-width="1" stroke="#6b8d5e" stroke-linecap="round"/>
  <path d="M200,208 m.5,3.5 v5 m0,0 h3 m0,0 v3.5 v-11.5 m0,5 h3 m0,0 v-4" stroke-width="1" stroke="#6b8d5e" stroke-linecap="round"/>
  <path d="M76,211 m.5,3.5 v5 m0,0 h3 m0,0 v3.5 v-11.5 m0,5 h3 m0,0 v-4" stroke-width="1" stroke="#6b8d5e" stroke-linecap="round"/>
  <path d="M136,214 m.5,3.5 v5 m0,0 h3 m0,0 v3.5 v-11.5 m0,5 h3 m0,0 v-4" stroke-width="1" stroke="#6b8d5e" stroke-linecap="round"/>
  <path d="M166,223 m.5,3.5 v5 m0,0 h3 m0,0 v3.5 v-11.5 m0,5 h3 m0,0 v-4" stroke-width="1" stroke="#6b8d5e" stroke-linecap="round"/>
  <path d="M215,238 m.5,3.5 v5 m0,0 h3 m0,0 v3.5 v-11.5 m0,5 h3 m0,0 v-4" stroke-width="1" stroke="#6b8d5e" stroke-linecap="round"/>
  <path d="M19,240 m.5,3.5 v5 m0,0 h3 m0,0 v3.5 v-11.5 m0,5 h3 m0,0 v-4" stroke-width="1" stroke="#6b8d5e" stroke-linecap="round"/>
  <path d="M78,242 m.5,3.5 v5 m0,0 h3 m0,0 v3.5 v-11.5 m0,5 h3 m0,0 v-4" stroke-width="1" stroke="#6b8d5e" stroke-linecap="round"/>
</svg>