<?xml version="1.0" encoding="UTF-8"?>
<svg version="1.1" width="128" height="128" viewBox="0 0 128 128" xmlns="http://www.w3.org/2000/svg">
  <path stroke-width="1" stroke="#0e5500" opacity=".575" d="
M1,2.5 h1 m5,0 h1 m5,0 h1 m5,0 h1 m5,0 h1 m6,0 h1 m5,0 h1 m5,0 h1 m5,0 h1 m5,0 h1 m5,0 h1 m5,0 h1 m5,0 h1 m5,0 h1 m5,0 h1 m5,0 h1 m6,0 h1 m5,0 h1 m5,0 h1 m5,0 h1 m5,0 h1
M4,6.5 h1 m5,0 h1 m5,0 h1 m5,0 h1 m5,0 h1 m6,0 h1 m5,0 h1 m5,0 h1 m5,0 h1 m5,0 h1 m5,0 h1 m5,0 h1 m5,0 h1 m5,0 h1 m5,0 h1 m6,0 h1 m5,0 h1 m5,0 h1 m5,0 h1 m5,0 h1 m5,0 h1
M1,10.5 h1 m5,0 h1 m5,0 h1 m5,0 h1 m5,0 h1 m6,0 h1 m5,0 h1 m5,0 h1 m5,0 h1 m5,0 h1 m5,0 h1 m5,0 h1 m5,0 h1 m5,0 h1 m5,0 h1 m5,0 h1 m6,0 h1 m5,0 h1 m5,0 h1 m5,0 h1 m5,0 h1
M4,14.5 h1 m5,0 h1 m5,0 h1 m5,0 h1 m5,0 h1 m6,0 h1 m5,0 h1 m5,0 h1 m5,0 h1 m5,0 h1 m5,0 h1 m5,0 h1 m5,0 h1 m5,0 h1 m5,0 h1 m6,0 h1 m5,0 h1 m5,0 h1 m5,0 h1 m5,0 h1 m5,0 h1
M1,19.5 h1 m5,0 h1 m5,0 h1 m5,0 h1 m5,0 h1 m6,0 h1 m5,0 h1 m5,0 h1 m5,0 h1 m5,0 h1 m5,0 h1 m5,0 h1 m5,0 h1 m5,0 h1 m5,0 h1 m5,0 h1 m6,0 h1 m5,0 h1 m5,0 h1 m5,0 h1 m5,0 h1
M4,23.5 h1 m5,0 h1 m5,0 h1 m5,0 h1 m5,0 h1 m6,0 h1 m5,0 h1 m5,0 h1 m5,0 h1 m5,0 h1 m5,0 h1 m5,0 h1 m5,0 h1 m5,0 h1 m5,0 h1 m6,0 h1 m5,0 h1 m5,0 h1 m5,0 h1 m5,0 h1 m5,0 h1
M1,27.5 h1 m5,0 h1 m5,0 h1 m5,0 h1 m5,0 h1 m6,0 h1 m5,0 h1 m5,0 h1 m5,0 h1 m5,0 h1 m5,0 h1 m5,0 h1 m5,0 h1 m5,0 h1 m5,0 h1 m5,0 h1 m6,0 h1 m5,0 h1 m5,0 h1 m5,0 h1 m5,0 h1
M4,32.5 h1 m5,0 h1 m5,0 h1 m5,0 h1 m5,0 h1 m6,0 h1 m5,0 h1 m5,0 h1 m5,0 h1 m5,0 h1 m5,0 h1 m5,0 h1 m5,0 h1 m5,0 h1 m5,0 h1 m6,0 h1 m5,0 h1 m5,0 h1 m5,0 h1 m5,0 h1 m5,0 h1
M1,36.5 h1 m5,0 h1 m5,0 h1 m5,0 h1 m5,0 h1 m6,0 h1 m5,0 h1 m5,0 h1 m5,0 h1 m5,0 h1 m5,0 h1 m5,0 h1 m5,0 h1 m5,0 h1 m5,0 h1 m5,0 h1 m6,0 h1 m5,0 h1 m5,0 h1 m5,0 h1 m5,0 h1
M4,40.5 h1 m5,0 h1 m5,0 h1 m5,0 h1 m5,0 h1 m6,0 h1 m5,0 h1 m5,0 h1 m5,0 h1 m5,0 h1 m5,0 h1 m5,0 h1 m5,0 h1 m5,0 h1 m5,0 h1 m6,0 h1 m5,0 h1 m5,0 h1 m5,0 h1 m5,0 h1 m5,0 h1
M1,44.5 h1 m5,0 h1 m5,0 h1 m5,0 h1 m5,0 h1 m6,0 h1 m5,0 h1 m5,0 h1 m5,0 h1 m5,0 h1 m5,0 h1 m5,0 h1 m5,0 h1 m5,0 h1 m5,0 h1 m5,0 h1 m6,0 h1 m5,0 h1 m5,0 h1 m5,0 h1 m5,0 h1
M4,49.5 h1 m5,0 h1 m5,0 h1 m5,0 h1 m5,0 h1 m6,0 h1 m5,0 h1 m5,0 h1 m5,0 h1 m5,0 h1 m5,0 h1 m5,0 h1 m5,0 h1 m5,0 h1 m5,0 h1 m6,0 h1 m5,0 h1 m5,0 h1 m5,0 h1 m5,0 h1 m5,0 h1
M1,53.5 h1 m5,0 h1 m5,0 h1 m5,0 h1 m5,0 h1 m6,0 h1 m5,0 h1 m5,0 h1 m5,0 h1 m5,0 h1 m5,0 h1 m5,0 h1 m5,0 h1 m5,0 h1 m5,0 h1 m5,0 h1 m6,0 h1 m5,0 h1 m5,0 h1 m5,0 h1 m5,0 h1
M4,57.5 h1 m5,0 h1 m5,0 h1 m5,0 h1 m5,0 h1 m6,0 h1 m5,0 h1 m5,0 h1 m5,0 h1 m5,0 h1 m5,0 h1 m5,0 h1 m5,0 h1 m5,0 h1 m5,0 h1 m6,0 h1 m5,0 h1 m5,0 h1 m5,0 h1 m5,0 h1 m5,0 h1
M1,61.5 h1 m5,0 h1 m5,0 h1 m5,0 h1 m5,0 h1 m6,0 h1 m5,0 h1 m5,0 h1 m5,0 h1 m5,0 h1 m5,0 h1 m5,0 h1 m5,0 h1 m5,0 h1 m5,0 h1 m5,0 h1 m6,0 h1 m5,0 h1 m5,0 h1 m5,0 h1 m5,0 h1
M4,66.5 h1 m5,0 h1 m5,0 h1 m5,0 h1 m5,0 h1 m6,0 h1 m5,0 h1 m5,0 h1 m5,0 h1 m5,0 h1 m5,0 h1 m5,0 h1 m5,0 h1 m5,0 h1 m5,0 h1 m6,0 h1 m5,0 h1 m5,0 h1 m5,0 h1 m5,0 h1 m5,0 h1
M1,70.5 h1 m5,0 h1 m5,0 h1 m5,0 h1 m5,0 h1 m6,0 h1 m5,0 h1 m5,0 h1 m5,0 h1 m5,0 h1 m5,0 h1 m5,0 h1 m5,0 h1 m5,0 h1 m5,0 h1 m5,0 h1 m6,0 h1 m5,0 h1 m5,0 h1 m5,0 h1 m5,0 h1
M4,74.5 h1 m5,0 h1 m5,0 h1 m5,0 h1 m5,0 h1 m6,0 h1 m5,0 h1 m5,0 h1 m5,0 h1 m5,0 h1 m5,0 h1 m5,0 h1 m5,0 h1 m5,0 h1 m5,0 h1 m6,0 h1 m5,0 h1 m5,0 h1 m5,0 h1 m5,0 h1 m5,0 h1
M1,78.5 h1 m5,0 h1 m5,0 h1 m5,0 h1 m5,0 h1 m6,0 h1 m5,0 h1 m5,0 h1 m5,0 h1 m5,0 h1 m5,0 h1 m5,0 h1 m5,0 h1 m5,0 h1 m5,0 h1 m5,0 h1 m6,0 h1 m5,0 h1 m5,0 h1 m5,0 h1 m5,0 h1
M4,83.5 h1 m5,0 h1 m5,0 h1 m5,0 h1 m5,0 h1 m6,0 h1 m5,0 h1 m5,0 h1 m5,0 h1 m5,0 h1 m5,0 h1 m5,0 h1 m5,0 h1 m5,0 h1 m5,0 h1 m6,0 h1 m5,0 h1 m5,0 h1 m5,0 h1 m5,0 h1 m5,0 h1
M1,87.5 h1 m5,0 h1 m5,0 h1 m5,0 h1 m5,0 h1 m6,0 h1 m5,0 h1 m5,0 h1 m5,0 h1 m5,0 h1 m5,0 h1 m5,0 h1 m5,0 h1 m5,0 h1 m5,0 h1 m5,0 h1 m6,0 h1 m5,0 h1 m5,0 h1 m5,0 h1 m5,0 h1
M4,91.5 h1 m5,0 h1 m5,0 h1 m5,0 h1 m5,0 h1 m6,0 h1 m5,0 h1 m5,0 h1 m5,0 h1 m5,0 h1 m5,0 h1 m5,0 h1 m5,0 h1 m5,0 h1 m5,0 h1 m6,0 h1 m5,0 h1 m5,0 h1 m5,0 h1 m5,0 h1 m5,0 h1
M1,96.5 h1 m5,0 h1 m5,0 h1 m5,0 h1 m5,0 h1 m6,0 h1 m5,0 h1 m5,0 h1 m5,0 h1 m5,0 h1 m5,0 h1 m5,0 h1 m5,0 h1 m5,0 h1 m5,0 h1 m5,0 h1 m6,0 h1 m5,0 h1 m5,0 h1 m5,0 h1 m5,0 h1
M4,100.5 h1 m5,0 h1 m5,0 h1 m5,0 h1 m5,0 h1 m6,0 h1 m5,0 h1 m5,0 h1 m5,0 h1 m5,0 h1 m5,0 h1 m5,0 h1 m5,0 h1 m5,0 h1 m5,0 h1 m6,0 h1 m5,0 h1 m5,0 h1 m5,0 h1 m5,0 h1 m5,0 h1
M1,104.5 h1 m5,0 h1 m5,0 h1 m5,0 h1 m5,0 h1 m6,0 h1 m5,0 h1 m5,0 h1 m5,0 h1 m5,0 h1 m5,0 h1 m5,0 h1 m5,0 h1 m5,0 h1 m5,0 h1 m5,0 h1 m6,0 h1 m5,0 h1 m5,0 h1 m5,0 h1 m5,0 h1
M4,108.5 h1 m5,0 h1 m5,0 h1 m5,0 h1 m5,0 h1 m6,0 h1 m5,0 h1 m5,0 h1 m5,0 h1 m5,0 h1 m5,0 h1 m5,0 h1 m5,0 h1 m5,0 h1 m5,0 h1 m6,0 h1 m5,0 h1 m5,0 h1 m5,0 h1 m5,0 h1 m5,0 h1
M1,113.5 h1 m5,0 h1 m5,0 h1 m5,0 h1 m5,0 h1 m6,0 h1 m5,0 h1 m5,0 h1 m5,0 h1 m5,0 h1 m5,0 h1 m5,0 h1 m5,0 h1 m5,0 h1 m5,0 h1 m5,0 h1 m6,0 h1 m5,0 h1 m5,0 h1 m5,0 h1 m5,0 h1
M4,117.5 h1 m5,0 h1 m5,0 h1 m5,0 h1 m5,0 h1 m6,0 h1 m5,0 h1 m5,0 h1 m5,0 h1 m5,0 h1 m5,0 h1 m5,0 h1 m5,0 h1 m5,0 h1 m5,0 h1 m6,0 h1 m5,0 h1 m5,0 h1 m5,0 h1 m5,0 h1 m5,0 h1
M1,121.5 h1 m5,0 h1 m5,0 h1 m5,0 h1 m5,0 h1 m6,0 h1 m5,0 h1 m5,0 h1 m5,0 h1 m5,0 h1 m5,0 h1 m5,0 h1 m5,0 h1 m5,0 h1 m5,0 h1 m5,0 h1 m6,0 h1 m5,0 h1 m5,0 h1 m5,0 h1 m5,0 h1
M4,125.5 h1 m5,0 h1 m5,0 h1 m5,0 h1 m5,0 h1 m6,0 h1 m5,0 h1 m5,0 h1 m5,0 h1 m5,0 h1 m5,0 h1 m5,0 h1 m5,0 h1 m5,0 h1 m5,0 h1 m6,0 h1 m5,0 h1 m5,0 h1 m5,0 h1 m5,0 h1 m5,0 h1"/>
</svg>