<?xml version="1.0" encoding="UTF-8"?>
<svg version="1.1" width="128" height="128" viewBox="0 0 128 128" xmlns="http://www.w3.org/2000/svg">
  <path d="M0,9 l2.5,-2 c.95,-.6 1.05,-.6 2,0 l2.5,2z" fill="#ffffff"/>
  <path d="M18,9 l2.5,-2 c.95,-.6 1.05,-.6 2,0 l2.5,2z" fill="#ffffff"/>
  <path d="M37,9 l2.5,-2 c.95,-.6 1.05,-.6 2,0 l2.5,2z" fill="#ffffff"/>
  <path d="M55,9 l2.5,-2 c.95,-.6 1.05,-.6 2,0 l2.5,2z" fill="#ffffff"/>
  <path d="M73,9 l2.5,-2 c.95,-.6 1.05,-.6 2,0 l2.5,2z" fill="#ffffff"/>
  <path d="M92,9 l2.5,-2 c.95,-.6 1.05,-.6 2,0 l2.5,2z" fill="#ffffff"/>
  <path d="M110,9 l2.5,-2 c.95,-.6 1.05,-.6 2,0 l2.5,2z" fill="#ffffff"/>
  <path d="M9,25 l2.5,-2 c.95,-.6 1.05,-.6 2,0 l2.5,2z" fill="#ffffff"/>
  <path d="M28,25 l2.5,-2 c.95,-.6 1.05,-.6 2,0 l2.5,2z" fill="#ffffff"/>
  <path d="M46,25 l2.5,-2 c.95,-.6 1.05,-.6 2,0 l2.5,2z" fill="#ffffff"/>
  <path d="M64,25 l2.5,-2 c.95,-.6 1.05,-.6 2,0 l2.5,2z" fill="#ffffff"/>
  <path d="M82,25 l2.5,-2 c.95,-.6 1.05,-.6 2,0 l2.5,2z" fill="#ffffff"/>
  <path d="M101,25 l2.5,-2 c.95,-.6 1.05,-.6 2,0 l2.5,2z" fill="#ffffff"/>
  <path d="M119,25 l2.5,-2 c.95,-.6 1.05,-.6 2,0 l2.5,2z" fill="#ffffff"/>
  <path d="M0,41 l2.5,-2 c.95,-.6 1.05,-.6 2,0 l2.5,2z" fill="#ffffff"/>
  <path d="M18,41 l2.5,-2 c.95,-.6 1.05,-.6 2,0 l2.5,2z" fill="#ffffff"/>
  <path d="M37,41 l2.5,-2 c.95,-.6 1.05,-.6 2,0 l2.5,2z" fill="#ffffff"/>
  <path d="M55,41 l2.5,-2 c.95,-.6 1.05,-.6 2,0 l2.5,2z" fill="#ffffff"/>
  <path d="M73,41 l2.5,-2 c.95,-.6 1.05,-.6 2,0 l2.5,2z" fill="#ffffff"/>
  <path d="M92,41 l2.5,-2 c.95,-.6 1.05,-.6 2,0 l2.5,2z" fill="#ffffff"/>
  <path d="M110,41 l2.5,-2 c.95,-.6 1.05,-.6 2,0 l2.5,2z" fill="#ffffff"/>
  <path d="M9,57 l2.5,-2 c.95,-.6 1.05,-.6 2,0 l2.5,2z" fill="#ffffff"/>
  <path d="M28,57 l2.5,-2 c.95,-.6 1.05,-.6 2,0 l2.5,2z" fill="#ffffff"/>
  <path d="M46,57 l2.5,-2 c.95,-.6 1.05,-.6 2,0 l2.5,2z" fill="#ffffff"/>
  <path d="M64,57 l2.5,-2 c.95,-.6 1.05,-.6 2,0 l2.5,2z" fill="#ffffff"/>
  <path d="M82,57 l2.5,-2 c.95,-.6 1.05,-.6 2,0 l2.5,2z" fill="#ffffff"/>
  <path d="M101,57 l2.5,-2 c.95,-.6 1.05,-.6 2,0 l2.5,2z" fill="#ffffff"/>
  <path d="M119,57 l2.5,-2 c.95,-.6 1.05,-.6 2,0 l2.5,2z" fill="#ffffff"/>
  <path d="M0,73 l2.5,-2 c.95,-.6 1.05,-.6 2,0 l2.5,2z" fill="#ffffff"/>
  <path d="M18,73 l2.5,-2 c.95,-.6 1.05,-.6 2,0 l2.5,2z" fill="#ffffff"/>
  <path d="M37,73 l2.5,-2 c.95,-.6 1.05,-.6 2,0 l2.5,2z" fill="#ffffff"/>
  <path d="M55,73 l2.5,-2 c.95,-.6 1.05,-.6 2,0 l2.5,2z" fill="#ffffff"/>
  <path d="M73,73 l2.5,-2 c.95,-.6 1.05,-.6 2,0 l2.5,2z" fill="#ffffff"/>
  <path d="M92,73 l2.5,-2 c.95,-.6 1.05,-.6 2,0 l2.5,2z" fill="#ffffff"/>
  <path d="M110,73 l2.5,-2 c.95,-.6 1.05,-.6 2,0 l2.5,2z" fill="#ffffff"/>
  <path d="M9,89 l2.5,-2 c.95,-.6 1.05,-.6 2,0 l2.5,2z" fill="#ffffff"/>
  <path d="M28,89 l2.5,-2 c.95,-.6 1.05,-.6 2,0 l2.5,2z" fill="#ffffff"/>
  <path d="M46,89 l2.5,-2 c.95,-.6 1.05,-.6 2,0 l2.5,2z" fill="#ffffff"/>
  <path d="M64,89 l2.5,-2 c.95,-.6 1.05,-.6 2,0 l2.5,2z" fill="#ffffff"/>
  <path d="M82,89 l2.5,-2 c.95,-.6 1.05,-.6 2,0 l2.5,2z" fill="#ffffff"/>
  <path d="M101,89 l2.5,-2 c.95,-.6 1.05,-.6 2,0 l2.5,2z" fill="#ffffff"/>
  <path d="M119,89 l2.5,-2 c.95,-.6 1.05,-.6 2,0 l2.5,2z" fill="#ffffff"/>
  <path d="M0,105 l2.5,-2 c.95,-.6 1.05,-.6 2,0 l2.5,2z" fill="#ffffff"/>
  <path d="M18,105 l2.5,-2 c.95,-.6 1.05,-.6 2,0 l2.5,2z" fill="#ffffff"/>
  <path d="M37,105 l2.5,-2 c.95,-.6 1.05,-.6 2,0 l2.5,2z" fill="#ffffff"/>
  <path d="M55,105 l2.5,-2 c.95,-.6 1.05,-.6 2,0 l2.5,2z" fill="#ffffff"/>
  <path d="M73,105 l2.5,-2 c.95,-.6 1.05,-.6 2,0 l2.5,2z" fill="#ffffff"/>
  <path d="M92,105 l2.5,-2 c.95,-.6 1.05,-.6 2,0 l2.5,2z" fill="#ffffff"/>
  <path d="M110,105 l2.5,-2 c.95,-.6 1.05,-.6 2,0 l2.5,2z" fill="#ffffff"/>
  <path d="M9,121 l2.5,-2 c.95,-.6 1.05,-.6 2,0 l2.5,2z" fill="#ffffff"/>
  <path d="M28,121 l2.5,-2 c.95,-.6 1.05,-.6 2,0 l2.5,2z" fill="#ffffff"/>
  <path d="M46,121 l2.5,-2 c.95,-.6 1.05,-.6 2,0 l2.5,2z" fill="#ffffff"/>
  <path d="M64,121 l2.5,-2 c.95,-.6 1.05,-.6 2,0 l2.5,2z" fill="#ffffff"/>
  <path d="M82,121 l2.5,-2 c.95,-.6 1.05,-.6 2,0 l2.5,2z" fill="#ffffff"/>
  <path d="M101,121 l2.5,-2 c.95,-.6 1.05,-.6 2,0 l2.5,2z" fill="#ffffff"/>
  <path d="M119,121 l2.5,-2 c.95,-.6 1.05,-.6 2,0 l2.5,2z" fill="#ffffff"/>
</svg>