<?xml version="1.0" encoding="UTF-8"?>
<svg version="1.1" width="128" height="128" viewBox="0 0 128 128" xmlns="http://www.w3.org/2000/svg">
  <path d="M0,9l2.5,-2 c0.95,-0.6 1.05,-0.6 2,0 l2.5,2z" fill="#ffffff"/>
  <path d="M18,9l2.5,-2 c0.95,-0.6 1.05,-0.6 2,0 l2.5,2z" fill="#ffffff"/>
  <path d="M37,9l2.5,-2 c0.95,-0.6 1.05,-0.6 2,0 l2.5,2z" fill="#ffffff"/>
  <path d="M55,9l2.5,-2 c0.95,-0.6 1.05,-0.6 2,0 l2.5,2z" fill="#ffffff"/>
  <path d="M73,9l2.5,-2 c0.95,-0.6 1.05,-0.6 2,0 l2.5,2z" fill="#ffffff"/>
  <path d="M92,9l2.5,-2 c0.95,-0.6 1.05,-0.6 2,0 l2.5,2z" fill="#ffffff"/>
  <path d="M110,9l2.5,-2 c0.95,-0.6 1.05,-0.6 2,0 l2.5,2z" fill="#ffffff"/>
  <path d="M9,25l2.5,-2 c0.95,-0.6 1.05,-0.6 2,0 l2.5,2z" fill="#ffffff"/>
  <path d="M28,25l2.5,-2 c0.95,-0.6 1.05,-0.6 2,0 l2.5,2z" fill="#ffffff"/>
  <path d="M46,25l2.5,-2 c0.95,-0.6 1.05,-0.6 2,0 l2.5,2z" fill="#ffffff"/>
  <path d="M64,25l2.5,-2 c0.95,-0.6 1.05,-0.6 2,0 l2.5,2z" fill="#ffffff"/>
  <path d="M82,25l2.5,-2 c0.95,-0.6 1.05,-0.6 2,0 l2.5,2z" fill="#ffffff"/>
  <path d="M101,25l2.5,-2 c0.95,-0.6 1.05,-0.6 2,0 l2.5,2z" fill="#ffffff"/>
  <path d="M119,25l2.5,-2 c0.95,-0.6 1.05,-0.6 2,0 l2.5,2z" fill="#ffffff"/>
  <path d="M0,41l2.5,-2 c0.95,-0.6 1.05,-0.6 2,0 l2.5,2z" fill="#ffffff"/>
  <path d="M18,41l2.5,-2 c0.95,-0.6 1.05,-0.6 2,0 l2.5,2z" fill="#ffffff"/>
  <path d="M37,41l2.5,-2 c0.95,-0.6 1.05,-0.6 2,0 l2.5,2z" fill="#ffffff"/>
  <path d="M55,41l2.5,-2 c0.95,-0.6 1.05,-0.6 2,0 l2.5,2z" fill="#ffffff"/>
  <path d="M73,41l2.5,-2 c0.95,-0.6 1.05,-0.6 2,0 l2.5,2z" fill="#ffffff"/>
  <path d="M92,41l2.5,-2 c0.95,-0.6 1.05,-0.6 2,0 l2.5,2z" fill="#ffffff"/>
  <path d="M110,41l2.5,-2 c0.95,-0.6 1.05,-0.6 2,0 l2.5,2z" fill="#ffffff"/>
  <path d="M9,57l2.5,-2 c0.95,-0.6 1.05,-0.6 2,0 l2.5,2z" fill="#ffffff"/>
  <path d="M28,57l2.5,-2 c0.95,-0.6 1.05,-0.6 2,0 l2.5,2z" fill="#ffffff"/>
  <path d="M46,57l2.5,-2 c0.95,-0.6 1.05,-0.6 2,0 l2.5,2z" fill="#ffffff"/>
  <path d="M64,57l2.5,-2 c0.95,-0.6 1.05,-0.6 2,0 l2.5,2z" fill="#ffffff"/>
  <path d="M82,57l2.5,-2 c0.95,-0.6 1.05,-0.6 2,0 l2.5,2z" fill="#ffffff"/>
  <path d="M101,57l2.5,-2 c0.95,-0.6 1.05,-0.6 2,0 l2.5,2z" fill="#ffffff"/>
  <path d="M119,57l2.5,-2 c0.95,-0.6 1.05,-0.6 2,0 l2.5,2z" fill="#ffffff"/>
  <path d="M0,73l2.5,-2 c0.95,-0.6 1.05,-0.6 2,0 l2.5,2z" fill="#ffffff"/>
  <path d="M18,73l2.5,-2 c0.95,-0.6 1.05,-0.6 2,0 l2.5,2z" fill="#ffffff"/>
  <path d="M37,73l2.5,-2 c0.95,-0.6 1.05,-0.6 2,0 l2.5,2z" fill="#ffffff"/>
  <path d="M55,73l2.5,-2 c0.95,-0.6 1.05,-0.6 2,0 l2.5,2z" fill="#ffffff"/>
  <path d="M73,73l2.5,-2 c0.95,-0.6 1.05,-0.6 2,0 l2.5,2z" fill="#ffffff"/>
  <path d="M92,73l2.5,-2 c0.95,-0.6 1.05,-0.6 2,0 l2.5,2z" fill="#ffffff"/>
  <path d="M110,73l2.5,-2 c0.95,-0.6 1.05,-0.6 2,0 l2.5,2z" fill="#ffffff"/>
  <path d="M9,89l2.5,-2 c0.95,-0.6 1.05,-0.6 2,0 l2.5,2z" fill="#ffffff"/>
  <path d="M28,89l2.5,-2 c0.95,-0.6 1.05,-0.6 2,0 l2.5,2z" fill="#ffffff"/>
  <path d="M46,89l2.5,-2 c0.95,-0.6 1.05,-0.6 2,0 l2.5,2z" fill="#ffffff"/>
  <path d="M64,89l2.5,-2 c0.95,-0.6 1.05,-0.6 2,0 l2.5,2z" fill="#ffffff"/>
  <path d="M82,89l2.5,-2 c0.95,-0.6 1.05,-0.6 2,0 l2.5,2z" fill="#ffffff"/>
  <path d="M101,89l2.5,-2 c0.95,-0.6 1.05,-0.6 2,0 l2.5,2z" fill="#ffffff"/>
  <path d="M119,89l2.5,-2 c0.95,-0.6 1.05,-0.6 2,0 l2.5,2z" fill="#ffffff"/>
  <path d="M0,105l2.5,-2 c0.95,-0.6 1.05,-0.6 2,0 l2.5,2z" fill="#ffffff"/>
  <path d="M18,105l2.5,-2 c0.95,-0.6 1.05,-0.6 2,0 l2.5,2z" fill="#ffffff"/>
  <path d="M37,105l2.5,-2 c0.95,-0.6 1.05,-0.6 2,0 l2.5,2z" fill="#ffffff"/>
  <path d="M55,105l2.5,-2 c0.95,-0.6 1.05,-0.6 2,0 l2.5,2z" fill="#ffffff"/>
  <path d="M73,105l2.5,-2 c0.95,-0.6 1.05,-0.6 2,0 l2.5,2z" fill="#ffffff"/>
  <path d="M92,105l2.5,-2 c0.95,-0.6 1.05,-0.6 2,0 l2.5,2z" fill="#ffffff"/>
  <path d="M110,105l2.5,-2 c0.95,-0.6 1.05,-0.6 2,0 l2.5,2z" fill="#ffffff"/>
  <path d="M9,121l2.5,-2 c0.95,-0.6 1.05,-0.6 2,0 l2.5,2z" fill="#ffffff"/>
  <path d="M28,121l2.5,-2 c0.95,-0.6 1.05,-0.6 2,0 l2.5,2z" fill="#ffffff"/>
  <path d="M46,121l2.5,-2 c0.95,-0.6 1.05,-0.6 2,0 l2.5,2z" fill="#ffffff"/>
  <path d="M64,121l2.5,-2 c0.95,-0.6 1.05,-0.6 2,0 l2.5,2z" fill="#ffffff"/>
  <path d="M82,121l2.5,-2 c0.95,-0.6 1.05,-0.6 2,0 l2.5,2z" fill="#ffffff"/>
  <path d="M101,121l2.5,-2 c0.95,-0.6 1.05,-0.6 2,0 l2.5,2z" fill="#ffffff"/>
  <path d="M119,121l2.5,-2 c0.95,-0.6 1.05,-0.6 2,0 l2.5,2z" fill="#ffffff"/>
</svg>