<?xml version="1.0" encoding="UTF-8"?>
<svg version="1.1" width="512" height="512" viewBox="0 0 512 512" xmlns="http://www.w3.org/2000/svg">
<g stroke-width="1" stroke="#b0be93">
  <path d="M7,14.5 h7 m-3.5,0 v-5.5 m0,5.7 -2.5,-3.7 m5,0 -2.5,3.7"/>
  <path d="M32,26.5 h7 m-3.5,0 v-5.5 m0,5.7 -2.5,-3.7 m5,0 -2.5,3.7"/>
  <path d="M58,19.5 h7 m-3.5,0 v-5.5 m0,5.7 -2.5,-3.7 m5,0 -2.5,3.7"/>
  <path d="M80,18.5 h7 m-3.5,0 v-5.5 m0,5.7 -2.5,-3.7 m5,0 -2.5,3.7"/>
  <path d="M104,18.5 h7 m-3.5,0 v-5.5 m0,5.7 -2.5,-3.7 m5,0 -2.5,3.7"/>
  <path d="M130,12.5 h7 m-3.5,0 v-5.5 m0,5.7 -2.5,-3.7 m5,0 -2.5,3.7"/>
  <path d="M151,28.5 h7 m-3.5,0 v-5.5 m0,5.7 -2.5,-3.7 m5,0 -2.5,3.7"/>
  <path d="M169,27.5 h7 m-3.5,0 v-5.5 m0,5.7 -2.5,-3.7 m5,0 -2.5,3.7"/>
  <path d="M214,13.5 h7 m-3.5,0 v-5.5 m0,5.7 -2.5,-3.7 m5,0 -2.5,3.7"/>
  <path d="M233,27.5 h7 m-3.5,0 v-5.5 m0,5.7 -2.5,-3.7 m5,0 -2.5,3.7"/>
  <path d="M245,12.5 h7 m-3.5,0 v-5.5 m0,5.7 -2.5,-3.7 m5,0 -2.5,3.7"/>
  <path d="M278,14.5 h7 m-3.5,0 v-5.5 m0,5.7 -2.5,-3.7 m5,0 -2.5,3.7"/>
  <path d="M304,28.5 h7 m-3.5,0 v-5.5 m0,5.7 -2.5,-3.7 m5,0 -2.5,3.7"/>
  <path d="M323,24.5 h7 m-3.5,0 v-5.5 m0,5.7 -2.5,-3.7 m5,0 -2.5,3.7"/>
  <path d="M352,19.5 h7 m-3.5,0 v-5.5 m0,5.7 -2.5,-3.7 m5,0 -2.5,3.7"/>
  <path d="M379,21.5 h7 m-3.5,0 v-5.5 m0,5.7 -2.5,-3.7 m5,0 -2.5,3.7"/>
  <path d="M403,23.5 h7 m-3.5,0 v-5.5 m0,5.7 -2.5,-3.7 m5,0 -2.5,3.7"/>
  <path d="M423,26.5 h7 m-3.5,0 v-5.5 m0,5.7 -2.5,-3.7 m5,0 -2.5,3.7"/>
  <path d="M448,16.5 h7 m-3.5,0 v-5.5 m0,5.7 -2.5,-3.7 m5,0 -2.5,3.7"/>
  <path d="M467,21.5 h7 m-3.5,0 v-5.5 m0,5.7 -2.5,-3.7 m5,0 -2.5,3.7"/>
  <path d="M506,24.5 h7 m-3.5,0 v-5.5 m0,5.7 -2.5,-3.7 m5,0 -2.5,3.7"/>
  <path d="M-6,24.5 h7 m-3.5,0 v-5.5 m0,5.7 -2.5,-3.7 m5,0 -2.5,3.7"/>
  <path d="M4,47.5 h7 m-3.5,0 v-5.5 m0,5.7 -2.5,-3.7 m5,0 -2.5,3.7"/>
  <path d="M37,53.5 h7 m-3.5,0 v-5.5 m0,5.7 -2.5,-3.7 m5,0 -2.5,3.7"/>
  <path d="M51,38.5 h7 m-3.5,0 v-5.5 m0,5.7 -2.5,-3.7 m5,0 -2.5,3.7"/>
  <path d="M90,53.5 h7 m-3.5,0 v-5.5 m0,5.7 -2.5,-3.7 m5,0 -2.5,3.7"/>
  <path d="M101,41.5 h7 m-3.5,0 v-5.5 m0,5.7 -2.5,-3.7 m5,0 -2.5,3.7"/>
  <path d="M122,49.5 h7 m-3.5,0 v-5.5 m0,5.7 -2.5,-3.7 m5,0 -2.5,3.7"/>
  <path d="M153,46.5 h7 m-3.5,0 v-5.5 m0,5.7 -2.5,-3.7 m5,0 -2.5,3.7"/>
  <path d="M182,49.5 h7 m-3.5,0 v-5.5 m0,5.7 -2.5,-3.7 m5,0 -2.5,3.7"/>
  <path d="M200,40.5 h7 m-3.5,0 v-5.5 m0,5.7 -2.5,-3.7 m5,0 -2.5,3.7"/>
  <path d="M218,49.5 h7 m-3.5,0 v-5.5 m0,5.7 -2.5,-3.7 m5,0 -2.5,3.7"/>
  <path d="M249,44.5 h7 m-3.5,0 v-5.5 m0,5.7 -2.5,-3.7 m5,0 -2.5,3.7"/>
  <path d="M271,46.5 h7 m-3.5,0 v-5.5 m0,5.7 -2.5,-3.7 m5,0 -2.5,3.7"/>
  <path d="M291,38.5 h7 m-3.5,0 v-5.5 m0,5.7 -2.5,-3.7 m5,0 -2.5,3.7"/>
  <path d="M314,50.5 h7 m-3.5,0 v-5.5 m0,5.7 -2.5,-3.7 m5,0 -2.5,3.7"/>
  <path d="M348,51.5 h7 m-3.5,0 v-5.5 m0,5.7 -2.5,-3.7 m5,0 -2.5,3.7"/>
  <path d="M369,42.5 h7 m-3.5,0 v-5.5 m0,5.7 -2.5,-3.7 m5,0 -2.5,3.7"/>
  <path d="M392,44.5 h7 m-3.5,0 v-5.5 m0,5.7 -2.5,-3.7 m5,0 -2.5,3.7"/>
  <path d="M430,54.5 h7 m-3.5,0 v-5.5 m0,5.7 -2.5,-3.7 m5,0 -2.5,3.7"/>
  <path d="M445,39.5 h7 m-3.5,0 v-5.5 m0,5.7 -2.5,-3.7 m5,0 -2.5,3.7"/>
  <path d="M478,51.5 h7 m-3.5,0 v-5.5 m0,5.7 -2.5,-3.7 m5,0 -2.5,3.7"/>
  <path d="M492,37.5 h7 m-3.5,0 v-5.5 m0,5.7 -2.5,-3.7 m5,0 -2.5,3.7"/>
  <path d="M0,64.5 h7 m-3.5,0 v-5.5 m0,5.7 -2.5,-3.7 m5,0 -2.5,3.7"/>
  <path d="M31,75.5 h7 m-3.5,0 v-5.5 m0,5.7 -2.5,-3.7 m5,0 -2.5,3.7"/>
  <path d="M57,68.5 h7 m-3.5,0 v-5.5 m0,5.7 -2.5,-3.7 m5,0 -2.5,3.7"/>
  <path d="M78,64.5 h7 m-3.5,0 v-5.5 m0,5.7 -2.5,-3.7 m5,0 -2.5,3.7"/>
  <path d="M104,71.5 h7 m-3.5,0 v-5.5 m0,5.7 -2.5,-3.7 m5,0 -2.5,3.7"/>
  <path d="M134,75.5 h7 m-3.5,0 v-5.5 m0,5.7 -2.5,-3.7 m5,0 -2.5,3.7"/>
  <path d="M149,63.5 h7 m-3.5,0 v-5.5 m0,5.7 -2.5,-3.7 m5,0 -2.5,3.7"/>
  <path d="M183,67.5 h7 m-3.5,0 v-5.5 m0,5.7 -2.5,-3.7 m5,0 -2.5,3.7"/>
  <path d="M212,69.5 h7 m-3.5,0 v-5.5 m0,5.7 -2.5,-3.7 m5,0 -2.5,3.7"/>
  <path d="M229,74.5 h7 m-3.5,0 v-5.5 m0,5.7 -2.5,-3.7 m5,0 -2.5,3.7"/>
  <path d="M247,67.5 h7 m-3.5,0 v-5.5 m0,5.7 -2.5,-3.7 m5,0 -2.5,3.7"/>
  <path d="M276,68.5 h7 m-3.5,0 v-5.5 m0,5.7 -2.5,-3.7 m5,0 -2.5,3.7"/>
  <path d="M296,73.5 h7 m-3.5,0 v-5.5 m0,5.7 -2.5,-3.7 m5,0 -2.5,3.7"/>
  <path d="M330,60.5 h7 m-3.5,0 v-5.5 m0,5.7 -2.5,-3.7 m5,0 -2.5,3.7"/>
  <path d="M339,79.5 h7 m-3.5,0 v-5.5 m0,5.7 -2.5,-3.7 m5,0 -2.5,3.7"/>
  <path d="M368,67.5 h7 m-3.5,0 v-5.5 m0,5.7 -2.5,-3.7 m5,0 -2.5,3.7"/>
  <path d="M392,76.5 h7 m-3.5,0 v-5.5 m0,5.7 -2.5,-3.7 m5,0 -2.5,3.7"/>
  <path d="M413,69.5 h7 m-3.5,0 v-5.5 m0,5.7 -2.5,-3.7 m5,0 -2.5,3.7"/>
  <path d="M446,63.5 h7 m-3.5,0 v-5.5 m0,5.7 -2.5,-3.7 m5,0 -2.5,3.7"/>
  <path d="M466,74.5 h7 m-3.5,0 v-5.5 m0,5.7 -2.5,-3.7 m5,0 -2.5,3.7"/>
  <path d="M503,75.5 h7 m-3.5,0 v-5.5 m0,5.7 -2.5,-3.7 m5,0 -2.5,3.7"/>
  <path d="M15,91.5 h7 m-3.5,0 v-5.5 m0,5.7 -2.5,-3.7 m5,0 -2.5,3.7"/>
  <path d="M38,101.5 h7 m-3.5,0 v-5.5 m0,5.7 -2.5,-3.7 m5,0 -2.5,3.7"/>
  <path d="M59,96.5 h7 m-3.5,0 v-5.5 m0,5.7 -2.5,-3.7 m5,0 -2.5,3.7"/>
  <path d="M79,86.5 h7 m-3.5,0 v-5.5 m0,5.7 -2.5,-3.7 m5,0 -2.5,3.7"/>
  <path d="M103,96.5 h7 m-3.5,0 v-5.5 m0,5.7 -2.5,-3.7 m5,0 -2.5,3.7"/>
  <path d="M128,100.5 h7 m-3.5,0 v-5.5 m0,5.7 -2.5,-3.7 m5,0 -2.5,3.7"/>
  <path d="M162,91.5 h7 m-3.5,0 v-5.5 m0,5.7 -2.5,-3.7 m5,0 -2.5,3.7"/>
  <path d="M185,89.5 h7 m-3.5,0 v-5.5 m0,5.7 -2.5,-3.7 m5,0 -2.5,3.7"/>
  <path d="M203,87.5 h7 m-3.5,0 v-5.5 m0,5.7 -2.5,-3.7 m5,0 -2.5,3.7"/>
  <path d="M225,102.5 h7 m-3.5,0 v-5.5 m0,5.7 -2.5,-3.7 m5,0 -2.5,3.7"/>
  <path d="M252,89.5 h7 m-3.5,0 v-5.5 m0,5.7 -2.5,-3.7 m5,0 -2.5,3.7"/>
  <path d="M278,96.5 h7 m-3.5,0 v-5.5 m0,5.7 -2.5,-3.7 m5,0 -2.5,3.7"/>
  <path d="M300,96.5 h7 m-3.5,0 v-5.5 m0,5.7 -2.5,-3.7 m5,0 -2.5,3.7"/>
  <path d="M328,93.5 h7 m-3.5,0 v-5.5 m0,5.7 -2.5,-3.7 m5,0 -2.5,3.7"/>
  <path d="M352,97.5 h7 m-3.5,0 v-5.5 m0,5.7 -2.5,-3.7 m5,0 -2.5,3.7"/>
  <path d="M372,89.5 h7 m-3.5,0 v-5.5 m0,5.7 -2.5,-3.7 m5,0 -2.5,3.7"/>
  <path d="M393,98.5 h7 m-3.5,0 v-5.5 m0,5.7 -2.5,-3.7 m5,0 -2.5,3.7"/>
  <path d="M428,99.5 h7 m-3.5,0 v-5.5 m0,5.7 -2.5,-3.7 m5,0 -2.5,3.7"/>
  <path d="M442,84.5 h7 m-3.5,0 v-5.5 m0,5.7 -2.5,-3.7 m5,0 -2.5,3.7"/>
  <path d="M473,97.5 h7 m-3.5,0 v-5.5 m0,5.7 -2.5,-3.7 m5,0 -2.5,3.7"/>
  <path d="M489,86.5 h7 m-3.5,0 v-5.5 m0,5.7 -2.5,-3.7 m5,0 -2.5,3.7"/>
  <path d="M7,109.5 h7 m-3.5,0 v-5.5 m0,5.7 -2.5,-3.7 m5,0 -2.5,3.7"/>
  <path d="M30,121.5 h7 m-3.5,0 v-5.5 m0,5.7 -2.5,-3.7 m5,0 -2.5,3.7"/>
  <path d="M66,116.5 h7 m-3.5,0 v-5.5 m0,5.7 -2.5,-3.7 m5,0 -2.5,3.7"/>
  <path d="M86,113.5 h7 m-3.5,0 v-5.5 m0,5.7 -2.5,-3.7 m5,0 -2.5,3.7"/>
  <path d="M107,122.5 h7 m-3.5,0 v-5.5 m0,5.7 -2.5,-3.7 m5,0 -2.5,3.7"/>
  <path d="M136,124.5 h7 m-3.5,0 v-5.5 m0,5.7 -2.5,-3.7 m5,0 -2.5,3.7"/>
  <path d="M152,117.5 h7 m-3.5,0 v-5.5 m0,5.7 -2.5,-3.7 m5,0 -2.5,3.7"/>
  <path d="M174,112.5 h7 m-3.5,0 v-5.5 m0,5.7 -2.5,-3.7 m5,0 -2.5,3.7"/>
  <path d="M197,116.5 h7 m-3.5,0 v-5.5 m0,5.7 -2.5,-3.7 m5,0 -2.5,3.7"/>
  <path d="M223,123.5 h7 m-3.5,0 v-5.5 m0,5.7 -2.5,-3.7 m5,0 -2.5,3.7"/>
  <path d="M245,113.5 h7 m-3.5,0 v-5.5 m0,5.7 -2.5,-3.7 m5,0 -2.5,3.7"/>
  <path d="M268,115.5 h7 m-3.5,0 v-5.5 m0,5.7 -2.5,-3.7 m5,0 -2.5,3.7"/>
  <path d="M304,117.5 h7 m-3.5,0 v-5.5 m0,5.7 -2.5,-3.7 m5,0 -2.5,3.7"/>
  <path d="M321,121.5 h7 m-3.5,0 v-5.5 m0,5.7 -2.5,-3.7 m5,0 -2.5,3.7"/>
  <path d="M349,128.5 h7 m-3.5,0 v-5.5 m0,5.7 -2.5,-3.7 m5,0 -2.5,3.7"/>
  <path d="M366,118.5 h7 m-3.5,0 v-5.5 m0,5.7 -2.5,-3.7 m5,0 -2.5,3.7"/>
  <path d="M390,122.5 h7 m-3.5,0 v-5.5 m0,5.7 -2.5,-3.7 m5,0 -2.5,3.7"/>
  <path d="M414,114.5 h7 m-3.5,0 v-5.5 m0,5.7 -2.5,-3.7 m5,0 -2.5,3.7"/>
  <path d="M455,113.5 h7 m-3.5,0 v-5.5 m0,5.7 -2.5,-3.7 m5,0 -2.5,3.7"/>
  <path d="M479,119.5 h7 m-3.5,0 v-5.5 m0,5.7 -2.5,-3.7 m5,0 -2.5,3.7"/>
  <path d="M497,126.5 h7 m-3.5,0 v-5.5 m0,5.7 -2.5,-3.7 m5,0 -2.5,3.7"/>
  <path d="M9,136.5 h7 m-3.5,0 v-5.5 m0,5.7 -2.5,-3.7 m5,0 -2.5,3.7"/>
  <path d="M31,145.5 h7 m-3.5,0 v-5.5 m0,5.7 -2.5,-3.7 m5,0 -2.5,3.7"/>
  <path d="M56,145.5 h7 m-3.5,0 v-5.5 m0,5.7 -2.5,-3.7 m5,0 -2.5,3.7"/>
  <path d="M73,136.5 h7 m-3.5,0 v-5.5 m0,5.7 -2.5,-3.7 m5,0 -2.5,3.7"/>
  <path d="M106,144.5 h7 m-3.5,0 v-5.5 m0,5.7 -2.5,-3.7 m5,0 -2.5,3.7"/>
  <path d="M125,137.5 h7 m-3.5,0 v-5.5 m0,5.7 -2.5,-3.7 m5,0 -2.5,3.7"/>
  <path d="M155,142.5 h7 m-3.5,0 v-5.5 m0,5.7 -2.5,-3.7 m5,0 -2.5,3.7"/>
  <path d="M175,139.5 h7 m-3.5,0 v-5.5 m0,5.7 -2.5,-3.7 m5,0 -2.5,3.7"/>
  <path d="M207,136.5 h7 m-3.5,0 v-5.5 m0,5.7 -2.5,-3.7 m5,0 -2.5,3.7"/>
  <path d="M220,151.5 h7 m-3.5,0 v-5.5 m0,5.7 -2.5,-3.7 m5,0 -2.5,3.7"/>
  <path d="M254,141.5 h7 m-3.5,0 v-5.5 m0,5.7 -2.5,-3.7 m5,0 -2.5,3.7"/>
  <path d="M274,137.5 h7 m-3.5,0 v-5.5 m0,5.7 -2.5,-3.7 m5,0 -2.5,3.7"/>
  <path d="M302,137.5 h7 m-3.5,0 v-5.5 m0,5.7 -2.5,-3.7 m5,0 -2.5,3.7"/>
  <path d="M323,141.5 h7 m-3.5,0 v-5.5 m0,5.7 -2.5,-3.7 m5,0 -2.5,3.7"/>
  <path d="M355,151.5 h7 m-3.5,0 v-5.5 m0,5.7 -2.5,-3.7 m5,0 -2.5,3.7"/>
  <path d="M379,140.5 h7 m-3.5,0 v-5.5 m0,5.7 -2.5,-3.7 m5,0 -2.5,3.7"/>
  <path d="M404,143.5 h7 m-3.5,0 v-5.5 m0,5.7 -2.5,-3.7 m5,0 -2.5,3.7"/>
  <path d="M421,133.5 h7 m-3.5,0 v-5.5 m0,5.7 -2.5,-3.7 m5,0 -2.5,3.7"/>
  <path d="M445,133.5 h7 m-3.5,0 v-5.5 m0,5.7 -2.5,-3.7 m5,0 -2.5,3.7"/>
  <path d="M468,141.5 h7 m-3.5,0 v-5.5 m0,5.7 -2.5,-3.7 m5,0 -2.5,3.7"/>
  <path d="M493,149.5 h7 m-3.5,0 v-5.5 m0,5.7 -2.5,-3.7 m5,0 -2.5,3.7"/>
  <path d="M6,164.5 h7 m-3.5,0 v-5.5 m0,5.7 -2.5,-3.7 m5,0 -2.5,3.7"/>
  <path d="M37,165.5 h7 m-3.5,0 v-5.5 m0,5.7 -2.5,-3.7 m5,0 -2.5,3.7"/>
  <path d="M52,175.5 h7 m-3.5,0 v-5.5 m0,5.7 -2.5,-3.7 m5,0 -2.5,3.7"/>
  <path d="M83,158.5 h7 m-3.5,0 v-5.5 m0,5.7 -2.5,-3.7 m5,0 -2.5,3.7"/>
  <path d="M101,169.5 h7 m-3.5,0 v-5.5 m0,5.7 -2.5,-3.7 m5,0 -2.5,3.7"/>
  <path d="M122,173.5 h7 m-3.5,0 v-5.5 m0,5.7 -2.5,-3.7 m5,0 -2.5,3.7"/>
  <path d="M146,168.5 h7 m-3.5,0 v-5.5 m0,5.7 -2.5,-3.7 m5,0 -2.5,3.7"/>
  <path d="M184,161.5 h7 m-3.5,0 v-5.5 m0,5.7 -2.5,-3.7 m5,0 -2.5,3.7"/>
  <path d="M207,170.5 h7 m-3.5,0 v-5.5 m0,5.7 -2.5,-3.7 m5,0 -2.5,3.7"/>
  <path d="M230,171.5 h7 m-3.5,0 v-5.5 m0,5.7 -2.5,-3.7 m5,0 -2.5,3.7"/>
  <path d="M256,159.5 h7 m-3.5,0 v-5.5 m0,5.7 -2.5,-3.7 m5,0 -2.5,3.7"/>
  <path d="M283,165.5 h7 m-3.5,0 v-5.5 m0,5.7 -2.5,-3.7 m5,0 -2.5,3.7"/>
  <path d="M300,164.5 h7 m-3.5,0 v-5.5 m0,5.7 -2.5,-3.7 m5,0 -2.5,3.7"/>
  <path d="M328,168.5 h7 m-3.5,0 v-5.5 m0,5.7 -2.5,-3.7 m5,0 -2.5,3.7"/>
  <path d="M345,179.5 h7 m-3.5,0 v-5.5 m0,5.7 -2.5,-3.7 m5,0 -2.5,3.7"/>
  <path d="M379,163.5 h7 m-3.5,0 v-5.5 m0,5.7 -2.5,-3.7 m5,0 -2.5,3.7"/>
  <path d="M407,163.5 h7 m-3.5,0 v-5.5 m0,5.7 -2.5,-3.7 m5,0 -2.5,3.7"/>
  <path d="M429,159.5 h7 m-3.5,0 v-5.5 m0,5.7 -2.5,-3.7 m5,0 -2.5,3.7"/>
  <path d="M454,177.5 h7 m-3.5,0 v-5.5 m0,5.7 -2.5,-3.7 m5,0 -2.5,3.7"/>
  <path d="M466,160.5 h7 m-3.5,0 v-5.5 m0,5.7 -2.5,-3.7 m5,0 -2.5,3.7"/>
  <path d="M489,172.5 h7 m-3.5,0 v-5.5 m0,5.7 -2.5,-3.7 m5,0 -2.5,3.7"/>
  <path d="M6,186.5 h7 m-3.5,0 v-5.5 m0,5.7 -2.5,-3.7 m5,0 -2.5,3.7"/>
  <path d="M27,187.5 h7 m-3.5,0 v-5.5 m0,5.7 -2.5,-3.7 m5,0 -2.5,3.7"/>
  <path d="M64,192.5 h7 m-3.5,0 v-5.5 m0,5.7 -2.5,-3.7 m5,0 -2.5,3.7"/>
  <path d="M84,187.5 h7 m-3.5,0 v-5.5 m0,5.7 -2.5,-3.7 m5,0 -2.5,3.7"/>
  <path d="M110,197.5 h7 m-3.5,0 v-5.5 m0,5.7 -2.5,-3.7 m5,0 -2.5,3.7"/>
  <path d="M139,192.5 h7 m-3.5,0 v-5.5 m0,5.7 -2.5,-3.7 m5,0 -2.5,3.7"/>
  <path d="M164,182.5 h7 m-3.5,0 v-5.5 m0,5.7 -2.5,-3.7 m5,0 -2.5,3.7"/>
  <path d="M184,187.5 h7 m-3.5,0 v-5.5 m0,5.7 -2.5,-3.7 m5,0 -2.5,3.7"/>
  <path d="M208,191.5 h7 m-3.5,0 v-5.5 m0,5.7 -2.5,-3.7 m5,0 -2.5,3.7"/>
  <path d="M233,193.5 h7 m-3.5,0 v-5.5 m0,5.7 -2.5,-3.7 m5,0 -2.5,3.7"/>
  <path d="M261,179.5 h7 m-3.5,0 v-5.5 m0,5.7 -2.5,-3.7 m5,0 -2.5,3.7"/>
  <path d="M267,198.5 h7 m-3.5,0 v-5.5 m0,5.7 -2.5,-3.7 m5,0 -2.5,3.7"/>
  <path d="M294,190.5 h7 m-3.5,0 v-5.5 m0,5.7 -2.5,-3.7 m5,0 -2.5,3.7"/>
  <path d="M323,193.5 h7 m-3.5,0 v-5.5 m0,5.7 -2.5,-3.7 m5,0 -2.5,3.7"/>
  <path d="M360,198.5 h7 m-3.5,0 v-5.5 m0,5.7 -2.5,-3.7 m5,0 -2.5,3.7"/>
  <path d="M370,183.5 h7 m-3.5,0 v-5.5 m0,5.7 -2.5,-3.7 m5,0 -2.5,3.7"/>
  <path d="M407,184.5 h7 m-3.5,0 v-5.5 m0,5.7 -2.5,-3.7 m5,0 -2.5,3.7"/>
  <path d="M416,198.5 h7 m-3.5,0 v-5.5 m0,5.7 -2.5,-3.7 m5,0 -2.5,3.7"/>
  <path d="M439,187.5 h7 m-3.5,0 v-5.5 m0,5.7 -2.5,-3.7 m5,0 -2.5,3.7"/>
  <path d="M472,189.5 h7 m-3.5,0 v-5.5 m0,5.7 -2.5,-3.7 m5,0 -2.5,3.7"/>
  <path d="M491,192.5 h7 m-3.5,0 v-5.5 m0,5.7 -2.5,-3.7 m5,0 -2.5,3.7"/>
  <path d="M2,210.5 h7 m-3.5,0 v-5.5 m0,5.7 -2.5,-3.7 m5,0 -2.5,3.7"/>
  <path d="M27,208.5 h7 m-3.5,0 v-5.5 m0,5.7 -2.5,-3.7 m5,0 -2.5,3.7"/>
  <path d="M54,212.5 h7 m-3.5,0 v-5.5 m0,5.7 -2.5,-3.7 m5,0 -2.5,3.7"/>
  <path d="M79,215.5 h7 m-3.5,0 v-5.5 m0,5.7 -2.5,-3.7 m5,0 -2.5,3.7"/>
  <path d="M108,222.5 h7 m-3.5,0 v-5.5 m0,5.7 -2.5,-3.7 m5,0 -2.5,3.7"/>
  <path d="M136,224.5 h7 m-3.5,0 v-5.5 m0,5.7 -2.5,-3.7 m5,0 -2.5,3.7"/>
  <path d="M150,215.5 h7 m-3.5,0 v-5.5 m0,5.7 -2.5,-3.7 m5,0 -2.5,3.7"/>
  <path d="M172,207.5 h7 m-3.5,0 v-5.5 m0,5.7 -2.5,-3.7 m5,0 -2.5,3.7"/>
  <path d="M206,214.5 h7 m-3.5,0 v-5.5 m0,5.7 -2.5,-3.7 m5,0 -2.5,3.7"/>
  <path d="M232,217.5 h7 m-3.5,0 v-5.5 m0,5.7 -2.5,-3.7 m5,0 -2.5,3.7"/>
  <path d="M255,222.5 h7 m-3.5,0 v-5.5 m0,5.7 -2.5,-3.7 m5,0 -2.5,3.7"/>
  <path d="M269,221.5 h7 m-3.5,0 v-5.5 m0,5.7 -2.5,-3.7 m5,0 -2.5,3.7"/>
  <path d="M301,207.5 h7 m-3.5,0 v-5.5 m0,5.7 -2.5,-3.7 m5,0 -2.5,3.7"/>
  <path d="M322,224.5 h7 m-3.5,0 v-5.5 m0,5.7 -2.5,-3.7 m5,0 -2.5,3.7"/>
  <path d="M344,209.5 h7 m-3.5,0 v-5.5 m0,5.7 -2.5,-3.7 m5,0 -2.5,3.7"/>
  <path d="M367,220.5 h7 m-3.5,0 v-5.5 m0,5.7 -2.5,-3.7 m5,0 -2.5,3.7"/>
  <path d="M393,209.5 h7 m-3.5,0 v-5.5 m0,5.7 -2.5,-3.7 m5,0 -2.5,3.7"/>
  <path d="M419,222.5 h7 m-3.5,0 v-5.5 m0,5.7 -2.5,-3.7 m5,0 -2.5,3.7"/>
  <path d="M443,219.5 h7 m-3.5,0 v-5.5 m0,5.7 -2.5,-3.7 m5,0 -2.5,3.7"/>
  <path d="M466,211.5 h7 m-3.5,0 v-5.5 m0,5.7 -2.5,-3.7 m5,0 -2.5,3.7"/>
  <path d="M498,215.5 h7 m-3.5,0 v-5.5 m0,5.7 -2.5,-3.7 m5,0 -2.5,3.7"/>
  <path d="M16,246.5 h7 m-3.5,0 v-5.5 m0,5.7 -2.5,-3.7 m5,0 -2.5,3.7"/>
  <path d="M33,231.5 h7 m-3.5,0 v-5.5 m0,5.7 -2.5,-3.7 m5,0 -2.5,3.7"/>
  <path d="M54,239.5 h7 m-3.5,0 v-5.5 m0,5.7 -2.5,-3.7 m5,0 -2.5,3.7"/>
  <path d="M79,242.5 h7 m-3.5,0 v-5.5 m0,5.7 -2.5,-3.7 m5,0 -2.5,3.7"/>
  <path d="M108,246.5 h7 m-3.5,0 v-5.5 m0,5.7 -2.5,-3.7 m5,0 -2.5,3.7"/>
  <path d="M125,234.5 h7 m-3.5,0 v-5.5 m0,5.7 -2.5,-3.7 m5,0 -2.5,3.7"/>
  <path d="M164,232.5 h7 m-3.5,0 v-5.5 m0,5.7 -2.5,-3.7 m5,0 -2.5,3.7"/>
  <path d="M175,245.5 h7 m-3.5,0 v-5.5 m0,5.7 -2.5,-3.7 m5,0 -2.5,3.7"/>
  <path d="M201,240.5 h7 m-3.5,0 v-5.5 m0,5.7 -2.5,-3.7 m5,0 -2.5,3.7"/>
  <path d="M226,235.5 h7 m-3.5,0 v-5.5 m0,5.7 -2.5,-3.7 m5,0 -2.5,3.7"/>
  <path d="M254,243.5 h7 m-3.5,0 v-5.5 m0,5.7 -2.5,-3.7 m5,0 -2.5,3.7"/>
  <path d="M284,241.5 h7 m-3.5,0 v-5.5 m0,5.7 -2.5,-3.7 m5,0 -2.5,3.7"/>
  <path d="M302,228.5 h7 m-3.5,0 v-5.5 m0,5.7 -2.5,-3.7 m5,0 -2.5,3.7"/>
  <path d="M325,242.5 h7 m-3.5,0 v-5.5 m0,5.7 -2.5,-3.7 m5,0 -2.5,3.7"/>
  <path d="M355,248.5 h7 m-3.5,0 v-5.5 m0,5.7 -2.5,-3.7 m5,0 -2.5,3.7"/>
  <path d="M378,237.5 h7 m-3.5,0 v-5.5 m0,5.7 -2.5,-3.7 m5,0 -2.5,3.7"/>
  <path d="M397,242.5 h7 m-3.5,0 v-5.5 m0,5.7 -2.5,-3.7 m5,0 -2.5,3.7"/>
  <path d="M427,243.5 h7 m-3.5,0 v-5.5 m0,5.7 -2.5,-3.7 m5,0 -2.5,3.7"/>
  <path d="M449,246.5 h7 m-3.5,0 v-5.5 m0,5.7 -2.5,-3.7 m5,0 -2.5,3.7"/>
  <path d="M469,239.5 h7 m-3.5,0 v-5.5 m0,5.7 -2.5,-3.7 m5,0 -2.5,3.7"/>
  <path d="M502,239.5 h7 m-3.5,0 v-5.5 m0,5.7 -2.5,-3.7 m5,0 -2.5,3.7"/>
  <path d="M6,260.5 h7 m-3.5,0 v-5.5 m0,5.7 -2.5,-3.7 m5,0 -2.5,3.7"/>
  <path d="M32,260.5 h7 m-3.5,0 v-5.5 m0,5.7 -2.5,-3.7 m5,0 -2.5,3.7"/>
  <path d="M53,263.5 h7 m-3.5,0 v-5.5 m0,5.7 -2.5,-3.7 m5,0 -2.5,3.7"/>
  <path d="M86,263.5 h7 m-3.5,0 v-5.5 m0,5.7 -2.5,-3.7 m5,0 -2.5,3.7"/>
  <path d="M110,267.5 h7 m-3.5,0 v-5.5 m0,5.7 -2.5,-3.7 m5,0 -2.5,3.7"/>
  <path d="M136,272.5 h7 m-3.5,0 v-5.5 m0,5.7 -2.5,-3.7 m5,0 -2.5,3.7"/>
  <path d="M154,257.5 h7 m-3.5,0 v-5.5 m0,5.7 -2.5,-3.7 m5,0 -2.5,3.7"/>
  <path d="M181,269.5 h7 m-3.5,0 v-5.5 m0,5.7 -2.5,-3.7 m5,0 -2.5,3.7"/>
  <path d="M202,258.5 h7 m-3.5,0 v-5.5 m0,5.7 -2.5,-3.7 m5,0 -2.5,3.7"/>
  <path d="M217,268.5 h7 m-3.5,0 v-5.5 m0,5.7 -2.5,-3.7 m5,0 -2.5,3.7"/>
  <path d="M261,270.5 h7 m-3.5,0 v-5.5 m0,5.7 -2.5,-3.7 m5,0 -2.5,3.7"/>
  <path d="M271,259.5 h7 m-3.5,0 v-5.5 m0,5.7 -2.5,-3.7 m5,0 -2.5,3.7"/>
  <path d="M304,263.5 h7 m-3.5,0 v-5.5 m0,5.7 -2.5,-3.7 m5,0 -2.5,3.7"/>
  <path d="M326,271.5 h7 m-3.5,0 v-5.5 m0,5.7 -2.5,-3.7 m5,0 -2.5,3.7"/>
  <path d="M341,257.5 h7 m-3.5,0 v-5.5 m0,5.7 -2.5,-3.7 m5,0 -2.5,3.7"/>
  <path d="M373,264.5 h7 m-3.5,0 v-5.5 m0,5.7 -2.5,-3.7 m5,0 -2.5,3.7"/>
  <path d="M400,272.5 h7 m-3.5,0 v-5.5 m0,5.7 -2.5,-3.7 m5,0 -2.5,3.7"/>
  <path d="M428,262.5 h7 m-3.5,0 v-5.5 m0,5.7 -2.5,-3.7 m5,0 -2.5,3.7"/>
  <path d="M448,273.5 h7 m-3.5,0 v-5.5 m0,5.7 -2.5,-3.7 m5,0 -2.5,3.7"/>
  <path d="M477,262.5 h7 m-3.5,0 v-5.5 m0,5.7 -2.5,-3.7 m5,0 -2.5,3.7"/>
  <path d="M493,261.5 h7 m-3.5,0 v-5.5 m0,5.7 -2.5,-3.7 m5,0 -2.5,3.7"/>
  <path d="M12,287.5 h7 m-3.5,0 v-5.5 m0,5.7 -2.5,-3.7 m5,0 -2.5,3.7"/>
  <path d="M32,295.5 h7 m-3.5,0 v-5.5 m0,5.7 -2.5,-3.7 m5,0 -2.5,3.7"/>
  <path d="M63,288.5 h7 m-3.5,0 v-5.5 m0,5.7 -2.5,-3.7 m5,0 -2.5,3.7"/>
  <path d="M86,288.5 h7 m-3.5,0 v-5.5 m0,5.7 -2.5,-3.7 m5,0 -2.5,3.7"/>
  <path d="M108,287.5 h7 m-3.5,0 v-5.5 m0,5.7 -2.5,-3.7 m5,0 -2.5,3.7"/>
  <path d="M137,295.5 h7 m-3.5,0 v-5.5 m0,5.7 -2.5,-3.7 m5,0 -2.5,3.7"/>
  <path d="M159,296.5 h7 m-3.5,0 v-5.5 m0,5.7 -2.5,-3.7 m5,0 -2.5,3.7"/>
  <path d="M171,283.5 h7 m-3.5,0 v-5.5 m0,5.7 -2.5,-3.7 m5,0 -2.5,3.7"/>
  <path d="M205,293.5 h7 m-3.5,0 v-5.5 m0,5.7 -2.5,-3.7 m5,0 -2.5,3.7"/>
  <path d="M226,283.5 h7 m-3.5,0 v-5.5 m0,5.7 -2.5,-3.7 m5,0 -2.5,3.7"/>
  <path d="M244,284.5 h7 m-3.5,0 v-5.5 m0,5.7 -2.5,-3.7 m5,0 -2.5,3.7"/>
  <path d="M269,286.5 h7 m-3.5,0 v-5.5 m0,5.7 -2.5,-3.7 m5,0 -2.5,3.7"/>
  <path d="M293,294.5 h7 m-3.5,0 v-5.5 m0,5.7 -2.5,-3.7 m5,0 -2.5,3.7"/>
  <path d="M316,288.5 h7 m-3.5,0 v-5.5 m0,5.7 -2.5,-3.7 m5,0 -2.5,3.7"/>
  <path d="M344,290.5 h7 m-3.5,0 v-5.5 m0,5.7 -2.5,-3.7 m5,0 -2.5,3.7"/>
  <path d="M380,289.5 h7 m-3.5,0 v-5.5 m0,5.7 -2.5,-3.7 m5,0 -2.5,3.7"/>
  <path d="M402,298.5 h7 m-3.5,0 v-5.5 m0,5.7 -2.5,-3.7 m5,0 -2.5,3.7"/>
  <path d="M428,282.5 h7 m-3.5,0 v-5.5 m0,5.7 -2.5,-3.7 m5,0 -2.5,3.7"/>
  <path d="M437,299.5 h7 m-3.5,0 v-5.5 m0,5.7 -2.5,-3.7 m5,0 -2.5,3.7"/>
  <path d="M475,294.5 h7 m-3.5,0 v-5.5 m0,5.7 -2.5,-3.7 m5,0 -2.5,3.7"/>
  <path d="M491,286.5 h7 m-3.5,0 v-5.5 m0,5.7 -2.5,-3.7 m5,0 -2.5,3.7"/>
  <path d="M4,314.5 h7 m-3.5,0 v-5.5 m0,5.7 -2.5,-3.7 m5,0 -2.5,3.7"/>
  <path d="M30,318.5 h7 m-3.5,0 v-5.5 m0,5.7 -2.5,-3.7 m5,0 -2.5,3.7"/>
  <path d="M51,308.5 h7 m-3.5,0 v-5.5 m0,5.7 -2.5,-3.7 m5,0 -2.5,3.7"/>
  <path d="M72,310.5 h7 m-3.5,0 v-5.5 m0,5.7 -2.5,-3.7 m5,0 -2.5,3.7"/>
  <path d="M103,316.5 h7 m-3.5,0 v-5.5 m0,5.7 -2.5,-3.7 m5,0 -2.5,3.7"/>
  <path d="M126,309.5 h7 m-3.5,0 v-5.5 m0,5.7 -2.5,-3.7 m5,0 -2.5,3.7"/>
  <path d="M147,321.5 h7 m-3.5,0 v-5.5 m0,5.7 -2.5,-3.7 m5,0 -2.5,3.7"/>
  <path d="M180,317.5 h7 m-3.5,0 v-5.5 m0,5.7 -2.5,-3.7 m5,0 -2.5,3.7"/>
  <path d="M202,311.5 h7 m-3.5,0 v-5.5 m0,5.7 -2.5,-3.7 m5,0 -2.5,3.7"/>
  <path d="M228,312.5 h7 m-3.5,0 v-5.5 m0,5.7 -2.5,-3.7 m5,0 -2.5,3.7"/>
  <path d="M247,318.5 h7 m-3.5,0 v-5.5 m0,5.7 -2.5,-3.7 m5,0 -2.5,3.7"/>
  <path d="M273,319.5 h7 m-3.5,0 v-5.5 m0,5.7 -2.5,-3.7 m5,0 -2.5,3.7"/>
  <path d="M290,318.5 h7 m-3.5,0 v-5.5 m0,5.7 -2.5,-3.7 m5,0 -2.5,3.7"/>
  <path d="M324,307.5 h7 m-3.5,0 v-5.5 m0,5.7 -2.5,-3.7 m5,0 -2.5,3.7"/>
  <path d="M352,319.5 h7 m-3.5,0 v-5.5 m0,5.7 -2.5,-3.7 m5,0 -2.5,3.7"/>
  <path d="M370,308.5 h7 m-3.5,0 v-5.5 m0,5.7 -2.5,-3.7 m5,0 -2.5,3.7"/>
  <path d="M389,317.5 h7 m-3.5,0 v-5.5 m0,5.7 -2.5,-3.7 m5,0 -2.5,3.7"/>
  <path d="M424,310.5 h7 m-3.5,0 v-5.5 m0,5.7 -2.5,-3.7 m5,0 -2.5,3.7"/>
  <path d="M452,310.5 h7 m-3.5,0 v-5.5 m0,5.7 -2.5,-3.7 m5,0 -2.5,3.7"/>
  <path d="M477,313.5 h7 m-3.5,0 v-5.5 m0,5.7 -2.5,-3.7 m5,0 -2.5,3.7"/>
  <path d="M500,308.5 h7 m-3.5,0 v-5.5 m0,5.7 -2.5,-3.7 m5,0 -2.5,3.7"/>
  <path d="M5,341.5 h7 m-3.5,0 v-5.5 m0,5.7 -2.5,-3.7 m5,0 -2.5,3.7"/>
  <path d="M22,334.5 h7 m-3.5,0 v-5.5 m0,5.7 -2.5,-3.7 m5,0 -2.5,3.7"/>
  <path d="M47,342.5 h7 m-3.5,0 v-5.5 m0,5.7 -2.5,-3.7 m5,0 -2.5,3.7"/>
  <path d="M81,344.5 h7 m-3.5,0 v-5.5 m0,5.7 -2.5,-3.7 m5,0 -2.5,3.7"/>
  <path d="M95,335.5 h7 m-3.5,0 v-5.5 m0,5.7 -2.5,-3.7 m5,0 -2.5,3.7"/>
  <path d="M122,344.5 h7 m-3.5,0 v-5.5 m0,5.7 -2.5,-3.7 m5,0 -2.5,3.7"/>
  <path d="M154,343.5 h7 m-3.5,0 v-5.5 m0,5.7 -2.5,-3.7 m5,0 -2.5,3.7"/>
  <path d="M184,337.5 h7 m-3.5,0 v-5.5 m0,5.7 -2.5,-3.7 m5,0 -2.5,3.7"/>
  <path d="M207,341.5 h7 m-3.5,0 v-5.5 m0,5.7 -2.5,-3.7 m5,0 -2.5,3.7"/>
  <path d="M228,345.5 h7 m-3.5,0 v-5.5 m0,5.7 -2.5,-3.7 m5,0 -2.5,3.7"/>
  <path d="M252,342.5 h7 m-3.5,0 v-5.5 m0,5.7 -2.5,-3.7 m5,0 -2.5,3.7"/>
  <path d="M281,340.5 h7 m-3.5,0 v-5.5 m0,5.7 -2.5,-3.7 m5,0 -2.5,3.7"/>
  <path d="M303,328.5 h7 m-3.5,0 v-5.5 m0,5.7 -2.5,-3.7 m5,0 -2.5,3.7"/>
  <path d="M320,343.5 h7 m-3.5,0 v-5.5 m0,5.7 -2.5,-3.7 m5,0 -2.5,3.7"/>
  <path d="M351,336.5 h7 m-3.5,0 v-5.5 m0,5.7 -2.5,-3.7 m5,0 -2.5,3.7"/>
  <path d="M377,343.5 h7 m-3.5,0 v-5.5 m0,5.7 -2.5,-3.7 m5,0 -2.5,3.7"/>
  <path d="M406,336.5 h7 m-3.5,0 v-5.5 m0,5.7 -2.5,-3.7 m5,0 -2.5,3.7"/>
  <path d="M428,342.5 h7 m-3.5,0 v-5.5 m0,5.7 -2.5,-3.7 m5,0 -2.5,3.7"/>
  <path d="M448,342.5 h7 m-3.5,0 v-5.5 m0,5.7 -2.5,-3.7 m5,0 -2.5,3.7"/>
  <path d="M470,333.5 h7 m-3.5,0 v-5.5 m0,5.7 -2.5,-3.7 m5,0 -2.5,3.7"/>
  <path d="M492,347.5 h7 m-3.5,0 v-5.5 m0,5.7 -2.5,-3.7 m5,0 -2.5,3.7"/>
  <path d="M5,367.5 h7 m-3.5,0 v-5.5 m0,5.7 -2.5,-3.7 m5,0 -2.5,3.7"/>
  <path d="M31,358.5 h7 m-3.5,0 v-5.5 m0,5.7 -2.5,-3.7 m5,0 -2.5,3.7"/>
  <path d="M66,371.5 h7 m-3.5,0 v-5.5 m0,5.7 -2.5,-3.7 m5,0 -2.5,3.7"/>
  <path d="M70,356.5 h7 m-3.5,0 v-5.5 m0,5.7 -2.5,-3.7 m5,0 -2.5,3.7"/>
  <path d="M99,364.5 h7 m-3.5,0 v-5.5 m0,5.7 -2.5,-3.7 m5,0 -2.5,3.7"/>
  <path d="M128,365.5 h7 m-3.5,0 v-5.5 m0,5.7 -2.5,-3.7 m5,0 -2.5,3.7"/>
  <path d="M151,360.5 h7 m-3.5,0 v-5.5 m0,5.7 -2.5,-3.7 m5,0 -2.5,3.7"/>
  <path d="M177,356.5 h7 m-3.5,0 v-5.5 m0,5.7 -2.5,-3.7 m5,0 -2.5,3.7"/>
  <path d="M198,369.5 h7 m-3.5,0 v-5.5 m0,5.7 -2.5,-3.7 m5,0 -2.5,3.7"/>
  <path d="M233,367.5 h7 m-3.5,0 v-5.5 m0,5.7 -2.5,-3.7 m5,0 -2.5,3.7"/>
  <path d="M255,372.5 h7 m-3.5,0 v-5.5 m0,5.7 -2.5,-3.7 m5,0 -2.5,3.7"/>
  <path d="M271,359.5 h7 m-3.5,0 v-5.5 m0,5.7 -2.5,-3.7 m5,0 -2.5,3.7"/>
  <path d="M296,358.5 h7 m-3.5,0 v-5.5 m0,5.7 -2.5,-3.7 m5,0 -2.5,3.7"/>
  <path d="M328,356.5 h7 m-3.5,0 v-5.5 m0,5.7 -2.5,-3.7 m5,0 -2.5,3.7"/>
  <path d="M349,365.5 h7 m-3.5,0 v-5.5 m0,5.7 -2.5,-3.7 m5,0 -2.5,3.7"/>
  <path d="M380,367.5 h7 m-3.5,0 v-5.5 m0,5.7 -2.5,-3.7 m5,0 -2.5,3.7"/>
  <path d="M403,362.5 h7 m-3.5,0 v-5.5 m0,5.7 -2.5,-3.7 m5,0 -2.5,3.7"/>
  <path d="M427,363.5 h7 m-3.5,0 v-5.5 m0,5.7 -2.5,-3.7 m5,0 -2.5,3.7"/>
  <path d="M447,369.5 h7 m-3.5,0 v-5.5 m0,5.7 -2.5,-3.7 m5,0 -2.5,3.7"/>
  <path d="M469,357.5 h7 m-3.5,0 v-5.5 m0,5.7 -2.5,-3.7 m5,0 -2.5,3.7"/>
  <path d="M496,371.5 h7 m-3.5,0 v-5.5 m0,5.7 -2.5,-3.7 m5,0 -2.5,3.7"/>
  <path d="M11,395.5 h7 m-3.5,0 v-5.5 m0,5.7 -2.5,-3.7 m5,0 -2.5,3.7"/>
  <path d="M34,385.5 h7 m-3.5,0 v-5.5 m0,5.7 -2.5,-3.7 m5,0 -2.5,3.7"/>
  <path d="M52,382.5 h7 m-3.5,0 v-5.5 m0,5.7 -2.5,-3.7 m5,0 -2.5,3.7"/>
  <path d="M75,396.5 h7 m-3.5,0 v-5.5 m0,5.7 -2.5,-3.7 m5,0 -2.5,3.7"/>
  <path d="M111,391.5 h7 m-3.5,0 v-5.5 m0,5.7 -2.5,-3.7 m5,0 -2.5,3.7"/>
  <path d="M133,390.5 h7 m-3.5,0 v-5.5 m0,5.7 -2.5,-3.7 m5,0 -2.5,3.7"/>
  <path d="M155,394.5 h7 m-3.5,0 v-5.5 m0,5.7 -2.5,-3.7 m5,0 -2.5,3.7"/>
  <path d="M171,380.5 h7 m-3.5,0 v-5.5 m0,5.7 -2.5,-3.7 m5,0 -2.5,3.7"/>
  <path d="M209,389.5 h7 m-3.5,0 v-5.5 m0,5.7 -2.5,-3.7 m5,0 -2.5,3.7"/>
  <path d="M234,384.5 h7 m-3.5,0 v-5.5 m0,5.7 -2.5,-3.7 m5,0 -2.5,3.7"/>
  <path d="M255,397.5 h7 m-3.5,0 v-5.5 m0,5.7 -2.5,-3.7 m5,0 -2.5,3.7"/>
  <path d="M275,389.5 h7 m-3.5,0 v-5.5 m0,5.7 -2.5,-3.7 m5,0 -2.5,3.7"/>
  <path d="M306,380.5 h7 m-3.5,0 v-5.5 m0,5.7 -2.5,-3.7 m5,0 -2.5,3.7"/>
  <path d="M327,382.5 h7 m-3.5,0 v-5.5 m0,5.7 -2.5,-3.7 m5,0 -2.5,3.7"/>
  <path d="M353,397.5 h7 m-3.5,0 v-5.5 m0,5.7 -2.5,-3.7 m5,0 -2.5,3.7"/>
  <path d="M367,386.5 h7 m-3.5,0 v-5.5 m0,5.7 -2.5,-3.7 m5,0 -2.5,3.7"/>
  <path d="M390,386.5 h7 m-3.5,0 v-5.5 m0,5.7 -2.5,-3.7 m5,0 -2.5,3.7"/>
  <path d="M429,387.5 h7 m-3.5,0 v-5.5 m0,5.7 -2.5,-3.7 m5,0 -2.5,3.7"/>
  <path d="M455,399.5 h7 m-3.5,0 v-5.5 m0,5.7 -2.5,-3.7 m5,0 -2.5,3.7"/>
  <path d="M467,383.5 h7 m-3.5,0 v-5.5 m0,5.7 -2.5,-3.7 m5,0 -2.5,3.7"/>
  <path d="M495,391.5 h7 m-3.5,0 v-5.5 m0,5.7 -2.5,-3.7 m5,0 -2.5,3.7"/>
  <path d="M15,419.5 h7 m-3.5,0 v-5.5 m0,5.7 -2.5,-3.7 m5,0 -2.5,3.7"/>
  <path d="M38,406.5 h7 m-3.5,0 v-5.5 m0,5.7 -2.5,-3.7 m5,0 -2.5,3.7"/>
  <path d="M52,417.5 h7 m-3.5,0 v-5.5 m0,5.7 -2.5,-3.7 m5,0 -2.5,3.7"/>
  <path d="M89,412.5 h7 m-3.5,0 v-5.5 m0,5.7 -2.5,-3.7 m5,0 -2.5,3.7"/>
  <path d="M110,409.5 h7 m-3.5,0 v-5.5 m0,5.7 -2.5,-3.7 m5,0 -2.5,3.7"/>
  <path d="M130,420.5 h7 m-3.5,0 v-5.5 m0,5.7 -2.5,-3.7 m5,0 -2.5,3.7"/>
  <path d="M152,415.5 h7 m-3.5,0 v-5.5 m0,5.7 -2.5,-3.7 m5,0 -2.5,3.7"/>
  <path d="M187,399.5 h7 m-3.5,0 v-5.5 m0,5.7 -2.5,-3.7 m5,0 -2.5,3.7"/>
  <path d="M195,415.5 h7 m-3.5,0 v-5.5 m0,5.7 -2.5,-3.7 m5,0 -2.5,3.7"/>
  <path d="M225,414.5 h7 m-3.5,0 v-5.5 m0,5.7 -2.5,-3.7 m5,0 -2.5,3.7"/>
  <path d="M255,416.5 h7 m-3.5,0 v-5.5 m0,5.7 -2.5,-3.7 m5,0 -2.5,3.7"/>
  <path d="M279,410.5 h7 m-3.5,0 v-5.5 m0,5.7 -2.5,-3.7 m5,0 -2.5,3.7"/>
  <path d="M299,403.5 h7 m-3.5,0 v-5.5 m0,5.7 -2.5,-3.7 m5,0 -2.5,3.7"/>
  <path d="M321,407.5 h7 m-3.5,0 v-5.5 m0,5.7 -2.5,-3.7 m5,0 -2.5,3.7"/>
  <path d="M340,418.5 h7 m-3.5,0 v-5.5 m0,5.7 -2.5,-3.7 m5,0 -2.5,3.7"/>
  <path d="M382,411.5 h7 m-3.5,0 v-5.5 m0,5.7 -2.5,-3.7 m5,0 -2.5,3.7"/>
  <path d="M403,404.5 h7 m-3.5,0 v-5.5 m0,5.7 -2.5,-3.7 m5,0 -2.5,3.7"/>
  <path d="M426,408.5 h7 m-3.5,0 v-5.5 m0,5.7 -2.5,-3.7 m5,0 -2.5,3.7"/>
  <path d="M439,416.5 h7 m-3.5,0 v-5.5 m0,5.7 -2.5,-3.7 m5,0 -2.5,3.7"/>
  <path d="M473,414.5 h7 m-3.5,0 v-5.5 m0,5.7 -2.5,-3.7 m5,0 -2.5,3.7"/>
  <path d="M494,409.5 h7 m-3.5,0 v-5.5 m0,5.7 -2.5,-3.7 m5,0 -2.5,3.7"/>
  <path d="M4,431.5 h7 m-3.5,0 v-5.5 m0,5.7 -2.5,-3.7 m5,0 -2.5,3.7"/>
  <path d="M34,438.5 h7 m-3.5,0 v-5.5 m0,5.7 -2.5,-3.7 m5,0 -2.5,3.7"/>
  <path d="M57,445.5 h7 m-3.5,0 v-5.5 m0,5.7 -2.5,-3.7 m5,0 -2.5,3.7"/>
  <path d="M78,427.5 h7 m-3.5,0 v-5.5 m0,5.7 -2.5,-3.7 m5,0 -2.5,3.7"/>
  <path d="M97,438.5 h7 m-3.5,0 v-5.5 m0,5.7 -2.5,-3.7 m5,0 -2.5,3.7"/>
  <path d="M136,438.5 h7 m-3.5,0 v-5.5 m0,5.7 -2.5,-3.7 m5,0 -2.5,3.7"/>
  <path d="M160,435.5 h7 m-3.5,0 v-5.5 m0,5.7 -2.5,-3.7 m5,0 -2.5,3.7"/>
  <path d="M178,437.5 h7 m-3.5,0 v-5.5 m0,5.7 -2.5,-3.7 m5,0 -2.5,3.7"/>
  <path d="M207,430.5 h7 m-3.5,0 v-5.5 m0,5.7 -2.5,-3.7 m5,0 -2.5,3.7"/>
  <path d="M224,443.5 h7 m-3.5,0 v-5.5 m0,5.7 -2.5,-3.7 m5,0 -2.5,3.7"/>
  <path d="M260,436.5 h7 m-3.5,0 v-5.5 m0,5.7 -2.5,-3.7 m5,0 -2.5,3.7"/>
  <path d="M284,429.5 h7 m-3.5,0 v-5.5 m0,5.7 -2.5,-3.7 m5,0 -2.5,3.7"/>
  <path d="M305,441.5 h7 m-3.5,0 v-5.5 m0,5.7 -2.5,-3.7 m5,0 -2.5,3.7"/>
  <path d="M330,442.5 h7 m-3.5,0 v-5.5 m0,5.7 -2.5,-3.7 m5,0 -2.5,3.7"/>
  <path d="M353,429.5 h7 m-3.5,0 v-5.5 m0,5.7 -2.5,-3.7 m5,0 -2.5,3.7"/>
  <path d="M369,430.5 h7 m-3.5,0 v-5.5 m0,5.7 -2.5,-3.7 m5,0 -2.5,3.7"/>
  <path d="M398,438.5 h7 m-3.5,0 v-5.5 m0,5.7 -2.5,-3.7 m5,0 -2.5,3.7"/>
  <path d="M423,436.5 h7 m-3.5,0 v-5.5 m0,5.7 -2.5,-3.7 m5,0 -2.5,3.7"/>
  <path d="M452,440.5 h7 m-3.5,0 v-5.5 m0,5.7 -2.5,-3.7 m5,0 -2.5,3.7"/>
  <path d="M473,434.5 h7 m-3.5,0 v-5.5 m0,5.7 -2.5,-3.7 m5,0 -2.5,3.7"/>
  <path d="M495,440.5 h7 m-3.5,0 v-5.5 m0,5.7 -2.5,-3.7 m5,0 -2.5,3.7"/>
  <path d="M8,462.5 h7 m-3.5,0 v-5.5 m0,5.7 -2.5,-3.7 m5,0 -2.5,3.7"/>
  <path d="M31,456.5 h7 m-3.5,0 v-5.5 m0,5.7 -2.5,-3.7 m5,0 -2.5,3.7"/>
  <path d="M46,471.5 h7 m-3.5,0 v-5.5 m0,5.7 -2.5,-3.7 m5,0 -2.5,3.7"/>
  <path d="M85,461.5 h7 m-3.5,0 v-5.5 m0,5.7 -2.5,-3.7 m5,0 -2.5,3.7"/>
  <path d="M103,463.5 h7 m-3.5,0 v-5.5 m0,5.7 -2.5,-3.7 m5,0 -2.5,3.7"/>
  <path d="M133,460.5 h7 m-3.5,0 v-5.5 m0,5.7 -2.5,-3.7 m5,0 -2.5,3.7"/>
  <path d="M157,457.5 h7 m-3.5,0 v-5.5 m0,5.7 -2.5,-3.7 m5,0 -2.5,3.7"/>
  <path d="M181,460.5 h7 m-3.5,0 v-5.5 m0,5.7 -2.5,-3.7 m5,0 -2.5,3.7"/>
  <path d="M199,462.5 h7 m-3.5,0 v-5.5 m0,5.7 -2.5,-3.7 m5,0 -2.5,3.7"/>
  <path d="M229,460.5 h7 m-3.5,0 v-5.5 m0,5.7 -2.5,-3.7 m5,0 -2.5,3.7"/>
  <path d="M250,450.5 h7 m-3.5,0 v-5.5 m0,5.7 -2.5,-3.7 m5,0 -2.5,3.7"/>
  <path d="M280,463.5 h7 m-3.5,0 v-5.5 m0,5.7 -2.5,-3.7 m5,0 -2.5,3.7"/>
  <path d="M296,461.5 h7 m-3.5,0 v-5.5 m0,5.7 -2.5,-3.7 m5,0 -2.5,3.7"/>
  <path d="M322,463.5 h7 m-3.5,0 v-5.5 m0,5.7 -2.5,-3.7 m5,0 -2.5,3.7"/>
  <path d="M354,459.5 h7 m-3.5,0 v-5.5 m0,5.7 -2.5,-3.7 m5,0 -2.5,3.7"/>
  <path d="M380,464.5 h7 m-3.5,0 v-5.5 m0,5.7 -2.5,-3.7 m5,0 -2.5,3.7"/>
  <path d="M396,452.5 h7 m-3.5,0 v-5.5 m0,5.7 -2.5,-3.7 m5,0 -2.5,3.7"/>
  <path d="M434,464.5 h7 m-3.5,0 v-5.5 m0,5.7 -2.5,-3.7 m5,0 -2.5,3.7"/>
  <path d="M454,466.5 h7 m-3.5,0 v-5.5 m0,5.7 -2.5,-3.7 m5,0 -2.5,3.7"/>
  <path d="M479,463.5 h7 m-3.5,0 v-5.5 m0,5.7 -2.5,-3.7 m5,0 -2.5,3.7"/>
  <path d="M497,457.5 h7 m-3.5,0 v-5.5 m0,5.7 -2.5,-3.7 m5,0 -2.5,3.7"/>
  <path d="M3,486.5 h7 m-3.5,0 v-5.5 m0,5.7 -2.5,-3.7 m5,0 -2.5,3.7"/>
  <path d="M35,487.5 h7 m-3.5,0 v-5.5 m0,5.7 -2.5,-3.7 m5,0 -2.5,3.7"/>
  <path d="M64,470.5 h7 m-3.5,0 v-5.5 m0,5.7 -2.5,-3.7 m5,0 -2.5,3.7"/>
  <path d="M75,482.5 h7 m-3.5,0 v-5.5 m0,5.7 -2.5,-3.7 m5,0 -2.5,3.7"/>
  <path d="M103,489.5 h7 m-3.5,0 v-5.5 m0,5.7 -2.5,-3.7 m5,0 -2.5,3.7"/>
  <path d="M124,481.5 h7 m-3.5,0 v-5.5 m0,5.7 -2.5,-3.7 m5,0 -2.5,3.7"/>
  <path d="M157,486.5 h7 m-3.5,0 v-5.5 m0,5.7 -2.5,-3.7 m5,0 -2.5,3.7"/>
  <path d="M182,491.5 h7 m-3.5,0 v-5.5 m0,5.7 -2.5,-3.7 m5,0 -2.5,3.7"/>
  <path d="M200,490.5 h7 m-3.5,0 v-5.5 m0,5.7 -2.5,-3.7 m5,0 -2.5,3.7"/>
  <path d="M222,488.5 h7 m-3.5,0 v-5.5 m0,5.7 -2.5,-3.7 m5,0 -2.5,3.7"/>
  <path d="M242,478.5 h7 m-3.5,0 v-5.5 m0,5.7 -2.5,-3.7 m5,0 -2.5,3.7"/>
  <path d="M263,479.5 h7 m-3.5,0 v-5.5 m0,5.7 -2.5,-3.7 m5,0 -2.5,3.7"/>
  <path d="M300,486.5 h7 m-3.5,0 v-5.5 m0,5.7 -2.5,-3.7 m5,0 -2.5,3.7"/>
  <path d="M333,488.5 h7 m-3.5,0 v-5.5 m0,5.7 -2.5,-3.7 m5,0 -2.5,3.7"/>
  <path d="M354,484.5 h7 m-3.5,0 v-5.5 m0,5.7 -2.5,-3.7 m5,0 -2.5,3.7"/>
  <path d="M377,485.5 h7 m-3.5,0 v-5.5 m0,5.7 -2.5,-3.7 m5,0 -2.5,3.7"/>
  <path d="M402,480.5 h7 m-3.5,0 v-5.5 m0,5.7 -2.5,-3.7 m5,0 -2.5,3.7"/>
  <path d="M417,473.5 h7 m-3.5,0 v-5.5 m0,5.7 -2.5,-3.7 m5,0 -2.5,3.7"/>
  <path d="M439,488.5 h7 m-3.5,0 v-5.5 m0,5.7 -2.5,-3.7 m5,0 -2.5,3.7"/>
  <path d="M474,480.5 h7 m-3.5,0 v-5.5 m0,5.7 -2.5,-3.7 m5,0 -2.5,3.7"/>
  <path d="M496,485.5 h7 m-3.5,0 v-5.5 m0,5.7 -2.5,-3.7 m5,0 -2.5,3.7"/>
  <path d="M15,505.5 h7 m-3.5,0 v-5.5 m0,5.7 -2.5,-3.7 m5,0 -2.5,3.7"/>
  <path d="M38,515.5 h7 m-3.5,0 v-5.5 m0,5.7 -2.5,-3.7 m5,0 -2.5,3.7"/>
  <path d="M38,3.5 h7 m-3.5,0 v-5.5 m0,5.7 -2.5,-3.7 m5,0 -2.5,3.7"/>
  <path d="M59,511.5 h7 m-3.5,0 v-5.5 m0,5.7 -2.5,-3.7 m5,0 -2.5,3.7"/>
  <path d="M83,511.5 h7 m-3.5,0 v-5.5 m0,5.7 -2.5,-3.7 m5,0 -2.5,3.7"/>
  <path d="M103,510.5 h7 m-3.5,0 v-5.5 m0,5.7 -2.5,-3.7 m5,0 -2.5,3.7"/>
  <path d="M136,500.5 h7 m-3.5,0 v-5.5 m0,5.7 -2.5,-3.7 m5,0 -2.5,3.7"/>
  <path d="M157,505.5 h7 m-3.5,0 v-5.5 m0,5.7 -2.5,-3.7 m5,0 -2.5,3.7"/>
  <path d="M173,516.5 h7 m-3.5,0 v-5.5 m0,5.7 -2.5,-3.7 m5,0 -2.5,3.7"/>
  <path d="M173,4.5 h7 m-3.5,0 v-5.5 m0,5.7 -2.5,-3.7 m5,0 -2.5,3.7"/>
  <path d="M196,517.5 h7 m-3.5,0 v-5.5 m0,5.7 -2.5,-3.7 m5,0 -2.5,3.7"/>
  <path d="M196,5.5 h7 m-3.5,0 v-5.5 m0,5.7 -2.5,-3.7 m5,0 -2.5,3.7"/>
  <path d="M225,507.5 h7 m-3.5,0 v-5.5 m0,5.7 -2.5,-3.7 m5,0 -2.5,3.7"/>
  <path d="M260,513.5 h7 m-3.5,0 v-5.5 m0,5.7 -2.5,-3.7 m5,0 -2.5,3.7"/>
  <path d="M260,1.5 h7 m-3.5,0 v-5.5 m0,5.7 -2.5,-3.7 m5,0 -2.5,3.7"/>
  <path d="M274,498.5 h7 m-3.5,0 v-5.5 m0,5.7 -2.5,-3.7 m5,0 -2.5,3.7"/>
  <path d="M294,506.5 h7 m-3.5,0 v-5.5 m0,5.7 -2.5,-3.7 m5,0 -2.5,3.7"/>
  <path d="M321,505.5 h7 m-3.5,0 v-5.5 m0,5.7 -2.5,-3.7 m5,0 -2.5,3.7"/>
  <path d="M345,510.5 h7 m-3.5,0 v-5.5 m0,5.7 -2.5,-3.7 m5,0 -2.5,3.7"/>
  <path d="M372,508.5 h7 m-3.5,0 v-5.5 m0,5.7 -2.5,-3.7 m5,0 -2.5,3.7"/>
  <path d="M402,504.5 h7 m-3.5,0 v-5.5 m0,5.7 -2.5,-3.7 m5,0 -2.5,3.7"/>
  <path d="M421,513.5 h7 m-3.5,0 v-5.5 m0,5.7 -2.5,-3.7 m5,0 -2.5,3.7"/>
  <path d="M421,1.5 h7 m-3.5,0 v-5.5 m0,5.7 -2.5,-3.7 m5,0 -2.5,3.7"/>
  <path d="M453,504.5 h7 m-3.5,0 v-5.5 m0,5.7 -2.5,-3.7 m5,0 -2.5,3.7"/>
  <path d="M478,518.5 h7 m-3.5,0 v-5.5 m0,5.7 -2.5,-3.7 m5,0 -2.5,3.7"/>
  <path d="M478,6.5 h7 m-3.5,0 v-5.5 m0,5.7 -2.5,-3.7 m5,0 -2.5,3.7"/>
  <path d="M490,506.5 h7 m-3.5,0 v-5.5 m0,5.7 -2.5,-3.7 m5,0 -2.5,3.7"/>
</g>
</svg>
