<?xml version="1.0" encoding="UTF-8"?>
<svg version="1.1" width="512" height="512" viewBox="0 0 512 512" xmlns="http://www.w3.org/2000/svg" xmlns:xlink="http://www.w3.org/1999/xlink">
  <defs>
    <path id="scrub1" stroke-width="1" stroke="#b0be93" d="h7 m-3.5,0 v-5.5 m0,5.7 -2.5,-3.7 m5,0 -2.5,3.7"/>
  </defs>
  <use x="7" y="14.5" xlink:href="#scrub1"/>
  <use x="32" y="26.5" xlink:href="#scrub1"/>
  <use x="58" y="19.5" xlink:href="#scrub1"/>
  <use x="80" y="18.5" xlink:href="#scrub1"/>
  <use x="104" y="18.5" xlink:href="#scrub1"/>
  <use x="130" y="12.5" xlink:href="#scrub1"/>
  <use x="151" y="28.5" xlink:href="#scrub1"/>
  <use x="169" y="27.5" xlink:href="#scrub1"/>
  <use x="214" y="13.5" xlink:href="#scrub1"/>
  <use x="233" y="27.5" xlink:href="#scrub1"/>
  <use x="245" y="12.5" xlink:href="#scrub1"/>
  <use x="278" y="14.5" xlink:href="#scrub1"/>
  <use x="304" y="28.5" xlink:href="#scrub1"/>
  <use x="323" y="24.5" xlink:href="#scrub1"/>
  <use x="352" y="19.5" xlink:href="#scrub1"/>
  <use x="379" y="21.5" xlink:href="#scrub1"/>
  <use x="403" y="23.5" xlink:href="#scrub1"/>
  <use x="423" y="26.5" xlink:href="#scrub1"/>
  <use x="448" y="16.5" xlink:href="#scrub1"/>
  <use x="467" y="21.5" xlink:href="#scrub1"/>
  <use x="506" y="24.5" xlink:href="#scrub1"/>
  <use x="-6" y="24.5" xlink:href="#scrub1"/>
  <use x="4" y="47.5" xlink:href="#scrub1"/>
  <use x="37" y="53.5" xlink:href="#scrub1"/>
  <use x="51" y="38.5" xlink:href="#scrub1"/>
  <use x="90" y="53.5" xlink:href="#scrub1"/>
  <use x="101" y="41.5" xlink:href="#scrub1"/>
  <use x="122" y="49.5" xlink:href="#scrub1"/>
  <use x="153" y="46.5" xlink:href="#scrub1"/>
  <use x="182" y="49.5" xlink:href="#scrub1"/>
  <use x="200" y="40.5" xlink:href="#scrub1"/>
  <use x="218" y="49.5" xlink:href="#scrub1"/>
  <use x="249" y="44.5" xlink:href="#scrub1"/>
  <use x="271" y="46.5" xlink:href="#scrub1"/>
  <use x="291" y="38.5" xlink:href="#scrub1"/>
  <use x="314" y="50.5" xlink:href="#scrub1"/>
  <use x="348" y="51.5" xlink:href="#scrub1"/>
  <use x="369" y="42.5" xlink:href="#scrub1"/>
  <use x="392" y="44.5" xlink:href="#scrub1"/>
  <use x="430" y="54.5" xlink:href="#scrub1"/>
  <use x="445" y="39.5" xlink:href="#scrub1"/>
  <use x="478" y="51.5" xlink:href="#scrub1"/>
  <use x="492" y="37.5" xlink:href="#scrub1"/>
  <use x="0" y="64.5" xlink:href="#scrub1"/>
  <use x="31" y="75.5" xlink:href="#scrub1"/>
  <use x="57" y="68.5" xlink:href="#scrub1"/>
  <use x="78" y="64.5" xlink:href="#scrub1"/>
  <use x="104" y="71.5" xlink:href="#scrub1"/>
  <use x="134" y="75.5" xlink:href="#scrub1"/>
  <use x="149" y="63.5" xlink:href="#scrub1"/>
  <use x="183" y="67.5" xlink:href="#scrub1"/>
  <use x="212" y="69.5" xlink:href="#scrub1"/>
  <use x="229" y="74.5" xlink:href="#scrub1"/>
  <use x="247" y="67.5" xlink:href="#scrub1"/>
  <use x="276" y="68.5" xlink:href="#scrub1"/>
  <use x="296" y="73.5" xlink:href="#scrub1"/>
  <use x="330" y="60.5" xlink:href="#scrub1"/>
  <use x="339" y="79.5" xlink:href="#scrub1"/>
  <use x="368" y="67.5" xlink:href="#scrub1"/>
  <use x="392" y="76.5" xlink:href="#scrub1"/>
  <use x="413" y="69.5" xlink:href="#scrub1"/>
  <use x="446" y="63.5" xlink:href="#scrub1"/>
  <use x="466" y="74.5" xlink:href="#scrub1"/>
  <use x="503" y="75.5" xlink:href="#scrub1"/>
  <use x="15" y="91.5" xlink:href="#scrub1"/>
  <use x="38" y="101.5" xlink:href="#scrub1"/>
  <use x="59" y="96.5" xlink:href="#scrub1"/>
  <use x="79" y="86.5" xlink:href="#scrub1"/>
  <use x="103" y="96.5" xlink:href="#scrub1"/>
  <use x="128" y="100.5" xlink:href="#scrub1"/>
  <use x="162" y="91.5" xlink:href="#scrub1"/>
  <use x="185" y="89.5" xlink:href="#scrub1"/>
  <use x="203" y="87.5" xlink:href="#scrub1"/>
  <use x="225" y="102.5" xlink:href="#scrub1"/>
  <use x="252" y="89.5" xlink:href="#scrub1"/>
  <use x="278" y="96.5" xlink:href="#scrub1"/>
  <use x="300" y="96.5" xlink:href="#scrub1"/>
  <use x="328" y="93.5" xlink:href="#scrub1"/>
  <use x="352" y="97.5" xlink:href="#scrub1"/>
  <use x="372" y="89.5" xlink:href="#scrub1"/>
  <use x="393" y="98.5" xlink:href="#scrub1"/>
  <use x="428" y="99.5" xlink:href="#scrub1"/>
  <use x="442" y="84.5" xlink:href="#scrub1"/>
  <use x="473" y="97.5" xlink:href="#scrub1"/>
  <use x="489" y="86.5" xlink:href="#scrub1"/>
  <use x="7" y="109.5" xlink:href="#scrub1"/>
  <use x="30" y="121.5" xlink:href="#scrub1"/>
  <use x="66" y="116.5" xlink:href="#scrub1"/>
  <use x="86" y="113.5" xlink:href="#scrub1"/>
  <use x="107" y="122.5" xlink:href="#scrub1"/>
  <use x="136" y="124.5" xlink:href="#scrub1"/>
  <use x="152" y="117.5" xlink:href="#scrub1"/>
  <use x="174" y="112.5" xlink:href="#scrub1"/>
  <use x="197" y="116.5" xlink:href="#scrub1"/>
  <use x="223" y="123.5" xlink:href="#scrub1"/>
  <use x="245" y="113.5" xlink:href="#scrub1"/>
  <use x="268" y="115.5" xlink:href="#scrub1"/>
  <use x="304" y="117.5" xlink:href="#scrub1"/>
  <use x="321" y="121.5" xlink:href="#scrub1"/>
  <use x="349" y="128.5" xlink:href="#scrub1"/>
  <use x="366" y="118.5" xlink:href="#scrub1"/>
  <use x="390" y="122.5" xlink:href="#scrub1"/>
  <use x="414" y="114.5" xlink:href="#scrub1"/>
  <use x="455" y="113.5" xlink:href="#scrub1"/>
  <use x="479" y="119.5" xlink:href="#scrub1"/>
  <use x="497" y="126.5" xlink:href="#scrub1"/>
  <use x="9" y="136.5" xlink:href="#scrub1"/>
  <use x="31" y="145.5" xlink:href="#scrub1"/>
  <use x="56" y="145.5" xlink:href="#scrub1"/>
  <use x="73" y="136.5" xlink:href="#scrub1"/>
  <use x="106" y="144.5" xlink:href="#scrub1"/>
  <use x="125" y="137.5" xlink:href="#scrub1"/>
  <use x="155" y="142.5" xlink:href="#scrub1"/>
  <use x="175" y="139.5" xlink:href="#scrub1"/>
  <use x="207" y="136.5" xlink:href="#scrub1"/>
  <use x="220" y="151.5" xlink:href="#scrub1"/>
  <use x="254" y="141.5" xlink:href="#scrub1"/>
  <use x="274" y="137.5" xlink:href="#scrub1"/>
  <use x="302" y="137.5" xlink:href="#scrub1"/>
  <use x="323" y="141.5" xlink:href="#scrub1"/>
  <use x="355" y="151.5" xlink:href="#scrub1"/>
  <use x="379" y="140.5" xlink:href="#scrub1"/>
  <use x="404" y="143.5" xlink:href="#scrub1"/>
  <use x="421" y="133.5" xlink:href="#scrub1"/>
  <use x="445" y="133.5" xlink:href="#scrub1"/>
  <use x="468" y="141.5" xlink:href="#scrub1"/>
  <use x="493" y="149.5" xlink:href="#scrub1"/>
  <use x="6" y="164.5" xlink:href="#scrub1"/>
  <use x="37" y="165.5" xlink:href="#scrub1"/>
  <use x="52" y="175.5" xlink:href="#scrub1"/>
  <use x="83" y="158.5" xlink:href="#scrub1"/>
  <use x="101" y="169.5" xlink:href="#scrub1"/>
  <use x="122" y="173.5" xlink:href="#scrub1"/>
  <use x="146" y="168.5" xlink:href="#scrub1"/>
  <use x="184" y="161.5" xlink:href="#scrub1"/>
  <use x="207" y="170.5" xlink:href="#scrub1"/>
  <use x="230" y="171.5" xlink:href="#scrub1"/>
  <use x="256" y="159.5" xlink:href="#scrub1"/>
  <use x="283" y="165.5" xlink:href="#scrub1"/>
  <use x="300" y="164.5" xlink:href="#scrub1"/>
  <use x="328" y="168.5" xlink:href="#scrub1"/>
  <use x="345" y="179.5" xlink:href="#scrub1"/>
  <use x="379" y="163.5" xlink:href="#scrub1"/>
  <use x="407" y="163.5" xlink:href="#scrub1"/>
  <use x="429" y="159.5" xlink:href="#scrub1"/>
  <use x="454" y="177.5" xlink:href="#scrub1"/>
  <use x="466" y="160.5" xlink:href="#scrub1"/>
  <use x="489" y="172.5" xlink:href="#scrub1"/>
  <use x="6" y="186.5" xlink:href="#scrub1"/>
  <use x="27" y="187.5" xlink:href="#scrub1"/>
  <use x="64" y="192.5" xlink:href="#scrub1"/>
  <use x="84" y="187.5" xlink:href="#scrub1"/>
  <use x="110" y="197.5" xlink:href="#scrub1"/>
  <use x="139" y="192.5" xlink:href="#scrub1"/>
  <use x="164" y="182.5" xlink:href="#scrub1"/>
  <use x="184" y="187.5" xlink:href="#scrub1"/>
  <use x="208" y="191.5" xlink:href="#scrub1"/>
  <use x="233" y="193.5" xlink:href="#scrub1"/>
  <use x="261" y="179.5" xlink:href="#scrub1"/>
  <use x="267" y="198.5" xlink:href="#scrub1"/>
  <use x="294" y="190.5" xlink:href="#scrub1"/>
  <use x="323" y="193.5" xlink:href="#scrub1"/>
  <use x="360" y="198.5" xlink:href="#scrub1"/>
  <use x="370" y="183.5" xlink:href="#scrub1"/>
  <use x="407" y="184.5" xlink:href="#scrub1"/>
  <use x="416" y="198.5" xlink:href="#scrub1"/>
  <use x="439" y="187.5" xlink:href="#scrub1"/>
  <use x="472" y="189.5" xlink:href="#scrub1"/>
  <use x="491" y="192.5" xlink:href="#scrub1"/>
  <use x="2" y="210.5" xlink:href="#scrub1"/>
  <use x="27" y="208.5" xlink:href="#scrub1"/>
  <use x="54" y="212.5" xlink:href="#scrub1"/>
  <use x="79" y="215.5" xlink:href="#scrub1"/>
  <use x="108" y="222.5" xlink:href="#scrub1"/>
  <use x="136" y="224.5" xlink:href="#scrub1"/>
  <use x="150" y="215.5" xlink:href="#scrub1"/>
  <use x="172" y="207.5" xlink:href="#scrub1"/>
  <use x="206" y="214.5" xlink:href="#scrub1"/>
  <use x="232" y="217.5" xlink:href="#scrub1"/>
  <use x="255" y="222.5" xlink:href="#scrub1"/>
  <use x="269" y="221.5" xlink:href="#scrub1"/>
  <use x="301" y="207.5" xlink:href="#scrub1"/>
  <use x="322" y="224.5" xlink:href="#scrub1"/>
  <use x="344" y="209.5" xlink:href="#scrub1"/>
  <use x="367" y="220.5" xlink:href="#scrub1"/>
  <use x="393" y="209.5" xlink:href="#scrub1"/>
  <use x="419" y="222.5" xlink:href="#scrub1"/>
  <use x="443" y="219.5" xlink:href="#scrub1"/>
  <use x="466" y="211.5" xlink:href="#scrub1"/>
  <use x="498" y="215.5" xlink:href="#scrub1"/>
  <use x="16" y="246.5" xlink:href="#scrub1"/>
  <use x="33" y="231.5" xlink:href="#scrub1"/>
  <use x="54" y="239.5" xlink:href="#scrub1"/>
  <use x="79" y="242.5" xlink:href="#scrub1"/>
  <use x="108" y="246.5" xlink:href="#scrub1"/>
  <use x="125" y="234.5" xlink:href="#scrub1"/>
  <use x="164" y="232.5" xlink:href="#scrub1"/>
  <use x="175" y="245.5" xlink:href="#scrub1"/>
  <use x="201" y="240.5" xlink:href="#scrub1"/>
  <use x="226" y="235.5" xlink:href="#scrub1"/>
  <use x="254" y="243.5" xlink:href="#scrub1"/>
  <use x="284" y="241.5" xlink:href="#scrub1"/>
  <use x="302" y="228.5" xlink:href="#scrub1"/>
  <use x="325" y="242.5" xlink:href="#scrub1"/>
  <use x="355" y="248.5" xlink:href="#scrub1"/>
  <use x="378" y="237.5" xlink:href="#scrub1"/>
  <use x="397" y="242.5" xlink:href="#scrub1"/>
  <use x="427" y="243.5" xlink:href="#scrub1"/>
  <use x="449" y="246.5" xlink:href="#scrub1"/>
  <use x="469" y="239.5" xlink:href="#scrub1"/>
  <use x="502" y="239.5" xlink:href="#scrub1"/>
  <use x="6" y="260.5" xlink:href="#scrub1"/>
  <use x="32" y="260.5" xlink:href="#scrub1"/>
  <use x="53" y="263.5" xlink:href="#scrub1"/>
  <use x="86" y="263.5" xlink:href="#scrub1"/>
  <use x="110" y="267.5" xlink:href="#scrub1"/>
  <use x="136" y="272.5" xlink:href="#scrub1"/>
  <use x="154" y="257.5" xlink:href="#scrub1"/>
  <use x="181" y="269.5" xlink:href="#scrub1"/>
  <use x="202" y="258.5" xlink:href="#scrub1"/>
  <use x="217" y="268.5" xlink:href="#scrub1"/>
  <use x="261" y="270.5" xlink:href="#scrub1"/>
  <use x="271" y="259.5" xlink:href="#scrub1"/>
  <use x="304" y="263.5" xlink:href="#scrub1"/>
  <use x="326" y="271.5" xlink:href="#scrub1"/>
  <use x="341" y="257.5" xlink:href="#scrub1"/>
  <use x="373" y="264.5" xlink:href="#scrub1"/>
  <use x="400" y="272.5" xlink:href="#scrub1"/>
  <use x="428" y="262.5" xlink:href="#scrub1"/>
  <use x="448" y="273.5" xlink:href="#scrub1"/>
  <use x="477" y="262.5" xlink:href="#scrub1"/>
  <use x="493" y="261.5" xlink:href="#scrub1"/>
  <use x="12" y="287.5" xlink:href="#scrub1"/>
  <use x="32" y="295.5" xlink:href="#scrub1"/>
  <use x="63" y="288.5" xlink:href="#scrub1"/>
  <use x="86" y="288.5" xlink:href="#scrub1"/>
  <use x="108" y="287.5" xlink:href="#scrub1"/>
  <use x="137" y="295.5" xlink:href="#scrub1"/>
  <use x="159" y="296.5" xlink:href="#scrub1"/>
  <use x="171" y="283.5" xlink:href="#scrub1"/>
  <use x="205" y="293.5" xlink:href="#scrub1"/>
  <use x="226" y="283.5" xlink:href="#scrub1"/>
  <use x="244" y="284.5" xlink:href="#scrub1"/>
  <use x="269" y="286.5" xlink:href="#scrub1"/>
  <use x="293" y="294.5" xlink:href="#scrub1"/>
  <use x="316" y="288.5" xlink:href="#scrub1"/>
  <use x="344" y="290.5" xlink:href="#scrub1"/>
  <use x="380" y="289.5" xlink:href="#scrub1"/>
  <use x="402" y="298.5" xlink:href="#scrub1"/>
  <use x="428" y="282.5" xlink:href="#scrub1"/>
  <use x="437" y="299.5" xlink:href="#scrub1"/>
  <use x="475" y="294.5" xlink:href="#scrub1"/>
  <use x="491" y="286.5" xlink:href="#scrub1"/>
  <use x="4" y="314.5" xlink:href="#scrub1"/>
  <use x="30" y="318.5" xlink:href="#scrub1"/>
  <use x="51" y="308.5" xlink:href="#scrub1"/>
  <use x="72" y="310.5" xlink:href="#scrub1"/>
  <use x="103" y="316.5" xlink:href="#scrub1"/>
  <use x="126" y="309.5" xlink:href="#scrub1"/>
  <use x="147" y="321.5" xlink:href="#scrub1"/>
  <use x="180" y="317.5" xlink:href="#scrub1"/>
  <use x="202" y="311.5" xlink:href="#scrub1"/>
  <use x="228" y="312.5" xlink:href="#scrub1"/>
  <use x="247" y="318.5" xlink:href="#scrub1"/>
  <use x="273" y="319.5" xlink:href="#scrub1"/>
  <use x="290" y="318.5" xlink:href="#scrub1"/>
  <use x="324" y="307.5" xlink:href="#scrub1"/>
  <use x="352" y="319.5" xlink:href="#scrub1"/>
  <use x="370" y="308.5" xlink:href="#scrub1"/>
  <use x="389" y="317.5" xlink:href="#scrub1"/>
  <use x="424" y="310.5" xlink:href="#scrub1"/>
  <use x="452" y="310.5" xlink:href="#scrub1"/>
  <use x="477" y="313.5" xlink:href="#scrub1"/>
  <use x="500" y="308.5" xlink:href="#scrub1"/>
  <use x="5" y="341.5" xlink:href="#scrub1"/>
  <use x="22" y="334.5" xlink:href="#scrub1"/>
  <use x="47" y="342.5" xlink:href="#scrub1"/>
  <use x="81" y="344.5" xlink:href="#scrub1"/>
  <use x="95" y="335.5" xlink:href="#scrub1"/>
  <use x="122" y="344.5" xlink:href="#scrub1"/>
  <use x="154" y="343.5" xlink:href="#scrub1"/>
  <use x="184" y="337.5" xlink:href="#scrub1"/>
  <use x="207" y="341.5" xlink:href="#scrub1"/>
  <use x="228" y="345.5" xlink:href="#scrub1"/>
  <use x="252" y="342.5" xlink:href="#scrub1"/>
  <use x="281" y="340.5" xlink:href="#scrub1"/>
  <use x="303" y="328.5" xlink:href="#scrub1"/>
  <use x="320" y="343.5" xlink:href="#scrub1"/>
  <use x="351" y="336.5" xlink:href="#scrub1"/>
  <use x="377" y="343.5" xlink:href="#scrub1"/>
  <use x="406" y="336.5" xlink:href="#scrub1"/>
  <use x="428" y="342.5" xlink:href="#scrub1"/>
  <use x="448" y="342.5" xlink:href="#scrub1"/>
  <use x="470" y="333.5" xlink:href="#scrub1"/>
  <use x="492" y="347.5" xlink:href="#scrub1"/>
  <use x="5" y="367.5" xlink:href="#scrub1"/>
  <use x="31" y="358.5" xlink:href="#scrub1"/>
  <use x="66" y="371.5" xlink:href="#scrub1"/>
  <use x="70" y="356.5" xlink:href="#scrub1"/>
  <use x="99" y="364.5" xlink:href="#scrub1"/>
  <use x="128" y="365.5" xlink:href="#scrub1"/>
  <use x="151" y="360.5" xlink:href="#scrub1"/>
  <use x="177" y="356.5" xlink:href="#scrub1"/>
  <use x="198" y="369.5" xlink:href="#scrub1"/>
  <use x="233" y="367.5" xlink:href="#scrub1"/>
  <use x="255" y="372.5" xlink:href="#scrub1"/>
  <use x="271" y="359.5" xlink:href="#scrub1"/>
  <use x="296" y="358.5" xlink:href="#scrub1"/>
  <use x="328" y="356.5" xlink:href="#scrub1"/>
  <use x="349" y="365.5" xlink:href="#scrub1"/>
  <use x="380" y="367.5" xlink:href="#scrub1"/>
  <use x="403" y="362.5" xlink:href="#scrub1"/>
  <use x="427" y="363.5" xlink:href="#scrub1"/>
  <use x="447" y="369.5" xlink:href="#scrub1"/>
  <use x="469" y="357.5" xlink:href="#scrub1"/>
  <use x="496" y="371.5" xlink:href="#scrub1"/>
  <use x="11" y="395.5" xlink:href="#scrub1"/>
  <use x="34" y="385.5" xlink:href="#scrub1"/>
  <use x="52" y="382.5" xlink:href="#scrub1"/>
  <use x="75" y="396.5" xlink:href="#scrub1"/>
  <use x="111" y="391.5" xlink:href="#scrub1"/>
  <use x="133" y="390.5" xlink:href="#scrub1"/>
  <use x="155" y="394.5" xlink:href="#scrub1"/>
  <use x="171" y="380.5" xlink:href="#scrub1"/>
  <use x="209" y="389.5" xlink:href="#scrub1"/>
  <use x="234" y="384.5" xlink:href="#scrub1"/>
  <use x="255" y="397.5" xlink:href="#scrub1"/>
  <use x="275" y="389.5" xlink:href="#scrub1"/>
  <use x="306" y="380.5" xlink:href="#scrub1"/>
  <use x="327" y="382.5" xlink:href="#scrub1"/>
  <use x="353" y="397.5" xlink:href="#scrub1"/>
  <use x="367" y="386.5" xlink:href="#scrub1"/>
  <use x="390" y="386.5" xlink:href="#scrub1"/>
  <use x="429" y="387.5" xlink:href="#scrub1"/>
  <use x="455" y="399.5" xlink:href="#scrub1"/>
  <use x="467" y="383.5" xlink:href="#scrub1"/>
  <use x="495" y="391.5" xlink:href="#scrub1"/>
  <use x="15" y="419.5" xlink:href="#scrub1"/>
  <use x="38" y="406.5" xlink:href="#scrub1"/>
  <use x="52" y="417.5" xlink:href="#scrub1"/>
  <use x="89" y="412.5" xlink:href="#scrub1"/>
  <use x="110" y="409.5" xlink:href="#scrub1"/>
  <use x="130" y="420.5" xlink:href="#scrub1"/>
  <use x="152" y="415.5" xlink:href="#scrub1"/>
  <use x="187" y="399.5" xlink:href="#scrub1"/>
  <use x="195" y="415.5" xlink:href="#scrub1"/>
  <use x="225" y="414.5" xlink:href="#scrub1"/>
  <use x="255" y="416.5" xlink:href="#scrub1"/>
  <use x="279" y="410.5" xlink:href="#scrub1"/>
  <use x="299" y="403.5" xlink:href="#scrub1"/>
  <use x="321" y="407.5" xlink:href="#scrub1"/>
  <use x="340" y="418.5" xlink:href="#scrub1"/>
  <use x="382" y="411.5" xlink:href="#scrub1"/>
  <use x="403" y="404.5" xlink:href="#scrub1"/>
  <use x="426" y="408.5" xlink:href="#scrub1"/>
  <use x="439" y="416.5" xlink:href="#scrub1"/>
  <use x="473" y="414.5" xlink:href="#scrub1"/>
  <use x="494" y="409.5" xlink:href="#scrub1"/>
  <use x="4" y="431.5" xlink:href="#scrub1"/>
  <use x="34" y="438.5" xlink:href="#scrub1"/>
  <use x="57" y="445.5" xlink:href="#scrub1"/>
  <use x="78" y="427.5" xlink:href="#scrub1"/>
  <use x="97" y="438.5" xlink:href="#scrub1"/>
  <use x="136" y="438.5" xlink:href="#scrub1"/>
  <use x="160" y="435.5" xlink:href="#scrub1"/>
  <use x="178" y="437.5" xlink:href="#scrub1"/>
  <use x="207" y="430.5" xlink:href="#scrub1"/>
  <use x="224" y="443.5" xlink:href="#scrub1"/>
  <use x="260" y="436.5" xlink:href="#scrub1"/>
  <use x="284" y="429.5" xlink:href="#scrub1"/>
  <use x="305" y="441.5" xlink:href="#scrub1"/>
  <use x="330" y="442.5" xlink:href="#scrub1"/>
  <use x="353" y="429.5" xlink:href="#scrub1"/>
  <use x="369" y="430.5" xlink:href="#scrub1"/>
  <use x="398" y="438.5" xlink:href="#scrub1"/>
  <use x="423" y="436.5" xlink:href="#scrub1"/>
  <use x="452" y="440.5" xlink:href="#scrub1"/>
  <use x="473" y="434.5" xlink:href="#scrub1"/>
  <use x="495" y="440.5" xlink:href="#scrub1"/>
  <use x="8" y="462.5" xlink:href="#scrub1"/>
  <use x="31" y="456.5" xlink:href="#scrub1"/>
  <use x="46" y="471.5" xlink:href="#scrub1"/>
  <use x="85" y="461.5" xlink:href="#scrub1"/>
  <use x="103" y="463.5" xlink:href="#scrub1"/>
  <use x="133" y="460.5" xlink:href="#scrub1"/>
  <use x="157" y="457.5" xlink:href="#scrub1"/>
  <use x="181" y="460.5" xlink:href="#scrub1"/>
  <use x="199" y="462.5" xlink:href="#scrub1"/>
  <use x="229" y="460.5" xlink:href="#scrub1"/>
  <use x="250" y="450.5" xlink:href="#scrub1"/>
  <use x="280" y="463.5" xlink:href="#scrub1"/>
  <use x="296" y="461.5" xlink:href="#scrub1"/>
  <use x="322" y="463.5" xlink:href="#scrub1"/>
  <use x="354" y="459.5" xlink:href="#scrub1"/>
  <use x="380" y="464.5" xlink:href="#scrub1"/>
  <use x="396" y="452.5" xlink:href="#scrub1"/>
  <use x="434" y="464.5" xlink:href="#scrub1"/>
  <use x="454" y="466.5" xlink:href="#scrub1"/>
  <use x="479" y="463.5" xlink:href="#scrub1"/>
  <use x="497" y="457.5" xlink:href="#scrub1"/>
  <use x="3" y="486.5" xlink:href="#scrub1"/>
  <use x="35" y="487.5" xlink:href="#scrub1"/>
  <use x="64" y="470.5" xlink:href="#scrub1"/>
  <use x="75" y="482.5" xlink:href="#scrub1"/>
  <use x="103" y="489.5" xlink:href="#scrub1"/>
  <use x="124" y="481.5" xlink:href="#scrub1"/>
  <use x="157" y="486.5" xlink:href="#scrub1"/>
  <use x="182" y="491.5" xlink:href="#scrub1"/>
  <use x="200" y="490.5" xlink:href="#scrub1"/>
  <use x="222" y="488.5" xlink:href="#scrub1"/>
  <use x="242" y="478.5" xlink:href="#scrub1"/>
  <use x="263" y="479.5" xlink:href="#scrub1"/>
  <use x="300" y="486.5" xlink:href="#scrub1"/>
  <use x="333" y="488.5" xlink:href="#scrub1"/>
  <use x="354" y="484.5" xlink:href="#scrub1"/>
  <use x="377" y="485.5" xlink:href="#scrub1"/>
  <use x="402" y="480.5" xlink:href="#scrub1"/>
  <use x="417" y="473.5" xlink:href="#scrub1"/>
  <use x="439" y="488.5" xlink:href="#scrub1"/>
  <use x="474" y="480.5" xlink:href="#scrub1"/>
  <use x="496" y="485.5" xlink:href="#scrub1"/>
  <use x="15" y="505.5" xlink:href="#scrub1"/>
  <use x="38" y="515.5" xlink:href="#scrub1"/>
  <use x="38" y="3.5" xlink:href="#scrub1"/>
  <use x="59" y="511.5" xlink:href="#scrub1"/>
  <use x="83" y="511.5" xlink:href="#scrub1"/>
  <use x="103" y="510.5" xlink:href="#scrub1"/>
  <use x="136" y="500.5" xlink:href="#scrub1"/>
  <use x="157" y="505.5" xlink:href="#scrub1"/>
  <use x="173" y="516.5" xlink:href="#scrub1"/>
  <use x="173" y="4.5" xlink:href="#scrub1"/>
  <use x="196" y="517.5" xlink:href="#scrub1"/>
  <use x="196" y="5.5" xlink:href="#scrub1"/>
  <use x="225" y="507.5" xlink:href="#scrub1"/>
  <use x="260" y="513.5" xlink:href="#scrub1"/>
  <use x="260" y="1.5" xlink:href="#scrub1"/>
  <use x="274" y="498.5" xlink:href="#scrub1"/>
  <use x="294" y="506.5" xlink:href="#scrub1"/>
  <use x="321" y="505.5" xlink:href="#scrub1"/>
  <use x="345" y="510.5" xlink:href="#scrub1"/>
  <use x="372" y="508.5" xlink:href="#scrub1"/>
  <use x="402" y="504.5" xlink:href="#scrub1"/>
  <use x="421" y="513.5" xlink:href="#scrub1"/>
  <use x="421" y="1.5" xlink:href="#scrub1"/>
  <use x="453" y="504.5" xlink:href="#scrub1"/>
  <use x="478" y="518.5" xlink:href="#scrub1"/>
  <use x="478" y="6.5" xlink:href="#scrub1"/>
  <use x="490" y="506.5" xlink:href="#scrub1"/>
</svg>