<?xml version="1.0" encoding="UTF-8"?>
<svg version="1.1" width="512" height="512" viewBox="0 0 512 512" xmlns="http://www.w3.org/2000/svg" stroke-width="1" stroke="#b0be93">
  <path d="M33,424 m-4,2.5 h7 m-3.5,0 v-5.5 m0,5.7 -2.5,-3.7 m5,0 -2.5,3.7"/>
  <path d="M489,111 m-4,2.5 h7 m-3.5,0 v-5.5 m0,5.7 -2.5,-3.7 m5,0 -2.5,3.7"/>
  <path d="M184,156 m-4,2.5 h7 m-3.5,0 v-5.5 m0,5.7 -2.5,-3.7 m5,0 -2.5,3.7"/>
  <path d="M143,362 m-4,2.5 h7 m-3.5,0 v-5.5 m0,5.7 -2.5,-3.7 m5,0 -2.5,3.7"/>
  <path d="M350,86 m-4,2.5 h7 m-3.5,0 v-5.5 m0,5.7 -2.5,-3.7 m5,0 -2.5,3.7"/>
  <path d="M255,328 m-4,2.5 h7 m-3.5,0 v-5.5 m0,5.7 -2.5,-3.7 m5,0 -2.5,3.7"/>
  <path d="M428,38 m-4,2.5 h7 m-3.5,0 v-5.5 m0,5.7 -2.5,-3.7 m5,0 -2.5,3.7"/>
  <path d="M86,138 m-4,2.5 h7 m-3.5,0 v-5.5 m0,5.7 -2.5,-3.7 m5,0 -2.5,3.7"/>
  <path d="M358,434 m-4,2.5 h7 m-3.5,0 v-5.5 m0,5.7 -2.5,-3.7 m5,0 -2.5,3.7"/>
  <path d="M395,234 m-4,2.5 h7 m-3.5,0 v-5.5 m0,5.7 -2.5,-3.7 m5,0 -2.5,3.7"/>
  <path d="M239,511 m-4,2.5 h7 m-3.5,0 v-5.5 m0,5.7 -2.5,-3.7 m5,0 -2.5,3.7"/>
  <path d="M239,-1 m-4,2.5 h7 m-3.5,0 v-5.5 m0,5.7 -2.5,-3.7 m5,0 -2.5,3.7"/>
  <path d="M273,182 m-4,2.5 h7 m-3.5,0 v-5.5 m0,5.7 -2.5,-3.7 m5,0 -2.5,3.7"/>
  <path d="M10,254 m-4,2.5 h7 m-3.5,0 v-5.5 m0,5.7 -2.5,-3.7 m5,0 -2.5,3.7"/>
  <path d="M154,211 m-4,2.5 h7 m-3.5,0 v-5.5 m0,5.7 -2.5,-3.7 m5,0 -2.5,3.7"/>
  <path d="M501,265 m-4,2.5 h7 m-3.5,0 v-5.5 m0,5.7 -2.5,-3.7 m5,0 -2.5,3.7"/>
  <path d="M280,160 m-4,2.5 h7 m-3.5,0 v-5.5 m0,5.7 -2.5,-3.7 m5,0 -2.5,3.7"/>
  <path d="M333,175 m-4,2.5 h7 m-3.5,0 v-5.5 m0,5.7 -2.5,-3.7 m5,0 -2.5,3.7"/>
  <path d="M137,334 m-4,2.5 h7 m-3.5,0 v-5.5 m0,5.7 -2.5,-3.7 m5,0 -2.5,3.7"/>
  <path d="M67,112 m-4,2.5 h7 m-3.5,0 v-5.5 m0,5.7 -2.5,-3.7 m5,0 -2.5,3.7"/>
  <path d="M476,18 m-4,2.5 h7 m-3.5,0 v-5.5 m0,5.7 -2.5,-3.7 m5,0 -2.5,3.7"/>
  <path d="M165,350 m-4,2.5 h7 m-3.5,0 v-5.5 m0,5.7 -2.5,-3.7 m5,0 -2.5,3.7"/>
  <path d="M445,323 m-4,2.5 h7 m-3.5,0 v-5.5 m0,5.7 -2.5,-3.7 m5,0 -2.5,3.7"/>
  <path d="M214,226 m-4,2.5 h7 m-3.5,0 v-5.5 m0,5.7 -2.5,-3.7 m5,0 -2.5,3.7"/>
  <path d="M179,37 m-4,2.5 h7 m-3.5,0 v-5.5 m0,5.7 -2.5,-3.7 m5,0 -2.5,3.7"/>
  <path d="M348,511 m-4,2.5 h7 m-3.5,0 v-5.5 m0,5.7 -2.5,-3.7 m5,0 -2.5,3.7"/>
  <path d="M348,-1 m-4,2.5 h7 m-3.5,0 v-5.5 m0,5.7 -2.5,-3.7 m5,0 -2.5,3.7"/>
  <path d="M140,182 m-4,2.5 h7 m-3.5,0 v-5.5 m0,5.7 -2.5,-3.7 m5,0 -2.5,3.7"/>
  <path d="M480,427 m-4,2.5 h7 m-3.5,0 v-5.5 m0,5.7 -2.5,-3.7 m5,0 -2.5,3.7"/>
  <path d="M41,410 m-4,2.5 h7 m-3.5,0 v-5.5 m0,5.7 -2.5,-3.7 m5,0 -2.5,3.7"/>
  <path d="M282,107 m-4,2.5 h7 m-3.5,0 v-5.5 m0,5.7 -2.5,-3.7 m5,0 -2.5,3.7"/>
  <path d="M227,154 m-4,2.5 h7 m-3.5,0 v-5.5 m0,5.7 -2.5,-3.7 m5,0 -2.5,3.7"/>
  <path d="M205,299 m-4,2.5 h7 m-3.5,0 v-5.5 m0,5.7 -2.5,-3.7 m5,0 -2.5,3.7"/>
  <path d="M469,186 m-4,2.5 h7 m-3.5,0 v-5.5 m0,5.7 -2.5,-3.7 m5,0 -2.5,3.7"/>
  <path d="M479,57 m-4,2.5 h7 m-3.5,0 v-5.5 m0,5.7 -2.5,-3.7 m5,0 -2.5,3.7"/>
  <path d="M182,227 m-4,2.5 h7 m-3.5,0 v-5.5 m0,5.7 -2.5,-3.7 m5,0 -2.5,3.7"/>
  <path d="M162,259 m-4,2.5 h7 m-3.5,0 v-5.5 m0,5.7 -2.5,-3.7 m5,0 -2.5,3.7"/>
  <path d="M332,207 m-4,2.5 h7 m-3.5,0 v-5.5 m0,5.7 -2.5,-3.7 m5,0 -2.5,3.7"/>
  <path d="M204,61 m-4,2.5 h7 m-3.5,0 v-5.5 m0,5.7 -2.5,-3.7 m5,0 -2.5,3.7"/>
  <path d="M398,7 m-4,2.5 h7 m-3.5,0 v-5.5 m0,5.7 -2.5,-3.7 m5,0 -2.5,3.7"/>
  <path d="M32,456 m-4,2.5 h7 m-3.5,0 v-5.5 m0,5.7 -2.5,-3.7 m5,0 -2.5,3.7"/>
  <path d="M182,453 m-4,2.5 h7 m-3.5,0 v-5.5 m0,5.7 -2.5,-3.7 m5,0 -2.5,3.7"/>
  <path d="M275,10 m-4,2.5 h7 m-3.5,0 v-5.5 m0,5.7 -2.5,-3.7 m5,0 -2.5,3.7"/>
  <path d="M87,314 m-4,2.5 h7 m-3.5,0 v-5.5 m0,5.7 -2.5,-3.7 m5,0 -2.5,3.7"/>
  <path d="M151,395 m-4,2.5 h7 m-3.5,0 v-5.5 m0,5.7 -2.5,-3.7 m5,0 -2.5,3.7"/>
  <path d="M132,272 m-4,2.5 h7 m-3.5,0 v-5.5 m0,5.7 -2.5,-3.7 m5,0 -2.5,3.7"/>
  <path d="M155,42 m-4,2.5 h7 m-3.5,0 v-5.5 m0,5.7 -2.5,-3.7 m5,0 -2.5,3.7"/>
  <path d="M471,331 m-4,2.5 h7 m-3.5,0 v-5.5 m0,5.7 -2.5,-3.7 m5,0 -2.5,3.7"/>
  <path d="M60,483 m-4,2.5 h7 m-3.5,0 v-5.5 m0,5.7 -2.5,-3.7 m5,0 -2.5,3.7"/>
  <path d="M84,161 m-4,2.5 h7 m-3.5,0 v-5.5 m0,5.7 -2.5,-3.7 m5,0 -2.5,3.7"/>
  <path d="M436,92 m-4,2.5 h7 m-3.5,0 v-5.5 m0,5.7 -2.5,-3.7 m5,0 -2.5,3.7"/>
  <path d="M12,497 m-4,2.5 h7 m-3.5,0 v-5.5 m0,5.7 -2.5,-3.7 m5,0 -2.5,3.7"/>
  <path d="M428,10 m-4,2.5 h7 m-3.5,0 v-5.5 m0,5.7 -2.5,-3.7 m5,0 -2.5,3.7"/>
  <path d="M345,384 m-4,2.5 h7 m-3.5,0 v-5.5 m0,5.7 -2.5,-3.7 m5,0 -2.5,3.7"/>
  <path d="M284,374 m-4,2.5 h7 m-3.5,0 v-5.5 m0,5.7 -2.5,-3.7 m5,0 -2.5,3.7"/>
  <path d="M41,259 m-4,2.5 h7 m-3.5,0 v-5.5 m0,5.7 -2.5,-3.7 m5,0 -2.5,3.7"/>
  <path d="M399,473 m-4,2.5 h7 m-3.5,0 v-5.5 m0,5.7 -2.5,-3.7 m5,0 -2.5,3.7"/>
  <path d="M309,355 m-4,2.5 h7 m-3.5,0 v-5.5 m0,5.7 -2.5,-3.7 m5,0 -2.5,3.7"/>
  <path d="M451,400 m-4,2.5 h7 m-3.5,0 v-5.5 m0,5.7 -2.5,-3.7 m5,0 -2.5,3.7"/>
  <path d="M378,34 m-4,2.5 h7 m-3.5,0 v-5.5 m0,5.7 -2.5,-3.7 m5,0 -2.5,3.7"/>
  <path d="M421,471 m-4,2.5 h7 m-3.5,0 v-5.5 m0,5.7 -2.5,-3.7 m5,0 -2.5,3.7"/>
  <path d="M14,277 m-4,2.5 h7 m-3.5,0 v-5.5 m0,5.7 -2.5,-3.7 m5,0 -2.5,3.7"/>
  <path d="M382,307 m-4,2.5 h7 m-3.5,0 v-5.5 m0,5.7 -2.5,-3.7 m5,0 -2.5,3.7"/>
  <path d="M86,38 m-4,2.5 h7 m-3.5,0 v-5.5 m0,5.7 -2.5,-3.7 m5,0 -2.5,3.7"/>
  <path d="M280,208 m-4,2.5 h7 m-3.5,0 v-5.5 m0,5.7 -2.5,-3.7 m5,0 -2.5,3.7"/>
  <path d="M379,466 m-4,2.5 h7 m-3.5,0 v-5.5 m0,5.7 -2.5,-3.7 m5,0 -2.5,3.7"/>
  <path d="M185,108 m-4,2.5 h7 m-3.5,0 v-5.5 m0,5.7 -2.5,-3.7 m5,0 -2.5,3.7"/>
  <path d="M413,322 m-4,2.5 h7 m-3.5,0 v-5.5 m0,5.7 -2.5,-3.7 m5,0 -2.5,3.7"/>
  <path d="M115,163 m-4,2.5 h7 m-3.5,0 v-5.5 m0,5.7 -2.5,-3.7 m5,0 -2.5,3.7"/>
  <path d="M191,8 m-4,2.5 h7 m-3.5,0 v-5.5 m0,5.7 -2.5,-3.7 m5,0 -2.5,3.7"/>
  <path d="M63,132 m-4,2.5 h7 m-3.5,0 v-5.5 m0,5.7 -2.5,-3.7 m5,0 -2.5,3.7"/>
  <path d="M329,471 m-4,2.5 h7 m-3.5,0 v-5.5 m0,5.7 -2.5,-3.7 m5,0 -2.5,3.7"/>
  <path d="M94,388 m-4,2.5 h7 m-3.5,0 v-5.5 m0,5.7 -2.5,-3.7 m5,0 -2.5,3.7"/>
  <path d="M58,395 m-4,2.5 h7 m-3.5,0 v-5.5 m0,5.7 -2.5,-3.7 m5,0 -2.5,3.7"/>
  <path d="M239,178 m-4,2.5 h7 m-3.5,0 v-5.5 m0,5.7 -2.5,-3.7 m5,0 -2.5,3.7"/>
  <path d="M454,78 m-4,2.5 h7 m-3.5,0 v-5.5 m0,5.7 -2.5,-3.7 m5,0 -2.5,3.7"/>
  <path d="M31,9 m-4,2.5 h7 m-3.5,0 v-5.5 m0,5.7 -2.5,-3.7 m5,0 -2.5,3.7"/>
  <path d="M496,84 m-4,2.5 h7 m-3.5,0 v-5.5 m0,5.7 -2.5,-3.7 m5,0 -2.5,3.7"/>
  <path d="M210,138 m-4,2.5 h7 m-3.5,0 v-5.5 m0,5.7 -2.5,-3.7 m5,0 -2.5,3.7"/>
  <path d="M44,153 m-4,2.5 h7 m-3.5,0 v-5.5 m0,5.7 -2.5,-3.7 m5,0 -2.5,3.7"/>
  <path d="M38,88 m-4,2.5 h7 m-3.5,0 v-5.5 m0,5.7 -2.5,-3.7 m5,0 -2.5,3.7"/>
  <path d="M397,156 m-4,2.5 h7 m-3.5,0 v-5.5 m0,5.7 -2.5,-3.7 m5,0 -2.5,3.7"/>
  <path d="M257,470 m-4,2.5 h7 m-3.5,0 v-5.5 m0,5.7 -2.5,-3.7 m5,0 -2.5,3.7"/>
  <path d="M177,475 m-4,2.5 h7 m-3.5,0 v-5.5 m0,5.7 -2.5,-3.7 m5,0 -2.5,3.7"/>
  <path d="M452,354 m-4,2.5 h7 m-3.5,0 v-5.5 m0,5.7 -2.5,-3.7 m5,0 -2.5,3.7"/>
  <path d="M427,336 m-4,2.5 h7 m-3.5,0 v-5.5 m0,5.7 -2.5,-3.7 m5,0 -2.5,3.7"/>
  <path d="M225,263 m-4,2.5 h7 m-3.5,0 v-5.5 m0,5.7 -2.5,-3.7 m5,0 -2.5,3.7"/>
  <path d="M328,422 m-4,2.5 h7 m-3.5,0 v-5.5 m0,5.7 -2.5,-3.7 m5,0 -2.5,3.7"/>
  <path d="M303,336 m-4,2.5 h7 m-3.5,0 v-5.5 m0,5.7 -2.5,-3.7 m5,0 -2.5,3.7"/>
  <path d="M445,306 m-4,2.5 h7 m-3.5,0 v-5.5 m0,5.7 -2.5,-3.7 m5,0 -2.5,3.7"/>
  <path d="M399,139 m-4,2.5 h7 m-3.5,0 v-5.5 m0,5.7 -2.5,-3.7 m5,0 -2.5,3.7"/>
  <path d="M162,232 m-4,2.5 h7 m-3.5,0 v-5.5 m0,5.7 -2.5,-3.7 m5,0 -2.5,3.7"/>
  <path d="M185,429 m-4,2.5 h7 m-3.5,0 v-5.5 m0,5.7 -2.5,-3.7 m5,0 -2.5,3.7"/>
  <path d="M481,504 m-4,2.5 h7 m-3.5,0 v-5.5 m0,5.7 -2.5,-3.7 m5,0 -2.5,3.7"/>
  <path d="M39,180 m-4,2.5 h7 m-3.5,0 v-5.5 m0,5.7 -2.5,-3.7 m5,0 -2.5,3.7"/>
  <path d="M399,351 m-4,2.5 h7 m-3.5,0 v-5.5 m0,5.7 -2.5,-3.7 m5,0 -2.5,3.7"/>
  <path d="M500,180 m-4,2.5 h7 m-3.5,0 v-5.5 m0,5.7 -2.5,-3.7 m5,0 -2.5,3.7"/>
  <path d="M328,263 m-4,2.5 h7 m-3.5,0 v-5.5 m0,5.7 -2.5,-3.7 m5,0 -2.5,3.7"/>
  <path d="M351,181 m-4,2.5 h7 m-3.5,0 v-5.5 m0,5.7 -2.5,-3.7 m5,0 -2.5,3.7"/>
  <path d="M233,63 m-4,2.5 h7 m-3.5,0 v-5.5 m0,5.7 -2.5,-3.7 m5,0 -2.5,3.7"/>
  <path d="M84,12 m-4,2.5 h7 m-3.5,0 v-5.5 m0,5.7 -2.5,-3.7 m5,0 -2.5,3.7"/>
  <path d="M191,378 m-4,2.5 h7 m-3.5,0 v-5.5 m0,5.7 -2.5,-3.7 m5,0 -2.5,3.7"/>
  <path d="M61,284 m-4,2.5 h7 m-3.5,0 v-5.5 m0,5.7 -2.5,-3.7 m5,0 -2.5,3.7"/>
  <path d="M319,94 m-4,2.5 h7 m-3.5,0 v-5.5 m0,5.7 -2.5,-3.7 m5,0 -2.5,3.7"/>
  <path d="M211,252 m-4,2.5 h7 m-3.5,0 v-5.5 m0,5.7 -2.5,-3.7 m5,0 -2.5,3.7"/>
  <path d="M156,90 m-4,2.5 h7 m-3.5,0 v-5.5 m0,5.7 -2.5,-3.7 m5,0 -2.5,3.7"/>
  <path d="M208,471 m-4,2.5 h7 m-3.5,0 v-5.5 m0,5.7 -2.5,-3.7 m5,0 -2.5,3.7"/>
  <path d="M203,280 m-4,2.5 h7 m-3.5,0 v-5.5 m0,5.7 -2.5,-3.7 m5,0 -2.5,3.7"/>
  <path d="M275,401 m-4,2.5 h7 m-3.5,0 v-5.5 m0,5.7 -2.5,-3.7 m5,0 -2.5,3.7"/>
  <path d="M373,363 m-4,2.5 h7 m-3.5,0 v-5.5 m0,5.7 -2.5,-3.7 m5,0 -2.5,3.7"/>
  <path d="M427,234 m-4,2.5 h7 m-3.5,0 v-5.5 m0,5.7 -2.5,-3.7 m5,0 -2.5,3.7"/>
  <path d="M11,470 m-4,2.5 h7 m-3.5,0 v-5.5 m0,5.7 -2.5,-3.7 m5,0 -2.5,3.7"/>
  <path d="M116,306 m-4,2.5 h7 m-3.5,0 v-5.5 m0,5.7 -2.5,-3.7 m5,0 -2.5,3.7"/>
  <path d="M330,500 m-4,2.5 h7 m-3.5,0 v-5.5 m0,5.7 -2.5,-3.7 m5,0 -2.5,3.7"/>
  <path d="M111,284 m-4,2.5 h7 m-3.5,0 v-5.5 m0,5.7 -2.5,-3.7 m5,0 -2.5,3.7"/>
  <path d="M279,263 m-4,2.5 h7 m-3.5,0 v-5.5 m0,5.7 -2.5,-3.7 m5,0 -2.5,3.7"/>
  <path d="M133,507 m-4,2.5 h7 m-3.5,0 v-5.5 m0,5.7 -2.5,-3.7 m5,0 -2.5,3.7"/>
  <path d="M380,196 m-4,2.5 h7 m-3.5,0 v-5.5 m0,5.7 -2.5,-3.7 m5,0 -2.5,3.7"/>
  <path d="M348,254 m-4,2.5 h7 m-3.5,0 v-5.5 m0,5.7 -2.5,-3.7 m5,0 -2.5,3.7"/>
  <path d="M51,55 m-4,2.5 h7 m-3.5,0 v-5.5 m0,5.7 -2.5,-3.7 m5,0 -2.5,3.7"/>
  <path d="M396,203 m-4,2.5 h7 m-3.5,0 v-5.5 m0,5.7 -2.5,-3.7 m5,0 -2.5,3.7"/>
  <path d="M215,204 m-4,2.5 h7 m-3.5,0 v-5.5 m0,5.7 -2.5,-3.7 m5,0 -2.5,3.7"/>
  <path d="M257,153 m-4,2.5 h7 m-3.5,0 v-5.5 m0,5.7 -2.5,-3.7 m5,0 -2.5,3.7"/>
  <path d="M397,430 m-4,2.5 h7 m-3.5,0 v-5.5 m0,5.7 -2.5,-3.7 m5,0 -2.5,3.7"/>
  <path d="M458,281 m-4,2.5 h7 m-3.5,0 v-5.5 m0,5.7 -2.5,-3.7 m5,0 -2.5,3.7"/>
  <path d="M278,300 m-4,2.5 h7 m-3.5,0 v-5.5 m0,5.7 -2.5,-3.7 m5,0 -2.5,3.7"/>
  <path d="M279,432 m-4,2.5 h7 m-3.5,0 v-5.5 m0,5.7 -2.5,-3.7 m5,0 -2.5,3.7"/>
  <path d="M15,61 m-4,2.5 h7 m-3.5,0 v-5.5 m0,5.7 -2.5,-3.7 m5,0 -2.5,3.7"/>
  <path d="M233,34 m-4,2.5 h7 m-3.5,0 v-5.5 m0,5.7 -2.5,-3.7 m5,0 -2.5,3.7"/>
  <path d="M137,303 m-4,2.5 h7 m-3.5,0 v-5.5 m0,5.7 -2.5,-3.7 m5,0 -2.5,3.7"/>
  <path d="M448,428 m-4,2.5 h7 m-3.5,0 v-5.5 m0,5.7 -2.5,-3.7 m5,0 -2.5,3.7"/>
  <path d="M375,227 m-4,2.5 h7 m-3.5,0 v-5.5 m0,5.7 -2.5,-3.7 m5,0 -2.5,3.7"/>
  <path d="M163,424 m-4,2.5 h7 m-3.5,0 v-5.5 m0,5.7 -2.5,-3.7 m5,0 -2.5,3.7"/>
  <path d="M308,447 m-4,2.5 h7 m-3.5,0 v-5.5 m0,5.7 -2.5,-3.7 m5,0 -2.5,3.7"/>
  <path d="M420,255 m-4,2.5 h7 m-3.5,0 v-5.5 m0,5.7 -2.5,-3.7 m5,0 -2.5,3.7"/>
  <path d="M402,61 m-4,2.5 h7 m-3.5,0 v-5.5 m0,5.7 -2.5,-3.7 m5,0 -2.5,3.7"/>
  <path d="M452,255 m-4,2.5 h7 m-3.5,0 v-5.5 m0,5.7 -2.5,-3.7 m5,0 -2.5,3.7"/>
  <path d="M446,130 m-4,2.5 h7 m-3.5,0 v-5.5 m0,5.7 -2.5,-3.7 m5,0 -2.5,3.7"/>
  <path d="M119,114 m-4,2.5 h7 m-3.5,0 v-5.5 m0,5.7 -2.5,-3.7 m5,0 -2.5,3.7"/>
  <path d="M239,479 m-4,2.5 h7 m-3.5,0 v-5.5 m0,5.7 -2.5,-3.7 m5,0 -2.5,3.7"/>
  <path d="M406,179 m-4,2.5 h7 m-3.5,0 v-5.5 m0,5.7 -2.5,-3.7 m5,0 -2.5,3.7"/>
  <path d="M498,285 m-4,2.5 h7 m-3.5,0 v-5.5 m0,5.7 -2.5,-3.7 m5,0 -2.5,3.7"/>
  <path d="M409,78 m-4,2.5 h7 m-3.5,0 v-5.5 m0,5.7 -2.5,-3.7 m5,0 -2.5,3.7"/>
  <path d="M105,135 m-4,2.5 h7 m-3.5,0 v-5.5 m0,5.7 -2.5,-3.7 m5,0 -2.5,3.7"/>
  <path d="M109,260 m-4,2.5 h7 m-3.5,0 v-5.5 m0,5.7 -2.5,-3.7 m5,0 -2.5,3.7"/>
  <path d="M303,62 m-4,2.5 h7 m-3.5,0 v-5.5 m0,5.7 -2.5,-3.7 m5,0 -2.5,3.7"/>
  <path d="M18,179 m-4,2.5 h7 m-3.5,0 v-5.5 m0,5.7 -2.5,-3.7 m5,0 -2.5,3.7"/>
  <path d="M17,356 m-4,2.5 h7 m-3.5,0 v-5.5 m0,5.7 -2.5,-3.7 m5,0 -2.5,3.7"/>
  <path d="M302,185 m-4,2.5 h7 m-3.5,0 v-5.5 m0,5.7 -2.5,-3.7 m5,0 -2.5,3.7"/>
  <path d="M384,109 m-4,2.5 h7 m-3.5,0 v-5.5 m0,5.7 -2.5,-3.7 m5,0 -2.5,3.7"/>
  <path d="M9,422 m-4,2.5 h7 m-3.5,0 v-5.5 m0,5.7 -2.5,-3.7 m5,0 -2.5,3.7"/>
  <path d="M104,407 m-4,2.5 h7 m-3.5,0 v-5.5 m0,5.7 -2.5,-3.7 m5,0 -2.5,3.7"/>
  <path d="M379,66 m-4,2.5 h7 m-3.5,0 v-5.5 m0,5.7 -2.5,-3.7 m5,0 -2.5,3.7"/>
  <path d="M502,65 m-4,2.5 h7 m-3.5,0 v-5.5 m0,5.7 -2.5,-3.7 m5,0 -2.5,3.7"/>
  <path d="M507,369 m-4,2.5 h7 m-3.5,0 v-5.5 m0,5.7 -2.5,-3.7 m5,0 -2.5,3.7"/>
  <path d="M236,129 m-4,2.5 h7 m-3.5,0 v-5.5 m0,5.7 -2.5,-3.7 m5,0 -2.5,3.7"/>
  <path d="M311,206 m-4,2.5 h7 m-3.5,0 v-5.5 m0,5.7 -2.5,-3.7 m5,0 -2.5,3.7"/>
  <path d="M394,260 m-4,2.5 h7 m-3.5,0 v-5.5 m0,5.7 -2.5,-3.7 m5,0 -2.5,3.7"/>
  <path d="M32,304 m-4,2.5 h7 m-3.5,0 v-5.5 m0,5.7 -2.5,-3.7 m5,0 -2.5,3.7"/>
  <path d="M360,330 m-4,2.5 h7 m-3.5,0 v-5.5 m0,5.7 -2.5,-3.7 m5,0 -2.5,3.7"/>
  <path d="M155,278 m-4,2.5 h7 m-3.5,0 v-5.5 m0,5.7 -2.5,-3.7 m5,0 -2.5,3.7"/>
  <path d="M426,126 m-4,2.5 h7 m-3.5,0 v-5.5 m0,5.7 -2.5,-3.7 m5,0 -2.5,3.7"/>
  <path d="M77,399 m-4,2.5 h7 m-3.5,0 v-5.5 m0,5.7 -2.5,-3.7 m5,0 -2.5,3.7"/>
  <path d="M39,478 m-4,2.5 h7 m-3.5,0 v-5.5 m0,5.7 -2.5,-3.7 m5,0 -2.5,3.7"/>
  <path d="M187,495 m-4,2.5 h7 m-3.5,0 v-5.5 m0,5.7 -2.5,-3.7 m5,0 -2.5,3.7"/>
  <path d="M374,159 m-4,2.5 h7 m-3.5,0 v-5.5 m0,5.7 -2.5,-3.7 m5,0 -2.5,3.7"/>
  <path d="M108,14 m-4,2.5 h7 m-3.5,0 v-5.5 m0,5.7 -2.5,-3.7 m5,0 -2.5,3.7"/>
  <path d="M131,424 m-4,2.5 h7 m-3.5,0 v-5.5 m0,5.7 -2.5,-3.7 m5,0 -2.5,3.7"/>
  <path d="M253,207 m-4,2.5 h7 m-3.5,0 v-5.5 m0,5.7 -2.5,-3.7 m5,0 -2.5,3.7"/>
  <path d="M163,10 m-4,2.5 h7 m-3.5,0 v-5.5 m0,5.7 -2.5,-3.7 m5,0 -2.5,3.7"/>
  <path d="M355,479 m-4,2.5 h7 m-3.5,0 v-5.5 m0,5.7 -2.5,-3.7 m5,0 -2.5,3.7"/>
  <path d="M17,340 m-4,2.5 h7 m-3.5,0 v-5.5 m0,5.7 -2.5,-3.7 m5,0 -2.5,3.7"/>
  <path d="M200,184 m-4,2.5 h7 m-3.5,0 v-5.5 m0,5.7 -2.5,-3.7 m5,0 -2.5,3.7"/>
  <path d="M9,127 m-4,2.5 h7 m-3.5,0 v-5.5 m0,5.7 -2.5,-3.7 m5,0 -2.5,3.7"/>
  <path d="M202,348 m-4,2.5 h7 m-3.5,0 v-5.5 m0,5.7 -2.5,-3.7 m5,0 -2.5,3.7"/>
  <path d="M161,66 m-4,2.5 h7 m-3.5,0 v-5.5 m0,5.7 -2.5,-3.7 m5,0 -2.5,3.7"/>
  <path d="M476,358 m-4,2.5 h7 m-3.5,0 v-5.5 m0,5.7 -2.5,-3.7 m5,0 -2.5,3.7"/>
  <path d="M456,449 m-4,2.5 h7 m-3.5,0 v-5.5 m0,5.7 -2.5,-3.7 m5,0 -2.5,3.7"/>
  <path d="M349,136 m-4,2.5 h7 m-3.5,0 v-5.5 m0,5.7 -2.5,-3.7 m5,0 -2.5,3.7"/>
  <path d="M234,276 m-4,2.5 h7 m-3.5,0 v-5.5 m0,5.7 -2.5,-3.7 m5,0 -2.5,3.7"/>
  <path d="M200,420 m-4,2.5 h7 m-3.5,0 v-5.5 m0,5.7 -2.5,-3.7 m5,0 -2.5,3.7"/>
  <path d="M136,408 m-4,2.5 h7 m-3.5,0 v-5.5 m0,5.7 -2.5,-3.7 m5,0 -2.5,3.7"/>
  <path d="M132,136 m-4,2.5 h7 m-3.5,0 v-5.5 m0,5.7 -2.5,-3.7 m5,0 -2.5,3.7"/>
  <path d="M120,470 m-4,2.5 h7 m-3.5,0 v-5.5 m0,5.7 -2.5,-3.7 m5,0 -2.5,3.7"/>
  <path d="M251,352 m-4,2.5 h7 m-3.5,0 v-5.5 m0,5.7 -2.5,-3.7 m5,0 -2.5,3.7"/>
  <path d="M476,308 m-4,2.5 h7 m-3.5,0 v-5.5 m0,5.7 -2.5,-3.7 m5,0 -2.5,3.7"/>
  <path d="M445,236 m-4,2.5 h7 m-3.5,0 v-5.5 m0,5.7 -2.5,-3.7 m5,0 -2.5,3.7"/>
  <path d="M471,85 m-4,2.5 h7 m-3.5,0 v-5.5 m0,5.7 -2.5,-3.7 m5,0 -2.5,3.7"/>
  <path d="M86,503 m-4,2.5 h7 m-3.5,0 v-5.5 m0,5.7 -2.5,-3.7 m5,0 -2.5,3.7"/>
  <path d="M209,326 m-4,2.5 h7 m-3.5,0 v-5.5 m0,5.7 -2.5,-3.7 m5,0 -2.5,3.7"/>
  <path d="M273,479 m-4,2.5 h7 m-3.5,0 v-5.5 m0,5.7 -2.5,-3.7 m5,0 -2.5,3.7"/>
  <path d="M20,386 m-4,2.5 h7 m-3.5,0 v-5.5 m0,5.7 -2.5,-3.7 m5,0 -2.5,3.7"/>
  <path d="M185,274 m-4,2.5 h7 m-3.5,0 v-5.5 m0,5.7 -2.5,-3.7 m5,0 -2.5,3.7"/>
  <path d="M138,156 m-4,2.5 h7 m-3.5,0 v-5.5 m0,5.7 -2.5,-3.7 m5,0 -2.5,3.7"/>
  <path d="M349,20 m-4,2.5 h7 m-3.5,0 v-5.5 m0,5.7 -2.5,-3.7 m5,0 -2.5,3.7"/>
  <path d="M373,449 m-4,2.5 h7 m-3.5,0 v-5.5 m0,5.7 -2.5,-3.7 m5,0 -2.5,3.7"/>
  <path d="M158,300 m-4,2.5 h7 m-3.5,0 v-5.5 m0,5.7 -2.5,-3.7 m5,0 -2.5,3.7"/>
  <path d="M504,13 m-4,2.5 h7 m-3.5,0 v-5.5 m0,5.7 -2.5,-3.7 m5,0 -2.5,3.7"/>
  <path d="M379,8 m-4,2.5 h7 m-3.5,0 v-5.5 m0,5.7 -2.5,-3.7 m5,0 -2.5,3.7"/>
  <path d="M7,105 m-4,2.5 h7 m-3.5,0 v-5.5 m0,5.7 -2.5,-3.7 m5,0 -2.5,3.7"/>
  <path d="M351,459 m-4,2.5 h7 m-3.5,0 v-5.5 m0,5.7 -2.5,-3.7 m5,0 -2.5,3.7"/>
  <path d="M334,232 m-4,2.5 h7 m-3.5,0 v-5.5 m0,5.7 -2.5,-3.7 m5,0 -2.5,3.7"/>
  <path d="M224,12 m-4,2.5 h7 m-3.5,0 v-5.5 m0,5.7 -2.5,-3.7 m5,0 -2.5,3.7"/>
  <path d="M9,397 m-4,2.5 h7 m-3.5,0 v-5.5 m0,5.7 -2.5,-3.7 m5,0 -2.5,3.7"/>
  <path d="M109,446 m-4,2.5 h7 m-3.5,0 v-5.5 m0,5.7 -2.5,-3.7 m5,0 -2.5,3.7"/>
  <path d="M278,351 m-4,2.5 h7 m-3.5,0 v-5.5 m0,5.7 -2.5,-3.7 m5,0 -2.5,3.7"/>
  <path d="M252,280 m-4,2.5 h7 m-3.5,0 v-5.5 m0,5.7 -2.5,-3.7 m5,0 -2.5,3.7"/>
  <path d="M258,303 m-4,2.5 h7 m-3.5,0 v-5.5 m0,5.7 -2.5,-3.7 m5,0 -2.5,3.7"/>
  <path d="M380,127 m-4,2.5 h7 m-3.5,0 v-5.5 m0,5.7 -2.5,-3.7 m5,0 -2.5,3.7"/>
  <path d="M287,87 m-4,2.5 h7 m-3.5,0 v-5.5 m0,5.7 -2.5,-3.7 m5,0 -2.5,3.7"/>
  <path d="M251,501 m-4,2.5 h7 m-3.5,0 v-5.5 m0,5.7 -2.5,-3.7 m5,0 -2.5,3.7"/>
  <path d="M185,306 m-4,2.5 h7 m-3.5,0 v-5.5 m0,5.7 -2.5,-3.7 m5,0 -2.5,3.7"/>
  <path d="M163,504 m-4,2.5 h7 m-3.5,0 v-5.5 m0,5.7 -2.5,-3.7 m5,0 -2.5,3.7"/>
  <path d="M116,328 m-4,2.5 h7 m-3.5,0 v-5.5 m0,5.7 -2.5,-3.7 m5,0 -2.5,3.7"/>
  <path d="M281,139 m-4,2.5 h7 m-3.5,0 v-5.5 m0,5.7 -2.5,-3.7 m5,0 -2.5,3.7"/>
  <path d="M314,235 m-4,2.5 h7 m-3.5,0 v-5.5 m0,5.7 -2.5,-3.7 m5,0 -2.5,3.7"/>
  <path d="M68,189 m-4,2.5 h7 m-3.5,0 v-5.5 m0,5.7 -2.5,-3.7 m5,0 -2.5,3.7"/>
  <path d="M309,80 m-4,2.5 h7 m-3.5,0 v-5.5 m0,5.7 -2.5,-3.7 m5,0 -2.5,3.7"/>
  <path d="M109,497 m-4,2.5 h7 m-3.5,0 v-5.5 m0,5.7 -2.5,-3.7 m5,0 -2.5,3.7"/>
  <path d="M300,495 m-4,2.5 h7 m-3.5,0 v-5.5 m0,5.7 -2.5,-3.7 m5,0 -2.5,3.7"/>
  <path d="M59,300 m-4,2.5 h7 m-3.5,0 v-5.5 m0,5.7 -2.5,-3.7 m5,0 -2.5,3.7"/>
  <path d="M310,303 m-4,2.5 h7 m-3.5,0 v-5.5 m0,5.7 -2.5,-3.7 m5,0 -2.5,3.7"/>
  <path d="M298,252 m-4,2.5 h7 m-3.5,0 v-5.5 m0,5.7 -2.5,-3.7 m5,0 -2.5,3.7"/>
  <path d="M363,60 m-4,2.5 h7 m-3.5,0 v-5.5 m0,5.7 -2.5,-3.7 m5,0 -2.5,3.7"/>
  <path d="M451,379 m-4,2.5 h7 m-3.5,0 v-5.5 m0,5.7 -2.5,-3.7 m5,0 -2.5,3.7"/>
  <path d="M103,428 m-4,2.5 h7 m-3.5,0 v-5.5 m0,5.7 -2.5,-3.7 m5,0 -2.5,3.7"/>
  <path d="M253,175 m-4,2.5 h7 m-3.5,0 v-5.5 m0,5.7 -2.5,-3.7 m5,0 -2.5,3.7"/>
  <path d="M263,375 m-4,2.5 h7 m-3.5,0 v-5.5 m0,5.7 -2.5,-3.7 m5,0 -2.5,3.7"/>
  <path d="M425,105 m-4,2.5 h7 m-3.5,0 v-5.5 m0,5.7 -2.5,-3.7 m5,0 -2.5,3.7"/>
  <path d="M405,444 m-4,2.5 h7 m-3.5,0 v-5.5 m0,5.7 -2.5,-3.7 m5,0 -2.5,3.7"/>
  <path d="M153,474 m-4,2.5 h7 m-3.5,0 v-5.5 m0,5.7 -2.5,-3.7 m5,0 -2.5,3.7"/>
  <path d="M507,302 m-4,2.5 h7 m-3.5,0 v-5.5 m0,5.7 -2.5,-3.7 m5,0 -2.5,3.7"/>
  <path d="M368,395 m-4,2.5 h7 m-3.5,0 v-5.5 m0,5.7 -2.5,-3.7 m5,0 -2.5,3.7"/>
  <path d="M10,444 m-4,2.5 h7 m-3.5,0 v-5.5 m0,5.7 -2.5,-3.7 m5,0 -2.5,3.7"/>
  <path d="M305,283 m-4,2.5 h7 m-3.5,0 v-5.5 m0,5.7 -2.5,-3.7 m5,0 -2.5,3.7"/>
  <path d="M179,179 m-4,2.5 h7 m-3.5,0 v-5.5 m0,5.7 -2.5,-3.7 m5,0 -2.5,3.7"/>
  <path d="M498,133 m-4,2.5 h7 m-3.5,0 v-5.5 m0,5.7 -2.5,-3.7 m5,0 -2.5,3.7"/>
  <path d="M31,130 m-4,2.5 h7 m-3.5,0 v-5.5 m0,5.7 -2.5,-3.7 m5,0 -2.5,3.7"/>
  <path d="M106,42 m-4,2.5 h7 m-3.5,0 v-5.5 m0,5.7 -2.5,-3.7 m5,0 -2.5,3.7"/>
  <path d="M253,450 m-4,2.5 h7 m-3.5,0 v-5.5 m0,5.7 -2.5,-3.7 m5,0 -2.5,3.7"/>
  <path d="M90,106 m-4,2.5 h7 m-3.5,0 v-5.5 m0,5.7 -2.5,-3.7 m5,0 -2.5,3.7"/>
  <path d="M111,186 m-4,2.5 h7 m-3.5,0 v-5.5 m0,5.7 -2.5,-3.7 m5,0 -2.5,3.7"/>
  <path d="M301,165 m-4,2.5 h7 m-3.5,0 v-5.5 m0,5.7 -2.5,-3.7 m5,0 -2.5,3.7"/>
  <path d="M381,418 m-4,2.5 h7 m-3.5,0 v-5.5 m0,5.7 -2.5,-3.7 m5,0 -2.5,3.7"/>
  <path d="M255,20 m-4,2.5 h7 m-3.5,0 v-5.5 m0,5.7 -2.5,-3.7 m5,0 -2.5,3.7"/>
  <path d="M5,207 m-4,2.5 h7 m-3.5,0 v-5.5 m0,5.7 -2.5,-3.7 m5,0 -2.5,3.7"/>
  <path d="M209,373 m-4,2.5 h7 m-3.5,0 v-5.5 m0,5.7 -2.5,-3.7 m5,0 -2.5,3.7"/>
  <path d="M210,41 m-4,2.5 h7 m-3.5,0 v-5.5 m0,5.7 -2.5,-3.7 m5,0 -2.5,3.7"/>
  <path d="M350,412 m-4,2.5 h7 m-3.5,0 v-5.5 m0,5.7 -2.5,-3.7 m5,0 -2.5,3.7"/>
  <path d="M155,158 m-4,2.5 h7 m-3.5,0 v-5.5 m0,5.7 -2.5,-3.7 m5,0 -2.5,3.7"/>
  <path d="M60,210 m-4,2.5 h7 m-3.5,0 v-5.5 m0,5.7 -2.5,-3.7 m5,0 -2.5,3.7"/>
  <path d="M327,108 m-4,2.5 h7 m-3.5,0 v-5.5 m0,5.7 -2.5,-3.7 m5,0 -2.5,3.7"/>
  <path d="M107,94 m-4,2.5 h7 m-3.5,0 v-5.5 m0,5.7 -2.5,-3.7 m5,0 -2.5,3.7"/>
  <path d="M263,40 m-4,2.5 h7 m-3.5,0 v-5.5 m0,5.7 -2.5,-3.7 m5,0 -2.5,3.7"/>
  <path d="M232,199 m-4,2.5 h7 m-3.5,0 v-5.5 m0,5.7 -2.5,-3.7 m5,0 -2.5,3.7"/>
  <path d="M307,133 m-4,2.5 h7 m-3.5,0 v-5.5 m0,5.7 -2.5,-3.7 m5,0 -2.5,3.7"/>
  <path d="M379,332 m-4,2.5 h7 m-3.5,0 v-5.5 m0,5.7 -2.5,-3.7 m5,0 -2.5,3.7"/>
  <path d="M249,423 m-4,2.5 h7 m-3.5,0 v-5.5 m0,5.7 -2.5,-3.7 m5,0 -2.5,3.7"/>
  <path d="M425,497 m-4,2.5 h7 m-3.5,0 v-5.5 m0,5.7 -2.5,-3.7 m5,0 -2.5,3.7"/>
  <path d="M212,496 m-4,2.5 h7 m-3.5,0 v-5.5 m0,5.7 -2.5,-3.7 m5,0 -2.5,3.7"/>
  <path d="M429,295 m-4,2.5 h7 m-3.5,0 v-5.5 m0,5.7 -2.5,-3.7 m5,0 -2.5,3.7"/>
  <path d="M355,208 m-4,2.5 h7 m-3.5,0 v-5.5 m0,5.7 -2.5,-3.7 m5,0 -2.5,3.7"/>
  <path d="M312,375 m-4,2.5 h7 m-3.5,0 v-5.5 m0,5.7 -2.5,-3.7 m5,0 -2.5,3.7"/>
  <path d="M500,421 m-4,2.5 h7 m-3.5,0 v-5.5 m0,5.7 -2.5,-3.7 m5,0 -2.5,3.7"/>
  <path d="M442,191 m-4,2.5 h7 m-3.5,0 v-5.5 m0,5.7 -2.5,-3.7 m5,0 -2.5,3.7"/>
  <path d="M502,327 m-4,2.5 h7 m-3.5,0 v-5.5 m0,5.7 -2.5,-3.7 m5,0 -2.5,3.7"/>
  <path d="M498,348 m-4,2.5 h7 m-3.5,0 v-5.5 m0,5.7 -2.5,-3.7 m5,0 -2.5,3.7"/>
  <path d="M475,445 m-4,2.5 h7 m-3.5,0 v-5.5 m0,5.7 -2.5,-3.7 m5,0 -2.5,3.7"/>
  <path d="M504,154 m-4,2.5 h7 m-3.5,0 v-5.5 m0,5.7 -2.5,-3.7 m5,0 -2.5,3.7"/>
  <path d="M407,284 m-4,2.5 h7 m-3.5,0 v-5.5 m0,5.7 -2.5,-3.7 m5,0 -2.5,3.7"/>
  <path d="M405,107 m-4,2.5 h7 m-3.5,0 v-5.5 m0,5.7 -2.5,-3.7 m5,0 -2.5,3.7"/>
  <path d="M57,453 m-4,2.5 h7 m-3.5,0 v-5.5 m0,5.7 -2.5,-3.7 m5,0 -2.5,3.7"/>
  <path d="M280,501 m-4,2.5 h7 m-3.5,0 v-5.5 m0,5.7 -2.5,-3.7 m5,0 -2.5,3.7"/>
  <path d="M104,216 m-4,2.5 h7 m-3.5,0 v-5.5 m0,5.7 -2.5,-3.7 m5,0 -2.5,3.7"/>
  <path d="M131,233 m-4,2.5 h7 m-3.5,0 v-5.5 m0,5.7 -2.5,-3.7 m5,0 -2.5,3.7"/>
  <path d="M403,29 m-4,2.5 h7 m-3.5,0 v-5.5 m0,5.7 -2.5,-3.7 m5,0 -2.5,3.7"/>
  <path d="M328,329 m-4,2.5 h7 m-3.5,0 v-5.5 m0,5.7 -2.5,-3.7 m5,0 -2.5,3.7"/>
  <path d="M477,286 m-4,2.5 h7 m-3.5,0 v-5.5 m0,5.7 -2.5,-3.7 m5,0 -2.5,3.7"/>
  <path d="M111,234 m-4,2.5 h7 m-3.5,0 v-5.5 m0,5.7 -2.5,-3.7 m5,0 -2.5,3.7"/>
  <path d="M34,228 m-4,2.5 h7 m-3.5,0 v-5.5 m0,5.7 -2.5,-3.7 m5,0 -2.5,3.7"/>
  <path d="M466,44 m-4,2.5 h7 m-3.5,0 v-5.5 m0,5.7 -2.5,-3.7 m5,0 -2.5,3.7"/>
  <path d="M497,209 m-4,2.5 h7 m-3.5,0 v-5.5 m0,5.7 -2.5,-3.7 m5,0 -2.5,3.7"/>
  <path d="M503,235 m-4,2.5 h7 m-3.5,0 v-5.5 m0,5.7 -2.5,-3.7 m5,0 -2.5,3.7"/>
  <path d="M142,119 m-4,2.5 h7 m-3.5,0 v-5.5 m0,5.7 -2.5,-3.7 m5,0 -2.5,3.7"/>
  <path d="M13,156 m-4,2.5 h7 m-3.5,0 v-5.5 m0,5.7 -2.5,-3.7 m5,0 -2.5,3.7"/>
  <path d="M162,107 m-4,2.5 h7 m-3.5,0 v-5.5 m0,5.7 -2.5,-3.7 m5,0 -2.5,3.7"/>
  <path d="M429,423 m-4,2.5 h7 m-3.5,0 v-5.5 m0,5.7 -2.5,-3.7 m5,0 -2.5,3.7"/>
  <path d="M89,288 m-4,2.5 h7 m-3.5,0 v-5.5 m0,5.7 -2.5,-3.7 m5,0 -2.5,3.7"/>
  <path d="M284,283 m-4,2.5 h7 m-3.5,0 v-5.5 m0,5.7 -2.5,-3.7 m5,0 -2.5,3.7"/>
  <path d="M360,233 m-4,2.5 h7 m-3.5,0 v-5.5 m0,5.7 -2.5,-3.7 m5,0 -2.5,3.7"/>
  <path d="M140,14 m-4,2.5 h7 m-3.5,0 v-5.5 m0,5.7 -2.5,-3.7 m5,0 -2.5,3.7"/>
  <path d="M397,493 m-4,2.5 h7 m-3.5,0 v-5.5 m0,5.7 -2.5,-3.7 m5,0 -2.5,3.7"/>
  <path d="M184,58 m-4,2.5 h7 m-3.5,0 v-5.5 m0,5.7 -2.5,-3.7 m5,0 -2.5,3.7"/>
  <path d="M297,117 m-4,2.5 h7 m-3.5,0 v-5.5 m0,5.7 -2.5,-3.7 m5,0 -2.5,3.7"/>
  <path d="M399,404 m-4,2.5 h7 m-3.5,0 v-5.5 m0,5.7 -2.5,-3.7 m5,0 -2.5,3.7"/>
  <path d="M80,431 m-4,2.5 h7 m-3.5,0 v-5.5 m0,5.7 -2.5,-3.7 m5,0 -2.5,3.7"/>
  <path d="M58,326 m-4,2.5 h7 m-3.5,0 v-5.5 m0,5.7 -2.5,-3.7 m5,0 -2.5,3.7"/>
  <path d="M29,326 m-4,2.5 h7 m-3.5,0 v-5.5 m0,5.7 -2.5,-3.7 m5,0 -2.5,3.7"/>
  <path d="M210,403 m-4,2.5 h7 m-3.5,0 v-5.5 m0,5.7 -2.5,-3.7 m5,0 -2.5,3.7"/>
  <path d="M38,113 m-4,2.5 h7 m-3.5,0 v-5.5 m0,5.7 -2.5,-3.7 m5,0 -2.5,3.7"/>
  <path d="M164,132 m-4,2.5 h7 m-3.5,0 v-5.5 m0,5.7 -2.5,-3.7 m5,0 -2.5,3.7"/>
  <path d="M402,312 m-4,2.5 h7 m-3.5,0 v-5.5 m0,5.7 -2.5,-3.7 m5,0 -2.5,3.7"/>
  <path d="M15,235 m-4,2.5 h7 m-3.5,0 v-5.5 m0,5.7 -2.5,-3.7 m5,0 -2.5,3.7"/>
  <path d="M476,140 m-4,2.5 h7 m-3.5,0 v-5.5 m0,5.7 -2.5,-3.7 m5,0 -2.5,3.7"/>
  <path d="M472,406 m-4,2.5 h7 m-3.5,0 v-5.5 m0,5.7 -2.5,-3.7 m5,0 -2.5,3.7"/>
  <path d="M232,353 m-4,2.5 h7 m-3.5,0 v-5.5 m0,5.7 -2.5,-3.7 m5,0 -2.5,3.7"/>
  <path d="M380,288 m-4,2.5 h7 m-3.5,0 v-5.5 m0,5.7 -2.5,-3.7 m5,0 -2.5,3.7"/>
  <path d="M296,424 m-4,2.5 h7 m-3.5,0 v-5.5 m0,5.7 -2.5,-3.7 m5,0 -2.5,3.7"/>
  <path d="M79,236 m-4,2.5 h7 m-3.5,0 v-5.5 m0,5.7 -2.5,-3.7 m5,0 -2.5,3.7"/>
  <path d="M157,445 m-4,2.5 h7 m-3.5,0 v-5.5 m0,5.7 -2.5,-3.7 m5,0 -2.5,3.7"/>
  <path d="M370,497 m-4,2.5 h7 m-3.5,0 v-5.5 m0,5.7 -2.5,-3.7 m5,0 -2.5,3.7"/>
  <path d="M335,441 m-4,2.5 h7 m-3.5,0 v-5.5 m0,5.7 -2.5,-3.7 m5,0 -2.5,3.7"/>
  <path d="M456,502 m-4,2.5 h7 m-3.5,0 v-5.5 m0,5.7 -2.5,-3.7 m5,0 -2.5,3.7"/>
  <path d="M358,151 m-4,2.5 h7 m-3.5,0 v-5.5 m0,5.7 -2.5,-3.7 m5,0 -2.5,3.7"/>
  <path d="M353,110 m-4,2.5 h7 m-3.5,0 v-5.5 m0,5.7 -2.5,-3.7 m5,0 -2.5,3.7"/>
  <path d="M477,380 m-4,2.5 h7 m-3.5,0 v-5.5 m0,5.7 -2.5,-3.7 m5,0 -2.5,3.7"/>
  <path d="M186,210 m-4,2.5 h7 m-3.5,0 v-5.5 m0,5.7 -2.5,-3.7 m5,0 -2.5,3.7"/>
  <path d="M87,339 m-4,2.5 h7 m-3.5,0 v-5.5 m0,5.7 -2.5,-3.7 m5,0 -2.5,3.7"/>
  <path d="M477,254 m-4,2.5 h7 m-3.5,0 v-5.5 m0,5.7 -2.5,-3.7 m5,0 -2.5,3.7"/>
  <path d="M128,207 m-4,2.5 h7 m-3.5,0 v-5.5 m0,5.7 -2.5,-3.7 m5,0 -2.5,3.7"/>
  <path d="M138,484 m-4,2.5 h7 m-3.5,0 v-5.5 m0,5.7 -2.5,-3.7 m5,0 -2.5,3.7"/>
  <path d="M428,181 m-4,2.5 h7 m-3.5,0 v-5.5 m0,5.7 -2.5,-3.7 m5,0 -2.5,3.7"/>
  <path d="M255,61 m-4,2.5 h7 m-3.5,0 v-5.5 m0,5.7 -2.5,-3.7 m5,0 -2.5,3.7"/>
  <path d="M100,375 m-4,2.5 h7 m-3.5,0 v-5.5 m0,5.7 -2.5,-3.7 m5,0 -2.5,3.7"/>
  <path d="M421,408 m-4,2.5 h7 m-3.5,0 v-5.5 m0,5.7 -2.5,-3.7 m5,0 -2.5,3.7"/>
  <path d="M109,72 m-4,2.5 h7 m-3.5,0 v-5.5 m0,5.7 -2.5,-3.7 m5,0 -2.5,3.7"/>
  <path d="M305,478 m-4,2.5 h7 m-3.5,0 v-5.5 m0,5.7 -2.5,-3.7 m5,0 -2.5,3.7"/>
  <path d="M320,17 m-4,2.5 h7 m-3.5,0 v-5.5 m0,5.7 -2.5,-3.7 m5,0 -2.5,3.7"/>
  <path d="M85,357 m-4,2.5 h7 m-3.5,0 v-5.5 m0,5.7 -2.5,-3.7 m5,0 -2.5,3.7"/>
  <path d="M477,202 m-4,2.5 h7 m-3.5,0 v-5.5 m0,5.7 -2.5,-3.7 m5,0 -2.5,3.7"/>
  <path d="M449,5 m-4,2.5 h7 m-3.5,0 v-5.5 m0,5.7 -2.5,-3.7 m5,0 -2.5,3.7"/>
  <path d="M375,179 m-4,2.5 h7 m-3.5,0 v-5.5 m0,5.7 -2.5,-3.7 m5,0 -2.5,3.7"/>
  <path d="M231,377 m-4,2.5 h7 m-3.5,0 v-5.5 m0,5.7 -2.5,-3.7 m5,0 -2.5,3.7"/>
  <path d="M306,8 m-4,2.5 h7 m-3.5,0 v-5.5 m0,5.7 -2.5,-3.7 m5,0 -2.5,3.7"/>
  <path d="M211,449 m-4,2.5 h7 m-3.5,0 v-5.5 m0,5.7 -2.5,-3.7 m5,0 -2.5,3.7"/>
  <path d="M239,392 m-4,2.5 h7 m-3.5,0 v-5.5 m0,5.7 -2.5,-3.7 m5,0 -2.5,3.7"/>
  <path d="M496,454 m-4,2.5 h7 m-3.5,0 v-5.5 m0,5.7 -2.5,-3.7 m5,0 -2.5,3.7"/>
  <path d="M139,446 m-4,2.5 h7 m-3.5,0 v-5.5 m0,5.7 -2.5,-3.7 m5,0 -2.5,3.7"/>
  <path d="M329,135 m-4,2.5 h7 m-3.5,0 v-5.5 m0,5.7 -2.5,-3.7 m5,0 -2.5,3.7"/>
  <path d="M285,321 m-4,2.5 h7 m-3.5,0 v-5.5 m0,5.7 -2.5,-3.7 m5,0 -2.5,3.7"/>
  <path d="M28,32 m-4,2.5 h7 m-3.5,0 v-5.5 m0,5.7 -2.5,-3.7 m5,0 -2.5,3.7"/>
  <path d="M322,311 m-4,2.5 h7 m-3.5,0 v-5.5 m0,5.7 -2.5,-3.7 m5,0 -2.5,3.7"/>
  <path d="M424,383 m-4,2.5 h7 m-3.5,0 v-5.5 m0,5.7 -2.5,-3.7 m5,0 -2.5,3.7"/>
  <path d="M228,329 m-4,2.5 h7 m-3.5,0 v-5.5 m0,5.7 -2.5,-3.7 m5,0 -2.5,3.7"/>
  <path d="M15,90 m-4,2.5 h7 m-3.5,0 v-5.5 m0,5.7 -2.5,-3.7 m5,0 -2.5,3.7"/>
  <path d="M34,64 m-4,2.5 h7 m-3.5,0 v-5.5 m0,5.7 -2.5,-3.7 m5,0 -2.5,3.7"/>
  <path d="M335,66 m-4,2.5 h7 m-3.5,0 v-5.5 m0,5.7 -2.5,-3.7 m5,0 -2.5,3.7"/>
  <path d="M190,247 m-4,2.5 h7 m-3.5,0 v-5.5 m0,5.7 -2.5,-3.7 m5,0 -2.5,3.7"/>
  <path d="M130,60 m-4,2.5 h7 m-3.5,0 v-5.5 m0,5.7 -2.5,-3.7 m5,0 -2.5,3.7"/>
  <path d="M360,358 m-4,2.5 h7 m-3.5,0 v-5.5 m0,5.7 -2.5,-3.7 m5,0 -2.5,3.7"/>
  <path d="M79,457 m-4,2.5 h7 m-3.5,0 v-5.5 m0,5.7 -2.5,-3.7 m5,0 -2.5,3.7"/>
  <path d="M3,35 m-4,2.5 h7 m-3.5,0 v-5.5 m0,5.7 -2.5,-3.7 m5,0 -2.5,3.7"/>
  <path d="M502,493 m-4,2.5 h7 m-3.5,0 v-5.5 m0,5.7 -2.5,-3.7 m5,0 -2.5,3.7"/>
  <path d="M417,211 m-4,2.5 h7 m-3.5,0 v-5.5 m0,5.7 -2.5,-3.7 m5,0 -2.5,3.7"/>
  <path d="M402,377 m-4,2.5 h7 m-3.5,0 v-5.5 m0,5.7 -2.5,-3.7 m5,0 -2.5,3.7"/>
  <path d="M473,231 m-4,2.5 h7 m-3.5,0 v-5.5 m0,5.7 -2.5,-3.7 m5,0 -2.5,3.7"/>
  <path d="M256,255 m-4,2.5 h7 m-3.5,0 v-5.5 m0,5.7 -2.5,-3.7 m5,0 -2.5,3.7"/>
  <path d="M232,450 m-4,2.5 h7 m-3.5,0 v-5.5 m0,5.7 -2.5,-3.7 m5,0 -2.5,3.7"/>
  <path d="M15,308 m-4,2.5 h7 m-3.5,0 v-5.5 m0,5.7 -2.5,-3.7 m5,0 -2.5,3.7"/>
  <path d="M59,164 m-4,2.5 h7 m-3.5,0 v-5.5 m0,5.7 -2.5,-3.7 m5,0 -2.5,3.7"/>
  <path d="M114,357 m-4,2.5 h7 m-3.5,0 v-5.5 m0,5.7 -2.5,-3.7 m5,0 -2.5,3.7"/>
  <path d="M470,108 m-4,2.5 h7 m-3.5,0 v-5.5 m0,5.7 -2.5,-3.7 m5,0 -2.5,3.7"/>
  <path d="M80,57 m-4,2.5 h7 m-3.5,0 v-5.5 m0,5.7 -2.5,-3.7 m5,0 -2.5,3.7"/>
  <path d="M229,423 m-4,2.5 h7 m-3.5,0 v-5.5 m0,5.7 -2.5,-3.7 m5,0 -2.5,3.7"/>
  <path d="M426,153 m-4,2.5 h7 m-3.5,0 v-5.5 m0,5.7 -2.5,-3.7 m5,0 -2.5,3.7"/>
  <path d="M212,170 m-4,2.5 h7 m-3.5,0 v-5.5 m0,5.7 -2.5,-3.7 m5,0 -2.5,3.7"/>
  <path d="M80,83 m-4,2.5 h7 m-3.5,0 v-5.5 m0,5.7 -2.5,-3.7 m5,0 -2.5,3.7"/>
  <path d="M157,328 m-4,2.5 h7 m-3.5,0 v-5.5 m0,5.7 -2.5,-3.7 m5,0 -2.5,3.7"/>
  <path d="M179,398 m-4,2.5 h7 m-3.5,0 v-5.5 m0,5.7 -2.5,-3.7 m5,0 -2.5,3.7"/>
  <path d="M186,140 m-4,2.5 h7 m-3.5,0 v-5.5 m0,5.7 -2.5,-3.7 m5,0 -2.5,3.7"/>
  <path d="M287,34 m-4,2.5 h7 m-3.5,0 v-5.5 m0,5.7 -2.5,-3.7 m5,0 -2.5,3.7"/>
  <path d="M60,356 m-4,2.5 h7 m-3.5,0 v-5.5 m0,5.7 -2.5,-3.7 m5,0 -2.5,3.7"/>
  <path d="M379,88 m-4,2.5 h7 m-3.5,0 v-5.5 m0,5.7 -2.5,-3.7 m5,0 -2.5,3.7"/>
  <path d="M256,133 m-4,2.5 h7 m-3.5,0 v-5.5 m0,5.7 -2.5,-3.7 m5,0 -2.5,3.7"/>
  <path d="M333,281 m-4,2.5 h7 m-3.5,0 v-5.5 m0,5.7 -2.5,-3.7 m5,0 -2.5,3.7"/>
  <path d="M477,167 m-4,2.5 h7 m-3.5,0 v-5.5 m0,5.7 -2.5,-3.7 m5,0 -2.5,3.7"/>
  <path d="M233,305 m-4,2.5 h7 m-3.5,0 v-5.5 m0,5.7 -2.5,-3.7 m5,0 -2.5,3.7"/>
  <path d="M86,189 m-4,2.5 h7 m-3.5,0 v-5.5 m0,5.7 -2.5,-3.7 m5,0 -2.5,3.7"/>
  <path d="M452,480 m-4,2.5 h7 m-3.5,0 v-5.5 m0,5.7 -2.5,-3.7 m5,0 -2.5,3.7"/>
  <path d="M62,428 m-4,2.5 h7 m-3.5,0 v-5.5 m0,5.7 -2.5,-3.7 m5,0 -2.5,3.7"/>
  <path d="M423,54 m-4,2.5 h7 m-3.5,0 v-5.5 m0,5.7 -2.5,-3.7 m5,0 -2.5,3.7"/>
  <path d="M350,306 m-4,2.5 h7 m-3.5,0 v-5.5 m0,5.7 -2.5,-3.7 m5,0 -2.5,3.7"/>
  <path d="M181,322 m-4,2.5 h7 m-3.5,0 v-5.5 m0,5.7 -2.5,-3.7 m5,0 -2.5,3.7"/>
  <path d="M33,384 m-4,2.5 h7 m-3.5,0 v-5.5 m0,5.7 -2.5,-3.7 m5,0 -2.5,3.7"/>
  <path d="M90,475 m-4,2.5 h7 m-3.5,0 v-5.5 m0,5.7 -2.5,-3.7 m5,0 -2.5,3.7"/>
  <path d="M432,455 m-4,2.5 h7 m-3.5,0 v-5.5 m0,5.7 -2.5,-3.7 m5,0 -2.5,3.7"/>
  <path d="M443,66 m-4,2.5 h7 m-3.5,0 v-5.5 m0,5.7 -2.5,-3.7 m5,0 -2.5,3.7"/>
  <path d="M135,30 m-4,2.5 h7 m-3.5,0 v-5.5 m0,5.7 -2.5,-3.7 m5,0 -2.5,3.7"/>
  <path d="M55,16 m-4,2.5 h7 m-3.5,0 v-5.5 m0,5.7 -2.5,-3.7 m5,0 -2.5,3.7"/>
  <path d="M456,115 m-4,2.5 h7 m-3.5,0 v-5.5 m0,5.7 -2.5,-3.7 m5,0 -2.5,3.7"/>
  <path d="M60,33 m-4,2.5 h7 m-3.5,0 v-5.5 m0,5.7 -2.5,-3.7 m5,0 -2.5,3.7"/>
  <path d="M32,207 m-4,2.5 h7 m-3.5,0 v-5.5 m0,5.7 -2.5,-3.7 m5,0 -2.5,3.7"/>
  <path d="M59,503 m-4,2.5 h7 m-3.5,0 v-5.5 m0,5.7 -2.5,-3.7 m5,0 -2.5,3.7"/>
  <path d="M501,395 m-4,2.5 h7 m-3.5,0 v-5.5 m0,5.7 -2.5,-3.7 m5,0 -2.5,3.7"/>
  <path d="M358,285 m-4,2.5 h7 m-3.5,0 v-5.5 m0,5.7 -2.5,-3.7 m5,0 -2.5,3.7"/>
  <path d="M282,230 m-4,2.5 h7 m-3.5,0 v-5.5 m0,5.7 -2.5,-3.7 m5,0 -2.5,3.7"/>
  <path d="M305,45 m-4,2.5 h7 m-3.5,0 v-5.5 m0,5.7 -2.5,-3.7 m5,0 -2.5,3.7"/>
  <path d="M237,94 m-4,2.5 h7 m-3.5,0 v-5.5 m0,5.7 -2.5,-3.7 m5,0 -2.5,3.7"/>
  <path d="M301,399 m-4,2.5 h7 m-3.5,0 v-5.5 m0,5.7 -2.5,-3.7 m5,0 -2.5,3.7"/>
  <path d="M231,112 m-4,2.5 h7 m-3.5,0 v-5.5 m0,5.7 -2.5,-3.7 m5,0 -2.5,3.7"/>
  <path d="M32,278 m-4,2.5 h7 m-3.5,0 v-5.5 m0,5.7 -2.5,-3.7 m5,0 -2.5,3.7"/>
  <path d="M87,217 m-4,2.5 h7 m-3.5,0 v-5.5 m0,5.7 -2.5,-3.7 m5,0 -2.5,3.7"/>
  <path d="M63,83 m-4,2.5 h7 m-3.5,0 v-5.5 m0,5.7 -2.5,-3.7 m5,0 -2.5,3.7"/>
  <path d="M58,374 m-4,2.5 h7 m-3.5,0 v-5.5 m0,5.7 -2.5,-3.7 m5,0 -2.5,3.7"/>
  <path d="M498,41 m-4,2.5 h7 m-3.5,0 v-5.5 m0,5.7 -2.5,-3.7 m5,0 -2.5,3.7"/>
  <path d="M346,40 m-4,2.5 h7 m-3.5,0 v-5.5 m0,5.7 -2.5,-3.7 m5,0 -2.5,3.7"/>
  <path d="M58,235 m-4,2.5 h7 m-3.5,0 v-5.5 m0,5.7 -2.5,-3.7 m5,0 -2.5,3.7"/>
  <path d="M327,159 m-4,2.5 h7 m-3.5,0 v-5.5 m0,5.7 -2.5,-3.7 m5,0 -2.5,3.7"/>
  <path d="M494,472 m-4,2.5 h7 m-3.5,0 v-5.5 m0,5.7 -2.5,-3.7 m5,0 -2.5,3.7"/>
  <path d="M164,188 m-4,2.5 h7 m-3.5,0 v-5.5 m0,5.7 -2.5,-3.7 m5,0 -2.5,3.7"/>
  <path d="M430,271 m-4,2.5 h7 m-3.5,0 v-5.5 m0,5.7 -2.5,-3.7 m5,0 -2.5,3.7"/>
  <path d="M204,116 m-4,2.5 h7 m-3.5,0 v-5.5 m0,5.7 -2.5,-3.7 m5,0 -2.5,3.7"/>
  <path d="M263,112 m-4,2.5 h7 m-3.5,0 v-5.5 m0,5.7 -2.5,-3.7 m5,0 -2.5,3.7"/>
  <path d="M183,349 m-4,2.5 h7 m-3.5,0 v-5.5 m0,5.7 -2.5,-3.7 m5,0 -2.5,3.7"/>
  <path d="M285,454 m-4,2.5 h7 m-3.5,0 v-5.5 m0,5.7 -2.5,-3.7 m5,0 -2.5,3.7"/>
  <path d="M322,36 m-4,2.5 h7 m-3.5,0 v-5.5 m0,5.7 -2.5,-3.7 m5,0 -2.5,3.7"/>
  <path d="M140,250 m-4,2.5 h7 m-3.5,0 v-5.5 m0,5.7 -2.5,-3.7 m5,0 -2.5,3.7"/>
  <path d="M33,503 m-4,2.5 h7 m-3.5,0 v-5.5 m0,5.7 -2.5,-3.7 m5,0 -2.5,3.7"/>
  <path d="M331,379 m-4,2.5 h7 m-3.5,0 v-5.5 m0,5.7 -2.5,-3.7 m5,0 -2.5,3.7"/>
  <path d="M474,476 m-4,2.5 h7 m-3.5,0 v-5.5 m0,5.7 -2.5,-3.7 m5,0 -2.5,3.7"/>
  <path d="M264,236 m-4,2.5 h7 m-3.5,0 v-5.5 m0,5.7 -2.5,-3.7 m5,0 -2.5,3.7"/>
  <path d="M336,348 m-4,2.5 h7 m-3.5,0 v-5.5 m0,5.7 -2.5,-3.7 m5,0 -2.5,3.7"/>
  <path d="M263,407 m-4,2.5 h7 m-3.5,0 v-5.5 m0,5.7 -2.5,-3.7 m5,0 -2.5,3.7"/>
  <path d="M425,358 m-4,2.5 h7 m-3.5,0 v-5.5 m0,5.7 -2.5,-3.7 m5,0 -2.5,3.7"/>
  <path d="M209,85 m-4,2.5 h7 m-3.5,0 v-5.5 m0,5.7 -2.5,-3.7 m5,0 -2.5,3.7"/>
  <path d="M386,384 m-4,2.5 h7 m-3.5,0 v-5.5 m0,5.7 -2.5,-3.7 m5,0 -2.5,3.7"/>
  <path d="M449,35 m-4,2.5 h7 m-3.5,0 v-5.5 m0,5.7 -2.5,-3.7 m5,0 -2.5,3.7"/>
  <path d="M375,259 m-4,2.5 h7 m-3.5,0 v-5.5 m0,5.7 -2.5,-3.7 m5,0 -2.5,3.7"/>
  <path d="M67,266 m-4,2.5 h7 m-3.5,0 v-5.5 m0,5.7 -2.5,-3.7 m5,0 -2.5,3.7"/>
  <path d="M452,160 m-4,2.5 h7 m-3.5,0 v-5.5 m0,5.7 -2.5,-3.7 m5,0 -2.5,3.7"/>
  <path d="M88,256 m-4,2.5 h7 m-3.5,0 v-5.5 m0,5.7 -2.5,-3.7 m5,0 -2.5,3.7"/>
  <path d="M5,7 m-4,2.5 h7 m-3.5,0 v-5.5 m0,5.7 -2.5,-3.7 m5,0 -2.5,3.7"/>
  <path d="M278,63 m-4,2.5 h7 m-3.5,0 v-5.5 m0,5.7 -2.5,-3.7 m5,0 -2.5,3.7"/>
  <path d="M125,384 m-4,2.5 h7 m-3.5,0 v-5.5 m0,5.7 -2.5,-3.7 m5,0 -2.5,3.7"/>
  <path d="M42,354 m-4,2.5 h7 m-3.5,0 v-5.5 m0,5.7 -2.5,-3.7 m5,0 -2.5,3.7"/>
  <path d="M160,375 m-4,2.5 h7 m-3.5,0 v-5.5 m0,5.7 -2.5,-3.7 m5,0 -2.5,3.7"/>
  <path d="M256,85 m-4,2.5 h7 m-3.5,0 v-5.5 m0,5.7 -2.5,-3.7 m5,0 -2.5,3.7"/>
  <path d="M235,231 m-4,2.5 h7 m-3.5,0 v-5.5 m0,5.7 -2.5,-3.7 m5,0 -2.5,3.7"/>
  <path d="M203,17 m-4,2.5 h7 m-3.5,0 v-5.5 m0,5.7 -2.5,-3.7 m5,0 -2.5,3.7"/>
  <path d="M449,211 m-4,2.5 h7 m-3.5,0 v-5.5 m0,5.7 -2.5,-3.7 m5,0 -2.5,3.7"/>
  <path d="M137,87 m-4,2.5 h7 m-3.5,0 v-5.5 m0,5.7 -2.5,-3.7 m5,0 -2.5,3.7"/>
  <path d="M319,406 m-4,2.5 h7 m-3.5,0 v-5.5 m0,5.7 -2.5,-3.7 m5,0 -2.5,3.7"/>
  <path d="M187,88 m-4,2.5 h7 m-3.5,0 v-5.5 m0,5.7 -2.5,-3.7 m5,0 -2.5,3.7"/>
</svg>
